<?xml version="1.0" encoding="UTF-8"?>
<svg id="_레이어_1" data-name="레이어 1" xmlns="http://www.w3.org/2000/svg" viewBox="0 0 40 40">
  <defs>
    <style>
      .cls-1 {
        fill: #d54400;
      }

      .cls-1, .cls-2, .cls-3 {
        stroke-width: 0px;
      }

      .cls-4 {
        fill: none;
        stroke: #373433;
        stroke-linecap: round;
        stroke-miterlimit: 10;
      }

      .cls-2 {
        fill: #f5bf00;
      }

      .cls-3 {
        fill: #373433;
      }
    </style>
  </defs>
  <g>
    <path class="cls-1" d="M13.35,17.83c1.11-.98.52-2.61-.29-3.8-1.07-1.57-2.68-3.07-1.59-5.14.29-.55.74-1.03,1.27-1.42,2.13-1.56,5-1.7,7.29-2.91,1.41-.75,2.57-2.14,2.5-3.51,0-.18.27-.25.36-.08.65,1.2.38,2.76-.04,4.1-.52,1.62-1.17,3.4-.37,4.93.71,1.36,2.38,2.11,3.49,3.25,1.26,1.29,1.75,3.12,1.28,4.77-.26.92-.81,1.79-.64,2.78.07.38.27.75.61,1,1.06.76,2.38-.09,2.72-1.07.3-.84.12-1.75.1-2.63-.02-.74.13-1.56.66-2.1.09-.09.25-.02.23.1-.16.78.17,1.61.64,2.3.55.81,1.3,1.51,1.79,2.34,1.01,1.73.72,3.98-.7,5.47-.87.92-2.18,1.67-2.36,2.85-.17,1.12.77,2.12,1.15,3.2.63,1.82-.44,3.86-2.15,5.04-1.71,1.18-3.94,1.63-6.11,1.78-4.32.31-8.88-.49-12.31-2.81-3.43-2.32-5.52-6.32-4.58-10.03.87-3.43,3.99-6.1,7.06-8.41"/>
    <path class="cls-2" d="M15.99,23.53c.69-.65.32-1.72-.18-2.51-.66-1.04-1.66-2.03-.98-3.4.18-.36.46-.68.78-.94,1.32-1.03,3.09-1.12,4.5-1.93.87-.5,1.59-1.41,1.54-2.32,0-.12.17-.16.22-.06.4.79.24,1.82-.03,2.71-.32,1.07-.72,2.25-.23,3.26.44.9,1.47,1.4,2.16,2.15.78.85,1.08,2.06.79,3.15-.16.61-.5,1.18-.39,1.84.04.25.17.5.38.66.66.5,1.47-.06,1.68-.71.18-.56.07-1.16.06-1.74-.01-.49.08-1.03.41-1.39.05-.06.15-.01.14.06-.1.51.1,1.07.4,1.52.34.53.8,1,1.1,1.55.62,1.15.44,2.63-.43,3.62-.54.61-1.35,1.1-1.46,1.89-.1.74.48,1.4.71,2.12.39,1.21-.27,2.55-1.33,3.33-1.06.78-2.43,1.07-3.77,1.18-2.67.21-5.48-.32-7.6-1.86s-3.41-4.18-2.83-6.63c.54-2.27,2.47-4.03,4.36-5.56"/>
  </g>
  <path class="cls-3" d="M15.17,21.64c0,1.19,1.17,2.31.17,2.31s-1.82-.96-1.82-2.15.81-2.15,1.82-2.15-.17.8-.17,1.98Z"/>
  <path class="cls-3" d="M18.47,21.64c0,1.19,1.17,2.31.17,2.31s-1.82-.96-1.82-2.15.81-2.15,1.82-2.15-.17.8-.17,1.98Z"/>
  <path class="cls-4" d="M11.36,25.11s3.97,5.95,9.92.33"/>
</svg>