<?xml version="1.0" encoding="UTF-8"?>
<svg id="_레이어_1" data-name="레이어 1" xmlns="http://www.w3.org/2000/svg" viewBox="0 0 40 40">
  <defs>
    <style>
      .cls-1 {
        fill: #d54400;
        stroke-width: 0px;
      }

      .cls-2 {
        fill: none;
        stroke: #d54400;
        stroke-miterlimit: 10;
        stroke-width: 2.9px;
      }
    </style>
  </defs>
  <circle class="cls-2" cx="20" cy="20" r="17"/>
  <g>
    <path class="cls-1" d="M15.74,28.36h-5.04v-6.88h5.04v6.88ZM12.45,26.97h1.53v-4.11h-1.53v4.11ZM18.6,30.79h-1.78v-10.24h1.78v10.24ZM19.99,25.73h-1.78v-1.47h1.78v1.47Z"/>
    <path class="cls-1" d="M25.44,25.51h-3.01v2.07h-1.76v-3.44h3v-1.36h-3.01v-1.42h4.78v4.16ZM23.95,26.98c.7-.04,1.4-.11,2.1-.23l.16,1.4c-.73.13-1.46.21-2.2.27-.74.05-1.56.07-2.47.07h-.89v-1.46h.89c.9,0,1.7,0,2.4-.04ZM28.41,30.82h-1.76v-10.28h1.76v10.28ZM29.8,25.75h-1.78v-1.46h1.78v1.46Z"/>
  </g>
  <g>
    <path class="cls-1" d="M19.61,18.45c-.23-.13-5.09-3-5.14-6.29s4.37-3.81,5.34-.69"/>
    <path class="cls-1" d="M19.61,18.45c.23-.13,5.27-3.01,5.31-6.29.05-3.35-4.37-3.81-5.34-.69"/>
  </g>
</svg>