<?xml version="1.0" encoding="UTF-8"?>
<svg id="_레이어_1" data-name="레이어 1" xmlns="http://www.w3.org/2000/svg" viewBox="0 0 40 40">
  <defs>
    <style>
      .cls-1, .cls-2, .cls-3 {
        fill: none;
      }

      .cls-1, .cls-2, .cls-3, .cls-4 {
        stroke-miterlimit: 10;
      }

      .cls-1, .cls-2, .cls-4 {
        stroke-width: .3px;
      }

      .cls-1, .cls-4 {
        stroke: #70035b;
      }

      .cls-2 {
        stroke: #d1a002;
      }

      .cls-3 {
        stroke: #373433;
        stroke-linecap: round;
        stroke-width: .36px;
      }

      .cls-5, .cls-4 {
        fill: #f5bf00;
      }

      .cls-5, .cls-6 {
        stroke-width: 0px;
      }

      .cls-6 {
        fill: #eaa17f;
      }
    </style>
  </defs>
  <g>
    <path class="cls-4" d="M7.38,5.97c-.75,1.08-1.46,2.17-2.21,3.25-.3.45-.64.93-.71,1.5-.11,1.01.64,1.91,1.38,2.54,1.23,1.05,2.65,1.87,4.15,2.47,3.78,1.5,7.93,1.68,12,1.57,3.74-.11,7.66-.49,10.88-2.39,1.98-1.16,3.59-2.84,5.16-4.45.6-.64,1.27-1.42,1.16-2.28-.15-1.2-1.68-1.79-1.83-3.03-.04-.15-.07-.3-.11-.45-.41-.9-2.69-.86-3.25-.6-1.2.6-.9,1.42-2.17,1.83-1.61.52-3.29.86-4.97,1.23-2.28.49-4.56.97-6.88.93-2.13-.04-4.26-.45-6.32-1.05-.82-.22-1.27-.49-1.94-.97-.52-.37-.04-1.16-.64-1.5-1.05-.56-3.22.64-3.7,1.38h0Z"/>
    <path class="cls-5" d="M6.75,13.97c-1.31,2.88-2.32,5.91-3.33,8.94-.67,2.06-1.38,4.11-2.06,6.17-.3.93-.64,1.91-.56,2.88.04.97.56,2.02,1.46,2.36.75.3,1.57.11,2.36.04,1.79-.15,3.63.22,5.2,1.08.52.3,1.01.6,1.61.64.19,0,.41-.04.6-.11.67-.34.64-1.12.6-1.79-.41-5.83.6-11.74,2.84-17.12"/>
    <path class="cls-1" d="M6.75,13.97c-1.31,2.88-2.32,5.91-3.33,8.94-.67,2.06-1.38,4.11-2.06,6.17-.3.93-.64,1.91-.56,2.88.04.97.56,2.02,1.46,2.36.75.3,1.57.11,2.36.04,1.79-.15,3.63.22,5.2,1.08.52.3,1.01.6,1.61.64.19,0,.41-.04.6-.11.67-.34.64-1.12.6-1.79-.41-5.83.6-11.74,2.84-17.12"/>
    <path class="cls-2" d="M7.38,5.97c-.75,1.08-1.46,2.17-2.21,3.25-.3.45-.64.93-.71,1.5-.11,1.01.64,1.91,1.38,2.54,1.23,1.05,2.65,1.87,4.15,2.47,3.78,1.5,7.93,1.68,12,1.57,3.74-.11,7.66-.49,10.88-2.39,1.98-1.16,3.59-2.84,5.16-4.45.6-.64,1.27-1.42,1.16-2.28-.15-1.2-1.68-1.79-1.83-3.03-.04-.15-.07-.3-.11-.45-.41-.9-2.69-.86-3.25-.6-1.2.6-.9,1.42-2.17,1.83-1.61.52-3.29.86-4.97,1.23-2.28.49-4.56.97-6.88.93-2.13-.04-4.26-.45-6.32-1.05-.82-.22-1.27-.49-1.94-.97-.52-.37-.04-1.16-.64-1.5-1.05-.56-3.22.64-3.7,1.38h0Z"/>
    <path class="cls-2" d="M6.75,13.97c-1.31,2.88-2.32,5.91-3.33,8.94-.67,2.06-1.38,4.11-2.06,6.17-.3.93-.64,1.91-.56,2.88.04.97.56,2.02,1.46,2.36.75.3,1.57.11,2.36.04,1.79-.15,3.63.22,5.2,1.08.52.3,1.01.6,1.61.64.19,0,.41-.04.6-.11.67-.34.64-1.12.6-1.79-.41-5.83.6-11.74,2.84-17.12"/>
    <path class="cls-3" d="M5.1,26.75v.37c0,.26-.04.52-.04.82s-.04.6-.11.9c0,.11-.04.22-.04.37,0,.04,0,.11-.04.15"/>
    <path class="cls-3" d="M5.17,26.72s.07,0,.11.04c.07.04.15.04.22.07.11.04.19.04.3.07.04,0,.11.04.15.04h.15s.07.04.11.04h.07s.04,0,.07.04c.04.04.07.04.15.04.04,0,.11,0,.15.04.04,0,.07.04.11.04h.07c.07.04.15.04.22.07.07.04.11.04.19.04v.19c-.04.11-.04.26-.07.37-.04.19-.07.41-.11.6,0,.07-.04.15-.04.22s-.04.11-.04.19c-.04.15-.04.26-.07.41-.04.07-.04.15-.04.26,0,.04,0,.11-.04.15,0,.04,0,.07-.04.11v.04s-.07.04-.11.04c-.07,0-.11-.04-.19-.07-.04,0-.11-.04-.15-.04s-.11,0-.15-.04c-.04,0-.07,0-.11-.04-.11-.04-.22-.07-.3-.07s-.15-.04-.22-.04-.15-.04-.22-.04c-.19-.04-.37-.07-.56-.11"/>
    <path class="cls-3" d="M8.5,26.72v.22c0,.07-.04.19-.04.26,0,.11-.04.22-.04.34-.04.19-.07.41-.11.6-.04.15-.04.26-.07.41-.04.11-.04.26-.07.37-.04.11-.04.22-.07.34-.04.04-.04.11-.04.15s0,.11-.04.15c-.04.15-.07.3-.11.49-.04.15-.04.26-.07.41,0,.04-.04.07-.04.11v.07"/>
    <path class="cls-3" d="M8.28,28.74h.26c.11,0,.19.04.3.07.07,0,.19,0,.26.04.15.04.3.04.45.11.07,0,.11.04.19.04.04,0,.04.04.07,0"/>
    <path class="cls-3" d="M6.89,30.76h-.04s-.04.04-.07.04c-.07.04-.19.11-.26.19l-.34.34-.22.22-.19.19-.71.71s-.11.07-.15.15c-.04.04-.07.07-.11.15-.04.04-.07.07-.07.11l-.04.04"/>
    <path class="cls-3" d="M6.49,31.25s.09.18.09.14c.04.07-.06-.15-.06-.12.07.11.19.26.26.37.11.15.22.3.34.41.11.11.22.26.34.41.04.04.07.07.11.15.04.04.04.07.07.11,0,.04.04.04.04.07s.04.04.04.07c.04.07.07.11.11.19s.04.11.11.19"/>
  </g>
  <g>
    <path class="cls-6" d="M16.68,33.12c-.13-.2-2.88-4.03-1.79-6.58,1.11-2.58,4.66-1.44,4.34,1.28"/>
    <path class="cls-6" d="M16.68,33.12c.22-.01,5.07-.52,6.25-3.03,1.17-2.56-2.08-4.41-3.87-2.35"/>
  </g>
  <g>
    <path class="cls-6" d="M25.25,26.68c-.08-.02-1.75-.29-2.12-1.21-.37-.93.81-1.54,1.42-.77"/>
    <path class="cls-6" d="M25.25,26.68c.05-.06,1.15-1.41.81-2.35-.35-.94-1.64-.59-1.57.39"/>
  </g>
</svg>