<?xml version="1.0" encoding="UTF-8"?>
<svg id="_레이어_1" data-name="레이어 1" xmlns="http://www.w3.org/2000/svg" viewBox="0 0 40 40">
  <defs>
    <style>
      .cls-1, .cls-2 {
        stroke-width: .1px;
      }

      .cls-1, .cls-2, .cls-3 {
        fill: none;
        stroke: #373433;
        stroke-linecap: round;
      }

      .cls-1, .cls-3 {
        stroke-linejoin: round;
      }

      .cls-4 {
        fill: #019c65;
      }

      .cls-4, .cls-5, .cls-6, .cls-7, .cls-8, .cls-9, .cls-10 {
        stroke-width: 0px;
      }

      .cls-5 {
        fill: #d54400;
      }

      .cls-7 {
        fill: #f5bf00;
      }

      .cls-8 {
        fill: #fff;
      }

      .cls-9 {
        fill: #d8bf79;
      }

      .cls-2 {
        stroke-miterlimit: 10;
      }

      .cls-10 {
        fill: #d9d9d9;
      }

      .cls-3 {
        stroke-width: .33px;
      }
    </style>
  </defs>
  <path class="cls-4" d="M27.37,26.32H.11s-.11.04-.11.11v3.63s.04.11.11.11h27.25s.11-.04.11-.11v-3.63c0-.08-.04-.11-.11-.11Z"/>
  <path class="cls-5" d="M39.39,19.87H12.33L.08,26.28v.04h27.4l11.95-6.26c.11-.04.08-.19-.04-.19Z"/>
  <path class="cls-8" d="M27.48,26.39v3.59c0,.08.08.11.15.08l12.14-6.34s.04-.04.04-.08v-3.59c0-.08-.08-.11-.15-.08l-12.14,6.34s-.04.04-.04.08Z"/>
  <path class="cls-9" d="M26.3,22.5H2.94s-.11.04-.11.11v3.09s.04.11.11.11h23.36s.11-.04.11-.11v-3.09c0-.08-.04-.11-.11-.11Z"/>
  <path class="cls-7" d="M36.56,16.97H13.44l-10.5,5.5v.04h23.47l10.19-5.34c.11-.04.08-.19-.04-.19h0Z"/>
  <path class="cls-8" d="M26.41,22.58v3.05c0,.08.08.11.15.08l10.38-5.42s.04-.04.04-.08v-3.05c0-.08-.08-.11-.15-.08l-10.38,5.42s-.04.04-.04.08h0Z"/>
  <path class="cls-4" d="M25.88,14.45H6.3s-.11.04-.11.11v6.72s.04.11.11.11h19.58s.11-.04.11-.11v-6.72s-.08-.11-.11-.11Z"/>
  <path class="cls-5" d="M34.39,9.83H15.08l-8.82,4.62v.04h19.73l8.44-4.43c.11-.08.08-.23-.04-.23h0Z"/>
  <path class="cls-8" d="M25.99,14.52v6.68c0,.08.08.11.15.08l8.7-4.54s.04-.04.04-.08v-6.68c0-.08-.08-.11-.15-.08l-8.7,4.54s-.04.04-.04.08Z"/>
  <path class="cls-1" d="M30.27,14.83l4.58-2.25"/>
  <path class="cls-1" d="M28.55,17.58l5.38-2.6"/>
  <path class="cls-1" d="M1.72,28.34l23.82.04"/>
  <path class="cls-10" d="M5.31,25.67l-.11-3.09c0-.08.04-.11.11-.11h5.53s.11.04.11.11l.15,3.05c0,.08-.04.11-.11.11h-5.57c-.08.04-.11,0-.11-.08h0Z"/>
  <path class="cls-6" d="M8.7,24.03l-.31.15s-.08.08-.04.11l.08.34c0,.11-.11.15-.19.08l-.27-.23s-.08-.04-.11,0l-.31.15c-.08.04-.19-.04-.15-.15l.15-.31s0-.08-.04-.11l-.27-.23c-.08-.08,0-.19.08-.19l.34.04s.08,0,.11-.04l.15-.31c.04-.08.19-.08.19.04l.08.34s.04.08.08.08l.34.04c.15,0,.19.15.08.19Z"/>
  <path class="cls-1" d="M31.41,26.01l8.4-4.54"/>
  <path class="cls-1" d="M34.24,25.52l5.57-2.98"/>
  <path class="cls-1" d="M29.39,22.31l7.6-3.74"/>
  <path class="cls-7" d="M16.26,10.67l-4.24,2.37c-.08.04-.04.19.04.19l3.17.04h.04l3.85-2.37c.08-.04.04-.19-.04-.19l-2.79-.08s-.04,0-.04.04h0Z"/>
  <path class="cls-2" d="M27.57,29.96l12.43-6.47"/>
  <path class="cls-3" d="M8.09,16.47h1.45"/>
  <path class="cls-3" d="M8.13,16.47v.11c0,.08,0,.19-.04.27v.84s-.04.19.04.23h.23c.34,0,.65.08.95.08"/>
  <path class="cls-3" d="M9.66,16.51h.34c.08,0,.15,0,.23-.04h.11"/>
  <path class="cls-3" d="M9.62,16.58s-.04.08,0,.08v.19c-.04.15,0,.31-.04.42-.04.15-.08.31-.08.46,0,.11,0,.23-.04.31,0,.04-.04.04,0,.04h.5c.08,0,.19-.04.27-.04h.11s.08,0,.11-.04h.08"/>
  <path class="cls-3" d="M10.15,17.19h.38c.11,0,.19,0,.31-.04.04,0,.15.04.19,0"/>
  <path class="cls-3" d="M11.26,16.2c0,.11,0,.23-.04.34-.04.27-.04.5-.04.76v1.07"/>
  <path class="cls-3" d="M9.43,18.95h1.22s.15-.04.19,0,0,.11,0,.15c-.04.11,0,.23,0,.31v.61"/>
  <path class="cls-3" d="M11.98,16.05v.31s0,.08-.04.15v.69"/>
  <path class="cls-3" d="M12.94,16.16c0,.38.08.73.08,1.11"/>
  <path class="cls-3" d="M12.02,16.81h.95"/>
  <path class="cls-3" d="M12.02,17.16c-.04.11.53.08.61.08h.5"/>
  <path class="cls-3" d="M12.6,17.31v.53s-.04.11-.04.15"/>
  <path class="cls-3" d="M11.79,18.03h.15c.11,0,.23-.04.34-.04h.53c.31,0,.65-.04.95-.04"/>
  <path class="cls-3" d="M11.87,18.76h.61s0,.08-.04.11v.11c0,.08-.04.15-.08.23-.04.08-.04.19-.04.27,0,.04-.04.11-.04.19"/>
  <path class="cls-3" d="M12.52,18.72h.46s.04.04.04.08c0,.15-.04.31-.04.46,0,.08,0,.15-.04.23v.23"/>
  <path class="cls-3" d="M14.54,17.54h-.11s-.08,0-.11.04c-.04,0-.08,0-.11.04s-.11.11-.11.19v.11c0,.08-.04.11-.04.15v.19c0,.08.08.11.11.15.11.08.27.04.38,0,.08-.04.11-.08.19-.11.04-.04.08-.08.08-.11.04-.08.04-.19.04-.27s.04-.19-.04-.27c-.08-.11-.15-.11-.27-.11h0Z"/>
  <path class="cls-3" d="M15.15,17.23v1.87"/>
  <path class="cls-3" d="M15.99,17.27c-.08,0-.11,0-.19.04-.04.04-.04.11-.08.15,0,.04-.04.08-.04.15,0,.04,0,.08.04.11s.08.08.11.08c.04.04.11.04.19.04h.15c.11-.04.15-.15.23-.23.04-.04.08-.15.04-.19-.04-.08-.11-.11-.23-.15h-.23"/>
  <path class="cls-3" d="M15.65,18.53h1.64"/>
  <path class="cls-3" d="M17.63,16.47s-.04.11-.04.15v.95c0,.19.04.38.04.53,0,.19.04.38.04.53v.95"/>
  <path class="cls-3" d="M19.24,16.28h1.3s-.04.04-.08.04c-.04.04-.08.04-.11.08-.15.08-.27.23-.42.38-.15.15-.31.34-.42.53-.04.08-.11.15-.15.19-.04.04-.08.08-.08.11"/>
  <path class="cls-3" d="M19.81,16.85s.04.08.04.11c.04.11.15.23.23.34.08.11.19.23.27.34.04.04.15.15.11.23"/>
  <path class="cls-3" d="M20.65,16.93h0s.08,0,.11-.04c.11,0,.23,0,.34-.04.08,0,.19,0,.27-.04.04,0,.11,0,.15-.04"/>
  <path class="cls-3" d="M21.68,16.13v.11c0,.08-.04.11-.04.15s0,.11-.04.15c-.08.31-.08.61-.08.92v.34s0,.11.04.15v.15s.04.08,0,.15"/>
  <path class="cls-3" d="M21.03,18.49c-.11,0-.23,0-.34.04-.08.04-.11.08-.11.15-.04.08-.04.11-.04.19s0,.15.04.23c.04.08.08.11.11.15.11.11.27.08.38.08h.08s.04-.04.08-.08c.04-.04.08-.04.08-.08v-.04s.04-.04.04-.08v-.27c0-.08,0-.15-.04-.23-.04-.04-.08-.04-.11-.04-.04.08-.08.04-.15-.04h0Z"/>
  <path class="cls-3" d="M22.56,16.24c0,.08-.04.15-.08.23-.04.08-.04.15-.08.23-.04.08-.08.15-.11.27-.04.15-.11.27-.11.42,0,.04,0,.08-.04.11,0,.04,0,.15-.04.15"/>
  <path class="cls-3" d="M22.29,16.97s.11.08.11.11c.08.08.19.19.27.31.04.08.11.15.15.23.04.08.08.11.11.15"/>
  <path class="cls-3" d="M22.79,17h0s.11-.04.15-.04c.08,0,.15,0,.23-.04.08,0,.15,0,.23-.04.08,0,.11-.04.15-.08"/>
  <path class="cls-3" d="M23.63,16.2v.84c0,.34.08.73.08,1.07"/>
  <path class="cls-3" d="M22.71,18.57s.11-.04.15-.04c.11-.04.19-.04.31-.04.08,0,.15-.04.19-.04s.08-.04.11,0v.5c0,.11-.04.19-.04.31v.15"/>
</svg>