<?xml version="1.0" encoding="UTF-8"?>
<svg id="_레이어_1" data-name="레이어 1" xmlns="http://www.w3.org/2000/svg" viewBox="0 0 40 40">
  <defs>
    <style>
      .cls-1 {
        fill: #9adefc;
      }

      .cls-1, .cls-2 {
        stroke-width: 0px;
      }

      .cls-3 {
        fill: none;
        stroke: #04679e;
        stroke-linecap: round;
        stroke-miterlimit: 10;
        stroke-width: .3px;
      }

      .cls-2 {
        fill: #04679e;
      }
    </style>
  </defs>
  <path class="cls-1" d="M26.99,25.97c-.04-.07-.11-.15-.13-.23-.02-.07-.01-.11-.05-.17-.09-.14-.18-.28-.27-.42-.03-.05-.06-.1-.08-.15-.06-.11-.15-.21-.21-.32-.02-.04-.02-.07-.06-.11-.02-.02-.05-.03-.07-.05-.04-.04-.07-.12-.11-.17-.06-.08-.13-.15-.19-.23-.14-.18-.25-.38-.38-.57-.06-.08-.12-.14-.18-.22-.04-.06-.07-.13-.11-.19-.02-.03-.06-.05-.08-.08-.04-.06-.05-.12-.09-.17-.08-.09-.11-.15-.15-.26-.03-.08-.08-.14-.12-.22-.06-.1-.08-.21-.12-.32-.05-.13-.11-.26-.15-.4-.04-.17-.16-.29-.19-.45-.03-.13-.07-.23-.14-.34-.07-.12-.1-.27-.18-.39-.02-.03-.04-.03-.06-.08-.02-.05-.03-.09-.06-.14-.07-.11-.15-.21-.21-.32-.09-.14-.17-.33-.29-.45-.12-.12-.21-.25-.35-.35-.06-.04-.13-.05-.19-.08-.06-.04-.12-.09-.18-.14-.07-.05-.13-.09-.18-.17-.03-.05-.04-.08-.08-.12-.03-.04-.09-.06-.11-.11-.01-.04-.02-.08-.03-.11-.02-.08-.08-.15-.11-.23-.05-.12-.3-.27-.2-.38.13-.15.47-.32.63-.43.09-.06.12-.14.22-.19.11-.05.17-.14.28-.18.17-.07.34-.14.52-.17.15-.03.28-.04.42-.09.06-.02.1-.05.15-.07.08-.04.17-.04.25-.05.15-.03.21-.14.33-.21.11-.07.23-.13.34-.22.12-.1.22-.22.34-.32.14-.12.28-.23.4-.37.07-.08.15-.15.23-.23.05-.05.11-.08.15-.14.04-.05.05-.11.09-.15.03-.04.08-.07.1-.11.03-.04.03-.1.05-.14.02-.05.06-.08.09-.12.05-.07.07-.12.11-.2.06-.14.17-.26.22-.41.06-.18.15-.33.21-.51.12-.37.25-.74.28-1.13.01-.15.04-.29.04-.44,0-.19,0-.38,0-.56v-.92c.02-.17.01-.34.02-.5,0-.17.04-.33.05-.5,0-.24.03-.48-.01-.72-.02-.09-.04-.17-.06-.26-.02-.1,0-.2-.03-.3-.03-.14-.15-.25-.19-.39-.02-.09-.02-.14-.08-.21-.04-.06-.06-.07-.09-.15-.03-.08-.08-.12-.11-.19-.09-.16-.1-.35-.2-.5-.04-.06-.09-.11-.12-.18-.04-.08-.06-.17-.11-.25-.05-.08-.08-.16-.11-.25-.03-.07-.07-.11-.11-.17-.04-.07-.05-.13-.09-.2-.05-.1-.14-.19-.22-.27-.13-.13-.27-.29-.43-.37-.08-.04-.14-.09-.21-.14-.04-.03-.11-.06-.13-.12-.04-.1,0-.29,0-.4,0-.06,0-.12,0-.17,0-.15.04-.27.04-.42,0-.07.01-.13.03-.2.02-.1,0-.19.03-.28.05-.16.09-.33.09-.5,0-.17.04-.3.04-.46,0-.06-.06-.17-.12-.21-.11,0-.35-.06-.44-.13-.06-.05-.05-.06-.14-.06-.07,0-.09-.03-.15-.07-.06-.04-.15-.05-.22-.07-.05-.02-.1-.03-.15-.05-.08-.03-.13-.02-.21-.04-.17-.04-.32-.16-.48-.21-.08-.02-.16-.02-.24-.04-.1-.03-.21-.07-.31-.08-.09-.01-.19-.03-.28-.05-.09-.02-.17-.02-.26-.04-.54-.1-1.07-.22-1.6-.36-.38-.11-.77.16-.81.56-.01.12-.02.23-.02.35,0,.06-.02.07-.03.11-.01.05,0,.09,0,.14,0,.05-.03.06-.04.1-.01.05,0,.11,0,.16,0,.06-.03.07-.03.11,0,.04,0,.09,0,.14,0,.11-.04.19-.04.3,0,.19,0,.37-.05.55-.01.06-.06.16-.1.21-.02.03-.05.04-.07.07-.03.04-.03.07-.07.11-.04.04-.12.09-.15.14-.02.03,0,.07-.02.1-.02.03-.06.07-.08.11-.04.06-.07.12-.11.18-.02.03-.04.08-.07.11-.05.04-.08.03-.11.09-.02.04-.02.06-.05.1-.04.04-.1.06-.14.1-.03.04-.05.07-.08.1-.04.04-.09.04-.13.08-.05.04-.06.1-.12.13-.03.02-.07.03-.1.05-.07.05-.14.21-.24.21,0,.06-.08.1-.12.13-.06.04-.09.09-.14.14-.05.05-.12.08-.18.13-.06.05-.11.12-.17.16-.04.03-.09.05-.13.09-.02.02-.05.05-.07.07-.04.04-.05.03-.11.06-.08.04-.1.09-.15.15-.03.04-.07.05-.11.08-.05.04-.07.1-.13.14-.03.02-.06.03-.09.05-.03.03-.04.07-.07.11-.03.04-.07.05-.11.08-.04.03-.05.06-.08.1-.06.09-.15.16-.22.24-.04.04-.05.06-.1.09-.02.02-.05.05-.07.07-.02.03-.04.06-.03.09-.03.05-.08.08-.12.14-.04.06-.08.11-.11.18-.03.06-.07.09-.11.14-.05.08-.07.17-.11.25-.04.08-.09.15-.13.22-.04.08-.05.16-.09.24-.07.13-.17.25-.17.39,0,.08-.03.09-.07.15-.03.05-.05.13-.07.18-.03.06-.06.14-.08.2-.02.08-.05.15-.07.23-.04.13-.07.25-.13.37-.04.08-.05.19-.06.28-.03.15-.11.28-.14.43-.02.09-.02.17-.04.26-.02.1-.05.18-.05.28,0,.07,0,.14,0,.21,0,.09-.04.16-.04.25,0,.39-.01.78-.02,1.17,0,.07,0,.14,0,.21,0,.1.04.18.06.26.02.09.16.31.17.39.02.19.15.29.25.45.05.08.1.18.15.27.04.08.09.13.14.21.07.12.15.25.24.36.02.03.04.05.05.08,0,.02,0,.05.01.07.02.02.03.03.06.04.04.06.07.12.11.17.17.22.32.44.46.68.02.04.05.07.07.11,0,.02.01.04.02.05,0,.02.02.02.04.02.03,0,.04.01.04.04,0,.02,0,.04.02.05.01.02.04.03.05.05.06.07.09.11.13.19.04.08.1.1.17.15-.02.07-.16.12-.21.18-.04.04-.07.09-.1.13-.04.06-.03.06-.04.13-.01.06-.05.12-.07.18-.02.07-.01.13-.03.2-.03.12-.02.25-.02.37,0,.11.05.21.13.3.04.04.09.07.13.1.05.04.09.08.15.12.04.03.08.07.12.09.03.01.06,0,.09.02.02.01.04.03.06.05.05.04.11.04.17.07.06.04.09.08.17.09,0,.04-.08.1-.11.13-.05.06-.12.06-.18.11-.03.03-.04.07-.07.1-.03.03-.08.04-.11.06-.05.04-.07.1-.11.14-.04.04-.12.06-.14.11-.01.03,0,.07-.01.1-.02.03-.07.02-.1.05-.05.04-.08.13-.12.19-.02.03-.05.07-.07.1-.03.03-.05.06-.07.09-.02.02-.05.04-.07.07-.02.04,0,.08-.01.12-.02.06-.09.13-.12.18-.02.04-.05.08-.07.12-.02.06-.02.11-.03.16-.05.19-.2.33-.22.53,0,.06-.02.11-.04.17-.02.06-.04.13-.06.2-.02.07,0,.15-.01.23,0,.08-.04.12-.04.19,0,.09-.02.14-.04.22-.02.1.01.21-.01.31-.03.15-.06.27-.13.4-.02.05-.05.09-.07.14-.03.07-.08.1-.13.15-.02.02-.07.06-.09.08-.02.04-.02.07-.04.1-.04.06-.1.11-.15.17-.04.05-.04.12-.07.18-.03.05-.05.1-.08.15-.03.06-.08.08-.1.15-.03.11-.07.2-.13.3-.04.05-.04.08-.06.14-.02.06-.05.07-.08.11-.02.03-.02.07-.04.1-.02.04-.05.06-.07.09-.02.04-.02.08-.04.12-.02.04-.06.06-.08.1-.04.05-.04.11-.06.17-.01.03-.04.05-.05.09-.01.04,0,.08,0,.12,0,.21-.08.4-.08.61,0,.18-.04.34-.04.52,0,.18-.05.34-.1.5-.02.08-.01.15-.06.22-.04.06-.07.13-.11.19-.02.02-.04.04-.06.07-.02.05,0,.1-.03.16-.01.03-.05.07-.06.1-.01.05-.02.09-.04.13-.03.06-.07.11-.09.17-.03.07-.02.14-.04.21-.04.17-.14.31-.17.48,0,.06,0,.12,0,.18,0,.07-.04.13-.05.19-.04.14-.04.28-.07.42-.03.16-.08.31-.1.47-.01.09,0,.19,0,.28,0,.09-.03.16-.04.24,0,.06,0,.13,0,.19-.01.06-.03.1-.03.17,0,.09,0,.18,0,.27,0,.11-.04.21-.04.32,0,.16,0,.32,0,.48,0,.24,0,.49-.01.73,0,.11.03.2.03.31,0,.14.03.28.03.42,0,.13.02.33.04.46.02.12.04.24.08.36.08.2.04.42.08.63.03.13.03.26.04.39,0,.06,0,.12,0,.18,0,.06.03.1.04.15,0,.05,0,.1,0,.16,0,.06.02.1.03.16.02.11.04.23.03.35,0,.24.07.45.13.68.06.22.12.45.2.67.05.14.17.35.27.46.03.03.05.06.09.09.06.05.13.08.19.12.06.04.12.08.19.12.07.04.17.05.25.08.08.03.15.08.23.09.09.01.16,0,.25.02.17.04.36.02.53.03.08,0,.14-.01.21-.04.03-.01.07-.02.1-.03.03-.02.06-.05.09-.06.03-.01.08,0,.11-.01.04-.02.05-.08.09-.1.06-.04.14-.05.16-.13.04.08.05.15.1.22.03.04.07.08.1.13.05.07.05.05.12.08.05.02.08.05.12.07.04.02.07.02.11.04.11.07.16.08.28.1.12.02.25.08.37.11.11.03.22.05.33.07.14.03.25.04.4.04.1,0,.2,0,.3,0,.26,0,.53.02.77-.1.06-.03.11-.06.18-.08.06-.03.09-.08.14-.12.04-.03.09-.03.14-.06.06-.04.11-.13.16-.19.06-.07.13-.12.2-.17.09-.07.1-.16.16-.24.02-.02.12-.14.13-.15.03.12.14.15.21.25.09.12.3.21.44.27.07.03.15.05.22.08.1.04.22.1.33.12.06.01.12,0,.19.01.06.01.12.04.18.06.12.04.25.07.38.08.28.03.55.08.83.08.18,0,.36.01.54,0,.06,0,.11-.02.17-.04.11-.04.23-.06.33-.09.07-.03.14-.03.2-.07.07-.04.12-.09.2-.13.09-.04.1-.05.15-.12.04-.05.1-.06.14-.1.05-.05.06-.13.13-.18.03-.03.06-.04.09-.07.04-.05.04-.1.07-.16.03-.05.07-.07.1-.12.03-.05.07-.11.08-.16.02-.06.02-.12.05-.18.03-.08.08-.15.11-.23.14-.39.2-.81.38-1.19.1-.21.17-.44.26-.66.06-.14.09-.29.14-.44.06-.18.12-.37.15-.56.05-.34.1-.68.16-1.01.03-.17.05-.33.07-.5.02-.16.01-.31.05-.47.07-.29.08-.58.14-.86.06-.31.04-.63.11-.94.05-.22.07-.44.05-.66-.01-.11.03-.19.04-.29.01-.11,0-.22,0-.33.02-.2.08-.39.08-.6,0-.24,0-.48,0-.72.01-.26.08-.51.08-.77,0-.06-.01-.16,0-.22.01-.06.04-.07.04-.14,0-.14.06-.27.08-.41.02-.18-.11-.41-.2-.56Z"/>
  <path class="cls-1" d="M22.85,10.22c-.16.05-.27.23-.38.35-.04.04-.09.09-.14.13-.07.07-.11.15-.18.22-.12.12-.21.26-.33.38-.06.07-.12.11-.17.18s-.12.13-.18.21c-.11.15-.23.31-.38.44-.22.19-.38.43-.57.64-.1.1-.18.21-.26.33-.07.09-.1.18-.16.27-.07.11-.17.22-.24.33-.04.05-.09.09-.13.14-.03.04-.03.1-.07.14-.04.03-.08.02-.11.05-.03.02-.02.04-.04.07-.04.07-.12.11-.18.17-.05.06-.1.11-.16.16-.01,0-.03,0-.05,0-.01.01-.02.04-.03.05-.03.03-.07.06-.1.09-.11.07-.22.15-.33.22-.06.04-.14.04-.18.1-.03.04-.03.07-.08.1s-.08.03-.14.03"/>
  <path class="cls-1" d="M18.86,10.3c0,.05-.04.1-.06.15-.03.08-.04.16-.07.24-.07.19-.17.36-.2.56-.02.12-.1.21-.14.33-.03.1-.06.2-.08.3-.04.19-.13.37-.17.57-.04.22-.1.42-.17.64-.02.08-.06.16-.07.24-.01.07.01.16,0,.23-.01.06-.04.1-.04.17s-.01.1-.03.16c-.02.07,0,.15,0,.22,0,.06-.05.1-.04.16"/>
  <path class="cls-1" d="M18.38,18.55c0,.12.01.19.06.3.06.13.16.24.21.37.03.09.08.12.15.18.05.05.08.1.14.15.08.07.13.13.22.17.07.03.13.07.19.11.05.03.07.08.11.1.03.02.08,0,.12.03.03.02.05.05.07.07.06.06.14.06.21.1.06.03.12.07.18.1.09.05.15.09.26.12.07.02.11.05.18.08.05.02.1.03.15.05.07.03.12.1.2.08"/>
  <path class="cls-1" d="M20.44,18.44s.08.06.11.08c.05.01.09.04.13.07.03.04.05.08.08.12.09.1.18.21.24.34.09.17.2.32.36.43.12.09.22.11.28.24.03.07.06.1.06.19,0,.04.01.1,0,.14-.01.05-.04.07-.07.11-.06.1-.07.21-.12.31s-.07.22-.08.33c-.02.3-.02.62.03.92.01.06.02.11.02.18,0,.1.05.19.08.29.03.12.09.23.12.35.02.09.04.17.07.25.05.12.12.21.15.33s.12.16.19.25c.05.06.08.12.15.17.08.07.15.12.24.17.21.13.4.25.63.35.1.04.2.06.29.1.05.02.09.06.15.05"/>
  <path class="cls-1" d="M17.33,17.14c0,.06.03.11.06.16.08.11.21.21.33.27.08.04.15.09.24.12.07.03.14.06.22.09.1.04.2.05.3.08h0"/>
  <path class="cls-1" d="M20.63,1.68c.06,0,.12.03.18.05.22.07.45.11.68.18.52.14,1.02.32,1.54.45.28.07.56.12.84.19.14.03.29.05.42.09"/>
  <path class="cls-1" d="M20.66,2.29s.07.04.11.05c.12.05.25.08.37.12.42.14.84.27,1.26.38.38.1.77.2,1.16.26.09.01.21,0,.3.03"/>
  <path class="cls-1" d="M20.44,3.03c.08.02.16.07.24.1.17.06.35.1.53.14.43.11.85.24,1.29.34s.88.18,1.33.25c.12.02.24.01.36.02.07,0,.14.03.21.04"/>
  <path class="cls-2" d="M20.57,1.22s.06,0,.09.01c.5.14,1.03.26,1.62.37.05,0,.09.01.14.02.04,0,.07,0,.11.02.1.02.2.04.3.05.05,0,.11.02.16.04.04.01.08.02.13.03.05.01.1.02.15.03.03,0,.06,0,.09.01.05.01.11.05.18.08.09.05.2.1.32.13.04.01.08.02.11.02.03,0,.05,0,.07.01.06.02.11.04.17.06l.08.02s.06.01.09.03c.06.04.12.08.23.09h0s0,0,0,0c.12.09.3.14.44.17,0,.04,0,.08-.01.11-.01.09-.03.19-.02.29,0,.13-.03.26-.08.41-.03.09-.03.17-.03.23,0,.03,0,.05,0,.08-.02.09-.03.15-.03.24,0,.05-.01.11-.02.16-.01.09-.02.18-.03.27v.11s0,.06,0,.06c0,.03,0,.06,0,.09-.01.13-.03.29.03.44.05.12.15.19.23.24.08.06.15.11.24.16.1.05.21.17.31.27l.04.04s.13.13.17.21c0,.02.02.04.02.05.02.04.04.1.08.17l.05.07s.03.04.04.07l.03.07c.03.07.06.14.1.21.02.03.03.07.05.1.02.04.03.08.05.12.03.06.06.11.1.16l.04.05s.05.12.07.19c.03.09.06.19.12.3.02.04.04.07.09.14.03.09.07.14.13.22t.02.06l.02.06c.03.11.08.2.13.27.03.04.05.08.06.11,0,.04,0,.07.01.11,0,.06,0,.12.02.17,0,.05.02.11.03.16l.02.11c.03.14.02.29.01.46,0,.07,0,.13,0,.2,0,.08-.01.17-.02.25,0,.08-.02.16-.02.24,0,.11,0,.23,0,.34v.18s-.01.92-.01.92v.14s0,.43,0,.43c0,.08-.01.17-.02.25,0,.05-.01.11-.02.16-.03.33-.14.65-.25.99l-.02.07c-.02.08-.06.15-.09.22-.04.1-.09.19-.12.29-.02.05-.05.1-.09.16-.04.07-.09.14-.12.22-.03.07-.05.1-.09.17-.03.03-.06.08-.09.14-.02.03-.03.07-.05.12-.02.02-.05.04-.07.07-.05.05-.07.11-.09.14l-.04.04s-.08.07-.12.11c-.03.03-.06.06-.09.09-.05.05-.1.09-.14.15-.07.08-.15.15-.23.22-.05.04-.09.08-.14.12-.05.05-.1.09-.15.14-.06.06-.12.12-.18.17-.06.05-.12.08-.19.12-.04.02-.08.05-.12.08-.05.03-.1.07-.14.11-.05.04-.07.06-.08.06h-.06c-.07.02-.16.03-.25.07-.03.01-.05.03-.08.04-.02,0-.03.02-.06.03-.07.03-.15.04-.23.05-.05,0-.09.01-.14.02-.21.04-.41.12-.58.19-.09.04-.16.09-.22.14-.03.02-.05.04-.08.06-.1.05-.17.12-.21.17-.02.02-.03.04-.04.04-.05.03-.11.07-.18.11-.18.11-.39.23-.51.37-.16.18-.13.4.1.64.02.02.04.04.05.05.02.04.04.09.06.13.02.03.03.06.04.1,0,.04.02.07.03.11.04.12.13.18.19.23l.03.05h0c.07.12.15.18.25.25l.05.04c.05.04.11.09.17.12.05.03.11.05.17.07.06.04.11.1.17.17.04.05.09.1.13.14.05.05.1.14.15.24.03.05.06.11.09.16.03.05.07.1.11.16.04.05.07.1.11.17.01.04.02.07.04.11.03.07.07.11.08.11,0,0,0,0,0,0,.02.04.05.09.07.15.03.07.06.15.1.22.06.1.08.17.1.25.03.13.08.23.13.31.03.06.06.1.07.14.03.13.08.25.12.35l.04.1s.02.06.03.1c.02.08.05.17.1.26.02.03.03.06.05.08.02.03.04.06.05.08.05.15.1.24.21.38.02.04.04.08.06.12.03.04.06.08.09.1.01.02.03.04.04.06.02.04.04.08.07.11.03.05.07.1.11.14.02.03.05.06.07.09.06.08.11.16.16.24.07.11.14.23.23.33l.08.1s.07.08.12.16c.03.05.06.12.13.18.02.02.04.03.05.04v.02s.02.02.02.02c.04.06.08.12.12.18.03.04.06.09.11.17.02.05.05.09.08.14.09.13.17.26.26.4,0,.03.01.07.03.11.03.1.09.18.13.25l.03.05c.15.25.16.33.16.36,0,.04-.02.09-.03.13-.02.09-.05.19-.05.28-.01.03-.02.06-.03.1-.02.09-.02.17-.01.29,0,.13-.02.25-.04.38-.02.13-.04.25-.04.38,0,.17,0,.34,0,.51v.22c0,.11-.02.21-.04.31-.02.09-.03.17-.04.26,0,.07,0,.14,0,.21,0,.04,0,.08,0,.12,0,.02,0,.04-.01.06-.02.07-.04.17-.03.29.02.18,0,.37-.04.56-.04.19-.06.37-.07.55-.01.14-.02.27-.05.4-.02.13-.04.26-.06.38-.02.16-.04.31-.08.47-.03.11-.03.22-.04.33,0,.05,0,.11-.01.17l-.02.15c-.01.11-.03.22-.05.33-.05.29-.1.58-.14.87l-.02.15c-.03.17-.08.35-.14.51-.02.07-.04.14-.06.21-.02.07-.04.15-.07.22-.03.07-.06.15-.08.23-.05.14-.1.28-.17.41-.12.25-.19.52-.26.77-.04.15-.08.3-.13.45,0,.03-.02.05-.04.08-.02.05-.05.09-.07.14-.02.05-.03.1-.05.19,0,0-.01.03-.07.11-.03.03-.06.07-.1.13-.02.03-.03.06-.05.11l-.04.03h-.02c-.07.08-.11.15-.14.2-.04.02-.11.06-.2.16-.08.03-.13.07-.17.1-.02.01-.03.02-.05.03,0,0-.03.01-.05.02-.03,0-.07.02-.11.03-.04.01-.08.02-.12.03-.08.02-.15.04-.22.06-.04.02-.06.02-.06.02h-.08c-.08,0-.16,0-.25,0h-.2c-.19,0-.38-.03-.58-.06l-.22-.03c-.11-.01-.22-.04-.36-.09-.04-.02-.11-.05-.18-.06-.04,0-.07,0-.11,0h-.06s0,0,0,0c-.04,0-.11-.04-.17-.06-.04-.02-.08-.03-.11-.05l-.13-.05-.1-.03c-.2-.08-.29-.14-.31-.17-.04-.05-.09-.09-.13-.13-.01,0-.02-.02-.03-.02,0,0,0,0,0,0l-.08-.27-.28.07c-.1.02-.15.07-.29.25-.05.06-.07.11-.1.15l-.05.06c-.07.06-.14.11-.21.19-.02.03-.04.06-.07.09-.01.02-.02.03-.02.03-.04.01-.1.03-.16.08-.03.02-.06.05-.11.09-.06.03-.11.05-.18.08-.12.06-.27.07-.42.07h-.14s-.06,0-.06,0h-.1s-.2,0-.2,0c-.12,0-.22-.01-.39-.05-.09-.02-.17-.03-.26-.06-.04-.01-.07-.02-.11-.04-.1-.04-.2-.07-.3-.09-.1-.02-.11-.02-.16-.06-.07-.04-.12-.06-.18-.08-.03-.02-.07-.04-.11-.06,0,0,0,0-.01,0-.02-.02-.03-.04-.05-.07l-.03-.04s0-.02-.02-.05c-.01-.04-.03-.08-.05-.13l-.32-.61-.21.58s-.05.03-.08.05c-.03.02-.05.04-.06.06h0s-.04.01-.04.01c-.08.02-.13.06-.13.07l.1.28-.18-.26c-.06.02-.08.02-.11.02h-.06s-.11,0-.11,0h-.1c-.06,0-.14,0-.2-.02-.08-.02-.16-.02-.22-.02-.02,0-.04,0-.06,0-.02,0-.04-.02-.06-.03-.04-.02-.08-.04-.13-.06-.04-.01-.07-.02-.11-.03-.04-.01-.08-.02-.1-.03-.04-.02-.07-.04-.1-.07l-.06-.04s-.06-.04-.09-.05c-.02-.01-.05-.03-.06-.04-.02-.02-.04-.04-.06-.07-.07-.08-.17-.26-.21-.36-.07-.22-.13-.43-.19-.65l-.04-.13c-.05-.17-.09-.32-.09-.46,0-.12-.01-.24-.04-.4,0-.03-.01-.07-.02-.1v-.05s0-.1,0-.16c0-.04-.02-.08-.03-.11v-.05c0-.05,0-.1,0-.15v-.12c-.02-.1-.03-.2-.05-.29-.01-.07-.02-.14-.02-.21,0-.14-.01-.3-.08-.47-.03-.07-.05-.17-.07-.29-.02-.13-.04-.31-.04-.4,0-.09,0-.17-.02-.26,0-.06-.01-.11-.01-.17,0-.07,0-.13-.02-.2,0-.04-.01-.07-.01-.11v-.49s.01-.25.01-.25v-.18c0-.1,0-.2,0-.3,0-.04,0-.07.02-.11.01-.07.03-.14.03-.22v-.13s0-.14,0-.14c0-.02,0-.02.02-.11.02-.07.02-.14.01-.22,0-.02,0-.05.01-.07.02-.06.03-.13.03-.2,0-.04,0-.08,0-.12,0-.05,0-.09,0-.14,0-.07.03-.15.05-.22.02-.08.04-.15.05-.23,0-.06.02-.11.02-.17,0-.07.02-.15.04-.22l.02-.05c.02-.06.04-.12.05-.18,0-.04,0-.08,0-.17,0-.05.03-.11.06-.18.04-.09.08-.19.1-.29,0-.03.01-.07.02-.11,0-.02,0-.04,0-.06,0-.02.02-.04.03-.05.02-.04.04-.08.06-.11.02-.05.03-.09.05-.14.02-.03.04-.06.06-.12.01-.04.02-.08.02-.12h0s.02-.03.02-.03c.03-.04.06-.09.08-.14.01-.02.02-.05.04-.07.06-.1.07-.19.08-.25l.02-.08c.04-.16.09-.34.1-.54,0-.08.01-.15.02-.22.01-.1.02-.2.02-.3,0-.08.02-.17.03-.25.02-.1.04-.22.04-.38l.02-.03.02-.04s.03-.07.04-.12c.02-.03.06-.06.09-.12.03-.05.04-.1.03-.1.02-.02.06-.06.09-.12l.03-.08s.09-.09.11-.19l-.29-.08.3.03c.1-.13.14-.27.17-.37.03-.03.05-.06.07-.1l.04-.07.04-.07c.04-.06.05-.12.05-.15.02-.02.03-.04.05-.06.04-.04.07-.08.1-.12.03-.04.05-.08.06-.11l.06-.05c.05-.05.12-.11.17-.22l.04-.07.04-.07c.09-.17.12-.33.16-.47.02-.09.02-.18.01-.24,0-.03,0-.06,0-.07v-.05c.03-.06.05-.13.05-.24.01-.04.03-.09.03-.16,0-.03,0-.07,0-.1,0-.02,0-.05,0-.06.01-.04.02-.07.03-.11l.03-.11c.02-.06.04-.13.05-.21,0-.05.03-.1.08-.18.05-.08.1-.18.13-.3.01-.04.02-.08.02-.12.01-.03.03-.05.07-.11.04-.06.1-.12.13-.21,0-.03.01-.06.02-.09,0-.01.02-.02.03-.04.01-.02.02-.03.04-.04.05-.05.08-.1.11-.15.01-.02.03-.05.04-.07,0,0,0-.02.01-.03.04-.02.1-.05.14-.11.03-.04.05-.08.06-.12.02-.01.04-.03.06-.05.04-.04.07-.08.08-.11.03-.02.09-.04.14-.09.05-.04.07-.09.07-.09.05-.02.13-.06.21-.15.07-.07.17-.17.17-.32v-.25s-.25-.05-.25-.05c-.02-.02-.05-.03-.08-.05-.05-.03-.1-.05-.14-.05l-.07-.06-.04-.02s-.08-.03-.11-.03c-.02-.02-.05-.04-.07-.05-.03-.02-.05-.04-.11-.1-.02-.02-.05-.04-.1-.08-.04-.04-.06-.08-.06-.1v-.08c0-.08,0-.16.01-.21.02-.05.02-.11.03-.16l.02-.07s.05-.1.06-.17v-.02s.02-.03.02-.03c.02-.02.03-.05.04-.05.01,0,.03-.02.04-.03.08-.05.21-.13.25-.29l.05-.2-.17-.12-.07-.04c-.05-.09-.09-.17-.18-.26v-.04s-.09-.1-.09-.1c-.02-.02-.04-.04-.07-.06l-.02-.04-.03-.04c-.13-.23-.29-.46-.48-.71-.02-.02-.03-.05-.05-.07l-.05-.08-.04-.06c-.03-.08-.07-.13-.1-.17-.08-.09-.15-.21-.21-.32-.03-.04-.05-.08-.08-.12-.02-.02-.04-.05-.05-.08-.05-.09-.1-.19-.16-.28-.03-.06-.07-.11-.11-.16-.06-.08-.09-.12-.1-.18-.01-.08-.05-.16-.12-.28-.03-.05-.05-.1-.06-.12,0-.04-.02-.07-.03-.11-.01-.03-.02-.07-.02-.08v-.14s0-.07,0-.07v-.39c.01-.26.02-.52.02-.79,0-.02,0-.04.01-.07.01-.05.02-.1.03-.16,0-.06,0-.12,0-.17v-.06s.01-.09.04-.2c.02-.06.02-.12.03-.18,0-.03,0-.06.01-.09.01-.06.03-.11.06-.17.03-.09.07-.17.09-.26l.02-.09s.02-.1.03-.12c.05-.11.09-.23.12-.34l.02-.06.03-.07c.02-.06.04-.11.05-.17.01-.05.04-.1.06-.16l.03-.07s.02-.05.04-.09c.03-.04.09-.12.09-.26,0-.03.04-.1.07-.15.02-.04.05-.08.07-.12.03-.05.05-.11.07-.17,0-.02.01-.05.02-.07.02-.04.04-.07.06-.11l.07-.11s.05-.1.07-.15c0-.02.02-.06.05-.09.03-.03.07-.08.11-.15.03-.05.05-.09.12-.18.03-.03.06-.07.09-.11l.05-.08v-.02c.05-.04.09-.07.14-.14.02-.03.05-.05.08-.08.05-.05.11-.11.15-.17l.02-.04s.1-.05.16-.12c.02-.03.04-.05.05-.08l.03-.02.03-.02c.06-.05.1-.1.16-.16.03-.02.08-.05.13-.11l.08-.09s.09-.04.15-.09c.02-.02.04-.04.06-.05l.04-.03s.07-.04.1-.06c.04-.03.08-.07.11-.11.02-.02.04-.04.06-.06.02-.01.04-.02.05-.04.05-.03.11-.07.15-.11.02-.02.04-.04.06-.06.02-.02.03-.03.06-.06.03-.02.1-.06.15-.13.09-.05.15-.13.19-.19.03-.01.07-.03.12-.06.07-.05.11-.11.12-.14.03-.01.1-.04.16-.1.03-.03.06-.06.1-.11.03-.02.08-.05.12-.1.04-.05.07-.09.09-.13.01,0,.03-.02.05-.03.07-.06.11-.13.15-.19.03-.06.07-.11.11-.18.02-.03.06-.07.09-.12.02-.03.03-.07.03-.09,0,0,0,0,.01,0,.02-.02.05-.04.07-.06.06-.05.09-.11.09-.12l.07-.06.02-.03c.06-.08.13-.23.15-.31.05-.2.06-.4.06-.62,0-.03,0-.06.01-.09.01-.07.03-.13.03-.21v-.05s0,0,0,0c.01-.03.04-.09.05-.18,0-.03,0-.06,0-.11.01-.03.03-.08.04-.14,0-.03,0-.07,0-.09.02-.04.04-.1.04-.19,0-.11.01-.21.02-.32.02-.18.16-.31.34-.31M19.61,4.06h0,0M19.19,4.71h0,0M16.87,6.75h0,0M16.54,17.19h0,0M16.51,19.81h0,0M15.16,23.41h0,0M13.67,27.54h0,0M24.72,37.93h0,0M19.41,38.45h0,0M20.57.92c-.32,0-.6.24-.64.58-.01.12-.02.23-.02.35,0,.06-.02.07-.03.11-.01.05,0,.09,0,.14,0,.05-.03.06-.04.1-.01.05,0,.11,0,.16,0,.06-.03.07-.03.11,0,.04,0,.09,0,.14,0,.11-.04.19-.04.3,0,.19,0,.37-.05.55-.01.06-.06.16-.1.21-.02.03-.05.04-.07.07-.03.04-.03.07-.07.11-.04.04-.12.09-.15.14-.02.03,0,.07-.02.1-.02.03-.06.07-.08.11-.04.06-.07.12-.11.18-.02.03-.04.08-.07.11-.05.04-.08.03-.11.09-.02.04-.02.06-.05.1-.04.04-.1.06-.14.1-.03.04-.05.07-.08.1-.04.04-.09.04-.13.08-.05.04-.06.1-.12.13-.03.02-.07.03-.1.05-.07.05-.14.21-.24.21,0,.06-.08.1-.12.13-.06.04-.09.09-.14.14-.05.05-.12.08-.18.13-.06.05-.11.12-.17.16-.04.03-.09.05-.13.09-.02.02-.05.05-.07.07-.04.04-.05.03-.11.06-.08.04-.1.09-.15.15-.03.04-.07.05-.11.08-.05.04-.07.1-.13.14-.03.02-.06.03-.09.05-.03.03-.04.07-.07.11-.03.04-.07.05-.11.08-.04.03-.05.06-.08.1-.06.09-.15.16-.22.24-.04.04-.05.06-.1.09-.02.02-.05.05-.07.07-.02.03-.04.06-.03.09-.03.05-.08.08-.12.14-.04.06-.08.11-.11.18-.03.06-.07.09-.11.14-.05.08-.07.17-.11.25-.04.08-.09.15-.13.22-.04.08-.05.16-.09.24-.07.13-.17.25-.17.39,0,.08-.03.09-.07.15-.03.05-.05.13-.07.18-.03.06-.06.14-.08.2-.02.08-.05.15-.07.23-.04.13-.07.25-.13.37-.04.08-.05.19-.06.28-.03.15-.11.28-.14.43-.02.09-.02.17-.04.26-.02.1-.05.18-.05.28,0,.07,0,.14,0,.21,0,.09-.04.16-.04.25,0,.39-.01.78-.02,1.17,0,.07,0,.14,0,.21,0,.1.04.17.06.26.02.09.16.31.17.39.02.19.15.29.25.45.05.08.1.18.15.27.04.08.09.13.14.21.07.12.15.25.24.36.02.03.04.05.05.08,0,.02,0,.05.01.07.02.02.03.03.06.04.04.06.07.12.11.17.17.22.32.44.46.68.02.04.05.07.07.11,0,.02.01.04.02.05,0,.01.01.02.03.02,0,0,0,0,0,0,0,0,0,0,0,0,.02,0,.03.01.03.04,0,.02,0,.04.02.05.01.02.04.03.05.05.06.07.09.11.13.19.04.08.1.1.17.15-.02.07-.16.12-.21.18-.04.04-.07.09-.1.13-.04.06-.03.06-.04.13-.01.06-.05.12-.07.18-.02.07-.01.13-.03.2-.03.12-.02.25-.02.37,0,.11.05.21.13.3.04.04.09.07.13.1.05.04.09.08.15.12.04.03.08.07.12.09.03.01.06,0,.09.02.02.01.04.03.06.05.05.04.11.04.17.07.06.04.09.08.17.09,0,.04-.08.1-.11.13-.05.06-.12.06-.18.11-.03.03-.04.07-.07.1-.03.03-.08.04-.11.06-.05.04-.07.1-.11.14-.04.04-.12.06-.14.11-.01.03,0,.07-.01.1-.02.03-.07.02-.1.05-.05.04-.08.13-.12.19-.02.03-.05.07-.07.1-.03.03-.05.06-.07.09-.02.02-.05.04-.07.07-.02.04,0,.08-.01.12-.02.06-.09.13-.12.18-.02.04-.05.08-.07.12-.02.06-.02.11-.03.16-.05.19-.2.33-.22.53,0,.06-.02.11-.04.17-.02.06-.04.13-.06.2-.02.07,0,.15-.01.23,0,.08-.04.12-.04.19,0,.09-.02.14-.04.22-.02.1.01.21-.01.31-.03.15-.06.27-.13.4-.02.05-.05.09-.07.14-.03.07-.08.1-.13.15-.02.02-.07.06-.09.08-.02.04-.02.07-.04.1-.04.06-.1.11-.15.17-.04.05-.04.12-.07.18-.03.05-.05.1-.08.15-.03.06-.08.08-.1.15-.03.11-.07.2-.13.3-.04.05-.04.08-.06.14-.02.06-.05.07-.08.11-.02.03-.02.07-.04.1-.02.04-.05.06-.07.09-.02.04-.02.08-.04.12-.02.04-.06.06-.08.1-.04.05-.04.11-.06.17-.01.03-.04.05-.05.09-.01.04,0,.08,0,.12,0,.21-.08.4-.08.61,0,.18-.04.34-.04.52,0,.18-.05.34-.1.5-.02.08-.01.15-.06.22-.04.06-.07.13-.11.19-.02.02-.04.04-.06.07-.02.05,0,.1-.03.16-.01.03-.05.07-.06.1-.01.05-.02.09-.04.13-.03.06-.07.11-.09.17-.03.07-.02.14-.04.21-.04.17-.14.31-.17.48,0,.06,0,.12,0,.18,0,.07-.04.13-.05.19-.04.14-.04.28-.07.42-.03.16-.08.31-.1.47-.01.09,0,.19,0,.28,0,.09-.03.16-.04.24,0,.06,0,.13,0,.19-.01.06-.03.1-.03.17,0,.09,0,.18,0,.27,0,.11-.04.21-.04.32,0,.16,0,.32,0,.48,0,.24,0,.49-.01.73,0,.11.03.2.03.31,0,.14.03.28.03.42,0,.13.02.33.04.46.02.12.04.24.08.36.08.2.04.42.08.63.03.13.03.26.04.39,0,.06,0,.12,0,.18,0,.06.03.1.04.15,0,.05,0,.1,0,.16,0,.06.02.1.03.16.02.11.04.23.03.35,0,.24.07.45.13.68.06.22.12.45.2.67.05.14.17.35.27.46.03.03.05.06.09.09.06.05.13.08.19.12.06.04.12.08.19.12.07.04.17.05.25.08.08.03.15.08.23.09.09.01.16,0,.25.02.09.02.18.03.28.03.07,0,.14,0,.21,0,.02,0,.03,0,.05,0,0,0,0,0,.01,0,.07,0,.13-.01.2-.04.03-.01.07-.02.1-.03.03-.02.06-.05.09-.06,0,0,.02,0,.03,0,.01,0,.03,0,.04,0,.01,0,.03,0,.04,0,.04-.02.05-.08.09-.1.06-.04.14-.05.16-.13.04.08.05.15.1.22.03.04.07.08.1.13.05.07.05.05.12.08.05.02.08.05.12.07.04.02.07.02.11.04.11.07.16.08.28.1.12.02.25.08.37.11.11.03.22.05.33.07.14.03.25.04.4.04.1,0,.2,0,.3,0,.07,0,.14,0,.21,0,.19,0,.39-.02.56-.11.06-.03.11-.06.18-.08.06-.03.09-.08.14-.12.04-.03.09-.03.14-.06.06-.04.11-.13.16-.19.06-.07.13-.12.2-.17.09-.07.1-.16.16-.24.02-.02.12-.14.13-.15.03.12.14.15.21.25.09.12.3.21.44.27.07.03.15.05.22.08.1.04.22.1.33.12.03,0,.05,0,.08,0,.02,0,.03,0,.05,0,.02,0,.04,0,.06,0,.06.01.12.04.18.06.12.04.25.07.38.08.28.03.55.08.83.08.15,0,.3,0,.45,0,.03,0,.06,0,.09,0,.06,0,.11-.02.17-.04.11-.04.23-.06.33-.09.07-.03.14-.03.2-.07.07-.04.12-.09.2-.13.09-.04.1-.05.15-.12.04-.05.1-.06.14-.1.05-.05.06-.13.13-.18.03-.03.06-.04.09-.07.04-.05.04-.1.07-.16.03-.05.07-.07.1-.12.03-.05.07-.11.08-.16.02-.06.02-.12.05-.18.03-.08.08-.15.11-.23.14-.39.2-.81.38-1.19.1-.21.17-.44.26-.66.06-.14.09-.29.14-.44.06-.18.12-.37.15-.56.05-.34.1-.68.16-1.01.03-.17.05-.33.07-.5.02-.16.01-.31.05-.47.07-.29.08-.58.14-.86.06-.31.04-.63.11-.94.05-.22.07-.44.05-.66-.01-.11.03-.19.04-.29.01-.11,0-.22,0-.33.02-.2.08-.39.08-.6,0-.24,0-.48,0-.72.01-.26.08-.51.08-.77,0-.06-.01-.16,0-.22.01-.06.04-.07.04-.14,0-.14.06-.27.08-.41.02-.18-.11-.41-.2-.56-.04-.07-.11-.15-.13-.23-.02-.07-.01-.11-.05-.17-.09-.14-.18-.28-.27-.42-.03-.05-.06-.1-.08-.15-.06-.11-.15-.21-.21-.32-.02-.04-.02-.07-.06-.11-.02-.02-.05-.03-.07-.05-.04-.04-.07-.12-.11-.17-.06-.08-.13-.15-.19-.23-.14-.18-.25-.38-.38-.57-.06-.08-.12-.14-.18-.22-.04-.06-.07-.13-.11-.19-.02-.03-.06-.05-.08-.08-.04-.06-.05-.12-.09-.17-.08-.09-.11-.15-.15-.26-.03-.08-.08-.14-.12-.22-.06-.1-.08-.21-.12-.32-.05-.14-.11-.26-.15-.4-.04-.17-.16-.29-.19-.45-.03-.13-.07-.23-.14-.34-.07-.12-.1-.27-.18-.39-.02-.03-.04-.03-.06-.08-.02-.05-.03-.09-.06-.14-.07-.11-.15-.21-.21-.32-.09-.14-.17-.33-.29-.45-.12-.12-.21-.25-.35-.35-.06-.04-.13-.05-.19-.08-.06-.04-.12-.09-.18-.14-.07-.05-.13-.09-.18-.17-.03-.05-.04-.08-.08-.12-.03-.04-.09-.06-.11-.11-.01-.04-.02-.08-.03-.11-.02-.08-.08-.15-.11-.23-.05-.12-.3-.27-.2-.38.13-.15.47-.32.63-.43.09-.06.12-.14.22-.19.11-.05.17-.14.28-.18.17-.07.34-.14.52-.17.15-.03.28-.04.42-.09.06-.02.1-.05.15-.07.08-.04.17-.04.25-.05.15-.03.21-.14.33-.21.11-.07.23-.13.34-.22.12-.1.22-.22.34-.32.14-.12.28-.23.4-.37.07-.08.15-.15.23-.23.05-.05.11-.08.15-.14.04-.05.05-.11.09-.15.03-.04.08-.07.1-.11.03-.04.03-.1.05-.14.02-.05.06-.08.09-.12.05-.07.07-.12.11-.2.06-.14.17-.26.22-.41.06-.18.15-.33.21-.51.12-.37.25-.74.28-1.13.01-.15.04-.29.04-.44,0-.19,0-.38,0-.56v-.92c.02-.17.01-.34.02-.5,0-.17.04-.33.05-.5,0-.24.03-.48-.01-.72-.02-.09-.04-.17-.06-.26-.02-.1,0-.2-.03-.3-.03-.14-.15-.25-.19-.39-.02-.09-.02-.14-.08-.21-.04-.06-.06-.07-.09-.15-.03-.08-.08-.12-.11-.19-.09-.16-.1-.35-.2-.5-.04-.06-.09-.11-.12-.18-.04-.08-.06-.17-.11-.25-.05-.08-.08-.16-.11-.25-.03-.07-.07-.11-.11-.17-.04-.07-.05-.13-.09-.2-.05-.1-.14-.19-.22-.27-.13-.13-.27-.29-.43-.37-.08-.04-.14-.09-.21-.14-.04-.03-.11-.06-.13-.12-.04-.1,0-.29,0-.4,0-.06,0-.12,0-.17,0-.15.04-.27.04-.42,0-.07.01-.13.03-.2.02-.1,0-.19.03-.28.05-.16.09-.33.09-.5,0-.17.04-.3.04-.46,0-.06-.06-.17-.12-.21-.11,0-.35-.06-.44-.13-.06-.05-.05-.06-.14-.06-.07,0-.09-.03-.15-.07-.06-.04-.15-.05-.22-.07-.05-.02-.1-.03-.15-.05-.08-.03-.13-.02-.21-.04-.17-.04-.32-.16-.48-.21-.08-.02-.16-.02-.24-.04-.1-.03-.21-.07-.31-.08-.09-.01-.19-.03-.28-.05-.09-.02-.17-.02-.26-.04-.54-.1-1.07-.22-1.6-.36-.06-.02-.12-.02-.17-.02h0Z"/>
  <path class="cls-3" d="M22.85,10.22c-.16.05-.27.23-.38.35-.04.04-.09.09-.14.13-.07.07-.11.15-.18.22-.12.12-.21.26-.33.38-.06.07-.12.11-.17.18s-.12.13-.18.21c-.11.15-.23.31-.38.44-.22.19-.38.43-.57.64-.1.1-.18.21-.26.33-.07.09-.1.18-.16.27-.07.11-.17.22-.24.33-.04.05-.09.09-.13.14-.03.04-.03.1-.07.14-.04.03-.08.02-.11.05-.03.02-.02.04-.04.07-.04.07-.12.11-.18.17-.05.06-.1.11-.16.16-.01,0-.03,0-.05,0-.01.01-.02.04-.03.05-.03.03-.07.06-.1.09-.11.07-.22.15-.33.22-.06.04-.14.04-.18.1-.03.04-.03.07-.08.1s-.08.03-.14.03"/>
  <path class="cls-3" d="M18.86,10.3c0,.05-.04.1-.06.15-.03.08-.04.16-.07.24-.07.19-.17.36-.2.56-.02.12-.1.21-.14.33-.03.1-.06.2-.08.3-.04.19-.13.37-.17.57-.04.22-.1.42-.17.64-.02.08-.06.16-.07.24-.01.07.01.16,0,.23-.01.06-.04.1-.04.17s-.01.1-.03.16c-.02.07,0,.15,0,.22,0,.06-.05.1-.04.16"/>
  <path class="cls-3" d="M18.38,18.55c0,.12.01.19.06.3.06.13.16.24.21.37.03.09.08.12.15.18.05.05.08.1.14.15.08.07.13.13.22.17.07.03.13.07.19.11.05.03.07.08.11.1.03.02.08,0,.12.03.03.02.05.05.07.07.06.06.14.06.21.1.06.03.12.07.18.1.09.05.15.09.26.12.07.02.11.05.18.08.05.02.1.03.15.05.07.03.12.1.2.08"/>
  <path class="cls-3" d="M20.44,18.44s.08.06.11.08c.05.01.09.04.13.07.03.04.05.08.08.12.09.1.18.21.24.34.09.17.2.32.36.43.12.09.22.11.28.24.03.07.06.1.06.19,0,.04.01.1,0,.14-.01.05-.04.07-.07.11-.06.1-.07.21-.12.31s-.07.22-.08.33c-.02.3-.02.62.03.92.01.06.02.11.02.18,0,.1.05.19.08.29.03.12.09.23.12.35.02.09.04.17.07.25.05.12.12.21.15.33s.12.16.19.25c.05.06.08.12.15.17.08.07.15.12.24.17.21.13.4.25.63.35.1.04.2.06.29.1.05.02.09.06.15.05"/>
  <path class="cls-3" d="M17.33,17.14c0,.06.03.11.06.16.08.11.21.21.33.27.08.04.15.09.24.12.07.03.14.06.22.09.1.04.2.05.3.08h0"/>
  <path class="cls-3" d="M20.63,1.68c.06,0,.12.03.18.05.22.07.45.11.68.18.52.14,1.02.32,1.54.45.28.07.56.12.84.19.14.03.29.05.42.09"/>
  <path class="cls-3" d="M20.66,2.29s.07.04.11.05c.12.05.25.08.37.12.42.14.84.27,1.26.38.38.1.77.2,1.16.26.09.01.21,0,.3.03"/>
  <path class="cls-3" d="M20.44,3.03c.08.02.16.07.24.1.17.06.35.1.53.14.43.11.85.24,1.29.34s.88.18,1.33.25c.12.02.24.01.36.02.07,0,.14.03.21.04"/>
</svg>