<?xml version="1.0" encoding="UTF-8"?>
<svg id="_레이어_1" data-name="레이어 1" xmlns="http://www.w3.org/2000/svg" viewBox="0 0 40 40">
  <defs>
    <style>
      .cls-1 {
        fill: none;
        stroke: #373433;
        stroke-linecap: round;
        stroke-width: 1.35px;
      }

      .cls-1, .cls-2 {
        stroke-miterlimit: 10;
      }

      .cls-2 {
        fill: #d8bf79;
        stroke: #d8bf79;
        stroke-width: .45px;
      }

      .cls-3 {
        fill: #373433;
        stroke-width: 0px;
      }
    </style>
  </defs>
  <g>
    <ellipse class="cls-2" cx="20.42" cy="10.27" rx="3.7" ry="5.67"/>
    <rect class="cls-2" x=".67" y="10.41" width="38.65" height="25" rx="9.75" ry="9.75"/>
  </g>
  <circle class="cls-3" cx="20.42" cy="6.73" r=".99"/>
  <g>
    <path class="cls-1" d="M12.52,18.17c.13,1.08.38,2.14.73,3.17.03.08.1.14.19.15,1.48.11,2.98.02,4.44-.27"/>
    <path class="cls-1" d="M10.69,23.36c2.99.4,6,.62,9.02.66"/>
    <path class="cls-1" d="M16.14,23.9c-.16,1.24-.22,2.5-.17,3.75"/>
    <path class="cls-1" d="M20.95,21l2.76.22c.14.01.3.03.41.12.18.15.17.43.14.66-.15,1.15-.32,2.29-.49,3.43"/>
    <path class="cls-1" d="M27.11,18.28l1.04,7.61"/>
    <path class="cls-1" d="M27.76,22.63l1.99-.24"/>
  </g>
</svg>