<?xml version="1.0" encoding="UTF-8"?>
<svg id="_레이어_1" data-name="레이어 1" xmlns="http://www.w3.org/2000/svg" xmlns:xlink="http://www.w3.org/1999/xlink" viewBox="0 0 40 40">
  <defs>
    <style>
      .cls-1 {
        fill: #d1a002;
      }

      .cls-1, .cls-2, .cls-3 {
        stroke-width: 0px;
      }

      .cls-4 {
        fill: none;
      }

      .cls-4, .cls-5 {
        stroke: #d8bf79;
        stroke-linecap: round;
        stroke-miterlimit: 10;
        stroke-width: .65px;
      }

      .cls-2 {
        fill: #d6a403;
      }

      .cls-6, .cls-5 {
        fill: #f5bf00;
      }

      .cls-7 {
        clip-path: url(#clippath);
      }

      .cls-3 {
        fill: #af8205;
      }
    </style>
    <clipPath id="clippath">
      <path class="cls-5" d="M38.12,26.55c-.54.59-1.17.94-1.85.94-1.93,0-3.5-2.8-3.5-6.25,0-1.7.38-3.24,1-4.37l-3.39-7.55c-.14.02-.28.04-.42.04-1.4,0-2.54-1.14-2.54-2.54,0-.8.37-1.51.95-1.98l-1.4-3.1c-.38-.84-1.29-1.3-2.19-1.11l-13.19,2.87c-.66.14-1.19.61-1.42,1.24l-1.08,3c.48.74.76,1.66.76,2.65,0,2.23-1.44,4.09-3.32,4.41l-4,11.04c.08,0,.16,0,.24,0,1.55,0,2.81.58,2.81,1.3s-1.26,1.3-2.81,1.3c-.41,0-.8-.04-1.15-.11l-.66,1.82c-.48,1.32.23,2.78,1.56,3.23l17.67,5.93c.49.16,1.02.13,1.49-.1l16.41-8.14c.94-.47,1.34-1.59.91-2.55l-.89-1.97Z"/>
    </clipPath>
  </defs>
  <g>
    <path class="cls-6" d="M38.12,26.55c-.54.59-1.17.94-1.85.94-1.93,0-3.5-2.8-3.5-6.25,0-1.7.38-3.24,1-4.37l-3.39-7.55c-.14.02-.28.04-.42.04-1.4,0-2.54-1.14-2.54-2.54,0-.8.37-1.51.95-1.98l-1.4-3.1c-.38-.84-1.29-1.3-2.19-1.11l-13.19,2.87c-.66.14-1.19.61-1.42,1.24l-1.08,3c.48.74.76,1.66.76,2.65,0,2.23-1.44,4.09-3.32,4.41l-4,11.04c.08,0,.16,0,.24,0,1.55,0,2.81.58,2.81,1.3s-1.26,1.3-2.81,1.3c-.41,0-.8-.04-1.15-.11l-.66,1.82c-.48,1.32.23,2.78,1.56,3.23l17.67,5.93c.49.16,1.02.13,1.49-.1l16.41-8.14c.94-.47,1.34-1.59.91-2.55l-.89-1.97Z"/>
    <g class="cls-7">
      <path class="cls-2" d="M18.22,6.01c-.47-.77-.98-1.52-1.7-2.08-.09-.07-.18-.14-.27-.2.11.09.1.08-.03-.03-.12-.13-.23-.27-.35-.39-.44-.43-.94-.6-1.54-.65-.82-.07-1.52.75-1.52,1.52,0,.88.7,1.45,1.52,1.52-.22-.02-.82-.48-.43-.04.07.08.15.17.23.25.15.13.32.25.48.37.18.13.01,0,.13.11.36.34.58.7.87,1.18.43.7,1.36.96,2.07.54s.97-1.37.54-2.07h0Z"/>
      <path class="cls-2" d="M13.48,3.58c-.08-.06-.19-.09-.28-.11-.08-.02-.15-.03-.23-.06l.08.03s-.05-.03-.08-.04l-.25.59s.01,0,.02,0c.08.02.18,0,.25-.03s.13-.12.15-.19c.02-.08.01-.18-.03-.25s-.11-.12-.19-.15c0,0-.01,0-.02,0-.04-.01-.09-.02-.13,0-.04,0-.08.01-.12.04l-.07.05s-.05.06-.07.1c-.01.03-.02.05-.02.08,0,.04,0,.09,0,.13l.03.08s.07.09.12.12c.05.04.12.06.18.08.04.01.07.02.11.03.08.02.16.03.23.06l-.08-.03s.05.02.07.04c.04.02.08.04.12.04.04,0,.09,0,.13,0,.08-.02.16-.08.19-.15.04-.08.06-.17.03-.25l-.03-.08s-.07-.09-.12-.12h0Z"/>
      <path class="cls-2" d="M13.71,6.15l.52,1.07,2.38-1.84-.59-.7c-1.04-1.23-2.83.11-2.53,1.47,1.79,8.1,4.22,16.43,6.86,24.31.5,1.5.82,3.31,2.4,4.03,2.84,1.3,7.43-1.21,10.08-2.03,1.86-.58,1.06-3.5-.81-2.92-1.73.54-6.52,3.02-8.23,1.75-1.43-1.06-2.28-7.27-2.76-9.01-1.53-5.64-3.37-11.23-4.63-16.93l-2.53,1.47.59.7c1.17,1.39,3.08-.38,2.38-1.84l-.52-1.07c-.85-1.75-3.46-.22-2.62,1.53h0Z"/>
      <path class="cls-2" d="M17.48,3.08l-.55-.34-.76,2.82c1.51,0,1.68-.03,3.15-.37,1.75-.41,1.22-2.85-.4-2.98l-.44-.04.4,2.98c1.48-.35,3.99-1.43,5.42-1.04,1.05.28.48-.26.61.41-.04-.21-.7,2.24-.6,1.74l2.77-.36c-1.12-1.6-.15-3.84-3.22-3.28-2.65.49-6.4,1.45-8.08,3.77-.38.52-.22,1.41.24,1.84,1.86,1.74,5.34-.1,7.51-.14l-1.07-2.59c-1.26,1.52-7.19.44-6.01,4.18.27.86.79,1.17,1.64,1.33s1.74-.35,2.55-.56c1.86-.5,3.64-.74,5.58-.72,1.24.02,1.76-1.28,1.31-2.28l-.33-.73c-.56-1.24-2.44-.79-2.77.36-.79,2.75-8.13.32-7.79,4.5.06.7.44,1.24,1.11,1.46,1.4.46,3.12-.24,4.46-.6,1.66-.45,4.21-.61,5.57-1.65.95-.72,1.04-2.45-.36-2.77l-.1-.02c-1.75-.39-2.52,1.77-1.17,2.77.39.41.84.7,1.36.89.55-.59.79-.32.71.83.8,1.15,2.46,4.42,1.58,5.62l2.77.36c-.73-3.36-3.3-6.23-5.91-8.35-1.18-.96-2.84-.07-2.53,1.47.39,1.98,1.53,1.2.54-.05-.48-.6-.78-.76-1.52-.88-2.12-.35-5.91,1.28-5.8,3.73.03.62.45,1.34,1.11,1.46,1.47.27,2.92-.04,4.4-.22l-.76-2.82c-1.42.86-5.35,2.4-4.01,4.83.4.73,1.2.92,1.96,1.01,2.1.23,4.37-.75,6.56-.66l-.76-2.82c-1.98,1.04-6.14,1.08-5.98,4.33.03.65.45,1.3,1.11,1.46,2.78.68,5.31-1.93,8.16-1.44l-.67-2.53c-1.35,1.06-3.46,1.19-5.09,1.45l1.71,2.23c.46-1.09,1.2-1.92,2.23-2.5-1.63-.07-3.26-.03-4.89.1-.74.21-1.42.44-2.05.97-.9.76-1.73,1.9-1.21,3.09.45,1.03,1.46,1.24,2.45,1.2,1.65-.07,3.26-1.2,4.75-1.72,1.88-.65,3.81-.98,5.78-1.13l-1.46-1.92c-.19.6-2.29,1.38-2.81,1.63-1.76.83-.23,3.45,1.53,2.62s3.58-1.47,4.21-3.44c.28-.89-.5-1.99-1.46-1.92-2.04.15-4.02.44-5.98,1.05-.71.22-1.53.38-2.15.78-1.21.07-1.47.45-.79,1.12.23.81.78.96,1.65.47,2.25-.09,5.42-2.04,5.3-4.5-.03-.51-.26-1.07-.75-1.31-2.87-1.38-5.68,1.51-6.96,3.88-.67,1.25.43,2.43,1.71,2.23,2.38-.38,4.53-.74,6.42-2.23.86-.68.39-2.35-.67-2.53-1.19-.2-2.14-.19-3.33.06s-3.62,1.67-4.84,1.38l1.11,1.46c-.02-.32,3.83-1.37,4.48-1.71,1.39-.73.66-2.77-.76-2.82-1.32-.05-3.1-.2-4.39.26-1.59-.02-1.72.39-.42,1.21.64-.28,1.25-.61,1.83-.99,1.19-.72.81-3.01-.76-2.82-1,.12-2.6.51-3.59.32l1.11,1.46c1.75-.77,2.35-.94,1.8-.53l.36,1c.37.44.53,1.12.91,1.58.69.83,1.6,1.66,2.76,1.46,3.66-.64,1.21-5.23.84-7.12l-2.53,1.47c2.21,1.79,4.51,4.16,5.13,7.01.3,1.4,2.06,1.32,2.77.36,1.6-2.18.82-4.03-.29-6.24-.54-1.07-.84-2.45-1.5-3.43-.58-.85-2.28-1.32-2.95-1.81l-1.17,2.77.1.02-.36-2.77c-1,.76-6.52,2.33-7.7,1.95l1.11,1.46c.07.87,5.17-1.03,5.4-1.14,1.26-.62,1.88-1.16,2.28-2.56l-2.77.36.33.73,1.31-2.28c-1.49-.02-2.96.04-4.43.32-.88.17-4.78.74-1.76,2.34,1.16.62,3.89-.89,4.58-1.73.79-.96.34-2.62-1.07-2.59-.59.01-5.46.95-5.37,1.03l.24,1.84c.86-1.19,4.23-1.97,5.67-2.04.47-.02-.89-1.39-.2.24.21.5.23.8.59,1.31.68.98,2.49,1.02,2.77-.36.47-2.28,1.61-3.66-.71-5.73-1.92-1.72-6.31.38-8.45.89-1.75.42-1.22,2.85.4,2.98l.44.04-.4-2.98-2.34.26c-1.53,0-2.02,2.04-.76,2.82l.55.34c1.66,1.03,3.18-1.59,1.53-2.62h0Z"/>
      <path class="cls-2" d="M22.07,21.43c-.9.87-1.59,1.47-1.43,2.77.08.66.41,1.28,1.11,1.46,1.27.32,1.97-.23,3.08-.83,2.79-1.51,4.98-1.53,8.02-1.67l-.76-2.82c-1.65,1.12-3.52,1.37-5.34,2.07-1.46.56-2.79,1.91-4.24,2.33l1.86,1.06-.04-.14-1.86,1.86c4.22,1.17,6.93-2.34,11.02-1.91l-.76-2.82c-2.17,1.04-4.34,2.09-6.49,3.13-1.42.69-1.21.38-2.75.21-.65-.07-1.29.52-1.46,1.11-.73,2.58-.13,6.12.32,8.73l1.86-1.86-.51-.08c-1.06-.16-2.25.65-1.86,1.86.47,1.06.51,2.14.11,3.23-.49,1.89,2.44,2.7,2.92.81.44-1.7.42-3.16-.11-4.84l-1.86,1.86.51.08c1.19.18,2.07-.65,1.86-1.86-.33-1.93-.86-5.2-.32-7.12l-1.46,1.11c.89.1,1.64.73,2.92.22s2.2-1.51,3.39-2.1c1.44-.71,3.01-1.18,4.46-1.88s.56-2.68-.76-2.82c-3.51-.37-6.8,2.96-10.21,2.02-1.13-.31-2.15.75-1.86,1.86l.04.14c.2.79,1.09,1.28,1.86,1.06,1.83-.53,3.36-2.03,5.22-2.66s3.48-.94,5.09-2.04c1.16-.79.84-2.9-.76-2.82-1.82.08-3.67-.1-5.47.27-.97.2-4.37,2.45-4.83,2.33l1.11,1.46c-.44.13-.26-.08.54-.63,1.4-1.36-.74-3.5-2.14-2.14h0Z"/>
      <path class="cls-2" d="M25.83,38.96c3.23-3.46,7.25-5.14,11.56-6.77,2.16-.82,4.53-3.27,2.97-5.71-.43-.68-1.35-.99-2.07-.54-1.12.69-1.36,2.13-2.28,3.03l2.59,1.07c-.08-.96-.02-1.82-.18-2.77-.2-1.15-1.79-1.43-2.53-.67-.86.88-1.72,1.75-2.58,2.63l2.59,1.07c.08-.76.16-1.53.24-2.29.12-1.12-1.38-1.92-2.28-1.31-1.47,1-2.48,2.66-3.58,4.03l2.59,1.07.4-4.71c.14-1.59-2.07-1.93-2.82-.76-.96,1.48-1.91,2.96-2.87,4.44l2.62,1.53c1.01-2.05,2.29-4.11,2.89-6.33.45-1.67-1.87-2.63-2.77-1.17-1.46,2.37-2.85,4.76-4.18,7.2l2.82.76c-.1-1.31-.24-2.53-.62-3.79-.47-1.53-2.38-1.33-2.92,0-.49,1.21-.68,2.33-.68,3.62,0,1.96,2.92,1.94,3.03,0,.07-1.28.02-2.39-.19-3.64-.25-1.51-2.58-1.38-2.92,0-.48,1.96-.65,3.8-.49,5.82.11,1.38,2.08,2.21,2.82.76,1.42-2.74,1.91-5.77,2.81-8.69l-2.98-.4c-.1,3.14-.09,6.19.88,9.2.59,1.85,3.52,1.06,2.92-.81-.89-2.76-.87-5.53-.78-8.4.06-1.75-2.48-2-2.98-.4-.82,2.65-1.22,5.48-2.51,7.96l2.82.76c-.14-1.73-.04-3.32.38-5.01h-2.92c.15.94.18,1.89.08,2.83h3.03c0-1.03.19-1.86.57-2.82h-2.92c.3.99.44,1.95.51,2.98.1,1.41,2.05,2.17,2.82.76,1.33-2.44,2.73-4.83,4.18-7.2l-2.77-1.17c-.53,1.95-1.7,3.8-2.58,5.6s1.55,3.18,2.62,1.53c.96-1.48,1.91-2.96,2.87-4.44l-2.82-.76-.4,4.71c-.11,1.25,1.78,2.08,2.59,1.07.87-1.08,1.8-2.77,2.96-3.56l-2.28-1.31c-.08.76-.16,1.53-.24,2.29-.14,1.34,1.73,1.95,2.59,1.07s1.72-1.75,2.58-2.63l-2.53-.67c-.03.66,0,1.31.07,1.96.11,1.28,1.6,2.04,2.59,1.07.56-.55,1.16-2.24,1.66-2.55l-2.07-.54c.6.95-2.82,1.67-3.34,1.85-1.39.48-2.68,1.29-3.97,1.98-2.59,1.37-4.74,2.83-6.74,4.98-1.33,1.43.81,3.57,2.14,2.14h0Z"/>
      <path class="cls-2" d="M31.93,18.46h.03c.21,0,.4-.04.58-.13.19-.06.35-.17.49-.31.15-.14.25-.3.31-.49.09-.18.14-.38.13-.58l-.05-.4c-.07-.26-.2-.48-.39-.67l-.31-.24c-.24-.14-.49-.21-.76-.21h-.03c-.21,0-.4.04-.58.13-.19.06-.35.17-.49.31-.15.14-.25.3-.31.49-.09.18-.14.38-.13.58l.05.4c.07.26.2.48.39.67l.31.24c.24.14.49.21.76.21h0Z"/>
      <path class="cls-2" d="M34.38,26l-.06-.02.36.15s-.07-.03-.1-.06l.31.24s-.09-.08-.13-.13l.24.31c-.21-.29-.39-.6-.57-.9-.42-.67-1.37-1-2.07-.54s-.99,1.35-.54,2.07c.17.27.33.54.5.8.32.48.7.83,1.26,1,.76.23,1.69-.28,1.86-1.06s-.25-1.62-1.06-1.86h0Z"/>
    </g>
    <path class="cls-4" d="M38.12,26.55c-.54.59-1.17.94-1.85.94-1.93,0-3.5-2.8-3.5-6.25,0-1.7.38-3.24,1-4.37l-3.39-7.55c-.14.02-.28.04-.42.04-1.4,0-2.54-1.14-2.54-2.54,0-.8.37-1.51.95-1.98l-1.4-3.1c-.38-.84-1.29-1.3-2.19-1.11l-13.19,2.87c-.66.14-1.19.61-1.42,1.24l-1.08,3c.48.74.76,1.66.76,2.65,0,2.23-1.44,4.09-3.32,4.41l-4,11.04c.08,0,.16,0,.24,0,1.55,0,2.81.58,2.81,1.3s-1.26,1.3-2.81,1.3c-.41,0-.8-.04-1.15-.11l-.66,1.82c-.48,1.32.23,2.78,1.56,3.23l17.67,5.93c.49.16,1.02.13,1.49-.1l16.41-8.14c.94-.47,1.34-1.59.91-2.55l-.89-1.97Z"/>
  </g>
  <ellipse class="cls-3" cx="16.04" cy="5" rx="1.31" ry="1.08"/>
  <ellipse class="cls-3" cx="27.49" cy="13.63" rx="2.6" ry="2.14"/>
  <ellipse class="cls-3" cx="31.35" cy="29.63" rx="1.74" ry="2.11" transform="translate(-11.08 21.87) rotate(-33.02)"/>
  <path class="cls-1" d="M5.13,19.76c-.11-.02-.21-.04-.32-.04-.05.4-.21.78-.35,1.15-.17.43-.35.85-.53,1.27-.18.41-.35.83-.5,1.25-.11.32-.19.64-.32.95.24.23.53.4.86.47,1.15.26,2.35-.66,2.67-2.06.32-1.4-.36-2.75-1.51-3.01Z"/>
  <path class="cls-1" d="M21.79,35.9c-.76.42-1.74.57-2.75.34-1.92-.44-3.18-2.09-2.81-3.68s2.1-2.48,3.96-2.13"/>
  <path class="cls-3" d="M20.19,30.43c.06.01.11.02.17.04,1.92.44,3.18,2.09,2.81,3.68-.17.76-.69,1.37-1.38,1.76"/>
  <path class="cls-3" d="M15.25,12.63c.19.02.37.05.56.09,1.92.44,3.18,2.09,2.81,3.68-.21.91-.89,1.6-1.8,1.95"/>
  <path class="cls-1" d="M16.83,18.35c-.69.27-1.5.33-2.33.15-1.92-.44-3.18-2.09-2.81-3.68.33-1.44,1.86-2.34,3.57-2.19"/>
  <ellipse class="cls-3" cx="25.05" cy="22.46" rx="1.55" ry="1.09" transform="translate(-8.48 19.62) rotate(-37.05)"/>
  <ellipse class="cls-1" cx="8.19" cy="32.75" rx=".9" ry=".63" transform="translate(-25.26 37.3) rotate(-83.71)"/>
  <path class="cls-4" d="M20.35,39.33c1.16-.07,2.08-1.2,1.73-2.43L13.03,4.8c-.27-.96-1.24-1.32-2.02-1.06"/>
  <path class="cls-4" d="M11.12,3.66c-.44.22-.79.6-.96,1.08l-1.08,3c.48.74.76,1.66.76,2.65,0,2.23-1.44,4.09-3.32,4.41l-4,11.04c.08,0,.16,0,.24,0,1.55,0,2.81.58,2.81,1.3s-1.26,1.3-2.81,1.3c-.41,0-.8-.04-1.15-.11l-.66,1.82c-.48,1.32.23,2.78,1.56,3.23l17.67,5.93c.33.11.67.13,1,.06"/>
</svg>