<?xml version="1.0" encoding="UTF-8"?>
<svg id="_레이어_1" data-name="레이어 1" xmlns="http://www.w3.org/2000/svg" viewBox="0 0 40 40">
  <defs>
    <style>
      .cls-1 {
        fill: #ffaf25;
      }

      .cls-1, .cls-2, .cls-3, .cls-4, .cls-5, .cls-6, .cls-7 {
        stroke-width: 0px;
      }

      .cls-2, .cls-8 {
        fill: #db3400;
      }

      .cls-3 {
        fill: #e68f15;
      }

      .cls-4 {
        fill: #d1cdbf;
      }

      .cls-9 {
        fill: none;
        stroke: #faf5e2;
      }

      .cls-9, .cls-8 {
        stroke-miterlimit: 10;
        stroke-width: .06px;
      }

      .cls-8 {
        isolation: isolate;
        opacity: .85;
        stroke: #d54400;
      }

      .cls-5 {
        fill: #f5bf00;
      }

      .cls-6 {
        fill: #df7f00;
      }

      .cls-7 {
        fill: #fcead5;
      }
    </style>
  </defs>
  <g>
    <path class="cls-4" d="M39.5,20.14c.06-8.27-8.62-15.04-19.39-15.12C9.34,4.95.56,11.59.5,19.86c-.06,8.27,8.62,15.04,19.39,15.12,10.77.08,19.55-6.56,19.61-14.83Z"/>
    <path class="cls-9" d="M20.41,32.35c9.4-.42,16.77-6.47,16.46-13.5-.31-7.04-8.19-12.4-17.6-11.98-9.4.42-16.77,6.47-16.46,13.5.31,7.04,8.19,12.4,17.6,11.98Z"/>
    <path class="cls-2" d="M35.88,17.85c.05.45.16,1.35.1,2.17-.31,4.1-4.85,7.35-5.18,7.58-.97.68-2.43,1.49-2.6,1.59-1.16.64-1.74.96-2.45,1.24-.24.09-3.97,1.5-6.5.57-.24-.09-.66-.26-1.25-.29-.79-.04-1.13.22-1.93.3-.54.05-.93-.02-1.69-.18-.97-.19-2.36-.47-4.06-1.37-1.04-.55-2.37-1.24-3.7-2.8-.5-.58-1.57-1.86-2.25-3.94-.12-.36-.61-1.64-.57-3.09.08-3.04,1.66-6.94,4.61-8.61,1.67-.94,2.04-.19,5.75-1.68,1.26-.51,1.69-.78,2.82-1.06.55-.14,1.54-.3,4.58-.15,2.09.1,3.13.15,3.83.32,1.74.42,1.33.82,5.04,2.61,1.53.74,2.32,1.02,2.71,1.9.23.51.25,1.06.8,1.61.48.48.73.33,1.15.74.52.51.61,1.19.77,2.54h0Z"/>
    <path class="cls-6" d="M8.99,17.27c.22-.57.51-1.1.86-1.6-.08.12-.17.24-.25.36.4-.57.87-1.07,1.41-1.52-.11.09-.22.19-.34.28.52-.43,1.08-.79,1.69-1.08-.13.06-.27.12-.4.19.31-.14.62-.27.94-.37.86-.28,1.42-1.28,1.07-2.15-.35-.86-1.31-1.4-2.24-1.1-2.63.86-4.89,2.87-5.89,5.4-.17.43-.25.86-.08,1.32.14.39.49.81.88.98.8.36,2,.17,2.35-.71h0Z"/>
    <path class="cls-6" d="M11.45,10.23c.14-.06.27-.1.42-.13-.15.03-.3.05-.44.08.21-.03.41-.04.62-.03-.16-.01-.31-.02-.47-.04.37.03.72.13,1.07.25-.15-.05-.3-.1-.45-.16,1.14.42,2.2,1.05,3.2,1.73-.13-.08-.25-.17-.38-.25.36.24.72.5,1.07.75.4.28.79.47,1.29.45.42-.02.91-.23,1.18-.55.54-.65.63-1.84-.17-2.41-1.18-.84-2.38-1.69-3.7-2.33-1.34-.64-2.99-1.21-4.42-.61-.42.18-.77.41-.99.83-.19.37-.25.92-.08,1.32.33.8,1.35,1.47,2.24,1.1h0Z"/>
    <path class="cls-6" d="M14.36,13.38c-3.06,1.52-5.58,4.1-7.02,7.14-.38.8-.09,1.9.8,2.3.85.38,1.94.14,2.35-.71.32-.68.7-1.33,1.12-1.94-.08.12-.17.24-.25.36.66-.95,1.44-1.81,2.32-2.58.05-.04.22-.19,0,0-.23.19-.01,0,.04-.03.12-.09.24-.19.36-.28.23-.17.46-.34.7-.5.49-.33,1.01-.62,1.54-.88.37-.18.66-.69.74-1.07.08-.41-.01-.94-.27-1.28-.27-.36-.66-.67-1.12-.75-.49-.08-.88.02-1.31.23h0Z"/>
    <path class="cls-6" d="M11.95,21.18c-1.07,2.4-1.23,5.07-.48,7.63.26.86,1.39,1.4,2.24,1.1.92-.34,1.34-1.22,1.07-2.15-.07-.22-.12-.44-.17-.67.03.14.06.29.1.43-.17-.81-.24-1.62-.2-2.44,0,.15-.02.3-.03.46.05-.85.21-1.68.48-2.48-.05.14-.1.29-.15.43.09-.25.18-.49.29-.72.36-.81.1-1.9-.8-2.3-.83-.38-1.96-.15-2.35.71Z"/>
    <path class="cls-6" d="M29.09,31.87c1.13-1.45,2.12-3.12,2.28-4.99.16-1.88-.27-3.69-.77-5.51-.24-.87-1.41-1.4-2.24-1.1-.93.34-1.32,1.22-1.07,2.15.17.6.33,1.21.46,1.82-.03-.14-.06-.29-.1-.43.19.88.3,1.76.25,2.65,0-.15.02-.3.03-.46-.04.55-.15,1.08-.32,1.6.05-.14.1-.29.15-.43-.27.78-.67,1.5-1.14,2.17.08-.12.17-.24.25-.36-.14.2-.28.39-.43.58-.28.37-.47.77-.43,1.25.03.41.26.89.59,1.16.69.56,1.89.65,2.47-.1h0Z"/>
    <path class="cls-6" d="M28.52,17.07c.41.21.8.44,1.18.69-.13-.08-.25-.17-.38-.25.58.39,1.12.83,1.61,1.32.13.13.26.26.38.4.21.22-.28-.33-.07-.08.05.07.11.13.16.19.22.26.42.53.61.81.19.28.37.57.54.86.04.07.08.15.12.22.16.29-.19-.39-.05-.09.07.15.15.3.21.46.28.64.5,1.3.65,1.98-.03-.14-.06-.29-.1-.43.09.43.16.87.2,1.31.08.89.94,1.7,1.89,1.61.94-.09,1.69-.84,1.61-1.79-.29-3.27-1.99-6.45-4.59-8.61-.75-.62-1.57-1.17-2.44-1.61-.82-.42-1.97-.12-2.35.71-.38.84-.08,1.86.8,2.3h0Z"/>
    <path class="cls-6" d="M18.32,22.32c1.11.27,2.3.37,3.43.25,1.11-.12,2.29-.39,3.2-1.05,1.86-1.35,2.56-3.74,1.81-5.92-.37-1.08-1.11-2.1-2.03-2.82-.72-.57-1.86-.63-2.47.1-.57.67-.6,1.8.17,2.41.2.15.37.32.55.49.15.14-.25-.3-.12-.14.04.05.07.09.11.13.08.1.16.21.23.32.03.04.14.29.18.29-.02,0-.19-.39-.09-.17.02.05.05.1.07.16.1.24.18.48.23.73-.03-.14-.06-.29-.1-.43.06.31.09.62.08.93,0-.15.02-.3.03-.46-.02.35-.09.68-.2,1.01.05-.14.1-.29.15-.43-.11.3-.25.57-.43.84.08-.12.17-.24.25-.36-.14.19-.29.35-.45.51-.13.12-.08.08.14-.11-.05.04-.09.07-.14.1-.09.06-.18.12-.28.17-.35.19.33-.12.02,0-.12.04-.23.09-.35.13-.24.08-.48.13-.73.18.15-.03.3-.05.44-.08-.7.12-1.4.15-2.11.09.16.01.31.02.47.04-.47-.04-.93-.12-1.39-.23-.89-.22-1.92.41-2.05,1.3-.14.94.43,1.79,1.39,2.03h0Z"/>
    <path class="cls-6" d="M24.99,10.89c-.4.36-.11.09.01.02.14-.08.36-.1-.09.03.2-.06.39-.13.6-.17-.15.03-.3.05-.44.08.33-.05.66-.06,1-.04-.16-.01-.31-.02-.47-.04.8.08,1.58.31,2.33.58-.15-.05-.3-.1-.45-.16,1.22.43,2.37,1.01,3.44,1.73-.13-.08-.25-.17-.38-.25.15.1.29.2.44.31.39.28.79.47,1.29.45.42-.02.91-.23,1.18-.55.54-.65.63-1.84-.17-2.41-1.59-1.15-3.29-2-5.16-2.6-.93-.3-1.91-.52-2.89-.48-1.11.05-2.08.47-2.88,1.19-.31.28-.46.84-.43,1.25.03.41.26.89.59,1.16.8.64,1.76.54,2.47-.1h0Z"/>
    <path class="cls-6" d="M24.58,11.47c.52-.17.14-.04,0-.02-.16.02-.37-.05.09,0-.21-.03-.41-.03-.62-.08.15.04.29.07.44.1-.33-.08-.63-.21-.93-.37.14.07.28.15.41.22-.7-.39-1.32-.92-1.9-1.47.11.11.23.22.34.32-.94-.89-1.76-1.88-2.46-2.97.08.13.16.26.24.39-.1-.15-.19-.3-.28-.46-.25-.42-.54-.75-1-.93-.39-.15-.93-.16-1.3.03-.76.37-1.31,1.43-.82,2.27,1,1.69,2.2,3.16,3.68,4.46.73.65,1.54,1.25,2.46,1.6,1.04.4,2.09.41,3.12.07.4-.13.76-.59.89-.97.13-.39.12-.92-.08-1.3-.47-.91-1.39-1.2-2.3-.9h0Z"/>
    <path class="cls-1" d="M16.19,17.91c1.84.31,3.66-.08,5.24-.98,1.52-.87,2.66-2.2,3.59-3.63.23-.35.22-.94.08-1.32-.14-.39-.49-.81-.88-.98-.42-.19-.92-.27-1.36-.11-.45.16-.73.44-.99.83-.07.11-.14.21-.21.32.08-.12.17-.24.25-.36-.29.42-.61.82-.96,1.2-.15.16-.31.32-.48.47-.05.04-.09.09-.14.13-.13.12-.1.08.12-.09-.11.07-.2.16-.3.24-.21.15-.42.29-.64.42-.08.05-.16.09-.24.13-.05.03-.11.06-.17.08.26-.12.31-.14.15-.07-.46.19-.93.34-1.43.44.15-.03.3-.05.44-.08-.46.08-.93.1-1.4.07.16.01.31.02.47.04-.16-.01-.31-.04-.47-.06-.91-.15-1.91.37-2.05,1.3-.13.88.42,1.86,1.39,2.03h0Z"/>
    <path class="cls-1" d="M18.7,27.78c2.03-.11,3.91-1.05,5.28-2.46,1.45-1.49,2.28-3.54,2.51-5.59.05-.46,0-.89-.27-1.28-.24-.35-.69-.67-1.12-.75-.88-.15-1.94.35-2.05,1.3-.08.69-.22,1.37-.45,2.03.05-.14.1-.29.15-.43-.24.69-.56,1.33-.98,1.93.08-.12.17-.24.25-.36-.25.35-.53.68-.84.98-.06.06-.13.12-.19.18-.33.3.24-.18,0,0-.15.11-.3.22-.46.33-.16.1-.32.2-.48.29-.13.07-.5.18.01,0-.08.03-.16.07-.24.1-.38.15-.77.26-1.17.33.15-.03.3-.05.44-.08-.23.04-.46.06-.7.08-.91.05-1.72.87-1.61,1.79.12.92.91,1.67,1.89,1.61h0Z"/>
    <path class="cls-1" d="M25.95,18.01c.12.03.24.07.35.11-.15-.05-.3-.1-.45-.16.5.18.96.42,1.4.71-.13-.08-.25-.17-.38-.26.28.19.54.41.79.64.07.06.13.13.19.2.24.24-.26-.33-.05-.06.1.13.21.26.3.4.1.14.18.28.27.43.16.27-.17-.37-.03-.06.03.07.07.14.1.21.14.33.25.67.32,1.01-.03-.14-.06-.29-.1-.43.1.48.14.97.12,1.46,0-.15.02-.3.03-.46-.02.27-.05.55-.1.81-.17.87.46,1.87,1.39,2.03.94.16,1.86-.37,2.05-1.3.37-1.83-.01-3.78-1.05-5.39-1.03-1.6-2.68-2.71-4.51-3.23-.89-.26-1.92.44-2.05,1.3-.14.97.44,1.76,1.39,2.03h0Z"/>
    <path class="cls-1" d="M5.84,25.18c1.99,2.16,5.17,3.32,8.09,3.02.91-.1,1.73-.84,1.61-1.79-.11-.88-.91-1.71-1.89-1.61-.49.05-.98.06-1.48.02.16.01.31.02.47.04-.68-.06-1.35-.2-2-.43.15.05.3.1.45.16-.68-.24-1.32-.56-1.91-.95.13.08.25.17.38.25-.51-.35-.98-.75-1.4-1.21-.29-.31-.89-.47-1.29-.45-.42.02-.91.23-1.18.55-.29.34-.49.79-.43,1.25.06.47.27.81.59,1.16h0Z"/>
    <path class="cls-1" d="M1.49,17.72c1.99,2.16,5.17,3.32,8.09,3.02.91-.1,1.73-.84,1.61-1.79-.11-.88-.91-1.71-1.89-1.61-.49.05-.98.06-1.48.02.16.01.31.02.47.04-.68-.06-1.35-.2-2-.43.15.05.3.1.45.16-.68-.24-1.32-.56-1.91-.95.13.08.25.17.38.25-.51-.35-.98-.75-1.4-1.21-.29-.31-.89-.47-1.29-.45-.42.02-.91.23-1.18.55-.29.34-.49.79-.43,1.25.06.47.27.81.59,1.16h0Z"/>
    <path class="cls-3" d="M18.45,33.18c3.17-.39,6.17-2,7.97-4.56.27-.39.47-.75.43-1.25-.03-.41-.26-.89-.59-1.16-.36-.29-.82-.49-1.29-.45-.42.04-.93.2-1.18.55-.34.49-.73.95-1.17,1.36-.11.11-.23.22-.35.32-.24.21.05-.09.11-.09-.03,0-.18.14-.2.16-.24.18-.49.36-.74.52-.26.16-.52.31-.79.45-.06.03-.13.06-.19.1-.18.09.39-.17.12-.06-.15.06-.29.13-.44.18-.58.23-1.18.4-1.8.51.15-.03.3-.05.44-.08-.2.04-.4.07-.61.09-.46.06-.87.21-1.18.55-.29.31-.48.82-.43,1.25.11.87.92,1.73,1.89,1.61h0Z"/>
    <path class="cls-3" d="M7.15,16.84c1.04,2.98,3.39,5.55,6.33,6.88.84.38,1.95.15,2.35-.71.37-.8.1-1.9-.8-2.3-.54-.25-1.07-.54-1.56-.87.13.08.25.17.38.25-.43-.29-.84-.62-1.22-.97-.2-.18-.38-.37-.57-.57-.04-.05-.19-.22,0,0,.2.23.02.02-.03-.03-.09-.1-.17-.21-.25-.31-.32-.41-.6-.84-.85-1.29-.03-.05-.06-.1-.08-.15-.14-.25.15.31.06.12-.05-.11-.1-.21-.15-.32-.11-.25-.21-.51-.31-.77-.3-.85-1.36-1.42-2.24-1.1-.89.33-1.39,1.24-1.07,2.15h0Z"/>
    <path class="cls-3" d="M32.82,14.8c-1.16-2.93-3.56-5.45-6.57-6.66-.45-.18-.89-.26-1.36-.11-.4.13-.82.45-.99.83-.35.78-.12,1.93.8,2.3.67.27,1.3.61,1.89,1-.13-.08-.25-.17-.38-.25.41.28.79.58,1.16.91.19.17.37.34.54.53.04.04.08.09.12.13.17.18-.12-.12-.12-.14,0,.04.23.27.26.31.31.38.59.78.84,1.19.06.1.12.2.18.31,0,.02.07.16.08.16-.02,0-.19-.39-.08-.16.11.24.22.48.32.72.33.84,1.34,1.42,2.24,1.1.86-.31,1.42-1.25,1.07-2.15h0Z"/>
    <path class="cls-8" d="M13.62,19.17c-.85.74.74,1.28,1.09,1.71.45.54.23,1.31.47,1.93.24.61-.32,1.58.48,1.92.88.37.93-.98,1.09-1.49.32-1.02,1.41-.24,2.13-.34.5-.07.77-.48,1.08-.84.34-.38.6-.58,1.02-.85.35-.23.44-.59-.12-.57-.41.02-.81.36-1.17.51-.87.37-1.85.2-2.05-.77-.03-.15-.13-.32-.15-.42-.17-.74.91-1.29.77-1.7-.22-.64-3.2-.23-4.01.31-.38.25-.64.6-.64.6h0Z"/>
    <path class="cls-8" d="M15.87,22.74c-.54-.19-1.32.53-1.47.99-.12.38.08.75-.36,1.03-.17.11-.37.15-.53.28-.18.15-.23.34-.37.52-.18.23-1.02.46-.96.71.04.16.41.28.54.33.21.08.44.07.68.05.44-.04,1.03-.08,1.37.25.3.29.11.6.2.93.09.33.36.46.27.83-.09.37-.38.65-.28,1.04.12.51.69.6,1.16.49.48-.11.9.06,1.39.03.34-.02.69.06,1.02.02.33-.04.59-.18.88-.34.46-.25.89-.13,1.38-.25.3-.07.64-.22.8-.48.13-.21.14-.46.26-.67.12-.21.96-1.11.75-1.36-.08-.1-.71.18-.83.21-.25.06-.6.03-.86-.04-.17-.05-.34-.15-.46-.27-.12-.13-.17-.34-.31-.44-.28-.2-.89.08-1.19.16-.87.22-1.35-.43-1.01-1.16.21-.46.55-1.5-.21-1.7-.36-.1-.71.17-1.07.12-.35-.05-.37-.4-.39-.67-.03-.34-.16-.65-.4-.62h0Z"/>
    <path class="cls-8" d="M5.21,15.52c.65.67,1.4-.69,1.74-1.1.23-.28.43-.59.81-.69.35-.09.67-.21,1.02-.34.46-.17.97-.2,1.37.09.19.14.52.42.61.03.13-.53-.53-.97-.67-1.45-.09-.31-.07-.47.24-.65.28-.16.49-.36.76-.55.31-.23,1.4-.33,1.17-.88-.1-.24-.45-.21-.66-.39-.26-.23-.44-.37-.73-.04-.21.24-.22.56-.51.74-.27.17-.65.23-.95.32-.46.13-.66.47-.99.78-.3.28-.61.52-.9.82-.38.4-.83.71-1.12,1.18-.22.36-.5.69-.74,1.04-.27.4-.42.73-.45,1.09h0Z"/>
    <path class="cls-8" d="M26.24,14.2c.03.4.53.54.89.37.29-.14.3-.47.35-.74.05-.24.06-.53.25-.72.2-.2.4-.1.65-.14.38-.06.56-.15.75.23.12.24.21.5.56.44.22-.04.58-.39.56-.61-.02-.21-.33-.34-.36-.57-.07-.56.77-1.02.67-1.58-.12-.67-1.02.23-1.28.31-.54.16-.98-.46-1.53-.38-.24.03-.54.16-.77.26-.28.12-.58.41-.89.45-.27.04-.56-.19-.74.1-.24.39.25.57.47.77.52.47.25,1.33.41,1.81h0Z"/>
    <path class="cls-7" d="M21.89,17.6c-.1.24-.02.65.18.83.25.22.27.03.29-.2.02-.22.05-.48-.06-.68-.08-.14-.25-.3-.42.06Z"/>
    <path class="cls-7" d="M25.69,16.94c-.24-.13-.7-.13-.94.02-.29.18-.09.23.17.29.23.05.51.13.76.06.17-.04.38-.16.02-.38Z"/>
    <path class="cls-7" d="M16.82,15.95c-.1.24-.02.65.18.83.25.22.27.03.29-.2.02-.22.05-.48-.06-.68-.08-.14-.25-.3-.42.06Z"/>
    <path class="cls-7" d="M13.25,12.03c-.08.18-.02.48.14.61.18.16.2.03.22-.15.01-.16.04-.35-.04-.5-.06-.1-.18-.22-.31.04h0Z"/>
    <path class="cls-7" d="M18.27,20.96c-.1.24-.02.65.18.83.25.22.27.03.29-.2.02-.22.05-.48-.06-.68-.08-.14-.25-.3-.42.06Z"/>
    <path class="cls-7" d="M19.8,17.46c-.28-.05-.71.1-.88.31-.2.26,0,.25.27.22.24-.02.53-.04.74-.18.14-.09.29-.27-.13-.36h0Z"/>
    <path class="cls-7" d="M15.15,12.78c-.25.11-.5.47-.49.73.02.32.17.19.37.03.18-.15.4-.32.47-.54.05-.15.05-.37-.35-.21h0Z"/>
    <path class="cls-7" d="M18.64,15.56c-.28-.05-.71.1-.88.31-.2.26,0,.25.27.22.24-.02.53-.04.74-.18.14-.09.29-.27-.13-.36h0Z"/>
    <path class="cls-7" d="M23.94,16.03c.01.23.03.4.15.59.08.13.21.33.27.07.03-.13-.1-.94-.43-.67h0Z"/>
    <path class="cls-7" d="M28.68,19.13c.01.23.03.4.15.59.08.13.21.33.27.07.03-.13-.1-.94-.43-.67h0Z"/>
    <path class="cls-7" d="M27,14.65c-.02.09-.04.23.02.37.01.03.04.09.11.15.03.03.13.11.2.1.02,0,.05-.02.08-.1.03-.1-.09-.74-.41-.52h0Z"/>
    <path class="cls-7" d="M24.26,15.38c.09.11.24.26.48.33.05.02.16.04.3.03.07,0,.27-.02.32-.12.01-.03.03-.08-.04-.18-.09-.13-1.01-.6-1.06-.06Z"/>
    <path class="cls-7" d="M11.38,14.3c.09.11.24.25.47.32.05.02.16.04.29.03.07,0,.27-.02.32-.12.01-.03.03-.08-.04-.17-.09-.13-1-.6-1.04-.06Z"/>
    <path class="cls-7" d="M25.69,15.97c.08.21.22.35.47.39.15.02.49.06.46-.13-.04-.25-.66-.52-.93-.25h0Z"/>
    <path class="cls-7" d="M21.72,19.33c-.25.04-.43.08-.63.22-.13.09-.34.23-.05.26.14.01,1.02-.23.68-.48h0Z"/>
    <path class="cls-7" d="M23.26,22.04c.08.21.22.35.47.39.15.02.49.06.46-.13-.04-.25-.66-.52-.93-.25h0Z"/>
  </g>
  <path class="cls-5" d="M2.8,4.22v.03s.02-.06.02-.06c.03-.18.13-.35.27-.46-.15-.12-.26-.28-.3-.47v-.03s-.02.06-.02.06c-.03.18-.13.35-.27.46.15.12.26.28.3.47Z"/>
  <path class="cls-5" d="M7,3.79c0,.07-.04.13-.11.14-.07,0-.13-.04-.14-.11,0-.07.04-.13.11-.14.07,0,.13.04.14.11Z"/>
  <path class="cls-5" d="M6.7,4.69c.01.1-.06.19-.16.2-.1.01-.19-.06-.2-.16-.01-.1.06-.19.16-.2.1-.01.19.06.2.16Z"/>
  <path class="cls-5" d="M6.96,5.49c-.34-.03-.67-.05-1.01-.07-.33-.01-.67-.02-1-.03.14-.14.27-.29.41-.43.15-.17.31-.34.45-.52.01-.02,0-.04-.03-.03-.18.15-.35.3-.52.45-.15.13-.29.27-.43.41,0-.33-.01-.67-.03-1-.02-.33-.04-.67-.07-1,0-.03-.05-.03-.05,0-.03.33-.05.67-.07,1-.01.33-.02.67-.03,1-.14-.14-.29-.28-.43-.41-.17-.15-.34-.31-.52-.45-.02-.01-.04,0-.03.03.15.18.3.35.45.52.13.15.27.29.41.43-.33,0-.67.01-1,.03-.33.02-.67.04-1,.07-.03,0-.03.05,0,.05.33.03.67.05,1,.07.33.01.67.02,1,.03-.14.14-.28.29-.41.43-.15.17-.31.34-.45.52-.01.02,0,.04.03.03.18-.15.35-.3.52-.45.15-.13.29-.27.43-.41,0,.33.01.67.03,1,.02.34.04.67.07,1.01,0,.03.05.03.05,0,.03-.34.05-.67.07-1.01.01-.33.02-.67.03-1,.14.14.29.27.43.41.17.15.34.31.52.45.02.01.04,0,.03-.03-.15-.18-.3-.35-.45-.52-.13-.15-.27-.29-.41-.43.33,0,.67-.01,1-.03.34-.02.67-.04,1.01-.07.03,0,.03-.05,0-.05h0Z"/>
  <path class="cls-5" d="M35.83,35.99c.65-.31,1.12-.94,1.25-1.7.13.76.61,1.4,1.25,1.7.13.06.44.15.44.15,0,0-.31.09-.44.15-.65.31-1.12.94-1.25,1.7-.13-.76-.61-1.4-1.25-1.7-.13-.06-.44-.15-.44-.15,0,0,.31-.09.44-.15Z"/>
  <path class="cls-5" d="M32.71,34.13c.65-.31,1.12-.94,1.25-1.7.13.76.61,1.4,1.25,1.7.13.06.44.15.44.15,0,0-.31.09-.44.15-.65.31-1.12.94-1.25,1.7-.13-.76-.61-1.4-1.25-1.7-.13-.06-.44-.15-.44-.15,0,0,.31-.09.44-.15Z"/>
</svg>