<?xml version="1.0" encoding="UTF-8"?>
<svg id="_레이어_1" data-name="레이어 1" xmlns="http://www.w3.org/2000/svg" viewBox="0 0 40 40">
  <defs>
    <style>
      .cls-1 {
        fill: #fff;
        stroke: #373433;
        stroke-width: .6px;
      }

      .cls-1, .cls-2, .cls-3 {
        stroke-miterlimit: 10;
      }

      .cls-4 {
        fill: #017247;
      }

      .cls-4, .cls-5 {
        stroke-width: 0px;
      }

      .cls-5 {
        fill: #f5bf00;
      }

      .cls-2 {
        stroke: #a53002;
        stroke-linecap: round;
      }

      .cls-2, .cls-3 {
        fill: none;
        stroke-width: .3px;
      }

      .cls-3 {
        stroke: #876703;
      }
    </style>
  </defs>
  <path class="cls-1" d="M36.92,9.69H3.08c-1.18,0-2.12.93-2.12,2.12v16.39c0,1.18.93,2.12,2.12,2.12h33.83c1.18,0,2.12-.93,2.12-2.12V11.81c-.06-1.18-1-2.12-2.12-2.12Z"/>
  <path class="cls-4" d="M21.59,17.85c-.5-1.25-.75-2.62-.81-3.99,0-.12.12-.19.19-.12.69.37,1.18,1.06,1.62,1.74.06.12.25.06.25-.06,0-1.25,0-2.49-.12-3.74,0-.12.19-.19.25-.06.37.81.62,1.74.69,2.62,0,.12.19.19.25.06.31-.75.62-1.5.81-2.24.06-.12.25-.12.25,0,.06,1.18.06,2.31,0,3.49,0,.12.12.19.19.12.5-.44.93-.87,1.31-1.43.06-.12.25-.06.25.06-.12.62-.25,1.31-.5,1.93-.19.56-.44,1.06-.75,1.5"/>
  <path class="cls-5" d="M20.59,18.79c-.69.87-.81,2.06-.87,3.18-.06.81-.06,1.56.06,2.37.12.75.37,1.56.87,2.12.87,1,2.31,1.43,3.61,1.25.69-.12,1.31-.37,1.81-.81.56-.56.87-1.37.93-2.18s-.06-1.62-.19-2.43c-.12-.93-.31-1.87-.44-2.8-.06-.44-.19-.93-.44-1.25s-.62-.44-1.06-.56c-.62-.19-1.31-.31-1.93-.06-.25.12-.56.12-.81.19-.31.06-.56.19-.81.37-.31.12-.56.37-.75.62h0Z"/>
  <path class="cls-3" d="M20.59,18.79c-.69.87-.81,2.06-.87,3.18-.06.81-.06,1.56.06,2.37.12.75.37,1.56.87,2.12.87,1,2.31,1.43,3.61,1.25.69-.12,1.31-.37,1.81-.81.56-.56.87-1.37.93-2.18s-.06-1.62-.19-2.43c-.12-.93-.31-1.87-.44-2.8-.06-.44-.19-.93-.44-1.25s-.62-.44-1.06-.56c-.62-.19-1.31-.31-1.93-.06-.25.12-.56.12-.81.19-.31.06-.56.19-.81.37-.31.12-.56.37-.75.62h0Z"/>
  <path class="cls-3" d="M22.34,17.73c-.31.62-.75,1.18-1.18,1.74s-.93,1.12-1.31,1.74"/>
  <path class="cls-3" d="M24.64,17.54c-.62,1.31-1.43,2.49-2.31,3.68-.81,1.06-1.68,2.12-2.43,3.18"/>
  <path class="cls-3" d="M26.45,19.6c-1.62,2.49-3.36,4.92-5.3,7.29"/>
  <path class="cls-3" d="M26.95,22.71c-1.12,1.74-2.43,3.43-3.8,4.92"/>
  <path class="cls-3" d="M19.78,23.15c.81.81,1.74,1.43,2.68,2.06,1.06.69,2.06,1.43,3.12,2.12"/>
  <path class="cls-3" d="M20.22,19.47c.5.56.93,1.18,1.37,1.81,1.43,1.74,3.24,3.24,5.3,4.3"/>
  <path class="cls-3" d="M21.15,18.29c1.68,1.68,3.61,3.05,5.73,4.17"/>
  <path class="cls-3" d="M23.21,17.54c.93,1.06,2.06,1.93,3.3,2.62"/>
  <path class="cls-2" d="M8.57,17.1c-.19,2.55-.5,5.11-.93,7.66"/>
  <path class="cls-2" d="M8.38,17.85c2.12,10.09,2.8,8.1,3.12-.44"/>
  <path class="cls-2" d="M12.74,23.64c.69,1.62,2.12,1.18,2.74-.12.69-1.25.81-3.68-.62-4.42-1.31-.44-2.18,1.37-2.31,2.49-.12.69-.06,1.43.19,2.06h0Z"/>
  <path class="cls-2" d="M32.31,16.79c.06,2.12-.19,4.3-.69,6.42"/>
  <path class="cls-2" d="M31.18,24.83c-.06.06,0,.12,0,.12,0,0,.12.06.12,0,.06-.06,0-.19-.06-.19-.06-.06-.19,0-.19.06-.06.06-.06.12-.12.19.06.06.12.06.19.06"/>
</svg>