<?xml version="1.0" encoding="UTF-8"?>
<svg id="_레이어_1" data-name="레이어 1" xmlns="http://www.w3.org/2000/svg" viewBox="0 0 40 40">
  <defs>
    <style>
      .cls-1, .cls-2, .cls-3 {
        stroke-width: 0px;
      }

      .cls-1, .cls-4 {
        fill: #019c65;
      }

      .cls-5, .cls-6, .cls-4 {
        stroke-width: .39px;
      }

      .cls-5, .cls-6, .cls-4, .cls-7, .cls-8 {
        stroke: #373433;
        stroke-miterlimit: 10;
      }

      .cls-5, .cls-7, .cls-8 {
        fill: none;
      }

      .cls-6, .cls-3 {
        fill: #eff0f0;
      }

      .cls-2 {
        fill: #83d1e4;
      }

      .cls-7 {
        stroke-linecap: round;
      }

      .cls-7, .cls-8 {
        stroke-width: .2px;
      }
    </style>
  </defs>
  <path class="cls-3" d="M35.62,12.99H4.38v19.15h31.24V12.99Z"/>
  <path class="cls-5" d="M35.62,12.99H4.38v19.15h31.24V12.99Z"/>
  <path class="cls-6" d="M7,14.77l1.58-9.58h4.12l-.54,9.58s-.15,2.58-2.58,2.58-2.58-2.58-2.58-2.58h0Z"/>
  <path class="cls-6" d="M17.32,14.77V5.19h5.16v9.58s-.08,2.58-2.58,2.58-2.58-2.58-2.58-2.58Z"/>
  <path class="cls-6" d="M27.63,14.77l-.15-9.58h4.27l1.04,9.58s-.12,2.19-2.27,2.54c-2.15.35-2.83-1.61-2.88-2.54Z"/>
  <path class="cls-4" d="M37.83,14.26l-1.75-8.4c-.08-.39-.43-.67-.82-.67h-3.51l1.04,9.58s0,2.58,2.58,2.58c1.29,0,1.93-.64,2.26-1.29.28-.56.34-1.19.22-1.8Z"/>
  <path class="cls-4" d="M12.7,5.19h4.62v9.58s-.27,2.54-2.58,2.58c-2.31.04-2.58-2.58-2.58-2.58l.54-9.58h0Z"/>
  <path class="cls-4" d="M22.47,5.19v9.58s.12,2.62,2.58,2.58c2.46-.04,2.58-2.58,2.58-2.58l-.15-9.58h-5,0Z"/>
  <path class="cls-4" d="M8.58,5.19c-.23,1.37-.45,2.75-.68,4.12-.29,1.74-.59,3.48-.86,5.22-.11.67-.23,1.28-.65,1.84-.47.63-1.19.95-1.96.98-1.66.05-2.17-1.25-2.32-2.05-.07-.33-.05-.68.04-1l2.27-8.48c.1-.37.43-.62.81-.62h3.36Z"/>
  <path class="cls-1" d="M32.52,19.78h-5.06c-.58,0-1.06.47-1.06,1.06v10.57c0,.58.47,1.06,1.06,1.06h5.06c.58,0,1.06-.47,1.06-1.06v-10.57c0-.58-.47-1.06-1.06-1.06Z"/>
  <path class="cls-5" d="M32.52,19.78h-5.06c-.58,0-1.06.47-1.06,1.06v10.57c0,.58.47,1.06,1.06,1.06h5.06c.58,0,1.06-.47,1.06-1.06v-10.57c0-.58-.47-1.06-1.06-1.06Z"/>
  <path class="cls-3" d="M37.17,30.97H2.83c-.45,0-.82.37-.82.82v2.2c0,.45.37.82.82.82h34.34c.45,0,.82-.37.82-.82v-2.2c0-.45-.37-.82-.82-.82Z"/>
  <path class="cls-5" d="M37.17,30.97H2.83c-.45,0-.82.37-.82.82v2.2c0,.45.37.82.82.82h34.34c.45,0,.82-.37.82-.82v-2.2c0-.45-.37-.82-.82-.82Z"/>
  <path class="cls-2" d="M23.84,19.78H7.49c-.61,0-1.1.49-1.1,1.1v6.11c0,.61.49,1.1,1.1,1.1h16.35c.61,0,1.1-.49,1.1-1.1v-6.11c0-.61-.49-1.1-1.1-1.1Z"/>
  <path class="cls-3" d="M6.4,27.03h18.62v.09c0,.5-.4.9-.9.9H7.3c-.5,0-.91-.41-.91-.91v-.09Z"/>
  <path class="cls-8" d="M6.4,27.03h18.62v.07c0,.51-.41.92-.92.92H7.27c-.48,0-.88-.39-.88-.88v-.12Z"/>
  <path class="cls-5" d="M23.84,19.78H7.49c-.61,0-1.1.49-1.1,1.1v6.11c0,.61.49,1.1,1.1,1.1h16.35c.61,0,1.1-.49,1.1-1.1v-6.11c0-.61-.49-1.1-1.1-1.1Z"/>
  <path class="cls-3" d="M22.96,22.95c-.74.67-1.48,1.35-2.23,2.02-.18.17.09.44.27.27.74-.67,1.48-1.35,2.23-2.02.18-.17-.09-.44-.27-.27Z"/>
  <path class="cls-3" d="M23.37,23.94c-.42.45-.85.9-1.27,1.35-.17.18.1.45.27.27.42-.45.85-.9,1.27-1.35.17-.18-.1-.45-.27-.27Z"/>
  <path class="cls-8" d="M32.18,22.88h-4.37c-.1,0-.17.08-.17.17v1.15c0,.1.08.17.17.17h4.37c.1,0,.17-.08.17-.17v-1.15c0-.1-.08-.17-.17-.17Z"/>
  <path class="cls-7" d="M27.71,22.89l2.18-1.19c.05-.03.11-.03.16,0l2.2,1.2"/>
  <path class="cls-7" d="M28.46,23.38s-.03,0-.04,0c0,0-.02.02-.03.03-.01.02-.02.03-.03.05-.02.05,0,.12,0,.17,0,.03,0,.06.02.08.01.01.02.02.04.03.03.01.07,0,.1,0,.03,0,.06,0,.08,0,.05,0,.1-.08.11-.13,0-.03.01-.11,0-.14-.01-.02-.02-.04-.04-.05-.02-.01-.04-.01-.06-.02-.04-.01-.09-.04-.14-.03h0Z"/>
  <path class="cls-7" d="M29.17,23.32v.11c0,.08,0,.15,0,.23v.36"/>
  <path class="cls-7" d="M29.25,23.3s.06,0,.09,0c.02,0,.03,0,.05.02.01,0,.03.01.04.02.03.01.06.01.07.05,0,.02,0,.06,0,.09,0,.05-.02.07-.05.11-.02.02-.02.04-.05.04-.01,0-.02,0-.03,0-.02,0-.03,0-.04.01-.03,0-.06,0-.08,0"/>
  <path class="cls-7" d="M29.86,23.36h.45"/>
  <path class="cls-7" d="M29.9,23.38c0,.08,0,.17,0,.25,0,.06-.02.12-.03.18,0,.02,0,.04-.01.07,0,.01-.01.03-.01.04,0,.02,0,.01.02.01.02,0,.06,0,.08,0h.43"/>
  <path class="cls-7" d="M29.97,23.65c.06,0,.13,0,.19,0,.03,0,.05.01.08.01h.11"/>
  <path class="cls-7" d="M30.8,23.32c0,.11.01.22.02.33,0,.09,0,.18,0,.27"/>
  <path class="cls-7" d="M30.81,23.37s.04,0,.06.02c.03.02.05.04.07.07.07.07.13.14.19.22.01.02.02.02.04.03.01.01.02.03.03.04,0,0,.02.01.02.02.01.01,0,.03,0,.05"/>
  <path class="cls-7" d="M31.3,23.34c0,.12,0,.24,0,.36,0,.03,0,.07,0,.1v.09"/>
</svg>