<?xml version="1.0" encoding="UTF-8"?>
<svg id="_레이어_1" data-name="레이어 1" xmlns="http://www.w3.org/2000/svg" viewBox="0 0 40 40">
  <defs>
    <style>
      .cls-1 {
        fill: #fff;
        stroke-width: .75px;
      }

      .cls-1, .cls-2 {
        stroke: #373433;
        stroke-miterlimit: 10;
      }

      .cls-2 {
        fill: none;
        stroke-linecap: round;
        stroke-width: .69px;
      }

      .cls-3 {
        fill: #373433;
        stroke-width: 0px;
      }
    </style>
  </defs>
  <path class="cls-1" d="M34.69,30.28c-.02-.18.04-.36.16-.49,2.47-2.7,3.95-6.1,3.95-9.79,0-8.82-8.42-15.97-18.8-15.97S1.2,11.18,1.2,20c0,3.74,1.51,7.17,4.04,9.89.12.13.19.31.17.49l-.34,3.2c-.05.48.44.83.88.64l2.68-1.19c.19-.08.4-.07.58.04,3.06,1.83,6.78,2.9,10.8,2.9s7.69-1.06,10.73-2.86c.18-.1.39-.12.58-.04l2.86,1.28c.44.2.93-.16.88-.64l-.36-3.44Z"/>
  <g>
    <path class="cls-2" d="M19.48,11.04c-1.89,2.08-4.32,3.67-6.98,4.59"/>
    <path class="cls-2" d="M23.07,12.41c.95,2.64,3.1,4.82,5.73,5.8"/>
    <path class="cls-2" d="M12.12,25.67c.69-1.46,1.42-2.96,2.65-4.01,1.27-1.08,3.01-1.56,4.66-1.34s3.19,1.14,4.21,2.45,1.53,3.01,1.45,4.67"/>
    <circle class="cls-3" cx="17.01" cy="15.61" r="1.15"/>
    <circle class="cls-3" cx="23.34" cy="17" r="1.15"/>
    <path class="cls-3" d="M24.84,19.73c0,.22.02.44.1.64s.23.38.44.46.45.05.6-.11c.14-.15.17-.38.13-.58s-.16-.38-.26-.56l-.28-.45c-.08-.13-.15-.31-.26-.41-.27-.23-.37.32-.4.48-.04.18-.06.35-.06.53Z"/>
  </g>
</svg>