<?xml version="1.0" encoding="UTF-8"?>
<svg id="_레이어_1" data-name="레이어 1" xmlns="http://www.w3.org/2000/svg" viewBox="0 0 40 40">
  <defs>
    <style>
      .cls-1 {
        stroke-linecap: round;
      }

      .cls-1, .cls-2, .cls-3, .cls-4 {
        stroke-miterlimit: 10;
      }

      .cls-1, .cls-3, .cls-4 {
        stroke: #5b2f20;
        stroke-width: .54px;
      }

      .cls-1, .cls-5 {
        fill: #d9d9d9;
      }

      .cls-2 {
        stroke: #d9d9d9;
        stroke-width: .18px;
      }

      .cls-2, .cls-6 {
        fill: #faf5e2;
      }

      .cls-7 {
        fill: #c16b4d;
      }

      .cls-7, .cls-5, .cls-6, .cls-8 {
        stroke-width: 0px;
      }

      .cls-3 {
        fill: #84452c;
      }

      .cls-4 {
        fill: none;
      }

      .cls-8 {
        fill: #d87b56;
      }
    </style>
  </defs>
  <path class="cls-5" d="M1.13,22.98s1.44,16.02,18.55,16.02,19.25-16.31,19.25-16.31"/>
  <path class="cls-4" d="M1.13,22.98s1.44,16.02,18.55,16.02,19.25-16.31,19.25-16.31"/>
  <path class="cls-3" d="M20,28.81c10.45,0,18.93-2.74,18.93-6.12s-8.47-6.12-18.93-6.12S1.07,19.31,1.07,22.69s8.47,6.12,18.93,6.12Z"/>
  <path class="cls-6" d="M15.1,26.02c.15.98.03,2.73-1.04,3.1-.58.21-1.3,0-1.9-.14-.51-.14-1.03-.27-1.51-.35-1.37-.21-2.9-.3-4.23-.07-.74.11-1.55.54-2.28.34-.94-.27-1.4-1.76-1.18-2.65.26-1,1.51-1.32,2.39-1.71,2.05-.87,3.54-.6,5.66-.42,1.01.12,2.39.08,3.13.53.5.29.88.78.97,1.36h0s0,.01,0,.01Z"/>
  <path class="cls-8" d="M16.47,22.79c.15.98.03,2.73-1.04,3.1-.58.21-1.3,0-1.9-.14-.51-.14-1.03-.27-1.51-.35-1.37-.21-2.9-.3-4.23-.07-.74.11-1.55.54-2.28.34-.94-.27-1.4-1.76-1.18-2.65.26-1,1.51-1.32,2.39-1.71,2.05-.87,3.54-.6,5.66-.42,1.01.12,2.39.08,3.13.53.5.29.88.78.97,1.36h0s0,.01,0,.01Z"/>
  <path class="cls-6" d="M22.41,28.29c-.64.76-2.04,1.81-3.02,1.25-.54-.3-.86-.98-1.14-1.53-.23-.47-.47-.95-.73-1.37-.74-1.17-1.67-2.38-2.73-3.24-.57-.48-1.42-.82-1.75-1.5-.42-.89.41-2.21,1.23-2.63.92-.46,1.99.27,2.86.68,2,.98,2.78,2.27,4.03,3.99.57.84,1.5,1.86,1.65,2.71.11.57-.01,1.18-.39,1.63h0s0,.01,0,.01Z"/>
  <path class="cls-8" d="M25.75,27.2c-.64.76-2.04,1.81-3.02,1.24-.54-.3-.86-.98-1.14-1.53-.23-.47-.47-.95-.73-1.37-.74-1.17-1.67-2.38-2.73-3.24-.57-.49-1.42-.82-1.75-1.5-.42-.89.41-2.21,1.23-2.63.92-.46,1.99.27,2.86.68,2,.98,2.78,2.27,4.03,4,.57.84,1.5,1.86,1.65,2.71.11.57-.01,1.18-.39,1.63h0s0,.01,0,.01Z"/>
  <path class="cls-2" d="M15.26-23c-.05,1.01-.11,2.01-.16,2.93-.56,10.54-.73,18.37-1.02,29.53-.13,5.34-.36,12.52-.36,16.49,0,2.69.07,4.81.21,5.4v.02c.25,1.02.74.81,1.01-4.72.15-3.01.21-6.82.27-9.99.04-2.7.09-5.44.15-7.99.16-7.2.38-15.24.66-22.16.11-2.93.28-6.03.38-9.06-.41-.09-.81-.23-1.15-.45h0Z"/>
  <path class="cls-2" d="M16.84-22.48c-.05.93-.1,1.83-.14,2.67-.56,10.54-.73,18.37-1.02,29.53-.13,5.34-.36,12.52-.36,16.49,0,2.69.07,4.81.21,5.4v.02c.25,1.02.74.81,1.01-4.72.15-3.01.21-6.82.27-9.99.04-2.7.09-5.45.15-7.99.16-7.2.38-15.25.66-22.17.12-2.98.29-6.14.39-9.22-.39.02-.78,0-1.17-.04Z"/>
  <path class="cls-2" d="M18.45-22.46c-.05.88-.09,1.74-.14,2.54-.56,10.54-.73,18.37-1.02,29.53-.13,5.34-.36,12.52-.36,16.49,0,2.69.07,4.81.21,5.4v.02c.25,1.02.74.81,1.01-4.72.15-3.01.21-6.82.27-9.99.04-2.7.09-5.44.15-7.99.16-7.2.38-15.24.66-22.16.11-2.96.29-6.09.39-9.14-.1-.03-.2-.06-.3-.09-.27.05-.57.09-.87.11Z"/>
  <path class="cls-2" d="M20.06-22.42c-.05.95-.1,1.89-.15,2.75-.56,10.54-.73,18.37-1.02,29.53-.13,5.34-.36,12.52-.36,16.49,0,2.69.07,4.81.21,5.4v.02c.25,1.02.74.81,1.01-4.72.15-3.01.21-6.82.27-9.99.04-2.7.09-5.45.15-7.99.16-7.2.38-15.24.66-22.16.12-3.09.3-6.37.4-9.56-.35.21-.76.26-1.17.22h0Z"/>
  <path class="cls-7" d="M22.7,25.56c.31.95.49,2.68-.51,3.23-.54.31-1.28.23-1.9.18-.52-.05-1.06-.09-1.55-.09-1.38.02-2.91.19-4.18.64-.71.23-1.44.79-2.19.72-.98-.1-1.68-1.5-1.61-2.42.09-1.03,1.27-1.56,2.07-2.09,1.88-1.2,3.39-1.19,5.51-1.37,1.02-.05,2.37-.32,3.17,0,.54.2,1,.62,1.19,1.18h0s0,.01,0,.01Z"/>
  <path class="cls-7" d="M36.33,22.85c.07,1.01-.32,2.71-1.78,2.85-.79.09-1.71-.26-2.47-.54-.65-.24-1.31-.48-1.93-.66-1.76-.5-3.75-.9-5.52-.95-.98-.04-2.09.21-3.03-.14-1.2-.46-1.6-2.04-1.19-2.88.48-.93,2.15-.99,3.35-1.2,2.8-.43,4.7.14,7.46.77,1.31.33,3.11.58,4.02,1.18.62.39,1.05.96,1.09,1.55v.02h0Z"/>
  <path class="cls-6" d="M9.14,30.68c-.65-.86-.92-2.59,1.44-3.52,1.28-.52,3-.72,4.43-.9,1.22-.15,2.45-.3,3.59-.49,3.22-.54,6.78-1.28,9.78-2.23,1.67-.51,3.4-1.35,5.15-1.56,2.26-.26,3.78.92,3.55,1.89-.29,1.09-3.07,2.08-4.97,2.93-4.47,1.94-7.97,2.49-12.92,3.47-2.38.44-5.54,1.21-7.38,1.18-1.24,0-2.28-.27-2.66-.78h-.01s0-.01,0-.01Z"/>
  <path class="cls-8" d="M14.24,31.5c-.54-.9-.77-2.63,1.13-3.4,1.04-.43,2.43-.51,3.58-.59.98-.06,1.99-.14,2.91-.25,2.6-.32,5.48-.82,7.91-1.56,1.35-.39,2.74-1.11,4.16-1.2,1.83-.11,3.07,1.16,2.9,2.12-.23,1.06-2.47,1.86-4.01,2.58-3.6,1.63-6.43,1.94-10.44,2.58-1.92.27-4.47.84-5.97.69-1.01-.09-1.85-.42-2.17-.95h0s0-.01,0-.01Z"/>
  <path class="cls-1" d="M19.97,28.81c-10.15,0-18.41-2.58-18.88-5.82,0,0,1.48,16.01,18.59,16.01,15.33,0,18.67-13.09,19.2-15.81-.78,3.15-8.96,5.62-18.9,5.62h0Z"/>
</svg>