<?xml version="1.0" encoding="utf-8"?>
<!-- Generator: Adobe Illustrator 28.2.0, SVG Export Plug-In . SVG Version: 6.00 Build 0)  -->
<svg version="1.1" id="레이어_1" xmlns="http://www.w3.org/2000/svg" xmlns:xlink="http://www.w3.org/1999/xlink" x="0px"
	 y="0px" viewBox="0 0 284 248" style="enable-background:new 0 0 284 248;" xml:space="preserve">
<style type="text/css">
	.st0{clip-path:url(#SVGID_00000072257919330751976590000015412366039949305271_);}
	.st1{fill:none;stroke:#373433;stroke-width:3;stroke-linecap:round;stroke-miterlimit:10;}
	.st2{fill:#FAF5E2;stroke:#D1CDBF;stroke-width:2;stroke-miterlimit:10;}
	.st3{fill:#FFFFFF;}
	.st4{fill:none;stroke:#373433;stroke-linecap:round;stroke-linejoin:round;}
	.st5{fill:#D54400;}
	.st6{fill:#019C65;}
	.st7{fill:#D8BF79;}
	.st8{fill:#F5BF00;}
	.st9{fill:#D9D9D9;}
	.st10{fill:none;stroke:#373433;stroke-width:0.3333;stroke-linecap:round;stroke-linejoin:round;}
	.st11{fill:none;stroke:#373433;stroke-width:0.3333;stroke-linecap:round;stroke-miterlimit:10;}
	.st12{fill:#83D1E4;}
	.st13{fill:none;stroke:#373433;stroke-width:2;stroke-linecap:round;stroke-miterlimit:10;}
	.st14{fill:#EFF0F0;}
</style>
<g>
	<defs>
		<rect id="SVGID_1_" width="284" height="248"/>
	</defs>
	<clipPath id="SVGID_00000076579678586267535800000013609647843221267114_">
		<use xlink:href="#SVGID_1_"  style="overflow:visible;"/>
	</clipPath>
	<g style="clip-path:url(#SVGID_00000076579678586267535800000013609647843221267114_);">
		<path class="st1" d="M160.3,143.7c-10.1,19.8-17.1,41.2-20.5,63.1"/>
		<path class="st2" d="M196.4,21.9c20.4-4.2,53.8-2.2,61.9,23.6c4.9,14.6,3.8,67.2,3.3,83.4c-0.4,13.4-2.8,131.7-4.1,144.1
			c-3.2,34.9-9.6,44-3.6,77.6c2.9,18.7-2.5,10.2-5.9,29c-4.6,24.3-52.2,16.3-70.7,11.7c-20.7-5.5-1.1-52.9-9.9-74.8
			c-19.6-51.2-10.9-133.5-9.1-187.7c1.5-25.9-0.4-60.8,8.1-80.1c5.5-13,15.3-23.3,27.1-26.2l-0.6,0.1l0.9-0.2
			C194.7,22.2,195.6,22.1,196.4,21.9"/>
		<path class="st3" d="M119.6,178.5l3.4-3.6c0-0.1,0.1-0.1,0.2,0c1.6,0.5,20.8,6.9,27.2,19.5c0,0.1,0.2,0.1,0.3,0.1
			c1.8-1.4,18.1-13,39.7-6.7c0.1,0,0.1,0.1,0.1,0.1l4.9,9.6c0.1,0.1,0,0.2-0.1,0.3l-47,8.2c-0.1,0-0.1,0-0.2,0l-28.5-27.2
			C119.5,178.7,119.5,178.6,119.6,178.5L119.6,178.5z"/>
		<path class="st4" d="M190.5,187.9c-0.1,1.9-0.2,3.7-0.3,5.6"/>
		<path class="st4" d="M147.2,196.9c0.9-1,2.3-1.5,3.7-1.4c1.4,0.1,2.6,0.9,3.4,2.1"/>
		<path class="st4" d="M152.4,195.6c9-5.3,19.7-7.7,30.1-6.9"/>
		<path class="st4" d="M169.8,192.7c4.7-0.5,9.3-1,14-1.5"/>
		<path class="st4" d="M191.1,191.1c0.6,0.9,1.1,1.9,1.7,2.8"/>
		<path class="st4" d="M128.6,178.2c5.5,2.4,10.6,5.8,14.7,10.2"/>
		<path class="st4" d="M123.7,178.5c3.8,1.8,7.5,4.1,10.8,6.7"/>
		<path class="st5" d="M146.1,197.2l-30.2-22c-0.2-0.1-0.4,0.1-0.3,0.2l12.7,24.7c0.3,0.5,0.6,0.9,1.1,1.3l27.8,19.7
			c0,0,0,0,0.1,0.1c2.3,4.2,6.8,3.9,9.4,1.4c0,0,0.1,0,0.1,0l39-5c0.6-0.1,1-0.8,0.7-1.3l-11-23c-0.2-0.5-0.8-0.8-1.4-0.7l-39,5.7
			c0,0-0.1,0-0.1,0.1C153.3,200.5,148.4,201.2,146.1,197.2C146.1,197.2,146.1,197.2,146.1,197.2L146.1,197.2z"/>
		<path class="st4" d="M117.2,177.1c5.6,4.2,10.6,8.1,15.2,11.6"/>
		<path class="st4" d="M156.8,220.2l-11.2-22.4"/>
		<path class="st4" d="M155.5,199.1l11,22.8"/>
		<path class="st4" d="M172.5,206.1c4.8-0.9,9.6-1.7,14.4-2.6"/>
		<path class="st4" d="M173.7,208.5c4.8-0.7,9.6-1.4,14.4-2"/>
		<path class="st4" d="M181.4,219.1c2.7-0.4,5.4-0.8,8.2-1.2"/>
		<path class="st4" d="M159.1,198.8c9.8-1.5,19.5-3.1,29.3-4.6"/>
		<path class="st6" d="M75.4,237.9H4c-0.1,0-0.3,0.1-0.3,0.3v9.5c0,0.1,0.1,0.3,0.3,0.3h71.4c0.1,0,0.3-0.1,0.3-0.3v-9.5
			C75.7,238,75.6,237.9,75.4,237.9z"/>
		<path class="st5" d="M106.9,221l-70.8,0c0,0-0.1,0-0.1,0L3.9,237.8c0,0,0,0.1,0,0.1l71.7,0c0,0,0.1,0,0.1,0l31.3-16.4
			C107.3,221.4,107.2,221,106.9,221z"/>
		<path class="st3" d="M75.7,238.1v9.4c0,0.2,0.2,0.3,0.4,0.2l31.8-16.6c0.1,0,0.1-0.1,0.1-0.2v-9.4c0-0.2-0.2-0.3-0.4-0.2
			l-31.8,16.6C75.8,237.9,75.7,238,75.7,238.1z"/>
		<path class="st7" d="M72.6,227.9H11.4c-0.1,0-0.3,0.1-0.3,0.3v8.1c0,0.1,0.1,0.3,0.3,0.3h61.2c0.1,0,0.3-0.1,0.3-0.3v-8.1
			C72.9,228,72.8,227.9,72.6,227.9z"/>
		<path class="st8" d="M99.5,213.4l-60.5,0c0,0-0.1,0-0.1,0l-27.5,14.4c0,0,0,0.1,0,0.1l61.4,0c0,0,0.1,0,0.1,0l26.7-14
			C99.9,213.8,99.8,213.4,99.5,213.4L99.5,213.4z"/>
		<path class="st3" d="M72.9,228.1v8c0,0.2,0.2,0.3,0.4,0.2l27.2-14.2c0.1,0,0.1-0.1,0.1-0.2v-8c0-0.2-0.2-0.3-0.4-0.2L73,227.9
			C72.9,227.9,72.9,228,72.9,228.1L72.9,228.1z"/>
		<path class="st6" d="M71.5,206.8H20.2c-0.1,0-0.3,0.1-0.3,0.3v17.6c0,0.1,0.1,0.3,0.3,0.3h51.3c0.1,0,0.3-0.1,0.3-0.3v-17.6
			C71.8,207,71.6,206.8,71.5,206.8z"/>
		<path class="st5" d="M93.8,194.7l-50.5,0c-0.1,0-0.1,0-0.1,0l-23.1,12.1c0,0,0,0.1,0,0.1l51.6,0c0.1,0,0.1,0,0.1,0l22.1-11.6
			C94.2,195.1,94.1,194.7,93.8,194.7L93.8,194.7z"/>
		<path class="st3" d="M71.8,207l0,17.5c0,0.2,0.2,0.3,0.4,0.2l22.8-11.9c0.1,0,0.1-0.1,0.1-0.2l0-17.5c0-0.2-0.2-0.3-0.4-0.2
			l-22.8,11.9C71.8,206.8,71.8,206.9,71.8,207z"/>
		<path class="st4" d="M83,207.8l12-5.9"/>
		<path class="st4" d="M78.5,215l14.1-6.8"/>
		<path class="st4" d="M8.2,243.2l62.4,0.1"/>
		<path class="st9" d="M17.6,236.2l-0.3-8.1c0-0.2,0.1-0.3,0.3-0.3l14.5,0c0.1,0,0.3,0.1,0.3,0.3l0.4,8c0,0.2-0.1,0.3-0.3,0.3
			l-14.6,0C17.7,236.5,17.6,236.4,17.6,236.2L17.6,236.2z"/>
		<path d="M26.5,231.9l-0.8,0.4c-0.1,0.1-0.2,0.2-0.1,0.3l0.2,0.9c0,0.3-0.3,0.4-0.5,0.2l-0.7-0.6c-0.1-0.1-0.2-0.1-0.3,0l-0.8,0.4
			c-0.2,0.1-0.5-0.1-0.4-0.4l0.4-0.8c0-0.1,0-0.2-0.1-0.3l-0.7-0.6c-0.2-0.2,0-0.5,0.2-0.5l0.9,0.1c0.1,0,0.2,0,0.3-0.1l0.4-0.8
			c0.1-0.2,0.5-0.2,0.5,0.1l0.2,0.9c0,0.1,0.1,0.2,0.2,0.2l0.9,0.1C26.7,231.4,26.8,231.8,26.5,231.9z"/>
		<path class="st4" d="M86,237.1l22-11.9"/>
		<path class="st4" d="M93.4,235.8L108,228"/>
		<path class="st4" d="M80.7,227.4l19.9-9.8"/>
		<path class="st8" d="M46.3,196.9l-11.1,6.2c-0.2,0.1-0.1,0.5,0.1,0.5l8.3,0.1c0,0,0.1,0,0.1,0l10.1-6.2c0.2-0.1,0.1-0.5-0.1-0.5
			l-7.3-0.2C46.3,196.8,46.3,196.8,46.3,196.9L46.3,196.9z"/>
		<path class="st10" d="M154.7,202.5c0.2,0.3,0.3,0.6,0.5,0.9c0.1,0.3,0.3,0.5,0.4,0.8"/>
		<path class="st10" d="M154.7,202.5c-0.1,0-0.1,0-0.2,0c-0.1,0-0.2,0-0.4-0.1c-0.2,0-0.4,0-0.5,0c-0.2,0-0.3,0.1-0.5,0.1
			c-0.1,0-0.2,0-0.2,0.1c0,0,0,0.1,0,0.1c0,0.1,0.1,0.1,0.1,0.2c0.2,0.4,0.3,0.8,0.5,1.2"/>
		<path class="st10" d="M155.6,204.3c0.1,0.1,0.1,0.3,0.2,0.4c0.1,0.1,0.1,0.2,0.2,0.3c0,0,0.1,0.1,0.1,0.1"/>
		<path class="st10" d="M155.5,204.3c0,0-0.1,0-0.1,0c-0.1,0-0.2,0-0.3,0c-0.2,0-0.4,0-0.6,0c-0.2,0-0.4,0-0.6,0.1
			c-0.1,0-0.2,0.1-0.4,0.1c0,0-0.1,0-0.1,0c0,0,0,0.1,0.1,0.1c0.1,0.2,0.2,0.3,0.2,0.5c0.1,0.1,0.1,0.2,0.2,0.3c0,0.1,0,0.1,0.1,0.2
			c0,0.1,0.1,0.1,0.1,0.1c0,0,0,0.1,0.1,0.1"/>
		<path class="st10" d="M155,204.9c0,0.1,0.1,0.1,0.1,0.1c0.1,0.1,0.1,0.2,0.2,0.3c0.1,0.1,0.1,0.2,0.2,0.4c0,0.1,0.1,0.2,0.1,0.2"
			/>
		<path class="st10" d="M157,206.1c-0.2,0-0.3,0-0.5,0c-0.4,0-0.7,0.1-1,0.2c-0.4,0.1-0.8,0.3-1.2,0.5"/>
		<path class="st10" d="M152.6,205c0,0.1,0.1,0.2,0.1,0.3c0.1,0.2,0.2,0.4,0.3,0.7c0.1,0.2,0.2,0.4,0.3,0.6c0,0,0.1,0.2,0.1,0.2
			c0,0.1-0.1,0.1-0.2,0.1c-0.1,0.1-0.2,0.2-0.3,0.3c-0.2,0.2-0.4,0.4-0.5,0.6"/>
		<path class="st10" d="M157.6,206.9c-0.1,0-0.1,0-0.2,0c-0.1,0-0.1,0-0.2,0c-0.1,0-0.1,0-0.2,0c-0.3,0-0.6,0.1-0.9,0.2"/>
		<path class="st10" d="M158,208c-0.5,0.1-0.9,0.3-1.4,0.5"/>
		<path class="st10" d="M156.6,207.1c0,0.1,0.1,0.2,0.2,0.3c0,0.1,0.1,0.1,0.1,0.2c0,0.1,0.1,0.1,0.1,0.2c0.1,0.1,0.2,0.3,0.2,0.4"
			/>
		<path class="st10" d="M156.2,207.2c-0.1,0,0.2,0.7,0.2,0.8c0.1,0.1,0.1,0.3,0.2,0.4c0.1,0.1,0.1,0.1,0.1,0.2"/>
		<path class="st10" d="M156.3,208c-0.1,0-0.3,0.1-0.4,0.1c-0.1,0-0.2,0.1-0.3,0.1c-0.1,0-0.1,0-0.2,0.1"/>
		<path class="st10" d="M155,207.3c0,0.1,0.1,0.1,0.1,0.2c0.1,0.1,0.2,0.3,0.3,0.4c0.1,0.2,0.2,0.5,0.3,0.7c0.2,0.4,0.4,0.8,0.6,1.2
			"/>
		<path class="st10" d="M154.2,207.9c0.1,0.1,0.1,0.3,0.2,0.4c0,0.1,0.1,0.1,0.1,0.2c0,0,0.1,0.1,0.1,0.2c0,0-0.1,0-0.2,0.1
			c-0.1,0-0.1,0.1-0.1,0.1c-0.1,0-0.2,0.1-0.3,0.1c-0.1,0-0.2,0.1-0.3,0.2c-0.1,0-0.1,0.1-0.2,0.1"/>
		<path class="st10" d="M154.6,208.7c0.1,0.1,0.1,0.2,0.2,0.4c0,0.1,0.1,0.1,0.1,0.2c0,0.1,0,0.1-0.1,0.1c-0.2,0.1-0.3,0.2-0.5,0.3
			c-0.1,0.1-0.2,0.1-0.3,0.2c-0.1,0-0.1,0.1-0.2,0.1c0,0-0.1,0.1-0.1,0.1"/>
		<path class="st10" d="M157.2,210.5c0-0.1,0-0.1-0.1-0.2c0-0.1-0.1-0.1-0.1-0.1c0,0-0.1-0.1-0.1-0.1c-0.1,0-0.2-0.1-0.3-0.1
			c0,0-0.1,0-0.1,0c-0.1,0-0.1,0-0.2,0.1c-0.1,0-0.2,0.1-0.2,0.1c-0.1,0-0.1,0.2-0.1,0.3c0,0.2,0.1,0.3,0.2,0.4
			c0.1,0.1,0.1,0.1,0.2,0.1c0.1,0,0.1,0,0.2,0c0.1,0,0.2,0,0.4-0.1c0.1,0,0.3-0.1,0.3-0.2C157.3,210.7,157.2,210.6,157.2,210.5
			L157.2,210.5z"/>
		<path class="st10" d="M157.9,211c-0.8,0.3-1.5,0.7-2.2,1.1"/>
		<path class="st10" d="M158.3,212.1c0-0.1-0.1-0.2-0.1-0.2c-0.1,0-0.2,0-0.2,0c-0.1,0-0.1,0-0.2,0.1c-0.1,0-0.1,0-0.1,0.1
			c0,0.1,0,0.1,0,0.2c0,0.1,0,0.2,0.1,0.2c0,0.1,0.1,0.1,0.1,0.2c0.1,0.1,0.3,0.1,0.4,0.2c0.1,0,0.2,0,0.3-0.1
			c0.1-0.1,0.1-0.2,0-0.3C158.4,212.3,158.4,212.2,158.3,212.1"/>
		<path class="st10" d="M156.6,212.4c0.1,0.1,0.1,0.3,0.2,0.4c0.1,0.3,0.2,0.6,0.4,0.8c0.1,0.3,0.2,0.5,0.4,0.8"/>
		<path class="st10" d="M160.2,213.6c-0.1,0-0.1,0-0.2,0.1c-0.1,0.1-0.3,0.2-0.4,0.2c-0.2,0.1-0.4,0.2-0.6,0.4
			c-0.2,0.1-0.4,0.3-0.6,0.4c-0.2,0.1-0.4,0.2-0.6,0.3c-0.2,0.1-0.4,0.2-0.6,0.3c-0.2,0.1-0.4,0.1-0.5,0.2"/>
		<path class="st10" d="M161.2,215.2c0.1,0.2,0.2,0.5,0.3,0.7c0.1,0.2,0.1,0.3,0.2,0.5c0,0.1,0.1,0.1,0.1,0.2c0,0,0,0.1,0,0.1
			c0,0,0,0-0.1,0c0,0-0.1,0-0.1-0.1c-0.2-0.1-0.4-0.1-0.6-0.1c-0.3,0-0.5-0.1-0.8-0.1c-0.1,0-0.2,0-0.3-0.1c-0.1,0-0.1,0-0.2,0"/>
		<path class="st10" d="M160.9,216.4c0,0-0.1,0.1-0.1,0.1c-0.1,0.2-0.2,0.4-0.2,0.6c-0.1,0.2-0.2,0.4-0.2,0.6c0,0.1-0.1,0.3-0.2,0.3
			"/>
		<path class="st10" d="M161.3,217.5C161.3,217.5,161.4,217.5,161.3,217.5c0,0,0.1,0.1,0.1,0.1c0.1,0.1,0.1,0.3,0.2,0.4
			c0.1,0.1,0.1,0.2,0.2,0.3c0,0,0.1,0.1,0.1,0.2"/>
		<path class="st10" d="M162.6,217.9C162.6,217.9,162.6,217.9,162.6,217.9c-0.1,0.1-0.1,0.1-0.1,0.1c0,0.1-0.1,0.1-0.2,0.2
			c0,0-0.1,0.1-0.1,0.1c-0.3,0.2-0.6,0.5-0.9,0.7c-0.1,0.1-0.2,0.2-0.3,0.2c-0.1,0-0.1,0.1-0.2,0.1c-0.1,0-0.1,0.1-0.2,0.1
			c-0.1,0-0.1,0.1-0.2,0.1"/>
		<path class="st10" d="M159.8,219c-0.1-0.1-0.1-0.3-0.3-0.4c-0.1-0.1-0.2-0.1-0.3-0.1s-0.2,0-0.3,0c-0.1,0-0.2,0-0.3,0.1
			c-0.1,0-0.1,0.1-0.1,0.2c-0.1,0.1,0,0.3,0.1,0.5c0,0,0,0.1,0.1,0.1c0,0,0.1,0.1,0.1,0.1c0,0,0.1,0.1,0.1,0.1c0,0,0,0,0.1,0
			c0,0,0.1,0,0.1,0c0,0,0.1,0,0.2,0c0.1,0,0.1,0,0.2,0c0.1,0,0.2,0,0.2-0.1c0,0,0-0.1,0-0.1C159.8,219.2,159.8,219.1,159.8,219
			L159.8,219z"/>
		<path class="st10" d="M163,219.1c-0.1,0.1-0.1,0.1-0.2,0.2c-0.1,0.1-0.2,0.1-0.2,0.2c-0.1,0.1-0.2,0.1-0.3,0.1
			c-0.1,0.1-0.3,0.1-0.5,0.2c-0.1,0-0.1,0.1-0.1,0.1c0,0-0.1,0.1-0.2,0"/>
		<path class="st10" d="M162.2,219.6c0,0.1,0,0.2,0,0.3c0,0.2-0.1,0.4-0.1,0.6c-0.1,0.1-0.1,0.3-0.1,0.4c0,0.1-0.1,0.2-0.1,0.3"/>
		<path class="st10" d="M162.4,220.2C162.4,220.2,162.4,220.2,162.4,220.2c0.1,0.1,0.1,0.1,0.1,0.2c0.1,0.1,0.1,0.2,0.1,0.3
			c0.1,0.1,0.1,0.2,0.2,0.2c0,0.1,0.1,0.1,0.1,0.1"/>
		<path class="st10" d="M163.5,220.2c-0.2,0.4-0.4,0.7-0.6,1c-0.3,0.4-0.6,0.7-1,0.9"/>
		<path class="st10" d="M160.7,221.1c0.1,0,0.1,0.1,0.1,0.2c0.1,0.1,0.2,0.2,0.2,0.4c0,0.1,0.1,0.2,0.2,0.2c0,0,0.1,0.1,0.1,0.1
			c-0.1,0-0.1,0-0.2,0.1c-0.1,0-0.2,0-0.4,0c-0.1,0-0.3,0-0.4,0c-0.1,0-0.1,0-0.2,0"/>
		<path class="st11" d="M75.1,248.4l33.4-17.9"/>
		<path class="st12" d="M163.1,116.1c7.7-1.7,12.5-10.1,10.5-18.7c-1.9-8.6-9.7-14.2-17.5-12.5c-7.7,1.7-12.5,10.1-10.5,18.7
			C147.5,112.2,155.4,117.8,163.1,116.1z"/>
		<path class="st12" d="M208.7,117.1c9-3.1,13.5-13.4,10.2-23.1c-3.3-9.7-13.2-15.1-22.2-12c-9,3.1-13.5,13.4-10.2,23.1
			C189.8,114.8,199.7,120.2,208.7,117.1z"/>
		<path class="st13" d="M173,102.1c1.2-2.7,3.8-4.3,6.3-4.2c2.5,0,5,1.4,6.9,3.4"/>
		<path class="st13" d="M217.8,96.2c4.8-4.5,10-8.5,15.6-11.9c2-1.2,4.4-2.4,6.7-1.6c2.7,0.9,3.7,4,4.4,6.8"/>
		<path class="st14" d="M166.8,100c-3.6,3.3-7.3,6.6-10.9,9.9c-0.9,0.8,0.4,2.2,1.3,1.3c3.6-3.3,7.3-6.6,10.9-9.9
			C169.1,100.6,167.7,99.2,166.8,100z"/>
		<path class="st14" d="M168.8,104.9c-2.1,2.2-4.2,4.4-6.2,6.6c-0.8,0.9,0.5,2.2,1.3,1.3c2.1-2.2,4.2-4.4,6.2-6.6
			C171,105.3,169.7,104,168.8,104.9z"/>
		<path class="st14" d="M207.8,86.5c-3.6,3.3-7.3,6.6-10.9,9.9c-0.9,0.8,0.4,2.2,1.3,1.3c3.6-3.3,7.3-6.6,10.9-9.9
			C210,87.1,208.7,85.7,207.8,86.5z"/>
		<path class="st14" d="M209.7,91.4c-2.1,2.2-4.2,4.4-6.2,6.6c-0.8,0.9,0.5,2.2,1.3,1.3c2.1-2.2,4.2-4.4,6.2-6.6
			C211.9,91.8,210.6,90.5,209.7,91.4z"/>
		<path class="st8" d="M135.9,72.3c4.1-2,7.1-6,8-10.8c0.8,4.8,3.8,8.9,8,10.8c0.8,0.4,2.8,1,2.8,1s-2,0.6-2.8,1
			c-4.1,2-7.1,6-8,10.8c-0.8-4.8-3.8-8.9-8-10.8c-0.8-0.4-2.8-1-2.8-1S135.1,72.7,135.9,72.3z"/>
		<path class="st8" d="M116,60.5c4.1-2,7.1-6,8-10.8c0.8,4.8,3.8,8.9,8,10.8c0.8,0.4,2.8,1,2.8,1s-2,0.6-2.8,1c-4.1,2-7.1,6-8,10.8
			c-0.8-4.8-3.8-8.9-8-10.8c-0.8-0.4-2.8-1-2.8-1S115.2,60.9,116,60.5z"/>
		<path class="st1" d="M137,208.5c3.2,0.4,6.3,0.9,9.5,1.3"/>
		<path class="st1" d="M137.2,206.8c1.1-2.5,2.2-5.1,3.3-7.6"/>
		<path class="st1" d="M136.5,208.2c-1.5-3.1-2.7-6.3-3.4-9.7"/>
		<path class="st1" d="M219.7,127.7c-2.8,13-9.6,48-8.8,60.5"/>
		<path class="st1" d="M210.8,188.2c0,2,0.7,4.2,1.1,6.3c0.9,3.6,2.7,7.7,6.4,8.3c3.8,0.7,7-2.9,9.2-6.1
			c10.1-14.9,18.3-31.1,24.4-48.1"/>
		<path class="st13" d="M224.6,117.7c0.1-4.5-1-8.9-3.2-12.9c-0.2-0.4-0.5-0.8-0.8-1.1c-0.4-0.3-0.9-0.5-1.3-0.3
			c-0.7,0.2-1,1.1-1.1,1.9c-0.4,3.5,0.2,6.9,1,10.4"/>
		<path class="st13" d="M219.3,115.6c-1.6,0.3-3.1,1.3-4,2.7c-0.7,1.2-1,2.5-1,3.9c0,1.3,0.4,2.7,1.3,3.6c1.2,1.2,3,1.4,4.7,1.2
			c0.8-0.1,1.6-0.3,2.2-0.9c0.5-0.5,0.8-1.2,1-1.8c0.7-2.2,1.1-4.5,1-6.9"/>
		<path class="st10" d="M24.9,212.1c0.7,0,1.3,0,2,0c0.6,0,1.2,0,1.8,0"/>
		<path class="st10" d="M25,212.1c0,0.1,0,0.2,0,0.3c0,0.2,0,0.5-0.1,0.7c0,0.4,0,0.7,0,1.1s0,0.7,0,1.1c0,0.1-0.1,0.5,0.1,0.6
			c0,0,0.1,0,0.2,0c0.1,0,0.3,0,0.4,0c0.9,0,1.7,0.2,2.5,0.2"/>
		<path class="st10" d="M29,212.2c0.3,0,0.6,0,0.9,0c0.2,0,0.4,0,0.6-0.1c0.1,0,0.2,0,0.3,0"/>
		<path class="st10" d="M28.9,212.4c-0.1,0.1-0.1,0.2,0,0.2c0,0.2,0,0.3,0,0.5c-0.1,0.4,0,0.8-0.1,1.1c-0.1,0.4-0.2,0.8-0.2,1.2
			c0,0.3,0,0.6-0.1,0.8c0,0.1-0.1,0.1,0,0.1c0,0,0.2,0,0.3,0c0.3,0,0.7,0,1,0c0.2,0,0.5-0.1,0.7-0.1c0.1,0,0.2,0,0.3,0
			c0.1,0,0.2,0,0.3-0.1c0.1,0,0.2,0,0.2,0"/>
		<path class="st10" d="M30.3,214c0.1,0,0.2,0,0.3,0c0.2,0,0.5,0,0.7,0c0.3,0,0.5,0,0.8-0.1c0.1,0,0.4,0.1,0.5,0"/>
		<path class="st10" d="M33.2,211.4c0,0.3,0,0.6-0.1,0.9c-0.1,0.7-0.1,1.3-0.1,2v2.8"/>
		<path class="st10" d="M28.4,218.6c0.2,0,0.4,0,0.6,0c0.5,0,1,0,1.4,0c0.4,0,0.8,0,1.2,0c0.1,0,0.4-0.1,0.5,0c0.1,0.1,0,0.3,0,0.4
			c-0.1,0.3,0,0.6,0,0.8c0,0.5,0,1,0,1.6"/>
		<path class="st10" d="M35.1,211c0,0.1,0,0.3,0,0.4c0,0.1,0,0.3,0,0.4c0,0.1,0,0.2-0.1,0.4c0,0.6,0,1.2,0,1.8"/>
		<path class="st10" d="M37.6,211.3c0,1,0.2,1.9,0.2,2.9"/>
		<path class="st10" d="M35.2,213c0.2,0,0.4,0,0.6,0c0.1,0,0.3,0,0.4,0c0.2,0,0.3,0,0.5,0c0.3,0,0.7,0,1,0"/>
		<path class="st10" d="M35.2,213.9c-0.1,0.3,1.4,0.2,1.6,0.2c0.3,0,0.6,0,0.8,0c0.2,0,0.3,0,0.5,0"/>
		<path class="st10" d="M36.7,214.3c0,0.3,0,0.5,0,0.8c0,0.2,0,0.4,0,0.6c0,0.1-0.1,0.3-0.1,0.4"/>
		<path class="st10" d="M34.6,216.2c0.1,0,0.2,0,0.4,0c0.3,0,0.6-0.1,0.9-0.1c0.5,0,1,0,1.4,0c0.8,0,1.7-0.1,2.5-0.1"/>
		<path class="st10" d="M34.8,218.1c0.3,0,0.6,0,0.9,0c0.1,0,0.3,0,0.4,0c0.1,0,0.2,0,0.3,0c0,0.1,0,0.2-0.1,0.3c0,0.1,0,0.2,0,0.3
			c0,0.2-0.1,0.4-0.2,0.6c-0.1,0.2-0.1,0.5-0.1,0.7c0,0.1-0.1,0.3-0.1,0.5"/>
		<path class="st10" d="M36.5,218h0.8c0.1,0,0.3,0,0.4,0c0.1,0,0.1,0.1,0.1,0.2c0,0.4-0.1,0.8-0.1,1.2c0,0.2,0,0.4-0.1,0.6
			c0,0.1,0,0.3,0,0.4c0,0.1,0,0.2,0,0.2"/>
		<path class="st10" d="M41.8,214.9c-0.1,0-0.2,0-0.3,0c-0.1,0-0.2,0-0.3,0.1c-0.1,0-0.2,0-0.3,0.1c-0.1,0.1-0.3,0.3-0.3,0.5
			c0,0.1,0,0.2,0,0.3c0,0.2-0.1,0.3-0.1,0.4c0,0.2,0,0.4,0,0.5c0,0.2,0.2,0.3,0.3,0.4c0.3,0.2,0.7,0.1,1,0c0.2-0.1,0.3-0.2,0.5-0.3
			c0.1-0.1,0.2-0.2,0.2-0.3c0.1-0.2,0.1-0.5,0.1-0.7c0-0.2,0.1-0.5-0.1-0.7C42.3,214.9,42.1,214.9,41.8,214.9L41.8,214.9z"/>
		<path class="st10" d="M43.4,214.1c0,1.6,0,3.3,0,4.9"/>
		<path class="st10" d="M45.6,214.2c-0.2,0-0.3,0-0.5,0.1c-0.1,0.1-0.1,0.3-0.2,0.4c0,0.1-0.1,0.2-0.1,0.4c0,0.1,0,0.2,0.1,0.3
			c0.1,0.1,0.2,0.2,0.3,0.2c0.1,0.1,0.3,0.1,0.5,0.1c0.1,0,0.3,0,0.4,0c0.3-0.1,0.4-0.4,0.6-0.6c0.1-0.1,0.2-0.4,0.1-0.5
			c-0.1-0.2-0.3-0.3-0.6-0.4C46.1,214.2,45.9,214.2,45.6,214.2"/>
		<path class="st10" d="M44.7,217.5c0.3,0,0.5,0,0.8,0c0.6,0,1.2,0,1.8,0c0.6,0,1.1,0,1.7,0"/>
		<path class="st10" d="M49.9,212.1c0,0.1-0.1,0.3-0.1,0.4c0,0.3,0,0.7,0,1c0,0.5,0,1,0,1.5c0,0.5,0.1,1,0.1,1.4
			c0,0.5,0.1,1,0.1,1.4c0,0.5,0,0.9,0,1.4c0,0.4,0,0.7,0,1.1"/>
		<path class="st10" d="M54.1,211.6h2.7c0.2,0,0.3,0,0.5,0c0.1,0,0.2,0,0.2,0c0,0-0.1,0.1-0.2,0.1c-0.1,0.1-0.2,0.1-0.3,0.2
			c-0.4,0.2-0.7,0.6-1.1,1c-0.4,0.4-0.8,0.9-1.1,1.4c-0.1,0.2-0.3,0.4-0.4,0.5c-0.1,0.1-0.2,0.2-0.2,0.3"/>
		<path class="st10" d="M55.6,213.1c0,0.1,0.1,0.2,0.1,0.3c0.1,0.3,0.4,0.6,0.6,0.9c0.2,0.3,0.5,0.6,0.7,0.9
			c0.1,0.1,0.4,0.4,0.3,0.6"/>
		<path class="st10" d="M57.8,213.3L57.8,213.3c0.1-0.1,0.2,0,0.3-0.1c0.3,0,0.6,0,0.9-0.1c0.2,0,0.5,0,0.7-0.1c0.1,0,0.3,0,0.4-0.1
			"/>
		<path class="st10" d="M60.5,211.2c0,0,0,0.1,0,0.1c0,0.1,0,0.1,0,0.2c0,0.2-0.1,0.3-0.1,0.4c0,0.1,0,0.3-0.1,0.4
			c-0.2,0.8-0.2,1.6-0.2,2.4c0,0.3,0,0.6,0,0.9c0,0.1,0,0.3,0.1,0.4c0,0.1,0,0.3,0,0.4c0,0.1,0.1,0.2,0,0.4"/>
		<path class="st10" d="M58.8,217.4c-0.3,0-0.6,0-0.9,0.1c-0.2,0.1-0.3,0.2-0.3,0.4c-0.1,0.2-0.1,0.3-0.1,0.5c0,0.2,0,0.4,0.1,0.6
			c0.1,0.2,0.2,0.3,0.3,0.4c0.3,0.3,0.7,0.2,1,0.2c0.1,0,0.1,0,0.2,0c0.1,0,0.1-0.1,0.2-0.2c0.1-0.1,0.2-0.1,0.2-0.2
			c0,0,0-0.1,0-0.1c0-0.1,0.1-0.1,0.1-0.2c0-0.1,0-0.2,0-0.3c0-0.1,0-0.3,0-0.4c0-0.2,0-0.4-0.1-0.6c-0.1-0.1-0.2-0.1-0.3-0.1
			C59.1,217.7,59,217.6,58.8,217.4L58.8,217.4z"/>
		<path class="st10" d="M62.8,211.5c0,0.2-0.1,0.4-0.2,0.6c-0.1,0.2-0.1,0.4-0.2,0.6c-0.1,0.2-0.2,0.4-0.3,0.7
			c-0.1,0.4-0.3,0.7-0.3,1.1c0,0.1,0,0.2-0.1,0.3c0,0.1,0,0.4-0.1,0.4"/>
		<path class="st10" d="M62.1,213.4c0.1,0,0.3,0.2,0.3,0.3c0.2,0.2,0.5,0.5,0.7,0.8c0.1,0.2,0.3,0.4,0.4,0.6
			c0.1,0.2,0.2,0.3,0.3,0.4"/>
		<path class="st10" d="M63.4,213.5L63.4,213.5c0.1-0.1,0.3-0.1,0.4-0.1c0.2,0,0.4,0,0.6-0.1c0.2,0,0.4,0,0.6-0.1
			c0.2,0,0.3-0.1,0.4-0.2"/>
		<path class="st10" d="M65.6,211.4c0,0.7,0,1.5,0,2.2c0,0.9,0.2,1.9,0.2,2.8"/>
		<path class="st10" d="M63.2,217.6c0.1-0.1,0.3-0.1,0.4-0.1c0.3-0.1,0.5-0.1,0.8-0.1c0.2,0,0.4-0.1,0.5-0.1c0.1,0,0.2-0.1,0.3,0
			c0,0.1,0,0.3,0,0.5c0,0.3,0,0.5,0,0.8c0,0.3-0.1,0.5-0.1,0.8c0,0.1,0,0.3,0,0.4"/>
		<path class="st13" d="M171.3,126c1.4-0.9,2.7-1.8,4.3-2.3c1.6-0.5,3.4-0.5,4.7,0.4c0.9,0.5,1.5,1.4,2.4,1.9c1.7,0.9,3.8,0.5,5.6,0
			"/>
	</g>
</g>
</svg>
