<?xml version="1.0" encoding="utf-8"?>
<!-- Generator: Adobe Illustrator 28.2.0, SVG Export Plug-In . SVG Version: 6.00 Build 0)  -->
<svg version="1.1" id="레이어_1" xmlns="http://www.w3.org/2000/svg" xmlns:xlink="http://www.w3.org/1999/xlink" x="0px"
	 y="0px" viewBox="0 0 284 248" style="enable-background:new 0 0 284 248;" xml:space="preserve">
<style type="text/css">
	.st0{clip-path:url(#SVGID_00000163773487284053954440000014836337629314759092_);}
	.st1{fill:none;stroke:#373433;stroke-width:3;stroke-linecap:round;stroke-miterlimit:10;}
	.st2{fill:#F5BF00;stroke:#D8BF79;stroke-linecap:round;stroke-miterlimit:10;}
	.st3{fill:#D1A002;}
	.st4{fill:none;stroke:#D8BF79;stroke-linecap:round;stroke-miterlimit:10;}
	.st5{fill:#373433;}
	.st6{fill:#F5BF00;}
	.st7{fill:none;stroke:#373433;stroke-width:2;stroke-linecap:round;stroke-miterlimit:10;}
</style>
<g>
	<defs>
		<rect id="SVGID_1_" width="284" height="248"/>
	</defs>
	<clipPath id="SVGID_00000146496144748999305350000000227724099515237012_">
		<use xlink:href="#SVGID_1_"  style="overflow:visible;"/>
	</clipPath>
	<g style="clip-path:url(#SVGID_00000146496144748999305350000000227724099515237012_);">
		<path class="st1" d="M209.7,215.1c-3.5,18.9-0.5,38.9,8.2,56.1"/>
		<path class="st1" d="M165.3,213.8c-9.7,16.6-13.8,36.4-11.4,55.5"/>
		<path class="st2" d="M307.5,174.5c-2.7,3-5.9,4.8-9.4,4.8c-9.9,0-17.8-14.3-17.8-31.8c0-8.7,1.9-16.5,5.1-22.2l-17.3-38.5
			c-0.7,0.1-1.4,0.2-2.1,0.2c-7.1,0-12.9-5.8-12.9-12.9c0-4.1,1.9-7.7,4.8-10.1L250.7,48c-1.9-4.3-6.6-6.6-11.2-5.6L172.3,57
			c-3.3,0.7-6.1,3.1-7.2,6.3l-5.5,15.3c2.4,3.8,3.9,8.4,3.9,13.5c0,11.4-7.3,20.8-16.9,22.5l-20.4,56.3c0.4,0,0.8,0,1.2,0
			c7.9,0,14.3,3,14.3,6.6s-6.4,6.6-14.3,6.6c-2.1,0-4.1-0.2-5.8-0.6l-3.4,9.3c-2.4,6.7,1.1,14.2,7.9,16.5l90.1,30.2
			c2.5,0.8,5.2,0.7,7.6-0.5l83.6-41.5c4.8-2.4,6.8-8.1,4.6-13L307.5,174.5L307.5,174.5z"/>
		<path class="st3" d="M195,70.2c3.7,0,6.7-2.5,6.7-5.5s-3-5.5-6.7-5.5c-3.7,0-6.7,2.5-6.7,5.5S191.3,70.2,195,70.2z"/>
		<path class="st3" d="M253.4,119.6c7.3,0,13.2-4.9,13.2-10.9c0-6-5.9-10.9-13.2-10.9c-7.3,0-13.2,4.9-13.2,10.9
			C240.1,114.7,246.1,119.6,253.4,119.6z"/>
		<path class="st3" d="M139.4,139.9c-0.5-0.1-1.1-0.2-1.6-0.2c-0.2,2-1.1,4-1.8,5.9c-0.9,2.2-1.8,4.3-2.7,6.5
			c-0.9,2.1-1.8,4.2-2.5,6.4c-0.6,1.6-1,3.3-1.6,4.8c1.2,1.2,2.7,2,4.4,2.4c5.9,1.3,12-3.4,13.6-10.5
			C148.7,148.1,145.3,141.2,139.4,139.9L139.4,139.9z"/>
		<path class="st3" d="M231.4,213.2c1.9-8.1-4.6-16.5-14.3-18.8c-9.8-2.2-19.2,2.6-21,10.7c-1.9,8.1,4.6,16.5,14.3,18.8
			C220.1,226.1,229.5,221.3,231.4,213.2z"/>
		<path class="st3" d="M208.2,122.7c1.9-8.1-4.6-16.5-14.3-18.8c-9.8-2.2-19.2,2.6-21,10.7c-1.9,8.1,4.6,16.5,14.3,18.8
			C196.9,135.7,206.3,130.9,208.2,122.7z"/>
		<path class="st3" d="M298.3,179.4c-0.8,0-1.6-0.1-2.5-0.3c-1.7-0.3-3.4-0.9-4.8-1.9c-0.8-0.6-1.5-1.3-2.2-2.1
			c-0.2-0.3-0.5-0.6-0.7-0.9c-0.2-0.2-0.2-0.3-0.1-0.1c0.2,0.2,0.1,0.1-0.3-0.4c-0.1-0.2-0.3-0.4-0.4-0.6c0,0-0.1-0.2-0.2-0.3
			c-0.1-0.1-0.2-0.3-0.3-0.3c-0.2-0.2-0.3-0.3-0.5-0.5c-0.4-0.4-0.7-0.9-1-1.3c-0.2-0.3-0.4-0.7-0.6-1.1c-1.1,0.5-2.1,1.1-3.1,1.8
			c-5.9,4.5-7.6,12.1-3.8,17.2c3.8,5,11.7,5.5,17.6,1c3.5-2.6,5.5-6.3,5.8-10c-0.4,0.1-0.8,0.1-1.2,0.1
			C299.4,179.7,298.9,179.6,298.3,179.4L298.3,179.4z"/>
		<path class="st3" d="M244.2,158.1c3.5-2.6,4.8-6.7,3-9.2c-1.8-2.4-6.2-2.3-9.6,0.3c-3.5,2.6-4.8,6.7-3,9.2
			C236.4,160.8,240.7,160.7,244.2,158.1z"/>
		<path class="st3" d="M158.2,206.4c0.3-2.5-0.9-4.7-2.7-4.9c-1.8-0.2-3.4,1.7-3.7,4.2c-0.3,2.5,0.9,4.7,2.7,4.9
			C156.3,210.9,157.9,209,158.2,206.4z"/>
		<path class="st4" d="M217,239.6c5.9-0.3,10.6-6.1,8.8-12.4L179.7,63.7c-1.4-4.9-6.3-6.7-10.3-5.4"/>
		<path class="st4" d="M307.5,174.5c-2.7,3-5.9,4.8-9.4,4.8c-9.9,0-17.8-14.3-17.8-31.8c0-8.7,1.9-16.5,5.1-22.2l-17.3-38.5
			c-0.7,0.1-1.4,0.2-2.1,0.2c-7.1,0-12.9-5.8-12.9-12.9c0-4.1,1.9-7.7,4.8-10.1L250.7,48c-1.9-4.3-6.6-6.6-11.2-5.6L172.3,57
			c-3.3,0.7-6.1,3.1-7.2,6.3l-5.5,15.3c2.4,3.8,3.9,8.4,3.9,13.5c0,11.4-7.3,20.8-16.9,22.5l-20.4,56.3c0.4,0,0.8,0,1.2,0
			c7.9,0,14.3,3,14.3,6.6s-6.4,6.6-14.3,6.6c-2.1,0-4.1-0.2-5.8-0.6l-3.4,9.3c-2.4,6.7,1.1,14.2,7.9,16.5l90.1,30.2
			c2.5,0.8,5.2,0.7,7.6-0.5l83.6-41.5c4.8-2.4,6.8-8.1,4.6-13L307.5,174.5L307.5,174.5z"/>
		<path class="st5" d="M163.7,121.9c0,3.5,3.4,6.8,0.5,6.8c-2.9,0-5.3-2.8-5.3-6.3c0-3.5,2.4-6.3,5.3-6.3
			C167.1,116.1,163.7,118.4,163.7,121.9z"/>
		<path class="st5" d="M173.4,121.9c0,3.5,3.4,6.8,0.5,6.8c-2.9,0-5.3-2.8-5.3-6.3c0-3.5,2.4-6.3,5.3-6.3
			C176.8,116.1,173.4,118.4,173.4,121.9z"/>
		<path class="st6" d="M147.9,116.7c-6.3,4-11.6,9.2-17.9,13.2c-11.5,6.8-24.8,10.4-38,11.7c-8.6,0.7-17.3,0.9-26,0.3
			c-11.9-0.8-23.5-4.9-33-12.2c-3.6-2.6-7.2-5.4-10.9-8c-1.4-1-4.7-3.3-5.3-3.2c-1.2-0.1,2.6,4.2,3.6,5.5c6.5,8.3,13.5,16.8,23,21.7
			c14.7,7.3,34.7,7,50.5,3.8c3.8-0.8,7.5-2.1,11.2-3.4c6.2-2.3,12.2-4.7,18-7.6c6.6-3.2,10.9-4.2,18.1-2.4"/>
		<path class="st4" d="M147.9,116.7c-6.3,4-11.6,9.2-17.9,13.2c-11.5,6.8-24.8,10.4-38,11.7c-8.6,0.7-17.3,0.9-26,0.3
			c-11.9-0.8-23.5-4.9-33-12.2c-3.6-2.6-7.2-5.4-10.9-8c-1.4-1-4.7-3.3-5.3-3.2c-1.2-0.1,2.6,4.2,3.6,5.5c6.5,8.3,13.5,16.8,23,21.7
			c14.7,7.3,34.7,7,50.5,3.8c3.8-0.8,7.5-2.1,11.2-3.4c6.2-2.3,12.2-4.7,18-7.6c6.6-3.2,10.9-4.2,18.1-2.4"/>
		<path class="st1" d="M15,118.3c-0.7-2.2-1.3-4.5-2-6.7"/>
		<path class="st1" d="M16.1,118.5c1.7-1.1,3.4-2.1,5.1-3.2"/>
		<path class="st1" d="M15.2,119.9c2.4,0.8,4.9,1.3,7.4,1.5"/>
		<path class="st1" d="M-26.5,146.9c14.9-6.6,28.7-15.5,40.8-26.4"/>
		<path class="st7" d="M163.3,152.8c3.6,0,6.6-4.1,6.6-9.2s-3-9.2-6.6-9.2c-3.6,0-6.6,4.1-6.6,9.2S159.7,152.8,163.3,152.8z"/>
	</g>
</g>
<path class="st6" d="M117.2,70c-0.1-4.8,0.3-9.9,3.2-13.6c1.2-1.5,3-2.7,4.8-2.1c2,0.7,2.5,3.1,2.7,5.2c0.4,4.8,0.4,9.7,0,14.5
	c-0.3,3.4-0.4,12.1-2.8,14.7C118.9,95.3,117.2,72.6,117.2,70z"/>
<circle class="st6" cx="123.7" cy="97.8" r="3"/>
</svg>
