<?xml version="1.0" encoding="utf-8"?>
<!-- Generator: Adobe Illustrator 28.2.0, SVG Export Plug-In . SVG Version: 6.00 Build 0)  -->
<svg version="1.1" id="레이어_1" xmlns="http://www.w3.org/2000/svg" xmlns:xlink="http://www.w3.org/1999/xlink" x="0px"
	 y="0px" viewBox="0 0 284 248" style="enable-background:new 0 0 284 248;" xml:space="preserve">
<style type="text/css">
	.st0{clip-path:url(#SVGID_00000168108039164977118630000013485935175169421492_);}
	.st1{fill:none;stroke:#373433;stroke-width:3;stroke-linecap:round;stroke-miterlimit:10;}
	.st2{fill:#014E33;stroke:#017247;stroke-miterlimit:10;}
	.st3{fill:url(#SVGID_00000008828332288529729500000018358597576201326002_);}
	.st4{fill:#017247;}
	.st5{fill:#F5BF00;stroke:#70035B;stroke-width:0.3333;stroke-miterlimit:10;}
	.st6{fill:#F5BF00;}
	.st7{fill:none;stroke:#70035B;stroke-width:0.3333;stroke-miterlimit:10;}
	.st8{fill:none;stroke:#D1A002;stroke-miterlimit:10;}
	.st9{fill:none;stroke:#373433;stroke-width:2;stroke-linecap:round;stroke-miterlimit:10;}
	.st10{fill:none;stroke:#373433;stroke-linecap:round;stroke-miterlimit:10;}
	.st11{fill:#EAA17F;}
</style>
<g>
	<g>
		<defs>
			<rect id="SVGID_1_" width="284" height="248"/>
		</defs>
		<clipPath id="SVGID_00000021102420721358308780000017597557548288419466_">
			<use xlink:href="#SVGID_1_"  style="overflow:visible;"/>
		</clipPath>
		<g style="clip-path:url(#SVGID_00000021102420721358308780000017597557548288419466_);">
			<path class="st1" d="M270.5,134.3c-1-1.4-1.9-2.8-2.9-4.2"/>
			<path class="st1" d="M271.2,134.2c0.9-1.1,1.9-2.3,2.8-3.4"/>
			<path class="st1" d="M270.9,135.4c1.8,0,3.7-0.3,5.4-0.7"/>
			<path class="st1" d="M218.2,192.8c21.2-13.9,38.9-37.9,52-56.9"/>
			<path class="st1" d="M140.7,130.2c1-1.4,1.9-2.8,2.9-4.2"/>
			<path class="st1" d="M140,130.1c-0.9-1.1-1.9-2.3-2.8-3.4"/>
			<path class="st1" d="M140.2,131.3c-1.8,0-3.7-0.3-5.4-0.7"/>
			<path class="st1" d="M163,168.5c-8.7-8-16.2-26.4-22-36.7"/>
			<path class="st2" d="M170.8,60l14.2,51.9c0.8,3.1,3.8,5,7,4.6l28-4.2c3.2-0.5,5.6-3.4,5.4-6.6l-3.5-54.2
				c-0.2-3.7-3.6-6.4-7.3-5.8l-38.7,6.4C172.1,52.7,169.8,56.4,170.8,60z"/>
			
				<linearGradient id="SVGID_00000138536327412961094550000012274185753215096731_" gradientUnits="userSpaceOnUse" x1="207.4935" y1="49.39" x2="207.4935" y2="-83.523" gradientTransform="matrix(1 0 0 1 0 208)">
				<stop  offset="0.33" style="stop-color:#FFFFFF"/>
				<stop  offset="0.73" style="stop-color:#58BE9A"/>
				<stop  offset="0.95" style="stop-color:#019C65"/>
			</linearGradient>
			<path style="fill:url(#SVGID_00000138536327412961094550000012274185753215096731_);" d="M194.5,286.6c-9,0-16.4-7.3-16.5-16.3
				l-1.2-120.1c-0.1-8.3-2.1-16.6-5.9-23.9l-23-44.9c-0.8-1.6-0.9-3.4-0.3-5.1c0.6-1.7,1.8-3,3.4-3.8l32.5-14.7
				c0.8-0.4,1.7-0.6,2.7-0.6c2.4,0,4.6,1.3,5.7,3.5l14.1,27c0.2,0.3,0.5,0.5,0.8,0.5s0.6-0.2,0.8-0.5l21.1-37.2
				c1.1-2,3.3-3.3,5.6-3.3c1,0,2.1,0.2,3,0.7l27,14c1.6,0.8,2.7,2.2,3.2,3.9s0.3,3.5-0.5,5l-31.3,57c-4,7.3-6.3,15.5-6.6,23.7
				l-4.7,119.1c-0.3,8.4-7.2,15.2-15.6,15.4l-13.8,0.4C194.8,286.6,194.7,286.6,194.5,286.6L194.5,286.6z"/>
			<path class="st4" d="M234.3,47.8c1,0,1.9,0.2,2.7,0.7l27,14c1.4,0.7,2.5,2,3,3.6c0.5,1.5,0.3,3.2-0.5,4.6l-31.3,57
				c-4,7.3-6.3,15.6-6.6,23.9l-4.7,119.1c-0.2,4-1.8,7.7-4.6,10.4c-2.8,2.8-6.5,4.4-10.5,4.5L195,286c-0.2,0-0.3,0-0.5,0
				c-4.2,0-8.2-1.6-11.2-4.6s-4.7-7-4.8-11.2l-1.2-120.1c-0.1-8.4-2.1-16.7-5.9-24.2l-23-44.9c-0.8-1.5-0.9-3.1-0.3-4.7
				c0.5-1.6,1.7-2.8,3.2-3.5l32.5-14.7c0.8-0.3,1.6-0.5,2.4-0.5c2.2,0,4.3,1.2,5.3,3.2l14.1,27c0.2,0.5,0.7,0.8,1.2,0.8
				s1-0.3,1.2-0.7l21.1-37.2C230.2,49,232.2,47.8,234.3,47.8 M234.3,46.8c-2.4,0-4.8,1.3-6.1,3.5l-21.1,37.2
				c-0.1,0.1-0.2,0.2-0.3,0.2s-0.3-0.1-0.3-0.2l-14.1-27c-1.2-2.4-3.7-3.7-6.2-3.7c-1,0-1.9,0.2-2.9,0.6l-32.5,14.7
				c-3.6,1.6-5.1,6-3.3,9.5l23,44.9c3.8,7.3,5.8,15.5,5.8,23.7l1.2,120.1c0.1,9.4,7.7,16.8,17,16.8c0.2,0,0.4,0,0.5,0l13.8-0.4
				c8.7-0.3,15.7-7.2,16.1-15.9l4.7-119.1c0.3-8.2,2.6-16.3,6.5-23.5l31.3-57c1.9-3.4,0.6-7.7-2.9-9.5l-27-14
				C236.5,47,235.4,46.8,234.3,46.8L234.3,46.8z"/>
			<path class="st5" d="M163.7,138.5c-2,2.9-3.9,5.8-5.9,8.7c-0.8,1.2-1.7,2.5-1.9,4c-0.3,2.7,1.7,5.1,3.7,6.8
				c3.3,2.8,7.1,5,11.1,6.6c10.1,4,21.2,4.5,32.1,4.2c10-0.3,20.5-1.3,29.1-6.4c5.3-3.1,9.6-7.6,13.8-11.9c1.6-1.7,3.4-3.8,3.1-6.1
				c-0.4-3.2-4.5-4.8-4.9-8.1c-0.1-0.4-0.2-0.8-0.3-1.2c-1.1-2.4-7.2-2.3-8.7-1.6c-3.2,1.6-2.4,3.8-5.8,4.9
				c-4.3,1.4-8.8,2.3-13.3,3.3c-6.1,1.3-12.2,2.6-18.4,2.5c-5.7-0.1-11.4-1.2-16.9-2.8c-2.2-0.6-3.4-1.3-5.2-2.6
				c-1.4-1-0.1-3.1-1.7-4C170.8,133.3,165,136.5,163.7,138.5L163.7,138.5z"/>
			<path class="st6" d="M162,159.9c-3.5,7.7-6.2,15.8-8.9,23.9c-1.8,5.5-3.7,11-5.5,16.5c-0.8,2.5-1.7,5.1-1.5,7.7
				c0.1,2.6,1.5,5.4,3.9,6.3c2,0.8,4.2,0.3,6.3,0.1c4.8-0.4,9.7,0.6,13.9,2.9c1.4,0.8,2.7,1.6,4.3,1.7c0.5,0,1.1-0.1,1.6-0.3
				c1.8-0.9,1.7-3,1.6-4.8c-1.1-15.6,1.6-31.4,7.6-45.8"/>
			<path class="st7" d="M162,159.9c-3.5,7.7-6.2,15.8-8.9,23.9c-1.8,5.5-3.7,11-5.5,16.5c-0.8,2.5-1.7,5.1-1.5,7.7
				c0.1,2.6,1.5,5.4,3.9,6.3c2,0.8,4.2,0.3,6.3,0.1c4.8-0.4,9.7,0.6,13.9,2.9c1.4,0.8,2.7,1.6,4.3,1.7c0.5,0,1.1-0.1,1.6-0.3
				c1.8-0.9,1.7-3,1.6-4.8c-1.1-15.6,1.6-31.4,7.6-45.8"/>
			<path class="st8" d="M163.7,138.5c-2,2.9-3.9,5.8-5.9,8.7c-0.8,1.2-1.7,2.5-1.9,4c-0.3,2.7,1.7,5.1,3.7,6.8
				c3.3,2.8,7.1,5,11.1,6.6c10.1,4,21.2,4.5,32.1,4.2c10-0.3,20.5-1.3,29.1-6.4c5.3-3.1,9.6-7.6,13.8-11.9c1.6-1.7,3.4-3.8,3.1-6.1
				c-0.4-3.2-4.5-4.8-4.9-8.1c-0.1-0.4-0.2-0.8-0.3-1.2c-1.1-2.4-7.2-2.3-8.7-1.6c-3.2,1.6-2.4,3.8-5.8,4.9
				c-4.3,1.4-8.8,2.3-13.3,3.3c-6.1,1.3-12.2,2.6-18.4,2.5c-5.7-0.1-11.4-1.2-16.9-2.8c-2.2-0.6-3.4-1.3-5.2-2.6
				c-1.4-1-0.1-3.1-1.7-4C170.8,133.3,165,136.5,163.7,138.5L163.7,138.5z"/>
			<path class="st8" d="M162,159.9c-3.5,7.7-6.2,15.8-8.9,23.9c-1.8,5.5-3.7,11-5.5,16.5c-0.8,2.5-1.7,5.1-1.5,7.7
				c0.1,2.6,1.5,5.4,3.9,6.3c2,0.8,4.2,0.3,6.3,0.1c4.8-0.4,9.7,0.6,13.9,2.9c1.4,0.8,2.7,1.6,4.3,1.7c0.5,0,1.1-0.1,1.6-0.3
				c1.8-0.9,1.7-3,1.6-4.8c-1.1-15.6,1.6-31.4,7.6-45.8"/>
			<path class="st9" d="M201.3,101.3c-4.3,1.6-8.1,4.7-10.6,8.5"/>
			<path class="st9" d="M212,102.9c3.2,2.8,5.8,6.5,7.4,10.5"/>
			<path class="st9" d="M201.1,113.3c-1.7-0.7-3.6-0.9-5.3-0.4c-1.8,0.4-3.4,1.5-4.5,2.9"/>
			<path class="st9" d="M208.5,113.9c1.3-0.6,2.9-0.4,4.1,0.4c1.2,0.8,1.9,2.3,1.8,3.7"/>
			<path class="st9" d="M186.8,123.3c1.1-0.1,2,0.9,2.2,2s0,2.2-0.1,3.3s0.1,2.3,1,3c0.7,0.6,1.7,0.6,2.6,1c2.1,0.9,3.1,3.3,4.8,4.8
				c2.2,1.8,5.3,1.9,8.1,1.8c2.2-0.1,4.5-0.3,6.6-1.2c2-0.9,3.8-2.7,4.1-4.9c0.2-1.1,0-2.4,0.8-3.3c0.9-1,2.6-0.8,3.7-1.6
				c1.3-1,1.1-2.9,0.7-4.5"/>
			<path class="st10" d="M157.6,194.1c0,0.1,0,0.2,0,0.2c0,0.3,0,0.5,0,0.8c0,0.7-0.1,1.4-0.1,2.2s-0.1,1.6-0.3,2.4
				c0,0.3-0.1,0.6-0.1,1c0,0.1,0,0.3-0.1,0.4"/>
			<path class="st10" d="M157.8,194c0.1,0,0.2,0,0.3,0.1c0.2,0.1,0.4,0.1,0.6,0.2c0.3,0.1,0.5,0.1,0.8,0.2c0.1,0,0.3,0.1,0.4,0.1
				h0.1c0,0,0,0,0.1,0s0.1,0,0.2,0c0.1,0,0.2,0.1,0.3,0.1h0.1c0,0,0,0,0.1,0s0.1,0,0.2,0.1c0.1,0.1,0.2,0.1,0.4,0.1
				c0.1,0,0.3,0,0.4,0.1c0.1,0,0.2,0.1,0.3,0.1s0.2,0,0.2,0c0.2,0.1,0.4,0.1,0.6,0.2c0.2,0.1,0.3,0.1,0.5,0.1c0,0.2,0,0.3,0,0.5
				c-0.1,0.3-0.1,0.7-0.2,1c-0.1,0.5-0.2,1.1-0.3,1.6c0,0.2-0.1,0.4-0.1,0.6c0,0.2-0.1,0.3-0.1,0.5c-0.1,0.4-0.1,0.7-0.2,1.1
				c-0.1,0.2-0.1,0.4-0.1,0.7c0,0.1,0,0.3-0.1,0.4c0,0.1,0,0.2-0.1,0.3v0.1c0,0.1-0.2,0.1-0.3,0.1c-0.2,0-0.3-0.1-0.5-0.2
				c-0.1,0-0.3-0.1-0.4-0.1c-0.1,0-0.3,0-0.4-0.1c-0.1,0-0.2,0-0.3-0.1c-0.3-0.1-0.6-0.2-0.8-0.2s-0.4-0.1-0.6-0.1
				c-0.2,0-0.4-0.1-0.6-0.1c-0.5-0.1-1-0.2-1.5-0.3"/>
			<path class="st10" d="M166.7,194c0,0.2,0,0.4,0,0.6c0,0.2-0.1,0.5-0.1,0.7c0,0.3-0.1,0.6-0.1,0.9c-0.1,0.5-0.2,1.1-0.3,1.6
				c-0.1,0.4-0.1,0.7-0.2,1.1c-0.1,0.3-0.1,0.7-0.2,1c-0.1,0.3-0.1,0.6-0.2,0.9c-0.1,0.1-0.1,0.3-0.1,0.4c0,0.1,0,0.3-0.1,0.4
				c-0.1,0.4-0.2,0.8-0.3,1.3c-0.1,0.4-0.1,0.7-0.2,1.1c0,0.1-0.1,0.2-0.1,0.3s0,0.1,0,0.2"/>
			<path class="st10" d="M166.1,199.4c0.2,0,0.5,0,0.7,0c0.3,0,0.5,0.1,0.8,0.2c0.2,0,0.5,0,0.7,0.1c0.4,0.1,0.8,0.1,1.2,0.3
				c0.2,0,0.3,0.1,0.5,0.1c0.1,0,0.1,0.1,0.2,0"/>
			<path class="st10" d="M162.4,204.8c-0.1,0-0.1,0-0.1,0c-0.1,0-0.1,0.1-0.2,0.1c-0.2,0.1-0.5,0.3-0.7,0.5
				c-0.3,0.3-0.6,0.6-0.9,0.9c-0.2,0.2-0.4,0.4-0.6,0.6c-0.2,0.2-0.3,0.3-0.5,0.5c-0.6,0.6-1.3,1.3-1.9,1.9
				c-0.1,0.1-0.3,0.2-0.4,0.4c-0.1,0.1-0.2,0.2-0.3,0.4c-0.1,0.1-0.2,0.2-0.2,0.3l-0.1,0.1"/>
			<path class="st10" d="M161.3,206.1c0,0.1,0.2,0.5,0.2,0.4C161.7,206.7,161.4,206.1,161.3,206.1c0.3,0.4,0.6,0.8,0.8,1.1
				c0.3,0.4,0.6,0.8,0.9,1.1c0.3,0.3,0.6,0.7,0.9,1.1c0.1,0.1,0.2,0.2,0.3,0.4c0.1,0.1,0.1,0.2,0.2,0.3c0,0.1,0.1,0.1,0.1,0.2
				c0,0.1,0.1,0.1,0.1,0.2c0.1,0.2,0.2,0.3,0.3,0.5s0.1,0.3,0.3,0.5"/>
		</g>
	</g>
</g>
<g>
	<path class="st11" d="M160.8,53.8c-0.6-0.4-13.2-7.8-13.3-16.4c-0.1-8.7,11.4-9.9,13.9-1.8"/>
	<path class="st11" d="M160.8,53.8c0.6-0.3,13.7-7.8,13.9-16.4c0.1-8.7-11.4-9.9-13.9-1.8"/>
</g>
<g>
	<path class="st11" d="M144.4,192.9c-0.4,0.1-8.5,1.7-11.7-1.8c-3.3-3.6,1-8.4,5.1-6"/>
	<path class="st11" d="M144.4,192.9c0.1-0.4,2.8-8.4-0.4-12c-3.2-3.7-8.5,0.1-6.5,4.5"/>
</g>
</svg>
