<?xml version="1.0" encoding="utf-8"?>
<!-- Generator: Adobe Illustrator 28.2.0, SVG Export Plug-In . SVG Version: 6.00 Build 0)  -->
<svg version="1.1" id="레이어_1" xmlns="http://www.w3.org/2000/svg" xmlns:xlink="http://www.w3.org/1999/xlink" x="0px"
	 y="0px" viewBox="0 0 284 248" style="enable-background:new 0 0 284 248;" xml:space="preserve">
<style type="text/css">
	.st0{clip-path:url(#SVGID_00000062174316970207880200000009018105337599504794_);}
	.st1{fill:#D54400;stroke:#A53002;stroke-width:2;stroke-miterlimit:10;}
	.st2{fill:#019C65;stroke:#017247;stroke-width:2;stroke-miterlimit:10;}
	.st3{fill:#D8BF79;}
	.st4{fill:#D54400;}
	.st5{fill:#F5BF00;}
	.st6{fill:#D9D9D9;}
	.st7{fill:none;stroke:#5B2F20;stroke-miterlimit:10;}
	.st8{fill:#84452C;stroke:#5B2F20;stroke-miterlimit:10;}
	.st9{fill:#FAF5E2;}
	.st10{fill:#D87B56;}
	.st11{fill:#C16B4D;}
	.st12{fill:#D9D9D9;stroke:#5B2F20;stroke-linecap:round;stroke-miterlimit:10;}
	.st13{fill:none;stroke:#84452C;stroke-width:0.3333;stroke-linecap:round;stroke-miterlimit:10;}
	.st14{fill:#373433;}
	.st15{fill:none;stroke:#373433;stroke-linecap:round;stroke-miterlimit:10;}
	.st16{fill:#EAA17F;}
</style>
<g>
	<defs>
		<rect id="SVGID_1_" width="284" height="248"/>
	</defs>
	<clipPath id="SVGID_00000030466011300894023550000012617908018224242611_">
		<use xlink:href="#SVGID_1_"  style="overflow:visible;"/>
	</clipPath>
	<g style="clip-path:url(#SVGID_00000030466011300894023550000012617908018224242611_);">
		<path class="st1" d="M79.7,71.1c-4.6,7.1-5.8,15.9-5,24.4c0.7,8.4,3.2,16.6,5.2,24.8c4.2,17.2,6.3,35.1,3.8,52.6
			c-2.5,17.5-9.9,34.7-22.8,46.8c-4.2,3.9-8.8,7.3-12.5,11.7c-3.6,4.4-6.2,10.2-5,15.8c1.2,5.9,6.5,10.4,12.3,12.2
			c5.8,1.8,12,1.2,18,0.1c28.5-5.2,53.8-23.2,70.7-46.8c16.9-23.5,25.7-52.3,28-81.2c1-12.7,0.9-25.5-2.3-37.8
			c-3.2-12.3-9.7-24-19.6-31.9c-16.6-13.2-40.7-10.9-58.6-1.4C87,63,82.7,66.5,79.7,71.1L79.7,71.1z"/>
		<path class="st2" d="M109.1,50.5c5.3-0.9,11.4-0.7,17.3,0.2c7.7,1.2,15.3,3.8,20.4,7.5c1.1,0.8,2.1,1.8,2,2.7c0,0.8-1,1.5-2.1,1.9
			c-1.2,0.4-2.6,0.6-4,0.7c-12.8,1.3-26.9,0-39.9-3.2c-1.4-0.3-2.8-0.7-3.9-1.4c-2.3-1.4-1-3.1,0.3-4.2c1.4-1.3,3.4-2.4,5.8-3.2
			C106.2,51.1,107.6,50.7,109.1,50.5L109.1,50.5z"/>
		<path class="st2" d="M124.4,23.8c0.7-1.4,1.4-2.9,2.6-4.1c1.2-1.2,2.9-2.2,4.9-2.4c1.8-0.2,3.6,0.3,5.2,1.1s3,1.8,4.3,2.8
			c1.3,1,2.7,2.1,3.1,3.4c0.4,1.4-0.4,2.8-1.5,3.9c-1.2,1.1-2.6,1.9-4,2.8c-3.4,2.5-5.5,5.8-6.8,9.3c-1.3,3.5-1.8,7.2-2.2,10.8
			c-0.2,1.6-0.6,3.4-2.4,4.1c-1.4,0.5-3.1,0-4.3-0.8c-3.9-2.7-3.7-7.5-3.7-11c0-4.4,0.9-8.7,2.2-12.9
			C122.5,28.4,123.4,26.1,124.4,23.8L124.4,23.8z"/>
		<path class="st3" d="M-16.2,163.5l344.3,68.3l2,51.3l-349,13L-16.2,163.5z"/>
		<path class="st4" d="M214.3,78.3c0.9-1.6-0.4-3.2-1.8-4.3c-1.8-1.4-4.2-2.6-3.7-5.4c0.1-0.7,0.5-1.5,1-2.1
			c1.9-2.6,5.2-3.8,7.4-6.1c1.4-1.4,2.2-3.4,1.6-5c-0.1-0.2,0.2-0.4,0.4-0.2c1.2,1.2,1.5,3.1,1.5,4.8c0,2.1-0.1,4.4,1.4,5.9
			c1.3,1.3,3.5,1.6,5.3,2.5c1.9,1,3.2,3,3.3,5.1c0,1.2-0.3,2.4,0.3,3.5c0.2,0.4,0.6,0.8,1.1,0.9c1.5,0.5,2.7-1,2.8-2.2
			c0-1.1-0.5-2.1-0.8-3.1c-0.3-0.8-0.4-1.9,0-2.7c0.1-0.1,0.3-0.1,0.3,0c0.1,1,0.8,1.8,1.6,2.4c0.9,0.8,2.1,1.3,2.9,2.1
			c1.8,1.6,2.3,4.4,1.2,6.6c-0.7,1.4-1.9,2.7-1.7,4.2c0.2,1.4,1.7,2.2,2.5,3.3c1.4,1.9,0.9,4.6-0.6,6.7c-1.6,2-4,3.4-6.5,4.3
			c-4.9,1.9-10.5,2.7-15.4,1.3c-4.9-1.4-8.8-5.3-9-10C208.9,86.3,211.5,82.1,214.3,78.3z"/>
		<path class="st5" d="M219.5,83.9c0.6-1-0.3-2.1-1.2-2.9c-1.1-1-2.7-1.7-2.4-3.6c0.1-0.5,0.3-1,0.6-1.4c1.1-1.7,3.2-2.4,4.5-3.9
			c0.8-0.9,1.3-2.2,1-3.3c0-0.1,0.1-0.2,0.2-0.1c0.8,0.8,1,2,1,3.2c0,1.4,0,2.9,0.9,3.9c0.8,0.9,2.2,1.1,3.3,1.7
			c1.2,0.7,2,2,2.1,3.4c0,0.8-0.1,1.5,0.2,2.3c0.2,0.3,0.4,0.5,0.7,0.6c0.9,0.3,1.7-0.6,1.7-1.5c0-0.7-0.3-1.4-0.6-2.1
			c-0.2-0.6-0.3-1.2,0-1.8c0-0.1,0.2-0.1,0.2,0c0.1,0.6,0.5,1.2,1,1.6c0.6,0.5,1.3,0.8,1.8,1.4c1.2,1.1,1.5,2.9,0.8,4.4
			c-0.4,0.9-1.2,1.8-1,2.7c0.1,0.9,1.1,1.4,1.6,2.2c0.9,1.3,0.6,3.1-0.3,4.4c-0.9,1.3-2.4,2.1-3.9,2.8c-3,1.2-6.5,1.7-9.5,0.7
			s-5.5-3.6-5.8-6.7C216.2,89.2,217.8,86.4,219.5,83.9"/>
		<path class="st6" d="M35.7,207.1c0,0,2.7,29.9,34.7,29.9c32,0,36-30.5,36-30.5"/>
		<path class="st7" d="M35.7,207.1c0,0,2.7,29.9,34.7,29.9c32,0,36-30.5,36-30.5"/>
		<path class="st8" d="M71,218c19.5,0,35.4-5.1,35.4-11.4c0-6.3-15.8-11.4-35.4-11.4c-19.5,0-35.4,5.1-35.4,11.4
			C35.6,212.9,51.4,218,71,218z"/>
		<path class="st9" d="M61.8,212.8c0.3,1.8,0.1,5.1-2,5.8c-1.1,0.4-2.4,0-3.6-0.3c-1-0.3-1.9-0.5-2.8-0.6c-2.6-0.4-5.4-0.6-7.9-0.1
			c-1.4,0.2-2.9,1-4.3,0.6c-1.8-0.5-2.6-3.3-2.2-5c0.5-1.9,2.8-2.5,4.5-3.2c3.8-1.6,6.6-1.1,10.6-0.8c1.9,0.2,4.5,0.2,5.8,1
			C60.9,210.8,61.6,211.7,61.8,212.8L61.8,212.8L61.8,212.8z"/>
		<path class="st10" d="M64.4,206.7c0.3,1.8,0.1,5.1-2,5.8c-1.1,0.4-2.4,0-3.6-0.3c-1-0.3-1.9-0.5-2.8-0.6c-2.6-0.4-5.4-0.6-7.9-0.1
			c-1.4,0.2-2.9,1-4.3,0.6c-1.8-0.5-2.6-3.3-2.2-5c0.5-1.9,2.8-2.5,4.5-3.2c3.8-1.6,6.6-1.1,10.6-0.8c1.9,0.2,4.5,0.2,5.8,1
			C63.5,204.7,64.2,205.6,64.4,206.7L64.4,206.7L64.4,206.7z"/>
		<path class="st9" d="M75.5,217c-1.2,1.4-3.8,3.4-5.6,2.3c-1-0.6-1.6-1.8-2.1-2.9c-0.4-0.9-0.9-1.8-1.4-2.6
			c-1.4-2.2-3.1-4.5-5.1-6.1c-1.1-0.9-2.7-1.5-3.3-2.8c-0.8-1.7,0.8-4.1,2.3-4.9c1.7-0.9,3.7,0.5,5.3,1.3c3.7,1.8,5.2,4.2,7.5,7.5
			c1.1,1.6,2.8,3.5,3.1,5.1C76.4,215,76.2,216.2,75.5,217L75.5,217L75.5,217z"/>
		<path class="st10" d="M81.7,215c-1.2,1.4-3.8,3.4-5.6,2.3c-1-0.6-1.6-1.8-2.1-2.9c-0.4-0.9-0.9-1.8-1.4-2.6
			c-1.4-2.2-3.1-4.5-5.1-6.1c-1.1-0.9-2.7-1.5-3.3-2.8c-0.8-1.7,0.8-4.1,2.3-4.9c1.7-0.9,3.7,0.5,5.3,1.3c3.7,1.8,5.2,4.2,7.5,7.5
			c1.1,1.6,2.8,3.5,3.1,5.1C82.7,213,82.4,214.1,81.7,215L81.7,215L81.7,215z"/>
		<path class="st11" d="M76,211.9c0.6,1.8,0.9,5-0.9,6c-1,0.6-2.4,0.4-3.5,0.3c-1-0.1-2-0.2-2.9-0.2c-2.6,0-5.4,0.4-7.8,1.2
			c-1.3,0.4-2.7,1.5-4.1,1.3c-1.8-0.2-3.1-2.8-3-4.5c0.2-1.9,2.4-2.9,3.9-3.9c3.5-2.2,6.3-2.2,10.3-2.6c1.9-0.1,4.4-0.6,5.9,0
			C74.8,210.1,75.7,210.9,76,211.9L76,211.9L76,211.9z"/>
		<path class="st11" d="M97.5,210.8c-0.7,1.7-2.6,4.4-4.6,4c-1.1-0.2-2.1-1.2-2.9-2c-0.7-0.7-1.4-1.4-2.1-2c-2-1.6-4.4-3.2-6.7-4.2
			c-1.3-0.5-3-0.6-4-1.6c-1.3-1.3-0.6-4.2,0.6-5.4c1.4-1.3,3.7-0.7,5.5-0.5c4.1,0.6,6.3,2.4,9.5,4.7c1.5,1.2,3.8,2.4,4.5,3.8
			C97.7,208.6,97.9,209.8,97.5,210.8L97.5,210.8z"/>
		<path class="st9" d="M78.9,213.4c-0.7-1.7-1.2-5,0.6-6.1c1-0.6,2.4-0.6,3.5-0.5c1,0,2,0.1,2.9,0c2.6-0.2,5.4-0.7,7.7-1.6
			c1.3-0.5,2.6-1.6,4-1.6c1.8,0.1,3.3,2.6,3.3,4.3c-0.1,1.9-2.2,3-3.6,4.1c-3.4,2.4-6.2,2.6-10.1,3.1c-1.9,0.2-4.4,0.8-5.9,0.3
			C80.2,215.2,79.3,214.4,78.9,213.4L78.9,213.4L78.9,213.4z"/>
		<path class="st10" d="M77.7,219.8c-0.7-1.7-1.2-5,0.6-6.1c1-0.6,2.4-0.6,3.5-0.5c1,0,2,0.1,2.9,0c2.6-0.2,5.4-0.7,7.7-1.6
			c1.3-0.5,2.6-1.6,4-1.6c1.8,0.1,3.3,2.6,3.3,4.3c-0.1,1.9-2.2,3-3.6,4.1c-3.4,2.4-6.2,2.6-10.1,3.1c-1.9,0.2-4.4,0.8-5.9,0.3
			C79,221.6,78.1,220.9,77.7,219.8L77.7,219.8L77.7,219.8z"/>
		<path class="st12" d="M70.9,218c-19,0-34.4-4.8-35.3-10.9c0,0,2.8,29.9,34.7,29.9c28.7,0,34.9-24.5,35.9-29.6
			C104.8,213.4,89.5,218,70.9,218L70.9,218z"/>
		<path class="st13" d="M54.4,222.2c-1.1-0.3-2.1,0.1-2.2,1.4c-0.1,1.1,1,1.6,1.9,1.6C55.6,225.1,56.3,223.1,54.4,222.2z"/>
		<path class="st13" d="M56.8,221c0.1,1.3,0,2.6,0,3.9c0.1,1.2,0,2.3-0.2,3.5"/>
		<path class="st13" d="M56.9,224.9c0.7-0.1,1.6,0,2.3,0.2"/>
		<path class="st13" d="M59.4,222.5c0.7-0.1,1.5,0.1,2.1,0.3c0.5,0.1,0.5,0.1,0.6,0.6c0.1,1.1-1,2.2-1.7,2.9"/>
		<path class="st13" d="M61.8,224.7c0.5,0.3,0.9,1.1,1.3,1.7"/>
		<path class="st13" d="M58.8,227.6c1.7-0.1,3.5,0.8,5.2,1"/>
		<path class="st13" d="M61.8,228.4c-0.3,0.3-0.3,1.4-0.4,1.8c-0.1,0.8-0.2,1.8-0.3,2.5"/>
		<path class="st13" d="M68.3,224.4c-0.3,1.3-0.3,2.6-0.3,3.9"/>
		<path class="st13" d="M68.3,224.7c0.6-0.2,1.3-0.4,1.9-0.4c0.5,1.1,0.7,2.4,0.9,3.6c-0.6,0.1-1.2,0-1.8,0c-0.3,0-1-0.1-1.2,0.1"/>
		<path class="st13" d="M71.8,223.8c-0.1,0.2-0.1,0.7,0,1c0,0.7,0.1,1.4,0.2,2.1c0.1,0.7,0.2,1.3,0.2,2"/>
		<path class="st13" d="M72.1,226.6c0.3-0.1,0.7-0.1,1-0.2"/>
		<path class="st13" d="M73.1,223.7c-0.4,1.7,0.3,3.4,0.5,5.1"/>
		<path class="st13" d="M75.5,222.6c-0.7-0.1-1.4,0.1-1.2,1c0.1,0.9,1.5,1,2.2,0.6c0.4-0.2,0.6-0.7,0.3-1.1
			C76.5,222.7,75.8,222.7,75.5,222.6L75.5,222.6z"/>
		<path class="st13" d="M74.2,226.7c1.4-0.2,3-0.7,4.5-0.8"/>
		<path class="st13" d="M77,226.1c-0.5,0.9-0.1,2.4-0.1,3.4"/>
		<path class="st13" d="M75.1,228.8c0,0.5-0.1,1.6,0.4,1.9c0.5,0.2,1.5,0.2,2.1,0.1c0.5,0,1.1-0.3,1.6-0.3"/>
		<path class="st13" d="M80.5,221.9c-0.3,0.5-0.1,1.6,0,2.2"/>
		<path class="st13" d="M80.6,221.8c0.9,0,1.7-0.2,2.6-0.3c0.1,0.5,0.2,1,0.4,1.6c0.1,0.2,0.4,1,0.2,1.2c-0.2,0.2-1.2,0.1-1.6,0.1
			c-0.4,0-0.9,0.1-1.3,0.2"/>
		<path class="st13" d="M84,220.4c0,0.9,0.4,1.8,0.6,2.6c0.2,0.8,0.2,1.6,0.3,2.5"/>
		<path class="st13" d="M84.6,223.6c0.3-0.3,0.9-0.4,1.3-0.5"/>
		<path class="st13" d="M83.1,225.6c0.1,0.7-0.2,1.4-0.3,2.1c-0.2,0.7-0.1,1.4-0.3,2.1"/>
		<path class="st13" d="M82.7,227.8c1-0.1,2.1,0.6,3,0.9"/>
		<path class="st14" d="M102,110.3c1.2,3.5,5.8,5.5,2.9,6.6c-2.9,1-6.3-0.9-7.5-4.4c-1.2-3.5,0.2-7.1,3.1-8.1
			C103.4,103.3,100.8,106.8,102,110.3z"/>
		<path class="st14" d="M111.7,106.9c1.2,3.5,5.8,5.5,2.9,6.6c-2.9,1-6.3-0.9-7.5-4.4c-1.2-3.5,0.2-7.1,3.1-8.1
			C113,99.9,110.4,103.4,111.7,106.9z"/>
		<path class="st15" d="M95.9,126.6c0,0,16.8,14.4,29.8-7.3"/>
		<path class="st15" d="M208.6,80.8c1.7,0.1,3.5,0.4,5.1,0.9c0,0,0,0.1,0,0.1c-1.9,0.1-3.8,0.9-5.2,2.3"/>
		<path class="st15" d="M221.4,79.6c2.8-1.1,6.1-1.2,8.9-0.1"/>
		<path class="st15" d="M228.1,74.9c-2.5,1.2-4.7,2.8-6.8,4.6"/>
		<path class="st15" d="M211.6,91c1-1.5,3-1.4,5-2.1c0.7-0.2,1.4-0.4,2.1-0.7c2.8-1,5.5-2.3,8-3.9c1.4-0.9,2.8-2,3.7-2.1
			c2.5-0.7,1.5,5.9,1.4,7.3c-0.5,4.1-2.2,8.7-6,10.7c-3.1,1.6-6.9,1.3-9.7-0.8C214.2,98.1,210.4,93.3,211.6,91L211.6,91L211.6,91z"
			/>
		<path class="st16" d="M240.4,63.7c-0.6-0.3-12.2-7.2-12.4-15.1c-0.1-8.1,10.5-9.2,12.8-1.7"/>
		<path class="st16" d="M240.4,63.7c0.6-0.3,12.7-7.2,12.8-15.1c0.1-8.1-10.5-9.2-12.8-1.7"/>
		<path class="st14" d="M151.4,44.5c1.3,0,2.3-1,2.3-2.3s-1-2.3-2.3-2.3c-1.3,0-2.3,1-2.3,2.3S150.1,44.5,151.4,44.5z"/>
		<path class="st14" d="M160.4,44.5c1.3,0,2.3-1,2.3-2.3s-1-2.3-2.3-2.3c-1.3,0-2.3,1-2.3,2.3S159.1,44.5,160.4,44.5z"/>
		<path class="st14" d="M169.4,44.5c1.3,0,2.3-1,2.3-2.3s-1-2.3-2.3-2.3c-1.3,0-2.3,1-2.3,2.3S168.1,44.5,169.4,44.5z"/>
	</g>
</g>
<g>
	<g>
		<path class="st4" d="M42.7,184c0.4-0.9-0.4-1.6-1.2-2.1c-1-0.6-2.4-1.1-2.3-2.5c0-0.4,0.1-0.8,0.4-1.2c0.8-1.5,2.4-2.3,3.4-3.6
			c0.6-0.8,0.9-1.9,0.5-2.7c-0.1-0.1,0.1-0.2,0.2-0.1c0.7,0.5,1,1.5,1.1,2.4c0.1,1.1,0.2,2.3,1.1,2.9c0.8,0.6,1.9,0.6,2.9,0.9
			c1.1,0.4,1.8,1.3,2,2.4c0.1,0.6,0,1.3,0.4,1.8c0.1,0.2,0.4,0.4,0.6,0.4c0.8,0.2,1.3-0.7,1.3-1.3c-0.1-0.6-0.4-1-0.6-1.5
			c-0.2-0.4-0.3-0.9-0.2-1.4c0-0.1,0.1-0.1,0.2,0c0.1,0.5,0.5,0.9,1,1.2c0.5,0.3,1.2,0.5,1.6,0.9c1,0.7,1.5,2.1,1,3.3
			c-0.3,0.8-0.8,1.5-0.6,2.3c0.2,0.7,1,1,1.5,1.5c0.8,0.9,0.8,2.3,0.1,3.5c-0.7,1.1-1.8,2-3.1,2.6c-2.4,1.3-5.2,2.1-7.8,1.6
			c-2.6-0.4-4.9-2.2-5.3-4.6C40.5,188.5,41.6,186.1,42.7,184"/>
		<path class="st5" d="M45.8,186.5c0.2-0.6-0.3-1.1-0.8-1.4c-0.7-0.4-1.5-0.7-1.5-1.7c0-0.3,0.1-0.5,0.2-0.7
			c0.5-0.9,1.5-1.5,2.1-2.3c0.4-0.5,0.5-1.2,0.3-1.8c0-0.1,0.1-0.1,0.1-0.1c0.4,0.3,0.6,1,0.7,1.6c0.1,0.7,0.2,1.5,0.7,1.9
			c0.5,0.4,1.2,0.4,1.8,0.7c0.7,0.3,1.2,0.9,1.3,1.6c0.1,0.4,0,0.8,0.3,1.2c0.1,0.1,0.2,0.2,0.4,0.3c0.5,0.1,0.8-0.4,0.8-0.9
			c0-0.4-0.3-0.7-0.4-1c-0.1-0.3-0.2-0.6-0.1-0.9c0,0,0.1,0,0.1,0c0.1,0.3,0.3,0.6,0.6,0.8c0.3,0.2,0.7,0.4,1,0.6
			c0.7,0.5,0.9,1.4,0.7,2.2c-0.2,0.5-0.5,1-0.3,1.5c0.1,0.5,0.6,0.7,1,1c0.5,0.6,0.5,1.6,0.1,2.3c-0.4,0.7-1.1,1.3-1.9,1.7
			c-1.5,0.8-3.2,1.3-4.9,0.9s-3.1-1.5-3.4-3.1C44.4,189.4,45.1,187.9,45.8,186.5"/>
	</g>
</g>
<g>
	<g>
		<path class="st4" d="M51.2,171.2c0.2-0.2,0.1-0.6-0.2-0.8c-0.3-0.3-0.7-0.6-0.5-1.1c0.1-0.1,0.1-0.2,0.3-0.3
			c0.4-0.4,1.1-0.5,1.5-0.8c0.3-0.2,0.5-0.5,0.5-0.8c0,0,0.1-0.1,0.1,0c0.2,0.3,0.1,0.6,0.1,0.9c-0.1,0.4-0.2,0.8,0,1.1
			c0.2,0.3,0.6,0.4,0.8,0.6c0.3,0.3,0.5,0.6,0.4,1c0,0.2-0.1,0.4-0.1,0.6c0,0.1,0.1,0.2,0.2,0.2c0.3,0.1,0.5-0.1,0.6-0.3
			c0-0.2,0-0.4,0-0.6c0-0.2,0-0.3,0.1-0.5c0,0,0.1,0,0.1,0c0,0.2,0.1,0.4,0.2,0.5c0.1,0.2,0.3,0.3,0.4,0.5c0.3,0.4,0.2,0.9,0,1.2
			c-0.2,0.2-0.4,0.4-0.5,0.7c0,0.3,0.2,0.5,0.3,0.7c0.2,0.4,0,0.9-0.4,1.2c-0.4,0.3-0.8,0.5-1.3,0.5c-0.9,0.2-2,0.1-2.8-0.3
			c-0.8-0.4-1.4-1.3-1.2-2.1C50,172.4,50.6,171.7,51.2,171.2"/>
		<path class="st5" d="M52,172.4c0.1-0.2,0-0.4-0.1-0.6c-0.2-0.2-0.4-0.4-0.3-0.7c0-0.1,0.1-0.2,0.2-0.2c0.3-0.3,0.7-0.3,1-0.5
			c0.2-0.1,0.3-0.3,0.3-0.5c0,0,0,0,0,0c0.1,0.2,0.1,0.4,0.1,0.6c0,0.2-0.1,0.5,0,0.7c0.1,0.2,0.4,0.3,0.5,0.4
			c0.2,0.2,0.3,0.4,0.2,0.7c0,0.1-0.1,0.3,0,0.4c0,0.1,0,0.1,0.1,0.1c0.2,0.1,0.3,0,0.4-0.2c0-0.1,0-0.3,0-0.4c0-0.1,0-0.2,0.1-0.3
			c0,0,0,0,0,0c0,0.1,0,0.2,0.1,0.3c0.1,0.1,0.2,0.2,0.3,0.3c0.2,0.2,0.2,0.6,0,0.8c-0.1,0.1-0.3,0.3-0.3,0.4c0,0.2,0.1,0.3,0.2,0.5
			c0.1,0.3,0,0.6-0.2,0.8c-0.2,0.2-0.5,0.3-0.8,0.3c-0.6,0.1-1.2,0.1-1.7-0.2c-0.5-0.3-0.8-0.8-0.8-1.4
			C51.2,173.2,51.6,172.8,52,172.4"/>
	</g>
</g>
</svg>
