<svg width="284" height="248" viewBox="0 0 284 248" fill="none" xmlns="http://www.w3.org/2000/svg">
<g clip-path="url(#clip0_251_1395)">
<path d="M185.12 222.526C181.644 241.433 184.574 261.46 193.317 278.58" stroke="#373433" stroke-width="3" stroke-miterlimit="10" stroke-linecap="round"/>
<path d="M140.72 221.25C131.006 237.84 126.936 257.667 129.323 276.743" stroke="#373433" stroke-width="3" stroke-miterlimit="10" stroke-linecap="round"/>
<path d="M124.274 147.727C113.717 149.864 102.444 148.457 92.8202 143.617C83.1969 138.777 75.3103 130.504 71.1102 120.584C67.3569 111.71 66.5736 101.907 65.8369 92.3037" stroke="#373433" stroke-width="3" stroke-miterlimit="10" stroke-linecap="round"/>
<path d="M285.263 167.039C282.359 170.259 278.933 172.126 275.263 172.126C264.779 172.126 256.283 156.963 256.283 138.259C256.283 129.049 258.346 120.703 261.689 114.599L243.293 73.6759C242.553 73.7992 241.799 73.8792 241.023 73.8792C233.419 73.8792 227.253 67.7159 227.253 60.1092C227.253 55.7792 229.253 51.9226 232.376 49.3992L224.813 32.5726C222.763 28.0159 217.806 25.5159 212.923 26.5759L141.409 42.1226C137.856 42.8959 134.949 45.4392 133.713 48.8559L127.833 65.0992C130.436 69.1159 131.976 74.0826 131.976 79.4626C131.976 91.5759 124.169 101.609 113.979 103.376L92.3194 163.226C92.7561 163.209 93.1994 163.196 93.6461 163.196C102.073 163.196 108.903 166.363 108.903 170.266C108.903 174.169 102.073 177.336 93.6461 177.336C91.4328 177.336 89.3361 177.113 87.4361 176.719L83.8661 186.583C81.2694 193.756 85.0861 201.663 92.3194 204.089L188.119 236.233C190.773 237.123 193.673 236.926 196.183 235.679L285.119 191.536C290.209 189.009 292.393 182.913 290.063 177.733L285.256 167.043L285.263 167.039Z" fill="#F5BF00" stroke="#D8BF79" stroke-width="2" stroke-miterlimit="10" stroke-linecap="round"/>
<path d="M165.537 56.1093C169.467 56.1093 172.653 53.4827 172.653 50.2426C172.653 47.0026 169.467 44.376 165.537 44.376C161.606 44.376 158.42 47.0026 158.42 50.2426C158.42 53.4827 161.606 56.1093 165.537 56.1093Z" fill="#D1A002"/>
<path d="M227.642 108.656C235.419 108.656 241.722 103.459 241.722 97.0491C241.722 90.6389 235.419 85.4424 227.642 85.4424C219.866 85.4424 213.562 90.6389 213.562 97.0491C213.562 103.459 219.866 108.656 227.642 108.656Z" fill="#D1A002"/>
<path d="M106.409 130.253C105.833 130.119 105.253 130.063 104.673 130.036C104.429 132.213 103.553 134.266 102.759 136.296C101.849 138.619 100.859 140.906 99.876 143.196C98.916 145.433 97.9793 147.679 97.1826 149.979C96.586 151.699 96.1493 153.459 95.4727 155.139C96.776 156.386 98.346 157.293 100.143 157.703C106.393 159.129 112.863 154.139 114.593 146.559C116.323 138.979 112.659 131.676 106.409 130.249V130.253Z" fill="#D1A002"/>
<path d="M204.236 208.238C206.21 199.591 199.388 190.658 188.998 188.286C178.608 185.914 168.585 191.001 166.611 199.648C164.636 208.296 171.459 217.229 181.849 219.601C192.239 221.972 202.262 216.885 204.236 208.238Z" fill="#D1A002"/>
<path d="M179.599 112.028C181.573 103.381 174.751 94.4482 164.361 92.0762C153.971 89.7042 143.948 94.7913 141.974 103.439C140 112.086 146.822 121.019 157.212 123.391C167.602 125.763 177.625 120.675 179.599 112.028Z" fill="#D1A002"/>
<path d="M275.46 172.299C274.59 172.299 273.706 172.192 272.82 172.019C271.033 171.669 269.216 171.039 267.736 169.959C266.856 169.312 266.116 168.596 265.44 167.739C265.193 167.429 264.95 167.112 264.716 166.792C264.543 166.566 264.513 166.519 264.616 166.652C264.813 166.896 264.69 166.739 264.256 166.182C264.103 165.979 263.946 165.779 263.8 165.572C263.783 165.546 263.67 165.382 263.593 165.266C263.536 165.202 263.33 164.939 263.303 164.909C263.14 164.722 262.97 164.539 262.806 164.349C262.42 163.899 262.043 163.432 261.716 162.936C261.49 162.589 261.273 162.182 261.093 161.749C259.953 162.246 258.84 162.882 257.786 163.679C251.506 168.419 249.686 176.599 253.726 181.946C257.763 187.296 266.126 187.786 272.406 183.046C276.08 180.272 278.213 176.326 278.553 172.452C278.14 172.559 277.686 172.609 277.253 172.592C276.616 172.572 276.03 172.462 275.456 172.296L275.46 172.299Z" fill="#D1A002"/>
<path d="M217.919 149.589C221.621 146.794 223.036 142.425 221.078 139.832C219.12 137.239 214.532 137.403 210.829 140.198C207.127 142.993 205.712 147.361 207.67 149.954C209.628 152.548 214.216 152.384 217.919 149.589Z" fill="#D1A002"/>
<path d="M126.424 201.062C126.72 198.375 125.434 196.029 123.551 195.822C121.668 195.614 119.902 197.624 119.605 200.31C119.309 202.996 120.596 205.342 122.479 205.55C124.362 205.757 126.128 203.748 126.424 201.062Z" fill="#D1A002"/>
<path d="M188.916 236.313C195.183 235.953 200.18 229.819 198.296 223.136L149.253 49.1825C147.793 43.9992 142.56 42.0325 138.31 43.4258" stroke="#D8BF79" stroke-width="2" stroke-miterlimit="10" stroke-linecap="round"/>
<path d="M285.263 167.039C282.359 170.259 278.933 172.126 275.263 172.126C264.779 172.126 256.283 156.963 256.283 138.259C256.283 129.049 258.346 120.703 261.689 114.599L243.293 73.6759C242.553 73.7992 241.799 73.8792 241.023 73.8792C233.419 73.8792 227.253 67.7159 227.253 60.1092C227.253 55.7792 229.253 51.9226 232.376 49.3992L224.813 32.5726C222.763 28.0159 217.806 25.5159 212.923 26.5759L141.409 42.1226C137.856 42.8959 134.949 45.4392 133.713 48.8559L127.833 65.0992C130.436 69.1159 131.976 74.0826 131.976 79.4626C131.976 91.5759 124.169 101.609 113.979 103.376L92.3194 163.226C92.7561 163.209 93.1994 163.196 93.6461 163.196C102.073 163.196 108.903 166.363 108.903 170.266C108.903 174.169 102.073 177.336 93.6461 177.336C91.4328 177.336 89.3361 177.113 87.4361 176.719L83.8661 186.583C81.2694 193.756 85.0861 201.663 92.3194 204.089L188.119 236.233C190.773 237.123 193.673 236.926 196.183 235.679L285.119 191.536C290.209 189.009 292.393 182.913 290.063 177.733L285.256 167.043L285.263 167.039Z" stroke="#D8BF79" stroke-width="2" stroke-miterlimit="10" stroke-linecap="round"/>
<path d="M103.076 215.647C103.076 215.647 105.77 245.59 137.743 245.59C169.716 245.59 173.713 215.104 173.713 215.104" fill="#D9D9D9"/>
<path d="M103.076 215.647C103.076 215.647 105.77 245.59 137.743 245.59C169.716 245.59 173.713 215.104 173.713 215.104" stroke="#5B2F20" stroke-miterlimit="10"/>
<path d="M138.353 226.543C157.889 226.543 173.726 221.423 173.726 215.107C173.726 208.79 157.889 203.67 138.353 203.67C118.817 203.67 102.979 208.79 102.979 215.107C102.979 221.423 118.817 226.543 138.353 226.543Z" fill="#84452C" stroke="#5B2F20" stroke-miterlimit="10"/>
<path d="M129.186 221.33C129.466 223.17 129.243 226.427 127.236 227.117C126.143 227.51 124.803 227.133 123.68 226.85C122.73 226.597 121.76 226.353 120.856 226.203C118.303 225.803 115.44 225.643 112.95 226.073C111.57 226.28 110.056 227.073 108.686 226.703C106.92 226.207 106.07 223.413 106.48 221.743C106.97 219.883 109.3 219.277 110.946 218.54C114.783 216.923 117.556 217.413 121.526 217.757C123.423 217.98 125.99 217.913 127.37 218.753C128.303 219.297 129.02 220.22 129.183 221.303L129.19 221.33H129.186Z" fill="#FAF5E2"/>
<path d="M131.759 215.294C132.039 217.134 131.816 220.391 129.809 221.081C128.716 221.474 127.376 221.097 126.253 220.814C125.303 220.561 124.333 220.317 123.429 220.167C120.876 219.767 118.013 219.607 115.523 220.037C114.143 220.244 112.629 221.037 111.259 220.667C109.493 220.171 108.643 217.377 109.053 215.707C109.543 213.847 111.873 213.241 113.519 212.504C117.356 210.887 120.129 211.377 124.099 211.721C125.996 211.944 128.563 211.877 129.943 212.717C130.876 213.261 131.593 214.184 131.756 215.267L131.763 215.294H131.759Z" fill="#D87B56"/>
<path d="M142.863 225.567C141.66 226.987 139.053 228.954 137.216 227.894C136.2 227.327 135.606 226.067 135.083 225.037C134.65 224.154 134.196 223.26 133.72 222.484C132.346 220.297 130.59 218.027 128.626 216.43C127.563 215.524 125.973 214.904 125.353 213.627C124.57 211.967 126.116 209.494 127.646 208.707C129.373 207.854 131.36 209.217 132.993 209.974C136.733 211.81 138.18 214.22 140.526 217.44C141.6 219.017 143.336 220.914 143.61 222.504C143.813 223.564 143.586 224.71 142.876 225.544L142.86 225.567H142.863Z" fill="#FAF5E2"/>
<path d="M149.106 223.544C147.903 224.964 145.296 226.93 143.459 225.87C142.443 225.304 141.849 224.044 141.326 223.014C140.893 222.13 140.439 221.237 139.963 220.46C138.589 218.274 136.833 216.004 134.869 214.407C133.806 213.5 132.216 212.88 131.596 211.604C130.813 209.944 132.359 207.47 133.889 206.684C135.616 205.83 137.603 207.194 139.236 207.95C142.976 209.787 144.423 212.197 146.769 215.417C147.843 216.994 149.579 218.89 149.853 220.48C150.056 221.54 149.829 222.687 149.119 223.52L149.103 223.544H149.106Z" fill="#D87B56"/>
<path d="M129.486 129.714C129.386 131.611 129.289 133.474 129.196 135.187C128.143 154.891 127.829 169.514 127.286 190.377C127.043 200.354 126.613 213.784 126.619 221.204C126.619 226.224 126.753 230.191 127.019 231.304L127.026 231.337C127.479 233.251 128.399 232.851 128.906 222.521C129.189 216.887 129.303 209.781 129.406 203.847C129.489 198.807 129.579 193.671 129.683 188.917C129.983 175.461 130.399 160.424 130.916 147.494C131.129 142.014 131.443 136.227 131.633 130.564C130.859 130.397 130.126 130.131 129.486 129.717V129.714Z" fill="#FAF5E2" stroke="#D9D9D9" stroke-width="0.333333" stroke-miterlimit="10"/>
<path d="M132.443 130.694C132.353 132.424 132.263 134.118 132.176 135.688C131.123 155.391 130.81 170.014 130.266 190.878C130.023 200.854 129.593 214.284 129.6 221.704C129.6 226.724 129.733 230.691 130 231.804L130.006 231.838C130.46 233.751 131.38 233.351 131.886 223.021C132.17 217.388 132.283 210.281 132.386 204.348C132.47 199.308 132.56 194.171 132.663 189.418C132.963 175.961 133.38 160.924 133.896 147.991C134.113 142.418 134.433 136.524 134.623 130.768C133.9 130.801 133.163 130.784 132.443 130.694Z" fill="#FAF5E2" stroke="#D9D9D9" stroke-width="0.333333" stroke-miterlimit="10"/>
<path d="M135.452 130.714C135.365 132.358 135.282 133.964 135.199 135.454C134.145 155.158 133.832 169.781 133.289 190.644C133.045 200.621 132.615 214.051 132.622 221.471C132.622 226.491 132.755 230.458 133.022 231.571L133.029 231.604C133.482 233.518 134.402 233.118 134.909 222.788C135.192 217.154 135.305 210.048 135.409 204.114C135.492 199.074 135.582 193.938 135.685 189.184C135.985 175.728 136.402 160.691 136.919 147.761C137.132 142.231 137.452 136.384 137.642 130.671C137.449 130.624 137.262 130.564 137.079 130.501C136.569 130.588 136.022 130.664 135.452 130.714Z" fill="#FAF5E2" stroke="#D9D9D9" stroke-width="0.333333" stroke-miterlimit="10"/>
<path d="M138.456 130.807C138.362 132.591 138.269 134.337 138.182 135.954C137.129 155.657 136.816 170.281 136.272 191.144C136.029 201.121 135.599 214.551 135.606 221.971C135.606 226.991 135.739 230.957 136.006 232.071L136.012 232.104C136.466 234.017 137.386 233.617 137.892 223.287C138.176 217.654 138.289 210.547 138.392 204.614C138.476 199.574 138.566 194.437 138.669 189.684C138.969 176.227 139.386 161.191 139.902 148.261C140.126 142.477 140.462 136.351 140.649 130.391C139.989 130.777 139.222 130.884 138.456 130.811V130.807Z" fill="#FAF5E2" stroke="#D9D9D9" stroke-width="0.333333" stroke-miterlimit="10"/>
<path d="M143.403 220.473C143.99 222.24 144.316 225.49 142.456 226.506C141.443 227.08 140.06 226.933 138.906 226.843C137.926 226.753 136.93 226.676 136.016 226.68C133.433 226.716 130.58 227.036 128.2 227.883C126.873 228.32 125.516 229.353 124.103 229.223C122.276 229.03 120.97 226.42 121.093 224.703C121.263 222.786 123.46 221.796 124.956 220.796C128.466 218.556 131.283 218.573 135.253 218.243C137.16 218.146 139.68 217.646 141.18 218.243C142.193 218.62 143.053 219.41 143.396 220.45L143.406 220.476L143.403 220.473Z" fill="#C16B4D"/>
<path d="M168.88 215.41C169.003 217.294 168.273 220.477 165.56 220.74C164.077 220.9 162.373 220.25 160.947 219.734C159.737 219.284 158.5 218.84 157.343 218.5C154.06 217.57 150.333 216.81 147.023 216.717C145.19 216.634 143.11 217.104 141.367 216.45C139.123 215.587 138.383 212.64 139.143 211.067C140.033 209.324 143.16 209.21 145.41 208.827C150.643 208.027 154.203 209.09 159.347 210.264C161.797 210.884 165.163 211.354 166.853 212.474C168.003 213.207 168.813 214.274 168.883 215.38V215.41H168.88Z" fill="#C16B4D"/>
<path d="M118.053 230.05C116.83 228.447 116.333 225.213 120.743 223.47C123.143 222.5 126.353 222.133 129.026 221.797C131.3 221.523 133.613 221.23 135.74 220.887C141.75 219.887 148.41 218.49 154.016 216.727C157.136 215.78 160.373 214.207 163.65 213.817C167.883 213.333 170.713 215.54 170.29 217.357C169.74 219.4 164.553 221.24 160.993 222.833C152.646 226.457 146.103 227.49 136.84 229.313C132.396 230.127 126.493 231.58 123.053 231.527C120.73 231.517 118.79 231.02 118.076 230.077L118.056 230.053L118.053 230.05Z" fill="#FAF5E2"/>
<path d="M127.583 231.573C126.576 229.9 126.146 226.66 129.703 225.223C131.64 224.42 134.236 224.27 136.4 224.113C138.24 223.993 140.113 223.853 141.83 223.653C146.693 223.06 152.076 222.113 156.606 220.736C159.126 220.003 161.736 218.656 164.386 218.486C167.813 218.286 170.126 220.663 169.8 222.44C169.373 224.43 165.186 225.913 162.313 227.256C155.58 230.296 150.286 230.89 142.796 232.083C139.203 232.596 134.433 233.646 131.643 233.366C129.76 233.2 128.183 232.583 127.596 231.596L127.58 231.57L127.583 231.573Z" fill="#D87B56"/>
<path d="M138.292 226.543C119.329 226.543 103.889 221.723 102.999 215.663C102.999 215.663 105.766 245.593 137.739 245.593C166.392 245.593 172.639 221.12 173.616 216.036C172.162 221.923 156.869 226.546 138.292 226.546V226.543Z" fill="#D9D9D9" stroke="#5B2F20" stroke-miterlimit="10" stroke-linecap="round"/>
<path d="M132.291 111.101C132.291 114.791 135.927 118.297 132.804 118.297C129.681 118.297 127.147 115.304 127.147 111.614C127.147 107.924 129.681 104.931 132.804 104.931C135.927 104.931 132.291 107.411 132.291 111.101Z" fill="#373433"/>
<path d="M142.574 111.101C142.574 114.791 146.211 118.297 143.087 118.297C139.964 118.297 137.431 115.304 137.431 111.614C137.431 107.924 139.964 104.931 143.087 104.931C146.211 104.931 142.574 107.411 142.574 111.101Z" fill="#373433"/>
<path d="M120.464 121.9C120.464 121.9 132.804 140.41 151.314 122.927" stroke="#373433" stroke-width="2" stroke-miterlimit="10" stroke-linecap="round"/>
<path d="M115.904 116.66C116.994 116.777 118.107 117.677 118.817 118.46C119.42 119.127 119.857 119.883 120.127 120.733C120.834 122.947 119.667 124.903 117.85 126.127C117.054 126.663 115.87 127.247 114.86 127.17" stroke="#373433" stroke-width="2" stroke-miterlimit="10" stroke-linecap="round"/>
<path d="M155.82 117.563C154.73 117.68 153.617 118.58 152.907 119.363C152.303 120.03 151.867 120.787 151.597 121.637C150.89 123.85 152.057 125.807 153.873 127.03C154.67 127.567 155.853 128.15 156.863 128.073" stroke="#373433" stroke-width="2" stroke-miterlimit="10" stroke-linecap="round"/>
<path d="M195.33 151.227C201.493 160.06 204.693 170.96 204.087 181.713C203.48 192.467 199.033 202.997 191.607 210.8C184.963 217.777 176.283 222.4 167.767 226.9" stroke="#373433" stroke-width="3" stroke-miterlimit="10" stroke-linecap="round"/>
<path d="M165.107 227.044C163.11 226.514 161.113 225.984 159.12 225.454" stroke="#373433" stroke-width="3" stroke-miterlimit="10" stroke-linecap="round"/>
<path d="M165.264 227.968C164.354 229.504 163.44 231.041 162.53 232.578" stroke="#373433" stroke-width="3" stroke-miterlimit="10" stroke-linecap="round"/>
<path d="M166.504 227.157C167.231 229.254 167.714 231.437 167.947 233.644" stroke="#373433" stroke-width="3" stroke-miterlimit="10" stroke-linecap="round"/>
<path d="M66.6303 75.3733C66.8903 74.5866 67.3037 73.7733 68.0503 73.4099C69.047 72.9233 70.2937 73.4399 71.0237 74.2766C72.257 75.6933 72.367 77.7433 72.3003 79.6199C72.2203 81.9833 71.947 84.3899 70.9604 86.5399C69.9737 88.6899 68.1737 90.5666 65.8837 91.1599C63.4637 91.7866 60.6837 90.7799 59.2903 88.6999C57.897 86.6199 58.0437 83.6166 59.687 81.7299C60.9537 80.2766 62.8337 79.7666 64.697 79.9399C65.947 80.0566 66.107 80.2733 66.1403 78.9299C66.1703 77.6999 66.2337 76.5499 66.6237 75.3699L66.6303 75.3733Z" stroke="#373433" stroke-width="3" stroke-miterlimit="10" stroke-linecap="round"/>
<path d="M63.3301 61.0938L64.1101 65.5604" stroke="#373433" stroke-width="3" stroke-miterlimit="10" stroke-linecap="round"/>
<path d="M69.4836 60.5029L69.1836 64.6763" stroke="#373433" stroke-width="3" stroke-miterlimit="10" stroke-linecap="round"/>
</g>
<defs>
<clipPath id="clip0_251_1395">
<rect width="284" height="248" fill="white"/>
</clipPath>
</defs>
</svg>
