<?xml version="1.0" encoding="utf-8"?>
<!-- Generator: Adobe Illustrator 28.2.0, SVG Export Plug-In . SVG Version: 6.00 Build 0)  -->
<svg version="1.1" id="레이어_1" xmlns="http://www.w3.org/2000/svg" xmlns:xlink="http://www.w3.org/1999/xlink" x="0px"
	 y="0px" viewBox="0 0 282 245" style="enable-background:new 0 0 282 245;" xml:space="preserve">
<style type="text/css">
	.st0{clip-path:url(#SVGID_00000080169684052320014130000018438403356648699304_);}
	.st1{fill:none;stroke:#373433;stroke-width:2.97;stroke-linecap:round;stroke-miterlimit:10;}
	.st2{fill:none;stroke:#373433;stroke-width:2.97;stroke-miterlimit:10;}
	.st3{fill:#FAF5E2;stroke:#D1CDBF;stroke-width:2.97;stroke-miterlimit:10;}
	.st4{fill:#373433;stroke:#373433;stroke-width:0.33;stroke-miterlimit:10;}
	.st5{fill:#FFFFFF;stroke:#373433;stroke-width:1.98;stroke-miterlimit:10;}
	.st6{fill:#017247;}
	.st7{fill:#F5BF00;}
	.st8{fill:none;stroke:#876703;stroke-width:0.66;stroke-miterlimit:10;}
	.st9{fill:none;stroke:#A53002;stroke-width:0.99;stroke-linecap:round;stroke-miterlimit:10;}
	.st10{fill:none;stroke:#373433;stroke-width:1.98;stroke-linecap:round;stroke-miterlimit:10;}
	.st11{fill:#AD1E24;}
	.st12{fill:none;stroke:#7F1A06;stroke-width:4.95;stroke-miterlimit:10;}
	.st13{fill:#BD7879;}
	.st14{fill:#BB4B45;}
	.st15{fill:none;stroke:#373433;stroke-width:0.33;stroke-linecap:round;stroke-miterlimit:10;}
</style>
<g>
	<defs>
		<rect id="SVGID_1_" width="281.2" height="245.5"/>
	</defs>
	<clipPath id="SVGID_00000069369229213202694960000010290377061574498710_">
		<use xlink:href="#SVGID_1_"  style="overflow:visible;"/>
	</clipPath>
	<g style="clip-path:url(#SVGID_00000069369229213202694960000010290377061574498710_);">
		<path class="st1" d="M226,179.3c14.8-5.6,26.2-16.6,33.7-29.2c7.5-12.6,11.4-26.9,14-41.2c1.8-9.9,3-20,1.3-30.1
			c-1.8-10.1-6.9-20.3-15.8-27.1"/>
		<path class="st2" d="M91.8,201.7c20-10.6,39.5-22.2,58.3-34.8"/>
		<path class="st3" d="M180.9,46.8c19.8-3.9,55.3-3,63.8,18.4c4.8,11.7,3.7,53.6,3.3,66.6c-0.4,10.7-2.8,105.2-4,115.1
			c-3.1,27.9-9.5,35.2-3.6,62c2.9,14.9-2.5,8.1-5.8,23.2c-4.6,19.4-51.7,13-70,9.4c-20.4-4.4-1-42.3-9.8-59.8
			c-19.4-40.9-10.8-106.6-9-149.9c1.5-20.7-0.4-48.6,8-63.9c5.4-10.4,15.1-18.6,26.8-20.9L180.9,46.8L180.9,46.8z"/>
		<path class="st4" d="M199.2,55.7c21.4,0,39.2,10.8,42.8,25c0.1,0.5,0.9,0.5,1-0.1c0.1-0.7,0.1-1.5,0.1-2.2
			c0-16.8-19.5-30.3-43.5-30.3c-24,0-43.5,13.6-43.5,30.3c0,0,0,0,0,0c0,0.5,0.8,0.6,0.9,0.1C161.7,65.4,178.8,55.7,199.2,55.7
			L199.2,55.7z"/>
		<path class="st2" d="M184.4,38.7l2.7,13.5"/>
		<path class="st2" d="M216.9,38l-2.7,13.5"/>
		<path class="st5" d="M227,6.6h-54.3c-1.9,0-3.4,1.5-3.4,3.4v26.3c0,1.9,1.5,3.4,3.4,3.4H227c1.9,0,3.4-1.5,3.4-3.4V10
			C230.3,8.1,228.8,6.6,227,6.6z"/>
		<path class="st6" d="M202.4,19.7c-0.8-2-1.2-4.2-1.3-6.4c0-0.2,0.2-0.3,0.3-0.2c1.1,0.6,1.9,1.7,2.6,2.8c0.1,0.2,0.4,0.1,0.4-0.1
			c0-2,0-4-0.2-6c0-0.2,0.3-0.3,0.4-0.1c0.6,1.3,1,2.8,1.1,4.2c0,0.2,0.3,0.3,0.4,0.1c0.5-1.2,1-2.4,1.3-3.6c0.1-0.2,0.4-0.2,0.4,0
			c0.1,1.9,0.1,3.7,0,5.6c0,0.2,0.2,0.3,0.3,0.2c0.8-0.7,1.5-1.4,2.1-2.3c0.1-0.2,0.4-0.1,0.4,0.1c-0.2,1-0.4,2.1-0.8,3.1
			c-0.3,0.9-0.7,1.7-1.2,2.4"/>
		<path class="st7" d="M200.8,21.2c-1.1,1.4-1.3,3.3-1.4,5.1c-0.1,1.3-0.1,2.5,0.1,3.8c0.2,1.2,0.6,2.5,1.4,3.4
			c1.4,1.6,3.7,2.3,5.8,2c1.1-0.2,2.1-0.6,2.9-1.3c0.9-0.9,1.4-2.2,1.5-3.5c0.1-1.3-0.1-2.6-0.3-3.9c-0.2-1.5-0.5-3-0.7-4.5
			c-0.1-0.7-0.3-1.5-0.7-2c-0.4-0.5-1-0.7-1.7-0.9c-1-0.3-2.1-0.5-3.1-0.1c-0.4,0.2-0.9,0.2-1.3,0.3c-0.5,0.1-0.9,0.3-1.3,0.6
			C201.5,20.4,201.1,20.8,200.8,21.2L200.8,21.2z"/>
		<path class="st8" d="M200.8,21.2c-1.1,1.4-1.3,3.3-1.4,5.1c-0.1,1.3-0.1,2.5,0.1,3.8c0.2,1.2,0.6,2.5,1.4,3.4
			c1.4,1.6,3.7,2.3,5.8,2c1.1-0.2,2.1-0.6,2.9-1.3c0.9-0.9,1.4-2.2,1.5-3.5c0.1-1.3-0.1-2.6-0.3-3.9c-0.2-1.5-0.5-3-0.7-4.5
			c-0.1-0.7-0.3-1.5-0.7-2c-0.4-0.5-1-0.7-1.7-0.9c-1-0.3-2.1-0.5-3.1-0.1c-0.4,0.2-0.9,0.2-1.3,0.3c-0.5,0.1-0.9,0.3-1.3,0.6
			C201.5,20.4,201.1,20.8,200.8,21.2L200.8,21.2z"/>
		<path class="st8" d="M203.6,19.5c-0.5,1-1.2,1.9-1.9,2.8c-0.7,0.9-1.5,1.8-2.1,2.8"/>
		<path class="st8" d="M207.3,19.2c-1,2.1-2.3,4-3.7,5.9c-1.3,1.7-2.7,3.4-3.9,5.1"/>
		<path class="st8" d="M210.2,22.5c-2.6,4-5.4,7.9-8.5,11.7"/>
		<path class="st8" d="M211,27.5c-1.8,2.8-3.9,5.5-6.1,7.9"/>
		<path class="st8" d="M199.5,28.2c1.3,1.3,2.8,2.3,4.3,3.3c1.7,1.1,3.3,2.3,5,3.4"/>
		<path class="st8" d="M200.2,22.3c0.8,0.9,1.5,1.9,2.2,2.9c2.3,2.8,5.2,5.2,8.5,6.9"/>
		<path class="st8" d="M201.7,20.4c2.7,2.7,5.8,4.9,9.2,6.7"/>
		<path class="st8" d="M205,19.2c1.5,1.7,3.3,3.1,5.3,4.2"/>
		<path class="st9" d="M181.5,18.5c-0.3,4.1-0.8,8.2-1.5,12.3"/>
		<path class="st9" d="M181.2,19.7c3.4,16.2,4.5,13,5-0.7"/>
		<path class="st9" d="M188.2,29c1.1,2.6,3.4,1.9,4.4-0.2c1.1-2,1.3-5.9-1-7.1c-2.1-0.7-3.5,2.2-3.7,4C187.7,26.8,187.8,28,188.2,29
			L188.2,29L188.2,29z"/>
		<path class="st9" d="M219.6,18c0.1,3.4-0.3,6.9-1.1,10.3"/>
		<path class="st9" d="M217.8,30.9c-0.1,0.1,0,0.2,0,0.2s0.2,0.1,0.2,0c0.1-0.1,0-0.3-0.1-0.3c-0.1-0.1-0.3,0-0.3,0.1
			c-0.1,0.1-0.1,0.2-0.2,0.3c0.1,0.1,0.2,0.1,0.3,0.1"/>
		<path class="st10" d="M254.6,41.2c-3.4-2.8-7.5-4.8-11.9-5.6c-0.5-0.1-0.9-0.2-1.4-0.1c-0.5,0.1-0.9,0.4-1.1,0.8
			c-0.3,0.7,0.3,1.4,0.8,2c2.4,2.5,5.5,4.2,8.6,5.6"/>
		<path class="st10" d="M249.7,44c-0.8,1.4-1,3.2-0.4,4.7c0.4,1.3,1.3,2.4,2.4,3.2c1,0.8,2.3,1.4,3.6,1.2c1.6-0.2,3-1.5,3.8-2.9
			c0.4-0.7,0.8-1.4,0.7-2.2c-0.1-0.7-0.4-1.3-0.8-1.9c-1.2-1.9-2.8-3.6-4.6-5.1"/>
		<path class="st10" d="M186.3,109.5c2.6,2.5,6.3,3.8,9.9,3.5c3.6-0.3,7-2.2,9.2-5"/>
		<path class="st10" d="M180.7,118.9c1.5,1.5,3.7,2.3,5.8,2.2c2.1-0.1,4.2-1.1,5.6-2.7"/>
		<path class="st10" d="M198.4,118.5c0.5,1.1,1.6,1.9,2.8,2.2c1.2,0.3,2.5,0.1,3.6-0.2c2.5-0.8,4.8-2.4,6.3-4.6"/>
		<path class="st10" d="M188.6,128.8c1.4-0.8,3-0.8,4.5-0.3c1.5,0.5,2.7,1.5,3.8,2.7c1.2,1.4,2.2,3.1,2.4,5"/>
		<path class="st11" d="M72.7,374.9c52.8,0,95.6-42.8,95.6-95.6s-42.8-95.6-95.6-95.6c-52.8,0-95.6,42.8-95.6,95.6
			S19.9,374.9,72.7,374.9z"/>
		<path class="st12" d="M72.7,374.9c52.8,0,95.6-42.8,95.6-95.6s-42.8-95.6-95.6-95.6c-52.8,0-95.6,42.8-95.6,95.6
			S19.9,374.9,72.7,374.9z"/>
		<path class="st13" d="M62.2,243.3c6.8,0,12.4-5.6,12.4-12.4c0-6.8-5.6-12.4-12.4-12.4s-12.4,5.5-12.4,12.4
			C49.8,237.7,55.4,243.3,62.2,243.3z"/>
		<path class="st13" d="M9.1,264.1c6.8,0,12.4-5.6,12.4-12.4c0-6.8-5.6-12.4-12.4-12.4s-12.4,5.6-12.4,12.4
			C-3.3,258.5,2.3,264.1,9.1,264.1z"/>
		<path class="st13" d="M137.1,257.8c6.8,0,12.4-5.6,12.4-12.4S144,233,137.1,233c-6.8,0-12.4,5.6-12.4,12.4
			S130.3,257.8,137.1,257.8z"/>
		<path class="st14" d="M102.8,224.8c6.8,0,12.4-5.6,12.4-12.4s-5.6-12.4-12.4-12.4c-6.8,0-12.4,5.6-12.4,12.4S96,224.8,102.8,224.8
			z"/>
		<path class="st14" d="M30.2,228.1c6.8,0,12.4-5.6,12.4-12.4s-5.6-12.4-12.4-12.4c-6.8,0-12.4,5.6-12.4,12.4S23.4,228.1,30.2,228.1
			z"/>
		<path class="st14" d="M92.9,259.4c6.8,0,12.4-5.6,12.4-12.4c0-6.8-5.6-12.4-12.4-12.4c-6.8,0-12.4,5.6-12.4,12.4
			C80.5,253.9,86.1,259.4,92.9,259.4z"/>
		<path class="st15" d="M14.3,197c-1.5-1.8-2.6-4-3.3-6.3c-0.2-0.7-0.3-1.5,0.2-1.9"/>
		<path class="st15" d="M9,189.4c0.9-0.4,1.9-0.9,2.8-1.3c0.1,0.5,0.2,1.1,0.4,1.6"/>
		<path class="st15" d="M12.6,184.3c1.3-0.9,2.6-1.6,4.1-2.1"/>
		<path class="st15" d="M13.7,183.8c0.1,1.1,0.4,2.1,1,3c0,0,0.1-0.1,0.1-0.1"/>
		<path class="st15" d="M15.1,183.5c0.5,0.8,1.1,1.5,1.8,2.2"/>
		<path class="st15" d="M13.8,187.7c1.5-0.9,3.1-1.6,4.8-2.2"/>
		<path class="st15" d="M18.4,183.6c0.6-0.4,1.2-0.7,1.8-0.9"/>
		<path class="st15" d="M19.7,180.6c0.8,1.2,1.6,2.4,2.4,3.6"/>
		<path class="st15" d="M20.7,179.3l3.2,4.1"/>
		<path class="st15" d="M23.1,179.2c1.6-0.7,3.1-1.4,4.7-2.1"/>
		<path class="st15" d="M24.4,179.2c0.5,1.2,1,2.3,1.6,3.4"/>
		<path class="st15" d="M26.3,178.8l2.1,2.9"/>
		<path class="st15" d="M25.4,183.6c1.2-0.9,2.5-1.5,3.8-2"/>
		<path class="st15" d="M28.8,179.7c0.8-0.5,1.6-0.9,2.4-1.3"/>
		<path class="st15" d="M31,176.4c0.5,1.5,1.2,3,2.2,4.3"/>
		<path class="st15" d="M30.6,173.8c1.1-0.6,2.2-1.2,3.3-1.6c0.1,0,0.2-0.1,0.3,0c0.1,0,0.1,0.1,0.1,0.2c0.2,0.5,0.5,1,0.7,1.5"/>
		<path class="st15" d="M32,175.7c1-0.6,2.1-1.1,3.1-1.6"/>
		<path class="st15" d="M32.2,175.8c0.4,0.7,0.8,1.3,1.2,2c1-0.7,2-1.3,3-1.9"/>
		<path class="st15" d="M35,177.4c0.1,0.7,0.4,1.4,0.7,2"/>
		<path class="st15" d="M34.4,180c1.2-0.4,2.5-0.7,3.7-1.1"/>
		<path class="st15" d="M38.2,173.5c0.4,1,0.9,1.9,1.4,2.7c0.8-0.3,1.6-0.7,2.3-1"/>
		<path class="st15" d="M43.8,170.9c0.4,1.8,0.9,3.6,1.3,5.4"/>
	</g>
</g>
</svg>
