<svg width="284" height="248" viewBox="0 0 284 248" fill="none" xmlns="http://www.w3.org/2000/svg">
<path d="M254.398 52H29.6046C26.602 52 24.168 54.4341 24.168 57.4367V190.563C24.168 193.566 26.602 196 29.6046 196H254.398C257.401 196 259.835 193.566 259.835 190.563V57.4367C259.835 54.4341 257.401 52 254.398 52Z" fill="#D8BF79"/>
<path d="M242.615 59.2002H41.3878C38.3853 59.2002 35.9512 61.6343 35.9512 64.6369V183.364C35.9512 186.366 38.3853 188.8 41.3878 188.8H242.615C245.617 188.8 248.051 186.366 248.051 183.364V64.6369C248.051 61.6343 245.617 59.2002 242.615 59.2002Z" stroke="#F5BF00" stroke-width="2" stroke-miterlimit="10"/>
<path d="M60.658 131.604C69.489 131.604 76.648 124.445 76.648 115.614C76.648 106.783 69.489 99.624 60.658 99.624C51.8269 99.624 44.668 106.783 44.668 115.614C44.668 124.445 51.8269 131.604 60.658 131.604Z" stroke="#D9D9D9" stroke-width="2.72667" stroke-miterlimit="10"/>
<path d="M48.6847 114.824C48.6847 115.637 48.6681 116.451 48.6847 117.261C48.6914 117.707 48.7481 118.161 48.8114 118.604C48.8314 118.751 48.8647 118.897 48.8681 119.044C48.8681 119.137 48.8481 119.291 48.9114 119.374C48.9847 119.474 49.3047 119.424 49.4247 119.424C50.1181 119.421 50.8147 119.504 51.5047 119.577C52.0547 119.637 52.5947 119.651 53.1481 119.651C53.3314 119.651 53.5981 119.691 53.7781 119.647C53.8181 119.514 53.7781 119.337 53.7781 119.201C53.7881 118.854 53.8247 118.514 53.8247 118.167C53.8247 117.484 53.8247 116.804 53.8247 116.121C53.8247 115.864 53.8581 115.581 53.8247 115.324C53.8081 115.184 53.7014 115.061 53.6414 114.937C53.6081 114.871 53.5581 114.717 53.4981 114.664C53.4481 114.621 53.3647 114.644 53.3014 114.644C53.1347 114.644 52.9681 114.644 52.8014 114.644H49.3247C49.1414 114.644 48.9514 114.631 48.7681 114.647C48.7014 114.654 48.4581 114.667 48.6781 114.824H48.6847Z" stroke="#D9D9D9" stroke-width="1.95" stroke-miterlimit="10" stroke-linecap="round"/>
<path d="M56.6205 113.518C56.6205 113.831 56.6072 114.138 56.6638 114.448C56.7105 114.704 56.7672 114.954 56.8038 115.214C56.8638 115.628 56.8805 116.048 56.9372 116.461C57.0205 117.101 57.1605 117.731 57.2572 118.368C57.3338 118.854 57.2405 119.351 57.3438 119.831" stroke="#D9D9D9" stroke-width="1.95" stroke-miterlimit="10" stroke-linecap="round"/>
<path d="M57.4355 117.124C57.5989 117.027 57.8422 117.034 58.0322 117.011C58.4089 116.964 58.7889 116.957 59.1655 116.907C59.3922 116.877 59.6322 116.894 59.8622 116.897C60.0489 116.897 60.2255 116.854 60.4155 116.851" stroke="#D9D9D9" stroke-width="1.95" stroke-miterlimit="10" stroke-linecap="round"/>
<path d="M62.8457 112.638C63.0624 112.638 63.2724 112.637 63.489 112.611C64.0057 112.544 64.5357 112.584 65.0524 112.584C65.3857 112.584 65.7224 112.584 66.0557 112.584C66.199 112.584 66.3357 112.598 66.4757 112.638C66.5524 112.661 66.7024 112.674 66.7657 112.727C66.8557 112.801 66.8157 112.961 66.8157 113.091C66.8157 113.344 66.8157 113.597 66.8157 113.851C66.8157 114.164 66.7357 114.434 66.6824 114.731C66.669 114.798 66.669 114.861 66.6357 114.918C66.5857 115.004 66.5657 114.974 66.4857 114.991C65.919 115.124 65.3024 115.031 64.7224 114.991C64.4257 114.971 64.139 114.938 63.839 114.938C63.709 114.938 63.5657 114.918 63.439 114.948C63.3724 114.964 63.2724 115.014 63.2324 115.098C63.199 115.164 63.2157 115.204 63.209 115.277C63.1957 115.384 63.1657 115.474 63.1624 115.584C63.1557 115.734 63.1324 115.877 63.1224 116.027C63.109 116.237 63.1224 116.444 63.0957 116.654C63.0424 117.134 63.0724 117.637 63.0724 118.121C63.0724 118.241 63.0524 118.384 63.069 118.501C63.0857 118.628 63.129 118.604 63.229 118.601C63.6424 118.587 64.0557 118.601 64.469 118.601C65.0024 118.601 65.529 118.564 66.0624 118.551C66.3057 118.544 66.5457 118.507 66.789 118.497C66.9124 118.494 67.0557 118.417 67.179 118.444" stroke="#D9D9D9" stroke-width="2.10333" stroke-miterlimit="10" stroke-linecap="round"/>
<path d="M69.6548 111.397C69.6548 113.014 69.6215 114.634 69.6881 116.247C69.6981 116.464 69.6948 116.681 69.7081 116.897C69.7215 117.114 69.7715 117.337 69.7915 117.561C69.8181 117.871 69.8615 118.181 69.8915 118.491C69.9148 118.741 69.9248 118.981 69.9248 119.231C69.9248 119.267 69.9248 119.304 69.9248 119.341C69.9248 119.327 69.9248 119.491 69.9248 119.431" stroke="#D9D9D9" stroke-width="1.95" stroke-miterlimit="10" stroke-linecap="round"/>
<path d="M69.6543 116.131C69.721 116.088 69.7643 116.085 69.851 116.085C69.9743 116.088 70.0876 116.068 70.2076 116.048C70.4843 116.005 70.771 116.051 71.051 116.015C71.5943 115.941 72.171 115.991 72.721 115.991" stroke="#D9D9D9" stroke-width="1.95" stroke-miterlimit="10" stroke-linecap="round"/>
<path d="M100.197 131.314C109.028 131.314 116.187 124.155 116.187 115.324C116.187 106.493 109.028 99.334 100.197 99.334C91.366 99.334 84.207 106.493 84.207 115.324C84.207 124.155 91.366 131.314 100.197 131.314Z" stroke="#D9D9D9" stroke-width="2.72667" stroke-miterlimit="10"/>
<path d="M88.2199 114.534C88.2199 115.347 88.2032 116.161 88.2199 116.971C88.2266 117.417 88.2832 117.871 88.3466 118.314C88.3666 118.461 88.3999 118.607 88.4032 118.754C88.4032 118.847 88.3832 119.001 88.4466 119.084C88.5199 119.184 88.8399 119.134 88.9599 119.134C89.6532 119.131 90.3499 119.214 91.0399 119.287C91.5899 119.347 92.1299 119.361 92.6832 119.361C92.8666 119.361 93.1332 119.401 93.3132 119.357C93.3532 119.224 93.3132 119.047 93.3132 118.911C93.3232 118.564 93.3599 118.224 93.3599 117.877C93.3599 117.194 93.3599 116.514 93.3599 115.831C93.3599 115.574 93.3932 115.291 93.3599 115.034C93.3432 114.894 93.2366 114.771 93.1766 114.647C93.1432 114.581 93.0932 114.427 93.0332 114.374C92.9832 114.331 92.8999 114.354 92.8366 114.354C92.6699 114.354 92.5032 114.354 92.3366 114.354H88.8599C88.6766 114.354 88.4866 114.341 88.3032 114.357C88.2366 114.364 87.9932 114.377 88.2132 114.534H88.2199Z" stroke="#D9D9D9" stroke-width="1.95" stroke-miterlimit="10" stroke-linecap="round"/>
<path d="M96.1596 113.224C96.1596 113.537 96.1462 113.844 96.2029 114.154C96.2496 114.41 96.3062 114.66 96.3429 114.92C96.4029 115.334 96.4196 115.754 96.4762 116.167C96.5596 116.807 96.6996 117.437 96.7962 118.074C96.8729 118.56 96.7796 119.057 96.8829 119.537" stroke="#D9D9D9" stroke-width="1.95" stroke-miterlimit="10" stroke-linecap="round"/>
<path d="M96.9707 116.834C97.134 116.737 97.3774 116.744 97.5674 116.721C97.944 116.674 98.324 116.667 98.7007 116.617C98.9274 116.587 99.1674 116.604 99.3974 116.607C99.584 116.607 99.7607 116.564 99.9507 116.561" stroke="#D9D9D9" stroke-width="1.95" stroke-miterlimit="10" stroke-linecap="round"/>
<path d="M102.383 112.344C102.599 112.344 102.809 112.344 103.026 112.317C103.543 112.25 104.073 112.29 104.589 112.29C104.923 112.29 105.259 112.29 105.593 112.29C105.736 112.29 105.873 112.304 106.013 112.344C106.089 112.367 106.239 112.38 106.303 112.434C106.393 112.507 106.353 112.667 106.353 112.797C106.353 113.05 106.353 113.304 106.353 113.557C106.353 113.87 106.273 114.14 106.219 114.437C106.206 114.504 106.206 114.567 106.173 114.624C106.123 114.71 106.103 114.68 106.023 114.697C105.456 114.83 104.839 114.737 104.259 114.697C103.963 114.677 103.676 114.644 103.376 114.644C103.246 114.644 103.103 114.624 102.976 114.654C102.909 114.67 102.809 114.72 102.769 114.804C102.736 114.87 102.753 114.91 102.746 114.984C102.733 115.09 102.703 115.18 102.699 115.29C102.693 115.44 102.669 115.584 102.659 115.734C102.646 115.944 102.659 116.15 102.633 116.36C102.579 116.84 102.609 117.344 102.609 117.827C102.609 117.947 102.589 118.09 102.606 118.207C102.623 118.334 102.666 118.31 102.766 118.307C103.179 118.294 103.593 118.307 104.006 118.307C104.539 118.307 105.066 118.27 105.599 118.257C105.843 118.25 106.083 118.214 106.326 118.204C106.449 118.2 106.593 118.124 106.716 118.15" stroke="#D9D9D9" stroke-width="2.10333" stroke-miterlimit="10" stroke-linecap="round"/>
<path d="M109.194 111.104C109.194 112.72 109.161 114.34 109.227 115.954C109.237 116.17 109.234 116.387 109.247 116.604C109.261 116.82 109.311 117.044 109.331 117.267C109.357 117.577 109.401 117.887 109.431 118.197C109.454 118.447 109.464 118.687 109.464 118.937C109.464 118.974 109.464 119.01 109.464 119.047C109.464 119.034 109.464 119.197 109.464 119.137" stroke="#D9D9D9" stroke-width="1.95" stroke-miterlimit="10" stroke-linecap="round"/>
<path d="M109.193 115.84C109.26 115.797 109.303 115.794 109.39 115.794C109.513 115.797 109.627 115.777 109.747 115.757C110.023 115.714 110.31 115.76 110.59 115.724C111.133 115.65 111.71 115.7 112.26 115.7" stroke="#D9D9D9" stroke-width="1.95" stroke-miterlimit="10" stroke-linecap="round"/>
<path d="M140.027 131.604C148.858 131.604 156.017 124.445 156.017 115.614C156.017 106.783 148.858 99.624 140.027 99.624C131.196 99.624 124.037 106.783 124.037 115.614C124.037 124.445 131.196 131.604 140.027 131.604Z" stroke="#D9D9D9" stroke-width="2.72667" stroke-miterlimit="10"/>
<path d="M128.05 114.824C128.05 115.637 128.033 116.451 128.05 117.261C128.057 117.707 128.113 118.161 128.177 118.604C128.197 118.751 128.23 118.897 128.233 119.044C128.233 119.137 128.213 119.291 128.277 119.374C128.35 119.474 128.67 119.424 128.79 119.424C129.483 119.421 130.18 119.504 130.87 119.577C131.42 119.637 131.96 119.651 132.513 119.651C132.697 119.651 132.963 119.691 133.143 119.647C133.183 119.514 133.143 119.337 133.143 119.201C133.153 118.854 133.19 118.514 133.19 118.167C133.19 117.484 133.19 116.804 133.19 116.121C133.19 115.864 133.223 115.581 133.19 115.324C133.173 115.184 133.067 115.061 133.007 114.937C132.973 114.871 132.923 114.717 132.863 114.664C132.813 114.621 132.73 114.644 132.667 114.644C132.5 114.644 132.333 114.644 132.167 114.644H128.69C128.507 114.644 128.317 114.631 128.133 114.647C128.067 114.654 127.823 114.667 128.043 114.824H128.05Z" stroke="#D9D9D9" stroke-width="1.95" stroke-miterlimit="10" stroke-linecap="round"/>
<path d="M135.99 113.518C135.99 113.831 135.976 114.138 136.033 114.448C136.08 114.704 136.136 114.954 136.173 115.214C136.233 115.628 136.25 116.048 136.306 116.461C136.39 117.101 136.53 117.731 136.626 118.368C136.703 118.854 136.61 119.351 136.713 119.831" stroke="#D9D9D9" stroke-width="1.95" stroke-miterlimit="10" stroke-linecap="round"/>
<path d="M136.801 117.124C136.964 117.027 137.207 117.034 137.397 117.011C137.774 116.964 138.154 116.957 138.531 116.907C138.757 116.877 138.997 116.894 139.227 116.897C139.414 116.897 139.591 116.854 139.781 116.851" stroke="#D9D9D9" stroke-width="1.95" stroke-miterlimit="10" stroke-linecap="round"/>
<path d="M142.213 112.638C142.43 112.638 142.64 112.637 142.856 112.611C143.373 112.544 143.903 112.584 144.42 112.584C144.753 112.584 145.09 112.584 145.423 112.584C145.566 112.584 145.703 112.598 145.843 112.638C145.92 112.661 146.07 112.674 146.133 112.727C146.223 112.801 146.183 112.961 146.183 113.091C146.183 113.344 146.183 113.597 146.183 113.851C146.183 114.164 146.103 114.434 146.05 114.731C146.036 114.798 146.036 114.861 146.003 114.918C145.953 115.004 145.933 114.974 145.853 114.991C145.286 115.124 144.67 115.031 144.09 114.991C143.793 114.971 143.506 114.938 143.206 114.938C143.076 114.938 142.933 114.918 142.806 114.948C142.74 114.964 142.64 115.014 142.6 115.098C142.566 115.164 142.583 115.204 142.576 115.277C142.563 115.384 142.533 115.474 142.53 115.584C142.523 115.734 142.5 115.877 142.49 116.027C142.476 116.237 142.49 116.444 142.463 116.654C142.41 117.134 142.44 117.637 142.44 118.121C142.44 118.241 142.42 118.384 142.436 118.501C142.453 118.628 142.496 118.604 142.596 118.601C143.01 118.587 143.423 118.601 143.836 118.601C144.37 118.601 144.896 118.564 145.43 118.551C145.673 118.544 145.913 118.507 146.156 118.497C146.28 118.494 146.423 118.417 146.546 118.444" stroke="#D9D9D9" stroke-width="2.10333" stroke-miterlimit="10" stroke-linecap="round"/>
<path d="M149.024 111.397C149.024 113.014 148.991 114.634 149.057 116.247C149.067 116.464 149.064 116.681 149.077 116.897C149.091 117.114 149.141 117.337 149.161 117.561C149.187 117.871 149.231 118.181 149.261 118.491C149.284 118.741 149.294 118.981 149.294 119.231C149.294 119.267 149.294 119.304 149.294 119.341C149.294 119.327 149.294 119.491 149.294 119.431" stroke="#D9D9D9" stroke-width="1.95" stroke-miterlimit="10" stroke-linecap="round"/>
<path d="M149.023 116.131C149.09 116.088 149.133 116.085 149.22 116.085C149.343 116.088 149.457 116.068 149.577 116.048C149.853 116.005 150.14 116.051 150.42 116.015C150.963 115.941 151.54 115.991 152.09 115.991" stroke="#D9D9D9" stroke-width="1.95" stroke-miterlimit="10" stroke-linecap="round"/>
<path d="M180.728 131.314C189.559 131.314 196.718 124.155 196.718 115.324C196.718 106.493 189.559 99.334 180.728 99.334C171.897 99.334 164.738 106.493 164.738 115.324C164.738 124.155 171.897 131.314 180.728 131.314Z" stroke="#D9D9D9" stroke-width="2.72667" stroke-miterlimit="10"/>
<path d="M168.755 114.534C168.755 115.347 168.738 116.161 168.755 116.971C168.762 117.417 168.818 117.871 168.882 118.314C168.902 118.461 168.935 118.607 168.938 118.754C168.938 118.847 168.918 119.001 168.982 119.084C169.055 119.184 169.375 119.134 169.495 119.134C170.188 119.131 170.885 119.214 171.575 119.287C172.125 119.347 172.665 119.361 173.218 119.361C173.402 119.361 173.668 119.401 173.848 119.357C173.888 119.224 173.848 119.047 173.848 118.911C173.858 118.564 173.895 118.224 173.895 117.877C173.895 117.194 173.895 116.514 173.895 115.831C173.895 115.574 173.928 115.291 173.895 115.034C173.878 114.894 173.772 114.771 173.712 114.647C173.678 114.581 173.628 114.427 173.568 114.374C173.518 114.331 173.435 114.354 173.372 114.354C173.205 114.354 173.038 114.354 172.872 114.354H169.395C169.212 114.354 169.022 114.341 168.838 114.357C168.772 114.364 168.528 114.377 168.748 114.534H168.755Z" stroke="#D9D9D9" stroke-width="1.95" stroke-miterlimit="10" stroke-linecap="round"/>
<path d="M176.691 113.224C176.691 113.537 176.677 113.844 176.734 114.154C176.781 114.41 176.837 114.66 176.874 114.92C176.934 115.334 176.951 115.754 177.007 116.167C177.091 116.807 177.231 117.437 177.327 118.074C177.404 118.56 177.311 119.057 177.414 119.537" stroke="#D9D9D9" stroke-width="1.95" stroke-miterlimit="10" stroke-linecap="round"/>
<path d="M177.506 116.834C177.669 116.737 177.913 116.744 178.103 116.721C178.479 116.674 178.859 116.667 179.236 116.617C179.463 116.587 179.703 116.604 179.933 116.607C180.119 116.607 180.296 116.564 180.486 116.561" stroke="#D9D9D9" stroke-width="1.95" stroke-miterlimit="10" stroke-linecap="round"/>
<path d="M182.916 112.344C183.133 112.344 183.343 112.344 183.559 112.317C184.076 112.25 184.606 112.29 185.123 112.29C185.456 112.29 185.793 112.29 186.126 112.29C186.269 112.29 186.406 112.304 186.546 112.344C186.623 112.367 186.773 112.38 186.836 112.434C186.926 112.507 186.886 112.667 186.886 112.797C186.886 113.05 186.886 113.304 186.886 113.557C186.886 113.87 186.806 114.14 186.753 114.437C186.739 114.504 186.739 114.567 186.706 114.624C186.656 114.71 186.636 114.68 186.556 114.697C185.989 114.83 185.373 114.737 184.793 114.697C184.496 114.677 184.209 114.644 183.909 114.644C183.779 114.644 183.636 114.624 183.509 114.654C183.443 114.67 183.343 114.72 183.303 114.804C183.269 114.87 183.286 114.91 183.279 114.984C183.266 115.09 183.236 115.18 183.233 115.29C183.226 115.44 183.203 115.584 183.193 115.734C183.179 115.944 183.193 116.15 183.166 116.36C183.113 116.84 183.143 117.344 183.143 117.827C183.143 117.947 183.123 118.09 183.139 118.207C183.156 118.334 183.199 118.31 183.299 118.307C183.713 118.294 184.126 118.307 184.539 118.307C185.073 118.307 185.599 118.27 186.133 118.257C186.376 118.25 186.616 118.214 186.859 118.204C186.983 118.2 187.126 118.124 187.249 118.15" stroke="#D9D9D9" stroke-width="2.10333" stroke-miterlimit="10" stroke-linecap="round"/>
<path d="M189.729 111.104C189.729 112.72 189.696 114.34 189.762 115.954C189.772 116.17 189.769 116.387 189.782 116.604C189.796 116.82 189.846 117.044 189.866 117.267C189.892 117.577 189.936 117.887 189.966 118.197C189.989 118.447 189.999 118.687 189.999 118.937C189.999 118.974 189.999 119.01 189.999 119.047C189.999 119.034 189.999 119.197 189.999 119.137" stroke="#D9D9D9" stroke-width="1.95" stroke-miterlimit="10" stroke-linecap="round"/>
<path d="M189.729 115.84C189.795 115.797 189.839 115.794 189.925 115.794C190.049 115.797 190.162 115.777 190.282 115.757C190.559 115.714 190.845 115.76 191.125 115.724C191.669 115.65 192.245 115.7 192.795 115.7" stroke="#D9D9D9" stroke-width="1.95" stroke-miterlimit="10" stroke-linecap="round"/>
<path d="M222.011 131.314C230.843 131.314 238.001 124.155 238.001 115.324C238.001 106.493 230.843 99.334 222.011 99.334C213.18 99.334 206.021 106.493 206.021 115.324C206.021 124.155 213.18 131.314 222.011 131.314Z" stroke="#D9D9D9" stroke-width="2.72667" stroke-miterlimit="10"/>
<path d="M210.038 114.534C210.038 115.347 210.022 116.161 210.038 116.971C210.045 117.417 210.102 117.871 210.165 118.314C210.185 118.461 210.218 118.607 210.222 118.754C210.222 118.847 210.202 119.001 210.265 119.084C210.338 119.184 210.658 119.134 210.778 119.134C211.472 119.131 212.168 119.214 212.858 119.287C213.408 119.347 213.948 119.361 214.502 119.361C214.685 119.361 214.952 119.401 215.132 119.357C215.172 119.224 215.132 119.047 215.132 118.911C215.142 118.564 215.178 118.224 215.178 117.877C215.178 117.194 215.178 116.514 215.178 115.831C215.178 115.574 215.212 115.291 215.178 115.034C215.162 114.894 215.055 114.771 214.995 114.647C214.962 114.581 214.912 114.427 214.852 114.374C214.802 114.331 214.718 114.354 214.655 114.354C214.488 114.354 214.322 114.354 214.155 114.354H210.678C210.495 114.354 210.305 114.341 210.122 114.357C210.055 114.364 209.812 114.377 210.032 114.534H210.038Z" stroke="#D9D9D9" stroke-width="1.95" stroke-miterlimit="10" stroke-linecap="round"/>
<path d="M217.974 113.224C217.974 113.537 217.961 113.844 218.017 114.154C218.064 114.41 218.121 114.66 218.157 114.92C218.217 115.334 218.234 115.754 218.291 116.167C218.374 116.807 218.514 117.437 218.611 118.074C218.687 118.56 218.594 119.057 218.697 119.537" stroke="#D9D9D9" stroke-width="1.95" stroke-miterlimit="10" stroke-linecap="round"/>
<path d="M218.789 116.834C218.952 116.737 219.196 116.744 219.386 116.721C219.762 116.674 220.142 116.667 220.519 116.617C220.746 116.587 220.986 116.604 221.216 116.607C221.402 116.607 221.579 116.564 221.769 116.561" stroke="#D9D9D9" stroke-width="1.95" stroke-miterlimit="10" stroke-linecap="round"/>
<path d="M224.199 112.344C224.416 112.344 224.626 112.344 224.843 112.317C225.359 112.25 225.889 112.29 226.406 112.29C226.739 112.29 227.076 112.29 227.409 112.29C227.553 112.29 227.689 112.304 227.829 112.344C227.906 112.367 228.056 112.38 228.119 112.434C228.209 112.507 228.169 112.667 228.169 112.797C228.169 113.05 228.169 113.304 228.169 113.557C228.169 113.87 228.089 114.14 228.036 114.437C228.023 114.504 228.023 114.567 227.989 114.624C227.939 114.71 227.919 114.68 227.839 114.697C227.273 114.83 226.656 114.737 226.076 114.697C225.779 114.677 225.493 114.644 225.193 114.644C225.063 114.644 224.919 114.624 224.793 114.654C224.726 114.67 224.626 114.72 224.586 114.804C224.553 114.87 224.569 114.91 224.563 114.984C224.549 115.09 224.519 115.18 224.516 115.29C224.509 115.44 224.486 115.584 224.476 115.734C224.463 115.944 224.476 116.15 224.449 116.36C224.396 116.84 224.426 117.344 224.426 117.827C224.426 117.947 224.406 118.09 224.423 118.207C224.439 118.334 224.483 118.31 224.583 118.307C224.996 118.294 225.409 118.307 225.823 118.307C226.356 118.307 226.883 118.27 227.416 118.257C227.659 118.25 227.899 118.214 228.143 118.204C228.266 118.2 228.409 118.124 228.533 118.15" stroke="#D9D9D9" stroke-width="2.10333" stroke-miterlimit="10" stroke-linecap="round"/>
<path d="M231.008 111.104C231.008 112.72 230.975 114.34 231.042 115.954C231.052 116.17 231.048 116.387 231.062 116.604C231.075 116.82 231.125 117.044 231.145 117.267C231.172 117.577 231.215 117.887 231.245 118.197C231.268 118.447 231.278 118.687 231.278 118.937C231.278 118.974 231.278 119.01 231.278 119.047C231.278 119.034 231.278 119.197 231.278 119.137" stroke="#D9D9D9" stroke-width="1.95" stroke-miterlimit="10" stroke-linecap="round"/>
<path d="M231.008 115.84C231.074 115.797 231.118 115.794 231.204 115.794C231.328 115.797 231.441 115.777 231.561 115.757C231.838 115.714 232.124 115.76 232.404 115.724C232.948 115.65 233.524 115.7 234.074 115.7" stroke="#D9D9D9" stroke-width="1.95" stroke-miterlimit="10" stroke-linecap="round"/>
<path d="M61.9021 175.4C70.7331 175.4 77.8921 168.241 77.8921 159.41C77.8921 150.579 70.7331 143.42 61.9021 143.42C53.0711 143.42 45.9121 150.579 45.9121 159.41C45.9121 168.241 53.0711 175.4 61.9021 175.4Z" stroke="#D9D9D9" stroke-width="2.72667" stroke-miterlimit="10"/>
<path d="M49.9289 158.62C49.9289 159.433 49.9122 160.247 49.9289 161.057C49.9355 161.503 49.9922 161.957 50.0555 162.4C50.0755 162.547 50.1089 162.693 50.1122 162.84C50.1122 162.933 50.0922 163.087 50.1555 163.17C50.2289 163.27 50.5489 163.22 50.6689 163.22C51.3622 163.217 52.0589 163.3 52.7489 163.373C53.2989 163.433 53.8389 163.447 54.3922 163.447C54.5755 163.447 54.8422 163.487 55.0222 163.443C55.0622 163.31 55.0222 163.133 55.0222 162.997C55.0322 162.65 55.0689 162.31 55.0689 161.963C55.0689 161.28 55.0689 160.6 55.0689 159.917C55.0689 159.66 55.1022 159.377 55.0689 159.12C55.0522 158.98 54.9455 158.857 54.8855 158.733C54.8522 158.667 54.8022 158.513 54.7422 158.46C54.6922 158.417 54.6089 158.44 54.5455 158.44C54.3789 158.44 54.2122 158.44 54.0455 158.44H50.5689C50.3855 158.44 50.1955 158.427 50.0122 158.443C49.9455 158.45 49.7022 158.463 49.9222 158.62H49.9289Z" stroke="#D9D9D9" stroke-width="1.95" stroke-miterlimit="10" stroke-linecap="round"/>
<path d="M57.8646 157.313C57.8646 157.627 57.8513 157.933 57.908 158.243C57.9546 158.5 58.0113 158.75 58.048 159.01C58.108 159.423 58.1246 159.843 58.1813 160.257C58.2646 160.897 58.4046 161.527 58.5013 162.163C58.578 162.65 58.4846 163.147 58.588 163.627" stroke="#D9D9D9" stroke-width="1.95" stroke-miterlimit="10" stroke-linecap="round"/>
<path d="M58.6797 160.92C58.843 160.823 59.0864 160.83 59.2764 160.806C59.653 160.76 60.033 160.753 60.4097 160.703C60.6364 160.673 60.8764 160.69 61.1064 160.693C61.293 160.693 61.4697 160.65 61.6597 160.646" stroke="#D9D9D9" stroke-width="1.95" stroke-miterlimit="10" stroke-linecap="round"/>
<path d="M64.0898 156.433C64.3065 156.433 64.5165 156.433 64.7332 156.407C65.2498 156.34 65.7798 156.38 66.2965 156.38C66.6298 156.38 66.9665 156.38 67.2998 156.38C67.4432 156.38 67.5798 156.393 67.7198 156.433C67.7965 156.457 67.9465 156.47 68.0098 156.523C68.0998 156.597 68.0598 156.757 68.0598 156.887C68.0598 157.14 68.0598 157.393 68.0598 157.647C68.0598 157.96 67.9798 158.23 67.9265 158.527C67.9132 158.593 67.9132 158.657 67.8798 158.713C67.8298 158.8 67.8098 158.77 67.7298 158.787C67.1632 158.92 66.5465 158.827 65.9665 158.787C65.6698 158.767 65.3832 158.733 65.0832 158.733C64.9532 158.733 64.8098 158.713 64.6832 158.743C64.6165 158.76 64.5165 158.81 64.4765 158.893C64.4432 158.96 64.4598 159 64.4532 159.073C64.4398 159.18 64.4098 159.27 64.4065 159.38C64.3998 159.53 64.3765 159.673 64.3665 159.823C64.3532 160.033 64.3665 160.24 64.3398 160.45C64.2865 160.93 64.3165 161.433 64.3165 161.917C64.3165 162.037 64.2965 162.18 64.3132 162.297C64.3298 162.423 64.3732 162.4 64.4732 162.397C64.8865 162.383 65.2998 162.397 65.7132 162.397C66.2465 162.397 66.7732 162.36 67.3065 162.347C67.5498 162.34 67.7898 162.303 68.0332 162.293C68.1565 162.29 68.2998 162.213 68.4232 162.24" stroke="#D9D9D9" stroke-width="2.10333" stroke-miterlimit="10" stroke-linecap="round"/>
<path d="M70.899 155.193C70.899 156.81 70.8656 158.43 70.9323 160.043C70.9423 160.26 70.939 160.477 70.9523 160.693C70.9656 160.91 71.0156 161.133 71.0356 161.357C71.0623 161.667 71.1056 161.977 71.1356 162.287C71.159 162.537 71.169 162.777 71.169 163.027C71.169 163.063 71.169 163.1 71.169 163.137C71.169 163.123 71.169 163.287 71.169 163.227" stroke="#D9D9D9" stroke-width="1.95" stroke-miterlimit="10" stroke-linecap="round"/>
<path d="M70.8984 159.93C70.9651 159.887 71.0084 159.883 71.0951 159.883C71.2184 159.887 71.3318 159.867 71.4518 159.847C71.7284 159.803 72.0151 159.85 72.2951 159.813C72.8384 159.74 73.4151 159.79 73.9651 159.79" stroke="#D9D9D9" stroke-width="1.95" stroke-miterlimit="10" stroke-linecap="round"/>
<path d="M101.443 175.11C110.274 175.11 117.433 167.951 117.433 159.12C117.433 150.289 110.274 143.13 101.443 143.13C92.6121 143.13 85.4531 150.289 85.4531 159.12C85.4531 167.951 92.6121 175.11 101.443 175.11Z" stroke="#D9D9D9" stroke-width="2.72667" stroke-miterlimit="10"/>
<path d="M89.4679 158.33C89.4679 159.143 89.4513 159.956 89.4679 160.766C89.4746 161.213 89.5313 161.666 89.5946 162.11C89.6146 162.256 89.6479 162.403 89.6513 162.55C89.6513 162.643 89.6313 162.796 89.6946 162.88C89.7679 162.98 90.0879 162.93 90.2079 162.93C90.9013 162.926 91.5979 163.01 92.2879 163.083C92.8379 163.143 93.3779 163.156 93.9313 163.156C94.1146 163.156 94.3813 163.196 94.5613 163.153C94.6013 163.02 94.5613 162.843 94.5613 162.706C94.5713 162.36 94.6079 162.02 94.6079 161.673C94.6079 160.99 94.6079 160.31 94.6079 159.626C94.6079 159.37 94.6413 159.086 94.6079 158.83C94.5913 158.69 94.4846 158.566 94.4246 158.443C94.3913 158.376 94.3413 158.223 94.2813 158.17C94.2313 158.126 94.1479 158.15 94.0846 158.15C93.9179 158.15 93.7513 158.15 93.5846 158.15H90.1079C89.9246 158.15 89.7346 158.136 89.5513 158.153C89.4846 158.16 89.2413 158.173 89.4613 158.33H89.4679Z" stroke="#D9D9D9" stroke-width="1.95" stroke-miterlimit="10" stroke-linecap="round"/>
<path d="M97.4076 157.023C97.4076 157.337 97.3943 157.643 97.4509 157.953C97.4976 158.21 97.5543 158.46 97.5909 158.72C97.6509 159.133 97.6676 159.553 97.7243 159.967C97.8076 160.607 97.9476 161.237 98.0443 161.873C98.1209 162.36 98.0276 162.857 98.131 163.337" stroke="#D9D9D9" stroke-width="1.95" stroke-miterlimit="10" stroke-linecap="round"/>
<path d="M98.2188 160.63C98.3821 160.533 98.6254 160.54 98.8154 160.516C99.1921 160.47 99.5721 160.463 99.9488 160.413C100.175 160.383 100.415 160.4 100.645 160.403C100.832 160.403 101.009 160.36 101.199 160.356" stroke="#D9D9D9" stroke-width="1.95" stroke-miterlimit="10" stroke-linecap="round"/>
<path d="M103.631 156.143C103.848 156.143 104.058 156.143 104.274 156.117C104.791 156.05 105.321 156.09 105.838 156.09C106.171 156.09 106.508 156.09 106.841 156.09C106.984 156.09 107.121 156.103 107.261 156.143C107.338 156.167 107.488 156.18 107.551 156.233C107.641 156.307 107.601 156.467 107.601 156.597C107.601 156.85 107.601 157.103 107.601 157.357C107.601 157.67 107.521 157.94 107.468 158.237C107.454 158.303 107.454 158.367 107.421 158.423C107.371 158.51 107.351 158.48 107.271 158.497C106.704 158.63 106.088 158.537 105.508 158.497C105.211 158.477 104.924 158.443 104.624 158.443C104.494 158.443 104.351 158.423 104.224 158.453C104.158 158.47 104.058 158.52 104.018 158.603C103.984 158.67 104.001 158.71 103.994 158.783C103.981 158.89 103.951 158.98 103.948 159.09C103.941 159.24 103.918 159.383 103.908 159.533C103.894 159.743 103.908 159.95 103.881 160.16C103.828 160.64 103.858 161.143 103.858 161.627C103.858 161.747 103.838 161.89 103.854 162.007C103.871 162.133 103.914 162.11 104.014 162.107C104.428 162.093 104.841 162.107 105.254 162.107C105.788 162.107 106.314 162.07 106.848 162.057C107.091 162.05 107.331 162.013 107.574 162.003C107.698 162 107.841 161.923 107.964 161.95" stroke="#D9D9D9" stroke-width="2.10333" stroke-miterlimit="10" stroke-linecap="round"/>
<path d="M110.442 154.903C110.442 156.52 110.409 158.14 110.475 159.753C110.485 159.97 110.482 160.187 110.495 160.403C110.509 160.62 110.559 160.843 110.579 161.067C110.605 161.377 110.649 161.687 110.679 161.997C110.702 162.247 110.712 162.487 110.712 162.737C110.712 162.773 110.712 162.81 110.712 162.847C110.712 162.833 110.712 162.997 110.712 162.937" stroke="#D9D9D9" stroke-width="1.95" stroke-miterlimit="10" stroke-linecap="round"/>
<path d="M110.441 159.637C110.508 159.594 110.551 159.59 110.638 159.59C110.761 159.594 110.875 159.574 110.995 159.554C111.271 159.51 111.558 159.557 111.838 159.52C112.381 159.447 112.958 159.497 113.508 159.497" stroke="#D9D9D9" stroke-width="1.95" stroke-miterlimit="10" stroke-linecap="round"/>
<path d="M141.269 175.4C150.1 175.4 157.259 168.241 157.259 159.41C157.259 150.579 150.1 143.42 141.269 143.42C132.438 143.42 125.279 150.579 125.279 159.41C125.279 168.241 132.438 175.4 141.269 175.4Z" stroke="#D9D9D9" stroke-width="2.72667" stroke-miterlimit="10"/>
<path d="M129.296 158.62C129.296 159.433 129.279 160.247 129.296 161.057C129.303 161.503 129.359 161.957 129.423 162.4C129.443 162.547 129.476 162.693 129.479 162.84C129.479 162.933 129.459 163.087 129.523 163.17C129.596 163.27 129.916 163.22 130.036 163.22C130.729 163.217 131.426 163.3 132.116 163.373C132.666 163.433 133.206 163.447 133.759 163.447C133.943 163.447 134.209 163.487 134.389 163.443C134.429 163.31 134.389 163.133 134.389 162.997C134.399 162.65 134.436 162.31 134.436 161.963C134.436 161.28 134.436 160.6 134.436 159.917C134.436 159.66 134.469 159.377 134.436 159.12C134.419 158.98 134.313 158.857 134.253 158.733C134.219 158.667 134.169 158.513 134.109 158.46C134.059 158.417 133.976 158.44 133.913 158.44C133.746 158.44 133.579 158.44 133.413 158.44H129.936C129.753 158.44 129.563 158.427 129.379 158.443C129.313 158.45 129.069 158.463 129.289 158.62H129.296Z" stroke="#D9D9D9" stroke-width="1.95" stroke-miterlimit="10" stroke-linecap="round"/>
<path d="M137.236 157.313C137.236 157.627 137.222 157.933 137.279 158.243C137.326 158.5 137.382 158.75 137.419 159.01C137.479 159.423 137.496 159.843 137.552 160.257C137.636 160.897 137.776 161.527 137.872 162.163C137.949 162.65 137.856 163.147 137.959 163.627" stroke="#D9D9D9" stroke-width="1.95" stroke-miterlimit="10" stroke-linecap="round"/>
<path d="M138.047 160.92C138.21 160.823 138.454 160.83 138.644 160.806C139.02 160.76 139.4 160.753 139.777 160.703C140.004 160.673 140.244 160.69 140.474 160.693C140.66 160.693 140.837 160.65 141.027 160.646" stroke="#D9D9D9" stroke-width="1.95" stroke-miterlimit="10" stroke-linecap="round"/>
<path d="M143.459 156.433C143.676 156.433 143.886 156.433 144.102 156.407C144.619 156.34 145.149 156.38 145.666 156.38C145.999 156.38 146.336 156.38 146.669 156.38C146.812 156.38 146.949 156.393 147.089 156.433C147.166 156.457 147.316 156.47 147.379 156.523C147.469 156.597 147.429 156.757 147.429 156.887C147.429 157.14 147.429 157.393 147.429 157.647C147.429 157.96 147.349 158.23 147.296 158.527C147.282 158.593 147.282 158.657 147.249 158.713C147.199 158.8 147.179 158.77 147.099 158.787C146.532 158.92 145.916 158.827 145.336 158.787C145.039 158.767 144.752 158.733 144.452 158.733C144.322 158.733 144.179 158.713 144.052 158.743C143.986 158.76 143.886 158.81 143.846 158.893C143.812 158.96 143.829 159 143.822 159.073C143.809 159.18 143.779 159.27 143.776 159.38C143.769 159.53 143.746 159.673 143.736 159.823C143.722 160.033 143.736 160.24 143.709 160.45C143.656 160.93 143.686 161.433 143.686 161.917C143.686 162.037 143.666 162.18 143.682 162.297C143.699 162.423 143.742 162.4 143.842 162.397C144.256 162.383 144.669 162.397 145.082 162.397C145.616 162.397 146.142 162.36 146.676 162.347C146.919 162.34 147.159 162.303 147.402 162.293C147.526 162.29 147.669 162.213 147.792 162.24" stroke="#D9D9D9" stroke-width="2.10333" stroke-miterlimit="10" stroke-linecap="round"/>
<path d="M150.27 155.193C150.27 156.81 150.237 158.43 150.303 160.043C150.313 160.26 150.31 160.477 150.323 160.693C150.337 160.91 150.387 161.133 150.407 161.357C150.433 161.667 150.477 161.977 150.507 162.287C150.53 162.537 150.54 162.777 150.54 163.027C150.54 163.063 150.54 163.1 150.54 163.137C150.54 163.123 150.54 163.287 150.54 163.227" stroke="#D9D9D9" stroke-width="1.95" stroke-miterlimit="10" stroke-linecap="round"/>
<path d="M150.27 159.93C150.336 159.887 150.38 159.883 150.466 159.883C150.59 159.887 150.703 159.867 150.823 159.847C151.1 159.803 151.386 159.85 151.666 159.813C152.21 159.74 152.786 159.79 153.336 159.79" stroke="#D9D9D9" stroke-width="1.95" stroke-miterlimit="10" stroke-linecap="round"/>
<path d="M181.972 175.11C190.803 175.11 197.962 167.951 197.962 159.12C197.962 150.289 190.803 143.13 181.972 143.13C173.141 143.13 165.982 150.289 165.982 159.12C165.982 167.951 173.141 175.11 181.972 175.11Z" stroke="#D9D9D9" stroke-width="2.72667" stroke-miterlimit="10"/>
<path d="M169.999 158.33C169.999 159.143 169.983 159.956 169.999 160.766C170.006 161.213 170.063 161.666 170.126 162.11C170.146 162.256 170.179 162.403 170.183 162.55C170.183 162.643 170.163 162.796 170.226 162.88C170.299 162.98 170.619 162.93 170.739 162.93C171.433 162.926 172.129 163.01 172.819 163.083C173.369 163.143 173.909 163.156 174.463 163.156C174.646 163.156 174.913 163.196 175.093 163.153C175.133 163.02 175.093 162.843 175.093 162.706C175.103 162.36 175.139 162.02 175.139 161.673C175.139 160.99 175.139 160.31 175.139 159.626C175.139 159.37 175.173 159.086 175.139 158.83C175.123 158.69 175.016 158.566 174.956 158.443C174.923 158.376 174.873 158.223 174.813 158.17C174.763 158.126 174.679 158.15 174.616 158.15C174.449 158.15 174.283 158.15 174.116 158.15H170.639C170.456 158.15 170.266 158.136 170.083 158.153C170.016 158.16 169.773 158.173 169.993 158.33H169.999Z" stroke="#D9D9D9" stroke-width="1.95" stroke-miterlimit="10" stroke-linecap="round"/>
<path d="M177.935 157.023C177.935 157.337 177.922 157.643 177.978 157.953C178.025 158.21 178.082 158.46 178.118 158.72C178.178 159.133 178.195 159.553 178.252 159.967C178.335 160.607 178.475 161.237 178.572 161.873C178.648 162.36 178.555 162.857 178.658 163.337" stroke="#D9D9D9" stroke-width="1.95" stroke-miterlimit="10" stroke-linecap="round"/>
<path d="M178.75 160.63C178.913 160.533 179.157 160.54 179.347 160.516C179.723 160.47 180.103 160.463 180.48 160.413C180.707 160.383 180.947 160.4 181.177 160.403C181.363 160.403 181.54 160.36 181.73 160.356" stroke="#D9D9D9" stroke-width="1.95" stroke-miterlimit="10" stroke-linecap="round"/>
<path d="M184.158 156.143C184.375 156.143 184.585 156.143 184.802 156.117C185.318 156.05 185.848 156.09 186.365 156.09C186.698 156.09 187.035 156.09 187.368 156.09C187.512 156.09 187.648 156.103 187.788 156.143C187.865 156.167 188.015 156.18 188.078 156.233C188.168 156.307 188.128 156.467 188.128 156.597C188.128 156.85 188.128 157.103 188.128 157.357C188.128 157.67 188.048 157.94 187.995 158.237C187.982 158.303 187.982 158.367 187.948 158.423C187.898 158.51 187.878 158.48 187.798 158.497C187.232 158.63 186.615 158.537 186.035 158.497C185.738 158.477 185.452 158.443 185.152 158.443C185.022 158.443 184.878 158.423 184.752 158.453C184.685 158.47 184.585 158.52 184.545 158.603C184.512 158.67 184.528 158.71 184.522 158.783C184.508 158.89 184.478 158.98 184.475 159.09C184.468 159.24 184.445 159.383 184.435 159.533C184.422 159.743 184.435 159.95 184.408 160.16C184.355 160.64 184.385 161.143 184.385 161.627C184.385 161.747 184.365 161.89 184.382 162.007C184.398 162.133 184.442 162.11 184.542 162.107C184.955 162.093 185.368 162.107 185.782 162.107C186.315 162.107 186.842 162.07 187.375 162.057C187.618 162.05 187.858 162.013 188.102 162.003C188.225 162 188.368 161.923 188.492 161.95" stroke="#D9D9D9" stroke-width="2.10333" stroke-miterlimit="10" stroke-linecap="round"/>
<path d="M190.969 154.903C190.969 156.52 190.936 158.14 191.003 159.753C191.013 159.97 191.009 160.187 191.023 160.403C191.036 160.62 191.086 160.843 191.106 161.067C191.133 161.377 191.176 161.687 191.206 161.997C191.229 162.247 191.239 162.487 191.239 162.737C191.239 162.773 191.239 162.81 191.239 162.847C191.239 162.833 191.239 162.997 191.239 162.937" stroke="#D9D9D9" stroke-width="1.95" stroke-miterlimit="10" stroke-linecap="round"/>
<path d="M190.969 159.637C191.035 159.594 191.079 159.59 191.165 159.59C191.289 159.594 191.402 159.574 191.522 159.554C191.799 159.51 192.085 159.557 192.365 159.52C192.909 159.447 193.485 159.497 194.035 159.497" stroke="#D9D9D9" stroke-width="1.95" stroke-miterlimit="10" stroke-linecap="round"/>
<path d="M223.256 175.11C232.087 175.11 239.246 167.951 239.246 159.12C239.246 150.289 232.087 143.13 223.256 143.13C214.425 143.13 207.266 150.289 207.266 159.12C207.266 167.951 214.425 175.11 223.256 175.11Z" stroke="#D9D9D9" stroke-width="2.72667" stroke-miterlimit="10"/>
<path d="M211.282 158.33C211.282 159.143 211.266 159.956 211.282 160.766C211.289 161.213 211.346 161.666 211.409 162.11C211.429 162.256 211.462 162.403 211.466 162.55C211.466 162.643 211.446 162.796 211.509 162.88C211.582 162.98 211.902 162.93 212.022 162.93C212.716 162.926 213.412 163.01 214.102 163.083C214.652 163.143 215.192 163.156 215.746 163.156C215.929 163.156 216.196 163.196 216.376 163.153C216.416 163.02 216.376 162.843 216.376 162.706C216.386 162.36 216.422 162.02 216.422 161.673C216.422 160.99 216.422 160.31 216.422 159.626C216.422 159.37 216.456 159.086 216.422 158.83C216.406 158.69 216.299 158.566 216.239 158.443C216.206 158.376 216.156 158.223 216.096 158.17C216.046 158.126 215.962 158.15 215.899 158.15C215.732 158.15 215.566 158.15 215.399 158.15H211.922C211.739 158.15 211.549 158.136 211.366 158.153C211.299 158.16 211.056 158.173 211.276 158.33H211.282Z" stroke="#D9D9D9" stroke-width="1.95" stroke-miterlimit="10" stroke-linecap="round"/>
<path d="M219.218 157.023C219.218 157.337 219.205 157.643 219.261 157.953C219.308 158.21 219.365 158.46 219.402 158.72C219.462 159.133 219.478 159.553 219.535 159.967C219.618 160.607 219.758 161.237 219.855 161.873C219.932 162.36 219.838 162.857 219.942 163.337" stroke="#D9D9D9" stroke-width="1.95" stroke-miterlimit="10" stroke-linecap="round"/>
<path d="M220.033 160.63C220.197 160.533 220.44 160.54 220.63 160.516C221.007 160.47 221.387 160.463 221.763 160.413C221.99 160.383 222.23 160.4 222.46 160.403C222.647 160.403 222.823 160.36 223.013 160.356" stroke="#D9D9D9" stroke-width="1.95" stroke-miterlimit="10" stroke-linecap="round"/>
<path d="M225.443 156.143C225.66 156.143 225.87 156.143 226.087 156.117C226.603 156.05 227.133 156.09 227.65 156.09C227.983 156.09 228.32 156.09 228.653 156.09C228.797 156.09 228.933 156.103 229.073 156.143C229.15 156.167 229.3 156.18 229.363 156.233C229.453 156.307 229.413 156.467 229.413 156.597C229.413 156.85 229.413 157.103 229.413 157.357C229.413 157.67 229.333 157.94 229.28 158.237C229.267 158.303 229.267 158.367 229.233 158.423C229.183 158.51 229.163 158.48 229.083 158.497C228.517 158.63 227.9 158.537 227.32 158.497C227.023 158.477 226.737 158.443 226.437 158.443C226.307 158.443 226.163 158.423 226.037 158.453C225.97 158.47 225.87 158.52 225.83 158.603C225.797 158.67 225.813 158.71 225.807 158.783C225.793 158.89 225.763 158.98 225.76 159.09C225.753 159.24 225.73 159.383 225.72 159.533C225.707 159.743 225.72 159.95 225.693 160.16C225.64 160.64 225.67 161.143 225.67 161.627C225.67 161.747 225.65 161.89 225.667 162.007C225.683 162.133 225.727 162.11 225.827 162.107C226.24 162.093 226.653 162.107 227.067 162.107C227.6 162.107 228.127 162.07 228.66 162.057C228.903 162.05 229.143 162.013 229.387 162.003C229.51 162 229.653 161.923 229.777 161.95" stroke="#D9D9D9" stroke-width="2.10333" stroke-miterlimit="10" stroke-linecap="round"/>
<path d="M232.252 154.903C232.252 156.52 232.219 158.14 232.286 159.753C232.296 159.97 232.292 160.187 232.306 160.403C232.319 160.62 232.369 160.843 232.389 161.067C232.416 161.377 232.459 161.687 232.489 161.997C232.512 162.247 232.522 162.487 232.522 162.737C232.522 162.773 232.522 162.81 232.522 162.847C232.522 162.833 232.522 162.997 232.522 162.937" stroke="#D9D9D9" stroke-width="1.95" stroke-miterlimit="10" stroke-linecap="round"/>
<path d="M232.252 159.637C232.319 159.594 232.362 159.59 232.449 159.59C232.572 159.594 232.685 159.574 232.805 159.554C233.082 159.51 233.369 159.557 233.649 159.52C234.192 159.447 234.769 159.497 235.319 159.497" stroke="#D9D9D9" stroke-width="1.95" stroke-miterlimit="10" stroke-linecap="round"/>
<path d="M61.4568 128.257C70.2878 128.257 77.4468 121.098 77.4468 112.267C77.4468 103.436 70.2878 96.2773 61.4568 96.2773C52.6258 96.2773 45.4668 103.436 45.4668 112.267C45.4668 121.098 52.6258 128.257 61.4568 128.257Z" stroke="#D54400" stroke-width="2.72667" stroke-miterlimit="10"/>
<path d="M62.9972 109.668H61.0072V103.961H60.9672L59.3105 104.968V103.271L61.1639 102.131H62.9972V109.671V109.668Z" fill="#D54400"/>
<path d="M57.4484 120.127H52.7051V113.657H57.4484V120.127ZM54.3551 118.821H55.7917V114.951H54.3551V118.821ZM60.1451 122.414H58.4684V112.777H60.1451V122.414ZM61.4517 117.657H59.7784V116.277H61.4517V117.657Z" fill="#D54400"/>
<path d="M66.5715 117.444H63.7381V119.391H62.0815V116.151H64.9048V114.871H62.0781V113.531H66.5715V117.441V117.444ZM65.1748 118.834C65.8348 118.801 66.4948 118.727 67.1548 118.621L67.3015 119.937C66.6181 120.054 65.9281 120.137 65.2348 120.187C64.5415 120.237 63.7681 120.257 62.9148 120.251H62.0815V118.877H62.9148C63.7615 118.884 64.5148 118.871 65.1748 118.837V118.834ZM69.3648 122.444H67.7148V112.777H69.3648V122.444ZM70.6715 117.674H68.9981V116.301H70.6715V117.674Z" fill="#D54400"/>
<path d="M98.4255 134.923C107.257 134.923 114.416 127.764 114.416 118.933C114.416 110.102 107.257 102.943 98.4255 102.943C89.5945 102.943 82.4355 110.102 82.4355 118.933C82.4355 127.764 89.5945 134.923 98.4255 134.923Z" stroke="#D54400" stroke-width="2.72667" stroke-miterlimit="10"/>
<path d="M95.3247 114.907L98.1281 112.553C98.3514 112.37 98.5247 112.21 98.6514 112.073C98.7781 111.937 98.8781 111.797 98.9481 111.65C99.0181 111.503 99.0547 111.343 99.0547 111.167C99.0547 110.977 99.0114 110.807 98.9247 110.66C98.8381 110.513 98.7181 110.403 98.5714 110.33C98.4214 110.257 98.2514 110.217 98.0547 110.217C97.8581 110.217 97.6914 110.257 97.5414 110.333C97.3914 110.41 97.2747 110.527 97.1981 110.68C97.1214 110.833 97.0814 111.017 97.0814 111.227H95.1914C95.1914 110.713 95.3114 110.263 95.5481 109.877C95.7847 109.49 96.1214 109.193 96.5514 108.99C96.9814 108.787 97.4847 108.687 98.0614 108.687C98.6381 108.687 99.1614 108.783 99.6014 108.973C100.041 109.163 100.381 109.433 100.621 109.783C100.861 110.133 100.985 110.537 100.985 111C100.985 111.303 100.925 111.593 100.805 111.873C100.685 112.153 100.471 112.467 100.161 112.813C99.8514 113.16 99.4181 113.567 98.8547 114.04L98.0881 114.697V114.743H101.071V116.333H95.3281V114.907H95.3247Z" fill="#D54400"/>
<path d="M94.4152 126.793H89.6719V120.323H94.4152V126.793ZM91.3219 125.487H92.7585V121.617H91.3219V125.487ZM97.1119 129.08H95.4352V119.443H97.1119V129.08ZM98.4185 124.323H96.7452V122.943H98.4185V124.323Z" fill="#D54400"/>
<path d="M103.538 124.11H100.705V126.057H99.0482V122.817H101.872V121.537H99.0449V120.197H103.538V124.107V124.11ZM102.145 125.5C102.805 125.467 103.465 125.393 104.125 125.287L104.272 126.603C103.588 126.72 102.898 126.803 102.205 126.853C101.512 126.903 100.738 126.923 99.8849 126.917H99.0516V125.543H99.8849C100.732 125.55 101.485 125.537 102.145 125.503V125.5ZM106.332 129.11H104.682V119.443H106.332V129.11ZM107.638 124.34H105.965V122.967H107.638V124.34Z" fill="#D54400"/>
<path d="M140.183 130.299C149.014 130.299 156.173 123.14 156.173 114.309C156.173 105.478 149.014 98.3193 140.183 98.3193C131.352 98.3193 124.193 105.478 124.193 114.309C124.193 123.14 131.352 130.299 140.183 130.299Z" stroke="#D54400" stroke-width="2.72667" stroke-miterlimit="10"/>
<path d="M138.443 111.509C137.98 111.306 137.623 111.023 137.367 110.659C137.11 110.296 136.98 109.886 136.977 109.429H138.977C138.977 109.576 139.027 109.706 139.117 109.826C139.207 109.943 139.333 110.036 139.49 110.106C139.65 110.173 139.827 110.206 140.02 110.206C140.213 110.206 140.393 110.172 140.55 110.102C140.703 110.032 140.823 109.936 140.907 109.809C140.99 109.682 141.03 109.542 141.027 109.382C141.027 109.222 140.983 109.083 140.89 108.959C140.793 108.836 140.657 108.739 140.48 108.669C140.3 108.599 140.1 108.566 139.873 108.566H139.107V107.186H139.873C140.077 107.186 140.263 107.152 140.427 107.082C140.59 107.012 140.72 106.916 140.807 106.789C140.893 106.662 140.937 106.526 140.93 106.372C140.937 106.222 140.903 106.089 140.83 105.969C140.757 105.849 140.647 105.759 140.507 105.692C140.367 105.629 140.207 105.596 140.03 105.596C139.843 105.596 139.673 105.629 139.523 105.696C139.373 105.762 139.253 105.859 139.167 105.979C139.08 106.103 139.033 106.239 139.027 106.396H137.127C137.137 105.943 137.267 105.539 137.513 105.189C137.76 104.839 138.103 104.562 138.543 104.362C138.98 104.162 139.477 104.062 140.033 104.062C140.59 104.062 141.07 104.156 141.497 104.342C141.923 104.529 142.257 104.789 142.497 105.122C142.737 105.456 142.853 105.829 142.847 106.249C142.853 106.519 142.793 106.766 142.663 106.986C142.533 107.206 142.35 107.382 142.117 107.516C141.883 107.649 141.617 107.732 141.323 107.769V107.832C141.72 107.872 142.053 107.973 142.327 108.126C142.6 108.279 142.803 108.476 142.94 108.716C143.077 108.956 143.14 109.233 143.133 109.543C143.14 109.979 143.01 110.369 142.747 110.713C142.48 111.056 142.113 111.322 141.643 111.516C141.173 111.709 140.637 111.809 140.03 111.809C139.423 111.809 138.92 111.709 138.457 111.506L138.443 111.509Z" fill="#D54400"/>
<path d="M136.175 122.169H131.432V115.699H136.175V122.169ZM133.082 120.863H134.518V116.993H133.082V120.863ZM138.872 124.456H137.195V114.819H138.872V124.456ZM140.182 119.699H138.508V118.319H140.182V119.699Z" fill="#D54400"/>
<path d="M145.298 119.486H142.465V121.433H140.808V118.193H143.631V116.913H140.805V115.573H145.298V119.483V119.486ZM143.905 120.876C144.565 120.843 145.225 120.769 145.885 120.663L146.031 121.979C145.348 122.096 144.658 122.179 143.965 122.229C143.271 122.279 142.498 122.299 141.645 122.293H140.811V120.919H141.645C142.491 120.926 143.245 120.913 143.905 120.879V120.876ZM148.091 124.486H146.441V114.819H148.091V124.486ZM149.398 119.716H147.725V118.343H149.398V119.716Z" fill="#D54400"/>
<path d="M178.707 133.257C187.538 133.257 194.697 126.098 194.697 117.267C194.697 108.436 187.538 101.277 178.707 101.277C169.876 101.277 162.717 108.436 162.717 117.267C162.717 126.098 169.876 133.257 178.707 133.257Z" stroke="#D54400" stroke-width="2.72667" stroke-miterlimit="10"/>
<path d="M175.197 111.924L178.251 107.127H179.647V109.201H178.851L177.164 111.857V111.921H181.647V113.474H175.201V111.927L175.197 111.924ZM178.864 112.994L178.901 112.321V107.124H180.761V114.664H178.864V112.991V112.994Z" fill="#D54400"/>
<path d="M174.698 125.127H169.955V118.657H174.698V125.127ZM171.602 123.821H173.038V119.951H171.602V123.821ZM177.395 127.414H175.718V117.777H177.395V127.414ZM178.702 122.657H177.028V121.277H178.702V122.657Z" fill="#D54400"/>
<path d="M183.821 122.444H180.988V124.391H179.331V121.151H182.155V119.871H179.328V118.531H183.821V122.441V122.444ZM182.425 123.834C183.085 123.801 183.745 123.727 184.405 123.621L184.551 124.937C183.868 125.054 183.178 125.137 182.485 125.187C181.791 125.237 181.018 125.257 180.165 125.251H179.331V123.877H180.165C181.011 123.884 181.765 123.871 182.425 123.837V123.834ZM186.615 127.444H184.965V117.777H186.615V127.444ZM187.921 122.674H186.248V121.301H187.921V122.674Z" fill="#D54400"/>
<path d="M226.013 125.257C234.844 125.257 242.003 118.098 242.003 109.267C242.003 100.436 234.844 93.2773 226.013 93.2773C217.182 93.2773 210.023 100.436 210.023 109.267C210.023 118.098 217.182 125.257 226.013 125.257Z" stroke="#D54400" stroke-width="2.72667" stroke-miterlimit="10"/>
<path d="M224.387 106.467C223.937 106.264 223.587 105.981 223.334 105.617C223.081 105.254 222.954 104.844 222.947 104.387H224.874C224.884 104.564 224.934 104.721 225.027 104.851C225.121 104.984 225.244 105.084 225.397 105.154C225.551 105.224 225.721 105.261 225.904 105.261C226.121 105.261 226.311 105.214 226.474 105.121C226.637 105.027 226.767 104.897 226.861 104.727C226.954 104.561 227.001 104.364 227.001 104.147C227.001 103.931 226.954 103.721 226.861 103.551C226.767 103.384 226.637 103.251 226.474 103.157C226.307 103.064 226.117 103.017 225.897 103.017C225.644 103.017 225.434 103.067 225.267 103.167C225.101 103.267 224.971 103.417 224.877 103.614H223.107L223.441 99.124H228.451V100.714H225.071L224.914 102.411H224.954C225.081 102.181 225.291 101.994 225.581 101.847C225.871 101.701 226.201 101.627 226.567 101.627C227.011 101.627 227.414 101.731 227.774 101.941C228.134 102.151 228.414 102.441 228.614 102.814C228.814 103.187 228.914 103.611 228.911 104.081C228.911 104.597 228.791 105.061 228.537 105.467C228.284 105.874 227.931 106.194 227.477 106.424C227.021 106.654 226.497 106.767 225.901 106.767C225.337 106.767 224.831 106.667 224.384 106.464L224.387 106.467Z" fill="#D54400"/>
<path d="M222.005 117.127H217.262V110.657H222.005V117.127ZM218.912 115.821H220.348V111.951H218.912V115.821ZM224.702 119.414H223.025V109.777H224.702V119.414ZM226.012 114.657H224.338V113.277H226.012V114.657Z" fill="#D54400"/>
<path d="M231.128 114.444H228.295V116.391H226.638V113.151H229.461V111.871H226.635V110.531H231.128V114.441V114.444ZM229.735 115.834C230.395 115.801 231.055 115.727 231.715 115.621L231.861 116.937C231.178 117.054 230.488 117.137 229.795 117.187C229.101 117.237 228.328 117.257 227.475 117.251H226.641V115.877H227.475C228.321 115.884 229.075 115.871 229.735 115.837V115.834ZM233.921 119.444H232.271V109.777H233.921V119.444ZM235.228 114.674H233.555V113.301H235.228V114.674Z" fill="#D54400"/>
<path d="M57.7869 180.564C66.6179 180.564 73.7769 173.405 73.7769 164.574C73.7769 155.743 66.6179 148.584 57.7869 148.584C48.9558 148.584 41.7969 155.743 41.7969 164.574C41.7969 173.405 48.9558 180.564 57.7869 180.564Z" stroke="#D54400" stroke-width="2.72667" stroke-miterlimit="10"/>
<path d="M56.1728 161.69C55.6862 161.43 55.2995 161.02 55.0095 160.457C54.7195 159.894 54.5762 159.174 54.5762 158.297C54.5762 157.487 54.7095 156.784 54.9795 156.184C55.2495 155.584 55.6295 155.127 56.1228 154.807C56.6162 154.487 57.1862 154.327 57.8362 154.327C58.3695 154.327 58.8495 154.43 59.2695 154.637C59.6928 154.844 60.0295 155.124 60.2795 155.477C60.5295 155.83 60.6795 156.227 60.7262 156.66H58.7628C58.7362 156.517 58.6762 156.397 58.5895 156.297C58.5028 156.197 58.3962 156.127 58.2662 156.08C58.1362 156.037 57.9928 156.014 57.8328 156.014C57.5428 156.014 57.3062 156.1 57.1162 156.27C56.9262 156.44 56.7862 156.68 56.6928 156.99C56.5995 157.3 56.5495 157.667 56.5428 158.094H56.5828C56.6828 157.867 56.8295 157.67 57.0262 157.504C57.2195 157.337 57.4462 157.21 57.7028 157.124C57.9595 157.037 58.2295 156.994 58.5095 156.994C58.9595 156.994 59.3595 157.094 59.7095 157.297C60.0595 157.5 60.3295 157.784 60.5228 158.147C60.7162 158.51 60.8128 158.924 60.8128 159.387C60.8128 159.917 60.6862 160.387 60.4362 160.79C60.1828 161.194 59.8295 161.51 59.3762 161.737C58.9195 161.964 58.3995 162.077 57.8128 162.077C57.2262 162.077 56.6595 161.947 56.1728 161.69ZM58.3595 160.42C58.5228 160.324 58.6528 160.19 58.7462 160.02C58.8395 159.854 58.8862 159.664 58.8862 159.454C58.8862 159.244 58.8395 159.047 58.7462 158.877C58.6528 158.71 58.5228 158.577 58.3595 158.484C58.1928 158.39 58.0095 158.344 57.7995 158.344C57.5895 158.344 57.4162 158.39 57.2528 158.484C57.0895 158.577 56.9595 158.71 56.8662 158.88C56.7728 159.05 56.7228 159.24 56.7162 159.454C56.7228 159.66 56.7728 159.85 56.8662 160.02C56.9595 160.19 57.0895 160.32 57.2528 160.42C57.4162 160.517 57.5995 160.567 57.7995 160.567C57.9995 160.567 58.1928 160.517 58.3595 160.42Z" fill="#D54400"/>
<path d="M53.7785 172.434H49.0352V165.964H53.7785V172.434ZM50.6852 171.127H52.1218V167.257H50.6852V171.127ZM56.4785 174.721H54.8018V165.084H56.4785V174.721ZM57.7852 169.964H56.1118V168.584H57.7852V169.964Z" fill="#D54400"/>
<path d="M62.9054 169.751H60.0721V171.697H58.4154V168.457H61.2388V167.177H58.4121V165.837H62.9054V169.747V169.751ZM61.5088 171.141C62.1688 171.107 62.8288 171.034 63.4888 170.927L63.6354 172.244C62.9521 172.361 62.2621 172.444 61.5688 172.494C60.8754 172.544 60.1021 172.564 59.2488 172.557H58.4154V171.184H59.2488C60.0954 171.191 60.8488 171.177 61.5088 171.144V171.141ZM65.6954 174.751H64.0454V165.084H65.6954V174.751ZM67.0054 169.981H65.3321V168.607H67.0054V169.981Z" fill="#D54400"/>
<path d="M105.761 175.226C114.593 175.226 121.751 168.067 121.751 159.236C121.751 150.405 114.593 143.246 105.761 143.246C96.9305 143.246 89.7715 150.405 89.7715 159.236C89.7715 168.067 96.9305 175.226 105.761 175.226Z" stroke="#D54400" stroke-width="2.72667" stroke-miterlimit="10"/>
<path d="M106.324 150.726V150.686H102.814V149.096H108.381V150.689L105.374 156.636H103.334L106.324 150.726Z" fill="#D54400"/>
<path d="M101.751 167.099H97.0078V160.629H101.751V167.099ZM98.6578 165.792H100.094V161.922H98.6578V165.792ZM104.451 169.386H102.774V159.749H104.451V169.386ZM105.758 164.629H104.084V163.249H105.758V164.629Z" fill="#D54400"/>
<path d="M110.878 164.416H108.045V166.362H106.388V163.122H109.211V161.842H106.385V160.502H110.878V164.412V164.416ZM109.481 165.806C110.141 165.772 110.801 165.699 111.461 165.592L111.608 166.909C110.925 167.026 110.235 167.109 109.541 167.159C108.848 167.209 108.075 167.229 107.221 167.222H106.388V165.849H107.221C108.068 165.856 108.821 165.842 109.481 165.809V165.806ZM113.668 169.416H112.018V159.749H113.668V169.416ZM114.975 164.646H113.301V163.272H114.975V164.646Z" fill="#D54400"/>
<path d="M141.068 184.226C149.899 184.226 157.058 177.067 157.058 168.236C157.058 159.405 149.899 152.246 141.068 152.246C132.237 152.246 125.078 159.405 125.078 168.236C125.078 177.067 132.237 184.226 141.068 184.226Z" stroke="#D54400" stroke-width="2.72667" stroke-miterlimit="10"/>
<path d="M139.416 165.463C138.939 165.276 138.562 165.016 138.289 164.69C138.016 164.363 137.879 163.996 137.879 163.593C137.879 163.283 137.956 163 138.112 162.74C138.269 162.48 138.479 162.263 138.739 162.09C139.002 161.916 139.292 161.81 139.616 161.763V161.7C139.342 161.65 139.092 161.546 138.869 161.39C138.646 161.233 138.469 161.036 138.342 160.8C138.216 160.563 138.152 160.31 138.152 160.04C138.152 159.653 138.276 159.306 138.522 158.993C138.769 158.68 139.112 158.436 139.549 158.26C139.986 158.083 140.476 157.993 141.019 157.993C141.562 157.993 142.056 158.083 142.489 158.26C142.926 158.436 143.266 158.683 143.509 158.993C143.752 159.303 143.876 159.653 143.876 160.04C143.876 160.31 143.812 160.563 143.686 160.8C143.559 161.036 143.386 161.233 143.166 161.39C142.946 161.546 142.692 161.65 142.409 161.7V161.763C142.736 161.81 143.032 161.916 143.296 162.09C143.559 162.263 143.772 162.476 143.926 162.74C144.079 163 144.159 163.286 144.159 163.593C144.159 163.996 144.022 164.36 143.749 164.69C143.476 165.016 143.102 165.276 142.622 165.463C142.146 165.65 141.609 165.743 141.016 165.743C140.422 165.743 139.886 165.65 139.409 165.463H139.416ZM141.556 164.176C141.712 164.096 141.839 163.983 141.929 163.84C142.019 163.696 142.066 163.54 142.066 163.366C142.066 163.193 142.019 163.03 141.929 162.883C141.839 162.74 141.716 162.626 141.556 162.55C141.399 162.473 141.219 162.433 141.022 162.433C140.826 162.433 140.649 162.473 140.492 162.55C140.332 162.626 140.209 162.74 140.119 162.883C140.029 163.026 139.982 163.186 139.982 163.366C139.982 163.546 140.026 163.7 140.119 163.84C140.209 163.983 140.332 164.093 140.492 164.176C140.649 164.26 140.829 164.3 141.026 164.3C141.222 164.3 141.402 164.26 141.559 164.176H141.556ZM141.492 161C141.632 160.926 141.742 160.823 141.822 160.693C141.902 160.563 141.942 160.42 141.942 160.263C141.942 160.106 141.902 159.96 141.822 159.83C141.742 159.703 141.632 159.603 141.492 159.53C141.352 159.46 141.196 159.423 141.022 159.423C140.849 159.423 140.692 159.46 140.552 159.53C140.412 159.6 140.302 159.7 140.226 159.83C140.149 159.96 140.109 160.103 140.109 160.263C140.109 160.423 140.149 160.563 140.226 160.693C140.302 160.823 140.412 160.926 140.552 161C140.692 161.073 140.849 161.113 141.022 161.113C141.196 161.113 141.352 161.076 141.492 161Z" fill="#D54400"/>
<path d="M137.058 176.099H132.314V169.629H137.058V176.099ZM133.964 174.792H135.401V170.922H133.964V174.792ZM139.754 178.386H138.078V168.749H139.754V178.386ZM141.061 173.629H139.388V172.249H141.061V173.629Z" fill="#D54400"/>
<path d="M146.181 173.416H143.348V175.362H141.691V172.122H144.514V170.842H141.688V169.502H146.181V173.412V173.416ZM144.787 174.806C145.447 174.772 146.107 174.699 146.767 174.592L146.914 175.909C146.231 176.026 145.541 176.109 144.848 176.159C144.154 176.209 143.381 176.229 142.527 176.222H141.694V174.849H142.527C143.374 174.856 144.127 174.842 144.787 174.809V174.806ZM148.974 178.416H147.324V168.749H148.974V178.416ZM150.281 173.646H148.608V172.272H150.281V173.646Z" fill="#D54400"/>
<path d="M184.039 175.56C192.87 175.56 200.029 168.401 200.029 159.57C200.029 150.739 192.87 143.58 184.039 143.58C175.208 143.58 168.049 150.739 168.049 159.57C168.049 168.401 175.208 175.56 184.039 175.56Z" stroke="#D54400" stroke-width="2.72667" stroke-miterlimit="10"/>
<path d="M185.506 149.71C185.993 149.967 186.38 150.373 186.67 150.933C186.96 151.493 187.103 152.21 187.103 153.077C187.11 153.893 186.98 154.603 186.71 155.203C186.44 155.807 186.06 156.27 185.566 156.59C185.073 156.913 184.5 157.073 183.843 157.073C183.31 157.073 182.83 156.97 182.41 156.757C181.986 156.547 181.65 156.263 181.4 155.907C181.146 155.55 181 155.15 180.953 154.71H182.906C182.94 154.86 183.003 154.987 183.09 155.087C183.176 155.19 183.283 155.263 183.413 155.313C183.54 155.363 183.686 155.387 183.846 155.387C184.13 155.387 184.37 155.303 184.566 155.13C184.76 154.96 184.906 154.717 185 154.4C185.093 154.083 185.14 153.71 185.14 153.273H185.1C185 153.497 184.853 153.69 184.663 153.853C184.473 154.02 184.246 154.147 183.986 154.237C183.726 154.327 183.453 154.373 183.163 154.373C182.72 154.373 182.323 154.27 181.98 154.063C181.633 153.857 181.366 153.573 181.173 153.213C180.98 152.853 180.88 152.443 180.873 151.99C180.873 151.467 181 151 181.25 150.597C181.5 150.193 181.853 149.88 182.31 149.657C182.763 149.433 183.286 149.323 183.873 149.323C184.46 149.323 185.026 149.45 185.513 149.707L185.506 149.71ZM183.323 150.973C183.156 151.07 183.03 151.203 182.936 151.367C182.843 151.533 182.796 151.717 182.796 151.927C182.803 152.133 182.853 152.323 182.946 152.487C183.04 152.653 183.166 152.783 183.33 152.88C183.49 152.977 183.673 153.027 183.873 153.027C184.073 153.027 184.266 152.977 184.433 152.88C184.596 152.783 184.73 152.65 184.83 152.48C184.93 152.31 184.973 152.127 184.966 151.927C184.966 151.72 184.916 151.53 184.82 151.36C184.723 151.193 184.593 151.06 184.43 150.967C184.266 150.873 184.08 150.827 183.873 150.827C183.666 150.827 183.49 150.877 183.323 150.973Z" fill="#D54400"/>
<path d="M180.029 167.434H175.285V160.964H180.029V167.434ZM176.932 166.127H178.368V162.257H176.932V166.127ZM182.725 169.721H181.049V160.084H182.725V169.721ZM184.032 164.964H182.358V163.584H184.032V164.964Z" fill="#D54400"/>
<path d="M189.152 164.751H186.318V166.697H184.662V163.457H187.485V162.177H184.658V160.837H189.152V164.747V164.751ZM187.755 166.141C188.415 166.107 189.075 166.034 189.735 165.927L189.882 167.244C189.198 167.361 188.508 167.444 187.815 167.494C187.122 167.544 186.348 167.564 185.495 167.557H184.662V166.184H185.495C186.342 166.191 187.095 166.177 187.755 166.144V166.141ZM191.945 169.751H190.295V160.084H191.945V169.751ZM193.252 164.981H191.578V163.607H193.252V164.981Z" fill="#D54400"/>
<path d="M223.013 175.226C231.844 175.226 239.003 168.067 239.003 159.236C239.003 150.405 231.844 143.246 223.013 143.246C214.182 143.246 207.023 150.405 207.023 159.236C207.023 168.067 214.182 175.226 223.013 175.226Z" stroke="#D54400" stroke-width="2.72667" stroke-miterlimit="10"/>
<path d="M219.005 167.099H214.262V160.629H219.005V167.099ZM215.912 165.789H217.348V161.919H215.912V165.789ZM221.702 169.386H220.025V159.749H221.702V169.386ZM223.008 164.629H221.335V163.249H223.008V164.629Z" fill="#D54400"/>
<path d="M228.128 164.416H225.295V166.362H223.638V163.122H226.461V161.842H223.635V160.502H228.128V164.412V164.416ZM226.735 165.806C227.395 165.772 228.055 165.699 228.715 165.592L228.861 166.909C228.178 167.026 227.488 167.109 226.795 167.159C226.101 167.209 225.328 167.229 224.475 167.222H223.641V165.849H224.475C225.321 165.856 226.075 165.842 226.735 165.809V165.806ZM230.921 169.416H229.271V159.749H230.921V169.416ZM232.228 164.646H230.555V163.272H232.228V164.646Z" fill="#D54400"/>
<path d="M222.645 157.782C222.428 157.656 217.858 154.959 217.815 151.866C217.771 148.772 221.928 148.279 222.835 151.219" fill="#D54400"/>
<path d="M222.644 157.783C222.861 157.656 227.598 154.953 227.641 151.863C227.684 148.709 223.528 148.276 222.621 151.216" fill="#D54400"/>
<path d="M100.327 73.2324V78.0758C100.327 78.6358 100.194 79.1224 99.9235 79.5424C99.6535 79.9624 99.2735 80.2858 98.7835 80.5158C98.2935 80.7458 97.7268 80.8624 97.0835 80.8624C96.4402 80.8624 95.8769 80.7458 95.3902 80.5158C94.9035 80.2858 94.5268 79.9591 94.2568 79.5424C93.9868 79.1258 93.8535 78.6358 93.8535 78.0758V73.2324H95.8335V77.9058C95.8335 78.1424 95.8869 78.3558 95.9935 78.5424C96.1002 78.7324 96.2502 78.8791 96.4402 78.9891C96.6302 79.0958 96.8435 79.1491 97.0802 79.1491C97.3168 79.1491 97.5468 79.0958 97.7368 78.9891C97.9268 78.8824 98.0769 78.7324 98.1802 78.5424C98.2835 78.3524 98.3369 78.1391 98.3369 77.9058V73.2324H100.327Z" fill="#373433"/>
<path d="M104.669 76.5464H100.996V75.1198H104.669V76.5464ZM103.689 73.7631V78.9598C103.689 79.0464 103.703 79.1164 103.733 79.1731C103.763 79.2298 103.806 79.2698 103.866 79.2964C103.926 79.3231 104.003 79.3364 104.096 79.3398C104.223 79.3464 104.443 79.3398 104.746 79.3131V80.7831C104.479 80.8331 104.169 80.8564 103.813 80.8564C103.349 80.8564 102.966 80.7964 102.653 80.6731C102.343 80.5531 102.106 80.3664 101.946 80.1131C101.786 79.8631 101.709 79.5431 101.716 79.1564V73.7598H103.686L103.689 73.7631Z" fill="#373433"/>
<path d="M108.837 76.5464H105.164V75.1198H108.837V76.5464ZM107.857 73.7631V78.9598C107.857 79.0464 107.871 79.1164 107.901 79.1731C107.931 79.2298 107.974 79.2698 108.034 79.2964C108.094 79.3231 108.171 79.3364 108.264 79.3398C108.391 79.3464 108.611 79.3398 108.914 79.3131V80.7831C108.647 80.8331 108.337 80.8564 107.981 80.8564C107.517 80.8564 107.134 80.7964 106.821 80.6731C106.511 80.5531 106.274 80.3664 106.114 80.1131C105.954 79.8631 105.877 79.5431 105.884 79.1564V73.7598H107.854L107.857 73.7631Z" fill="#373433"/>
<path d="M110.78 80.5296C110.343 80.2963 110.007 79.963 109.773 79.523C109.537 79.0863 109.42 78.563 109.42 77.9596C109.42 77.3563 109.537 76.863 109.773 76.423C110.01 75.983 110.343 75.643 110.773 75.403C111.203 75.163 111.707 75.043 112.28 75.043C112.853 75.043 113.333 75.1596 113.753 75.3896C114.173 75.6196 114.497 75.953 114.727 76.3896C114.957 76.8263 115.07 77.3396 115.07 77.933V78.4063H110.053V77.303H113.25C113.25 77.133 113.21 76.983 113.123 76.8496C113.04 76.7163 112.927 76.6163 112.787 76.543C112.647 76.4696 112.49 76.433 112.317 76.433C112.143 76.433 111.977 76.4696 111.833 76.5463C111.687 76.6196 111.573 76.7263 111.49 76.8596C111.407 76.993 111.36 77.1463 111.353 77.3163V78.483C111.353 78.6763 111.393 78.853 111.477 79.0063C111.557 79.1596 111.677 79.2796 111.827 79.363C111.98 79.4463 112.157 79.4896 112.357 79.4896C112.5 79.4896 112.63 79.4696 112.753 79.423C112.873 79.3796 112.977 79.323 113.063 79.2496C113.147 79.1763 113.21 79.0863 113.247 78.9796H115.06C114.997 79.3663 114.847 79.6996 114.61 79.9863C114.373 80.273 114.057 80.493 113.663 80.6463C113.27 80.7996 112.823 80.8796 112.32 80.8796C111.727 80.8796 111.21 80.763 110.777 80.5296H110.78Z" fill="#373433"/>
<path d="M117.054 80.5126C116.617 80.2692 116.281 79.9292 116.047 79.4859C115.814 79.0459 115.697 78.5359 115.697 77.9592C115.697 77.3826 115.814 76.8659 116.047 76.4292C116.281 75.9926 116.614 75.6526 117.054 75.4092C117.491 75.1659 118.011 75.0459 118.611 75.0459C119.211 75.0459 119.727 75.1692 120.167 75.4092C120.607 75.6526 120.944 75.9926 121.177 76.4292C121.411 76.8659 121.527 77.3759 121.527 77.9592C121.527 78.5426 121.411 79.0459 121.177 79.4859C120.944 79.9259 120.607 80.2692 120.167 80.5126C119.727 80.7559 119.207 80.8759 118.611 80.8759C118.014 80.8759 117.491 80.7559 117.054 80.5126ZM119.107 79.2392C119.241 79.1192 119.341 78.9459 119.411 78.7226C119.481 78.4992 119.514 78.2359 119.514 77.9392C119.514 77.6426 119.481 77.3859 119.411 77.1626C119.341 76.9392 119.241 76.7692 119.107 76.6526C118.974 76.5359 118.817 76.4759 118.634 76.4759C118.441 76.4759 118.274 76.5359 118.134 76.6526C117.994 76.7692 117.891 76.9392 117.817 77.1592C117.747 77.3792 117.711 77.6392 117.711 77.9392C117.711 78.2392 117.747 78.5092 117.817 78.7292C117.887 78.9492 117.994 79.1192 118.134 79.2392C118.274 79.3592 118.441 79.4192 118.634 79.4192C118.817 79.4192 118.977 79.3592 119.107 79.2392Z" fill="#373433"/>
<path d="M122.367 73.2324H124.337V80.7724H122.367V73.2324ZM124.144 77.0491H124.411L125.837 75.1158H128.061L125.737 78.0591H125.197L124.134 79.3858L124.144 77.0458V77.0491ZM124.514 78.5024L125.807 77.1024L128.121 80.7758H125.864L124.514 78.5058V78.5024Z" fill="#373433"/>
<path d="M133.377 73.2324L135.183 77.6124H135.267L137.063 73.2324H139.533V80.7724H137.597V76.3358H137.533L135.82 80.7158H134.633L132.92 76.3158H132.857V80.7758H130.92V73.2358H133.38L133.377 73.2324Z" fill="#373433"/>
<path d="M140.279 80.7724L142.786 73.2324H145.479L147.986 80.7724H145.846L144.169 75.2558H144.106L142.423 80.7724H140.283H140.279ZM146.183 77.7958V79.2891H142.043V77.7958H146.183Z" fill="#373433"/>
<path d="M148.727 73.2324H150.707V79.1758H153.783V80.7758H148.727V73.2358V73.2324Z" fill="#373433"/>
<path d="M154.387 80.7724L156.893 73.2324H159.587L162.093 80.7724H159.953L158.277 75.2558H158.213L156.53 80.7724H154.39H154.387ZM160.293 77.7958V79.2891H156.153V77.7958H160.293Z" fill="#373433"/>
<path d="M165.16 73.2328H168.366C168.93 73.2328 169.42 73.3362 169.836 73.5395C170.253 73.7462 170.58 74.0395 170.81 74.4228C171.04 74.8062 171.156 75.2595 171.156 75.7795C171.156 76.2995 171.04 76.7528 170.806 77.1262C170.573 77.4995 170.24 77.7828 169.81 77.9728C169.38 78.1628 168.876 78.2595 168.3 78.2595H166.346V76.7062H167.913C168.173 76.7062 168.39 76.6728 168.56 76.6095C168.73 76.5462 168.86 76.4462 168.953 76.3062C169.046 76.1695 169.09 75.9928 169.09 75.7762C169.09 75.5595 169.043 75.3762 168.953 75.2362C168.86 75.0962 168.73 74.9895 168.553 74.9195C168.38 74.8495 168.166 74.8162 167.913 74.8162H167.136V80.7695H165.156V73.2295L165.16 73.2328ZM171.41 80.7728H169.25L167.416 77.3195H169.53L171.41 80.7728Z" fill="#373433"/>
<path d="M173.114 80.5126C172.678 80.2692 172.341 79.9292 172.108 79.4859C171.874 79.0459 171.758 78.5359 171.758 77.9592C171.758 77.3826 171.874 76.8659 172.108 76.4292C172.341 75.9926 172.674 75.6526 173.114 75.4092C173.551 75.1659 174.071 75.0459 174.671 75.0459C175.271 75.0459 175.788 75.1692 176.228 75.4092C176.668 75.6526 177.004 75.9926 177.238 76.4292C177.471 76.8659 177.588 77.3759 177.588 77.9592C177.588 78.5426 177.471 79.0459 177.238 79.4859C177.004 79.9259 176.668 80.2692 176.228 80.5126C175.788 80.7559 175.268 80.8759 174.671 80.8759C174.074 80.8759 173.551 80.7559 173.114 80.5126ZM175.164 79.2392C175.298 79.1192 175.398 78.9459 175.468 78.7226C175.538 78.4992 175.571 78.2359 175.571 77.9392C175.571 77.6426 175.538 77.3859 175.468 77.1626C175.398 76.9392 175.298 76.7692 175.164 76.6526C175.031 76.5359 174.874 76.4759 174.691 76.4759C174.498 76.4759 174.331 76.5359 174.191 76.6526C174.051 76.7692 173.948 76.9392 173.874 77.1592C173.804 77.3792 173.768 77.6392 173.768 77.9392C173.768 78.2392 173.804 78.5092 173.874 78.7292C173.944 78.9492 174.051 79.1192 174.191 79.2392C174.331 79.3592 174.498 79.4192 174.691 79.4192C174.874 79.4192 175.034 79.3592 175.164 79.2392Z" fill="#373433"/>
<path d="M181.03 78.4763L180.594 78.5163C180.417 78.5363 180.277 78.603 180.17 78.7096C180.067 78.8163 180.014 78.9463 180.014 79.0996C180.014 79.203 180.04 79.293 180.09 79.3696C180.144 79.4463 180.217 79.503 180.31 79.543C180.407 79.583 180.514 79.603 180.63 79.603C180.797 79.603 180.954 79.5696 181.1 79.4996C181.247 79.4296 181.36 79.333 181.447 79.2063C181.53 79.0796 181.574 78.933 181.574 78.7663L181.554 76.903C181.554 76.7963 181.527 76.703 181.477 76.6296C181.427 76.5563 181.35 76.4996 181.25 76.4596C181.15 76.423 181.037 76.403 180.91 76.403C180.704 76.403 180.54 76.4496 180.414 76.5396C180.287 76.6296 180.21 76.763 180.187 76.9396H178.37C178.397 76.5896 178.514 76.2696 178.714 75.9796C178.914 75.693 179.204 75.463 179.577 75.2963C179.95 75.1296 180.407 75.043 180.94 75.043C181.474 75.043 181.91 75.123 182.304 75.283C182.694 75.443 182.997 75.663 183.21 75.943C183.424 76.223 183.53 76.5463 183.53 76.9063V80.7696H181.68V79.9763H181.64C181.53 80.173 181.394 80.3396 181.237 80.4696C181.08 80.5996 180.897 80.6963 180.697 80.763C180.497 80.8296 180.264 80.8596 180 80.8596C179.634 80.8596 179.31 80.7963 179.037 80.6763C178.764 80.553 178.547 80.3663 178.387 80.1196C178.23 79.873 178.15 79.5696 178.15 79.2096C178.15 78.6196 178.34 78.1796 178.72 77.893C179.1 77.6063 179.607 77.4463 180.237 77.4096C180.364 77.3963 180.677 77.383 181.174 77.3696L181.634 77.3496L181.644 78.4496C181.45 78.4563 181.244 78.4663 181.024 78.4763H181.03Z" fill="#373433"/>
<path d="M185.444 80.5228C185.104 80.3062 184.837 79.9795 184.64 79.5395C184.444 79.0995 184.344 78.5662 184.344 77.9395C184.344 77.3128 184.447 76.7495 184.65 76.3128C184.854 75.8795 185.124 75.5595 185.46 75.3528C185.794 75.1462 186.164 75.0428 186.56 75.0428C186.834 75.0428 187.077 75.0895 187.294 75.1828C187.51 75.2762 187.684 75.4028 187.824 75.5595C187.964 75.7162 188.07 75.8962 188.15 76.0995H188.18V73.2295H190.15V80.7695H188.204V79.8462H188.15C188.07 80.0362 187.96 80.2062 187.817 80.3562C187.674 80.5062 187.497 80.6228 187.284 80.7095C187.07 80.7962 186.834 80.8395 186.574 80.8395C186.16 80.8395 185.784 80.7328 185.447 80.5162L185.444 80.5228ZM187.794 79.1628C187.934 79.0495 188.044 78.8862 188.12 78.6762C188.197 78.4662 188.234 78.2195 188.234 77.9428C188.234 77.6662 188.194 77.4128 188.12 77.2028C188.044 76.9962 187.937 76.8362 187.794 76.7295C187.654 76.6228 187.484 76.5695 187.287 76.5695C187.09 76.5695 186.927 76.6228 186.787 76.7295C186.647 76.8362 186.544 76.9962 186.47 77.2028C186.397 77.4095 186.36 77.6595 186.36 77.9428C186.36 78.2262 186.397 78.4728 186.47 78.6828C186.544 78.8928 186.65 79.0528 186.787 79.1662C186.927 79.2795 187.094 79.3362 187.287 79.3362C187.48 79.3362 187.654 79.2795 187.794 79.1662V79.1628Z" fill="#373433"/>
</svg>
