<svg width="284" height="248" viewBox="0 0 284 248" fill="none" xmlns="http://www.w3.org/2000/svg">
<g clip-path="url(#clip0_261_2208)">
<path d="M195.568 154.337C196.522 153.224 197.472 152.107 198.425 150.994" stroke="#373433" stroke-width="2" stroke-miterlimit="10" stroke-linecap="round"/>
<path d="M194.932 154.154C194.229 153.097 193.526 152.044 192.822 150.987" stroke="#373433" stroke-width="2" stroke-miterlimit="10" stroke-linecap="round"/>
<path d="M195.068 155.194C193.501 155.014 191.958 154.654 190.475 154.124" stroke="#373433" stroke-width="2" stroke-miterlimit="10" stroke-linecap="round"/>
<path d="M212.001 181.047C205.201 173.447 199.614 164.763 195.518 155.427" stroke="#373433" stroke-width="2" stroke-miterlimit="10" stroke-linecap="round"/>
<path d="M175.334 142.836H15.7109V240.703H175.334V142.836Z" fill="#EFF0F0"/>
<path d="M175.334 142.836H15.7109V240.703H175.334V142.836Z" stroke="#373433" stroke-width="2" stroke-miterlimit="10"/>
<path d="M29.1205 151.95L37.1772 103H58.2105L55.4605 151.95C55.4605 151.95 54.6739 165.12 42.2872 165.12C29.9005 165.12 29.1172 151.95 29.1172 151.95H29.1205Z" fill="#EFF0F0"/>
<path d="M81.8047 151.95V103H108.145V151.95C108.145 151.95 107.751 165.12 94.9747 165.12C82.198 165.12 81.8047 151.95 81.8047 151.95Z" fill="#EFF0F0"/>
<path d="M134.487 151.95L133.697 103H155.517L160.827 151.95C160.827 151.95 160.234 163.157 149.227 164.923C138.217 166.693 134.754 156.687 134.487 151.95Z" fill="#EFF0F0"/>
<path d="M187.171 151.95L176.948 103H155.521L160.831 151.95C160.831 151.95 160.831 165.12 174.001 165.12C187.171 165.12 187.175 151.95 187.175 151.95H187.171Z" fill="#E96C65"/>
<path d="M58.2115 103H81.8048V151.95C81.8048 151.95 80.4315 164.923 68.6348 165.12C56.8382 165.317 55.4648 151.95 55.4648 151.95L58.2148 103H58.2115Z" fill="#E96C65"/>
<path d="M108.144 103V151.95C108.144 151.95 108.737 165.317 121.317 165.12C133.897 164.923 134.487 151.95 134.487 151.95L133.697 103H108.141H108.144Z" fill="#E96C65"/>
<path d="M37.177 103C36.0204 110.02 34.867 117.04 33.7104 124.06C32.247 132.953 30.717 141.84 29.317 150.743C28.7804 154.16 28.137 157.27 25.9837 160.137C23.577 163.34 19.9137 164.99 15.947 165.12C9.85035 165.317 6.79702 161.927 5.26369 158.487C3.85702 155.33 3.66702 151.76 4.56369 148.42L16.7337 103H37.177Z" fill="#E96C65"/>
<path d="M29.1205 151.95L37.1772 103H58.2105L55.4605 151.95C55.4605 151.95 54.6739 165.12 42.2872 165.12C29.9005 165.12 29.1172 151.95 29.1172 151.95H29.1205Z" fill="#EFF0F0" stroke="#373433" stroke-width="2" stroke-miterlimit="10"/>
<path d="M81.8047 151.95V103H108.145V151.95C108.145 151.95 107.751 165.12 94.9747 165.12C82.198 165.12 81.8047 151.95 81.8047 151.95Z" fill="#EFF0F0" stroke="#373433" stroke-width="2" stroke-miterlimit="10"/>
<path d="M134.487 151.95L133.697 103H155.517L160.827 151.95C160.827 151.95 160.234 163.157 149.227 164.923C138.217 166.693 134.754 156.687 134.487 151.95Z" fill="#EFF0F0" stroke="#373433" stroke-width="2" stroke-miterlimit="10"/>
<path d="M186.624 149.333L177.661 106.42C177.244 104.427 175.488 103 173.451 103H155.518L160.828 151.95C160.828 151.95 160.828 165.12 173.998 165.12C180.584 165.12 183.878 161.827 185.524 158.533C186.944 155.697 187.274 152.44 186.624 149.333Z" fill="#019C65" stroke="#373433" stroke-width="2" stroke-miterlimit="10"/>
<path d="M58.2115 103H81.8048V151.95C81.8048 151.95 80.4315 164.923 68.6348 165.12C56.8382 165.317 55.4648 151.95 55.4648 151.95L58.2148 103H58.2115Z" fill="#019C65" stroke="#373433" stroke-width="2" stroke-miterlimit="10"/>
<path d="M108.144 103V151.95C108.144 151.95 108.737 165.317 121.317 165.12C133.897 164.923 134.487 151.95 134.487 151.95L133.697 103H108.141H108.144Z" fill="#019C65" stroke="#373433" stroke-width="2" stroke-miterlimit="10"/>
<path d="M37.1777 103C36.021 110.02 34.8677 117.04 33.711 124.06C32.2477 132.953 30.7177 141.84 29.3177 150.743C28.781 154.16 28.1377 157.27 25.9843 160.137C23.5777 163.34 19.9143 164.99 15.9477 165.12C7.48434 165.393 4.88101 158.75 4.07767 154.66C3.74434 152.963 3.81434 151.21 4.26101 149.54L15.8743 106.187C16.3777 104.307 18.081 103 20.0277 103H37.171H37.1777Z" fill="#019C65" stroke="#373433" stroke-width="2" stroke-miterlimit="10"/>
<path d="M159.51 177.544H133.68C130.692 177.544 128.27 179.966 128.27 182.954V236.974C128.27 239.962 130.692 242.384 133.68 242.384H159.51C162.497 242.384 164.92 239.962 164.92 236.974V182.954C164.92 179.966 162.497 177.544 159.51 177.544Z" fill="#019C65"/>
<path d="M159.51 177.544H133.68C130.692 177.544 128.27 179.966 128.27 182.954V236.974C128.27 239.962 130.692 242.384 133.68 242.384H159.51C162.497 242.384 164.92 239.962 164.92 236.974V182.954C164.92 179.966 162.497 177.544 159.51 177.544Z" stroke="#373433" stroke-width="2" stroke-miterlimit="10"/>
<path d="M183.248 234.717H7.79766C5.47806 234.717 3.59766 236.597 3.59766 238.917V250.133C3.59766 252.453 5.47806 254.333 7.79766 254.333H183.248C185.567 254.333 187.448 252.453 187.448 250.133V238.917C187.448 236.597 185.567 234.717 183.248 234.717Z" fill="#EFF0F0"/>
<path d="M183.248 234.717H7.79766C5.47806 234.717 3.59766 236.597 3.59766 238.917V250.133C3.59766 252.453 5.47806 254.333 7.79766 254.333H183.248C185.567 254.333 187.448 252.453 187.448 250.133V238.917C187.448 236.597 185.567 234.717 183.248 234.717Z" stroke="#373433" stroke-width="2" stroke-miterlimit="10"/>
<path d="M115.144 177.544H31.5843C28.4786 177.544 25.9609 180.062 25.9609 183.167V214.367C25.9609 217.473 28.4786 219.991 31.5843 219.991H115.144C118.25 219.991 120.768 217.473 120.768 214.367V183.167C120.768 180.062 118.25 177.544 115.144 177.544Z" fill="#83D1E4"/>
<path d="M26.0117 214.61H121.128V215.074C121.128 217.62 119.062 219.69 116.512 219.69H30.6517C28.0917 219.69 26.0117 217.61 26.0117 215.05V214.61Z" fill="#EFF0F0"/>
<path d="M26.0117 214.61H121.128V214.99C121.128 217.584 119.022 219.69 116.428 219.69H30.5017C28.0251 219.69 26.0117 217.68 26.0117 215.2V214.61Z" stroke="#373433" stroke-miterlimit="10"/>
<path d="M115.144 177.544H31.5843C28.4786 177.544 25.9609 180.062 25.9609 183.167V214.367C25.9609 217.473 28.4786 219.991 31.5843 219.991H115.144C118.25 219.991 120.768 217.473 120.768 214.367V183.167C120.768 180.062 118.25 177.544 115.144 177.544Z" stroke="#373433" stroke-width="2" stroke-miterlimit="10"/>
<path d="M110.666 193.764C106.876 197.21 103.083 200.657 99.293 204.1C98.3563 204.954 99.7496 206.34 100.683 205.49C104.473 202.044 108.266 198.597 112.056 195.154C112.993 194.3 111.6 192.914 110.666 193.764Z" fill="#EFF0F0"/>
<path d="M112.717 198.784C110.557 201.077 108.393 203.367 106.233 205.661C105.367 206.581 106.753 207.974 107.623 207.051C109.783 204.757 111.947 202.467 114.107 200.174C114.973 199.254 113.587 197.861 112.717 198.784Z" fill="#EFF0F0"/>
<g opacity="0.48">
<path d="M165.974 248.134H206.531C206.742 248.134 206.914 247.962 206.914 247.75V245.52C206.914 245.309 206.742 245.137 206.531 245.137H165.974C165.762 245.137 165.591 245.309 165.591 245.52V247.75C165.591 247.962 165.762 248.134 165.974 248.134Z" fill="#404041"/>
</g>
<path d="M168.572 242.62H197.889L200.206 212.06H170.892L168.572 242.62Z" fill="#017247"/>
<path d="M168.572 242.153C177.129 242.153 185.689 242.153 194.245 242.153H197.889C197.732 242.309 197.579 242.463 197.422 242.619C198.099 233.699 198.775 224.779 199.452 215.859C199.549 214.593 199.645 213.326 199.739 212.059L200.205 212.526H174.532C173.319 212.526 172.102 212.526 170.889 212.526L171.355 212.059C170.679 220.979 170.002 229.899 169.325 238.819C169.229 240.086 169.132 241.353 169.035 242.619C168.989 243.213 168.059 243.219 168.105 242.619C168.782 233.699 169.459 224.779 170.135 215.859C170.232 214.593 170.329 213.326 170.425 212.059C170.445 211.809 170.622 211.593 170.892 211.593C179.449 211.593 188.009 211.593 196.565 211.593C197.779 211.593 198.995 211.593 200.209 211.593C200.445 211.593 200.695 211.806 200.675 212.059C199.999 220.979 199.322 229.899 198.645 238.819C198.549 240.086 198.452 241.353 198.355 242.619C198.335 242.869 198.159 243.086 197.889 243.086C189.332 243.086 180.772 243.086 172.215 243.086C171.002 243.086 169.785 243.086 168.572 243.086C167.972 243.086 167.972 242.156 168.572 242.156V242.153Z" fill="#404041"/>
<path d="M170.908 212.45L173.725 245.02H203.042L200.225 212.45H170.908Z" fill="#019C65"/>
<path d="M171.375 212.45C172.195 221.937 173.015 231.423 173.835 240.91C173.955 242.28 174.071 243.65 174.191 245.02C174.035 244.863 173.881 244.71 173.725 244.553C182.281 244.553 190.841 244.553 199.398 244.553C200.611 244.553 201.828 244.553 203.041 244.553C202.885 244.71 202.731 244.863 202.575 245.02C201.755 235.533 200.935 226.047 200.115 216.56C199.995 215.19 199.878 213.82 199.758 212.45C199.915 212.607 200.068 212.76 200.225 212.917C191.668 212.917 183.108 212.917 174.551 212.917C173.338 212.917 172.121 212.917 170.908 212.917C170.308 212.917 170.308 211.983 170.908 211.983C179.465 211.983 188.025 211.983 196.581 211.983C197.795 211.983 199.011 211.983 200.225 211.983C200.491 211.983 200.668 212.197 200.691 212.45C201.511 221.937 202.331 231.423 203.151 240.91C203.271 242.28 203.388 243.65 203.508 245.02C203.531 245.27 203.278 245.487 203.041 245.487H177.368C176.155 245.487 174.938 245.487 173.725 245.487C173.458 245.487 173.281 245.273 173.258 245.02C172.438 235.533 171.618 226.047 170.798 216.56C170.678 215.19 170.561 213.82 170.441 212.45C170.391 211.853 171.321 211.857 171.371 212.45H171.375Z" fill="#404041"/>
<path d="M198.419 229.528C198.454 224.804 193.496 220.938 187.346 220.893C181.195 220.848 176.181 224.641 176.147 229.365C176.112 234.089 181.07 237.955 187.22 238C193.371 238.045 198.385 234.252 198.419 229.528Z" fill="#D1CDBF"/>
<path d="M187.517 236.503C192.889 236.263 197.098 232.809 196.918 228.789C196.738 224.768 192.238 221.704 186.866 221.944C181.494 222.184 177.284 225.638 177.464 229.658C177.644 233.679 182.145 236.743 187.517 236.503Z" stroke="#FAF5E2" stroke-width="0.333333" stroke-miterlimit="10"/>
<path d="M196.357 228.219C196.387 228.479 196.447 228.989 196.414 229.459C196.237 231.799 193.644 233.659 193.454 233.793C192.9 234.179 192.064 234.646 191.967 234.699C191.304 235.066 190.974 235.249 190.57 235.406C190.434 235.459 188.304 236.259 186.857 235.729C186.724 235.679 186.484 235.579 186.144 235.563C185.69 235.539 185.497 235.689 185.044 235.733C184.734 235.763 184.514 235.719 184.08 235.633C183.527 235.523 182.73 235.363 181.76 234.853C181.17 234.543 180.407 234.143 179.647 233.253C179.364 232.919 178.75 232.189 178.364 231.003C178.297 230.796 178.017 230.063 178.04 229.236C178.087 227.499 178.987 225.269 180.674 224.316C181.627 223.776 181.84 224.206 183.957 223.356C184.677 223.066 184.92 222.909 185.57 222.749C185.884 222.673 186.447 222.579 188.187 222.663C189.38 222.719 189.977 222.749 190.377 222.843C191.374 223.079 191.137 223.313 193.254 224.336C194.127 224.759 194.58 224.919 194.804 225.419C194.934 225.709 194.947 226.026 195.26 226.339C195.53 226.613 195.674 226.526 195.92 226.763C196.22 227.053 196.27 227.443 196.36 228.213L196.357 228.219Z" fill="#DB3400"/>
<path d="M180.997 227.885C181.123 227.562 181.29 227.255 181.487 226.972C181.44 227.042 181.39 227.109 181.343 227.179C181.573 226.855 181.843 226.565 182.147 226.309C182.083 226.362 182.02 226.415 181.953 226.469C182.25 226.225 182.57 226.019 182.92 225.852C182.843 225.889 182.767 225.922 182.693 225.959C182.867 225.879 183.047 225.805 183.23 225.745C183.723 225.585 184.043 225.015 183.84 224.519C183.64 224.029 183.09 223.722 182.563 223.892C181.06 224.385 179.77 225.529 179.2 226.979C179.103 227.225 179.06 227.469 179.153 227.732C179.233 227.955 179.43 228.192 179.653 228.292C180.11 228.499 180.797 228.389 180.993 227.885H180.997Z" fill="#DF7F00"/>
<path d="M182.397 223.865C182.473 223.832 182.553 223.809 182.637 223.792C182.553 223.809 182.467 223.822 182.383 223.839C182.5 223.819 182.617 223.815 182.737 223.822C182.647 223.815 182.557 223.809 182.47 223.802C182.68 223.822 182.883 223.875 183.083 223.942C183 223.912 182.913 223.882 182.83 223.852C183.483 224.089 184.087 224.452 184.66 224.839C184.587 224.789 184.517 224.742 184.443 224.692C184.65 224.832 184.853 224.975 185.057 225.119C185.283 225.279 185.51 225.389 185.793 225.375C186.033 225.362 186.313 225.245 186.467 225.062C186.777 224.692 186.827 224.012 186.37 223.685C185.697 223.202 185.01 222.719 184.257 222.359C183.493 221.992 182.547 221.669 181.73 222.012C181.487 222.112 181.287 222.249 181.167 222.485C181.057 222.699 181.027 223.009 181.12 223.239C181.307 223.695 181.89 224.079 182.397 223.865Z" fill="#DF7F00"/>
<path d="M184.06 225.665C182.31 226.532 180.874 228.009 180.054 229.742C179.837 230.199 180.004 230.829 180.51 231.059C180.994 231.279 181.617 231.142 181.85 230.652C182.034 230.265 182.247 229.895 182.49 229.542C182.444 229.612 182.394 229.679 182.347 229.749C182.727 229.209 183.17 228.712 183.67 228.279C183.697 228.255 183.797 228.172 183.67 228.275C183.54 228.382 183.664 228.282 183.694 228.255C183.76 228.202 183.83 228.149 183.897 228.095C184.027 227.995 184.164 227.902 184.3 227.812C184.58 227.625 184.877 227.459 185.18 227.309C185.394 227.205 185.557 226.915 185.6 226.699C185.647 226.465 185.594 226.165 185.444 225.965C185.29 225.759 185.067 225.582 184.804 225.539C184.527 225.492 184.3 225.549 184.054 225.669L184.06 225.665Z" fill="#DF7F00"/>
<path d="M182.683 230.119C182.073 231.492 181.979 233.019 182.413 234.479C182.559 234.972 183.209 235.282 183.689 235.106C184.216 234.912 184.456 234.406 184.299 233.879C184.263 233.752 184.229 233.626 184.199 233.496C184.216 233.579 184.236 233.662 184.253 233.742C184.153 233.282 184.116 232.816 184.139 232.349C184.136 232.436 184.129 232.522 184.126 232.609C184.153 232.122 184.246 231.649 184.403 231.192C184.376 231.276 184.346 231.356 184.319 231.439C184.369 231.299 184.423 231.162 184.483 231.026C184.689 230.566 184.539 229.942 184.026 229.709C183.553 229.496 182.906 229.622 182.686 230.116L182.683 230.119Z" fill="#DF7F00"/>
<path d="M192.476 236.226C193.119 235.396 193.686 234.446 193.78 233.376C193.873 232.3 193.626 231.27 193.336 230.23C193.199 229.733 192.533 229.43 192.059 229.603C191.526 229.8 191.303 230.3 191.449 230.83C191.543 231.173 191.636 231.52 191.713 231.866C191.696 231.783 191.676 231.7 191.659 231.62C191.766 232.12 191.833 232.626 191.803 233.133C191.806 233.046 191.813 232.96 191.816 232.873C191.793 233.186 191.733 233.49 191.633 233.786C191.66 233.703 191.69 233.623 191.716 233.54C191.56 233.983 191.333 234.393 191.063 234.78C191.109 234.71 191.159 234.643 191.206 234.573C191.126 234.686 191.046 234.796 190.959 234.903C190.796 235.113 190.693 235.343 190.716 235.616C190.736 235.85 190.863 236.126 191.056 236.28C191.453 236.596 192.136 236.65 192.469 236.223L192.476 236.226Z" fill="#DF7F00"/>
<path d="M192.147 227.772C192.38 227.889 192.603 228.022 192.82 228.169C192.747 228.119 192.677 228.072 192.603 228.022C192.933 228.246 193.24 228.499 193.523 228.779C193.6 228.852 193.67 228.929 193.743 229.006C193.86 229.129 193.587 228.819 193.703 228.959C193.733 228.996 193.767 229.032 193.797 229.069C193.92 229.219 194.037 229.372 194.147 229.532C194.257 229.692 194.36 229.856 194.453 230.022C194.477 230.066 194.5 230.106 194.523 230.149C194.613 230.312 194.413 229.926 194.497 230.096C194.537 230.182 194.58 230.269 194.62 230.356C194.78 230.722 194.907 231.099 194.993 231.489C194.977 231.406 194.957 231.322 194.94 231.242C194.993 231.492 195.033 231.742 195.053 231.992C195.1 232.499 195.593 232.966 196.13 232.912C196.667 232.862 197.097 232.432 197.047 231.889C196.88 230.019 195.91 228.202 194.427 226.969C194 226.616 193.527 226.299 193.03 226.049C192.56 225.809 191.907 225.982 191.69 226.456C191.473 226.936 191.643 227.516 192.147 227.772Z" fill="#DF7F00"/>
<path d="M186.323 230.773C186.957 230.93 187.637 230.983 188.28 230.916C188.917 230.85 189.59 230.693 190.107 230.316C191.167 229.543 191.57 228.18 191.143 226.933C190.93 226.313 190.51 225.733 189.987 225.32C189.573 224.996 188.923 224.96 188.573 225.376C188.25 225.76 188.23 226.406 188.67 226.753C188.783 226.84 188.88 226.936 188.983 227.036C189.067 227.116 188.84 226.863 188.913 226.956C188.933 226.983 188.957 227.006 188.977 227.033C189.023 227.09 189.067 227.15 189.107 227.213C189.12 227.236 189.187 227.376 189.207 227.38C189.193 227.38 189.1 227.156 189.157 227.286C189.17 227.316 189.183 227.346 189.197 227.376C189.253 227.51 189.297 227.65 189.33 227.79C189.313 227.706 189.293 227.623 189.277 227.543C189.313 227.72 189.33 227.896 189.323 228.076C189.327 227.99 189.333 227.903 189.337 227.816C189.323 228.016 189.287 228.206 189.223 228.393C189.25 228.31 189.28 228.23 189.307 228.146C189.243 228.316 189.163 228.473 189.06 228.623C189.107 228.553 189.157 228.486 189.203 228.416C189.127 228.523 189.04 228.616 188.947 228.71C188.873 228.776 188.897 228.753 189.027 228.646C189 228.666 188.973 228.686 188.947 228.703C188.897 228.736 188.843 228.77 188.79 228.8C188.59 228.91 188.977 228.733 188.803 228.796C188.737 228.82 188.67 228.846 188.603 228.87C188.467 228.913 188.327 228.946 188.183 228.973C188.267 228.956 188.353 228.943 188.437 228.926C188.04 228.993 187.637 229.01 187.23 228.98C187.32 228.986 187.41 228.993 187.497 229C187.23 228.976 186.963 228.933 186.703 228.866C186.193 228.74 185.61 229.103 185.533 229.61C185.453 230.143 185.78 230.633 186.327 230.77L186.323 230.773Z" fill="#DF7F00"/>
<path d="M190.134 224.242C189.904 224.449 190.07 224.296 190.14 224.252C190.217 224.206 190.347 224.192 190.09 224.269C190.204 224.236 190.314 224.192 190.43 224.169C190.347 224.186 190.26 224.199 190.177 224.216C190.367 224.186 190.554 224.182 190.747 224.196C190.657 224.189 190.567 224.182 190.48 224.176C190.937 224.222 191.38 224.356 191.814 224.506C191.73 224.476 191.644 224.446 191.56 224.416C192.254 224.662 192.914 224.996 193.527 225.402C193.454 225.352 193.384 225.306 193.31 225.256C193.394 225.312 193.477 225.372 193.56 225.429C193.784 225.592 194.014 225.699 194.297 225.686C194.537 225.672 194.817 225.556 194.97 225.372C195.28 225.002 195.33 224.322 194.874 223.996C193.964 223.342 192.997 222.852 191.927 222.512C191.394 222.342 190.834 222.216 190.274 222.239C189.637 222.269 189.087 222.509 188.627 222.919C188.45 223.079 188.364 223.402 188.384 223.632C188.404 223.866 188.53 224.142 188.724 224.296C189.18 224.662 189.73 224.606 190.137 224.239L190.134 224.242Z" fill="#DF7F00"/>
<path d="M189.895 224.576C190.189 224.479 189.975 224.553 189.895 224.563C189.805 224.576 189.682 224.533 189.949 224.569C189.829 224.553 189.715 224.549 189.595 224.523C189.679 224.543 189.762 224.562 189.845 224.582C189.659 224.536 189.486 224.462 189.316 224.372C189.396 224.416 189.472 224.456 189.552 224.499C189.155 224.276 188.799 223.972 188.466 223.662C188.532 223.722 188.595 223.786 188.662 223.846C188.125 223.339 187.656 222.773 187.259 222.153C187.306 222.226 187.352 222.299 187.399 222.372C187.346 222.286 187.292 222.199 187.239 222.113C187.099 221.873 186.932 221.682 186.665 221.582C186.442 221.499 186.136 221.492 185.922 221.599C185.489 221.812 185.172 222.416 185.455 222.896C186.025 223.863 186.715 224.699 187.559 225.443C187.979 225.813 188.442 226.156 188.962 226.356C189.556 226.586 190.159 226.586 190.742 226.396C190.969 226.323 191.176 226.059 191.252 225.843C191.329 225.619 191.322 225.316 191.209 225.099C190.939 224.579 190.412 224.412 189.892 224.582L189.895 224.576Z" fill="#DF7F00"/>
<path d="M185.109 228.253C186.163 228.433 187.203 228.206 188.103 227.689C188.969 227.193 189.619 226.433 190.153 225.616C190.283 225.419 190.276 225.079 190.199 224.863C190.119 224.639 189.923 224.403 189.699 224.303C189.459 224.193 189.173 224.146 188.923 224.239C188.666 224.333 188.503 224.489 188.359 224.713C188.319 224.773 188.279 224.836 188.236 224.896C188.283 224.826 188.333 224.759 188.379 224.689C188.213 224.929 188.029 225.159 187.829 225.373C187.743 225.466 187.653 225.556 187.556 225.643C187.529 225.666 187.503 225.693 187.473 225.716C187.396 225.783 187.416 225.766 187.539 225.663C187.479 225.703 187.423 225.756 187.366 225.796C187.249 225.883 187.126 225.963 186.999 226.036C186.953 226.063 186.906 226.089 186.859 226.113C186.829 226.129 186.796 226.146 186.766 226.163C186.913 226.096 186.943 226.083 186.849 226.123C186.586 226.233 186.316 226.319 186.033 226.373C186.116 226.356 186.203 226.343 186.286 226.326C186.019 226.369 185.756 226.383 185.486 226.363C185.576 226.369 185.666 226.376 185.753 226.383C185.663 226.376 185.573 226.363 185.486 226.349C184.969 226.263 184.396 226.559 184.316 227.093C184.239 227.596 184.556 228.156 185.109 228.253Z" fill="#FFAF25"/>
<path d="M186.539 233.893C187.699 233.83 188.775 233.293 189.559 232.486C190.385 231.636 190.862 230.463 190.992 229.296C191.022 229.036 190.992 228.79 190.835 228.563C190.699 228.363 190.442 228.18 190.195 228.136C189.695 228.053 189.085 228.34 189.025 228.88C188.982 229.276 188.899 229.663 188.772 230.04C188.799 229.956 188.829 229.876 188.855 229.793C188.719 230.186 188.535 230.556 188.299 230.896C188.345 230.826 188.395 230.76 188.442 230.69C188.299 230.89 188.142 231.08 187.965 231.25C187.929 231.283 187.895 231.316 187.859 231.35C187.995 231.25 187.669 231.52 187.859 231.35C187.772 231.413 187.689 231.476 187.599 231.536C187.509 231.593 187.415 231.65 187.322 231.7C187.245 231.74 187.035 231.803 187.329 231.7C187.282 231.716 187.239 231.74 187.192 231.756C186.979 231.843 186.755 231.903 186.525 231.946C186.609 231.93 186.695 231.916 186.779 231.9C186.645 231.923 186.515 231.936 186.382 231.943C185.862 231.973 185.399 232.443 185.465 232.966C185.532 233.49 185.985 233.916 186.542 233.886L186.539 233.893Z" fill="#FFAF25"/>
<path d="M190.68 228.309C190.747 228.329 190.817 228.349 190.884 228.373C190.8 228.343 190.714 228.313 190.63 228.283C190.914 228.386 191.18 228.519 191.43 228.686C191.357 228.636 191.287 228.589 191.214 228.539C191.374 228.649 191.524 228.769 191.664 228.906C191.7 228.943 191.737 228.983 191.774 229.019C191.914 229.156 191.624 228.833 191.744 228.986C191.804 229.063 191.864 229.136 191.917 229.216C191.974 229.296 192.024 229.379 192.07 229.463C192.16 229.616 191.977 229.253 192.054 229.426C192.07 229.466 192.09 229.506 192.107 229.546C192.187 229.733 192.247 229.926 192.294 230.123C192.277 230.039 192.257 229.956 192.24 229.876C192.297 230.153 192.324 230.429 192.31 230.709C192.314 230.623 192.32 230.536 192.324 230.449C192.314 230.606 192.294 230.759 192.264 230.916C192.164 231.413 192.524 231.986 193.057 232.076C193.597 232.166 194.12 231.866 194.227 231.333C194.437 230.286 194.22 229.173 193.627 228.253C193.04 227.339 192.097 226.706 191.054 226.406C190.547 226.259 189.957 226.656 189.884 227.149C189.8 227.703 190.137 228.153 190.677 228.309H190.68Z" fill="#FFAF25"/>
<path d="M179.192 232.406C180.329 233.642 182.149 234.306 183.812 234.129C184.329 234.076 184.799 233.649 184.729 233.106C184.665 232.602 184.205 232.126 183.652 232.186C183.372 232.216 183.089 232.219 182.805 232.196C182.895 232.202 182.985 232.209 183.072 232.216C182.682 232.182 182.302 232.099 181.932 231.972C182.015 232.002 182.102 232.032 182.185 232.062C181.799 231.926 181.432 231.746 181.092 231.519C181.165 231.569 181.235 231.616 181.309 231.666C181.015 231.466 180.745 231.236 180.509 230.976C180.345 230.796 180.002 230.706 179.772 230.719C179.532 230.732 179.252 230.849 179.099 231.032C178.935 231.229 178.822 231.482 178.855 231.746C178.889 232.012 179.009 232.209 179.195 232.409L179.192 232.406Z" fill="#FFAF25"/>
<path d="M176.71 228.142C177.846 229.379 179.666 230.042 181.33 229.865C181.846 229.812 182.316 229.385 182.246 228.842C182.183 228.339 181.723 227.862 181.17 227.922C180.89 227.952 180.606 227.955 180.323 227.932C180.413 227.939 180.503 227.945 180.59 227.952C180.2 227.919 179.82 227.835 179.45 227.709C179.533 227.739 179.62 227.769 179.703 227.799C179.316 227.662 178.95 227.482 178.61 227.255C178.683 227.305 178.753 227.352 178.826 227.402C178.533 227.202 178.263 226.972 178.026 226.712C177.863 226.532 177.52 226.442 177.29 226.455C177.05 226.469 176.77 226.585 176.616 226.769C176.453 226.965 176.34 227.219 176.373 227.482C176.406 227.749 176.526 227.945 176.713 228.145L176.71 228.142Z" fill="#FFAF25"/>
<path d="M186.4 236.976C188.21 236.756 189.923 235.836 190.953 234.37C191.11 234.146 191.22 233.943 191.196 233.656C191.176 233.423 191.05 233.146 190.856 232.993C190.65 232.826 190.386 232.71 190.12 232.736C189.88 232.76 189.586 232.85 189.446 233.05C189.25 233.33 189.03 233.59 188.78 233.83C188.716 233.893 188.65 233.953 188.58 234.013C188.443 234.13 188.61 233.963 188.64 233.963C188.623 233.963 188.536 234.043 188.523 234.053C188.386 234.16 188.246 234.256 188.1 234.35C187.953 234.443 187.803 234.526 187.65 234.606C187.613 234.626 187.576 234.643 187.54 234.663C187.433 234.716 187.76 234.563 187.61 234.63C187.526 234.666 187.443 234.703 187.356 234.736C187.023 234.866 186.68 234.963 186.326 235.03C186.41 235.013 186.496 235 186.58 234.983C186.466 235.003 186.35 235.02 186.233 235.036C185.973 235.066 185.736 235.156 185.56 235.35C185.396 235.526 185.283 235.816 185.316 236.063C185.38 236.556 185.84 237.05 186.393 236.983L186.4 236.976Z" fill="#E68F15"/>
<path d="M179.946 227.64C180.539 229.34 181.883 230.81 183.563 231.566C184.043 231.783 184.679 231.65 184.903 231.16C185.113 230.7 184.959 230.076 184.446 229.843C184.136 229.703 183.836 229.536 183.556 229.346C183.629 229.396 183.699 229.443 183.773 229.493C183.526 229.326 183.293 229.14 183.076 228.94C182.963 228.836 182.856 228.726 182.753 228.616C182.729 228.59 182.643 228.493 182.753 228.616C182.869 228.746 182.763 228.626 182.739 228.596C182.689 228.54 182.643 228.48 182.596 228.42C182.416 228.186 182.253 227.94 182.109 227.683C182.093 227.653 182.076 227.623 182.063 227.596C181.983 227.453 182.149 227.773 182.099 227.666C182.069 227.606 182.043 227.546 182.013 227.486C181.949 227.34 181.889 227.193 181.839 227.043C181.669 226.556 181.059 226.233 180.563 226.416C180.056 226.603 179.773 227.123 179.953 227.643L179.946 227.64Z" fill="#E68F15"/>
<path d="M194.604 226.473C193.94 224.796 192.567 223.36 190.854 222.666C190.597 222.563 190.344 222.516 190.077 222.603C189.85 222.676 189.61 222.86 189.514 223.076C189.31 223.52 189.447 224.18 189.97 224.393C190.35 224.546 190.711 224.74 191.051 224.966C190.977 224.916 190.907 224.87 190.834 224.82C191.067 224.976 191.287 225.15 191.497 225.336C191.604 225.433 191.707 225.533 191.807 225.636C191.83 225.66 191.854 225.686 191.877 225.71C191.974 225.813 191.807 225.643 191.81 225.633C191.807 225.656 191.944 225.79 191.957 225.806C192.134 226.023 192.294 226.25 192.434 226.49C192.467 226.546 192.5 226.606 192.534 226.663C192.537 226.673 192.574 226.753 192.58 226.753C192.57 226.753 192.474 226.533 192.534 226.663C192.597 226.8 192.661 226.936 192.717 227.076C192.907 227.556 193.484 227.89 193.994 227.703C194.484 227.523 194.807 226.99 194.604 226.476V226.473Z" fill="#E68F15"/>
<path opacity="0.85" d="M183.639 228.97C183.153 229.393 184.063 229.7 184.263 229.943C184.516 230.253 184.393 230.693 184.529 231.043C184.669 231.393 184.349 231.943 184.806 232.136C185.309 232.35 185.336 231.58 185.426 231.286C185.609 230.703 186.229 231.15 186.646 231.093C186.933 231.053 187.083 230.816 187.263 230.613C187.456 230.393 187.609 230.28 187.846 230.126C188.049 229.996 188.096 229.79 187.779 229.803C187.543 229.813 187.316 230.006 187.113 230.093C186.616 230.306 186.059 230.206 185.943 229.653C185.926 229.57 185.869 229.473 185.856 229.413C185.759 228.993 186.379 228.68 186.296 228.443C186.169 228.076 184.466 228.313 184.003 228.623C183.786 228.766 183.636 228.966 183.636 228.966L183.639 228.97Z" fill="#DB3400" stroke="#D54400" stroke-width="0.333333" stroke-miterlimit="10"/>
<path opacity="0.85" d="M184.92 231.012C184.61 230.906 184.163 231.316 184.08 231.576C184.01 231.796 184.123 232.006 183.873 232.166C183.773 232.229 183.66 232.249 183.566 232.329C183.466 232.416 183.436 232.526 183.356 232.626C183.253 232.756 182.773 232.886 182.806 233.032C182.826 233.122 183.04 233.192 183.113 233.219C183.233 233.262 183.366 233.259 183.5 233.249C183.75 233.226 184.09 233.202 184.283 233.389C184.453 233.552 184.343 233.729 184.396 233.922C184.446 234.109 184.603 234.186 184.55 234.396C184.496 234.606 184.336 234.766 184.386 234.989C184.453 235.279 184.783 235.332 185.05 235.269C185.323 235.206 185.566 235.302 185.843 235.289C186.04 235.279 186.236 235.322 186.426 235.302C186.616 235.282 186.763 235.199 186.93 235.109C187.193 234.969 187.436 235.032 187.72 234.966C187.89 234.926 188.086 234.839 188.176 234.692C188.25 234.576 188.256 234.429 188.326 234.309C188.396 234.192 188.876 233.676 188.753 233.532C188.706 233.476 188.346 233.632 188.276 233.649C188.13 233.682 187.93 233.666 187.783 233.626C187.683 233.599 187.59 233.542 187.523 233.472C187.456 233.399 187.426 233.276 187.346 233.219C187.19 233.102 186.84 233.266 186.666 233.309C186.17 233.432 185.896 233.066 186.09 232.649C186.213 232.382 186.403 231.792 185.973 231.676C185.766 231.619 185.566 231.772 185.363 231.746C185.166 231.719 185.15 231.516 185.14 231.366C185.123 231.172 185.046 230.996 184.913 231.012H184.92Z" fill="#DB3400" stroke="#D54400" stroke-width="0.333333" stroke-miterlimit="10"/>
<path opacity="0.85" d="M178.833 226.889C179.207 227.269 179.633 226.493 179.823 226.259C179.957 226.096 180.07 225.923 180.287 225.866C180.487 225.816 180.673 225.749 180.87 225.673C181.133 225.576 181.423 225.556 181.653 225.723C181.76 225.799 181.95 225.963 182.003 225.739C182.077 225.433 181.7 225.183 181.62 224.913C181.567 224.736 181.583 224.643 181.757 224.543C181.92 224.449 182.04 224.339 182.19 224.226C182.367 224.096 182.99 224.036 182.857 223.726C182.8 223.589 182.597 223.606 182.48 223.506C182.33 223.376 182.227 223.293 182.06 223.483C181.94 223.619 181.933 223.799 181.77 223.903C181.617 223.999 181.4 224.036 181.227 224.083C180.963 224.156 180.853 224.353 180.663 224.529C180.49 224.693 180.313 224.823 180.15 224.996C179.93 225.226 179.677 225.403 179.51 225.673C179.383 225.879 179.223 226.066 179.09 226.266C178.937 226.493 178.85 226.683 178.83 226.889H178.833Z" fill="#DB3400" stroke="#D54400" stroke-width="0.333333" stroke-miterlimit="10"/>
<path opacity="0.85" d="M190.846 226.133C190.862 226.363 191.149 226.44 191.352 226.346C191.519 226.27 191.522 226.076 191.552 225.923C191.579 225.786 191.586 225.623 191.696 225.513C191.809 225.4 191.922 225.456 192.069 225.436C192.289 225.403 192.386 225.35 192.499 225.566C192.569 225.703 192.619 225.853 192.819 225.816C192.942 225.793 193.149 225.59 193.136 225.466C193.126 225.346 192.949 225.273 192.932 225.143C192.889 224.82 193.372 224.56 193.316 224.243C193.249 223.86 192.729 224.373 192.586 224.416C192.279 224.506 192.026 224.153 191.709 224.196C191.569 224.216 191.402 224.29 191.269 224.343C191.106 224.41 190.939 224.576 190.762 224.603C190.612 224.626 190.442 224.493 190.342 224.66C190.209 224.883 190.482 224.986 190.609 225.1C190.906 225.37 190.752 225.86 190.842 226.133H190.846Z" fill="#DB3400" stroke="#D54400" stroke-width="0.333333" stroke-miterlimit="10"/>
<path d="M188.362 228.073C188.302 228.21 188.349 228.443 188.469 228.547C188.612 228.673 188.625 228.566 188.635 228.43C188.645 228.306 188.665 228.157 188.602 228.04C188.559 227.96 188.462 227.87 188.365 228.073H188.362Z" fill="#FCEAD5"/>
<path d="M190.533 227.697C190.396 227.62 190.133 227.62 189.996 227.707C189.833 227.814 189.946 227.84 190.09 227.874C190.223 227.904 190.383 227.947 190.523 227.91C190.62 227.884 190.736 227.817 190.533 227.694V227.697Z" fill="#FCEAD5"/>
<path d="M185.464 227.137C185.404 227.273 185.45 227.507 185.57 227.61C185.714 227.737 185.727 227.63 185.737 227.493C185.747 227.37 185.767 227.22 185.704 227.103C185.66 227.023 185.564 226.933 185.467 227.137H185.464Z" fill="#FCEAD5"/>
<path d="M183.425 224.893C183.382 224.993 183.415 225.167 183.502 225.24C183.609 225.333 183.615 225.253 183.625 225.153C183.632 225.06 183.649 224.953 183.599 224.867C183.565 224.807 183.495 224.74 183.425 224.89V224.893Z" fill="#FCEAD5"/>
<path d="M186.29 229.993C186.23 230.13 186.276 230.363 186.396 230.466C186.54 230.593 186.553 230.486 186.563 230.35C186.573 230.226 186.593 230.076 186.53 229.96C186.486 229.88 186.39 229.79 186.293 229.993H186.29Z" fill="#FCEAD5"/>
<path d="M187.167 227.997C187.01 227.967 186.76 228.054 186.667 228.177C186.553 228.327 186.67 228.317 186.82 228.304C186.96 228.291 187.123 228.281 187.24 228.204C187.32 228.151 187.407 228.047 187.167 228.001V227.997Z" fill="#FCEAD5"/>
<path d="M184.513 225.321C184.366 225.384 184.226 225.587 184.233 225.737C184.243 225.917 184.333 225.847 184.443 225.754C184.546 225.667 184.669 225.571 184.709 225.444C184.736 225.357 184.736 225.23 184.513 225.324V225.321Z" fill="#FCEAD5"/>
<path d="M186.506 226.91C186.35 226.88 186.1 226.967 186.006 227.09C185.893 227.24 186.01 227.23 186.16 227.217C186.3 227.204 186.463 227.194 186.58 227.117C186.66 227.064 186.746 226.96 186.506 226.914V226.91Z" fill="#FCEAD5"/>
<path d="M189.529 227.18C189.536 227.31 189.546 227.407 189.616 227.517C189.663 227.59 189.733 227.707 189.773 227.56C189.793 227.49 189.716 227.024 189.529 227.18Z" fill="#FCEAD5"/>
<path d="M192.242 228.95C192.249 229.08 192.259 229.177 192.329 229.287C192.376 229.36 192.446 229.477 192.486 229.33C192.506 229.26 192.429 228.793 192.242 228.95Z" fill="#FCEAD5"/>
<path d="M191.28 226.39C191.267 226.44 191.257 226.52 191.29 226.6C191.297 226.616 191.313 226.653 191.353 226.686C191.373 226.703 191.427 226.753 191.467 226.743C191.477 226.743 191.497 226.73 191.513 226.686C191.533 226.63 191.46 226.266 191.28 226.39Z" fill="#FCEAD5"/>
<path d="M189.717 226.806C189.767 226.87 189.853 226.953 189.99 226.993C190.02 227.003 190.08 227.016 190.16 227.01C190.2 227.006 190.313 226.996 190.343 226.943C190.35 226.93 190.36 226.9 190.32 226.843C190.27 226.77 189.743 226.5 189.717 226.806Z" fill="#FCEAD5"/>
<path d="M182.359 226.193C182.409 226.253 182.496 226.336 182.629 226.376C182.659 226.386 182.719 226.4 182.796 226.393C182.836 226.39 182.949 226.38 182.979 226.326C182.986 226.313 182.996 226.283 182.956 226.226C182.906 226.153 182.386 225.886 182.359 226.193Z" fill="#FCEAD5"/>
<path d="M190.529 227.146C190.573 227.266 190.656 227.346 190.796 227.366C190.883 227.38 191.076 227.403 191.059 227.29C191.036 227.146 190.683 226.99 190.529 227.146Z" fill="#FCEAD5"/>
<path d="M188.267 229.063C188.127 229.087 188.02 229.11 187.907 229.19C187.83 229.243 187.713 229.323 187.88 229.337C187.96 229.343 188.467 229.207 188.27 229.063H188.267Z" fill="#FCEAD5"/>
<path d="M189.143 230.61C189.186 230.73 189.269 230.81 189.409 230.83C189.496 230.843 189.689 230.867 189.673 230.753C189.649 230.61 189.296 230.453 189.143 230.61Z" fill="#FCEAD5"/>
<path d="M228.304 247.614C227.267 245.84 225.667 244.477 224.097 243.15C223.697 242.81 223.271 242.46 222.757 242.354C222.151 242.23 221.507 242.48 221.071 242.92C220.637 243.36 220.397 243.964 220.311 244.577C220.224 245.19 220.281 245.81 220.371 246.424C223.077 246.997 225.817 247.407 228.571 247.65" fill="#373433"/>
<path d="M228.304 247.614C227.267 245.84 225.667 244.477 224.097 243.15C223.697 242.81 223.271 242.46 222.757 242.354C222.151 242.23 221.507 242.48 221.071 242.92C220.637 243.36 220.397 243.964 220.311 244.577C220.224 245.19 220.281 245.81 220.371 246.424C223.077 246.997 225.817 247.407 228.571 247.65" stroke="#373433" stroke-miterlimit="10" stroke-linecap="round"/>
<path d="M269.864 239.03C267.824 239.283 265.944 240.22 264.107 241.143C263.637 241.38 263.147 241.633 262.851 242.063C262.497 242.57 262.474 243.263 262.707 243.836C262.941 244.41 263.404 244.866 263.931 245.186C264.461 245.506 265.054 245.7 265.651 245.856C267.241 243.593 268.694 241.236 270.001 238.8" fill="#373433"/>
<path d="M269.864 239.03C267.824 239.283 265.944 240.22 264.107 241.143C263.637 241.38 263.147 241.633 262.851 242.063C262.497 242.57 262.474 243.263 262.707 243.836C262.941 244.41 263.404 244.866 263.931 245.186C264.461 245.506 265.054 245.7 265.651 245.856C267.241 243.593 268.694 241.236 270.001 238.8" stroke="#373433" stroke-miterlimit="10" stroke-linecap="round"/>
<path d="M253.223 218.57C256.253 226.827 262.066 234.037 269.496 238.747" stroke="#373433" stroke-width="2" stroke-miterlimit="10" stroke-linecap="round"/>
<path d="M241.736 221.453C235.069 227.193 230.029 238.503 228.232 247.113" stroke="#373433" stroke-width="2" stroke-miterlimit="10" stroke-linecap="round"/>
<path d="M229.54 145.849C235.707 146.476 241.94 146.613 248.1 145.899C251.603 145.493 255.127 144.796 258.277 143.213C261.427 141.626 264.2 139.066 265.46 135.773C266.72 132.479 266.243 128.429 263.807 125.879C261.757 123.736 258.713 122.899 255.797 122.356C245.947 120.519 235.677 120.983 226.03 123.696C220.543 125.239 215.02 127.683 211.537 132.193C207.087 137.959 206.85 146.066 208.813 153.079C209.69 156.209 211.043 159.349 213.533 161.436C215.683 163.239 218.467 164.083 221.207 164.679C231.957 167.013 243.383 166.123 253.64 162.146" fill="#D8BF79"/>
<path d="M229.54 145.849C235.707 146.476 241.94 146.613 248.1 145.899C251.603 145.493 255.127 144.796 258.277 143.213C261.427 141.626 264.2 139.066 265.46 135.773C266.72 132.479 266.243 128.429 263.807 125.879C261.757 123.736 258.713 122.899 255.797 122.356C245.947 120.519 235.677 120.983 226.03 123.696C220.543 125.239 215.02 127.683 211.537 132.193C207.087 137.959 206.85 146.066 208.813 153.079C209.69 156.209 211.043 159.349 213.533 161.436C215.683 163.239 218.467 164.083 221.207 164.679C231.957 167.013 243.383 166.123 253.64 162.146" stroke="#D8BF79" stroke-width="0.333333" stroke-miterlimit="10"/>
<path d="M217.931 163.8C215.187 165.723 213.027 168.566 211.744 171.69C209.727 176.603 209.634 182.113 210.351 187.376C211.054 192.526 212.764 197.963 216.967 201.023C220.447 203.556 225.001 203.996 229.307 204.066C238.701 204.216 248.214 202.993 256.911 199.44" fill="#D8BF79"/>
<path d="M217.931 163.8C215.187 165.723 213.027 168.566 211.744 171.69C209.727 176.603 209.634 182.113 210.351 187.376C211.054 192.526 212.764 197.963 216.967 201.023C220.447 203.556 225.001 203.996 229.307 204.066C238.701 204.216 248.214 202.993 256.911 199.44" stroke="#D8BF79" stroke-width="0.333333" stroke-miterlimit="10"/>
<path d="M260.678 141.723C263.838 143.946 266.308 147.243 267.744 150.859C269.958 156.433 269.988 162.663 269.054 168.586C268.474 172.266 267.448 176.059 264.918 178.793C262.894 180.979 260.098 182.279 257.291 183.276C248.158 186.523 238.088 187.073 228.654 184.843" fill="#D8BF79"/>
<path d="M260.678 141.723C263.838 143.946 266.308 147.243 267.744 150.859C269.958 156.433 269.988 162.663 269.054 168.586C268.474 172.266 267.448 176.059 264.918 178.793C262.894 180.979 260.098 182.279 257.291 183.276C248.158 186.523 238.088 187.073 228.654 184.843" stroke="#D8BF79" stroke-width="0.333333" stroke-miterlimit="10"/>
<path d="M215.954 200.156C214.547 202.269 213.854 204.919 213.307 207.449C212.444 211.446 211.817 215.916 214.007 219.369C216.097 222.666 220.15 224.063 223.94 224.989C235.364 227.783 247.654 228.366 258.694 224.316C262.947 222.756 267.11 220.386 269.587 216.593C271.947 212.979 272.51 208.503 272.7 204.193C272.937 198.783 272.65 193.223 270.56 188.226C269.16 184.879 266.834 181.813 263.86 179.796" fill="#D8BF79"/>
<path d="M215.954 200.156C214.547 202.269 213.854 204.919 213.307 207.449C212.444 211.446 211.817 215.916 214.007 219.369C216.097 222.666 220.15 224.063 223.94 224.989C235.364 227.783 247.654 228.366 258.694 224.316C262.947 222.756 267.11 220.386 269.587 216.593C271.947 212.979 272.51 208.503 272.7 204.193C272.937 198.783 272.65 193.223 270.56 188.226C269.16 184.879 266.834 181.813 263.86 179.796" stroke="#D8BF79" stroke-width="0.333333" stroke-miterlimit="10"/>
<path d="M231.003 147.213C233.906 147.026 236.79 146.566 239.606 145.836C236.18 146.253 232.906 147.836 230.453 150.266C231.58 148.76 232.22 146.89 232.25 145.01C232.253 144.746 232.243 144.47 232.113 144.24C231.72 143.54 230.576 143.816 230.093 144.46C229.61 145.103 229.473 145.95 229.01 146.606C230.096 146.963 231.273 147.05 232.4 146.856C231.756 146.83 231.533 147.836 231.973 148.31C232.413 148.783 233.13 148.833 233.773 148.853C236.463 148.933 239.23 148.963 241.76 148.043C240.953 149.063 240.416 150.29 240.216 151.573C241.823 150.633 243.12 149.173 243.86 147.466C243.92 147.326 243.976 147.176 243.936 147.03C243.84 146.683 243.34 146.696 243.003 146.833C241.493 147.45 240.45 149.056 240.503 150.686C241.026 150.24 241.58 149.45 241.103 148.953C240.953 148.796 240.733 148.73 240.523 148.676C239.24 148.36 237.863 148.446 236.626 148.913C235.92 149.18 235.173 149.723 235.2 150.476C235.226 151.216 235.98 151.7 236.673 151.966C240.403 153.413 244.98 152.31 247.64 149.32C247.38 148.976 246.85 149.343 246.616 149.71C245.806 150.993 245.266 152.443 245.043 153.946C244.966 154.463 244.95 155.06 245.32 155.43C245.84 155.956 246.753 155.676 247.32 155.203C248.433 154.273 248.963 152.696 248.643 151.283C248.54 150.833 248.333 150.37 247.93 150.146C247.44 149.873 246.796 150.043 246.376 150.416C245.956 150.786 245.716 151.32 245.516 151.843C245.443 152.033 245.383 152.27 245.52 152.42C245.726 152.643 246.09 152.41 246.28 152.173C247.11 151.126 247.573 149.793 247.563 148.46C247.563 147.926 247.403 147.286 246.893 147.12C246.533 147.003 246.15 147.18 245.83 147.38C244.28 148.363 243.243 150.11 243.116 151.94C243.103 152.143 243.1 152.356 243.176 152.546C243.313 152.886 243.673 153.086 244.026 153.176C244.983 153.42 246.013 153.043 246.773 152.413C247.533 151.783 248.066 150.926 248.556 150.07C248.88 149.503 249.11 148.616 248.52 148.33C248.163 148.156 247.74 148.363 247.413 148.59C245.703 149.773 244.513 151.68 244.193 153.733C244.116 154.223 244.103 154.773 244.413 155.163C244.983 155.876 246.163 155.52 246.84 154.903C247.593 154.213 248.113 153.276 248.3 152.273C248.36 151.956 248.27 151.503 247.95 151.513C247.75 151.52 247.62 151.723 247.54 151.906C246.956 153.25 247.153 154.903 248.04 156.07C248.31 156.423 248.713 156.76 249.146 156.673C249.79 156.543 249.906 155.686 249.88 155.033C249.223 155.48 248.72 156.143 248.46 156.89C250.506 156.16 251.82 153.8 251.363 151.676C251.163 150.75 250.673 149.88 250.653 148.933C250.633 148.056 250.97 147.016 250.33 146.416C250.106 147.866 250.393 149.386 251.13 150.653C250.77 149.416 250.516 148.153 250.366 146.873C251.21 147.936 252.19 148.89 253.273 149.706C253.143 148.54 253.013 147.373 252.88 146.21C253.663 147.443 254.273 148.79 254.686 150.19C254.28 148.476 253.97 146.74 253.76 144.993C254.54 145.48 255.223 146.116 255.76 146.863C255.95 146.816 256.103 146.656 256.146 146.466" fill="#D8BF79"/>
<path d="M231.003 149.547C234.12 149.327 237.197 148.85 240.227 148.087C243.257 147.323 241.867 143.183 238.987 143.587C235.123 144.127 231.613 145.93 228.803 148.617C230.023 149.56 231.247 150.503 232.467 151.443C233.967 149.297 235.95 144.55 233.55 142.347C232.513 141.393 230.977 141.303 229.737 141.88C228.147 142.613 227.817 144.037 226.997 145.43C226.227 146.737 226.947 148.45 228.39 148.857C229.717 149.23 231.033 149.367 232.4 149.19C232.193 147.663 231.987 146.133 231.78 144.607C228.237 145.42 229.097 150.19 232.177 151C233.673 151.393 235.43 151.257 236.96 151.2C238.8 151.13 240.633 150.877 242.38 150.29C241.5 149.147 240.623 148.003 239.743 146.863C238.847 148.087 238.257 149.463 237.967 150.953C237.6 152.84 239.553 154.74 241.393 153.59C243.62 152.2 248.537 147.513 245.143 144.963C243.613 143.813 241.587 144.693 240.327 145.823C238.92 147.087 238.237 148.823 238.173 150.69C238.103 152.747 240.753 153.72 242.157 152.34C243.293 151.22 244.033 149.653 243.293 148.107C242.553 146.56 240.913 146.26 239.41 146.177C236.427 146.01 231.53 147.96 233.167 151.797C234.353 154.573 238.5 155.133 241.14 154.887C244.257 154.593 247.137 153.27 249.29 150.98C250.59 149.597 249.873 147.733 248.26 147.08C245.727 146.053 244.207 148.963 243.467 150.87C242.69 152.87 242.017 155.673 243.907 157.27C245.797 158.867 248.28 157.81 249.623 156.153C251.033 154.417 251.587 151.723 250.517 149.667C247.69 144.24 240.33 151.34 244.107 154.253C248.13 157.357 251.64 148.423 248.867 145.673C245.11 141.95 240.113 149.35 240.87 152.87C241.37 155.203 244.037 155.97 246.103 155.373C248.17 154.777 249.733 152.943 250.667 151.063C251.673 149.037 251.12 146.167 248.463 145.98C246.327 145.83 244.49 147.817 243.403 149.457C242.25 151.197 241.267 153.897 242.193 155.907C243.12 157.917 245.673 158.337 247.527 157.263C249.38 156.19 251.267 153.253 250.45 151.013C249.36 148.027 245.853 149.203 245.127 151.743C244.463 154.063 245.17 157.233 247.363 158.53C250.043 160.117 252.193 157.59 252.217 155.03C252.237 152.817 249.737 152.207 248.233 153.38C247.23 154.163 246.697 155.117 246.213 156.267C245.557 157.823 247.53 159.787 249.083 159.137C251.603 158.083 253.413 156.063 253.727 153.273C253.897 151.76 253.293 150.617 253.047 149.177C252.8 147.737 253.28 146.513 252.347 145.24C250.937 143.317 248.257 144.06 248 146.417C247.79 148.337 248.23 150.133 249.12 151.833C250.357 154.2 254.08 152.56 253.383 150.037C253.097 148.997 252.843 147.947 252.703 146.877L248.72 148.527C249.593 149.587 250.543 150.513 251.627 151.36C252.997 152.43 255.863 151.967 255.61 149.71C255.48 148.543 255.35 147.377 255.217 146.213C253.767 146.607 252.317 147 250.87 147.39C251.543 148.49 252.057 149.583 252.443 150.813C253.343 153.68 257.62 152.507 256.943 149.573C256.597 148.06 256.297 146.537 256.1 144.997C254.93 145.667 253.76 146.34 252.59 147.01C253.203 147.427 253.663 147.933 254.12 148.517C254.747 149.32 256.13 149.353 256.947 148.88C257.49 148.567 257.867 148.2 258.17 147.647C259.613 145.01 255.583 142.653 254.14 145.29L254.59 144.847C255.533 144.967 256.477 145.09 257.417 145.21C256.713 144.31 255.89 143.617 254.943 142.977C253.583 142.057 251.21 143.253 251.433 144.99C251.683 146.947 252 148.883 252.443 150.807L256.943 149.567C256.443 147.973 255.77 146.453 254.9 145.03C253.787 143.21 250.28 143.78 250.553 146.207C250.683 147.373 250.813 148.54 250.947 149.703L254.93 148.053C253.847 147.207 252.9 146.283 252.023 145.22C250.807 143.743 247.78 144.89 248.04 146.87C248.237 148.367 248.487 149.813 248.887 151.27C250.307 150.67 251.73 150.07 253.15 149.473C252.623 148.47 252.547 147.53 252.67 146.413C251.22 146.807 249.77 147.2 248.323 147.59C248.48 147.807 248.33 148.787 248.357 149.207C248.427 150.22 248.85 151.04 249.047 152.013C249.243 152.987 248.85 154.213 247.85 154.63C248.807 155.587 249.763 156.543 250.72 157.5C250.87 157.147 251.257 156.893 251.54 156.67L247.557 155.02C247.593 155.95 248.34 155.77 249.793 154.473C249.7 154.313 249.637 154.147 249.6 153.967C249.53 153.753 249.517 153.537 249.553 153.31C249.737 152.76 249.6 152.827 249.133 153.513H246.777L247.023 153.633L245.95 152.24C245.95 152.24 245.16 153.127 245.167 153.223L246.487 154.22C246.503 154.02 246.54 153.827 246.597 153.633C246.747 153.317 246.793 152.947 246.947 152.623C247.253 151.98 247.733 151.543 248.143 150.987C248.283 150.843 248.433 150.71 248.593 150.59L246.543 148.877C246.35 148.937 246.04 149.73 245.923 149.887C245.707 150.183 245.427 150.393 245.197 150.673C245.137 150.743 244.663 150.86 244.65 150.91C245.14 152.057 245.417 152.333 245.487 151.74C245.51 151.597 245.547 151.457 245.593 151.317C245.79 151.01 245.863 150.603 246.087 150.29C246.277 150.02 246.737 149.76 246.847 149.5C247.28 149.247 247.037 149.05 246.117 148.91C245.39 148.187 245.087 148.197 245.207 148.943C245.077 149.173 245.08 149.537 244.98 149.79C244.9 149.99 244.8 150.18 244.683 150.363C244.237 150.993 244.72 150.927 246.137 150.157L247.767 151.787C247.66 152.507 247.697 152.657 247.877 152.24C246.767 151.477 246.273 151.473 246.4 152.233C246.377 152.467 246.317 152.69 246.213 152.903C246.113 153.123 245.967 153.303 245.767 153.437C246.813 154.687 247.357 154.877 247.393 154C247.47 153.627 247.563 153.26 247.677 152.9C247.803 152.503 248.073 151.397 248.49 151.197L246.693 151.433L247.023 151.567C246.68 150.267 246.337 148.967 245.993 147.667C244.463 149.297 242.447 150.243 240.187 150.257C239.67 150.257 239.177 150.227 238.67 150.123C237.823 149.953 237.453 149.353 237.41 150.437C237.173 151.103 237.3 151.283 237.787 150.98C238.13 150.867 238.483 150.813 238.843 150.817C239.203 150.797 239.557 150.83 239.907 150.92C239.867 148.947 239.517 148.317 238.857 149.03L242.84 150.68C242.853 150.24 242.913 149.92 243.187 149.55L243.443 149.27C244.177 148.867 243.793 148.667 242.29 148.673L241.69 146.403C241.45 147.743 240.14 148.867 239.04 149.553L242.467 152.19C242.69 151.043 243.08 150.16 243.773 149.217C244.973 147.577 242.98 145.17 241.137 145.79C239.763 146.253 238.407 146.48 236.96 146.533C236.283 146.56 235.607 146.557 234.93 146.547C234.543 146.54 234.16 146.53 233.773 146.517C232.677 146.34 232.423 147.203 233.02 149.103C235.527 148.53 235.04 144.177 232.4 144.52C231.413 144.647 230.583 144.623 229.63 144.353L231.023 147.78C231.257 147.383 231.88 146.493 231.853 146.04L231.587 146.13C230.347 144.607 229.783 144.42 229.887 145.573C229.52 146.883 229.24 147.937 228.437 149.09C226.877 151.32 230.243 153.693 232.1 151.917C234.37 149.747 237.127 148.52 240.223 148.087L238.983 143.587C236.353 144.25 233.707 144.687 231 144.88C228.02 145.09 227.997 149.76 231 149.547H231.003Z" fill="#D8BF79"/>
<path d="M257.946 146.317C257.606 146.077 257.356 145.724 257.169 145.35C257.139 145.287 257.113 145.2 257.163 145.15C257.189 145.124 257.226 145.117 257.263 145.11C257.426 145.07 257.569 144.964 257.689 144.844C257.809 144.724 257.906 144.584 258.019 144.457C258.159 144.297 258.313 144.154 258.459 144.004C258.706 143.747 257.319 144.55 257.506 144.244" fill="#D8BF79"/>
<path d="M259.127 144.303C259.41 144.533 259.463 144.563 259.287 144.393C259.163 144.246 259.163 144.253 259.293 144.413C259.417 144.576 259.427 144.58 259.32 144.42C259.197 144.193 259.22 144.263 259.387 144.626V145.866L259.413 145.773L257.783 147.403C258.337 147.173 258.8 147 259.243 146.583C259.437 146.4 259.593 146.186 259.773 145.993C260.027 145.72 260.313 145.47 260.503 145.143C260.98 144.313 260.893 143.29 260.317 142.543C259.74 141.796 258.773 141.473 257.85 141.706C257.597 141.77 257.343 141.903 257.113 142.006C256.997 142.056 256.877 142.106 256.763 142.163C257.2 141.983 257.333 141.926 257.16 141.996C257.13 142.01 257.1 142.02 257.07 142.03C256.54 142.156 257.88 142.003 258.123 142.063L259.517 143.136L259.507 143.123L259.827 144.3V144.28C259.723 144.673 259.617 145.066 259.51 145.456L259.523 145.426C260.057 144.33 259.86 142.853 258.687 142.233C257.64 141.68 256.063 141.896 255.493 143.07C255.02 144.05 255.047 145.156 255.85 145.963C256.46 146.573 257.407 146.806 258.233 146.553C258.56 146.453 258.873 146.3 259.183 146.16C259.27 146.123 259.353 146.086 259.44 146.046C258.97 146.236 258.833 146.296 259.03 146.223C259.25 146.156 259.07 146.18 258.487 146.293L256.473 145.136V145.146C256.477 144.36 256.477 143.576 256.477 142.79C256.86 142.333 256.933 142.226 256.7 142.473C256.623 142.546 256.55 142.623 256.477 142.696C256.44 142.736 256.033 143.193 256.04 143.2C256.213 143.04 256.417 142.926 256.643 142.866C256.423 142.956 256.203 143.05 255.987 143.143C255.443 143.463 255.067 143.98 254.9 144.586C254.47 146.143 255.637 147.473 256.77 148.34C257.217 148.683 258.053 148.716 258.567 148.576C259.107 148.426 259.693 148.01 259.96 147.503C260.247 146.963 260.39 146.306 260.197 145.706C260.003 145.106 259.633 144.703 259.123 144.313L259.127 144.303Z" fill="#D8BF79"/>
<path d="M245.475 165.963C243.695 166.526 242.285 167.87 240.948 169.17C239.215 170.853 237.482 172.536 235.748 174.22C238.138 170.846 240.212 167.25 241.938 163.493C238.712 168.713 236.272 174.486 232.165 179.046C234.828 175.046 237.285 170.91 239.525 166.656C236.002 169.773 232.722 173.17 229.728 176.8C232.192 173.387 234.005 169.503 236.755 166.316C234.415 170.05 232.078 173.786 229.738 177.52C232.058 173.63 234.122 169.59 235.912 165.426C235.258 165.97 234.762 166.67 234.272 167.363C232.118 170.413 229.965 173.46 227.815 176.51C229.995 173.227 232.175 169.943 234.145 166.53C232.258 168.873 230.455 171.287 228.738 173.76C229.615 172.093 230.468 170.413 231.295 168.72C231.572 168.156 231.848 167.573 231.875 166.946C231.215 167.35 230.662 167.9 230.128 168.456C228.618 170.033 227.222 171.72 225.952 173.493C227.235 171.51 228.338 169.41 229.248 167.226C228.115 168.366 227.092 169.62 226.202 170.963C227.118 169.346 227.852 167.626 228.388 165.846C226.912 167.496 225.522 169.227 224.235 171.03C225.038 169.503 225.728 167.92 226.302 166.293C225.055 167.453 223.875 168.69 222.778 169.993C223.608 168.413 224.442 166.823 225.028 165.14C224.085 165.94 223.208 166.816 222.408 167.76C222.708 166.936 223.028 166.12 223.368 165.313C222.712 165.956 222.118 166.666 221.602 167.43C221.818 166.926 222.038 166.423 222.255 165.923" fill="#D8BF79"/>
<path d="M244.852 163.713C240.525 165.276 237.309 169.45 234.095 172.573C235.315 173.516 236.539 174.46 237.759 175.4C240.139 172.01 242.202 168.433 243.949 164.673C245.195 161.99 241.516 159.713 239.919 162.316C236.832 167.36 234.452 172.93 230.509 177.4C231.729 178.343 232.952 179.286 234.172 180.226C236.829 176.216 239.282 172.086 241.532 167.836C242.789 165.463 239.852 163.24 237.869 165.01C234.349 168.143 231.082 171.526 228.072 175.153C229.292 176.096 230.516 177.04 231.736 177.98C234.052 174.713 235.809 171.043 238.399 167.97C237.179 167.026 235.956 166.083 234.736 165.143C232.396 168.876 230.059 172.613 227.719 176.346L231.749 178.703C234.062 174.803 236.119 170.77 237.922 166.61C238.939 164.263 236.329 161.883 234.259 163.783C232.622 165.283 231.439 167.35 230.165 169.153C228.709 171.216 227.252 173.276 225.796 175.34L229.825 177.696C232.005 174.413 234.175 171.123 236.155 167.716C237.442 165.503 234.192 162.766 232.492 164.89C230.485 167.396 228.555 169.96 226.722 172.593L230.752 174.95C231.916 172.73 233.779 170.093 234.126 167.58C234.372 165.793 232.575 163.653 230.699 164.943C227.962 166.823 225.869 169.666 223.935 172.326L227.966 174.683C229.239 172.683 230.332 170.6 231.262 168.416C232.192 166.233 229.602 163.523 227.599 165.59C226.335 166.893 225.209 168.3 224.189 169.8L228.219 172.156C229.215 170.35 230.022 168.453 230.642 166.483C231.325 164.306 228.292 162.466 226.742 164.213C225.139 166.02 223.639 167.91 222.222 169.87L226.252 172.226C227.136 170.513 227.899 168.746 228.552 166.933C229.382 164.63 226.239 163.166 224.652 164.663C223.409 165.833 222.239 167.066 221.129 168.363C222.349 169.306 223.572 170.25 224.792 171.19C225.715 169.426 226.592 167.65 227.276 165.78C228.142 163.413 224.975 162.12 223.375 163.51C222.435 164.326 221.572 165.19 220.756 166.13C222.056 166.886 223.355 167.643 224.655 168.4C224.959 167.576 225.279 166.763 225.615 165.953C226.545 163.716 223.236 162.136 221.716 163.683C220.926 164.486 220.232 165.353 219.586 166.273L223.615 168.63C223.832 168.126 224.052 167.623 224.269 167.123C224.772 165.96 224.605 164.633 223.432 163.93C222.452 163.343 220.739 163.613 220.239 164.766C220.022 165.27 219.802 165.773 219.586 166.273C218.402 169.006 221.855 171.123 223.615 168.63C224.035 168.033 224.505 167.506 225.015 166.983C223.715 166.226 222.415 165.47 221.115 164.713C220.779 165.523 220.459 166.336 220.155 167.16C219.352 169.33 222.562 171.15 224.055 169.43C224.872 168.49 225.736 167.626 226.676 166.81C225.376 166.053 224.076 165.296 222.776 164.54C222.229 166.033 221.499 167.433 220.762 168.836C219.592 171.066 222.626 173.776 224.426 171.663C225.536 170.363 226.705 169.133 227.949 167.963C226.649 167.206 225.349 166.45 224.049 165.693C223.529 167.133 222.919 168.513 222.219 169.873C220.819 172.583 224.509 174.636 226.249 172.23C227.432 170.593 228.699 169.03 230.039 167.52C228.739 166.763 227.439 166.006 226.139 165.25C225.639 166.846 224.995 168.343 224.185 169.81C222.719 172.466 226.536 174.63 228.216 172.166C229.019 170.986 229.905 169.926 230.895 168.903C229.675 167.96 228.452 167.016 227.232 166.076C226.306 168.26 225.209 170.34 223.935 172.343C222.295 174.923 226.236 177.08 227.966 174.7C229.389 172.743 231.039 170.376 233.055 168.99C231.912 168.11 230.769 167.233 229.629 166.353C229.332 168.486 227.715 170.72 226.725 172.61C225.315 175.3 229.049 177.413 230.756 174.966C232.362 172.66 234.039 170.403 235.796 168.21C234.576 167.266 233.352 166.323 232.132 165.383C230.152 168.79 227.982 172.08 225.802 175.363C224.125 177.89 228.122 180.14 229.832 177.72C231.162 175.836 232.492 173.953 233.822 172.07C234.995 170.41 236.059 168.49 237.566 167.106C236.346 166.163 235.122 165.22 233.902 164.28C232.099 168.44 230.042 172.473 227.729 176.373C226.192 178.966 230.169 181.27 231.759 178.73C234.099 174.996 236.436 171.26 238.776 167.526C240.156 165.323 236.842 162.643 235.112 164.7C232.252 168.093 230.275 172.05 227.719 175.653C226.199 177.796 229.689 180.523 231.382 178.48C234.392 174.853 237.659 171.47 241.179 168.336C239.959 167.393 238.735 166.45 237.515 165.51C235.265 169.76 232.812 173.89 230.155 177.9C228.705 180.09 232.062 182.72 233.819 180.726C238.049 175.93 240.649 170.11 243.959 164.7L239.929 162.343C238.182 166.1 236.119 169.676 233.739 173.07C232.182 175.29 235.556 177.693 237.402 175.896C238.979 174.366 240.552 172.836 242.129 171.306C243.312 170.156 244.509 168.816 246.099 168.24C248.902 167.226 247.692 162.716 244.859 163.74L244.852 163.713Z" fill="#D8BF79"/>
<path d="M221.296 165.506C221.249 165.433 223.282 166.116 223.219 166.06Z" fill="#D8BF79"/>
<path d="M223.63 165.507C223.06 166.253 222.486 167.003 221.916 167.753H221.923C221.716 167.78 221.51 167.807 221.303 167.837H221.316C221.11 167.81 220.903 167.783 220.696 167.753C221.053 167.81 221.406 167.953 221.75 168.063C222.196 168.203 222.75 168.437 223.22 168.4C223.976 168.34 224.58 168.09 225.053 167.48C225.47 166.94 225.73 166.123 225.47 165.447C225.246 164.86 224.953 164.377 224.396 164.05C223.896 163.757 223.16 163.633 222.6 163.813C221.493 164.173 220.503 165.463 220.97 166.683C221.72 165.7 222.47 164.717 223.22 163.733H223.213C223.42 163.76 223.626 163.79 223.833 163.817C223.48 163.763 223.12 163.603 222.776 163.497C222.073 163.277 221.43 163.09 220.673 163.253C219.636 163.48 219.016 164.513 218.96 165.503C218.893 166.727 220.083 167.893 221.293 167.84C222.616 167.78 223.553 166.813 223.626 165.507H223.63Z" fill="#D8BF79"/>
<path d="M221.364 166.13C221.364 166.13 221.351 166.096 221.334 166.09C221.267 166.06 221.211 166.006 221.174 165.943C221.167 165.93 221.157 165.913 221.141 165.91C221.127 165.906 221.114 165.91 221.104 165.916C221.047 165.943 220.991 165.97 220.937 165.996C220.927 166 220.917 166.006 220.904 166.003C220.887 166 220.881 165.983 220.874 165.966C220.777 165.753 220.561 165.626 220.414 165.446" fill="#D8BF79"/>
<path d="M223.613 165.506C223.593 165.399 223.553 165.299 223.49 165.203C223.397 164.913 223.237 164.663 223.007 164.453C222.85 164.309 222.65 164.149 222.46 164.046L222.933 164.409C222.903 164.389 222.877 164.363 222.853 164.336L223.217 164.809C223.093 164.626 222.957 164.433 222.807 164.269C222.453 163.883 221.953 163.683 221.447 163.613C221.137 163.543 220.827 163.556 220.517 163.656C220.403 163.676 220.3 163.719 220.2 163.783C220.047 163.846 219.9 163.909 219.753 163.979L220.31 163.743L220.277 163.749L222.073 163.986L222.053 163.973L222.89 164.809C222.747 164.549 222.55 164.296 222.343 164.083C222.247 163.986 222.143 163.896 222.053 163.793C221.68 163.359 220.957 163.109 220.403 163.109C219.85 163.109 219.147 163.363 218.753 163.793C218.36 164.223 218.043 164.823 218.07 165.443L218.153 166.063C218.263 166.459 218.463 166.803 218.753 167.093C218.87 167.226 219.007 167.336 219.123 167.466L218.76 166.993C218.8 167.046 218.833 167.103 218.863 167.159C219.12 167.623 219.527 167.929 220 168.129C220.503 168.343 221.017 168.389 221.55 168.239C221.787 168.173 222.043 168.036 222.277 167.926L221.72 168.163L221.757 168.156L219.96 167.919L219.98 167.933L219.143 167.096C219.443 167.576 219.713 167.803 220.18 168.116L219.107 166.723V166.746C219.227 167.299 219.71 167.863 220.183 168.139C220.683 168.433 221.42 168.556 221.98 168.376C222.54 168.196 223.09 167.843 223.373 167.303L223.61 166.746C223.72 166.333 223.72 165.919 223.61 165.506H223.613Z" fill="#D8BF79"/>
<path d="M245.212 187.167C245.479 186.28 245.419 185.297 245.042 184.45C244.869 184.49 244.765 184.66 244.682 184.817C244.099 185.913 243.515 187.01 242.929 188.107C243.012 187.8 243.092 187.493 243.175 187.183C243.209 187.063 243.239 186.94 243.212 186.817C243.185 186.693 243.082 186.583 242.959 186.59C242.835 186.597 242.749 186.773 242.842 186.857C244.199 186.883 245.469 186.133 246.822 186.09C246.855 186.09 246.892 186.09 246.925 186.103C247.015 186.15 246.995 186.28 246.965 186.377C246.859 186.693 246.752 187.013 246.642 187.33C246.852 187.417 247.065 187.233 247.219 187.067C247.772 186.47 248.322 185.87 248.875 185.273C248.642 185.983 248.409 186.693 248.175 187.4C248.155 187.46 248.135 187.53 248.165 187.583C248.219 187.683 248.372 187.653 248.475 187.6C249.419 187.123 250.022 186.123 250.975 185.663C250.742 186.353 250.595 187.073 250.542 187.803C250.875 187.677 251.065 187.337 251.219 187.017C251.472 186.487 251.699 185.943 251.899 185.387C251.705 185.833 251.539 186.297 251.405 186.767C251.715 185.993 252.025 185.217 252.335 184.443C252.012 185.09 251.732 185.76 251.502 186.447L252.045 185.983" fill="#D8BF79"/>
<path d="M247.462 187.787C247.768 186.417 247.772 185.16 247.292 183.827C246.812 182.494 245.212 181.547 243.865 182.434C242.385 183.407 241.722 185.417 240.915 186.93C242.335 187.53 243.758 188.13 245.178 188.727C245.502 187.52 245.812 186.31 244.955 185.244C244.185 184.284 242.685 183.897 241.642 184.684C240.705 185.387 240.408 186.177 240.568 187.32L240.592 187.48C240.725 188.434 241.918 189.244 242.842 189.194C243.538 189.154 244.212 189.067 244.888 188.904C245.142 188.844 246.338 188.364 246.305 188.357L244.912 187.284L244.978 187.4L244.742 185.604C244.678 185.98 244.515 186.354 244.392 186.714C243.945 188.03 245.165 189.844 246.642 189.667C248.468 189.45 249.342 188.21 250.528 186.927C249.228 186.17 247.928 185.414 246.628 184.657C246.315 185.614 245.885 186.577 245.835 187.59C245.798 188.35 246.295 189.267 246.992 189.604C249.318 190.734 250.392 188.714 252.158 187.684L248.732 185.047C248.455 185.957 248.315 186.86 248.215 187.807C248.032 189.557 250.338 190.73 251.725 189.82C253.112 188.91 253.595 187.484 254.155 186.01C254.605 184.824 253.655 183.464 252.525 183.14C251.195 182.757 250.128 183.61 249.655 184.77C249.468 185.227 249.308 185.677 249.162 186.15C248.252 189.084 252.575 190.11 253.662 187.39L254.592 185.067C255.568 182.627 251.465 180.89 250.328 183.27C249.928 184.107 249.568 184.957 249.258 185.834C248.412 188.214 251.545 189.484 253.158 188.104L253.702 187.64C255.988 185.687 252.675 182.4 250.402 184.34L249.858 184.804C251.158 185.56 252.458 186.317 253.758 187.074C253.938 186.57 254.125 186.107 254.358 185.627C252.938 185.027 251.515 184.427 250.095 183.83L249.165 186.154L253.665 187.394C253.812 186.924 253.972 186.474 254.158 186.014L249.658 184.774C249.638 184.824 249.042 186.014 249.375 185.797C250.545 186.467 251.715 187.14 252.885 187.81C252.938 187.284 253.082 186.797 253.235 186.294C253.835 184.327 251.532 182.654 249.808 183.657C249.308 183.947 248.855 184.297 248.418 184.677C248.255 184.817 247.468 185.474 247.692 185.41L249.488 185.647L249.352 185.58L250.508 187.594C250.528 187.187 250.992 186.337 251.135 185.9C251.862 183.694 248.795 181.944 247.235 183.63C246.612 184.307 246.015 185.057 245.308 185.65L246.958 184.967L246.648 185.004L248.898 187.957C249.392 186.494 249.588 184.69 247.832 183.977C246.182 183.307 244.492 184.437 242.848 184.527L245.098 186.24L245.075 186.08L244.002 188.717L244.142 188.61L242.345 188.847L242.508 188.914L241.115 187.84C240.928 186.874 240.785 186.757 240.685 187.49C240.015 189.994 243.682 191.67 244.948 189.287C245.288 188.647 245.628 188.007 245.972 187.367C246.118 187.094 246.265 186.817 246.408 186.544C246.855 185.837 246.795 185.81 246.222 186.464L242.795 185.07C242.995 185.624 243.095 185.967 242.965 186.547C242.312 189.474 246.812 190.724 247.465 187.787H247.462Z" fill="#D8BF79"/>
<path d="M229.54 145.849C235.707 146.476 241.94 146.613 248.1 145.899C251.603 145.493 255.127 144.796 258.277 143.213C261.427 141.626 264.2 139.066 265.46 135.773C266.72 132.479 266.243 128.429 263.807 125.879C261.757 123.736 258.713 122.899 255.797 122.356C245.947 120.519 235.677 120.983 226.03 123.696C220.543 125.239 215.02 127.683 211.537 132.193C207.087 137.959 206.85 146.066 208.813 153.079C209.69 156.209 211.043 159.349 213.533 161.436C215.683 163.239 218.467 164.083 221.207 164.679C231.957 167.013 243.383 166.123 253.64 162.146" stroke="#938154" stroke-width="2" stroke-miterlimit="10" stroke-linecap="round"/>
<path d="M217.931 163.8C215.187 165.723 213.027 168.566 211.744 171.69C209.727 176.603 209.634 182.113 210.351 187.376C211.054 192.526 212.764 197.963 216.967 201.023C220.447 203.556 225.001 203.996 229.307 204.066C238.701 204.216 248.214 202.993 256.911 199.44" stroke="#938154" stroke-width="2" stroke-miterlimit="10" stroke-linecap="round"/>
<path d="M260.678 141.723C263.838 143.946 266.308 147.243 267.744 150.859C269.958 156.433 269.988 162.663 269.054 168.586C268.474 172.266 267.448 176.059 264.918 178.793C262.894 180.979 260.098 182.279 257.291 183.276C248.158 186.523 238.088 187.073 228.654 184.843" stroke="#938154" stroke-width="2" stroke-miterlimit="10" stroke-linecap="round"/>
<path d="M215.954 200.156C214.547 202.269 213.854 204.919 213.307 207.449C212.444 211.446 211.817 215.916 214.007 219.369C216.097 222.666 220.15 224.063 223.94 224.989C235.364 227.783 247.654 228.366 258.694 224.316C262.947 222.756 267.11 220.386 269.587 216.593C271.947 212.979 272.51 208.503 272.7 204.193C272.937 198.783 272.65 193.223 270.56 188.226C269.16 184.879 266.834 181.813 263.86 179.796" stroke="#938154" stroke-width="2" stroke-miterlimit="10" stroke-linecap="round"/>
<path d="M221.991 154.833C222.625 156.689 225.058 157.826 223.488 158.363C221.918 158.899 220.131 157.829 219.495 155.973C218.858 154.116 219.618 152.176 221.191 151.639C222.765 151.103 221.358 152.973 221.991 154.829V154.833Z" fill="#373433"/>
<path d="M227.161 153.066C227.795 154.923 230.228 156.059 228.658 156.596C227.088 157.133 225.301 156.063 224.665 154.206C224.028 152.349 224.788 150.409 226.361 149.873C227.935 149.336 226.528 151.206 227.161 153.063V153.066Z" fill="#373433"/>
<path d="M220.107 161.539C220.107 161.539 229.491 168.726 235.794 156.756" stroke="#373433" stroke-width="0.666667" stroke-miterlimit="10" stroke-linecap="round"/>
<path d="M237.686 122.08L239.476 108.17" stroke="#D1CDBF" stroke-width="1.66667" stroke-miterlimit="10" stroke-linecap="round"/>
<path d="M236.889 128.263L239.275 109.717" stroke="#D1CDBF" stroke-width="1.66667" stroke-miterlimit="10"/>
<path d="M231.836 126.637C235.026 128.76 239.543 128.653 242.629 126.38" stroke="#938154" stroke-miterlimit="10" stroke-linecap="round"/>
<path d="M277.302 151.826C276.349 150.712 275.399 149.596 274.445 148.482" stroke="#373433" stroke-width="2" stroke-miterlimit="10" stroke-linecap="round"/>
<path d="M277.941 151.646C278.645 150.589 279.348 149.536 280.051 148.479" stroke="#373433" stroke-width="2" stroke-miterlimit="10" stroke-linecap="round"/>
<path d="M277.803 152.686C279.369 152.506 280.913 152.146 282.396 151.616" stroke="#373433" stroke-width="2" stroke-miterlimit="10" stroke-linecap="round"/>
<path d="M260.873 178.54C267.673 170.94 273.26 162.257 277.356 152.92" stroke="#373433" stroke-width="2" stroke-miterlimit="10" stroke-linecap="round"/>
<path d="M208.335 117.114C207.535 116.648 190.675 106.694 190.519 95.2942C190.359 83.6609 205.695 82.0709 209.035 92.9109" fill="#EAA17F"/>
<path d="M208.335 117.114C209.135 116.647 226.605 106.681 226.765 95.2805C226.925 83.6472 211.588 82.0572 208.248 92.8972" fill="#EAA17F"/>
<path d="M158.637 193.397H134.57V201.051H158.637V193.397Z" fill="#EFF0F0"/>
<path d="M157.757 193.397H135.45C134.964 193.397 134.57 193.791 134.57 194.277V200.171C134.57 200.657 134.964 201.051 135.45 201.051H157.757C158.243 201.051 158.637 200.657 158.637 200.171V194.277C158.637 193.791 158.243 193.397 157.757 193.397Z" stroke="#373433" stroke-miterlimit="10"/>
<path d="M134.928 193.451L146.088 187.394C146.344 187.254 146.654 187.254 146.911 187.394L158.164 193.504" stroke="#373433" stroke-miterlimit="10" stroke-linecap="round"/>
<path d="M138.747 195.95C138.687 195.95 138.6 195.93 138.547 195.957C138.497 195.98 138.433 196.077 138.397 196.113C138.323 196.19 138.287 196.25 138.25 196.347C138.15 196.603 138.2 196.937 138.2 197.213C138.2 197.38 138.163 197.523 138.3 197.637C138.367 197.693 138.427 197.76 138.507 197.797C138.653 197.867 138.863 197.83 139.02 197.83C139.16 197.83 139.303 197.837 139.443 197.83C139.707 197.82 139.947 197.403 140.017 197.177C140.067 197.013 140.09 196.623 139.993 196.47C139.93 196.37 139.883 196.287 139.783 196.23C139.67 196.167 139.58 196.157 139.463 196.12C139.243 196.05 139.027 195.93 138.75 195.943L138.747 195.95Z" stroke="#373433" stroke-miterlimit="10" stroke-linecap="round"/>
<path d="M142.373 195.653C142.373 195.837 142.373 196.023 142.373 196.207C142.373 196.6 142.423 196.98 142.423 197.37C142.423 197.99 142.423 198.61 142.423 199.23" stroke="#373433" stroke-miterlimit="10" stroke-linecap="round"/>
<path d="M142.77 195.504C142.936 195.504 143.07 195.524 143.23 195.554C143.346 195.574 143.39 195.584 143.503 195.641C143.573 195.674 143.653 195.714 143.726 195.741C143.87 195.797 144.043 195.797 144.103 195.974C144.146 196.101 144.12 196.301 144.116 196.434C144.106 196.674 144.013 196.817 143.843 196.974C143.75 197.061 143.723 197.174 143.593 197.197C143.536 197.207 143.476 197.181 143.42 197.194C143.34 197.207 143.28 197.244 143.196 197.247C143.056 197.254 142.913 197.247 142.773 197.247" stroke="#373433" stroke-miterlimit="10" stroke-linecap="round"/>
<path d="M145.9 195.851C146.664 195.851 147.424 195.851 148.187 195.851" stroke="#373433" stroke-miterlimit="10" stroke-linecap="round"/>
<path d="M146.1 195.95C146.1 196.374 146.107 196.797 146.1 197.22C146.1 197.527 146.02 197.854 145.963 198.154C145.94 198.264 145.927 198.38 145.9 198.49C145.887 198.55 145.83 198.65 145.847 198.714C145.867 198.794 145.863 198.77 145.94 198.784C146.05 198.807 146.243 198.784 146.347 198.784H148.533" stroke="#373433" stroke-miterlimit="10" stroke-linecap="round"/>
<path d="M146.447 197.294C146.774 197.294 147.114 197.267 147.441 197.294C147.577 197.304 147.701 197.347 147.841 197.347C148.024 197.347 148.204 197.347 148.387 197.347" stroke="#373433" stroke-miterlimit="10" stroke-linecap="round"/>
<path d="M150.721 195.653C150.721 196.223 150.777 196.777 150.821 197.343C150.854 197.81 150.871 198.267 150.871 198.733" stroke="#373433" stroke-miterlimit="10" stroke-linecap="round"/>
<path d="M150.77 195.9C150.916 195.9 150.96 195.92 151.073 196.02C151.203 196.137 151.333 196.244 151.456 196.367C151.81 196.73 152.126 197.09 152.433 197.49C152.5 197.577 152.556 197.604 152.633 197.667C152.703 197.724 152.736 197.81 152.793 197.877C152.836 197.927 152.88 197.934 152.92 197.984C152.976 198.05 152.953 198.157 152.953 198.237" stroke="#373433" stroke-miterlimit="10" stroke-linecap="round"/>
<path d="M153.253 195.75C153.253 196.36 153.246 196.967 153.253 197.577C153.253 197.753 153.203 197.91 153.203 198.083C153.203 198.233 153.203 198.38 153.203 198.53" stroke="#373433" stroke-miterlimit="10" stroke-linecap="round"/>
</g>
<defs>
<clipPath id="clip0_261_2208">
<rect width="284" height="248" fill="white"/>
</clipPath>
</defs>
</svg>
