<svg width="284" height="248" viewBox="0 0 284 248" fill="none" xmlns="http://www.w3.org/2000/svg">
<g clip-path="url(#clip0_309_5504)">
<path d="M193.273 72.413C193.223 71.9397 193.383 71.4663 193.707 71.1163C200.263 63.9497 204.167 54.9463 204.167 45.1663C204.167 21.7863 181.857 2.83301 154.333 2.83301C126.81 2.83301 104.5 21.7863 104.5 45.1663C104.5 55.0697 108.503 64.1763 115.21 71.3863C115.54 71.7397 115.703 72.2163 115.653 72.6963L114.753 81.1763C114.62 82.443 115.907 83.383 117.073 82.8663L124.167 79.7163C124.663 79.4963 125.233 79.5363 125.697 79.8163C133.8 84.6563 143.673 87.503 154.333 87.503C164.993 87.503 174.717 84.6997 182.783 79.9263C183.25 79.6497 183.817 79.613 184.31 79.833L191.9 83.2163C193.063 83.7363 194.353 82.7997 194.223 81.5297L193.27 72.413H193.273Z" fill="white" stroke="#373433" stroke-width="2" stroke-miterlimit="10"/>
<path d="M-20.3574 122.889C-20.3574 122.889 -12.8708 205.789 75.8526 205.789C164.576 205.789 175.666 121.226 175.666 121.226" fill="#D9D9D9"/>
<path d="M-20.3574 122.889C-20.3574 122.889 -12.8708 205.789 75.8526 205.789C164.576 205.789 175.666 121.226 175.666 121.226" stroke="#5B2F20" stroke-width="2.77333" stroke-miterlimit="10"/>
<path d="M77.5152 153.113C131.582 153.113 175.665 138.973 175.665 121.506C175.665 104.039 131.859 89.8994 77.5152 89.8994C23.1719 89.8994 -20.6348 104.036 -20.6348 121.503C-20.6348 138.969 23.1719 153.109 77.5152 153.109V153.113Z" fill="#84452C" stroke="#5B2F20" stroke-width="2.77333" stroke-miterlimit="10"/>
<path d="M52.0046 138.693C52.838 143.683 52.2813 152.833 46.458 154.773C43.408 155.883 39.8046 154.773 36.478 153.94C33.7046 153.106 31.2113 152.553 28.7146 152.276C21.5046 151.166 13.7413 150.613 6.81129 152C2.93129 152.553 -1.22871 154.773 -5.11204 153.663C-10.102 152.276 -12.322 144.513 -11.212 139.8C-9.82537 134.533 -3.44871 132.87 1.26463 130.926C11.8013 126.49 19.5646 127.876 30.6546 128.71C35.9213 129.263 43.1313 129.263 46.7346 131.483C49.508 133.146 51.448 135.643 52.0013 138.693H52.0046Z" fill="#FAF5E2"/>
<path d="M59.2156 121.783C60.0489 126.773 59.4922 135.923 53.6689 137.863C50.6189 138.973 47.0156 137.863 43.6889 137.03C40.9156 136.196 38.4222 135.643 35.9256 135.366C28.7156 134.256 20.9522 133.703 14.0222 135.09C10.1422 135.643 5.98223 137.863 2.0989 136.753C-2.8911 135.366 -5.1111 127.603 -4.0011 122.89C-2.61443 117.623 3.76223 115.96 8.47557 114.016C19.0122 109.58 26.7756 110.966 37.8656 111.8C43.1322 112.353 50.3422 112.353 53.9456 114.573C56.7189 116.236 58.6589 118.733 59.2122 121.783H59.2156Z" fill="#665344"/>
<path d="M89.9922 150.339C86.6655 154.219 79.4555 159.766 74.4655 156.716C71.6922 155.053 70.0288 151.726 68.6422 148.676C67.5322 146.179 66.1455 143.686 64.7622 141.466C60.8822 135.366 56.1655 128.989 50.6222 124.553C47.5722 122.056 43.1355 120.393 41.4722 116.789C39.2555 112.076 43.6888 105.423 47.8488 103.203C52.5622 100.706 58.1088 104.589 62.5422 106.806C72.8022 111.796 76.9588 118.449 83.3355 127.599C86.3855 132.036 91.0988 137.303 91.9322 141.739C92.4855 144.789 91.9322 148.116 89.9922 150.336V150.339Z" fill="#FAF5E2"/>
<path d="M107.182 144.792C103.855 148.672 96.6449 154.219 91.6549 151.169C88.8816 149.506 87.2183 146.179 85.8316 143.129C84.7216 140.632 83.3349 138.139 81.9516 135.919C78.0716 129.819 73.3549 123.442 67.8116 119.006C64.7616 116.509 60.3249 114.846 58.6616 111.242C56.4449 106.529 60.8783 99.8758 65.0383 97.6558C69.7516 95.1591 75.2983 99.0424 79.7316 101.259C89.9916 106.249 94.1483 112.902 100.525 122.052C103.575 126.489 108.288 131.756 109.122 136.192C109.955 139.242 109.122 142.292 107.182 144.789V144.792Z" fill="#665344"/>
<path d="M91.3777 136.199C93.0411 141.189 93.8744 150.063 88.8811 152.836C86.1077 154.499 82.2277 153.946 79.1777 153.669C76.4044 153.393 73.6311 153.116 71.1377 153.116C63.9277 153.116 56.1644 154.226 49.5111 156.443C45.9077 157.553 42.0244 160.603 38.1444 160.046C33.1544 159.493 29.5477 152.283 29.8277 147.569C30.3811 142.303 36.4811 139.529 40.6411 136.756C50.3444 130.656 58.1077 130.656 69.1977 129.546C74.4644 129.269 81.3977 127.883 85.5577 129.546C88.0544 131.209 90.5477 133.426 91.3811 136.199H91.3777Z" fill="#965C35"/>
<path d="M150.989 133.149C149.049 137.863 143.779 145.349 138.236 144.239C135.186 143.686 132.413 140.913 130.196 138.693C128.256 136.753 126.316 134.813 124.373 133.146C118.826 128.709 112.173 124.273 105.796 121.503C102.193 120.116 97.4793 119.839 94.706 117.066C91.1027 113.463 93.0427 105.423 96.3693 102.093C100.249 98.4893 106.629 100.153 111.619 100.706C122.986 102.369 129.086 107.359 137.959 113.736C142.119 117.063 148.496 120.389 150.436 124.273C151.546 127.046 152.099 130.373 150.989 133.146V133.149Z" fill="#965C35"/>
<path d="M99.4185 140.356C97.4785 135.643 96.0918 126.493 101.082 123.443C103.855 121.779 107.735 121.779 110.785 122.056C113.559 122.056 116.332 122.333 118.825 122.056C126.035 121.503 133.799 120.116 140.175 117.619C143.779 116.233 147.385 113.183 151.265 113.183C156.255 113.459 160.415 120.393 160.415 125.106C160.139 130.373 154.315 133.423 150.435 136.473C141.009 143.126 133.245 143.683 122.432 145.069C117.165 145.623 110.232 147.286 106.072 145.903C103.022 145.349 100.525 143.129 99.4185 140.356Z" fill="#FAF5E2"/>
<path d="M96.0923 158.103C94.1523 153.39 92.7657 144.24 97.7557 141.19C100.529 139.526 104.409 139.526 107.459 139.803C110.232 139.803 113.006 140.08 115.499 139.803C122.709 139.25 130.472 137.863 136.849 135.366C140.452 133.98 144.059 130.93 147.939 130.93C152.929 131.206 157.089 138.14 157.089 142.853C156.812 148.12 150.989 151.17 147.109 154.22C137.682 160.873 129.919 161.43 119.106 162.816C113.839 163.37 106.906 165.033 102.746 163.65C99.6957 163.096 97.199 161.153 96.0923 158.103Z" fill="#665344"/>
<path d="M77.2386 153.113C24.5586 153.113 -18.1381 139.803 -20.6348 122.893C-20.6348 122.893 -12.8714 205.793 75.5752 205.793C155.149 205.793 172.339 137.863 175.112 123.723C171.232 140.359 128.809 153.113 77.2386 153.113Z" fill="#D9D9D9" stroke="#5B2F20" stroke-width="2.77333" stroke-miterlimit="10" stroke-linecap="round"/>
<path d="M75.1992 165.573C76.2592 165.573 77.3225 165.573 78.3825 165.589C79.6392 165.633 80.9459 165.633 82.0559 164.979" stroke="#373433" stroke-miterlimit="10" stroke-linecap="round"/>
<path d="M76.9877 165.275C76.711 166.812 76.341 168.509 76.2277 170.085C76.1277 171.812 76.701 172.139 78.6243 172.175C80.4877 172.189 82.661 172.095 84.441 172.132" stroke="#373433" stroke-miterlimit="10" stroke-linecap="round"/>
<path d="M81.1621 165.276C82.6354 164.913 84.1654 165.049 85.6621 164.833C86.5488 164.693 87.4288 164.509 88.3188 164.383" stroke="#373433" stroke-miterlimit="10" stroke-linecap="round"/>
<path d="M83.248 165.275C83.328 166.422 83.4347 167.565 83.488 168.712C83.538 169.819 83.5047 171.042 84.108 171.712C85.268 172.859 87.1414 172.332 88.618 172.432" stroke="#373433" stroke-miterlimit="10" stroke-linecap="round"/>
<path d="M86.8242 168.852C88.5309 168.112 90.6375 168.499 92.1909 167.362" stroke="#373433" stroke-miterlimit="10" stroke-linecap="round"/>
<path d="M93.0886 161.996C93.3019 166.383 92.2186 170.636 91.002 174.816" stroke="#373433" stroke-miterlimit="10" stroke-linecap="round"/>
<path d="M83.8457 178.095C85.4624 177.912 87.079 177.719 88.6824 177.425C90.509 177.162 93.119 176.132 93.5824 178.359C93.719 180.399 92.7057 182.405 92.1957 184.359" stroke="#373433" stroke-miterlimit="10" stroke-linecap="round"/>
<path d="M98.752 160.506C98.842 162.396 99.4653 164.216 99.6986 166.103C99.8553 167.313 99.9053 168.529 99.9453 169.749" stroke="#373433" stroke-miterlimit="10" stroke-linecap="round"/>
<path d="M105.908 159.909C106.335 160.819 106.528 161.803 106.538 162.806C106.602 164.419 106.628 166.073 106.208 167.663" stroke="#373433" stroke-miterlimit="10" stroke-linecap="round"/>
<path d="M99.0527 166.765C100.603 165.892 102.506 166.005 104.119 165.275" stroke="#373433" stroke-miterlimit="10" stroke-linecap="round"/>
<path d="M99.9453 170.046C102.455 170.026 104.932 170.229 107.399 169.749" stroke="#373433" stroke-miterlimit="10" stroke-linecap="round"/>
<path d="M103.821 170.939C103.675 172.356 103.925 173.709 104.118 175.113" stroke="#373433" stroke-miterlimit="10" stroke-linecap="round"/>
<path d="M99.9453 176.603C101.595 176.549 103.242 176.449 104.892 176.379C107.799 176.269 110.755 176.413 113.659 176.006" stroke="#373433" stroke-miterlimit="10" stroke-linecap="round"/>
<path d="M101.436 181.969C103.036 182.066 104.782 181.656 106.322 182.099C107.712 182.799 106.152 184.396 105.489 185.453C104.762 186.486 104.236 187.636 103.822 188.826" stroke="#373433" stroke-miterlimit="10" stroke-linecap="round"/>
<path d="M106.205 183.163C107.452 182.803 108.698 182.416 109.942 182.046C110.588 181.869 111.248 181.709 111.868 181.819C113.698 182.293 112.752 184.616 112.322 186.153C111.908 187.423 111.562 188.716 111.275 190.019" stroke="#373433" stroke-miterlimit="10" stroke-linecap="round"/>
<path d="M119.024 167.959C117.218 168.049 115.204 168.169 113.824 169.299C112.814 170.069 112.634 171.509 113.608 172.355C114.691 173.402 116.994 173.619 118.428 172.749C121.258 170.999 119.304 167.675 117.538 165.872" stroke="#373433" stroke-miterlimit="10" stroke-linecap="round"/>
<path d="M125.285 163.782C126.355 170.272 126.545 176.909 127.075 183.459" stroke="#373433" stroke-miterlimit="10" stroke-linecap="round"/>
<path d="M40.8418 163.429C41.3785 163.429 41.9185 163.429 42.4551 163.429C42.8251 163.429 43.2318 163.372 43.5985 163.416C43.9651 163.459 44.1585 163.612 44.5151 163.656C45.4885 163.779 46.5351 163.876 47.0618 164.862C47.2485 165.209 47.1151 165.962 47.1118 166.362C47.0951 167.652 46.2885 168.712 46.0385 169.972C45.8151 171.099 45.2785 172.099 44.8551 173.169C44.4951 174.076 44.2885 175.036 43.9151 175.939L43.7485 175.949" stroke="#373433" stroke-miterlimit="10" stroke-linecap="round"/>
<path d="M51.5742 162.536C51.5742 166.486 51.5742 170.436 51.5742 174.386" stroke="#373433" stroke-miterlimit="10" stroke-linecap="round"/>
<path d="M51.5742 169.466C52.5576 168.973 53.7976 168.793 54.9276 168.796" stroke="#373433" stroke-miterlimit="10" stroke-linecap="round"/>
<path d="M48.4449 173.716C48.4449 174.499 48.5083 175.316 48.4549 176.096C48.4049 176.812 48.2149 177.452 48.2216 178.179C48.2249 178.662 48.0849 179.392 48.2049 179.852C48.3149 180.276 48.6383 180.352 49.0683 180.416C50.3783 180.606 51.4549 180.979 52.7316 181.419C53.8716 181.812 55.0749 181.962 56.2716 181.986" stroke="#373433" stroke-miterlimit="10" stroke-linecap="round"/>
<path d="M58.7286 164.995C59.9453 164.832 61.0786 164.772 62.3053 164.772C63.0486 164.772 64.2586 164.539 64.9586 164.802C65.102 165.255 65.0686 166.039 64.9153 166.485C64.5453 167.549 63.472 168.919 62.762 169.762C62.342 170.259 61.7986 170.605 61.4053 171.129C61.012 171.652 60.6286 172.272 60.2186 172.822C59.9453 173.189 59.7053 173.605 59.3986 173.952C59.072 174.325 58.6886 174.572 58.502 175.059" stroke="#373433" stroke-miterlimit="10" stroke-linecap="round"/>
<path d="M62.3086 171.926C62.3119 172.269 62.5386 172.386 62.7919 172.576C63.1919 172.879 63.4586 173.179 63.7686 173.579C64.0319 173.919 64.3219 174.176 64.6053 174.499C64.8286 174.756 65.0286 175.342 65.4386 175.279" stroke="#373433" stroke-miterlimit="10" stroke-linecap="round"/>
<path d="M67.8984 161.866C67.9118 163.173 68.0118 164.49 68.1784 165.786C68.4051 167.56 68.3484 169.32 68.3384 171.11C68.3318 172.31 68.5451 173.476 68.5818 174.673C68.6118 175.643 68.5718 176.623 68.5651 177.593C68.5584 178.856 68.7951 180.066 68.7951 181.32" stroke="#373433" stroke-miterlimit="10" stroke-linecap="round"/>
<path d="M68.1211 172.149C68.9578 172.149 69.7944 172.149 70.6344 172.149C71.1211 172.149 71.6311 172.216 72.1078 172.099C72.4611 172.013 72.6578 171.869 73.0411 171.926" stroke="#373433" stroke-miterlimit="10" stroke-linecap="round"/>
<path d="M64.7659 184.896C63.8726 184.906 63.1292 184.786 62.7259 185.67C62.3759 186.436 62.2626 187.18 62.3026 188.02C62.3259 188.53 62.4226 188.85 62.7559 189.203C63.0892 189.556 63.3092 189.596 63.7426 189.813C64.5926 190.24 65.3026 190.256 66.2826 190.26C68.5192 190.27 69.3259 188.353 69.2426 186.34C69.2192 185.766 69.1426 185.603 68.6792 185.28C68.3626 185.056 68.1192 184.753 67.7592 184.653C67.2926 184.526 66.6092 184.67 66.1126 184.67C65.6659 184.67 65.2159 184.67 64.7692 184.67" stroke="#373433" stroke-miterlimit="10" stroke-linecap="round"/>
<path d="M137.643 122.889C137.643 122.889 145.129 205.789 233.853 205.789C322.576 205.789 333.666 121.226 333.666 121.226" fill="#D9D9D9"/>
<path d="M137.643 122.889C137.643 122.889 145.129 205.789 233.853 205.789C322.576 205.789 333.666 121.226 333.666 121.226" stroke="#5B2F20" stroke-width="2.77333" stroke-miterlimit="10"/>
<path d="M235.515 153.113C289.582 153.113 333.665 138.973 333.665 121.506C333.665 104.039 289.859 89.8994 235.515 89.8994C181.172 89.8994 137.365 104.039 137.365 121.506C137.365 138.973 181.172 153.113 235.515 153.113Z" fill="#84452C" stroke="#5B2F20" stroke-width="2.77333" stroke-miterlimit="10"/>
<path d="M210.005 138.693C210.838 143.683 210.281 152.833 204.458 154.773C201.408 155.883 197.805 154.773 194.478 153.94C191.705 153.106 189.211 152.553 186.715 152.276C179.505 151.166 171.741 150.613 164.811 152C160.931 152.553 156.771 154.773 152.888 153.663C147.898 152.276 145.678 144.513 146.788 139.8C148.175 134.533 154.551 132.87 159.265 130.926C169.801 126.49 177.565 127.876 188.655 128.71C193.921 129.263 201.131 129.263 204.735 131.483C207.508 133.146 209.448 135.643 210.001 138.693H210.005Z" fill="#FAF5E2"/>
<path d="M217.216 121.783C218.049 126.773 217.492 135.923 211.669 137.863C208.619 138.973 205.016 137.863 201.689 137.03C198.916 136.196 196.422 135.643 193.926 135.366C186.716 134.256 178.952 133.703 172.022 135.09C168.142 135.643 163.982 137.863 160.099 136.753C155.109 135.366 152.889 127.603 153.999 122.89C155.386 117.623 161.762 115.96 166.476 114.016C177.012 109.58 184.776 110.966 195.866 111.8C201.132 112.353 208.342 112.353 211.946 114.573C214.719 116.236 216.659 118.733 217.212 121.783H217.216Z" fill="#382D26"/>
<path d="M247.992 150.339C244.665 154.219 237.456 159.766 232.466 156.716C229.692 155.053 228.029 151.726 226.642 148.676C225.532 146.179 224.145 143.686 222.762 141.466C218.882 135.366 214.166 128.989 208.622 124.553C205.572 122.056 201.135 120.393 199.472 116.789C197.255 112.076 201.689 105.423 205.849 103.203C210.562 100.706 216.109 104.589 220.542 106.806C230.802 111.796 234.959 118.449 241.336 127.599C244.386 132.036 249.099 137.303 249.932 141.739C250.485 144.789 249.932 148.116 247.992 150.336V150.339Z" fill="#FAF5E2"/>
<path d="M265.182 144.792C261.855 148.672 254.645 154.219 249.655 151.169C246.882 149.506 245.218 146.179 243.832 143.129C242.722 140.632 241.335 138.139 239.952 135.919C236.072 129.819 231.355 123.442 225.812 119.006C222.762 116.509 218.325 114.846 216.662 111.242C214.445 106.529 218.878 99.8758 223.038 97.6558C227.752 95.1591 233.298 99.0424 237.732 101.259C247.992 106.249 252.148 112.902 258.525 122.052C261.575 126.489 266.288 131.756 267.122 136.192C267.955 139.242 267.122 142.292 265.182 144.789V144.792Z" fill="#382D26"/>
<path d="M249.378 136.199C251.041 141.189 251.874 150.063 246.881 152.836C244.108 154.499 240.228 153.946 237.178 153.669C234.404 153.393 231.631 153.116 229.138 153.116C221.928 153.116 214.164 154.226 207.511 156.443C203.908 157.553 200.024 160.603 196.144 160.046C191.154 159.493 187.548 152.283 187.828 147.569C188.381 142.303 194.481 139.529 198.641 136.756C208.344 130.656 216.108 130.656 227.198 129.546C232.464 129.269 239.398 127.883 243.558 129.546C246.054 131.209 248.548 133.426 249.381 136.199H249.378Z" fill="#52341C"/>
<path d="M308.989 133.149C307.049 137.863 301.779 145.349 296.236 144.239C293.186 143.686 290.413 140.913 288.196 138.693C286.256 136.753 284.316 134.813 282.373 133.146C276.826 128.709 270.173 124.273 263.796 121.503C260.193 120.116 255.479 119.839 252.706 117.066C249.103 113.463 251.043 105.423 254.369 102.093C258.249 98.4893 264.629 100.153 269.619 100.706C280.986 102.369 287.086 107.359 295.959 113.736C300.119 117.063 306.496 120.389 308.436 124.273C309.546 127.046 310.099 130.373 308.989 133.146V133.149Z" fill="#52341C"/>
<path d="M257.419 140.356C255.479 135.643 254.092 126.493 259.082 123.443C261.855 121.779 265.735 121.779 268.785 122.056C271.559 122.056 274.332 122.333 276.825 122.056C284.035 121.503 291.799 120.116 298.175 117.619C301.779 116.233 305.385 113.183 309.265 113.183C314.255 113.459 318.415 120.393 318.415 125.106C318.139 130.373 312.315 133.423 308.435 136.473C299.009 143.126 291.245 143.683 280.432 145.069C275.165 145.623 268.232 147.286 264.072 145.903C261.022 145.349 258.525 143.129 257.419 140.356Z" fill="#FAF5E2"/>
<path d="M254.092 158.103C252.152 153.39 250.766 144.24 255.756 141.19C258.529 139.526 262.409 139.526 265.459 139.803C268.232 139.803 271.006 140.08 273.499 139.803C280.709 139.25 288.472 137.863 294.849 135.366C298.452 133.98 302.059 130.93 305.939 130.93C310.929 131.206 315.089 138.14 315.089 142.853C314.812 148.12 308.989 151.17 305.109 154.22C295.682 160.873 287.919 161.43 277.106 162.816C271.839 163.37 264.906 165.033 260.746 163.65C257.696 163.096 255.199 161.153 254.092 158.103Z" fill="#382D26"/>
<path d="M235.239 153.113C182.559 153.113 139.862 139.803 137.365 122.893C137.365 122.893 145.129 205.793 233.575 205.793C313.149 205.793 330.339 137.863 333.112 123.723C329.232 140.359 286.809 153.113 235.239 153.113Z" fill="#D9D9D9" stroke="#5B2F20" stroke-width="2.77333" stroke-miterlimit="10" stroke-linecap="round"/>
<path d="M168.689 163.156C171.393 163.383 174.103 163.723 176.793 163.9C179.103 164.073 182.116 164.006 180.386 167.203C178.516 170.57 176.423 173.83 174.056 176.873" stroke="#373433" stroke-miterlimit="10" stroke-linecap="round"/>
<path d="M177.934 170.312C178.474 172.193 179.414 173.959 180.32 175.679" stroke="#373433" stroke-miterlimit="10" stroke-linecap="round"/>
<path d="M181.21 166.732C182.153 166.842 185.82 166.326 185.737 167.669C185.68 168.366 184.59 169.519 183.867 170.589C182.72 172.246 181.693 173.979 180.613 175.676" stroke="#373433" stroke-miterlimit="10" stroke-linecap="round"/>
<path d="M183 170.909C183.71 171.573 184.133 172.436 184.453 173.339C185.047 174.713 185.763 176.066 186.28 177.469" stroke="#373433" stroke-miterlimit="10" stroke-linecap="round"/>
<path d="M189.855 161.369C190.459 168.086 190.649 174.886 190.749 181.642" stroke="#373433" stroke-miterlimit="10" stroke-linecap="round"/>
<path d="M191.049 174.189C193.135 174.189 195.222 174.189 197.309 174.189" stroke="#373433" stroke-miterlimit="10" stroke-linecap="round"/>
<path d="M196.713 166.436C197.856 166.416 199 166.392 200.143 166.332C201.436 166.269 202.836 166.186 203.46 166.589C205.23 167.569 200.493 172.252 199.693 173.292" stroke="#373433" stroke-miterlimit="10" stroke-linecap="round"/>
<path d="M202.08 170.609C203.487 171.823 204.597 173.396 205.783 174.783C206.333 175.416 206.797 176.106 207.15 176.869" stroke="#373433" stroke-miterlimit="10" stroke-linecap="round"/>
<path d="M210.727 161.369C211.983 168.269 211.903 175.326 210.727 182.239" stroke="#373433" stroke-miterlimit="10" stroke-linecap="round"/>
<path d="M211.619 172.996C213.249 173.009 214.792 172.586 216.389 172.399" stroke="#373433" stroke-miterlimit="10" stroke-linecap="round"/>
<path d="M208.042 179.553C206.952 180.149 205.892 180.769 205.149 181.606C203.462 183.296 203.416 186.569 205.819 187.599C207.399 188.333 209.606 187.906 210.552 186.476C212.242 183.756 209.539 181.243 207.149 180.149" stroke="#373433" stroke-miterlimit="10" stroke-linecap="round"/>
<path d="M219.969 166.733C221.029 166.733 222.092 166.733 223.152 166.75C224.409 166.793 225.715 166.793 226.825 166.14" stroke="#373433" stroke-miterlimit="10" stroke-linecap="round"/>
<path d="M221.755 166.436C221.479 167.972 221.109 169.669 220.995 171.246C220.895 172.972 221.469 173.299 223.392 173.336C225.255 173.349 227.429 173.256 229.209 173.292" stroke="#373433" stroke-miterlimit="10" stroke-linecap="round"/>
<path d="M225.934 166.436C227.407 166.073 228.937 166.21 230.434 165.993C231.32 165.853 232.2 165.67 233.09 165.543" stroke="#373433" stroke-miterlimit="10" stroke-linecap="round"/>
<path d="M228.02 166.436C228.1 167.582 228.206 168.726 228.26 169.872C228.31 170.979 228.276 172.202 228.88 172.872C230.04 174.019 231.913 173.492 233.39 173.592" stroke="#373433" stroke-miterlimit="10" stroke-linecap="round"/>
<path d="M231.596 170.012C233.302 169.272 235.409 169.659 236.962 168.522" stroke="#373433" stroke-miterlimit="10" stroke-linecap="round"/>
<path d="M237.856 163.156C238.07 167.543 236.986 171.796 235.77 175.976" stroke="#373433" stroke-miterlimit="10" stroke-linecap="round"/>
<path d="M228.613 179.256C230.23 179.072 231.847 178.879 233.45 178.586C235.277 178.322 237.887 177.292 238.35 179.519C238.487 181.559 237.473 183.566 236.963 185.519" stroke="#373433" stroke-miterlimit="10" stroke-linecap="round"/>
<path d="M243.523 161.666C243.613 163.556 244.237 165.376 244.47 167.263C244.627 168.473 244.677 169.689 244.717 170.909" stroke="#373433" stroke-miterlimit="10" stroke-linecap="round"/>
<path d="M250.676 161.069C251.102 161.979 251.296 162.963 251.306 163.966C251.369 165.579 251.396 167.233 250.976 168.823" stroke="#373433" stroke-miterlimit="10" stroke-linecap="round"/>
<path d="M243.82 167.926C245.37 167.052 247.274 167.166 248.887 166.436" stroke="#373433" stroke-miterlimit="10" stroke-linecap="round"/>
<path d="M244.713 171.206C247.223 171.186 249.7 171.389 252.166 170.909" stroke="#373433" stroke-miterlimit="10" stroke-linecap="round"/>
<path d="M248.589 172.1C248.442 173.516 248.692 174.87 248.886 176.273" stroke="#373433" stroke-miterlimit="10" stroke-linecap="round"/>
<path d="M244.713 177.766C246.363 177.712 248.01 177.612 249.66 177.542C252.566 177.432 255.523 177.576 258.426 177.169" stroke="#373433" stroke-miterlimit="10" stroke-linecap="round"/>
<path d="M246.203 183.132C247.803 183.229 249.55 182.819 251.09 183.262C252.48 183.962 250.92 185.559 250.256 186.616C249.53 187.649 249.003 188.799 248.59 189.989" stroke="#373433" stroke-miterlimit="10" stroke-linecap="round"/>
<path d="M250.977 184.326C252.223 183.966 253.47 183.579 254.713 183.209C255.36 183.032 256.02 182.872 256.64 182.982C258.47 183.456 257.523 185.779 257.093 187.316C256.68 188.586 256.333 189.879 256.047 191.182" stroke="#373433" stroke-miterlimit="10" stroke-linecap="round"/>
<path d="M263.796 169.119C261.989 169.209 259.976 169.329 258.596 170.459C257.586 171.229 257.406 172.669 258.379 173.516C259.462 174.562 261.766 174.779 263.199 173.909C266.029 172.159 264.076 168.836 262.309 167.032" stroke="#373433" stroke-miterlimit="10" stroke-linecap="round"/>
<path d="M270.057 164.946C271.127 171.436 271.317 178.073 271.847 184.623" stroke="#373433" stroke-miterlimit="10" stroke-linecap="round"/>
<path d="M-76.3235 -69.7732C-42.2835 -76.4765 18.7432 -74.9299 33.3565 -38.1399C41.6098 -18.0265 39.7165 54.0068 39.0298 76.3535C38.3432 94.7468 34.2165 257.207 32.1532 274.223C26.8232 322.187 15.8198 334.737 25.9632 380.81C30.9498 406.423 21.6665 394.733 15.9932 420.693C8.08649 454.043 -72.8868 443.043 -104.347 436.853C-139.417 429.29 -106.067 364.133 -121.194 334.05C-154.544 263.737 -139.76 150.79 -136.667 76.3535C-134.087 40.7668 -137.354 -7.19653 -122.914 -33.4999C-113.63 -51.3799 -96.9535 -65.4765 -76.8402 -69.4299L-76.3235 -69.7732Z" fill="#FAF5E2" stroke="#D1CDBF" stroke-width="5.10667" stroke-miterlimit="10"/>
<path d="M256.963 -11.1504C248.5 1.90963 246.293 18.0963 247.767 33.733C249.053 49.1863 253.653 64.2696 257.333 79.353C265.06 110.993 268.923 143.92 264.323 176.11C259.723 208.3 246.113 239.94 222.383 262.196C214.657 269.37 206.197 275.623 199.39 283.72C192.767 291.813 187.987 302.483 190.193 312.783C192.4 323.636 202.15 331.913 212.82 335.226C223.49 338.536 234.893 337.433 245.93 335.41C298.357 325.843 344.893 292.733 375.983 249.323C407.07 206.096 423.257 153.116 427.49 99.9563C429.33 76.5963 429.147 53.0496 423.26 30.423C417.373 7.7963 405.417 -13.7237 387.207 -28.257C356.67 -52.537 312.34 -48.307 279.413 -30.8337C270.4 -26.0504 262.49 -19.6137 256.97 -11.1504H256.963Z" fill="#D54400" stroke="#A53002" stroke-width="3.68" stroke-miterlimit="10"/>
<path d="M20.7031 174.737C55.3265 198.864 93.3898 220.354 133.333 238.334" stroke="#373433" stroke-width="2.84" stroke-miterlimit="10" stroke-linecap="round"/>
<path d="M134.42 237.81C137.86 236.837 141.403 236.224 144.97 235.99" stroke="#373433" stroke-width="3" stroke-miterlimit="10" stroke-linecap="round"/>
<path d="M134.09 238.747C137.287 240.41 140.547 241.944 143.863 243.347" stroke="#373433" stroke-width="3" stroke-miterlimit="10" stroke-linecap="round"/>
<path d="M133.453 238.36C133.633 241.31 134.293 244.23 135.403 246.97" stroke="#373433" stroke-width="3" stroke-miterlimit="10" stroke-linecap="round"/>
<path d="M269.89 174.75C235.266 198.877 197.203 220.367 157.26 238.347" stroke="#373433" stroke-width="2.84" stroke-miterlimit="10" stroke-linecap="round"/>
<path d="M156.177 237.82C152.737 236.847 149.194 236.233 145.627 236" stroke="#373433" stroke-width="3" stroke-miterlimit="10" stroke-linecap="round"/>
<path d="M156.504 238.757C153.307 240.42 150.047 241.953 146.73 243.357" stroke="#373433" stroke-width="3" stroke-miterlimit="10" stroke-linecap="round"/>
<path d="M157.139 238.37C156.959 241.32 156.299 244.24 155.189 246.98" stroke="#373433" stroke-width="3" stroke-miterlimit="10" stroke-linecap="round"/>
<path d="M145.504 234.001C144.82 233.601 130.394 225.084 130.257 215.331C130.12 205.377 143.244 204.014 146.1 213.291" fill="#EAA17F"/>
<path d="M145.503 234C146.186 233.6 161.14 225.074 161.273 215.317C161.41 205.364 148.286 204 145.43 213.277" fill="#EAA17F"/>
<path d="M152.949 21.4102C147.925 26.9235 141.499 31.1468 134.445 33.5735" stroke="#373433" stroke-width="1.82667" stroke-miterlimit="10" stroke-linecap="round"/>
<path d="M162.479 25.0498C164.999 32.0431 170.705 37.8165 177.669 40.4165" stroke="#373433" stroke-width="1.82667" stroke-miterlimit="10" stroke-linecap="round"/>
<path d="M133.441 60.2039C135.278 56.3406 137.205 52.3572 140.461 49.5839C143.825 46.7206 148.448 45.4372 152.825 46.0272C157.201 46.6172 161.278 49.0406 163.991 52.5239C166.705 56.0073 168.058 60.5006 167.845 64.9106" stroke="#373433" stroke-width="1.82667" stroke-miterlimit="10" stroke-linecap="round"/>
<path d="M146.408 36.5567C148.085 36.5567 149.444 35.1972 149.444 33.5201C149.444 31.843 148.085 30.4834 146.408 30.4834C144.731 30.4834 143.371 31.843 143.371 33.5201C143.371 35.1972 144.731 36.5567 146.408 36.5567Z" fill="#373433"/>
<path d="M163.191 40.2433C164.868 40.2433 166.228 38.8837 166.228 37.2066C166.228 35.5295 164.868 34.1699 163.191 34.1699C161.514 34.1699 160.154 35.5295 160.154 37.2066C160.154 38.8837 161.514 40.2433 163.191 40.2433Z" fill="#373433"/>
<path d="M167.155 44.4499C167.145 45.0232 167.199 45.6099 167.419 46.1399C167.639 46.6699 168.042 47.1432 168.575 47.3565C169.109 47.5699 169.775 47.4799 170.172 47.0665C170.552 46.6699 170.632 46.0565 170.512 45.5232C170.392 44.9865 170.099 44.5065 169.812 44.0399C169.569 43.6432 169.325 43.2465 169.082 42.8499C168.875 42.5165 168.682 42.0199 168.382 41.7632C167.665 41.1565 167.402 42.6232 167.315 43.0365C167.219 43.5032 167.165 43.9765 167.159 44.4499H167.155Z" fill="#373433"/>
</g>
<defs>
<clipPath id="clip0_309_5504">
<rect width="284" height="248" fill="white"/>
</clipPath>
</defs>
</svg>
