<svg width="284" height="248" viewBox="0 0 284 248" fill="none" xmlns="http://www.w3.org/2000/svg">
<path d="M169.453 238.24C164.91 235.54 159.61 234.476 154.423 233.456C153.096 233.196 151.706 232.936 150.416 233.34C148.9 233.813 147.76 235.186 147.333 236.716C146.903 238.246 147.12 239.906 147.69 241.39C148.26 242.873 149.163 244.203 150.13 245.466C156.93 243.376 163.603 240.88 170.103 237.99" fill="#373433"/>
<path d="M169.453 238.24C164.91 235.54 159.61 234.476 154.423 233.456C153.096 233.196 151.706 232.936 150.416 233.34C148.9 233.813 147.76 235.186 147.333 236.716C146.903 238.246 147.12 239.906 147.69 241.39C148.26 242.873 149.163 244.203 150.13 245.466C156.93 243.376 163.603 240.88 170.103 237.99" stroke="#373433" stroke-width="3" stroke-miterlimit="10" stroke-linecap="round"/>
<path d="M191.987 237.636C196.53 234.936 201.83 233.873 207.017 232.853C208.344 232.593 209.734 232.333 211.024 232.736C212.54 233.21 213.68 234.583 214.107 236.113C214.537 237.643 214.32 239.303 213.75 240.786C213.18 242.27 212.277 243.6 211.31 244.863C204.51 242.773 197.837 240.276 191.337 237.386" fill="#373433"/>
<path d="M191.987 237.636C196.53 234.936 201.83 233.873 207.017 232.853C208.344 232.593 209.734 232.333 211.024 232.736C212.54 233.21 213.68 234.583 214.107 236.113C214.537 237.643 214.32 239.303 213.75 240.786C213.18 242.27 212.277 243.6 211.31 244.863C204.51 242.773 197.837 240.276 191.337 237.386" stroke="#373433" stroke-width="3" stroke-miterlimit="10" stroke-linecap="round"/>
<path d="M200.897 171.34C204.987 193.593 201.54 217.167 191.25 237.317" stroke="#373433" stroke-width="3" stroke-miterlimit="10" stroke-linecap="round"/>
<path d="M160.816 171.634C156.726 193.887 160.173 217.46 170.463 237.61" stroke="#373433" stroke-width="3" stroke-miterlimit="10" stroke-linecap="round"/>
<path d="M90.8838 101.807C92.6671 99.7167 94.4538 97.6267 96.2371 95.54" stroke="#373433" stroke-width="3" stroke-miterlimit="10" stroke-linecap="round"/>
<path d="M89.6877 101.467C88.371 99.4899 87.051 97.5099 85.7344 95.5332" stroke="#373433" stroke-width="3" stroke-miterlimit="10" stroke-linecap="round"/>
<path d="M89.944 103.416C87.0106 103.08 84.114 102.406 81.334 101.413" stroke="#373433" stroke-width="3" stroke-miterlimit="10" stroke-linecap="round"/>
<path d="M121.087 151.413C108.34 137.167 97.8699 120.89 90.1865 103.387" stroke="#373433" stroke-width="3" stroke-miterlimit="10" stroke-linecap="round"/>
<path d="M131.517 90.7667C118.44 109.203 113.04 132.427 114.497 154.923C115.227 166.187 117.797 177.77 124.787 186.673C132.323 196.267 144.14 201.647 156.023 204.63C174.787 209.337 195.127 208.793 213.01 201.44C230.89 194.087 246.033 179.627 252.553 161.54C259.667 141.807 256.147 119.44 246.967 100.567C241.39 89.1001 233.687 78.4967 223.597 70.63C212.927 62.31 197.64 55.9767 183.86 57.9367C170.453 59.84 157.783 65.72 147.267 74.12C141.273 78.9067 135.947 84.5267 131.517 90.77V90.7667Z" fill="white"/>
<mask id="mask0_255_1552" style="mask-type:luminance" maskUnits="userSpaceOnUse" x="114" y="57" width="143" height="151">
<path d="M131.517 90.7667C118.44 109.203 113.04 132.427 114.497 154.923C115.227 166.187 117.797 177.77 124.787 186.673C132.323 196.267 144.14 201.647 156.023 204.63C174.787 209.337 195.127 208.793 213.01 201.44C230.89 194.087 246.033 179.627 252.553 161.54C259.667 141.807 256.147 119.44 246.967 100.567C241.39 89.1001 233.687 78.4967 223.597 70.63C212.927 62.31 197.64 55.9767 183.86 57.9367C170.453 59.84 157.783 65.72 147.267 74.12C141.273 78.9067 135.947 84.5267 131.517 90.77V90.7667Z" fill="white"/>
</mask>
<g mask="url(#mask0_255_1552)">
<path d="M195.809 36.2598C200.166 37.3431 203.519 40.7064 206.576 43.9698C211.736 49.4798 216.786 55.1764 220.559 61.6964C232.212 81.8264 230.226 107.01 224.236 129.453C219.232 148.196 211.546 166.5 199.382 181.673C187.219 196.846 170.256 208.723 151.089 212.483C174.192 213.843 197.882 209.056 217.756 197.29C237.632 185.523 253.426 166.56 259.682 144.446C265.942 122.336 262.102 97.2731 248.149 78.9498C246.532 76.8264 244.469 74.6298 241.789 74.5064C238.986 88.0398 241.136 102.13 239.336 115.833C237.036 133.31 228.436 149.33 218.849 164.166C214.686 170.61 210.222 177.113 208.546 184.583C218.772 178.34 225.779 168.033 231.316 157.463C236.856 146.893 241.282 135.696 247.992 125.816C248.162 131.856 247.316 137.926 245.496 143.693" fill="white"/>
<path d="M192.088 49.7594C192.778 49.9461 193.442 50.1727 194.105 50.4461L190.762 49.0361C192.065 49.6294 193.255 50.3661 194.402 51.2227C193.458 50.4927 192.512 49.7627 191.568 49.0327C194.202 51.0961 196.452 53.5994 198.705 56.0561C201.125 58.6927 203.472 61.3927 205.665 64.2227L203.475 61.3894C206.752 65.6761 209.548 70.2361 211.672 75.2027L210.262 71.8594C212.522 77.2794 213.982 82.9561 214.788 88.7661C214.622 87.5261 214.455 86.2861 214.288 85.0427C215.412 93.5661 215.148 102.179 214.038 110.693C214.205 109.453 214.372 108.213 214.538 106.969C212.608 121.266 208.538 135.399 202.968 148.696L204.378 145.353C200.178 155.266 194.938 164.713 188.358 173.253C189.088 172.309 189.818 171.363 190.548 170.419C185.642 176.713 180.038 182.409 173.748 187.326C174.692 186.596 175.638 185.866 176.582 185.136C170.878 189.543 164.692 193.256 158.058 196.083L161.402 194.673C156.865 196.569 152.182 198.026 147.358 198.989C144.195 199.623 140.482 202.603 138.992 205.423C137.498 208.249 136.902 211.166 137.332 214.349C138.285 221.443 144.045 226.089 151.082 226.489C184.418 228.379 218.522 218.153 243.448 195.543C249.315 190.223 254.415 184.153 259.022 177.719C263.652 171.253 267.148 164.256 270.152 156.909C273.235 149.359 274.888 141.619 275.918 133.553C276.948 125.486 276.515 117.169 275.352 108.926C274.088 99.9961 271.205 91.4894 267.275 83.3827C265.545 79.8127 263.508 76.3894 261.182 73.1761C259.488 70.8361 257.805 68.3627 255.652 66.4161C254.172 65.0761 252.542 63.7861 250.748 62.8794C247.502 61.2394 245.458 60.8694 241.785 60.5194L238.062 61.0194C236.238 61.4527 234.652 62.2894 233.302 63.5261C231.035 65.2794 228.868 67.8961 228.285 70.7994C226.688 78.7194 226.235 86.7461 226.185 94.8027C226.142 101.829 226.218 108.866 225.332 115.849L225.832 112.126C224.778 119.886 222.518 127.379 219.498 134.589L220.908 131.246C217.402 139.499 212.978 147.316 208.185 154.883C202.978 163.103 197.302 171.236 195.042 180.879C193.742 186.433 195.502 192.073 200.058 195.596C204.615 199.119 210.812 199.659 215.608 196.689C227.152 189.539 235.668 178.689 242.138 166.909C248.308 155.666 252.888 143.579 260.082 132.903C251.385 130.546 242.688 128.193 233.992 125.836C234.055 128.759 233.902 131.666 233.532 134.566L234.032 130.843C233.598 133.949 232.922 136.993 231.995 139.989C229.835 146.986 234.558 155.566 241.772 157.209C249.362 158.939 256.678 154.926 258.992 147.433C261.128 140.509 262.148 133.076 261.988 125.833C261.858 119.899 257.755 113.709 251.712 112.333C249.252 111.773 246.728 111.773 244.268 112.333C240.715 113.143 237.858 115.863 235.902 118.766C226.008 133.449 220.952 150.873 210.095 164.963L212.285 162.129C209.432 165.773 206.245 169.116 202.595 171.973C203.538 171.243 204.485 170.513 205.428 169.783C204.155 170.756 202.842 171.666 201.478 172.509L222.045 188.319C222.525 186.273 223.188 184.296 223.995 182.356L222.585 185.699C225.272 179.483 229.252 173.969 232.838 168.263C236.508 162.426 239.962 156.439 242.922 150.206C246.282 143.136 249.282 135.793 251.185 128.186C253.152 120.319 253.958 112.166 254.118 104.076C254.278 95.9861 253.955 87.2627 255.045 78.9127C254.878 80.1527 254.712 81.3927 254.545 82.6361C254.752 81.1627 254.995 79.7027 255.288 78.2461C250.788 81.6727 246.288 85.0994 241.788 88.5227L242.285 88.5694L238.562 88.0694C239.058 88.1661 239.488 88.2894 239.962 88.4694L236.618 87.0594C237.225 87.3494 237.762 87.6827 238.298 88.0827C237.355 87.3527 236.408 86.6227 235.465 85.8927C236.522 86.7694 237.408 87.7794 238.245 88.8627L236.055 86.0294C239.465 90.5461 242.282 95.4427 244.522 100.639C244.052 99.5261 243.582 98.4094 243.112 97.2961C245.725 103.486 247.472 109.979 248.392 116.633C248.225 115.393 248.058 114.153 247.892 112.909C248.792 119.769 248.798 126.693 247.922 133.553L248.422 129.829C247.488 136.756 245.635 143.486 242.958 149.939L244.368 146.596C241.362 153.713 237.412 160.366 232.692 166.479C233.422 165.536 234.152 164.589 234.882 163.646C229.888 170.039 224.108 175.756 217.698 180.726L220.532 178.536C213.705 183.769 206.245 188.059 198.338 191.439L201.682 190.029C192.078 194.076 181.968 196.733 171.648 198.126C172.888 197.959 174.128 197.793 175.372 197.626C167.318 198.673 159.195 198.953 151.088 198.493C152.328 207.659 153.568 216.826 154.812 225.993C186.535 219.643 211.745 194.663 225.475 166.323C232.552 151.719 237.848 136.003 240.678 120.009C243.615 103.389 244.395 85.8427 239.168 69.5627C237.628 64.7627 235.638 60.0227 233.198 55.6127C230.525 50.7794 227.108 46.3594 223.612 42.1027C217.148 34.2394 209.722 25.5394 199.532 22.7694C196.018 21.8127 191.888 22.3394 188.745 24.1794C185.842 25.8794 183.072 29.2094 182.312 32.5461C180.632 39.9261 184.528 47.7094 192.088 49.7661V49.7594Z" fill="#FAF5E2"/>
<path d="M246.827 102.706C250.03 104.909 250.93 109.289 250.484 113.133C250.037 116.976 248.537 120.633 248.01 124.463C248.917 120.466 249.824 116.466 250.73 112.469C250.287 114.836 249.847 117.203 249.404 119.566C250.947 114.823 252.254 110.003 253.324 105.133C252.864 108.649 252.404 112.166 251.944 115.683C251.647 113.929 251.217 112.203 250.654 110.513C250.467 109.953 250.194 109.326 249.627 109.149C248.86 108.913 248.107 109.746 248.107 110.543C248.107 111.339 248.6 112.043 249.07 112.689" stroke="#FAF5E2" stroke-width="2" stroke-miterlimit="10"/>
<path d="M249.614 123.42C250.511 118.05 250.881 112.59 250.711 107.15C250.701 109.41 251.214 111.673 252.204 113.71C252.714 109.753 252.234 105.677 250.821 101.943C251.164 102.853 249.584 106.297 249.361 107.4C249.201 108.187 248.761 109.353 248.948 110.153C249.058 110.62 249.588 110.797 249.721 111.237C250.214 112.867 249.674 115.31 249.641 117.017C249.601 119.15 249.594 121.287 249.614 123.423V123.42Z" stroke="#FAF5E2" stroke-width="2" stroke-miterlimit="10"/>
<path d="M247.744 97.1C248.468 101.983 247.281 107.12 244.484 111.203C247.768 109.413 250.711 107.01 253.111 104.157C250.664 105.247 248.554 107.077 247.141 109.34C249.884 106.86 252.628 104.38 255.371 101.9C253.811 104.403 252.248 106.907 250.688 109.41C252.094 105.01 253.094 100.483 253.671 95.9033C251.664 97.3833 250.054 99.39 249.058 101.663C250.504 100.87 251.781 99.77 252.778 98.46C251.281 102.547 249.788 106.63 248.291 110.717C249.571 108.17 250.851 105.623 252.131 103.073C251.418 106.687 251.138 110.383 251.301 114.06" stroke="#FAF5E2" stroke-width="2" stroke-miterlimit="10"/>
<path d="M256.145 91.5834C253.901 91.2567 251.685 92.7001 250.495 94.6167C249.305 96.5334 248.951 98.8367 248.751 101.077C248.521 103.66 248.465 106.26 248.581 108.853C248.595 109.16 248.628 109.503 248.858 109.707C249.315 110.11 250.005 109.633 250.398 109.17C252.341 106.89 253.905 104.293 255.008 101.517C253.928 104.283 252.848 107.05 251.768 109.813C251.731 106.693 251.315 103.58 250.535 100.56C248.868 103.787 249.335 107.983 251.671 110.773C252.098 111.283 252.768 111.787 253.375 111.51C254.081 111.187 253.995 110.173 253.791 109.427" stroke="#FAF5E2" stroke-width="2" stroke-miterlimit="10"/>
<path d="M244.037 152.95C241.597 160.717 236.754 167.72 230.334 172.78" stroke="#FAF5E2" stroke-width="2" stroke-miterlimit="10"/>
<path d="M243.564 153.116C245.231 152.633 246.714 151.556 247.691 150.133C247.708 153.053 246.564 155.966 244.564 158.109C245.198 156.063 245.831 154.016 246.468 151.966C245.588 154.173 244.704 156.376 243.824 158.583" stroke="#FAF5E2" stroke-width="2" stroke-miterlimit="10"/>
<path d="M209.764 190.337C205.074 190.79 200.544 192.74 197.008 195.83C199.611 193.427 202.598 191.434 205.824 189.947C204.064 191.77 202.681 193.95 201.778 196.31C202.991 194.923 204.204 193.533 205.414 192.147C204.021 193.303 202.778 194.637 201.724 196.103C202.851 194.81 203.981 193.517 205.108 192.22C204.754 193.113 204.284 193.96 203.714 194.73C203.708 192.99 203.701 191.25 203.698 189.507C203.604 190.724 203.368 191.93 202.988 193.09C203.394 192.34 204.018 191.71 204.764 191.297" stroke="#FAF5E2" stroke-width="2" stroke-miterlimit="10"/>
<path d="M220.1 62.4502C219.737 65.3502 222.284 67.6869 224.397 69.7235C230.367 75.4669 234.584 82.9802 236.357 91.0402" stroke="#FAF5E2" stroke-width="2" stroke-miterlimit="10"/>
<path d="M240.814 80.4268C244.138 80.5134 246.924 83.1568 248.311 86.1534C249.701 89.1501 250.011 92.5068 250.584 95.7568C252.954 109.2 260.264 121.73 270.831 130.467C267.871 131.177 265.488 134.053 265.688 137.07C265.888 140.087 268.934 142.713 271.934 142.187C268.414 143.173 264.611 144.353 262.531 147.337C260.451 150.32 261.634 155.57 265.271 155.95C261.918 159.753 258.568 163.557 255.214 167.363C254.248 168.463 253.231 169.66 253.084 171.113C252.904 172.857 254.078 174.52 255.574 175.45C257.071 176.383 258.851 176.73 260.588 177.06C252.994 180.717 245.401 184.373 237.808 188.033C235.394 189.197 232.584 191.02 232.871 193.667C233.028 195.127 234.138 196.303 234.594 197.697C235.368 200.05 234.121 202.69 232.201 204.277C230.284 205.863 227.821 206.613 225.418 207.283C221.011 208.51 216.291 209.593 211.918 208.243C209.741 207.573 207.774 206.33 205.578 205.727C202.691 204.937 199.628 205.307 196.658 205.683C187.558 206.837 178.454 207.99 169.354 209.143" stroke="#FAF5E2" stroke-width="2" stroke-miterlimit="10"/>
</g>
<path d="M131.517 90.7667C118.44 109.203 113.04 132.427 114.497 154.923C115.227 166.187 117.797 177.77 124.787 186.673C132.323 196.267 144.14 201.647 156.023 204.63C174.787 209.337 195.127 208.793 213.01 201.44C230.89 194.087 246.033 179.627 252.553 161.54C259.667 141.807 256.147 119.44 246.967 100.567C241.39 89.1001 233.687 78.4967 223.597 70.63C212.927 62.31 197.64 55.9767 183.86 57.9367C170.453 59.84 157.783 65.72 147.267 74.12C141.273 78.9067 135.947 84.5267 131.517 90.77V90.7667Z" stroke="#D1CDBF" stroke-width="2" stroke-miterlimit="10"/>
<path d="M150.616 166.623C167.956 166.623 182.013 152.674 182.013 135.466C182.013 118.259 167.956 104.31 150.616 104.31C133.276 104.31 119.22 118.259 119.22 135.466C119.22 152.674 133.276 166.623 150.616 166.623Z" fill="#F5BF00"/>
<path d="M135.421 124.474C135.421 127.927 138.848 131.204 135.904 131.204C132.961 131.204 130.574 128.407 130.574 124.954C130.574 121.501 132.961 118.704 135.904 118.704C138.848 118.704 135.421 121.021 135.421 124.474Z" fill="#373433"/>
<path d="M145.111 124.474C145.111 127.927 148.538 131.204 145.595 131.204C142.651 131.204 140.265 128.407 140.265 124.954C140.265 121.501 142.651 118.704 145.595 118.704C148.538 118.704 145.111 121.021 145.111 124.474Z" fill="#373433"/>
<path d="M124.277 134.57C124.277 134.57 135.904 151.877 153.344 135.53" stroke="#373433" stroke-width="2" stroke-miterlimit="10" stroke-linecap="round"/>
<path d="M177.198 162.147C177.195 164.131 176.148 165.927 174.861 166.161C173.578 166.391 172.558 165.017 172.581 163.067C172.605 161.117 173.645 159.301 174.908 159.034C176.171 158.771 177.201 160.164 177.198 162.147Z" fill="#D8BF79" stroke="#D8BF79" stroke-width="0.333333" stroke-miterlimit="10"/>
<path d="M180.348 177.567C176.455 178.141 172.535 178.524 168.645 179.114C165.268 179.631 162.015 177.314 162.138 173.741C162.181 172.647 162.208 172.104 162.258 171.017C162.575 167.427 165.401 164.394 168.931 163.737C172.801 163.117 176.551 162.377 180.371 161.511C183.901 160.584 187.058 163.097 186.988 166.737C186.988 167.947 186.988 168.554 186.988 169.757C186.915 173.584 184.121 176.887 180.351 177.567H180.348Z" fill="#D8BF79" stroke="#D8BF79" stroke-width="0.333333" stroke-miterlimit="10"/>
<path d="M175.514 160.271C175.514 160.617 175.238 160.957 174.901 161.024C174.564 161.094 174.291 160.867 174.291 160.524C174.291 160.177 174.568 159.841 174.904 159.771C175.241 159.701 175.514 159.924 175.514 160.271Z" fill="#373433"/>
<path d="M169.835 168.327C169.905 168.967 170.042 169.587 170.252 170.177C170.268 170.224 170.315 170.254 170.372 170.25C171.308 170.18 172.285 169.987 173.215 169.667" stroke="#373433" stroke-miterlimit="10" stroke-linecap="round"/>
<path d="M168.602 171.64C170.492 171.593 172.428 171.463 174.355 171.21" stroke="#373433" stroke-miterlimit="10" stroke-linecap="round"/>
<path d="M172.065 171.467C171.945 172.24 171.895 173.013 171.915 173.78" stroke="#373433" stroke-miterlimit="10" stroke-linecap="round"/>
<path d="M175.161 169.227C175.744 169.177 176.328 169.127 176.911 169.071C177.001 169.061 177.101 169.054 177.171 169.101C177.288 169.174 177.278 169.351 177.258 169.504C177.158 170.237 177.051 170.971 176.934 171.704" stroke="#373433" stroke-miterlimit="10" stroke-linecap="round"/>
<path d="M179.089 166.82C179.316 168.384 179.539 169.957 179.762 171.54" stroke="#373433" stroke-miterlimit="10" stroke-linecap="round"/>
<path d="M179.509 169.507C179.939 169.377 180.372 169.247 180.802 169.113" stroke="#373433" stroke-miterlimit="10" stroke-linecap="round"/>
<path d="M268.387 106.406C266.603 104.316 264.817 102.226 263.033 100.14" stroke="#373433" stroke-width="3" stroke-miterlimit="10" stroke-linecap="round"/>
<path d="M269.587 106.063C270.904 104.087 272.224 102.107 273.54 100.13" stroke="#373433" stroke-width="3" stroke-miterlimit="10" stroke-linecap="round"/>
<path d="M269.327 108.017C272.26 107.68 275.157 107.007 277.937 106.014" stroke="#373433" stroke-width="3" stroke-miterlimit="10" stroke-linecap="round"/>
<path d="M237.854 156.347C250.6 142.1 261.07 125.824 268.754 108.32" stroke="#373433" stroke-width="3" stroke-miterlimit="10" stroke-linecap="round"/>
</svg>
