<svg width="284" height="248" viewBox="0 0 284 248" fill="none" xmlns="http://www.w3.org/2000/svg">
<g clip-path="url(#clip0_259_1665)">
<path d="M185.33 186.291C185.68 138.492 135.503 99.3737 73.2571 98.9174C11.0108 98.4611 -39.7339 136.84 -40.0843 184.639C-40.4347 232.438 9.74188 271.556 71.9882 272.013C134.235 272.469 184.979 234.09 185.33 186.291Z" fill="#D1CDBF"/>
<path d="M74.9959 256.858C129.354 254.428 171.947 219.485 170.128 178.811C168.31 138.137 122.769 107.135 68.4104 109.565C14.0517 111.996 -28.5404 146.938 -26.7219 187.612C-24.9034 228.286 20.6372 259.288 74.9959 256.858Z" stroke="#FAF5E2" stroke-width="0.333333" stroke-miterlimit="10"/>
<path d="M164.432 173.046C164.739 175.663 165.349 180.843 164.992 185.593C163.212 209.283 136.976 228.09 135.056 229.433C129.449 233.353 120.986 238.06 120.002 238.603C113.299 242.316 109.949 244.173 105.856 245.756C104.486 246.286 82.9323 254.4 68.2889 249.043C66.9256 248.543 64.5023 247.52 61.0723 247.353C56.4989 247.13 54.5356 248.65 49.9423 249.073C46.8123 249.363 44.5656 248.933 40.1989 248.06C34.6023 246.94 26.5356 245.33 16.7223 240.16C10.7389 237.006 3.0256 232.973 -4.67107 223.983C-7.54774 220.623 -13.7477 213.23 -17.6677 201.23C-18.3544 199.123 -21.1677 191.726 -20.9477 183.363C-20.4844 165.78 -11.3744 143.233 5.7056 133.583C15.3489 128.133 17.4989 132.466 38.9256 123.876C46.2089 120.956 48.6823 119.363 55.2456 117.75C58.4289 116.966 64.1256 116.026 81.7323 116.88C93.8123 117.463 99.8523 117.756 103.886 118.716C113.969 121.116 111.579 123.473 133.009 133.826C141.856 138.1 146.439 139.743 148.689 144.796C149.992 147.723 150.136 150.943 153.296 154.116C156.042 156.873 157.489 156.006 159.962 158.39C162.989 161.31 163.512 165.263 164.429 173.05L164.432 173.046Z" fill="#DB3400"/>
<path d="M9.00561 169.664C10.2923 166.387 11.9589 163.3 13.9723 160.407C13.4856 161.104 13.0023 161.797 12.5156 162.494C14.8423 159.227 17.5656 156.287 20.6523 153.69C20.0056 154.23 19.3589 154.77 18.7123 155.307C21.7023 152.847 24.9656 150.757 28.4889 149.07C27.7189 149.43 26.9489 149.79 26.1789 150.147C27.9489 149.324 29.7589 148.607 31.6223 148C36.6023 146.374 39.8489 140.604 37.7889 135.59C35.7489 130.624 30.1923 127.514 24.8656 129.254C9.63895 134.23 -3.40438 145.814 -9.16438 160.48C-10.1511 162.99 -10.5877 165.444 -9.62438 168.107C-8.81105 170.36 -6.82105 172.764 -4.55438 173.79C0.0689485 175.88 7.00228 174.76 9.00561 169.66V169.664Z" fill="#DF7F00"/>
<path d="M23.192 128.997C23.982 128.664 24.7753 128.424 25.6186 128.247C24.762 128.404 23.9086 128.557 23.052 128.714C24.2486 128.52 25.4153 128.48 26.632 128.557C25.7286 128.484 24.8253 128.414 23.922 128.34C26.052 128.54 28.0986 129.07 30.1253 129.774C29.2653 129.474 28.4086 129.17 27.5486 128.87C34.1653 131.28 40.2486 134.94 46.0553 138.847C45.3286 138.357 44.5986 137.864 43.872 137.374C45.9553 138.787 48.012 140.237 50.062 141.704C52.3453 143.337 54.642 144.447 57.532 144.297C59.9586 144.17 62.802 142.974 64.3486 141.134C67.4886 137.4 67.9953 130.51 63.382 127.21C56.5586 122.33 49.6153 117.417 42.012 113.77C34.2953 110.067 24.702 106.784 16.4386 110.254C13.9886 111.28 11.962 112.64 10.732 115.037C9.62195 117.2 9.31195 120.33 10.272 122.664C12.1753 127.297 18.0486 131.16 23.1953 129L23.192 128.997Z" fill="#DF7F00"/>
<path d="M40.0055 147.226C22.2955 155.983 7.77545 170.946 -0.541215 188.49C-2.73122 193.113 -1.04455 199.49 4.06879 201.8C8.96879 204.013 15.2821 202.626 17.6288 197.67C19.4855 193.753 21.6555 190.006 24.1188 186.433C23.6321 187.13 23.1488 187.823 22.6621 188.52C26.4955 183.043 30.9788 178.033 36.0655 173.633C36.3288 173.403 37.3388 172.56 36.0921 173.593C34.7755 174.686 36.0321 173.646 36.3355 173.403C37.0155 172.856 37.7055 172.32 38.4021 171.793C39.7288 170.793 41.0855 169.833 42.4755 168.916C45.3255 167.033 48.3055 165.336 51.3821 163.813C53.5288 162.753 55.2021 159.833 55.6388 157.626C56.1055 155.266 55.5788 152.216 54.0688 150.203C52.5055 148.116 50.2655 146.34 47.5921 145.893C44.7788 145.423 42.4955 145.99 40.0021 147.22L40.0055 147.226Z" fill="#DF7F00"/>
<path d="M26.0954 192.274C19.9154 206.174 18.9654 221.604 23.3488 236.4C24.8288 241.397 31.4054 244.52 36.2721 242.737C41.5954 240.784 44.0221 235.67 42.4388 230.327C42.0588 229.047 41.7254 227.76 41.4321 226.46C41.6154 227.297 41.7988 228.134 41.9821 228.97C40.9821 224.31 40.6021 219.594 40.8221 214.87C40.7721 215.747 40.7221 216.627 40.6721 217.504C40.9521 212.594 41.8788 207.79 43.4588 203.154C43.1721 203.98 42.8854 204.81 42.5988 205.637C43.0988 204.22 43.6521 202.827 44.2654 201.454C46.3421 196.784 44.8488 190.49 39.6554 188.144C34.8521 185.974 28.3221 187.264 26.0954 192.274Z" fill="#DF7F00"/>
<path d="M125.185 254.067C131.708 245.673 137.418 236.05 138.365 225.237C139.318 214.353 136.802 203.933 133.892 193.387C132.508 188.367 125.768 185.29 120.968 187.05C115.565 189.03 113.322 194.09 114.802 199.46C115.762 202.947 116.705 206.44 117.478 209.967C117.295 209.13 117.112 208.293 116.928 207.457C118.005 212.52 118.682 217.633 118.392 222.773C118.442 221.897 118.492 221.017 118.542 220.14C118.315 223.307 117.702 226.37 116.702 229.37C116.988 228.543 117.275 227.713 117.562 226.887C115.988 231.387 113.672 235.533 110.955 239.447C111.442 238.75 111.925 238.057 112.412 237.36C111.608 238.497 110.782 239.61 109.925 240.707C108.282 242.82 107.232 245.147 107.458 247.91C107.652 250.277 108.958 253.073 110.892 254.63C114.892 257.847 121.812 258.39 125.178 254.06L125.185 254.067Z" fill="#DF7F00"/>
<path d="M121.843 168.52C124.196 169.717 126.466 171.05 128.659 172.52C127.933 172.03 127.203 171.537 126.476 171.047C129.809 173.317 132.929 175.867 135.786 178.693C136.546 179.443 137.273 180.217 138.003 180.993C139.193 182.257 136.403 179.113 137.593 180.53C137.909 180.907 138.229 181.277 138.543 181.653C139.793 183.167 140.976 184.73 142.086 186.343C143.196 187.957 144.233 189.613 145.189 191.313C145.429 191.737 145.659 192.167 145.893 192.593C146.806 194.26 144.796 190.337 145.616 192.047C146.036 192.923 146.463 193.797 146.853 194.687C148.486 198.39 149.743 202.223 150.629 206.14C150.446 205.303 150.263 204.467 150.079 203.63C150.626 206.143 151.016 208.673 151.243 211.227C151.699 216.367 156.699 221.06 162.149 220.54C167.566 220.023 171.923 215.687 171.433 210.173C169.753 191.247 159.923 172.883 144.913 160.403C140.596 156.813 135.813 153.64 130.793 151.087C126.053 148.673 119.419 150.41 117.233 155.217C115.026 160.06 116.763 165.943 121.843 168.527V168.52Z" fill="#DF7F00"/>
<path d="M62.936 198.9C69.3494 200.476 76.2094 201.033 82.7327 200.346C89.176 199.67 95.9927 198.093 101.223 194.283C111.949 186.466 116.043 172.653 111.696 160.06C109.533 153.793 105.289 147.916 99.976 143.75C95.8027 140.476 89.2327 140.103 85.6894 144.32C82.4194 148.21 82.1994 154.743 86.656 158.243C87.786 159.13 88.786 160.11 89.816 161.103C90.6727 161.926 88.3727 159.36 89.1027 160.293C89.3094 160.556 89.5294 160.806 89.736 161.07C90.1994 161.66 90.636 162.266 91.046 162.893C91.196 163.123 91.8594 164.553 92.0694 164.593C91.9494 164.57 90.996 162.35 91.576 163.636C91.7127 163.936 91.8527 164.233 91.9827 164.536C92.566 165.896 93.0027 167.3 93.3294 168.733C93.146 167.896 92.9627 167.06 92.7794 166.223C93.1494 168.016 93.306 169.8 93.2394 171.616C93.2894 170.74 93.3394 169.86 93.3894 168.983C93.266 170.993 92.8827 172.926 92.236 174.826C92.5227 174 92.8094 173.17 93.096 172.343C92.4627 174.063 91.6427 175.663 90.6027 177.176C91.0894 176.48 91.5727 175.786 92.0594 175.09C91.2727 176.17 90.3927 177.12 89.446 178.063C88.6927 178.73 88.956 178.51 90.2427 177.406C89.9794 177.61 89.7094 177.806 89.4327 177.996C88.9194 178.35 88.3827 178.673 87.836 178.973C85.796 180.096 89.7294 178.286 87.9694 178.936C87.2927 179.186 86.6294 179.456 85.9394 179.676C84.556 180.116 83.1394 180.44 81.706 180.706C82.5627 180.55 83.416 180.396 84.2727 180.24C80.246 180.926 76.1627 181.093 72.0627 180.786C72.966 180.86 73.8694 180.93 74.7727 181.003C72.0594 180.763 69.386 180.323 66.736 179.67C61.566 178.396 55.6594 182.06 54.8927 187.186C54.0827 192.596 57.396 197.553 62.936 198.916V198.9Z" fill="#DF7F00"/>
<path d="M101.475 132.824C99.1421 134.924 100.842 133.35 101.542 132.927C102.329 132.45 103.625 132.33 101.039 133.09C102.199 132.75 103.285 132.32 104.489 132.084C103.632 132.24 102.779 132.394 101.922 132.55C103.835 132.234 105.739 132.197 107.685 132.347C106.782 132.274 105.879 132.204 104.975 132.13C109.582 132.59 114.085 133.947 118.452 135.474C117.592 135.174 116.735 134.87 115.875 134.57C122.902 137.08 129.569 140.427 135.765 144.56C135.039 144.07 134.309 143.577 133.582 143.087C134.435 143.667 135.282 144.257 136.119 144.857C138.392 146.494 140.705 147.6 143.589 147.45C146.015 147.324 148.859 146.127 150.405 144.287C153.552 140.544 154.042 133.677 149.439 130.364C140.229 123.737 130.442 118.784 119.605 115.337C114.212 113.624 108.539 112.33 102.875 112.584C96.4388 112.874 90.8554 115.304 86.2221 119.467C84.4221 121.087 83.5654 124.347 83.7554 126.67C83.9488 129.037 85.2554 131.834 87.1888 133.39C91.8054 137.104 97.3688 136.517 101.475 132.82V132.824Z" fill="#DF7F00"/>
<path d="M99.0918 136.17C102.075 135.187 99.8851 135.943 99.0718 136.05C98.1584 136.17 96.9251 135.76 99.5984 136.103C98.3984 135.95 97.2318 135.907 96.0351 135.637C96.8818 135.84 97.7284 136.04 98.5718 136.243C96.6918 135.763 94.9351 135.03 93.2118 134.113C94.0118 134.543 94.8084 134.973 95.6084 135.403C91.5784 133.13 88.0018 130.077 84.6151 126.923C85.2784 127.543 85.9451 128.167 86.6084 128.787C81.1851 123.663 76.4284 117.917 72.4151 111.64C72.8851 112.383 73.3518 113.127 73.8218 113.867C73.2718 112.993 72.7351 112.113 72.2118 111.223C70.7884 108.81 69.1151 106.867 66.4151 105.843C64.1418 104.983 61.0584 104.933 58.9018 105.997C54.5118 108.16 51.3051 114.247 54.1884 119.133C59.9551 128.903 66.9218 137.377 75.4584 144.89C79.7051 148.63 84.3818 152.093 89.6684 154.14C95.6784 156.463 101.765 156.483 107.682 154.533C109.982 153.777 112.078 151.133 112.838 148.93C113.612 146.683 113.542 143.6 112.395 141.397C109.662 136.14 104.332 134.44 99.0851 136.17H99.0918Z" fill="#DF7F00"/>
<path d="M50.625 173.4C61.2684 175.207 71.7984 172.923 80.9017 167.707C89.6817 162.68 96.2517 154.987 101.655 146.737C102.965 144.733 102.908 141.303 102.115 139.11C101.302 136.857 99.3117 134.453 97.045 133.427C94.6117 132.327 91.7283 131.843 89.1917 132.773C86.6083 133.72 84.9584 135.307 83.485 137.557C83.0817 138.177 82.6684 138.79 82.2484 139.397C82.735 138.7 83.2184 138.007 83.705 137.31C82.005 139.737 80.175 142.07 78.145 144.24C77.2617 145.187 76.3417 146.1 75.385 146.98C75.1117 147.23 74.8384 147.477 74.5584 147.723C73.7817 148.393 74.0017 148.213 75.225 147.183C74.6084 147.577 74.0584 148.113 73.4684 148.547C72.2784 149.423 71.0417 150.243 69.7584 150.987C69.295 151.257 68.825 151.517 68.3484 151.767C68.0317 151.933 67.7117 152.097 67.3884 152.257C68.8884 151.57 69.1684 151.437 68.2317 151.86C65.5517 152.967 62.8417 153.85 59.9617 154.377C60.8184 154.22 61.6717 154.067 62.5284 153.91C59.845 154.357 57.155 154.5 54.4217 154.293C55.325 154.367 56.2284 154.437 57.1317 154.51C56.225 154.427 55.325 154.307 54.425 154.157C49.1917 153.27 43.3884 156.27 42.5817 161.673C41.8217 166.753 45.015 172.45 50.625 173.403V173.4Z" fill="#FFAF25"/>
<path d="M65.1157 230.447C76.859 229.794 87.7324 224.38 95.6624 216.207C104.019 207.59 108.846 195.724 110.152 183.917C110.446 181.28 110.162 178.797 108.582 176.494C107.186 174.46 104.606 172.604 102.106 172.184C97.039 171.337 90.8657 174.23 90.2624 179.7C89.819 183.707 88.9757 187.627 87.6857 191.437C87.9724 190.61 88.259 189.78 88.5457 188.954C87.1524 192.917 85.299 196.667 82.909 200.13C83.3957 199.434 83.879 198.74 84.3657 198.044C82.9224 200.074 81.329 201.99 79.529 203.727C79.1724 204.074 78.8057 204.41 78.4357 204.744C76.5124 206.457 79.8257 203.72 78.4624 204.724C77.589 205.364 76.7324 206.017 75.819 206.61C74.9124 207.2 73.979 207.754 73.019 208.264C72.2457 208.677 70.129 209.294 73.0824 208.287C72.6124 208.447 72.159 208.687 71.699 208.87C69.5257 209.734 67.2657 210.367 64.949 210.79C65.8057 210.634 66.659 210.48 67.5157 210.324C66.1824 210.547 64.849 210.694 63.4957 210.77C58.219 211.064 53.5324 215.827 54.2124 221.137C54.889 226.434 59.4657 230.764 65.119 230.45L65.1157 230.447Z" fill="#FFAF25"/>
<path d="M107.02 173.95C107.706 174.147 108.386 174.36 109.063 174.59C108.203 174.29 107.346 173.987 106.486 173.687C109.36 174.717 112.056 176.087 114.586 177.784C113.86 177.294 113.13 176.8 112.403 176.31C114.016 177.43 115.546 178.654 116.953 180.014C117.336 180.384 117.7 180.774 118.076 181.15C119.48 182.547 116.56 179.254 117.77 180.81C118.366 181.58 118.976 182.33 119.53 183.134C120.09 183.944 120.593 184.78 121.09 185.627C122 187.177 120.136 183.504 120.91 185.26C121.09 185.67 121.286 186.074 121.463 186.484C122.273 188.38 122.883 190.337 123.336 192.334C123.153 191.497 122.97 190.66 122.786 189.824C123.376 192.62 123.613 195.43 123.496 198.264C123.546 197.387 123.596 196.507 123.646 195.63C123.553 197.217 123.353 198.784 123.04 200.34C122.03 205.37 125.68 211.167 131.083 212.07C136.533 212.98 141.843 209.947 142.926 204.554C145.056 193.957 142.85 182.69 136.863 173.384C130.923 164.144 121.39 157.744 110.81 154.704C105.683 153.23 99.7095 157.237 98.9662 162.22C98.1295 167.804 101.52 172.374 107.01 173.95H107.02Z" fill="#FFAF25"/>
<path d="M-9.23727 215.403C2.27939 227.916 20.6727 234.616 37.5061 232.853C42.7461 232.303 47.4927 227.983 46.7894 222.486C46.1394 217.406 41.5027 212.583 35.8827 213.173C33.0394 213.47 30.1927 213.5 27.3294 213.276C28.2327 213.35 29.1361 213.42 30.0427 213.493C26.1027 213.14 22.2494 212.31 18.4927 211.033C19.3527 211.333 20.2094 211.636 21.0694 211.936C17.1561 210.556 13.4594 208.716 10.0094 206.423C10.7361 206.913 11.4661 207.406 12.1927 207.896C9.21939 205.87 6.50606 203.546 4.08273 200.913C2.41939 199.106 -1.05394 198.196 -3.38727 198.32C-5.81394 198.446 -8.65727 199.643 -10.2039 201.483C-11.8639 203.456 -13.0106 206.033 -12.6706 208.686C-12.3239 211.396 -11.1173 213.363 -9.23727 215.406V215.403Z" fill="#FFAF25"/>
<path d="M-34.3677 172.273C-22.8511 184.786 -4.45773 191.486 12.3756 189.723C17.6156 189.173 22.3623 184.853 21.6589 179.356C21.0089 174.276 16.3723 169.453 10.7523 170.043C7.90894 170.34 5.06227 170.37 2.19894 170.146C3.10227 170.22 4.00561 170.29 4.90894 170.363C0.968942 170.01 -2.88439 169.18 -6.64106 167.903C-5.78106 168.203 -4.92439 168.506 -4.06439 168.806C-7.97773 167.426 -11.6744 165.586 -15.1244 163.293C-14.3977 163.783 -13.6677 164.276 -12.9411 164.766C-15.9144 162.74 -18.6277 160.416 -21.0511 157.783C-22.7144 155.976 -26.1877 155.066 -28.5211 155.19C-30.9477 155.316 -33.7911 156.513 -35.3377 158.353C-36.9977 160.326 -38.1444 162.903 -37.8044 165.556C-37.4577 168.266 -36.2477 170.233 -34.3711 172.276L-34.3677 172.273Z" fill="#FFAF25"/>
<path d="M63.6822 261.667C81.9922 259.437 99.3422 250.13 109.756 235.303C111.339 233.05 112.459 230.99 112.222 228.1C112.029 225.734 110.722 222.937 108.789 221.38C106.712 219.71 104.036 218.527 101.319 218.787C98.8955 219.017 95.9289 219.92 94.5022 221.95C92.5155 224.78 90.2722 227.42 87.7655 229.827C87.1088 230.457 86.4389 231.07 85.7522 231.667C84.3855 232.854 86.0655 231.164 86.3622 231.167C86.1988 231.167 85.3288 231.987 85.1955 232.094C83.8188 233.157 82.3889 234.157 80.9122 235.09C79.4355 236.024 77.9155 236.89 76.3555 237.69C75.9855 237.88 75.6089 238.06 75.2355 238.247C74.1689 238.784 77.4622 237.25 75.9555 237.91C75.1122 238.277 74.2689 238.64 73.4089 238.974C70.0522 240.284 66.5689 241.26 63.0022 241.93C63.8589 241.773 64.7122 241.62 65.5689 241.464C64.4055 241.67 63.2389 241.847 62.0622 241.99C59.4255 242.31 57.0422 243.2 55.2455 245.154C53.5922 246.95 52.4622 249.88 52.7789 252.357C53.4189 257.36 58.0789 262.354 63.6855 261.67L63.6822 261.667Z" fill="#E68F15"/>
<path d="M-1.6216 167.183C4.39173 184.38 17.9651 199.263 34.9717 206.923C39.8151 209.103 46.2684 207.763 48.5317 202.793C50.6484 198.146 49.1151 191.823 43.9217 189.483C40.7717 188.063 37.7651 186.386 34.9051 184.46C35.6317 184.95 36.3617 185.443 37.0884 185.933C34.6017 184.23 32.2417 182.363 30.0351 180.32C28.9017 179.27 27.8117 178.176 26.7617 177.046C26.5117 176.776 25.6417 175.803 26.7617 177.06C27.9417 178.383 26.8717 177.173 26.6117 176.863C26.1151 176.273 25.6317 175.676 25.1617 175.07C23.3284 172.713 21.6751 170.22 20.2317 167.623C20.0684 167.326 19.9084 167.026 19.7451 166.73C18.9517 165.273 20.6151 168.51 20.1051 167.423C19.8151 166.81 19.5184 166.203 19.2417 165.586C18.5851 164.116 18.0017 162.623 17.4717 161.11C15.7517 156.19 9.58506 152.926 4.5484 154.773C-0.574938 156.653 -3.45827 161.92 -1.61827 167.183H-1.6216Z" fill="#E68F15"/>
<path d="M146.7 155.39C139.99 138.437 126.1 123.893 108.753 116.88C106.17 115.837 103.59 115.37 100.9 116.227C98.6062 116.957 96.1862 118.83 95.1929 121.01C93.1495 125.493 94.5229 132.187 99.8029 134.32C103.65 135.877 107.3 137.817 110.746 140.113C110.02 139.623 109.29 139.13 108.563 138.64C110.913 140.237 113.156 141.977 115.263 143.873C116.346 144.85 117.396 145.867 118.403 146.917C118.64 147.163 118.873 147.417 119.11 147.663C120.103 148.71 118.406 146.997 118.426 146.877C118.386 147.1 119.773 148.46 119.916 148.64C121.696 150.827 123.316 153.133 124.753 155.54C125.103 156.123 125.44 156.713 125.766 157.307C125.816 157.397 126.183 158.203 126.25 158.203C126.156 158.203 125.156 155.973 125.77 157.287C126.416 158.67 127.05 160.05 127.61 161.467C129.53 166.313 135.356 169.7 140.533 167.803C145.49 165.987 148.753 160.583 146.7 155.393V155.39Z" fill="#E68F15"/>
<path opacity="0.85" d="M35.7552 180.65C30.8386 184.95 40.0519 188.05 42.0619 190.506C44.6352 193.65 43.3686 198.106 44.7686 201.64C46.1752 205.19 42.9352 210.76 47.5652 212.713C52.6752 214.866 52.9152 207.076 53.8452 204.12C55.6986 198.23 61.9786 202.75 66.1852 202.176C69.0819 201.783 70.6119 199.38 72.4219 197.326C74.3719 195.113 75.9152 193.96 78.3319 192.386C80.3786 191.056 80.8586 188.996 77.6519 189.116C75.2686 189.206 72.9619 191.176 70.8986 192.063C65.8586 194.23 60.2319 193.21 59.0752 187.623C58.8986 186.77 58.3452 185.796 58.2052 185.186C57.2219 180.923 63.4852 177.756 62.6652 175.383C61.3786 171.666 44.1552 174.076 39.4752 177.193C37.2786 178.656 35.7486 180.653 35.7486 180.653L35.7552 180.65Z" fill="#DB3400" stroke="#D54400" stroke-width="0.333333" stroke-miterlimit="10"/>
<path opacity="0.85" d="M48.7282 201.327C45.5915 200.25 41.0748 204.407 40.2215 207.043C39.5015 209.263 40.6582 211.39 38.1415 213C37.1315 213.647 35.9848 213.847 35.0515 214.643C34.0282 215.513 33.7382 216.633 32.9382 217.647C31.9015 218.963 27.0282 220.283 27.3848 221.777C27.6015 222.677 29.7515 223.403 30.5015 223.677C31.7248 224.123 33.0615 224.087 34.4048 223.973C36.9315 223.753 40.3682 223.493 42.3315 225.393C44.0382 227.043 42.9482 228.837 43.4648 230.783C43.9682 232.68 45.5715 233.433 45.0315 235.583C44.4982 237.7 42.8615 239.32 43.3948 241.603C44.0815 244.543 47.3982 245.08 50.1215 244.447C52.8782 243.807 55.3515 244.777 58.1415 244.643C60.1182 244.55 62.1082 244.983 64.0582 244.773C65.9848 244.567 67.4748 243.72 69.1382 242.83C71.8048 241.403 74.2582 242.057 77.1215 241.393C78.8515 240.993 80.8182 240.113 81.7382 238.613C82.4715 237.417 82.5315 235.94 83.2615 234.72C83.9782 233.523 88.8248 228.307 87.5882 226.857C87.1115 226.3 83.4782 227.883 82.7815 228.047C81.3082 228.393 79.2848 228.203 77.7915 227.8C76.7848 227.527 75.8315 226.95 75.1548 226.233C74.4715 225.507 74.1748 224.26 73.3648 223.663C71.7682 222.483 68.2482 224.137 66.4915 224.577C61.4782 225.83 58.7015 222.107 60.6448 217.883C61.8815 215.197 63.8282 209.227 59.4582 208.05C57.3682 207.487 55.3382 209.037 53.2915 208.767C51.2948 208.503 51.1448 206.45 51.0215 204.907C50.8648 202.943 50.0815 201.177 48.7248 201.32L48.7282 201.327Z" fill="#DB3400" stroke="#D54400" stroke-width="0.333333" stroke-miterlimit="10"/>
<path opacity="0.85" d="M-12.858 159.586C-9.09466 163.436 -4.77133 155.576 -2.82466 153.216C-1.47133 151.573 -0.324662 149.806 1.87867 149.246C3.91867 148.726 5.77534 148.05 7.78867 147.303C10.4653 146.31 13.3887 146.126 15.7187 147.806C16.8087 148.593 18.712 150.24 19.252 147.96C19.9853 144.873 16.1987 142.33 15.3653 139.58C14.8187 137.776 14.9787 136.843 16.7387 135.82C18.3753 134.87 19.592 133.746 21.122 132.62C22.8987 131.313 29.2053 130.71 27.8687 127.56C27.2787 126.166 25.2453 126.34 24.062 125.32C22.532 124 21.5087 123.16 19.8287 125.08C18.6153 126.466 18.5553 128.29 16.8987 129.346C15.342 130.34 13.162 130.696 11.4053 131.176C8.732 131.906 7.61867 133.893 5.70534 135.683C3.95534 137.326 2.16867 138.66 0.502004 140.413C-1.72133 142.753 -4.29133 144.513 -5.98799 147.25C-7.28133 149.333 -8.89133 151.236 -10.2413 153.266C-11.778 155.576 -12.678 157.483 -12.8613 159.586H-12.858Z" fill="#DB3400" stroke="#D54400" stroke-width="0.333333" stroke-miterlimit="10"/>
<path opacity="0.85" d="M108.705 151.95C108.872 154.287 111.765 155.07 113.839 154.107C115.535 153.317 115.575 151.37 115.869 149.837C116.132 148.463 116.202 146.797 117.305 145.697C118.459 144.547 119.605 145.137 121.072 144.907C123.292 144.56 124.289 144.04 125.419 146.22C126.139 147.61 126.619 149.13 128.659 148.743C129.902 148.507 131.999 146.463 131.879 145.19C131.765 143.983 129.985 143.24 129.809 141.91C129.379 138.653 134.255 135.997 133.695 132.79C133.015 128.903 127.772 134.12 126.319 134.553C123.209 135.477 120.645 131.9 117.459 132.34C116.045 132.533 114.352 133.27 113.009 133.827C111.365 134.507 109.662 136.177 107.885 136.447C106.352 136.68 104.645 135.347 103.625 137.027C102.262 139.27 105.049 140.323 106.329 141.49C109.345 144.233 107.785 149.19 108.699 151.953L108.705 151.95Z" fill="#DB3400" stroke="#D54400" stroke-width="0.333333" stroke-miterlimit="10"/>
<path d="M83.5535 171.567C82.9469 172.94 83.4235 175.3 84.6169 176.347C86.0669 177.617 86.1869 176.544 86.3069 175.174C86.4202 173.91 86.6169 172.417 85.9569 171.234C85.5069 170.427 84.5402 169.497 83.5535 171.567Z" fill="#FCEAD5"/>
<path d="M105.53 167.761C104.147 166.984 101.477 166.997 100.107 167.874C98.4403 168.937 99.5903 169.231 101.064 169.574C102.42 169.891 104.017 170.324 105.434 169.947C106.404 169.687 107.604 168.994 105.53 167.761Z" fill="#FCEAD5"/>
<path d="M54.2205 162.084C53.6138 163.457 54.0905 165.817 55.2838 166.864C56.7338 168.134 56.8538 167.06 56.9738 165.69C57.0872 164.427 57.2838 162.934 56.6238 161.75C56.1738 160.944 55.2072 160.014 54.2205 162.084Z" fill="#FCEAD5"/>
<path d="M33.6199 139.384C33.1733 140.397 33.5233 142.134 34.4033 142.907C35.4699 143.844 35.5599 143.054 35.6499 142.044C35.7333 141.114 35.8766 140.01 35.3933 139.14C35.0599 138.547 34.3499 137.86 33.6233 139.384H33.6199Z" fill="#FCEAD5"/>
<path d="M62.6004 191.001C61.9937 192.374 62.4704 194.734 63.6637 195.781C65.1137 197.051 65.2337 195.977 65.3537 194.607C65.4671 193.344 65.6637 191.851 65.0037 190.667C64.5537 189.861 63.5871 188.931 62.6004 191.001Z" fill="#FCEAD5"/>
<path d="M71.4706 170.777C69.8706 170.487 67.3639 171.334 66.4106 172.584C65.2539 174.097 66.4472 174.01 67.9672 173.874C69.3672 173.744 71.0372 173.65 72.2206 172.85C73.0306 172.303 73.8939 171.28 71.4672 170.777H71.4706Z" fill="#FCEAD5"/>
<path d="M44.5907 143.714C43.1173 144.364 41.6907 146.408 41.774 147.914C41.8773 149.741 42.7707 149.018 43.8907 148.074C44.9207 147.204 46.1873 146.214 46.594 144.934C46.8707 144.061 46.864 142.781 44.5907 143.718V143.714Z" fill="#FCEAD5"/>
<path d="M64.7606 159.791C63.1606 159.501 60.6539 160.347 59.7006 161.597C58.5439 163.111 59.7373 163.024 61.2573 162.887C62.6573 162.757 64.3273 162.664 65.5106 161.864C66.3206 161.317 67.1839 160.294 64.7573 159.791H64.7606Z" fill="#FCEAD5"/>
<path d="M95.3867 162.537C95.4467 163.847 95.5434 164.831 96.27 165.957C96.7467 166.701 97.4567 167.874 97.8567 166.387C98.0501 165.664 97.2667 160.941 95.3901 162.537H95.3867Z" fill="#FCEAD5"/>
<path d="M122.82 180.441C122.88 181.751 122.977 182.734 123.704 183.861C124.18 184.604 124.89 185.777 125.29 184.291C125.484 183.567 124.7 178.844 122.824 180.441H122.82Z" fill="#FCEAD5"/>
<path d="M113.077 154.527C112.94 155.04 112.84 155.83 113.193 156.65C113.273 156.833 113.443 157.18 113.827 157.523C114.013 157.693 114.56 158.187 114.987 158.087C115.103 158.06 115.297 157.963 115.447 157.523C115.643 156.953 114.92 153.257 113.073 154.523L113.077 154.527Z" fill="#FCEAD5"/>
<path d="M97.2539 158.747C97.7572 159.377 98.6372 160.227 100.011 160.634C100.321 160.724 100.917 160.874 101.734 160.801C102.134 160.764 103.294 160.661 103.597 160.121C103.681 159.971 103.754 159.677 103.357 159.104C102.844 158.361 97.5239 155.614 97.2539 158.747Z" fill="#FCEAD5"/>
<path d="M22.8037 152.547C23.3037 153.17 24.1704 154.01 25.5304 154.414C25.837 154.504 26.427 154.65 27.2337 154.577C27.627 154.54 28.777 154.437 29.077 153.904C29.1604 153.757 29.2337 153.467 28.8404 152.897C28.3337 152.16 23.0704 149.444 22.8037 152.547Z" fill="#FCEAD5"/>
<path d="M105.491 162.18C105.934 163.407 106.764 164.19 108.201 164.41C109.087 164.547 111.037 164.774 110.854 163.65C110.617 162.207 107.031 160.62 105.487 162.184L105.491 162.18Z" fill="#FCEAD5"/>
<path d="M82.5772 181.597C81.1438 181.837 80.0738 182.067 78.9205 182.873C78.1605 183.407 76.9605 184.207 78.6472 184.35C79.4705 184.42 84.5705 183.047 82.5805 181.597H82.5772Z" fill="#FCEAD5"/>
<path d="M91.4565 197.244C91.8998 198.471 92.7331 199.254 94.1665 199.474C95.0531 199.611 97.0031 199.837 96.8198 198.714C96.5831 197.271 92.9965 195.684 91.4531 197.247L91.4565 197.244Z" fill="#FCEAD5"/>
<path d="M348.376 52.7956C348.679 11.5466 305.377 -22.2116 251.66 -22.6054C197.942 -22.9992 154.151 10.1206 153.848 51.3696C153.546 92.6187 196.847 126.377 250.565 126.771C304.282 127.164 348.074 94.0446 348.376 52.7956Z" fill="#D1CDBF"/>
<path d="M253.148 113.691C300.058 111.593 336.814 81.4392 335.245 46.3398C333.675 11.2403 294.375 -15.5131 247.465 -13.4158C200.555 -11.3184 163.799 18.8356 165.368 53.935C166.937 89.0345 206.238 115.788 253.148 113.691Z" stroke="#FAF5E2" stroke-width="0.333333" stroke-miterlimit="10"/>
<path opacity="0.85" d="M330.333 41.3706C330.599 43.6272 331.126 48.0972 330.816 52.2006C329.279 72.6439 306.639 88.8739 304.983 90.0339C300.146 93.4172 292.839 97.4772 291.993 97.9472C286.209 101.151 283.316 102.754 279.783 104.121C278.599 104.577 259.999 111.581 247.363 106.957C246.186 106.527 244.096 105.641 241.136 105.497C237.189 105.307 235.496 106.617 231.533 106.981C228.833 107.231 226.893 106.857 223.126 106.104C218.296 105.137 211.336 103.747 202.866 99.2872C197.703 96.5672 191.046 93.0839 184.406 85.3272C181.923 82.4272 176.573 76.0472 173.189 65.6939C172.596 63.8772 170.169 57.4906 170.359 50.2739C170.759 35.1006 178.619 15.6439 193.363 7.3139C201.686 2.61057 203.539 6.35057 222.029 -1.06276C228.316 -3.58276 230.449 -4.9561 236.113 -6.34943C238.859 -7.0261 243.776 -7.8361 258.969 -7.10276C269.396 -6.59943 274.606 -6.3461 278.086 -5.51943C286.786 -3.44943 284.726 -1.41276 303.219 7.52057C310.853 11.2072 314.809 12.6272 316.749 16.9872C317.873 19.5106 317.999 22.2906 320.726 25.0306C323.096 27.4106 324.346 26.6606 326.479 28.7206C329.093 31.2406 329.543 34.6506 330.333 41.3706Z" fill="#AE00D8"/>
<path d="M196.203 38.451C197.313 35.6243 198.749 32.961 200.489 30.4643C200.069 31.0643 199.653 31.6643 199.233 32.2643C201.239 29.4443 203.589 26.9076 206.256 24.6676C205.699 25.1343 205.139 25.5976 204.583 26.0643C207.163 23.941 209.979 22.1376 213.019 20.6843C212.356 20.9943 211.689 21.3043 211.026 21.6143C212.553 20.9043 214.116 20.2843 215.723 19.761C220.019 18.3576 222.823 13.3776 221.046 9.05096C219.286 4.7643 214.489 2.08096 209.893 3.5843C196.753 7.87763 185.496 17.8743 180.526 30.531C179.676 32.6976 179.296 34.8143 180.126 37.1143C180.826 39.0576 182.546 41.1343 184.503 42.0176C188.493 43.821 194.476 42.8543 196.206 38.4543L196.203 38.451Z" fill="#DF7F00"/>
<path d="M208.446 3.35719C209.13 3.07052 209.813 2.86052 210.54 2.71052C209.8 2.84385 209.063 2.98052 208.323 3.11385C209.356 2.94719 210.363 2.91052 211.41 2.97719C210.63 2.91385 209.85 2.85385 209.07 2.79052C210.91 2.96385 212.676 3.42052 214.423 4.02719C213.683 3.76719 212.94 3.50719 212.2 3.24719C217.91 5.32719 223.16 8.48385 228.17 11.8572C227.543 11.4339 226.913 11.0105 226.286 10.5872C228.086 11.8072 229.86 13.0605 231.626 14.3239C233.596 15.7339 235.576 16.6905 238.073 16.5639C240.17 16.4539 242.62 15.4239 243.956 13.8339C246.666 10.6105 247.103 4.66719 243.12 1.82052C237.23 -2.38948 231.24 -6.62948 224.68 -9.77948C218.02 -12.9761 209.743 -15.8061 202.61 -12.8161C200.496 -11.9295 198.746 -10.7561 197.686 -8.68948C196.73 -6.82281 196.46 -4.11948 197.29 -2.10615C198.933 1.89385 204 5.22719 208.443 3.36052L208.446 3.35719Z" fill="#DF7F00"/>
<path d="M222.956 19.0913C207.673 26.648 195.143 39.5614 187.966 54.7014C186.076 58.6914 187.533 64.1913 191.943 66.188C196.173 68.098 201.619 66.9013 203.646 62.6247C205.249 59.2447 207.119 56.0113 209.246 52.928C208.826 53.528 208.409 54.128 207.989 54.728C211.296 50.0013 215.166 45.678 219.556 41.8813C219.783 41.6847 220.653 40.9547 219.579 41.848C218.443 42.7913 219.529 41.8947 219.789 41.6847C220.376 41.2113 220.969 40.748 221.573 40.2947C222.716 39.4313 223.889 38.6047 225.086 37.8113C227.546 36.1847 230.116 34.7213 232.773 33.408C234.626 32.4913 236.069 29.9747 236.446 28.068C236.849 26.0313 236.393 23.4013 235.093 21.6647C233.743 19.8647 231.809 18.3313 229.506 17.948C227.079 17.5413 225.109 18.0313 222.956 19.0947V19.0913Z" fill="#DF7F00"/>
<path d="M210.952 57.9642C205.619 69.9609 204.799 83.2775 208.582 96.0442C209.859 100.354 215.536 103.051 219.736 101.511C224.332 99.8242 226.422 95.4109 225.059 90.8009C224.732 89.6975 224.442 88.5875 224.189 87.4642C224.346 88.1875 224.506 88.9075 224.662 89.6309C223.799 85.6075 223.472 81.5409 223.662 77.4642C223.619 78.2209 223.576 78.9809 223.532 79.7375C223.776 75.5009 224.572 71.3575 225.936 67.3542C225.689 68.0675 225.439 68.7842 225.192 69.4975C225.626 68.2742 226.102 67.0709 226.629 65.8875C228.422 61.8575 227.132 56.4275 222.652 54.4009C218.509 52.5275 212.872 53.6409 210.949 57.9642H210.952Z" fill="#DF7F00"/>
<path d="M296.466 111.288C302.096 104.045 307.022 95.7414 307.839 86.408C308.662 77.0147 306.489 68.0247 303.979 58.9247C302.786 54.5914 296.969 51.938 292.826 53.458C288.162 55.168 286.226 59.5314 287.502 64.168C288.332 67.178 289.146 70.1913 289.812 73.2347C289.656 72.5113 289.496 71.7913 289.339 71.068C290.269 75.438 290.852 79.848 290.602 84.288C290.646 83.5314 290.689 82.7747 290.732 82.0147C290.536 84.748 290.006 87.3914 289.146 89.9814C289.392 89.268 289.639 88.5514 289.889 87.838C288.532 91.7214 286.532 95.298 284.189 98.678C284.609 98.078 285.026 97.478 285.446 96.878C284.752 97.858 284.039 98.818 283.302 99.768C281.882 101.591 280.979 103.598 281.172 105.985C281.339 108.028 282.466 110.441 284.136 111.785C287.589 114.561 293.559 115.031 296.466 111.295V111.288Z" fill="#DF7F00"/>
<path d="M242.742 63.6846C248.276 65.0479 254.196 65.5246 259.826 64.9346C265.386 64.3479 271.269 62.9913 275.782 59.7013C285.039 52.9546 288.572 41.0346 284.822 30.1679C282.956 24.7579 279.292 19.6879 274.709 16.0913C271.109 13.2646 265.439 12.9446 262.379 16.5813C259.556 19.9379 259.366 25.5746 263.216 28.5946C264.192 29.3613 265.056 30.2046 265.942 31.0613C266.682 31.7713 264.696 29.5579 265.326 30.3613C265.502 30.5879 265.692 30.8046 265.872 31.0313C266.272 31.5413 266.649 32.0646 267.002 32.6046C267.132 32.8046 267.702 34.0379 267.886 34.0713C267.782 34.0513 266.959 32.1346 267.459 33.2446C267.576 33.5046 267.699 33.7579 267.809 34.0213C268.312 35.1946 268.689 36.4046 268.972 37.6413C268.816 36.9179 268.656 36.1979 268.499 35.4746C268.816 37.0213 268.952 38.5613 268.896 40.1279C268.939 39.3713 268.982 38.6113 269.026 37.8546C268.919 39.5879 268.589 41.2579 268.029 42.8979C268.276 42.1846 268.522 41.4679 268.772 40.7546C268.226 42.2379 267.516 43.6213 266.619 44.9246C267.039 44.3246 267.456 43.7246 267.876 43.1246C267.199 44.0579 266.439 44.8746 265.619 45.6913C264.969 46.2646 265.196 46.0779 266.306 45.1246C266.079 45.3013 265.846 45.4713 265.606 45.6313C265.162 45.9346 264.699 46.2146 264.226 46.4746C262.466 47.4413 265.859 45.8846 264.339 46.4446C263.756 46.6613 263.182 46.8913 262.586 47.0813C261.392 47.4613 260.169 47.7413 258.932 47.9679C259.672 47.8346 260.409 47.6979 261.149 47.5646C257.676 48.1579 254.149 48.3013 250.612 48.0346C251.392 48.0979 252.172 48.1579 252.952 48.2213C250.612 48.0146 248.306 47.6346 246.016 47.0713C241.552 45.9746 236.456 49.1346 235.792 53.5579C235.092 58.2279 237.952 62.5046 242.736 63.6813L242.742 63.6846Z" fill="#DF7F00"/>
<path d="M276.002 6.66125C273.989 8.47125 275.456 7.11792 276.059 6.75125C276.739 6.33792 277.856 6.23458 275.626 6.89125C276.626 6.59792 277.562 6.22458 278.602 6.02125C277.862 6.15458 277.126 6.29125 276.386 6.42458C278.036 6.15125 279.679 6.12125 281.359 6.24792C280.579 6.18458 279.799 6.12458 279.019 6.06125C282.992 6.45792 286.879 7.63125 290.649 8.94458C289.909 8.68458 289.166 8.42458 288.426 8.16458C294.489 10.3312 300.242 13.2179 305.589 16.7846C304.962 16.3612 304.332 15.9379 303.706 15.5146C304.442 16.0146 305.172 16.5246 305.896 17.0446C307.859 18.4546 309.852 19.4112 312.342 19.2846C314.439 19.1746 316.889 18.1446 318.226 16.5546C320.942 13.3246 321.362 7.39792 317.389 4.54125C309.442 -1.17542 300.996 -5.45208 291.646 -8.42542C286.992 -9.90542 282.096 -11.0188 277.206 -10.8021C271.649 -10.5521 266.832 -8.45542 262.836 -4.86208C261.282 -3.46542 260.542 -0.648751 260.706 1.35458C260.872 3.39792 261.999 5.81125 263.669 7.15458C267.652 10.3579 272.452 9.85125 275.999 6.66458L276.002 6.66125Z" fill="#DF7F00"/>
<path d="M273.946 9.54762C276.519 8.70095 274.629 9.35095 273.929 9.44428C273.143 9.54762 272.076 9.19428 274.383 9.49095C273.349 9.35762 272.339 9.32095 271.309 9.08762C272.039 9.26095 272.769 9.43428 273.499 9.61095C271.879 9.19762 270.359 8.56428 268.876 7.77095C269.566 8.14095 270.253 8.51095 270.943 8.88428C267.463 6.92428 264.376 4.28762 261.456 1.56428C262.029 2.10095 262.603 2.63762 263.176 3.17428C258.496 -1.24572 254.389 -6.20572 250.929 -11.6224C251.333 -10.9824 251.739 -10.3424 252.143 -9.69905C251.669 -10.4524 251.206 -11.2124 250.753 -11.9791C249.523 -14.0591 248.083 -15.7391 245.749 -16.6224C243.786 -17.3657 241.129 -17.4057 239.266 -16.4891C235.479 -14.6224 232.709 -9.36905 235.199 -5.15238C240.176 3.28095 246.189 10.5909 253.553 17.0743C257.219 20.301 261.253 23.2909 265.816 25.0576C271.003 27.0643 276.256 27.081 281.363 25.3976C283.346 24.7443 285.156 22.4643 285.813 20.5643C286.479 18.6276 286.419 15.9643 285.433 14.0643C283.073 9.52761 278.476 8.06095 273.946 9.55428V9.54762Z" fill="#DF7F00"/>
<path d="M232.123 41.6739C241.31 43.2339 250.393 41.2606 258.25 36.7606C265.826 32.4206 271.496 25.7839 276.156 18.6639C277.29 16.9339 277.24 13.9773 276.553 12.0806C275.853 10.1373 274.133 8.06059 272.176 7.17726C270.076 6.22726 267.59 5.81059 265.4 6.61393C263.17 7.43059 261.746 8.80059 260.476 10.7406C260.126 11.2739 259.773 11.8039 259.41 12.3306C259.83 11.7306 260.246 11.1306 260.666 10.5306C259.2 12.6239 257.62 14.6373 255.866 16.5106C255.103 17.3273 254.31 18.1173 253.486 18.8739C253.25 19.0906 253.013 19.3039 252.773 19.5139C252.103 20.0906 252.293 19.9373 253.35 19.0473C252.816 19.3873 252.343 19.8506 251.833 20.2239C250.806 20.9806 249.74 21.6873 248.63 22.3306C248.23 22.5639 247.823 22.7873 247.413 23.0039C247.14 23.1473 246.863 23.2873 246.583 23.4239C247.88 22.8306 248.12 22.7173 247.31 23.0839C244.996 24.0406 242.66 24.8006 240.173 25.2573C240.913 25.1239 241.65 24.9873 242.39 24.8539C240.073 25.2406 237.753 25.3639 235.393 25.1873C236.173 25.2506 236.953 25.3106 237.733 25.3739C236.95 25.3006 236.173 25.2006 235.396 25.0673C230.88 24.3006 225.873 26.8906 225.173 31.5539C224.516 35.9373 227.273 40.8539 232.116 41.6773L232.123 41.6739Z" fill="#FFAF25"/>
<path d="M244.626 90.904C254.763 90.3406 264.143 85.6706 270.986 78.614C278.196 71.1773 282.363 60.9373 283.493 50.7473C283.746 48.474 283.499 46.3273 282.139 44.344C280.936 42.5873 278.706 40.9873 276.553 40.6273C272.179 39.8973 266.853 42.394 266.329 47.114C265.946 50.5706 265.219 53.9573 264.106 57.244C264.353 56.5306 264.599 55.814 264.849 55.1006C263.649 58.5206 262.049 61.7573 259.983 64.7473C260.403 64.1473 260.819 63.5473 261.239 62.9473C259.993 64.7006 258.619 66.3506 257.063 67.854C256.753 68.1506 256.439 68.444 256.119 68.7306C254.459 70.2106 257.319 67.8473 256.143 68.714C255.389 69.2673 254.649 69.8306 253.863 70.3406C253.079 70.8506 252.273 71.3273 251.446 71.7673C250.779 72.124 248.949 72.6573 251.499 71.7873C251.093 71.9273 250.703 72.134 250.306 72.2906C248.429 73.0373 246.479 73.5806 244.479 73.9473C245.219 73.814 245.956 73.6773 246.696 73.544C245.546 73.734 244.393 73.864 243.226 73.9273C238.673 74.1806 234.629 78.2906 235.216 82.8706C235.799 87.4406 239.749 91.1773 244.629 90.9073L244.626 90.904Z" fill="#FFAF25"/>
<path d="M280.786 42.1512C281.379 42.3212 281.966 42.5045 282.549 42.7045C281.809 42.4445 281.066 42.1845 280.326 41.9245C282.806 42.8112 285.133 43.9945 287.316 45.4612C286.689 45.0379 286.059 44.6145 285.433 44.1912C286.826 45.1579 288.143 46.2145 289.359 47.3879C289.689 47.7079 290.003 48.0445 290.329 48.3679C291.539 49.5745 289.023 46.7312 290.066 48.0745C290.583 48.7379 291.109 49.3879 291.586 50.0779C292.069 50.7779 292.503 51.4979 292.933 52.2312C293.719 53.5679 292.109 50.3979 292.779 51.9145C292.936 52.2679 293.103 52.6145 293.256 52.9712C293.956 54.6079 294.479 56.2979 294.873 58.0212C294.716 57.2979 294.556 56.5779 294.399 55.8545C294.906 58.2679 295.113 60.6912 295.013 63.1379C295.056 62.3812 295.099 61.6212 295.143 60.8645C295.063 62.2345 294.889 63.5845 294.619 64.9279C293.746 69.2679 296.899 74.2712 301.563 75.0512C306.266 75.8379 310.849 73.2179 311.786 68.5645C313.623 59.4212 311.719 49.6979 306.556 41.6645C301.429 33.6912 293.203 28.1679 284.073 25.5445C279.649 24.2745 274.496 27.7312 273.853 32.0312C273.133 36.8512 276.056 40.7945 280.796 42.1545L280.786 42.1512Z" fill="#FFAF25"/>
<path d="M180.46 77.9239C190.4 88.7239 206.27 94.5039 220.8 92.9839C225.32 92.5105 229.416 88.7805 228.81 84.0405C228.25 79.6572 224.25 75.4939 219.396 76.0039C216.943 76.2605 214.486 76.2872 212.016 76.0939C212.796 76.1572 213.576 76.2172 214.356 76.2805C210.956 75.9739 207.63 75.2605 204.39 74.1572C205.13 74.4172 205.873 74.6772 206.613 74.9372C203.236 73.7439 200.046 72.1605 197.07 70.1805C197.696 70.6039 198.326 71.0272 198.953 71.4505C196.386 69.7005 194.046 67.6972 191.953 65.4239C190.52 63.8639 187.52 63.0805 185.506 63.1839C183.41 63.2939 180.96 64.3239 179.623 65.9139C178.19 67.6172 177.203 69.8405 177.493 72.1305C177.793 74.4672 178.836 76.1672 180.456 77.9305L180.46 77.9239Z" fill="#FFAF25"/>
<path d="M158.776 40.7045C168.716 51.5045 184.586 57.2845 199.116 55.7645C203.636 55.2912 207.733 51.5612 207.126 46.8179C206.566 42.4345 202.566 38.2712 197.713 38.7812C195.259 39.0379 192.803 39.0645 190.333 38.8712C191.113 38.9345 191.893 38.9945 192.673 39.0579C189.273 38.7512 185.946 38.0379 182.706 36.9345C183.446 37.1945 184.189 37.4545 184.929 37.7145C181.553 36.5212 178.363 34.9379 175.386 32.9579C176.013 33.3812 176.643 33.8045 177.269 34.2279C174.703 32.4779 172.363 30.4745 170.269 28.2012C168.836 26.6412 165.836 25.8579 163.823 25.9612C161.726 26.0712 159.276 27.1012 157.939 28.6912C156.506 30.3945 155.519 32.6179 155.809 34.9079C156.109 37.2445 157.153 38.9445 158.773 40.7079L158.776 40.7045Z" fill="#FFAF25"/>
<path d="M243.39 117.848C259.19 115.925 274.163 107.891 283.15 95.0978C284.517 93.1545 285.483 91.3745 285.28 88.8812C285.113 86.8378 283.987 84.4245 282.317 83.0812C280.527 81.6412 278.213 80.6178 275.87 80.8412C273.78 81.0412 271.22 81.8178 269.987 83.5712C268.273 86.0112 266.337 88.2912 264.173 90.3678C263.607 90.9112 263.03 91.4412 262.437 91.9545C261.257 92.9778 262.707 91.5212 262.963 91.5245C262.823 91.5245 262.073 92.2345 261.957 92.3245C260.767 93.2412 259.533 94.1045 258.26 94.9112C256.987 95.7178 255.673 96.4645 254.33 97.1545C254.01 97.3178 253.683 97.4745 253.363 97.6345C252.443 98.0978 255.283 96.7745 253.983 97.3445C253.257 97.6612 252.527 97.9745 251.787 98.2645C248.89 99.3945 245.883 100.238 242.807 100.815C243.547 100.681 244.283 100.545 245.023 100.411C244.02 100.591 243.013 100.741 241.997 100.865C239.723 101.141 237.663 101.908 236.113 103.595C234.687 105.148 233.71 107.675 233.983 109.811C234.537 114.131 238.557 118.438 243.397 117.848H243.39Z" fill="#E68F15"/>
<path d="M187.036 36.3113C192.226 51.1513 203.94 63.998 218.616 70.6046C222.796 72.488 228.366 71.328 230.32 67.0413C232.146 63.0313 230.823 57.5746 226.343 55.5546C223.623 54.3313 221.03 52.8813 218.56 51.218C219.186 51.6413 219.816 52.0646 220.443 52.488C218.296 51.018 216.26 49.408 214.356 47.6446C213.38 46.738 212.436 45.7946 211.533 44.8213C211.32 44.588 210.566 43.748 211.533 44.8313C212.55 45.9746 211.63 44.928 211.403 44.6613C210.976 44.1546 210.56 43.638 210.15 43.1146C208.566 41.0813 207.14 38.9313 205.896 36.688C205.753 36.4313 205.616 36.1746 205.476 35.918C204.793 34.6613 206.226 37.4546 205.786 36.5146C205.536 35.9846 205.28 35.4613 205.04 34.928C204.473 33.6613 203.97 32.3713 203.513 31.0646C202.03 26.818 196.706 24.0046 192.36 25.598C187.936 27.2213 185.45 31.7646 187.036 36.308V36.3113Z" fill="#E68F15"/>
<path d="M315.029 26.1346C309.236 11.5046 297.252 -1.04536 282.282 -7.0987C280.052 -7.9987 277.826 -8.40203 275.506 -7.66203C273.526 -7.03203 271.439 -5.41536 270.582 -3.53536C268.819 0.334635 270.006 6.10797 274.559 7.9513C277.879 9.29464 281.029 10.968 284.002 12.9513C283.376 12.528 282.746 12.1046 282.119 11.6813C284.149 13.058 286.086 14.5613 287.902 16.198C288.839 17.0413 289.742 17.918 290.612 18.8246C290.816 19.038 291.016 19.2546 291.222 19.4713C292.082 20.3746 290.616 18.8946 290.632 18.7913C290.599 18.9846 291.792 20.158 291.919 20.3113C293.456 22.198 294.852 24.188 296.092 26.268C296.392 26.7713 296.686 27.2813 296.966 27.7946C297.009 27.8713 297.326 28.568 297.382 28.568C297.302 28.568 296.439 26.6446 296.969 27.7746C297.529 28.968 298.072 30.158 298.556 31.3813C300.212 35.5646 305.239 38.488 309.709 36.848C313.986 35.278 316.802 30.618 315.032 26.138L315.029 26.1346Z" fill="#E68F15"/>
<path opacity="0.85" d="M219.29 47.9308C215.046 51.6408 222.996 54.3175 224.733 56.4375C226.953 59.1508 225.86 62.9975 227.066 66.0442C228.28 69.1075 225.486 73.9175 229.48 75.6008C233.89 77.4608 234.096 70.7375 234.9 68.1842C236.5 63.1008 241.92 67.0042 245.55 66.5075C248.05 66.1675 249.37 64.0942 250.93 62.3208C252.613 60.4108 253.943 59.4175 256.03 58.0575C257.796 56.9108 258.21 55.1308 255.443 55.2342C253.386 55.3108 251.396 57.0142 249.616 57.7775C245.266 59.6475 240.41 58.7675 239.413 53.9442C239.26 53.2075 238.783 52.3675 238.663 51.8408C237.816 48.1608 243.22 45.4275 242.513 43.3808C241.403 40.1742 226.54 42.2542 222.503 44.9442C220.606 46.2075 219.286 47.9308 219.286 47.9308H219.29Z" fill="#AE00D8"/>
<path opacity="0.85" d="M230.487 65.7736C227.78 64.8436 223.88 68.4336 223.143 70.707C222.523 72.6236 223.52 74.457 221.35 75.847C220.48 76.4036 219.49 76.577 218.683 77.2636C217.8 78.0136 217.55 78.9803 216.86 79.857C215.967 80.9936 211.76 82.1336 212.067 83.4203C212.253 84.197 214.11 84.8236 214.757 85.0603C215.813 85.4436 216.967 85.4136 218.123 85.3136C220.303 85.1236 223.27 84.9003 224.963 86.537C226.437 87.9603 225.493 89.507 225.94 91.187C226.373 92.8236 227.76 93.4736 227.293 95.3303C226.833 97.157 225.42 98.5536 225.883 100.527C226.477 103.064 229.34 103.527 231.69 102.98C234.067 102.427 236.203 103.264 238.613 103.15C240.32 103.07 242.037 103.444 243.717 103.264C245.38 103.084 246.667 102.354 248.1 101.587C250.403 100.357 252.517 100.92 254.99 100.347C256.483 100 258.18 99.2403 258.973 97.9503C259.607 96.9203 259.657 95.6436 260.29 94.5903C260.907 93.557 265.09 89.0536 264.023 87.807C263.613 87.327 260.477 88.6936 259.877 88.8336C258.607 89.1303 256.86 88.9703 255.57 88.6203C254.7 88.387 253.877 87.887 253.297 87.2703C252.707 86.6436 252.453 85.567 251.753 85.0536C250.373 84.037 247.337 85.4636 245.82 85.8436C241.493 86.927 239.097 83.7103 240.777 80.067C241.843 77.747 243.523 72.597 239.753 71.5803C237.95 71.0936 236.2 72.4336 234.433 72.2003C232.71 71.9736 232.58 70.2003 232.473 68.8703C232.337 67.177 231.663 65.6536 230.49 65.777L230.487 65.7736Z" fill="#AE00D8"/>
<path opacity="0.85" d="M177.34 29.7578C180.586 33.0778 184.316 26.2978 185.996 24.2612C187.166 22.8445 188.153 21.3178 190.056 20.8345C191.816 20.3878 193.42 19.8012 195.156 19.1579C197.466 18.3012 199.99 18.1412 202 19.5945C202.94 20.2712 204.583 21.6945 205.05 19.7278C205.683 17.0645 202.416 14.8678 201.696 12.4945C201.226 10.9378 201.363 10.1312 202.88 9.25118C204.293 8.43118 205.343 7.46118 206.663 6.48785C208.196 5.35785 213.636 4.84118 212.486 2.12118C211.976 0.91785 210.223 1.06785 209.2 0.18785C207.88 -0.952151 206.996 -1.67548 205.546 -0.0188171C204.5 1.17785 204.45 2.75118 203.016 3.66452C201.673 4.52118 199.793 4.82785 198.276 5.24118C195.97 5.87118 195.006 7.58452 193.356 9.13118C191.846 10.5478 190.303 11.7012 188.866 13.2112C186.946 15.2312 184.73 16.7479 183.266 19.1112C182.153 20.9079 180.763 22.5512 179.596 24.3012C178.27 26.2945 177.493 27.9412 177.333 29.7545L177.34 29.7578Z" fill="#AE00D8"/>
<path opacity="0.85" d="M282.243 23.1639C282.386 25.1806 284.883 25.8572 286.673 25.0272C288.139 24.3472 288.173 22.6672 288.426 21.3439C288.653 20.1606 288.713 18.7206 289.666 17.7739C290.663 16.7806 291.653 17.2906 292.916 17.0939C294.833 16.7972 295.689 16.3472 296.669 18.2272C297.293 19.4239 297.706 20.7406 299.466 20.4039C300.539 20.2006 302.349 18.4372 302.246 17.3372C302.149 16.2939 300.613 15.6539 300.459 14.5072C300.089 11.6972 304.296 9.40391 303.813 6.63724C303.226 3.28391 298.703 7.78724 297.446 8.16057C294.763 8.95724 292.549 5.87057 289.799 6.25057C288.579 6.41724 287.119 7.05391 285.959 7.53391C284.539 8.12057 283.069 9.56057 281.536 9.79391C280.213 9.99391 278.743 8.84391 277.859 10.2939C276.683 12.2306 279.086 13.1372 280.193 14.1439C282.796 16.5106 281.449 20.7872 282.239 23.1739L282.243 23.1639Z" fill="#AE00D8"/>
<path d="M260.537 40.0931C260.014 41.2764 260.424 43.3131 261.454 44.2198C262.704 45.3164 262.807 44.3898 262.914 43.2064C263.01 42.1164 263.18 40.8264 262.61 39.8064C262.22 39.1098 261.387 38.3064 260.537 40.0931Z" fill="#3F2913"/>
<path d="M279.504 36.8104C278.311 36.1404 276.007 36.1538 274.824 36.9071C273.387 37.8238 274.377 38.0771 275.651 38.3738C276.824 38.6471 278.201 39.0204 279.421 38.6938C280.257 38.4704 281.294 37.8704 279.504 36.8071V36.8104Z" fill="#3F2913"/>
<path d="M235.224 31.9105C234.7 33.0938 235.11 35.1305 236.14 36.0371C237.39 37.1338 237.494 36.2071 237.6 35.0238C237.697 33.9338 237.867 32.6438 237.297 31.6238C236.907 30.9271 236.074 30.1238 235.224 31.9105Z" fill="#3F2913"/>
<path d="M217.447 12.32C217.061 13.1934 217.364 14.6934 218.124 15.36C219.044 16.1667 219.121 15.4867 219.201 14.6134C219.271 13.81 219.397 12.86 218.977 12.1067C218.691 11.5934 218.077 11.0034 217.451 12.3167L217.447 12.32Z" fill="#3F2913"/>
<path d="M242.454 56.8636C241.931 58.0469 242.341 60.0836 243.371 60.9903C244.621 62.0869 244.724 61.1603 244.831 59.9769C244.927 58.8869 245.097 57.5969 244.527 56.5769C244.137 55.8803 243.304 55.0769 242.454 56.8636Z" fill="#3F2913"/>
<path d="M250.11 39.4133C248.73 39.1633 246.567 39.8967 245.744 40.9733C244.747 42.28 245.777 42.2067 247.087 42.0867C248.297 41.9767 249.734 41.8933 250.76 41.2033C251.46 40.7333 252.204 39.8467 250.11 39.4167V39.4133Z" fill="#3F2913"/>
<path d="M226.914 16.0571C225.64 16.6171 224.41 18.3804 224.484 19.6804C224.574 21.2571 225.344 20.6337 226.31 19.8171C227.2 19.0671 228.294 18.2104 228.644 17.1071C228.884 16.3537 228.877 15.2471 226.914 16.0571Z" fill="#3F2913"/>
<path d="M244.317 29.9299C242.937 29.6799 240.774 30.4133 239.951 31.4899C238.954 32.7966 239.984 32.7233 241.294 32.6033C242.504 32.4933 243.941 32.4099 244.967 31.7199C245.667 31.2499 246.411 30.3633 244.317 29.9333V29.9299Z" fill="#3F2913"/>
<path d="M270.75 32.2998C270.8 33.4298 270.887 34.2765 271.51 35.2532C271.92 35.8965 272.537 36.9065 272.88 35.6232C273.047 34.9965 272.373 30.9232 270.75 32.2998Z" fill="#3F2913"/>
<path d="M272.36 29.0304C272.794 29.5737 273.554 30.307 274.74 30.6604C275.007 30.7404 275.524 30.867 276.227 30.8037C276.57 30.7737 277.574 30.6837 277.834 30.217C277.907 30.087 277.97 29.8337 277.627 29.3404C277.184 28.697 272.594 26.327 272.36 29.0337V29.0304Z" fill="#3F2913"/>
<path d="M208.11 23.6799C208.54 24.2166 209.29 24.9432 210.464 25.2899C210.727 25.3666 211.237 25.4932 211.934 25.4299C212.274 25.3999 213.267 25.3099 213.524 24.8499C213.597 24.7232 213.657 24.4732 213.32 23.9832C212.884 23.3466 208.34 21.0032 208.11 23.6799Z" fill="#3F2913"/>
<path d="M279.471 31.9937C279.851 33.0503 280.571 33.727 281.811 33.917C282.577 34.0337 284.261 34.2303 284.101 33.2603C283.897 32.0137 280.804 30.647 279.471 31.9937Z" fill="#3F2913"/>
<path d="M259.694 48.7504C258.458 48.9571 257.534 49.1537 256.538 49.8504C255.881 50.3104 254.844 51.0004 256.301 51.1237C257.011 51.1837 261.411 49.9971 259.694 48.7471V48.7504Z" fill="#3F2913"/>
<path d="M267.357 62.2495C267.737 63.3062 268.457 63.9829 269.697 64.1729C270.464 64.2895 272.147 64.4862 271.987 63.5162C271.784 62.2695 268.691 60.9029 267.357 62.2495Z" fill="#3F2913"/>
<path d="M8.84345 93.6562L8.88345 93.8162L8.92678 93.5362C9.06345 92.6428 9.53678 91.8328 10.2501 91.2795C9.52012 90.6962 9.00345 89.8928 8.77678 88.9862L8.73678 88.8262L8.69345 89.1062C8.55678 89.9995 8.08345 90.8095 7.37012 91.3628C8.10012 91.9462 8.61678 92.7495 8.84345 93.6562Z" fill="#F5BF00"/>
<path d="M29.3299 91.5897C29.3666 91.9297 29.1199 92.2331 28.7799 92.2664C28.4399 92.3031 28.1366 92.0564 28.1032 91.7164C28.0666 91.3764 28.3132 91.0731 28.6532 91.0397C28.9932 91.0031 29.2966 91.2497 29.3299 91.5897Z" fill="#F5BF00"/>
<path d="M27.87 95.9561C27.92 96.4394 27.57 96.8727 27.0867 96.9227C26.6033 96.9727 26.17 96.6227 26.12 96.1394C26.07 95.6561 26.42 95.2227 26.9033 95.1727C27.3867 95.1227 27.82 95.4727 27.87 95.9561Z" fill="#F5BF00"/>
<path d="M29.1469 99.8895C27.5103 99.7229 25.8769 99.6229 24.2403 99.5462C22.6103 99.4762 20.9769 99.4362 19.3469 99.4229C20.0203 98.7329 20.6869 98.0295 21.3403 97.3162C22.0936 96.4895 22.8369 95.6495 23.5469 94.7762C23.6136 94.6929 23.5036 94.5795 23.4203 94.6495C22.5469 95.3595 21.7103 96.1029 20.8803 96.8562C20.1669 97.5095 19.4669 98.1762 18.7736 98.8495C18.7603 97.2162 18.7203 95.5795 18.6503 93.9462C18.5736 92.3129 18.4769 90.6795 18.3103 89.0462C18.2936 88.8895 18.0636 88.8895 18.0469 89.0462C17.8803 90.6795 17.7803 92.3129 17.7069 93.9462C17.6369 95.5795 17.5969 97.2162 17.5836 98.8495C16.8903 98.1729 16.1869 97.5062 15.4736 96.8529C14.6469 96.0995 13.8103 95.3562 12.9403 94.6495C12.8569 94.5829 12.7436 94.6929 12.8136 94.7762C13.5236 95.6462 14.2636 96.4829 15.0169 97.3095C15.6703 98.0229 16.3369 98.7262 17.0136 99.4195C15.3803 99.4329 13.7436 99.4729 12.1103 99.5429C10.4769 99.6195 8.84361 99.7162 7.21027 99.8829C7.05361 99.8995 7.05361 100.13 7.21027 100.146C8.84361 100.313 10.4769 100.413 12.1103 100.486C13.7436 100.556 15.3803 100.596 17.0136 100.61C16.3369 101.303 15.6703 102.006 15.0169 102.72C14.2636 103.546 13.5203 104.383 12.8136 105.253C12.7469 105.336 12.8569 105.45 12.9403 105.38C13.8103 104.67 14.6469 103.93 15.4736 103.176C16.1869 102.523 16.8903 101.856 17.5836 101.18C17.5969 102.813 17.6369 104.443 17.7069 106.076C17.7836 107.713 17.8803 109.346 18.0503 110.983C18.0669 111.14 18.2969 111.14 18.3136 110.983C18.4803 109.346 18.5803 107.713 18.6569 106.076C18.7269 104.446 18.7669 102.813 18.7803 101.183C19.4703 101.856 20.1736 102.523 20.8869 103.176C21.7136 103.93 22.5536 104.673 23.4269 105.383C23.5103 105.45 23.6236 105.34 23.5536 105.256C22.8436 104.383 22.1003 103.546 21.3469 102.716C20.6936 102.003 20.0303 101.303 19.3536 100.61C20.9836 100.596 22.6169 100.556 24.2469 100.486C25.8836 100.41 27.5203 100.313 29.1536 100.143C29.3103 100.126 29.3103 99.8962 29.1536 99.8795L29.1469 99.8895Z" fill="#F5BF00"/>
<path d="M193.913 213.949L193.873 213.789L193.83 214.069C193.693 214.962 193.22 215.772 192.507 216.326C193.237 216.909 193.753 217.712 193.98 218.619L194.02 218.779L194.063 218.499C194.2 217.606 194.673 216.796 195.387 216.242C194.657 215.659 194.14 214.856 193.913 213.949Z" fill="#F5BF00"/>
<path d="M173.424 216.012C173.387 215.672 173.634 215.369 173.974 215.336C174.314 215.299 174.617 215.546 174.65 215.886C174.687 216.226 174.44 216.529 174.1 216.562C173.76 216.599 173.457 216.352 173.424 216.012Z" fill="#F5BF00"/>
<path d="M174.884 211.649C174.834 211.166 175.184 210.732 175.667 210.682C176.15 210.632 176.584 210.983 176.634 211.466C176.684 211.949 176.334 212.382 175.85 212.432C175.367 212.482 174.934 212.132 174.884 211.649Z" fill="#F5BF00"/>
<path d="M173.607 207.713C175.243 207.879 176.877 207.979 178.513 208.056C180.143 208.126 181.777 208.166 183.407 208.179C182.733 208.869 182.067 209.573 181.413 210.286C180.66 211.113 179.917 211.953 179.207 212.826C179.14 212.909 179.25 213.023 179.333 212.953C180.207 212.243 181.043 211.499 181.873 210.746C182.587 210.093 183.287 209.426 183.98 208.753C183.993 210.386 184.033 212.023 184.103 213.656C184.18 215.289 184.277 216.923 184.443 218.556C184.46 218.713 184.69 218.713 184.707 218.556C184.873 216.923 184.973 215.289 185.047 213.656C185.117 212.023 185.157 210.386 185.17 208.753C185.863 209.429 186.567 210.096 187.28 210.749C188.107 211.503 188.943 212.246 189.813 212.953C189.897 213.019 190.01 212.909 189.94 212.826C189.23 211.956 188.49 211.119 187.737 210.293C187.083 209.579 186.417 208.876 185.74 208.183C187.373 208.169 189.01 208.129 190.643 208.059C192.277 207.983 193.91 207.886 195.543 207.719C195.7 207.703 195.7 207.473 195.543 207.456C193.91 207.289 192.277 207.189 190.643 207.116C189.01 207.046 187.373 207.006 185.74 206.993C186.417 206.299 187.083 205.596 187.737 204.883C188.49 204.056 189.233 203.219 189.94 202.349C190.007 202.266 189.897 202.153 189.813 202.223C188.943 202.933 188.107 203.673 187.28 204.426C186.567 205.079 185.863 205.746 185.17 206.423C185.157 204.789 185.117 203.159 185.047 201.526C184.97 199.889 184.873 198.256 184.703 196.619C184.687 196.463 184.457 196.463 184.44 196.619C184.273 198.256 184.173 199.889 184.097 201.526C184.027 203.156 183.987 204.789 183.973 206.419C183.283 205.746 182.58 205.079 181.867 204.426C181.04 203.673 180.2 202.929 179.327 202.219C179.243 202.153 179.13 202.263 179.2 202.346C179.91 203.219 180.653 204.056 181.407 204.886C182.06 205.599 182.723 206.299 183.4 206.993C181.77 207.006 180.137 207.046 178.507 207.116C176.87 207.193 175.233 207.289 173.6 207.459C173.443 207.476 173.443 207.706 173.6 207.723L173.607 207.713Z" fill="#F5BF00"/>
<path d="M41.5867 84.2964C43.4367 83.413 44.7867 81.6097 45.1667 79.4297C45.5467 81.6064 46.8967 83.413 48.7467 84.2964C49.1067 84.4697 50.0034 84.733 50.0034 84.733C50.0034 84.733 49.1067 84.9964 48.7467 85.1697C46.8967 86.053 45.5467 87.8564 45.1667 90.0364C44.7867 87.8597 43.4367 86.053 41.5867 85.1697C41.2267 84.9964 40.3301 84.733 40.3301 84.733C40.3301 84.733 41.2267 84.4697 41.5867 84.2964Z" fill="#F5BF00"/>
<path d="M37.9207 220.63C39.7707 219.747 41.1207 217.944 41.5007 215.764C41.8807 217.94 43.2307 219.747 45.0807 220.63C45.4407 220.804 46.3374 221.067 46.3374 221.067C46.3374 221.067 45.4407 221.33 45.0807 221.504C43.2307 222.387 41.8807 224.19 41.5007 226.37C41.1207 224.194 39.7707 222.387 37.9207 221.504C37.5607 221.33 36.6641 221.067 36.6641 221.067C36.6641 221.067 37.5607 220.804 37.9207 220.63Z" fill="#F5BF00"/>
<path d="M32.6737 78.9966C34.5237 78.1132 35.8737 76.3099 36.2537 74.1299C36.6337 76.3065 37.9837 78.1132 39.8337 78.9966C40.1937 79.1699 41.0903 79.4332 41.0903 79.4332C41.0903 79.4332 40.1937 79.6966 39.8337 79.8699C37.9837 80.7532 36.6337 82.5566 36.2537 84.7366C35.8737 82.5599 34.5237 80.7532 32.6737 79.8699C32.3137 79.6966 31.417 79.4332 31.417 79.4332C31.417 79.4332 32.3137 79.1699 32.6737 78.9966Z" fill="#F5BF00"/>
<path d="M179.293 145.266C176.373 143.743 174.246 140.63 173.643 136.873C173.043 140.63 170.913 143.746 167.993 145.266C167.426 145.563 166.01 146.02 166.01 146.02C166.01 146.02 167.423 146.476 167.993 146.773C170.913 148.296 173.04 151.41 173.643 155.166C174.243 151.41 176.373 148.293 179.293 146.773C179.86 146.476 181.276 146.02 181.276 146.02C181.276 146.02 179.863 145.563 179.293 145.266Z" fill="#F5BF00"/>
<path d="M183.047 139.5C182.133 139.023 181.467 138.047 181.277 136.87C181.09 138.047 180.42 139.023 179.507 139.5C179.33 139.593 178.887 139.737 178.887 139.737C178.887 139.737 179.33 139.88 179.507 139.973C180.42 140.45 181.087 141.427 181.277 142.603C181.463 141.427 182.133 140.45 183.047 139.973C183.223 139.88 183.667 139.737 183.667 139.737C183.667 139.737 183.223 139.593 183.047 139.5Z" fill="#F5BF00"/>
<path d="M81.2369 92.1542C80.4369 91.6876 63.5769 81.7342 63.4202 70.3342C63.2602 58.7009 78.5969 57.1109 81.9369 67.9509" fill="#EAA17F"/>
<path d="M81.2371 92.1539C82.0371 91.6872 99.5071 81.7206 99.6671 70.3206C99.8271 58.6872 84.4904 57.0972 81.1504 67.9372" fill="#EAA17F"/>
<path d="M120.163 15.4067C122.576 14.5467 124.97 13.3134 127.543 13.0567C128.4 12.9634 129.336 12.8534 130.146 13.2067C131.266 13.67 131.796 15.1 132.716 15.9067C133.683 16.8234 135.02 17.0034 136.306 16.8167C139.236 16.3667 140.976 14.9767 143.9 16.56C144.65 16.8467 145.453 16.9634 146.253 16.9767C148.123 16.9834 150.026 16.97 151.92 16.9734" stroke="#373433" stroke-miterlimit="10" stroke-linecap="round"/>
<path d="M136.71 30.3868C137.47 28.7768 138.65 26.7135 140.61 26.5601C141.763 26.6001 142.443 27.9335 143.613 27.9535C144.75 28.0668 145.427 26.9401 146.46 26.7001C147.27 26.4635 148.283 26.7835 149.127 26.6068C149.927 26.4468 150.617 25.9668 151.247 25.4668" stroke="#373433" stroke-miterlimit="10" stroke-linecap="round"/>
<path d="M272.686 162.664C273.473 160.224 274.63 157.794 274.806 155.217C274.873 154.357 274.953 153.417 274.576 152.62C274.08 151.514 272.633 151.03 271.8 150.134C270.853 149.197 270.633 147.867 270.78 146.574C271.14 143.634 272.473 141.85 270.8 138.977C270.49 138.237 270.35 137.437 270.31 136.637C270.246 134.767 270.2 132.864 270.14 130.974" stroke="#373433" stroke-miterlimit="10" stroke-linecap="round"/>
<path d="M257.2 146.59C258.787 145.78 260.81 144.537 260.904 142.573C260.827 141.423 259.477 140.783 259.417 139.613C259.27 138.483 260.374 137.77 260.58 136.73C260.79 135.913 260.44 134.91 260.59 134.063C260.727 133.26 261.184 132.553 261.664 131.91" stroke="#373433" stroke-miterlimit="10" stroke-linecap="round"/>
<path d="M254.18 132.71C250.394 134.61 245.597 137.41 245.707 140.91C246.094 142.927 249.55 143.657 249.897 145.707C250.457 147.663 247.854 149.25 247.517 151.15C247.137 152.657 248.174 154.327 247.954 155.87C247.757 157.333 246.744 158.717 245.667 160" stroke="#373433" stroke-miterlimit="10" stroke-linecap="round"/>
</g>
<defs>
<clipPath id="clip0_259_1665">
<rect width="284" height="248" fill="white"/>
</clipPath>
</defs>
</svg>
