<?xml version="1.0" encoding="utf-8"?>
<!-- Generator: Adobe Illustrator 28.2.0, SVG Export Plug-In . SVG Version: 6.00 Build 0)  -->
<svg version="1.1" id="레이어_1" xmlns="http://www.w3.org/2000/svg" xmlns:xlink="http://www.w3.org/1999/xlink" x="0px"
	 y="0px" viewBox="0 0 284 248" style="enable-background:new 0 0 284 248;" xml:space="preserve">
<style type="text/css">
	.st0{clip-path:url(#SVGID_00000064355304222514291260000008258851921752978101_);}
	.st1{fill:none;stroke:#373433;stroke-width:3;stroke-linecap:round;stroke-miterlimit:10;}
	.st2{fill:#D54400;stroke:#A53002;stroke-width:2;stroke-miterlimit:10;}
	.st3{fill:#019C65;stroke:#017247;stroke-width:2;stroke-miterlimit:10;}
	.st4{fill:#D8BF79;}
	.st5{fill:#D54400;}
	.st6{fill:#F5BF00;}
	.st7{fill:#373433;}
	.st8{fill:none;stroke:#373433;stroke-linecap:round;stroke-miterlimit:10;}
	.st9{fill:#76A9B7;}
	.st10{fill:#04679E;}
	.st11{fill:none;stroke:#04679E;stroke-width:0.3333;stroke-linecap:round;stroke-miterlimit:10;}
	.st12{fill:none;stroke:#373433;stroke-width:2;stroke-linecap:round;stroke-miterlimit:10;}
	.st13{fill:#9ADEFC;}
	.st14{fill:#FFFFFF;filter:url(#Adobe_OpacityMaskFilter);}
	.st15{mask:url(#mask0_226_2525_00000054267831812035707850000015427531530983626647_);}
	.st16{fill:#D9D9D9;}
	.st17{fill:none;stroke:#5B2F20;stroke-miterlimit:10;}
	.st18{fill:#84452C;stroke:#5B2F20;stroke-miterlimit:10;}
	.st19{fill:none;stroke:#84452C;stroke-width:0.3333;stroke-linecap:round;stroke-miterlimit:10;}
</style>
<g>
	<defs>
		<rect id="SVGID_1_" width="284" height="248"/>
	</defs>
	<clipPath id="SVGID_00000113336289107374011600000003880045480062577804_">
		<use xlink:href="#SVGID_1_"  style="overflow:visible;"/>
	</clipPath>
	<g style="clip-path:url(#SVGID_00000113336289107374011600000003880045480062577804_);">
		<path class="st1" d="M63.5,97.2l6-2.1"/>
		<path class="st1" d="M62.8,96.5c-0.1-1.8-0.2-3.6-0.3-5.5"/>
		<path class="st1" d="M62.2,97.9c-1.8-1.4-3.5-2.9-4.9-4.7"/>
		<path class="st1" d="M138,178.4c25.4,5.1,50,5.4,72.6,0.8"/>
		<path class="st1" d="M211.5,178.3c0.3-2.1,0.6-4.2,0.9-6.3"/>
		<path class="st1" d="M212.3,178.8c1.8-0.3,3.6-0.5,5.4-0.8"/>
		<path class="st1" d="M211.1,179.6c1.7,1.5,3.6,2.8,5.5,3.9"/>
		<path class="st1" d="M77.7,169.3c-10-23.9-15-48-14.9-71.1"/>
		<path class="st2" d="M99.1,68.7c-6.4,5.5-9.9,13.8-11.5,22.1c-1.6,8.3-1.4,16.8-1.8,25.3c-0.7,17.7-3.5,35.5-10.6,51.7
			s-19,30.7-34.7,38.8c-5.1,2.6-10.5,4.6-15.2,7.9c-4.7,3.2-8.7,8.1-9.1,13.8c-0.4,6,3.4,11.8,8.5,15.1c5.1,3.3,11.2,4.5,17.3,5
			c28.8,2.7,58.1-7.7,80.8-25.8s38.9-43.3,49.1-70.4c4.4-11.9,7.8-24.3,8-37s-2.8-25.7-10.2-36c-12.3-17.2-36.2-21.6-56-17.3
			C108.3,62.9,103.2,65.1,99.1,68.7L99.1,68.7z"/>
		<path class="st3" d="M133,56.8c5.4,0.6,11.2,2.4,16.6,4.9c7.1,3.3,13.7,7.8,17.5,12.8c0.8,1.1,1.5,2.3,1.2,3.1
			c-0.3,0.8-1.3,1.2-2.6,1.3c-1.2,0.1-2.7-0.1-4.1-0.4c-12.6-2.3-25.9-7.3-37.5-13.9c-1.2-0.7-2.5-1.5-3.4-2.4c-1.8-2-0.1-3.2,1.4-4
			c1.7-0.9,3.9-1.4,6.4-1.5C130,56.6,131.5,56.7,133,56.8L133,56.8L133,56.8z"/>
		<path class="st3" d="M155,35.4c1-1.2,2.1-2.4,3.6-3.2c1.5-0.8,3.4-1.3,5.3-0.9c1.8,0.3,3.4,1.3,4.7,2.4c1.3,1.1,2.4,2.5,3.4,3.8
			c1,1.3,2,2.7,2,4.1c0,1.5-1.1,2.6-2.5,3.3c-1.4,0.7-3.1,1.1-4.6,1.6c-3.9,1.4-6.9,4.1-9.1,7.1c-2.2,3-3.7,6.4-5.1,9.8
			c-0.6,1.5-1.5,3.1-3.5,3.2c-1.5,0.1-3-0.8-4-1.9c-3-3.7-1.6-8.2-0.6-11.6c1.2-4.2,3.2-8.1,5.6-11.8
			C151.9,39.3,153.4,37.3,155,35.4L155,35.4L155,35.4z"/>
		<path class="st4" d="M-16.2,163.5l344.3,68.3l2,51.3l-349,13L-16.2,163.5z"/>
		<path class="st5" d="M218.7,94.7c1.4-1.2,0.6-3.2-0.4-4.6c-1.3-1.9-3.3-3.8-1.9-6.3c0.4-0.7,0.9-1.3,1.6-1.7
			c2.6-1.9,6.1-2.1,8.9-3.6c1.7-0.9,3.1-2.6,3-4.3c0-0.2,0.3-0.3,0.4-0.1c0.8,1.5,0.5,3.4-0.1,5c-0.6,2-1.4,4.1-0.4,6
			c0.9,1.7,2.9,2.6,4.3,4c1.5,1.6,2.1,3.8,1.6,5.8c-0.3,1.1-1,2.2-0.8,3.4c0.1,0.5,0.3,0.9,0.7,1.2c1.3,0.9,2.9-0.1,3.3-1.3
			c0.4-1,0.1-2.1,0.1-3.2c0-0.9,0.2-1.9,0.8-2.6c0.1-0.1,0.3,0,0.3,0.1c-0.2,0.9,0.2,2,0.8,2.8c0.7,1,1.6,1.8,2.2,2.9
			c1.2,2.1,0.9,4.9-0.9,6.7c-1.1,1.1-2.7,2-2.9,3.5c-0.2,1.4,0.9,2.6,1.4,3.9c0.8,2.2-0.5,4.7-2.6,6.1c-2.1,1.4-4.8,2-7.5,2.2
			c-5.3,0.4-10.8-0.6-15-3.4c-4.2-2.8-6.7-7.7-5.6-12.2C211.1,100.8,214.9,97.5,218.7,94.7z"/>
		<path class="st6" d="M221.9,101.7c0.8-0.8,0.4-2.1-0.2-3.1c-0.8-1.3-2-2.5-1.2-4.1c0.2-0.4,0.6-0.8,1-1.1c1.6-1.3,3.8-1.4,5.5-2.4
			c1.1-0.6,1.9-1.7,1.9-2.8c0-0.1,0.2-0.2,0.3-0.1c0.5,1,0.3,2.2,0,3.3c-0.4,1.3-0.9,2.7-0.3,4c0.5,1.1,1.8,1.7,2.6,2.6
			c0.9,1,1.3,2.5,1,3.8c-0.2,0.7-0.6,1.4-0.5,2.2c0.1,0.3,0.2,0.6,0.5,0.8c0.8,0.6,1.8-0.1,2.1-0.9c0.2-0.7,0.1-1.4,0.1-2.1
			c0-0.6,0.1-1.3,0.5-1.7c0.1-0.1,0.2,0,0.2,0.1c-0.1,0.6,0.1,1.3,0.5,1.9c0.4,0.7,1,1.2,1.3,1.9c0.8,1.4,0.5,3.2-0.5,4.4
			c-0.7,0.7-1.6,1.3-1.8,2.3c-0.1,0.9,0.6,1.7,0.9,2.6c0.5,1.5-0.3,3.1-1.6,4.1c-1.3,0.9-3,1.3-4.6,1.4c-3.3,0.3-6.7-0.4-9.3-2.3
			c-2.6-1.9-4.2-5.1-3.5-8.1C217.2,105.7,219.6,103.5,221.9,101.7"/>
		<path class="st7" d="M219.2,99.7c0,1.5,1.4,2.8,0.2,2.8c-1.2,0-2.2-1.2-2.2-2.6c0-1.4,1-2.6,2.2-2.6
			C220.6,97.3,219.2,98.2,219.2,99.7L219.2,99.7z"/>
		<path class="st7" d="M223.2,99.7c0,1.5,1.4,2.8,0.2,2.8c-1.2,0-2.2-1.2-2.2-2.6c0-1.4,1-2.6,2.2-2.6
			C224.7,97.3,223.2,98.2,223.2,99.7L223.2,99.7z"/>
		<path class="st8" d="M219.2,105.8h7.3"/>
		<path class="st9" d="M29.4,211.7c0-0.1,0-0.2,0-0.3c0-0.1,0.1-0.1,0.1-0.2c0-0.2,0-0.4,0-0.6c0-0.1,0-0.1,0-0.2c0-0.2,0-0.3,0-0.5
			c0-0.1,0-0.1,0-0.2c0,0,0-0.1,0-0.1c0-0.1,0-0.2,0-0.3c0-0.1,0-0.3,0-0.4c0-0.3,0-0.6,0-0.9c0-0.1,0-0.2,0-0.4c0-0.1,0-0.2,0-0.3
			c0,0,0-0.1,0-0.1c0-0.1,0-0.2,0-0.2c0-0.2,0-0.2,0-0.4c0-0.1,0-0.2,0-0.3c0-0.1,0.1-0.3,0.1-0.4c0.1-0.2,0.1-0.4,0.2-0.5
			c0.1-0.2,0.1-0.4,0.1-0.6c0.1-0.1,0.1-0.3,0.1-0.5c0-0.2,0.1-0.4,0.1-0.5c0-0.1,0-0.1,0-0.1c0-0.1,0-0.1,0.1-0.2
			c0-0.2,0-0.3,0-0.5c0-0.2,0.1-0.5,0-0.7c0-0.2,0-0.4-0.1-0.6c0-0.1-0.1-0.1-0.1-0.2c0-0.1-0.1-0.2-0.1-0.3c0-0.1-0.1-0.2-0.1-0.3
			c0-0.1,0-0.1,0-0.2c0-0.1-0.1-0.1,0-0.2c0,0,0-0.1,0.1-0.1c0-0.1,0-0.2,0.1-0.3c0-0.2-0.1-0.5,0.1-0.6c0.2-0.1,0.7,0,1,0
			c0.1,0,0.2-0.1,0.4,0c0.2,0,0.3,0,0.4,0c0.2,0.1,0.5,0.1,0.7,0.2c0.2,0.1,0.3,0.2,0.5,0.2c0.1,0,0.1,0,0.2,0
			c0.1,0,0.2,0.1,0.3,0.1c0.2,0.1,0.3,0,0.5,0c0.2,0,0.3,0,0.5,0c0.2,0,0.4,0,0.6-0.1c0.2,0,0.5,0,0.7-0.1c0.1,0,0.3,0,0.4-0.1
			c0.1,0,0.2,0,0.3,0c0.1,0,0.1-0.1,0.2-0.1c0.1,0,0.1,0,0.2,0c0.1,0,0.1-0.1,0.2-0.1c0.1,0,0.1,0,0.2-0.1c0.1,0,0.2-0.1,0.3-0.1
			c0.2-0.1,0.4-0.1,0.5-0.3c0.2-0.1,0.4-0.2,0.6-0.4c0.4-0.3,0.8-0.6,1.2-0.9c0.1-0.1,0.3-0.3,0.4-0.4c0.1-0.2,0.3-0.4,0.4-0.6
			l0.7-0.9c0.1-0.2,0.3-0.3,0.4-0.5c0.1-0.2,0.3-0.3,0.4-0.5c0.2-0.2,0.4-0.5,0.5-0.7c0-0.1,0.1-0.2,0.1-0.3
			c0.1-0.1,0.1-0.2,0.2-0.3c0.1-0.2,0-0.4,0.1-0.5c0-0.1,0.1-0.2,0.1-0.3c0-0.1,0-0.1,0-0.2c0-0.1,0-0.2,0-0.3
			c0-0.2,0.2-0.4,0.2-0.7c0-0.1,0-0.2,0-0.3c0-0.1,0.1-0.2,0.1-0.3c0-0.1,0-0.2,0.1-0.3c0-0.1,0-0.2,0-0.3c0-0.1,0-0.2,0.1-0.3
			c0-0.1,0-0.3,0-0.4c0-0.2-0.1-0.5-0.2-0.7c0-0.1-0.1-0.2-0.1-0.3c0-0.1-0.1-0.1,0-0.2c0-0.1,0.2-0.3,0.3-0.4
			c0-0.1,0.1-0.1,0.1-0.2c0.1-0.1,0.2-0.3,0.4-0.4c0.1-0.1,0.1-0.1,0.2-0.2c0.1-0.1,0.2-0.2,0.3-0.3c0.2-0.1,0.4-0.3,0.5-0.4
			c0.1-0.2,0.3-0.3,0.4-0.4c0-0.1,0.1-0.2,0-0.3c-0.1-0.1-0.3-0.3-0.4-0.5c0-0.1,0-0.1-0.1-0.2c-0.1-0.1-0.1-0.1-0.1-0.2
			c0-0.1-0.1-0.2-0.2-0.2c0-0.1-0.1-0.1-0.1-0.2c-0.1-0.1-0.1-0.1-0.2-0.2c-0.1-0.2-0.2-0.4-0.3-0.6c-0.1-0.1-0.2-0.2-0.2-0.2
			c-0.1-0.1-0.2-0.2-0.3-0.3c-0.1-0.1-0.2-0.2-0.2-0.3c-0.1-0.1-0.2-0.2-0.2-0.2c-0.5-0.5-0.9-1-1.4-1.6c-0.3-0.4-0.9-0.4-1.3,0
			c-0.1,0.1-0.2,0.2-0.3,0.3c0,0.1-0.1,0.1-0.1,0.1c0,0-0.1,0.1-0.1,0.1c0,0-0.1,0-0.1,0.1c0,0-0.1,0.1-0.1,0.2c0,0.1-0.1,0-0.1,0.1
			c0,0-0.1,0.1-0.1,0.1c-0.1,0.1-0.2,0.2-0.3,0.3c-0.1,0.2-0.3,0.4-0.5,0.5c-0.1,0-0.2,0.1-0.3,0.1c0,0-0.1,0-0.1,0
			c-0.1,0-0.1,0-0.2,0.1c-0.1,0-0.2,0-0.3,0c0,0-0.1,0.1-0.1,0.1c0,0-0.1,0-0.2,0c-0.1,0-0.2,0.1-0.3,0.1c0,0-0.1,0.1-0.2,0.1
			c-0.1,0-0.1,0-0.2,0c-0.1,0-0.1,0-0.1,0.1c-0.1,0-0.2,0-0.2,0c-0.1,0-0.1,0-0.2,0c-0.1,0-0.1,0-0.2,0c-0.1,0-0.1,0.1-0.2,0.1
			c-0.1,0-0.1,0-0.1,0c-0.1,0-0.3,0.1-0.4,0c0,0.1-0.2,0-0.2,0c-0.1,0-0.2,0-0.3,0c-0.1,0-0.2,0-0.3,0c-0.1,0-0.2,0-0.3,0
			c-0.1,0-0.1,0-0.2,0c0,0-0.1,0-0.1,0c-0.1,0-0.1,0-0.2,0c-0.1,0-0.2,0-0.3,0c-0.1,0-0.1,0-0.2,0c-0.1,0-0.2,0-0.2,0
			c0,0-0.1,0-0.1,0c-0.1,0-0.1,0-0.2,0.1c-0.1,0-0.1,0-0.2,0c-0.1,0-0.1,0-0.2,0c-0.1,0-0.3,0-0.4,0.1c-0.1,0-0.1,0-0.2,0
			c0,0-0.1,0-0.1,0c0,0-0.1,0-0.1,0.1c-0.1,0-0.1,0-0.2,0.1c-0.1,0-0.2,0.1-0.2,0.1c-0.1,0-0.1,0-0.2,0.1c-0.1,0-0.2,0.1-0.3,0.2
			c-0.1,0-0.2,0.1-0.3,0.1c-0.1,0-0.2,0.1-0.3,0.2c-0.2,0.1-0.4,0.1-0.5,0.3c-0.1,0.1-0.1,0.1-0.2,0.1c-0.1,0-0.1,0.1-0.2,0.1
			c-0.1,0-0.2,0.1-0.2,0.2c-0.1,0.1-0.2,0.1-0.2,0.2c-0.1,0.1-0.3,0.2-0.4,0.3c-0.1,0.1-0.2,0.2-0.3,0.2c-0.1,0.1-0.3,0.2-0.5,0.3
			c-0.1,0.1-0.1,0.2-0.2,0.2c-0.1,0.1-0.2,0.1-0.3,0.2c-0.1,0.1-0.1,0.1-0.2,0.2c-0.1,0.1-0.2,0.1-0.2,0.2c-0.3,0.4-0.6,0.8-0.9,1.2
			c-0.1,0.1-0.1,0.1-0.2,0.2c-0.1,0.1-0.1,0.2-0.1,0.3c0,0.1-0.1,0.4-0.1,0.5c-0.1,0.2-0.1,0.4-0.1,0.6c0,0.1,0,0.3,0,0.4
			c0,0.1,0,0.2,0,0.3c0,0.2,0,0.4,0,0.6c0,0,0,0.1,0,0.1c0,0,0,0.1,0,0.1c0,0,0,0.1,0,0.1c0,0.1,0,0.2,0,0.3c0,0.4,0,0.7,0,1.1
			c0,0.1,0,0.1,0,0.2c0,0,0,0,0,0.1c0,0,0,0,0,0c0,0,0,0,0,0.1c0,0,0,0,0,0.1c0,0,0,0.1,0,0.1c0,0.1,0,0.2,0,0.3
			c0,0.1,0,0.2,0.1,0.3c-0.1,0.1-0.3,0-0.4,0c-0.1,0-0.1,0-0.2,0.1c-0.1,0-0.1,0-0.1,0.1c-0.1,0.1-0.1,0.1-0.2,0.1
			c-0.1,0.1-0.1,0.1-0.2,0.2c-0.1,0.1-0.2,0.2-0.3,0.4c-0.1,0.1-0.1,0.3-0.1,0.4c0,0.1,0,0.1,0.1,0.2c0,0.1,0,0.2,0.1,0.2
			c0,0.1,0,0.1,0.1,0.2c0,0,0.1,0.1,0.1,0.1c0,0,0,0.1,0,0.1c0,0.1,0.1,0.1,0.1,0.2c0,0.1,0,0.1,0.1,0.2c0,0-0.2,0-0.2,0.1
			c-0.1,0-0.2,0-0.3,0c-0.1,0-0.1,0-0.1,0.1c-0.1,0-0.1,0-0.2,0c-0.1,0-0.1,0-0.2,0.1c-0.1,0-0.2,0-0.2,0c0,0,0,0.1-0.1,0.1
			c0,0-0.1,0-0.1,0c-0.1,0-0.2,0.1-0.3,0.1c0,0-0.1,0-0.2,0c-0.1,0-0.1,0-0.1,0c0,0-0.1,0-0.1,0c-0.1,0-0.1,0.1-0.1,0.1
			c-0.1,0-0.2,0.1-0.3,0.1c-0.1,0-0.1,0-0.2,0.1c-0.1,0-0.1,0.1-0.2,0.1c-0.2,0.2-0.5,0.2-0.6,0.4c-0.1,0.1-0.1,0.1-0.2,0.1
			c-0.1,0.1-0.1,0.1-0.2,0.2c-0.1,0.1-0.1,0.2-0.2,0.2c-0.1,0.1-0.1,0.1-0.2,0.2c-0.1,0.1-0.1,0.1-0.2,0.2c-0.1,0.1-0.1,0.2-0.2,0.3
			c-0.1,0.1-0.3,0.2-0.4,0.3c-0.1,0-0.1,0.1-0.2,0.1c-0.1,0-0.2,0-0.3,0.1c0,0-0.1,0-0.2,0c0,0-0.1,0.1-0.1,0.1
			c-0.1,0-0.2,0-0.3,0.1c-0.1,0-0.1,0.1-0.2,0.1c-0.1,0-0.1,0.1-0.2,0.1c-0.1,0-0.1,0-0.2,0.1c-0.1,0.1-0.2,0.2-0.4,0.2
			c-0.1,0-0.1,0.1-0.2,0.1c-0.1,0-0.1,0-0.2,0.1c0,0-0.1,0.1-0.1,0.1c0,0-0.1,0-0.1,0c-0.1,0-0.1,0.1-0.1,0.1c0,0-0.1,0-0.2,0
			c-0.1,0-0.1,0.1-0.2,0.1c0,0-0.1,0-0.1,0c0,0-0.1,0.1-0.1,0.1c-0.2,0.2-0.4,0.4-0.5,0.6c-0.1,0.2-0.3,0.3-0.4,0.5
			c-0.1,0.2-0.3,0.3-0.5,0.4c-0.1,0.1-0.1,0.1-0.2,0.2c-0.1,0-0.2,0.1-0.3,0.1c0,0-0.1,0-0.1,0c-0.1,0-0.1,0.1-0.1,0.1
			c0,0-0.1,0-0.1,0.1c-0.1,0-0.1,0.1-0.1,0.1c-0.1,0-0.2,0.1-0.2,0.1c-0.1,0-0.1,0.1-0.2,0.2c-0.2,0.1-0.4,0.2-0.5,0.4
			c-0.1,0.1-0.1,0.1-0.1,0.2c-0.1,0.1-0.1,0.1-0.2,0.2c-0.1,0.1-0.3,0.3-0.4,0.4c-0.1,0.1-0.3,0.3-0.5,0.4c-0.1,0.1-0.1,0.2-0.2,0.3
			c-0.1,0.1-0.2,0.1-0.2,0.2c-0.1,0.1-0.1,0.1-0.2,0.2c-0.1,0.1-0.1,0.1-0.2,0.2c-0.1,0.1-0.1,0.2-0.2,0.3c-0.1,0.1-0.2,0.2-0.3,0.3
			c-0.1,0.2-0.2,0.3-0.4,0.5c-0.2,0.2-0.4,0.5-0.6,0.7c-0.1,0.1-0.1,0.2-0.2,0.3c-0.1,0.1-0.2,0.3-0.3,0.5c-0.1,0.1-0.2,0.4-0.3,0.5
			c-0.1,0.1-0.1,0.3-0.2,0.4c-0.1,0.3-0.3,0.5-0.4,0.7c-0.1,0.1-0.2,0.3-0.3,0.4c0,0.1-0.1,0.1-0.1,0.2c0,0.1,0,0.1-0.1,0.2
			c0,0.1-0.1,0.1-0.1,0.2c0,0.1-0.1,0.1-0.1,0.2c-0.1,0.1-0.1,0.3-0.2,0.4c-0.2,0.2-0.3,0.5-0.4,0.8c-0.1,0.3-0.2,0.6-0.3,0.8
			c-0.1,0.2-0.1,0.5-0.1,0.7c0,0.1,0,0.1,0,0.2c0,0.1,0.1,0.2,0.1,0.3c0,0.1,0.1,0.2,0.1,0.3c0,0.1,0.1,0.2,0.2,0.3
			c0.1,0.1,0.1,0.2,0.2,0.3c0.1,0.1,0.2,0.1,0.2,0.2c0.1,0.2,0.4,0.3,0.5,0.4c0.1,0.1,0.2,0.1,0.2,0.1c0,0,0.1,0,0.1,0
			c0,0,0.1,0,0.1,0c0,0,0.1,0.1,0.1,0.1c0.1,0,0.1,0,0.2,0c0.1,0,0.2,0.1,0.3,0c0,0.1-0.1,0.2-0.1,0.3c0,0.1,0,0.1,0,0.2
			c0,0.1,0,0.1,0.1,0.2c0,0.1,0,0.1,0.1,0.2c0,0.1,0.1,0.1,0.1,0.1c0.1,0.2,0.1,0.2,0.2,0.3c0.1,0.1,0.2,0.3,0.3,0.4
			c0.1,0.1,0.2,0.2,0.3,0.3c0.1,0.1,0.2,0.2,0.4,0.4c0.1,0.1,0.2,0.2,0.3,0.2c0.3,0.2,0.5,0.4,0.9,0.5c0.1,0,0.2,0,0.2,0.1
			c0.1,0,0.2,0,0.2,0c0.1,0,0.1,0,0.2,0c0.1,0,0.2,0,0.3-0.1c0.1,0,0.2,0,0.3,0c0.1,0,0.2-0.1,0.3-0.1c0,0,0.2-0.1,0.2-0.1
			c-0.1,0.1,0,0.3,0,0.4c0,0.2,0.1,0.4,0.2,0.6c0.1,0.1,0.1,0.2,0.2,0.3c0.1,0.1,0.1,0.3,0.2,0.4c0.1,0.1,0.1,0.1,0.2,0.2
			c0.1,0.1,0.1,0.1,0.1,0.2c0.1,0.1,0.2,0.3,0.3,0.4c0.3,0.2,0.5,0.5,0.8,0.7c0.2,0.1,0.4,0.3,0.5,0.4c0.1,0,0.1,0.1,0.2,0.1
			c0.1,0,0.3,0.1,0.4,0.2c0.1,0,0.2,0.1,0.3,0.1c0.1,0,0.2,0,0.3,0c0.1,0,0.1,0,0.2,0c0.1,0,0.1,0,0.2,0c0.1,0,0.2-0.1,0.3-0.1
			c0.1,0,0.1,0,0.1,0c0.1,0,0.1-0.1,0.2-0.1c0.1,0,0.1,0,0.2-0.1c0.1,0,0.1-0.1,0.2-0.1c0.1,0,0.1-0.1,0.2-0.1
			c0.1-0.1,0.2-0.1,0.3-0.1c0.4-0.3,0.8-0.7,1.3-0.9c0.3-0.1,0.5-0.3,0.8-0.5c0.2-0.1,0.3-0.2,0.5-0.3c0.2-0.1,0.4-0.3,0.6-0.5
			c0.3-0.3,0.6-0.6,0.9-0.9c0.2-0.1,0.3-0.3,0.5-0.5c0.1-0.1,0.3-0.3,0.4-0.4c0.3-0.2,0.5-0.5,0.8-0.8c0.3-0.3,0.5-0.6,0.8-0.9
			c0.2-0.2,0.4-0.4,0.6-0.6c0.1-0.1,0.2-0.2,0.3-0.3c0.1-0.1,0.2-0.2,0.3-0.3c0.2-0.2,0.4-0.3,0.5-0.6c0.2-0.2,0.4-0.5,0.6-0.7
			c0.2-0.3,0.5-0.5,0.7-0.7c0-0.1,0.1-0.2,0.2-0.2c0.1,0,0.1,0,0.1-0.1c0.1-0.1,0.3-0.2,0.4-0.4C29.3,212.2,29.4,211.9,29.4,211.7
			L29.4,211.7z"/>
		<path class="st9" d="M37.2,192.3c-0.2-0.1-0.5,0-0.7,0.1c-0.1,0-0.2,0-0.2,0c-0.1,0-0.2,0.1-0.4,0.1c-0.2,0-0.4,0.1-0.6,0.1
			c-0.1,0-0.2,0-0.3,0.1c-0.1,0-0.2,0-0.3,0.1c-0.2,0.1-0.5,0.1-0.7,0.2c-0.4,0-0.7,0.2-1.1,0.2c-0.2,0-0.3,0.1-0.5,0.1
			c-0.1,0-0.2,0.1-0.4,0.2c-0.2,0.1-0.3,0.1-0.5,0.2c-0.1,0-0.2,0-0.2,0.1c-0.1,0-0.1,0.1-0.2,0.1c-0.1,0-0.1,0-0.1,0
			c0,0-0.1,0-0.1,0c-0.1,0-0.2,0-0.3,0c-0.1,0-0.2,0-0.3,0c0,0,0,0-0.1,0c0,0,0,0-0.1,0c-0.1,0-0.1,0-0.2,0c-0.2,0-0.3,0-0.5,0
			c-0.1,0-0.2-0.1-0.3,0c-0.1,0-0.1,0.1-0.2,0c-0.1,0-0.1,0-0.2-0.1"/>
		<path class="st9" d="M33,189.3c0,0-0.1,0.1-0.2,0.1c-0.1,0.1-0.2,0.1-0.3,0.2c-0.2,0.1-0.5,0.2-0.6,0.4c-0.1,0.1-0.3,0.1-0.4,0.2
			c-0.1,0.1-0.2,0.2-0.3,0.2c-0.2,0.2-0.4,0.3-0.6,0.5c-0.2,0.2-0.4,0.4-0.7,0.5c-0.1,0.1-0.2,0.1-0.3,0.2c-0.1,0.1-0.1,0.2-0.2,0.2
			c-0.1,0.1-0.1,0.1-0.2,0.1c-0.1,0.1-0.1,0.1-0.2,0.1c-0.1,0.1-0.1,0.1-0.2,0.2c0,0.1-0.1,0.1-0.2,0.1"/>
		<path class="st9" d="M26.2,197.4c-0.1,0.1-0.1,0.2-0.2,0.4c0,0.2,0,0.4-0.1,0.5c0,0.1,0,0.2,0,0.3c0,0.1,0,0.2,0,0.3
			c0,0.1,0,0.2,0.1,0.3c0,0.1,0.1,0.2,0.1,0.3c0,0.1,0,0.1,0,0.2c0,0,0.1,0.1,0.1,0.1c0,0,0,0.1,0,0.1c0,0.1,0.1,0.2,0.1,0.3
			c0,0.1,0.1,0.2,0.1,0.2c0.1,0.1,0.1,0.2,0.2,0.3c0.1,0.1,0.1,0.1,0.1,0.2c0,0.1,0.1,0.1,0.1,0.2c0.1,0.1,0,0.2,0.1,0.2"/>
		<path class="st9" d="M28.4,198.9c0.1,0,0,0.1,0.1,0.2c0,0.1,0.1,0.1,0.1,0.2c0,0.1,0,0.1,0,0.2c0,0.2,0,0.4,0,0.5
			c0,0.2,0,0.5,0,0.7c0.1,0.2,0.1,0.3,0.1,0.5c0,0.1,0,0.2-0.1,0.2c0,0-0.1,0.1-0.1,0.1c0,0-0.1,0-0.2,0.1c-0.1,0.1-0.2,0.2-0.4,0.2
			c-0.1,0.1-0.2,0.2-0.3,0.3c-0.3,0.3-0.5,0.6-0.7,1c0,0.1-0.1,0.1-0.1,0.2c-0.1,0.1-0.1,0.2-0.1,0.4c-0.1,0.1-0.1,0.3-0.1,0.5
			c0,0.1-0.1,0.2-0.1,0.3c0,0.2,0,0.3-0.1,0.5c-0.1,0.2,0,0.3,0,0.4c0,0.1,0,0.2,0,0.3c0,0.1,0.1,0.2,0.1,0.4
			c0.1,0.3,0.2,0.6,0.4,0.8c0.1,0.1,0.2,0.2,0.2,0.3c0,0.1,0.1,0.1,0.1,0.2"/>
		<path class="st9" d="M26.2,195.2c0,0.1,0,0.1-0.1,0.2c0,0.2,0.1,0.4,0.1,0.5c0.1,0.1,0.1,0.2,0.1,0.3c0.1,0.1,0.1,0.2,0.2,0.3
			c0.1,0.1,0.2,0.2,0.2,0.3l0,0"/>
		<path class="st9" d="M41.5,181.8c0.1,0,0.1,0.1,0.1,0.2c0.2,0.2,0.4,0.5,0.6,0.7c0.4,0.5,0.8,1.1,1.2,1.6c0.2,0.3,0.5,0.6,0.7,0.8
			c0.1,0.1,0.3,0.3,0.4,0.4"/>
		<path class="st9" d="M41,182.5c0,0,0,0.1,0.1,0.1c0.1,0.1,0.2,0.3,0.3,0.4c0.3,0.5,0.7,0.9,1,1.4c0.3,0.4,0.6,0.8,1,1.2
			c0.1,0.1,0.2,0.2,0.3,0.3"/>
		<path class="st9" d="M40.2,183.1c0.1,0.1,0.1,0.2,0.2,0.3c0.1,0.2,0.3,0.4,0.4,0.6c0.4,0.4,0.7,0.9,1.1,1.3
			c0.4,0.4,0.8,0.9,1.2,1.3c0.1,0.1,0.2,0.2,0.4,0.3c0.1,0.1,0.1,0.1,0.2,0.2"/>
		<path class="st10" d="M41.5,181.2c0.2,0,0.3,0.1,0.4,0.2c0.4,0.5,0.9,1.1,1.4,1.6c0,0,0.1,0.1,0.1,0.1c0,0,0.1,0.1,0.1,0.1
			c0.1,0.1,0.2,0.2,0.3,0.3c0,0,0.1,0.1,0.1,0.2c0,0,0.1,0.1,0.1,0.1c0,0.1,0.1,0.1,0.1,0.1c0,0,0.1,0.1,0.1,0.1
			c0,0.1,0.1,0.1,0.1,0.2c0.1,0.1,0.1,0.2,0.2,0.4c0,0,0.1,0.1,0.1,0.1c0,0,0,0,0.1,0.1c0,0.1,0.1,0.1,0.1,0.2c0,0,0,0.1,0.1,0.1
			c0,0,0.1,0.1,0.1,0.1l0,0c0,0.1,0.1,0.2,0.2,0.3c0,0,0,0,0,0c0.1,0.2,0.2,0.4,0.3,0.5c0,0-0.1,0.1-0.1,0.1
			c-0.1,0.1-0.2,0.2-0.2,0.3c-0.1,0.1-0.2,0.2-0.4,0.4c-0.1,0.1-0.2,0.1-0.2,0.2c0,0,0,0.1-0.1,0.1c-0.1,0.1-0.1,0.1-0.2,0.2
			c0,0.1-0.1,0.1-0.1,0.1c-0.1,0.1-0.2,0.2-0.2,0.3l-0.1,0.1l0,0.1c0,0,0,0.1-0.1,0.1c-0.1,0.1-0.2,0.3-0.3,0.5c0,0.2,0,0.3,0,0.4
			c0,0,0,0,0,0c0,0.1,0.1,0.2,0.1,0.3c0.1,0.1,0.1,0.4,0.1,0.5l0,0.1c0,0.1,0,0.2,0,0.4c0,0,0,0.1,0,0.1c0,0.1,0,0.1,0,0.2
			c0,0,0,0.1,0,0.1c0,0,0,0.1,0,0.1c0,0,0,0.1,0,0.1c0,0.1,0,0.2-0.1,0.3c0,0,0,0.1,0,0.1c0,0.1,0,0.1,0,0.2c0,0.1,0,0.2,0,0.2v0.1
			c0,0.1,0,0.2-0.1,0.3c0,0.1-0.1,0.2-0.1,0.4c0,0.1,0,0.1,0,0.2c0,0,0,0.1,0,0.1c0,0.1,0,0.2,0,0.3v0c0,0,0,0,0,0.1c0,0,0,0,0,0.1
			c-0.1,0.1-0.1,0.3-0.1,0.4c0,0.1,0,0.1,0,0.2c0,0,0,0.1-0.1,0.1c0,0.1-0.1,0.1-0.1,0.2c0,0.1-0.1,0.1-0.1,0.2c0,0,0,0.1-0.1,0.1
			c-0.1,0.2-0.2,0.3-0.3,0.5c-0.1,0.1-0.1,0.1-0.2,0.2c-0.1,0.1-0.1,0.2-0.2,0.2c-0.1,0.1-0.1,0.1-0.2,0.2c-0.1,0.1-0.2,0.2-0.3,0.3
			c0,0.1-0.1,0.1-0.1,0.2l-0.7,0.9l-0.1,0.1c-0.1,0.1-0.2,0.3-0.3,0.4c-0.1,0.1-0.1,0.2-0.2,0.2c0,0-0.1,0.1-0.1,0.1
			c-0.3,0.3-0.6,0.6-1,0.8l-0.1,0.1c-0.1,0.1-0.2,0.1-0.3,0.2c-0.1,0.1-0.2,0.1-0.3,0.2c-0.1,0-0.1,0.1-0.2,0.1
			c-0.1,0-0.2,0.1-0.3,0.1c-0.1,0.1-0.1,0.1-0.2,0.1c0,0,0,0,0,0c0,0-0.1,0-0.2,0.1c0,0-0.1,0-0.1,0.1c0,0,0,0,0,0h0
			c0,0-0.1,0-0.1,0c-0.1,0-0.1,0.1-0.2,0.1c0,0,0,0,0,0h-0.1c0,0-0.1,0-0.2,0c-0.1,0-0.1,0-0.2,0c-0.1,0-0.2,0-0.3,0
			c-0.1,0-0.3,0-0.4,0.1c-0.1,0-0.2,0-0.2,0c-0.1,0-0.2,0-0.3,0c-0.1,0-0.2,0-0.3,0h0c-0.1,0-0.2,0-0.2,0c-0.1,0-0.1,0-0.2,0h-0.1
			c0,0-0.1,0-0.1,0c0,0-0.1,0-0.1,0c0,0-0.1,0-0.1,0c0,0,0,0-0.1,0c-0.1,0-0.2-0.1-0.3-0.1c0,0-0.1,0-0.1,0c0,0-0.1,0-0.1,0
			c-0.1,0-0.2-0.1-0.3-0.1c0,0-0.1-0.1-0.2-0.1c-0.2-0.1-0.5-0.2-0.7-0.2c-0.1,0-0.2,0-0.2,0h-0.1c0,0-0.1,0-0.1,0c0,0-0.1,0-0.1,0
			c-0.1,0-0.1,0-0.2,0c0,0-0.1,0-0.1,0c-0.1,0-0.2,0-0.3,0c-0.2,0-0.3,0-0.5,0c-0.1,0-0.2,0-0.3,0c-0.4,0.1-0.4,0.5-0.3,0.7
			c0,0,0,0.1,0,0.1c0,0.1,0,0.1,0,0.2c0,0,0,0.1,0,0.1c0,0,0,0,0,0c0,0,0,0.1-0.1,0.1c0,0.1,0,0.3,0,0.3v0.1c0,0,0,0.1,0,0.1
			c0,0.2,0,0.3,0.1,0.4l0,0c0,0,0,0.1,0,0.1c0,0.1,0,0.2,0.1,0.2c0,0.1,0.1,0.1,0.1,0.2c0,0,0,0,0,0c0,0.1,0,0.2,0,0.3
			c0,0.1,0,0.2,0,0.2c0,0.1,0,0.2,0,0.4c0,0.1,0,0.2,0,0.2c0,0.1,0,0.2,0,0.2c0,0.1,0,0.2,0,0.2c0,0,0,0,0,0c0,0,0,0.1,0,0.1
			c0,0.1,0,0.1,0,0.2c0,0.1,0,0.1,0,0.2c0,0.1,0,0.2-0.1,0.3c0,0.2,0,0.2-0.1,0.4c-0.1,0.1-0.1,0.3-0.1,0.4c0,0.1,0,0.2,0,0.2
			c-0.1,0.2-0.1,0.3-0.1,0.4c0,0,0,0.1,0,0.1c0,0,0,0.1,0,0.1c0,0.1-0.1,0.2-0.1,0.3c0,0,0,0.1,0,0.1c0,0.1,0,0.1,0,0.1
			c-0.1,0.2-0.1,0.3-0.1,0.5c0,0,0,0,0,0c0,0,0,0.1,0,0.2c0,0.1,0,0.1,0,0.2v0c0,0,0,0.1,0,0.1c0,0.1,0,0.1,0,0.2c0,0.1,0,0.2,0,0.2
			c0,0,0,0.1,0,0.1c0,0.1,0,0.2,0,0.4c0,0.2,0,0.3,0,0.5c0,0.1,0,0.1,0,0.2c0,0.1,0,0.1,0,0.2c0,0,0,0,0,0.1c0,0.1,0,0.2,0,0.3
			c0,0,0,0.1,0,0.1c0,0,0,0,0,0.1c0,0.1,0,0.2,0,0.3c0,0.1,0,0.1,0,0.2l0,0.1c0,0.1,0,0.1,0,0.2c0,0.2,0,0.4,0,0.6v0c0,0,0,0,0,0
			c0,0,0,0.1-0.1,0.1c0,0.1,0,0.2-0.1,0.3c0,0,0,0.1,0,0.1c0,0.4-0.1,0.5-0.1,0.5c0,0-0.1,0.1-0.1,0.1c-0.1,0.1-0.2,0.1-0.3,0.3
			c0,0-0.1,0-0.1,0.1c-0.1,0.1-0.1,0.2-0.2,0.2c0,0,0,0,0,0.1c-0.1,0.1-0.2,0.2-0.3,0.4c-0.1,0.1-0.2,0.2-0.3,0.3
			c-0.1,0.2-0.3,0.3-0.4,0.5c-0.1,0.1-0.1,0.2-0.2,0.2c-0.1,0.1-0.2,0.2-0.3,0.3c-0.1,0.1-0.2,0.1-0.2,0.2c-0.1,0.1-0.1,0.1-0.2,0.2
			c0,0.1-0.1,0.1-0.1,0.1c0,0,0,0-0.1,0.1c-0.1,0.1-0.2,0.1-0.2,0.3c-0.1,0.2-0.3,0.4-0.5,0.6c-0.2,0.2-0.3,0.3-0.5,0.5
			c-0.1,0.1-0.2,0.3-0.4,0.4c-0.1,0.1-0.2,0.2-0.4,0.3c-0.1,0.2-0.3,0.3-0.4,0.4c-0.1,0.1-0.2,0.2-0.3,0.3c0,0.1-0.1,0.1-0.1,0.2
			c0,0-0.1,0.1-0.1,0.1c-0.1,0.1-0.2,0.2-0.3,0.3c-0.3,0.3-0.5,0.5-0.8,0.8l-0.1,0.1c-0.2,0.2-0.4,0.3-0.5,0.4
			c-0.1,0.1-0.1,0.1-0.2,0.2c-0.1,0.1-0.2,0.1-0.2,0.2c-0.1,0.1-0.2,0.1-0.3,0.2c-0.2,0.1-0.3,0.2-0.5,0.3c-0.3,0.2-0.6,0.4-0.9,0.6
			c-0.2,0.1-0.3,0.3-0.5,0.4c0,0-0.1,0-0.1,0.1c-0.1,0-0.1,0.1-0.2,0.1c-0.1,0-0.1,0.1-0.1,0.1c0,0,0,0,0,0c0,0,0,0-0.1,0.1
			c0,0,0,0,0,0c0,0-0.1,0-0.2,0.1c-0.1,0-0.1,0.1-0.1,0.1h-0.1c-0.1,0-0.2,0.1-0.3,0.1c0,0,0,0,0,0h0c0,0-0.1,0-0.1,0
			c-0.1,0-0.1,0-0.2,0c0,0,0,0,0,0c0,0,0,0,0,0c-0.1,0-0.2,0-0.2,0h0c0,0,0,0-0.1,0c0,0,0,0-0.1,0c0,0-0.1,0-0.1,0
			c-0.1,0-0.1,0-0.2-0.1c-0.1,0-0.2-0.1-0.3-0.1c0,0-0.1,0-0.1,0c-0.1-0.1-0.2-0.2-0.3-0.3c-0.1-0.1-0.1-0.1-0.2-0.2
			c-0.2-0.1-0.4-0.3-0.6-0.5c-0.1-0.1-0.1-0.1-0.2-0.2c-0.1-0.1-0.2-0.2-0.3-0.3c0,0,0,0,0-0.1c0-0.1-0.1-0.1-0.1-0.2
			c0,0-0.1-0.1-0.1-0.1c0,0,0,0,0,0c0,0-0.1-0.1-0.1-0.2c0,0-0.1-0.1-0.1-0.1c0-0.1-0.1-0.1-0.1-0.1c0,0-0.1-0.1-0.1-0.1
			c-0.2-0.3-0.2-0.4-0.2-0.4c0-0.1,0-0.2,0-0.2c0,0,0-0.1,0-0.1l0.1-0.3l-0.3-0.1l-0.1,0h-0.1c-0.1,0-0.2,0-0.3,0.1
			c-0.1,0-0.2,0.1-0.2,0.1c0,0-0.1,0-0.1,0h-0.1c-0.1,0-0.2,0-0.3,0c0,0-0.1,0-0.1,0c0,0-0.1,0-0.1,0c0,0-0.1,0-0.2,0
			c-0.1,0-0.1,0-0.1,0c0,0,0,0,0,0l0,0c-0.1,0-0.2,0-0.2,0c-0.2,0-0.4-0.2-0.7-0.4l-0.1-0.1l-0.1-0.1l-0.2-0.2
			c-0.1-0.1-0.2-0.2-0.3-0.3l0,0c-0.1-0.1-0.2-0.2-0.2-0.3c0,0-0.1-0.1-0.1-0.1c-0.1-0.1-0.1-0.2-0.2-0.3c-0.1-0.1-0.1-0.1-0.1-0.2
			c0-0.1-0.1-0.1-0.1-0.2c0,0,0,0,0,0c0,0,0,0,0,0c0,0,0-0.1-0.1-0.1c0,0,0,0,0,0v-0.2c0,0,0,0,0-0.1c0,0,0-0.1,0-0.2l0.1-0.8
			l-0.6,0.4c0,0-0.1,0-0.1,0c0,0-0.1,0-0.1,0c0,0,0,0-0.1,0c-0.1,0-0.1,0-0.2,0h0c0,0,0,0,0,0c0,0,0,0-0.1,0c-0.1,0-0.1,0-0.1-0.1
			c-0.1,0-0.1-0.1-0.2-0.1c-0.1-0.1-0.2-0.2-0.3-0.3c-0.1-0.1-0.1-0.1-0.2-0.2c0,0-0.1,0-0.1-0.1c0,0,0-0.1,0-0.1
			c0-0.1-0.1-0.1-0.1-0.1c0,0-0.1-0.1-0.1-0.1c0,0-0.1-0.1-0.1-0.1c0,0,0-0.1-0.1-0.2c0,0,0-0.1,0-0.1c0,0,0-0.1-0.1-0.1
			c0,0,0-0.1,0-0.1c0,0,0-0.1,0-0.1c0-0.1,0-0.4,0.1-0.5c0.1-0.2,0.2-0.5,0.3-0.8c0-0.1,0-0.1,0.1-0.2c0.1-0.2,0.2-0.4,0.3-0.6
			c0.1-0.1,0.2-0.3,0.2-0.4l0-0.1c0,0,0-0.1,0.1-0.1c0,0,0,0,0,0c0,0,0,0,0,0c0,0,0.1-0.1,0.1-0.2c0-0.1,0-0.1,0.1-0.1c0,0,0,0,0,0
			c0,0,0,0,0-0.1c0,0,0.1-0.1,0.1-0.2c0,0,0.1-0.1,0.1-0.1c0.1-0.1,0.1-0.2,0.2-0.3c0-0.1,0.1-0.2,0.1-0.2c0.1-0.1,0.2-0.3,0.3-0.5
			c0-0.1,0.1-0.2,0.1-0.3l0,0c0.1-0.1,0.2-0.4,0.3-0.5c0.1-0.1,0.1-0.2,0.2-0.3c0-0.1,0.1-0.1,0.1-0.2c0.1-0.1,0.1-0.1,0.1-0.2
			c0-0.1,0.1-0.1,0.1-0.1c0.1-0.2,0.3-0.3,0.4-0.5l0.2-0.2c0-0.1,0.1-0.1,0.1-0.2c0.1-0.1,0.2-0.2,0.2-0.3c0,0,0.1-0.1,0.1-0.1
			c0.1-0.1,0.1-0.1,0.2-0.2c0,0,0.1-0.1,0.1-0.1c0,0,0.1-0.1,0.1-0.1c0,0,0,0,0.1-0.1l0,0c0.1-0.1,0.1-0.1,0.1-0.2c0,0,0,0,0,0
			c0,0,0,0,0.1-0.1c0.1,0,0.1-0.1,0.2-0.2c0,0,0.1-0.1,0.1-0.1c0-0.1,0.1-0.1,0.1-0.1c0.1-0.1,0.1-0.1,0.2-0.2
			c0.1-0.1,0.2-0.1,0.2-0.2c0-0.1,0.1-0.1,0.1-0.2c0.1-0.1,0.1-0.1,0.2-0.2c0,0,0,0,0.1,0c0.1,0,0.1-0.1,0.2-0.1
			c0,0,0.1-0.1,0.1-0.1c0,0,0,0,0-0.1c0.1-0.1,0.1-0.1,0.2-0.1c0.1-0.1,0.2-0.1,0.3-0.2c0,0,0.1-0.1,0.1-0.1c0,0,0.1-0.1,0.1-0.1
			c0,0,0,0,0.1,0c0.1,0,0.1,0,0.1-0.1c0.1,0,0.1-0.1,0.1-0.1l0,0h0c0,0,0.1,0,0.1-0.1s0.1-0.1,0.1-0.1c0,0,0,0,0.1,0
			c0.1,0,0.1-0.1,0.2-0.1c0,0,0.1,0,0.1,0c0.1-0.1,0.2-0.1,0.3-0.2c0,0,0,0,0,0l0,0c0.2-0.1,0.4-0.3,0.5-0.5
			c0.1-0.1,0.1-0.1,0.2-0.2c0.1-0.1,0.2-0.2,0.3-0.3c0.1-0.1,0.1-0.2,0.2-0.2c0.1-0.1,0.2-0.2,0.3-0.3c0,0,0,0,0,0c0,0,0.1,0,0.1,0
			c0,0,0.1-0.1,0.1-0.1c0,0,0,0,0,0h0c0,0,0.1,0,0.2-0.1c0.1,0,0.1-0.1,0.1-0.1c0,0,0.1,0,0.2,0c0,0,0.1,0,0.1-0.1
			c0.1,0,0.1,0,0.2-0.1l0,0c0,0,0,0,0,0c0.2-0.1,0.3-0.1,0.4-0.2c0,0,0,0,0,0c0,0,0.1,0,0.1,0c0,0,0.1,0,0.1,0c0,0,0.1,0,0.1,0
			c0.1,0,0.1-0.1,0.2-0.1c0,0,0,0,0,0c0,0,0.1,0,0.1,0c0.1,0,0.1,0,0.2,0c0.1,0,0.1,0,0.1-0.1c0,0,0.1,0,0.1,0h0
			c0.1,0,0.2,0,0.3-0.1l0.1,0l0.1,0c0.2-0.1,0.4-0.2,0.5-0.4c0.1-0.1,0.1-0.2,0.2-0.2c0,0,0-0.1,0.1-0.1c0,0,0,0,0.1,0
			c0.1,0,0.1-0.1,0.2-0.2c0,0,0,0,0,0c0,0,0.1-0.1,0.1-0.1c0,0,0.1-0.1,0.1-0.1c0,0,0-0.1,0.1-0.1c0,0,0.1-0.1,0.1-0.1
			c0,0,0.1,0,0.1-0.1l0,0c0.1,0,0.1-0.1,0.2-0.2c0-0.1,0.1-0.1,0.2-0.1c0.1,0,0.2-0.1,0.4-0.2c0,0,0.1-0.1,0.1-0.1c0,0,0,0,0,0
			c0,0,0.1,0,0.1,0c0,0,0,0,0.1,0c0.1,0,0.2-0.1,0.3-0.1c0,0,0.1-0.1,0.1-0.1c0,0,0,0,0,0l0,0c0,0,0,0,0.1,0c0.1,0,0.2,0,0.2-0.1
			c0,0,0.1,0,0.1,0c0,0,0,0,0,0c0,0,0.1,0,0.1,0c0,0,0.1,0,0.1,0c0.1,0,0.1-0.1,0.1-0.1h0c0,0,0,0,0.1,0c0.1,0,0.1,0,0.2,0
			c0,0,0,0,0,0c0,0,0.1,0,0.1,0c0,0,0,0,0.1,0c0.1,0,0.1,0,0.2,0h0c0,0,0.1,0,0.2,0c0,0,0.1,0,0.1,0h0c0.1,0,0.3,0,0.4-0.2l0.2-0.2
			l-0.2-0.2c0,0,0,0,0,0c0,0,0-0.1,0-0.1c0-0.1-0.1-0.1-0.1-0.2c0,0,0,0,0,0c0,0,0-0.1,0-0.1c0,0-0.1-0.1-0.1-0.1c0,0,0-0.1,0-0.1
			c0,0,0-0.1,0-0.1l0-0.1c0,0,0-0.1,0-0.1c0,0,0,0,0,0c0-0.1,0-0.2,0-0.2c0,0,0-0.1,0.1-0.1c0.1-0.1,0.1-0.2,0.2-0.2
			s0.1-0.1,0.1-0.1c0,0,0,0,0,0c0,0,0,0,0,0c0,0,0.1-0.1,0.2-0.1c0,0,0,0,0,0l0.1,0c0,0,0.1,0,0.1,0c0,0,0,0,0.1,0c0,0,0.1,0,0.1,0
			c0,0,0.2,0,0.3-0.1l0.2-0.1l-0.1-0.2c0,0,0-0.1,0-0.1c0,0,0,0,0,0c0-0.1,0-0.2,0-0.4c0,0,0,0,0,0c0-0.1,0-0.1,0-0.2
			c0,0,0-0.1,0-0.1c0,0,0,0,0-0.1c0,0,0,0,0-0.1c0-0.3,0.1-0.7,0-1.1c0,0,0-0.1,0-0.1c0,0,0-0.1,0-0.1v-0.1c0-0.1,0-0.2,0-0.2
			c0-0.2,0-0.3,0-0.5c0-0.1,0-0.1,0-0.2c0,0,0-0.1,0-0.1c0-0.1,0-0.3,0.1-0.4c0-0.1,0-0.2,0-0.2c0-0.1,0-0.2,0-0.3v0l0,0
			c0-0.1,0.1-0.2,0.1-0.4c0-0.1,0-0.2,0-0.2c0,0,0-0.1,0.1-0.1c0-0.1,0-0.1,0-0.1c0,0,0.1-0.1,0.1-0.1l0.1-0.1l0.3-0.4
			c0.2-0.3,0.4-0.5,0.6-0.8c0,0,0,0,0.1-0.1c0,0,0.1-0.1,0.1-0.1c0-0.1,0.1-0.1,0.1-0.2l0-0.1c0-0.1,0.1-0.1,0.2-0.2l0,0
			c0.1-0.1,0.1-0.1,0.2-0.2c0,0,0.1-0.1,0.1-0.1c0.1,0,0.1-0.1,0.2-0.1c0.1-0.1,0.2-0.1,0.3-0.2c0,0,0.1-0.1,0.1-0.1
			c0,0,0.1-0.1,0.1-0.1c0.1-0.1,0.3-0.2,0.4-0.3l0.1-0.1c0,0,0.1,0,0.1-0.1c0.1,0,0.1-0.1,0.2-0.1c0,0,0.1-0.1,0.2-0.1l0,0
			c0,0,0,0,0.1,0c0,0,0.1-0.1,0.1-0.1c0,0,0,0,0,0c0.1,0,0.2-0.1,0.3-0.2c0,0,0.1-0.1,0.2-0.1c0.1,0,0.1,0,0.2-0.1
			c0.1,0,0.1-0.1,0.2-0.1c0,0,0.1,0,0.1-0.1c0,0,0.1,0,0.1-0.1c0,0,0.1,0,0.2-0.1c0.1,0,0.1-0.1,0.2-0.1c0,0,0.1,0,0.1-0.1
			c0,0,0,0,0,0c0.1,0,0.1,0,0.2-0.1c0.1,0,0.1-0.1,0.2-0.1c0,0,0,0,0.1,0c0,0,0.1,0,0.2,0l0.1,0l0,0h0c0.1,0,0.1,0,0.2,0
			c0,0,0.1,0,0.1,0c0.1,0,0.2,0,0.3-0.1c0,0,0,0,0.1,0h0c0,0,0.1,0,0.1,0c0,0,0.1,0,0.1,0c0,0,0.1,0,0.1,0c0,0,0.1,0,0.1,0
			c0.1,0,0.2,0,0.2,0c0,0,0,0,0,0h0.1c0,0,0.1,0,0.1,0c0,0,0.1,0,0.1,0c0,0,0,0,0,0c0,0,0,0,0,0c0,0,0.1,0,0.2,0h0.1
			c0,0,0.1,0,0.1,0c0,0,0,0,0,0c0,0,0,0,0,0c0,0,0.1,0,0.1,0h0c0.1,0,0.1,0,0.2,0c0,0,0.1,0,0.1,0c0,0,0.1,0,0.1,0c0,0,0.1,0,0.1,0
			c0,0,0.1,0,0.1,0c0,0,0.1,0,0.1,0c0,0,0.1,0,0.1,0h0c0,0,0,0,0.1,0c0.1,0,0.1,0,0.2,0c0,0,0,0,0.1,0c0.1,0,0.2,0,0.3,0
			c0,0,0,0,0,0c0,0,0.1,0,0.2,0c0.1,0,0.2,0,0.2,0c0,0,0,0,0,0c0,0,0.1,0,0.2,0c0,0,0,0,0.1,0c0.1,0,0.1,0,0.1,0c0,0,0,0,0,0h0
			c0,0,0.1,0,0.1,0c0,0,0.1,0,0.1,0c0.1,0,0.1,0,0.2-0.1h0.1c0.1,0,0.2,0,0.3-0.1l0,0c0.1,0,0.2-0.1,0.2-0.1c0,0,0,0,0,0
			c0,0,0.1,0,0.2,0c0,0,0.1-0.1,0.1-0.1h0c0,0,0.1,0,0.1,0c0.1,0,0.2,0,0.2-0.1c0,0,0.1,0,0.1,0c0.1,0,0.3-0.1,0.4-0.2
			c0.2-0.2,0.4-0.4,0.5-0.6l0,0c0,0,0.1-0.1,0.1-0.1c0.1,0,0.1-0.1,0.2-0.2l0,0c0,0,0,0,0,0c0,0,0.1-0.1,0.2-0.1c0,0,0-0.1,0.1-0.1
			c0,0,0,0,0,0c0,0,0.1-0.1,0.1-0.1c0,0,0-0.1,0.1-0.1c0,0,0,0,0,0c0,0,0,0,0,0c0,0,0.1-0.1,0.2-0.2c0.1-0.1,0.2-0.2,0.3-0.3
			C41.2,181.2,41.4,181.2,41.5,181.2 M41.5,180.8c-0.2,0-0.4,0.1-0.6,0.3c-0.1,0.1-0.2,0.2-0.3,0.3c0,0.1-0.1,0.1-0.1,0.1
			c0,0-0.1,0.1-0.1,0.1c0,0-0.1,0-0.1,0.1c0,0-0.1,0.1-0.1,0.2c0,0.1-0.1,0-0.1,0.1c0,0-0.1,0.1-0.1,0.1c-0.1,0.1-0.2,0.2-0.3,0.3
			c-0.1,0.2-0.3,0.4-0.5,0.5c-0.1,0-0.2,0.1-0.3,0.1c0,0-0.1,0-0.1,0c-0.1,0-0.1,0-0.2,0.1c-0.1,0-0.2,0-0.3,0c0,0-0.1,0.1-0.1,0.1
			c0,0-0.1,0-0.2,0c-0.1,0-0.2,0.1-0.3,0.1c0,0-0.1,0.1-0.2,0.1h0c0,0-0.1,0-0.1,0c0,0,0,0-0.1,0c-0.1,0-0.1,0-0.1,0.1
			c0,0,0,0-0.1,0c0,0-0.1,0-0.1,0c0,0,0,0,0,0c-0.1,0-0.1,0-0.2,0h0c-0.1,0-0.1,0-0.1,0h0c-0.1,0-0.1,0-0.2,0c0,0-0.1,0-0.1,0
			c-0.1,0-0.2,0.1-0.3,0.1c0,0-0.1,0-0.1,0c0,0-0.1,0-0.1,0c0,0-0.1,0-0.1,0h0c-0.1,0-0.2,0-0.2,0c0,0,0,0-0.1,0c-0.1,0-0.1,0-0.2,0
			h0c-0.1,0-0.2,0-0.3,0h0c-0.1,0-0.1,0-0.2,0h0c0,0-0.1,0-0.1,0h0c0,0-0.1,0-0.1,0c0,0,0,0-0.1,0c-0.1,0-0.1,0-0.2,0c0,0,0,0-0.1,0
			c0,0-0.1,0-0.1,0h0c-0.1,0-0.2,0-0.2,0c0,0-0.1,0-0.1,0h0c-0.1,0-0.1,0-0.2,0.1c0,0,0,0,0,0c0,0-0.1,0-0.1,0c-0.1,0-0.1,0-0.2,0
			c-0.1,0-0.3,0-0.4,0.1c-0.1,0-0.1,0-0.2,0c0,0-0.1,0-0.1,0c0,0-0.1,0-0.1,0.1c-0.1,0-0.1,0-0.2,0.1c-0.1,0-0.2,0.1-0.2,0.1
			c-0.1,0-0.1,0-0.2,0.1c-0.1,0-0.2,0.1-0.3,0.2c-0.1,0-0.2,0.1-0.3,0.1c-0.1,0-0.2,0.1-0.3,0.2c-0.2,0.1-0.4,0.1-0.5,0.3
			c-0.1,0.1-0.1,0.1-0.2,0.1c-0.1,0-0.1,0.1-0.2,0.1c-0.1,0-0.2,0.1-0.2,0.2c-0.1,0.1-0.2,0.1-0.2,0.2c-0.1,0.1-0.3,0.2-0.4,0.3
			c-0.1,0.1-0.2,0.2-0.3,0.2c-0.1,0.1-0.3,0.2-0.5,0.3c-0.1,0.1-0.1,0.2-0.2,0.2c-0.1,0.1-0.2,0.1-0.3,0.2c-0.1,0.1-0.1,0.1-0.2,0.2
			c-0.1,0.1-0.2,0.1-0.2,0.2c-0.3,0.4-0.6,0.8-0.9,1.2c-0.1,0.1-0.1,0.1-0.2,0.2c-0.1,0.1-0.1,0.2-0.1,0.3c0,0.1-0.1,0.4-0.1,0.5
			c-0.1,0.2-0.1,0.4-0.1,0.6c0,0.1,0,0.3-0.1,0.4c0,0.1,0,0.2,0,0.3c0,0.2,0,0.4,0,0.6c0,0,0,0.1,0,0.1c0,0,0,0.1,0,0.1
			c0,0,0,0.1,0,0.1c0,0.1,0,0.2,0,0.3c0,0.4,0,0.7,0,1.1c0,0.1,0,0.1,0,0.2c0,0,0,0,0,0.1c0,0,0,0,0,0.1c0,0,0,0,0,0.1
			c0,0,0,0,0,0.1c0,0,0,0.1,0,0.1c0,0.1,0,0.2,0,0.3c0,0.1,0,0.2,0.1,0.3c0,0-0.1,0-0.1,0c-0.1,0-0.1,0-0.2,0c0,0,0,0-0.1,0
			c-0.1,0-0.1,0-0.2,0.1c-0.1,0-0.1,0-0.1,0.1c-0.1,0.1-0.1,0.1-0.2,0.1c-0.1,0.1-0.1,0.1-0.2,0.2c-0.1,0.1-0.2,0.2-0.3,0.4
			c-0.1,0.1-0.1,0.3-0.1,0.4c0,0.1,0,0.1,0.1,0.2c0,0.1,0,0.2,0.1,0.2c0,0.1,0,0.1,0.1,0.2c0,0,0.1,0.1,0.1,0.1c0,0,0,0.1,0,0.1
			c0,0.1,0.1,0.1,0.1,0.2c0,0.1,0,0.1,0.1,0.2c0,0-0.2,0-0.2,0.1c0,0,0,0,0,0c-0.1,0-0.1,0-0.2,0h0c-0.1,0-0.1,0-0.1,0.1h0
			c0,0-0.1,0-0.1,0h0c-0.1,0-0.1,0-0.2,0.1h0c0,0-0.1,0-0.1,0c0,0-0.1,0-0.1,0c0,0-0.1,0.1-0.1,0.1h0c0,0-0.1,0-0.1,0h0
			c-0.1,0-0.2,0.1-0.3,0.1c0,0-0.1,0-0.2,0.1c-0.1,0-0.1,0-0.1,0c0,0-0.1,0-0.1,0c-0.1,0-0.1,0.1-0.1,0.1c-0.1,0-0.2,0.1-0.3,0.1
			c-0.1,0-0.1,0-0.2,0.1c-0.1,0-0.1,0.1-0.2,0.1c-0.2,0.2-0.5,0.2-0.6,0.4c-0.1,0.1-0.1,0.1-0.2,0.1c-0.1,0.1-0.1,0.1-0.2,0.2
			c-0.1,0.1-0.1,0.2-0.2,0.2c-0.1,0.1-0.1,0.1-0.2,0.2c-0.1,0.1-0.1,0.1-0.2,0.2c-0.1,0.1-0.1,0.2-0.2,0.3c-0.1,0.1-0.3,0.2-0.4,0.3
			c-0.1,0-0.1,0.1-0.2,0.1c-0.1,0-0.2,0-0.3,0.1c0,0-0.1,0-0.2,0c-0.1,0-0.1,0.1-0.1,0.1c-0.1,0-0.2,0-0.3,0.1
			c-0.1,0-0.1,0.1-0.2,0.1c-0.1,0-0.1,0.1-0.2,0.1c-0.1,0-0.1,0-0.2,0.1c-0.1,0.1-0.2,0.2-0.4,0.2c-0.1,0-0.1,0.1-0.2,0.1
			c-0.1,0-0.1,0-0.2,0.1c0,0-0.1,0.1-0.1,0.1c0,0-0.1,0-0.1,0c-0.1,0-0.1,0.1-0.1,0.1c0,0-0.1,0-0.2,0c-0.1,0-0.1,0.1-0.2,0.1
			c0,0-0.1,0-0.1,0.1c0,0-0.1,0.1-0.1,0.1c-0.2,0.2-0.4,0.4-0.5,0.6c-0.1,0.2-0.3,0.3-0.4,0.5c-0.1,0.2-0.3,0.3-0.5,0.4
			c-0.1,0.1-0.1,0.1-0.2,0.2c-0.1,0-0.2,0.1-0.3,0.1c0,0-0.1,0-0.1,0c-0.1,0-0.1,0.1-0.1,0.1c0,0-0.1,0-0.1,0.1c0,0-0.1,0.1-0.1,0.1
			c-0.1,0-0.2,0.1-0.2,0.1c-0.1,0-0.1,0.1-0.2,0.2c-0.2,0.1-0.4,0.2-0.5,0.4c-0.1,0.1-0.1,0.1-0.1,0.2c-0.1,0.1-0.1,0.1-0.2,0.2
			c-0.1,0.1-0.3,0.3-0.4,0.4c-0.1,0.1-0.3,0.3-0.5,0.4c-0.1,0.1-0.1,0.2-0.2,0.3c-0.1,0.1-0.2,0.1-0.2,0.2c-0.1,0.1-0.1,0.1-0.2,0.2
			c-0.1,0.1-0.1,0.1-0.2,0.2c-0.1,0.1-0.1,0.2-0.2,0.3c-0.1,0.1-0.2,0.2-0.3,0.3c-0.1,0.2-0.2,0.3-0.4,0.5c-0.2,0.2-0.4,0.5-0.6,0.7
			c-0.1,0.1-0.1,0.2-0.2,0.3c-0.1,0.1-0.2,0.3-0.3,0.5c-0.1,0.1-0.2,0.4-0.3,0.5c-0.1,0.1-0.1,0.3-0.2,0.4c-0.1,0.3-0.3,0.5-0.4,0.7
			c-0.1,0.1-0.2,0.3-0.3,0.4c0,0.1-0.1,0.1-0.1,0.2c0,0.1,0,0.1-0.1,0.2c0,0.1-0.1,0.1-0.1,0.2c0,0.1-0.1,0.1-0.1,0.2
			c-0.1,0.1-0.1,0.3-0.2,0.4c-0.2,0.2-0.3,0.5-0.4,0.8c-0.1,0.3-0.2,0.5-0.3,0.8c-0.1,0.2-0.1,0.5-0.1,0.7c0,0.1,0,0.1,0,0.2
			c0,0.1,0.1,0.2,0.1,0.3c0,0.1,0.1,0.2,0.1,0.3c0,0.1,0.1,0.2,0.2,0.3c0.1,0.1,0.1,0.2,0.2,0.3c0.1,0.1,0.2,0.1,0.2,0.2
			c0.1,0.2,0.4,0.3,0.5,0.4c0.1,0.1,0.1,0.1,0.2,0.1c0,0,0.1,0,0.1,0h0.1c0,0,0,0,0.1,0c0,0,0.1,0.1,0.1,0.1h0c0.1,0,0.1,0,0.2,0
			c0.1,0,0.1,0,0.2,0c0,0,0.1,0,0.1,0c0,0.1-0.1,0.2-0.1,0.3c0,0.1,0,0.1,0,0.2c0,0.1,0,0.1,0.1,0.2c0,0.1,0,0.1,0.1,0.2
			c0,0,0.1,0.1,0.1,0.1c0.1,0.2,0.1,0.2,0.2,0.3c0.1,0.1,0.2,0.3,0.3,0.4c0.1,0.1,0.2,0.2,0.3,0.3c0.1,0.1,0.2,0.2,0.4,0.4
			c0.1,0.1,0.2,0.2,0.3,0.2c0.3,0.2,0.5,0.4,0.9,0.5c0.1,0,0.2,0,0.2,0.1c0,0,0,0,0.1,0c0.1,0,0.1,0,0.2,0c0.1,0,0.1,0,0.2,0h0
			c0.1,0,0.2,0,0.3-0.1c0.1,0,0.2,0,0.3,0c0.1,0,0.2-0.1,0.3-0.1c0,0,0.2-0.1,0.2-0.1c-0.1,0.2,0,0.3,0,0.4c0,0.2,0.1,0.4,0.2,0.6
			c0.1,0.1,0.1,0.2,0.2,0.3c0.1,0.1,0.1,0.3,0.2,0.4c0.1,0.1,0.1,0.1,0.2,0.2c0.1,0.1,0.1,0.1,0.1,0.2c0.1,0.1,0.2,0.3,0.3,0.4
			c0.3,0.2,0.5,0.5,0.8,0.7c0.2,0.1,0.4,0.3,0.5,0.4c0.1,0,0.1,0.1,0.2,0.1c0.1,0,0.3,0.1,0.4,0.2c0.1,0,0.2,0.1,0.3,0.1
			c0.1,0,0.2,0,0.3,0c0.1,0,0.1,0,0.1,0c0,0,0.1,0,0.1,0c0,0,0,0,0.1,0c0,0,0.1,0,0.1,0h0c0.1,0,0.2-0.1,0.3-0.1h0c0,0,0.1,0,0.1,0
			c0,0,0,0,0,0c0.1,0,0.1-0.1,0.2-0.1c0.1,0,0.1,0,0.2,0c0.1,0,0.2-0.1,0.2-0.1c0.1,0,0.1-0.1,0.2-0.1c0.1-0.1,0.2-0.1,0.3-0.1
			c0.4-0.3,0.8-0.7,1.3-0.9c0.3-0.1,0.5-0.3,0.8-0.5c0.2-0.1,0.3-0.2,0.5-0.3c0.2-0.1,0.4-0.3,0.6-0.5c0.3-0.3,0.6-0.6,0.9-0.9
			c0.2-0.1,0.3-0.3,0.5-0.5c0.1-0.1,0.3-0.3,0.4-0.4c0.3-0.2,0.5-0.5,0.8-0.8c0.3-0.3,0.5-0.6,0.8-0.9c0.2-0.2,0.4-0.4,0.6-0.6
			c0.1-0.1,0.2-0.2,0.3-0.3c0.1-0.1,0.2-0.2,0.3-0.3c0.2-0.2,0.4-0.3,0.5-0.6c0.2-0.2,0.4-0.5,0.6-0.7c0.2-0.3,0.5-0.5,0.7-0.7
			c0-0.1,0.1-0.2,0.2-0.2c0.1,0,0.1,0,0.1-0.1c0.1-0.1,0.3-0.2,0.4-0.4c0.2-0.2,0.2-0.5,0.2-0.7c0-0.1,0-0.2,0-0.3
			c0-0.1,0.1-0.1,0.1-0.2c0-0.2,0-0.4,0-0.6c0-0.1,0-0.1,0-0.2c0-0.2,0-0.3,0-0.5c0-0.1,0-0.1,0-0.2c0,0,0-0.1,0-0.1
			c0-0.1,0-0.2,0-0.3c0-0.1,0-0.3,0-0.4c0-0.3,0-0.6,0-0.9c0-0.1,0-0.2,0-0.4c0-0.1,0-0.2,0-0.3c0,0,0-0.1,0-0.1c0-0.1,0-0.2,0-0.2
			c0-0.2,0-0.2,0-0.4c0-0.1,0-0.2,0-0.3c0-0.1,0.1-0.3,0.1-0.4c0-0.2,0.1-0.4,0.2-0.5c0.1-0.2,0.1-0.4,0.1-0.6
			c0.1-0.1,0.1-0.3,0.1-0.5c0-0.2,0.1-0.4,0.1-0.5c0-0.1,0-0.1,0-0.1c0-0.1,0-0.1,0.1-0.2c0-0.2,0-0.3,0-0.5c0-0.2,0.1-0.5,0-0.7
			c0-0.2,0-0.4-0.1-0.6c0-0.1-0.1-0.1-0.1-0.2c0-0.1-0.1-0.2-0.1-0.3c0-0.1-0.1-0.2-0.1-0.3c0-0.1,0-0.1,0-0.2c0-0.1,0-0.1,0-0.2
			c0,0,0-0.1,0.1-0.1c0-0.1,0-0.2,0.1-0.3c0-0.2-0.1-0.5,0.1-0.6c0.1,0,0.1,0,0.2,0c0.3,0,0.6,0.1,0.8,0.1h0c0.1,0,0.2,0,0.3,0
			c0,0,0,0,0.1,0c0,0,0.1,0,0.1,0H32c0.1,0,0.1,0,0.2,0c0.2,0.1,0.4,0.1,0.7,0.2c0.2,0.1,0.3,0.2,0.5,0.2c0.1,0,0.1,0,0.2,0
			c0.1,0,0.2,0.1,0.3,0.1c0.1,0,0.1,0,0.2,0c0.1,0,0.2,0,0.2,0h0c0.2,0,0.3,0,0.5,0h0.1c0.2,0,0.4-0.1,0.6-0.1c0.2,0,0.5,0,0.7-0.1
			c0.1,0,0.3,0,0.4-0.1c0.1,0,0.2,0,0.3,0c0.1,0,0.1-0.1,0.2-0.1c0.1,0,0.1,0,0.2,0c0.1,0,0.1-0.1,0.2-0.1c0.1,0,0.1,0,0.2-0.1
			c0.1,0,0.2-0.1,0.3-0.1c0.2-0.1,0.4-0.1,0.5-0.3c0.2-0.1,0.4-0.2,0.6-0.4c0.4-0.3,0.8-0.6,1.2-0.9c0.1-0.1,0.3-0.3,0.4-0.4
			c0.1-0.2,0.3-0.4,0.4-0.6l0.7-0.9c0.1-0.2,0.3-0.3,0.4-0.5c0.1-0.2,0.3-0.3,0.4-0.5c0.2-0.2,0.4-0.5,0.5-0.7
			c0-0.1,0.1-0.2,0.1-0.3c0.1-0.1,0.1-0.2,0.2-0.3c0.1-0.2,0-0.4,0.1-0.5c0-0.1,0.1-0.2,0.1-0.3c0-0.1,0-0.1,0-0.2
			c0-0.1,0-0.2,0-0.3c0-0.2,0.2-0.4,0.2-0.7c0-0.1,0-0.2,0-0.3c0-0.1,0.1-0.2,0.1-0.3c0-0.1,0-0.2,0.1-0.3c0-0.1,0-0.2,0-0.3
			c0-0.1,0-0.2,0.1-0.3c0-0.1,0-0.3,0-0.4c0-0.2-0.1-0.5-0.2-0.7c-0.1-0.1-0.1-0.2-0.1-0.3c0-0.1-0.1-0.1,0-0.2
			c0-0.1,0.2-0.3,0.3-0.4c0-0.1,0.1-0.1,0.1-0.2c0.1-0.1,0.2-0.3,0.4-0.4c0.1-0.1,0.1-0.1,0.2-0.2c0.1-0.1,0.1-0.2,0.3-0.3
			c0.2-0.1,0.3-0.3,0.5-0.4c0.1-0.2,0.3-0.3,0.4-0.4c0-0.1,0.1-0.2,0-0.3c-0.1-0.1-0.3-0.3-0.4-0.5c0-0.1,0-0.1-0.1-0.2
			c-0.1-0.1-0.1-0.1-0.1-0.2c0-0.1-0.1-0.2-0.2-0.2c0-0.1-0.1-0.1-0.1-0.2c-0.1-0.1-0.1-0.1-0.2-0.2c-0.1-0.2-0.2-0.4-0.3-0.6
			c-0.1-0.1-0.2-0.1-0.2-0.2c-0.1-0.1-0.2-0.2-0.3-0.3c-0.1-0.1-0.2-0.2-0.2-0.3c-0.1-0.1-0.2-0.2-0.2-0.2c-0.5-0.5-0.9-1-1.4-1.6
			C42,180.9,41.8,180.8,41.5,180.8L41.5,180.8z"/>
		<path class="st11" d="M37.2,192.3c-0.2-0.1-0.5,0-0.7,0.1c-0.1,0-0.2,0-0.2,0c-0.1,0-0.2,0.1-0.4,0.1c-0.2,0-0.4,0.1-0.6,0.1
			c-0.1,0-0.2,0-0.3,0.1c-0.1,0-0.2,0-0.3,0.1c-0.2,0.1-0.5,0.1-0.7,0.2c-0.4,0-0.7,0.2-1.1,0.2c-0.2,0-0.3,0.1-0.5,0.1
			c-0.1,0-0.2,0.1-0.4,0.2c-0.2,0.1-0.3,0.1-0.5,0.2c-0.1,0-0.2,0-0.2,0.1c-0.1,0-0.1,0.1-0.2,0.1c-0.1,0-0.1,0-0.1,0
			c0,0-0.1,0-0.1,0c-0.1,0-0.2,0-0.3,0c-0.1,0-0.2,0-0.3,0c0,0,0,0-0.1,0c0,0,0,0-0.1,0c-0.1,0-0.1,0-0.2,0c-0.2,0-0.3,0-0.5,0
			c-0.1,0-0.2-0.1-0.3,0c-0.1,0-0.1,0.1-0.2,0c-0.1,0-0.1,0-0.2-0.1"/>
		<path class="st11" d="M33,189.3c0,0-0.1,0.1-0.2,0.1c-0.1,0.1-0.2,0.1-0.3,0.2c-0.2,0.1-0.5,0.2-0.6,0.4c-0.1,0.1-0.3,0.1-0.4,0.2
			c-0.1,0.1-0.2,0.2-0.3,0.2c-0.2,0.2-0.4,0.3-0.6,0.5c-0.2,0.2-0.4,0.4-0.7,0.5c-0.1,0.1-0.2,0.1-0.3,0.2c-0.1,0.1-0.1,0.2-0.2,0.2
			c-0.1,0.1-0.1,0.1-0.2,0.1c-0.1,0.1-0.1,0.1-0.2,0.1c-0.1,0.1-0.1,0.1-0.2,0.2c0,0.1-0.1,0.1-0.2,0.1"/>
		<path class="st11" d="M26.2,197.4c-0.1,0.1-0.1,0.2-0.2,0.4c0,0.2,0,0.4-0.1,0.5c0,0.1,0,0.2,0,0.3c0,0.1,0,0.2,0,0.3
			c0,0.1,0,0.2,0.1,0.3c0,0.1,0.1,0.2,0.1,0.3c0,0.1,0,0.1,0,0.2c0,0,0.1,0.1,0.1,0.1c0,0,0,0.1,0,0.1c0,0.1,0.1,0.2,0.1,0.3
			c0,0.1,0.1,0.2,0.1,0.2c0.1,0.1,0.1,0.2,0.2,0.3c0.1,0.1,0.1,0.1,0.1,0.2c0,0.1,0.1,0.1,0.1,0.2c0.1,0.1,0,0.2,0.1,0.2"/>
		<path class="st11" d="M28.4,198.9c0.1,0,0,0.1,0.1,0.2c0,0.1,0.1,0.1,0.1,0.2c0,0.1,0,0.1,0,0.2c0,0.2,0,0.4,0,0.5
			c0,0.2,0,0.5,0,0.7c0.1,0.2,0.1,0.3,0.1,0.5c0,0.1,0,0.2-0.1,0.2c0,0-0.1,0.1-0.1,0.1c0,0-0.1,0-0.2,0.1c-0.1,0.1-0.2,0.2-0.4,0.2
			c-0.1,0.1-0.2,0.2-0.3,0.3c-0.3,0.3-0.5,0.6-0.7,1c0,0.1-0.1,0.1-0.1,0.2c-0.1,0.1-0.1,0.2-0.1,0.4c-0.1,0.1-0.1,0.3-0.1,0.5
			c0,0.1-0.1,0.2-0.1,0.3c0,0.2,0,0.3-0.1,0.5c-0.1,0.2,0,0.3,0,0.4c0,0.1,0,0.2,0,0.3c0,0.1,0.1,0.2,0.1,0.4
			c0.1,0.3,0.2,0.6,0.4,0.8c0.1,0.1,0.2,0.2,0.2,0.3c0,0.1,0.1,0.1,0.1,0.2"/>
		<path class="st11" d="M26.2,195.2c0,0.1,0,0.1-0.1,0.2c0,0.2,0.1,0.4,0.1,0.5c0.1,0.1,0.1,0.2,0.1,0.3c0.1,0.1,0.1,0.2,0.2,0.3
			c0.1,0.1,0.2,0.2,0.2,0.3l0,0"/>
		<path class="st11" d="M41.5,181.8c0.1,0,0.1,0.1,0.1,0.2c0.2,0.2,0.4,0.5,0.6,0.7c0.4,0.5,0.8,1.1,1.2,1.6
			c0.2,0.3,0.5,0.6,0.7,0.8c0.1,0.1,0.3,0.3,0.4,0.4"/>
		<path class="st11" d="M41,182.5c0,0,0,0.1,0.1,0.1c0.1,0.1,0.2,0.3,0.3,0.4c0.3,0.5,0.7,0.9,1,1.4c0.3,0.4,0.6,0.8,1,1.2
			c0.1,0.1,0.2,0.2,0.3,0.3"/>
		<path class="st11" d="M40.2,183.1c0.1,0.1,0.1,0.2,0.2,0.3c0.1,0.2,0.3,0.4,0.4,0.6c0.4,0.4,0.7,0.9,1.1,1.3
			c0.4,0.4,0.8,0.9,1.2,1.3c0.1,0.1,0.2,0.2,0.4,0.3c0.1,0.1,0.1,0.1,0.2,0.2"/>
		<path class="st12" d="M98.6,81.6c3.5,2,6.6,4.7,9.3,7.7"/>
		<path class="st12" d="M128.3,79.8c-6.1,1.1-11.7,5-15,10.3"/>
		<path class="st12" d="M107,80.8c1.2,1.2,2.3,2.7,3.1,4.2c1.9-1.5,3.7-3.2,5.3-5"/>
		<path class="st12" d="M130.4,109.5c-2.2-2.7-5.3-4.7-8.5-5.9c-3.3-1.2-6.8-1.8-10.3-2.1c-4.1-0.4-8.3-0.5-12.1,1.1
			c-3.5,1.5-6.2,4.3-8.3,7.4c-1.5,2.2-2.7,4.9-2.1,7.4c0.5,1.9,2,3.5,3.8,4.3c1.8,0.8,3.9,0.9,5.8,0.6c3.6-0.6,7.2-2.4,10.7-1.3
			c2,0.6,3.5,2.1,5.2,3.3c2.5,1.8,5.3,3.1,8.3,3.6c2.9,0.6,6.2,0.4,8.2-1.8c1.1-1.2,1.5-2.8,1.7-4.3c0.2-1.4,0.5-2.8,0.5-4.2
			C133.3,114.6,132.2,111.7,130.4,109.5L130.4,109.5z"/>
		<path class="st12" d="M97.8,89.3c2.6,0.8,5.1,2,7.4,3.6c0.1,0,0,0.2-0.1,0.1c-3-0.7-6.2-0.2-8.9,1.3"/>
		<path class="st12" d="M130.1,88.6c-4.3,0.8-8.5,2.2-12.3,4.2c-0.1,0.1-0.1,0.2,0.1,0.2c4.8-0.5,9.8,0.8,13.8,3.7"/>
		<path class="st13" d="M91.2,101.1c1.9,0.8,4,0.7,6,0.8c3.4,0.2,6.8,0.9,10,2c1.1,0.4,2.2,0.8,2.6,1.9c0.2,0.4,0.2,0.9-0.1,1.3
			c-0.5,0.6-1.3,0.4-2,0.2c-1.3-0.4-2.6-0.8-3.9-1.2c-0.3-0.1-0.6-0.2-0.8-0.1c-0.3,0.1-0.5,0.5-0.5,0.9c0,0.4,0.2,0.7,0.5,1
			c1.1,1.4,2.6,2.6,2.8,4.3c0.1,0.4,0,0.9-0.2,1.2c-0.2,0.4-0.6,0.7-1,0.7c-0.5,0-0.9-0.4-1.3-0.7c-1.7-1.9-2.4-4.7-4.6-6.1
			c-0.2-0.2-0.6-0.3-0.8-0.1c-0.2,0.1-0.2,0.3-0.2,0.5c-0.1,1.2,0.6,2.3,1.4,3.2c0.9,1,2,1.9,2.5,3.1c0.3,0.6,0.4,1.3,0.2,1.9
			c-0.4,1.9-2.5,2-3.7,1.1c-0.9-0.7-1.4-1.7-1.7-2.8c-0.3-1.1-0.5-2.2-0.9-3.2c-0.3-0.9-0.9-1.9-1.8-2.4c-0.2-0.1-0.4,0-0.4,0.2
			c-0.2,0.8,0.5,1.8-0.1,2.5c-0.4,0.4-1,0.5-1.5,0.2c-0.8-0.5-1-1.4-1-2.2c0-0.7,0.1-1.5-0.1-2.2c-0.3-1-1.1-1.8-2.1-2.1"/>
		<path class="st9" d="M90.5,104.3c0.7-0.8,1.8-2.6,1.8-3.7c-0.1-0.8-1.4-1.1-2.1-1.5c-0.4-0.2-0.6-0.7-0.5-1.1c0.3-1.5,0-3-0.7-4.3
			c-0.9-1.6-2.2-2.9-3.5-4.2C78.5,83.2,70.6,78,62.9,72.7c-1.2-0.8-2.5-1.5-3.9-2.1c-1-0.4-2.2-0.7-3.2-0.3
			c-0.9,0.4-1.4,1.7-0.8,2.4c-1.1-0.1-2.2,0.4-2.7,1.3c-0.6,0.9-0.5,2.2,0.1,3c-0.7-0.1-1.4,0.2-2,0.6c-1.5,1.1-1.6,3.4-0.7,5
			c0.8,1.6,2.4,2.8,3.9,3.9c6.5,4.8,13.1,9.5,19.7,14.3c1.8,1.3,3.5,2.6,5.5,3.4c1.7,0.7,4,1.9,5.5,0.8c0.8-0.6,1.5-0.7,2-0.6
			c0.8,0.2,1.4,1.7,2.2,1.5C89.3,105.9,89.8,105.1,90.5,104.3L90.5,104.3z"/>
		<defs>
			<filter id="Adobe_OpacityMaskFilter" filterUnits="userSpaceOnUse" x="55.2" y="86.1" width="39.4" height="22.2">
				<feColorMatrix  type="matrix" values="1 0 0 0 0  0 1 0 0 0  0 0 1 0 0  0 0 0 1 0"/>
			</filter>
		</defs>
		
			<mask maskUnits="userSpaceOnUse" x="55.2" y="86.1" width="39.4" height="22.2" id="mask0_226_2525_00000054267831812035707850000015427531530983626647_">
			<path class="st14" d="M90.5,104.3c0.7-0.8,1.8-2.6,1.8-3.7c-0.1-0.8-1.4-1.1-2.1-1.5c-0.4-0.2-0.6-0.7-0.5-1.1
				c0.3-1.5,0-3-0.7-4.3c-0.9-1.6-2.2-2.9-3.5-4.2C78.5,83.2,70.6,78,62.9,72.7c-1.2-0.8-2.5-1.5-3.9-2.1c-1-0.4-2.2-0.7-3.2-0.3
				c-0.9,0.4-1.4,1.7-0.8,2.4c-1.1-0.1-2.2,0.4-2.7,1.3c-0.6,0.9-0.5,2.1,0.1,3c-0.7-0.1-1.4,0.2-2,0.6c-1.5,1.1-1.6,3.4-0.7,5
				c0.8,1.6,2.4,2.8,3.9,3.9c6.5,4.8,13.1,9.5,19.7,14.3c1.8,1.3,3.5,2.6,5.5,3.4c1.7,0.7,4,1.9,5.5,0.8c0.8-0.6,1.5-0.7,2-0.6
				c0.8,0.2,1.4,1.7,2.2,1.5C89.3,105.9,89.8,105.1,90.5,104.3L90.5,104.3z"/>
		</mask>
		<g class="st15">
			<path class="st13" d="M65.2,94c6.9-0.6,13.9-0.8,20.9-0.4L65.2,94z"/>
			<path class="st13" d="M58.4,91c4.4,0.7,8.9,0.8,13.3,0.3c0.8-0.1,1.7-0.2,2.5-0.4c2.1-0.5,4.1-1.5,6.2-1.4c0.8,0,1.6,0.3,2.5,0.4
				c1.7,0.3,3.3,0.3,5,0.2"/>
			<path class="st13" d="M61.7,91.9l7.2,1.2c-1.8-0.1-3.5-0.2-5.3-0.3c1.4-0.2,2.9-0.4,4.3-0.5c-0.6,0.1-1.1,0.2-1.7,0.3h2.3
				c-1.2,0.1-2.4,0.2-3.7,0.2c1,0,2,0.5,2.8,1.1c0.8,0.6,1.5,1.4,2.2,2.2"/>
			<path class="st13" d="M85.2,106.1c2-1.1,4-2.3,5.9-3.7c0.5-0.4,1.1-0.9,1.1-1.6c-0.7,1-1.4,1.9-2.4,2.7c-0.9,0.7-2.1,1.2-3.3,1.3
				c-0.1,0-0.2,0-0.3-0.1c-0.1-0.1-0.2-0.3-0.2-0.4c0-0.5,0.3-1,0.5-1.5c0.8-1.6,1.8-3.2,2.8-4.7c-2.1,2-4.1,3.9-6.2,5.9
				c-0.9,0.9-1.9,1.8-2.8,2.8c1.5-0.4,2.8-1.3,4.1-2.2c2.9-2.1,5.7-4.5,8.2-7c-3.1,2.5-6.5,4.7-10,6.6c2.2-2,4.3-4.2,6-6.6l-6.6,5.4
				c2.2-2.1,4.3-4.3,6.2-6.5c-1.9,1.9-4,3.6-6.1,5.1c2.3-2.1,4.6-4.3,6.9-6.4c-2.3,1.9-4.5,3.9-6.6,5.9c2-1.9,3.6-4.2,4.8-6.7
				l-1,0.5c0.3-0.2,0.3-0.7,0.2-1c-0.2-0.3-0.4-0.6-0.7-0.8c-0.2-0.1-0.3-0.3-0.5-0.3c-0.2,0-0.3,0-0.4,0.1
				c-1.2,0.4-2.6,0.3-3.8-0.1c0.7,0,1.4-0.1,2.1-0.1c-1.3-0.2-2.7-0.4-4-0.2c-0.9,0.2-1.7,0.5-2.5,0.8c-1.7,0.5-3.5,0.7-5.2,0.9
				c-1.1,0.1-2.3,0.2-3.4,0.4c-2.1,0.2-4.4,0.5-6.4-0.3c0.4,0.7,1.3,1,2,1.3c2.8,1.1,5.4,2.6,8.1,4c3,1.5,6.1,2.9,9.2,4.2
				c-1.7-0.6-3.5-1.3-5.2-1.9c-1.1-0.4-2.2-0.8-3.2-1.5c-1-0.7-1.7-1.7-1.9-2.9c0-0.1,0-0.2,0.1-0.3c0.1-0.2,0.4-0.1,0.6,0
				c3.7,1.3,7.7,1.6,11.5,0.9c0.7-0.1,1.5-0.3,2.1-0.8c-0.6-0.1-1.2,0-1.7,0.2c-0.4,0.1-0.9,0.3-1.3,0.4c-0.4,0.1-0.9,0-1.3-0.3
				c-0.3-0.3-0.4-0.9,0-1.2c-0.3-0.4-1-0.2-1.4,0.1c-0.8,0.5-1.5,0.9-2.3,1.4c-0.1,0.1-0.3,0.2-0.3,0.3c0,0.1,0.1,0.2,0.1,0.3
				c1,1.2,2.1,2.3,3.5,3.1"/>
			<path class="st13" d="M66.5,94.8c0-0.1-0.1-0.3-0.2-0.4c-0.1,0-0.1,0-0.2-0.1c-0.1,0-0.2-0.1-0.3-0.2c-0.1-0.1-0.3-0.1-0.4-0.1"
				/>
			<path class="st13" d="M59.9,91.7c0.8-0.4,1.7-0.5,2.6-0.5c1,0,1.9,0,2.9,0c1.9,0,3.9,0.1,5.8,0.1c1.9,0.1,3.9,0,5.8,0.3
				c1.9,0.2,3.8,0.8,5.6,1.2c2.2,0.5,4.3,1.1,6.5,1.6c0.6,0.2,0.9-0.8,0.3-1c-2-0.5-4-1-6-1.5c-2-0.5-3.9-1.1-5.8-1.3
				c-2-0.3-3.9-0.3-5.9-0.3c-2-0.1-4-0.1-6-0.1c-1.1,0-2.2,0-3.3,0c-1,0-2,0.2-2.9,0.7C58.8,91.1,59.3,92,59.9,91.7L59.9,91.7z"/>
			<path class="st13" d="M88.6,103.8L88.6,103.8l3.4-0.8l-0.1-0.1l1.2,1.5c0-0.1,0.8-1.3,0.9-1.5c0.4-0.8,0.6-1.6,0.6-2.4
				c0.1-2.2-2.8-3.2-4.3-1.8c-1.5,1.4-2.9,2.9-4.3,4.4l3.9,3c1-1.4,2-2.8,2.8-4.4c1.3-2.5-1.9-5.1-3.9-3c-1.9,1.9-3.9,3.7-5.9,5.4
				l3.5,3.5c2.5-2.2,4.8-4.7,6.7-7.4c1.5-2.1-1.4-4.6-3.4-3.4c-2.4,1.4-4.7,3.1-6.8,5.1l3.5,3.5c1.8-1.7,3.4-3.6,4.9-5.6
				c1.8-2.4-1.9-4.7-3.9-3c-2.3,1.9-4.4,4-6.5,6.1l3.5,3.5c2.5-2.8,4.9-5.7,7.2-8.7c1.8-2.4-1.9-4.7-3.9-3c-1.4,1.2-2.8,2.5-4.1,3.9
				c-2.2,2.4,1.3,5.9,3.5,3.5c1.7-1.8,3.3-3.8,4.5-5.9c1.3-2.2-0.8-4-2.8-3.7c-0.7,0.1-1.4,0.2-2.1,0.3l3.2,2.4
				c-0.1-1.1,0.2-2-0.3-3c-0.2-0.4-0.7-0.9-1.1-1.1c-0.3-0.2-0.6-0.3-1-0.3c0.5,0.5,0.7,0.6,0.4,0.3c-1.5-1.8-4.2-0.7-6.1-1.1
				L81.2,95c1.2,0,2-0.4,3-1.1c0.9-0.7,0.9-2.2,0.4-3c-0.6-1-1.7-1.3-2.8-1.2c-0.5,0.1-1.1,0.1-1.6,0l-0.7,4.9
				c1.8,0.1,3.6,0.3,5.4,0.4c1.6,0.1,3.4,0.5,4.5-0.8c1.2-1.3,0.8-2.9-0.5-3.9c-1.3-1-2.9-0.9-4.4-1c-1.7-0.2-3.5-0.4-5.2-0.3
				c-1.8,0.2-3.3,0.6-4.7,1.5c-1.6,1-2.8,1.2-4.7,1.1v5c1.5-0.1,2.9-0.3,4.3-0.7c2.4-0.6,2.3-4.1,0-4.8c-1.9-0.6-3.9-0.5-5.8-0.4
				c-2.1,0.1-4.1-0.3-6.1-0.4c-1.6-0.1-3.2,0.8-3.4,2.6c-0.3,2.2,1.8,3.1,3.5,3.7c1.7,0.6,3.3,1.2,4.9,2c1.8,0.9,3.5,2,5.3,2.9
				c3.8,1.9,7.7,3.5,11.6,5.2l0.7-4.9c-1.9-0.2-4.9-0.7-6.2,1.2c-1.2,1.9,0.2,4.3,2.3,4.6c3.1,0.5,4.5-4.3,1.3-4.8l0.5,0.5l0.3,1.9
				l0.1-0.4l-1.7,1.7c1-0.3,2.3,0,3.3,0.1c1.2,0.1,2.3-1,2.5-2.2c0.2-1.3-0.6-2.2-1.8-2.7c-4.1-1.7-8.2-3.5-12.1-5.6
				c-1.7-0.9-3.4-1.9-5.2-2.8c-1-0.4-2-0.8-3-1.2c-0.4-0.1-0.9-0.3-1.3-0.4l-0.5-0.2c-0.6-0.3-0.6-0.2,0.1,0.3l0.3,1.9l0.1-0.2
				l-1.1,1.5c-0.8,0.4-0.1,0.3,0.5,0.4c0.4,0.1,0.9,0.1,1.3,0.2c1,0.1,2.1,0.2,3.1,0.1c1.8-0.1,3.6-0.4,5.4,0.1v-4.8
				c-1,0.3-1.9,0.4-2.9,0.5c-3.2,0.2-3.2,4.8,0,5c1.5,0.1,3.1,0.1,4.5-0.4c1.5-0.5,2.5-1.5,3.8-2c1.4-0.5,3.1-0.3,4.5-0.2
				c1,0.1,2.9-0.1,3.6,0.5l-0.5-3.9l-0.2,0.2l1.8-0.7c-1.2,0.1-2.6-0.1-3.9-0.2c-1.4-0.1-2.8-0.2-4.2-0.3c-2.8-0.2-3.5,4.4-0.7,4.9
				c1.5,0.3,2.8,0.3,4.3,0l-2.4-4.2l0.6-0.3c-2.7,0-3.5,4.4-0.7,4.9c1.4,0.3,3,0.5,4.4,0.2c-0.5-0.3-0.6-0.3-0.2-0.1
				c0.3,0.3,0.7,0.5,1.1,0.6c1,0.3,0.7-0.2-0.8-1.5c-0.1,0.4-0.1,0.8,0,1.2c0.2,1.8,1.5,2.7,3.2,2.4l2.1-0.3l-2.8-3.7
				c-1.1,1.8-2.3,3.4-3.7,4.9l3.5,3.5c1.3-1.4,2.6-2.7,4.1-3.9l-3.9-3c-2,2.7-4.2,5.2-6.4,7.7c-2.3,2.5,1.3,5.9,3.5,3.5
				c2-2.2,4.2-4.2,6.5-6.1l-3.9-3c-1.2,1.7-2.6,3.2-4.2,4.6c-2.4,2.2,1.2,5.7,3.5,3.5c1.8-1.6,3.7-3,5.8-4.3l-3.4-3.4
				c-1.7,2.4-3.7,4.5-6,6.3c-2.5,2.1,1.1,5.6,3.5,3.5c2.1-1.7,4-3.5,5.9-5.4l-3.9-3c-0.8,1.5-1.7,3-2.8,4.3c-1.7,2.3,2,5.1,3.9,3
				c1.4-1.5,2.8-3,4.3-4.4l-4.3-1.8c0,0.5-0.6,1-0.8,1.5c-0.3,0.6-0.5,1.2-0.6,1.9c-0.2,1.3,0.1,2.8,1.4,3.5
				c1.2,0.6,2.7,0.3,3.4-0.9l0,0C94.6,103.5,90.3,101,88.6,103.8L88.6,103.8z"/>
			<path class="st13" d="M60.2,94.4C60.1,94.4,60.1,94.4,60.2,94.4c0.1-0.1,0.3-0.1,0.4-0.1c0.5-0.1,1-0.1,1.5-0.1
				c1-0.1,2-0.1,3-0.1c1.9,0,3.7,0.3,5.5,0.8c3.7,1,7.2,2.4,11,2.2c3.2-0.1,3.2-5.1,0-5c-4.5,0.2-8.7-2.2-13.2-2.7
				c-2.3-0.3-4.7-0.3-7-0.1c-2.2,0.2-4.6,0.4-5.7,2.7C54.6,94.8,58.9,97.3,60.2,94.4L60.2,94.4z"/>
			<path class="st13" d="M59.1,93.8c1.9-1,4.4-0.6,6.5-0.5c2.4,0.2,5.1,0.4,7.3,1.5c2.2,1.1,4.1,2.2,6.6,2.2
				c2.7,0.1,5.4-0.1,8.1-0.2c3.2-0.1,3.2-5.1,0-5c-2.8,0.1-5.7,0.4-8.4,0.1c-2.5-0.2-4.6-2.2-7-2.8c-2.6-0.7-5.5-0.9-8.2-1
				s-5.1,0-7.4,1.3C53.8,91.1,56.3,95.4,59.1,93.8L59.1,93.8z"/>
			<path class="st13" d="M57.6,93.2c10.8,0.5,21.9,0.9,32.4-2.2c3.1-0.9,1.8-5.7-1.3-4.8c-10.1,2.9-20.7,2.4-31.1,2
				C54.4,88.1,54.4,93.1,57.6,93.2z"/>
		</g>
		<path class="st10" d="M56.9,70.5c0.7,0,1.5,0.3,2,0.5c1.3,0.5,2.5,1.2,3.8,2l1.4,0.9c7.2,4.9,14.6,9.9,21.1,15.9
			c1.2,1.1,2.6,2.5,3.4,4.1c0.7,1.3,0.9,2.7,0.7,4.1c-0.1,0.6,0.2,1.2,0.7,1.5c0.2,0.1,0.3,0.1,0.5,0.2c0.6,0.2,1.4,0.6,1.4,1
			c0.1,0.9-0.9,2.5-1.7,3.4c-0.1,0.1-0.2,0.3-0.4,0.4c-0.5,0.6-0.9,1.1-1.5,1.2c0,0,0,0-0.1,0c-0.3,0-0.5-0.3-0.8-0.7
			c-0.3-0.4-0.7-0.8-1.1-0.9c-0.2,0-0.3-0.1-0.5-0.1c-0.6,0-1.2,0.2-1.8,0.7c-0.3,0.3-0.8,0.4-1.3,0.4c-1,0-2.3-0.5-3.4-1
			c-0.2-0.1-0.4-0.2-0.6-0.2c-2-0.8-3.7-2.1-5.5-3.4l-9.8-7.1l-9.8-7.1c-1.4-1-2.9-2.1-3.8-3.7c-0.8-1.5-0.7-3.6,0.6-4.6
			c0.5-0.4,1-0.5,1.6-0.5c0.1,0,0.1,0,0.2,0l0.7,0L52.6,77c-0.5-0.8-0.6-1.9-0.1-2.7c0.4-0.7,1.3-1.2,2.1-1.2c0.1,0,0.2,0,0.3,0
			l0.8,0.1l-0.5-0.7C55,72.3,55,72,55.1,71.8c0.1-0.4,0.4-0.9,0.8-1.1C56.2,70.6,56.5,70.5,56.9,70.5 M56.9,70.2
			c-0.4,0-0.8,0.1-1.1,0.2c-0.9,0.4-1.4,1.7-0.8,2.4c-0.1,0-0.2,0-0.3,0c-1,0-1.9,0.5-2.4,1.3c-0.6,0.9-0.5,2.1,0.1,3
			c-0.1,0-0.1,0-0.2,0c-0.6,0-1.3,0.2-1.8,0.6c-1.5,1.1-1.6,3.4-0.7,5c0.8,1.6,2.4,2.8,3.9,3.9c6.5,4.8,13.1,9.5,19.7,14.3
			c1.8,1.3,3.5,2.6,5.5,3.4c1.2,0.5,2.7,1.3,4,1.3c0.5,0,1-0.1,1.5-0.5c0.6-0.5,1.2-0.6,1.6-0.6c0.1,0,0.3,0,0.4,0
			c0.8,0.2,1.3,1.6,2.1,1.6c0,0,0.1,0,0.1,0c1-0.2,1.5-1.1,2.1-1.8c0.7-0.8,1.8-2.6,1.8-3.7c-0.1-0.8-1.4-1.1-2.1-1.5
			c-0.4-0.2-0.6-0.7-0.5-1.1c0.3-1.4,0-3-0.7-4.3c-0.9-1.6-2.2-2.9-3.5-4.2C78.5,83.2,70.6,78,62.9,72.7c-1.2-0.8-2.5-1.5-3.9-2.1
			C58.4,70.4,57.6,70.2,56.9,70.2L56.9,70.2z"/>
		<path class="st11" d="M91.1,101.2l-2.1,3.1"/>
		<path class="st11" d="M90.4,100.9c-0.8,1-1.5,2.1-2.3,3.1"/>
		<path class="st11" d="M89.7,100.2c-1,1.1-1.8,2.2-2.6,3.5"/>
		<path class="st9" d="M129,212.9c-0.1,0.1-0.1,0.2-0.2,0.3c-0.1,0.1-0.1,0.1-0.2,0.1c-0.1,0.2-0.2,0.4-0.4,0.5
			c0,0.1-0.1,0.1-0.1,0.2c-0.1,0.1-0.2,0.3-0.3,0.4c0,0.1-0.1,0.1-0.1,0.1c0,0,0,0.1,0,0.1c0,0.1-0.1,0.1-0.1,0.2
			c-0.1,0.1-0.1,0.2-0.2,0.3c-0.1,0.3-0.3,0.5-0.5,0.7c-0.1,0.1-0.1,0.2-0.2,0.3c0,0.1-0.1,0.2-0.2,0.2c0,0,0,0.1-0.1,0.1
			c0,0.1-0.1,0.1-0.2,0.2c-0.1,0.1-0.1,0.2-0.2,0.3c-0.1,0.1-0.1,0.2-0.2,0.3c-0.1,0.1-0.2,0.2-0.3,0.3c-0.1,0.1-0.2,0.3-0.4,0.4
			c-0.2,0.1-0.2,0.3-0.4,0.5c-0.1,0.1-0.2,0.2-0.3,0.3c-0.1,0.1-0.3,0.3-0.4,0.4c0,0,0,0.1-0.1,0.1c0,0.1-0.1,0.1-0.1,0.1
			c-0.1,0.1-0.2,0.3-0.3,0.4c-0.1,0.2-0.3,0.4-0.4,0.6c-0.1,0.2-0.2,0.4-0.2,0.6c0,0.1,0,0.2,0,0.3c0,0.1,0,0.2-0.1,0.3
			c0,0.1,0,0.2-0.1,0.3c0,0.1-0.1,0.1-0.1,0.2c0,0.1,0,0.1-0.1,0.2c0,0-0.1,0.1-0.1,0.1c-0.1,0.1-0.1,0.2-0.2,0.2
			c-0.1,0.1-0.2,0.5-0.3,0.4c-0.2-0.1-0.6-0.4-0.8-0.5c-0.1-0.1-0.2-0.1-0.3-0.2c-0.1-0.1-0.3-0.1-0.4-0.2c-0.2-0.2-0.3-0.3-0.5-0.5
			c-0.1-0.2-0.2-0.3-0.3-0.4c-0.1-0.1-0.1-0.1-0.2-0.1c-0.1-0.1-0.1-0.2-0.2-0.3c-0.1-0.2-0.3-0.2-0.4-0.3c-0.1-0.1-0.3-0.2-0.4-0.3
			c-0.2-0.1-0.4-0.1-0.6-0.2c-0.2-0.1-0.4-0.2-0.6-0.3c-0.1,0-0.3-0.1-0.4-0.1c-0.1,0-0.2-0.1-0.2-0.1c-0.1,0-0.2,0-0.2,0
			c-0.1,0-0.1-0.1-0.2-0.1c-0.1,0-0.1,0-0.2,0c-0.1,0-0.1,0-0.2,0c-0.1,0-0.2,0-0.3,0c-0.2,0-0.4-0.1-0.6,0c-0.2,0-0.5,0-0.7,0
			c-0.5,0.1-1,0.1-1.5,0.3c-0.2,0.1-0.4,0.1-0.5,0.2c-0.2,0.1-0.4,0.2-0.7,0.3l-1.1,0.5c-0.2,0.1-0.4,0.2-0.6,0.3
			c-0.2,0.1-0.4,0.1-0.6,0.2c-0.3,0.1-0.6,0.2-0.8,0.4c-0.1,0.1-0.2,0.1-0.3,0.2c-0.1,0.1-0.2,0.1-0.3,0.2c-0.2,0.1-0.2,0.3-0.4,0.4
			c-0.1,0.1-0.1,0.1-0.2,0.2c0,0.1-0.1,0.1-0.1,0.2c-0.1,0.1-0.1,0.1-0.2,0.2c-0.1,0.2-0.4,0.3-0.5,0.5c-0.1,0.1-0.1,0.2-0.1,0.2
			c-0.1,0.1-0.2,0.2-0.2,0.3c-0.1,0.1-0.2,0.2-0.2,0.3c-0.1,0.1-0.1,0.1-0.1,0.2c-0.1,0.1-0.1,0.1-0.2,0.2c-0.1,0.1-0.2,0.3-0.2,0.4
			c-0.1,0.2-0.2,0.5-0.2,0.7c0,0.1,0,0.2-0.1,0.3c0,0.1,0,0.2-0.1,0.2c-0.1,0.1-0.3,0.2-0.5,0.2c-0.1,0-0.1,0.1-0.2,0.1
			c-0.2,0.1-0.3,0.1-0.5,0.2c-0.1,0-0.2,0-0.2,0.1c-0.1,0-0.2,0.1-0.3,0.1c-0.2,0-0.4,0.1-0.6,0.2c-0.2,0.1-0.4,0.1-0.6,0.2
			c-0.1,0-0.2,0.2-0.2,0.2c0,0.1,0.1,0.4,0.1,0.6c0,0.1,0,0.1,0,0.2c0,0.1,0,0.1,0,0.2c0,0.1,0,0.2,0,0.3c0,0.1,0,0.1,0,0.2
			c0,0.1,0,0.2,0.1,0.3c0,0.2,0,0.5,0,0.7c0,0.1,0.1,0.2,0.1,0.3c0,0.1,0,0.3,0.1,0.4c0,0.1,0.1,0.2,0.1,0.3c0,0.1,0.1,0.2,0.1,0.3
			c0.2,0.7,0.3,1.4,0.4,2.1c0.1,0.5,0.6,0.8,1.1,0.7c0.1,0,0.3-0.1,0.4-0.2c0.1,0,0.1,0,0.2,0c0.1,0,0.1,0,0.2-0.1
			c0.1,0,0.1,0,0.1,0c0.1,0,0.1-0.1,0.2-0.1c0.1,0,0.1,0,0.1,0c0.1,0,0.1,0,0.2-0.1c0.1-0.1,0.2-0.1,0.4-0.1
			c0.2-0.1,0.4-0.2,0.7-0.2c0.1,0,0.2,0,0.3,0c0,0,0.1,0,0.1,0.1c0.1,0,0.1,0,0.2,0c0.1,0,0.2,0.1,0.2,0.1c0,0,0.1,0,0.1,0
			c0.1,0,0.1,0,0.2,0c0.1,0,0.2,0,0.3,0c0,0,0.1,0,0.2,0c0.1,0,0.1,0.1,0.2,0.1c0.1,0,0.1,0,0.1,0c0.1,0,0.1,0.1,0.2,0.1
			c0.1,0,0.1,0,0.2,0c0.1,0,0.1,0.1,0.2,0.1c0.1,0,0.1,0,0.2,0.1c0,0,0.1,0.1,0.1,0.1c0.1,0.1,0.3,0.1,0.4,0.2c0.1,0,0.2,0,0.2,0.1
			c0.1,0,0.2,0.1,0.2,0.1c0.1,0,0.2,0.1,0.2,0.1c0.1,0,0.2,0.1,0.3,0.1c0.1,0,0.1,0.1,0.2,0.1c0,0,0.1,0,0.1,0c0.1,0,0.1,0,0.1,0.1
			c0.1,0.1,0.2,0.1,0.3,0.1c0.1,0,0.1,0.1,0.2,0.1c0.1,0,0.2,0,0.2,0.1c0,0,0.1,0.1,0.1,0.1c0.1,0,0.1,0,0.2,0
			c0.1,0,0.1,0.1,0.1,0.1c0.1,0,0.1,0,0.2,0c0.1,0,0.3,0.1,0.4,0.1c0.1,0,0.1,0,0.2,0.1c0,0,0.1,0,0.1,0.1c0,0,0.1,0,0.1,0
			c0.1,0,0.1,0.1,0.2,0.1c0.1,0,0.2,0,0.3,0c0.1,0,0.1,0,0.2,0.1c0.1,0,0.2,0,0.3,0c0.1,0,0.2,0,0.3,0c0.1,0,0.2,0,0.3,0
			c0.2,0,0.4,0.1,0.5,0c0.1,0,0.1,0,0.2,0c0.1,0,0.2,0,0.2,0c0.1,0,0.2,0,0.3,0c0.1,0,0.2,0,0.3,0c0.2,0,0.3,0,0.5,0
			c0.1,0,0.2,0,0.4-0.1c0.2,0,0.4,0,0.6-0.1c0.1,0,0.2-0.1,0.3-0.1c0.1,0,0.2,0,0.3-0.1c0.1,0,0.2-0.1,0.2-0.1c0.1,0,0.2,0,0.3-0.1
			c0.5-0.2,0.9-0.4,1.4-0.6c0.1,0,0.2-0.1,0.2-0.1c0.1-0.1,0.2-0.1,0.3-0.2c0.1-0.1,0.3-0.3,0.4-0.4c0.2-0.1,0.3-0.3,0.4-0.5
			c0.1-0.1,0.2-0.2,0.2-0.3c0.1-0.1,0.1-0.2,0.2-0.3c0.1-0.2,0.2-0.3,0.3-0.5c0,0,0-0.1,0.1-0.1c0,0,0.1,0,0.1-0.1c0,0,0-0.1,0-0.1
			c0-0.1,0.1-0.1,0.1-0.2c0.2-0.3,0.3-0.6,0.6-0.9c0,0,0.1-0.1,0.1-0.1c0,0,0,0,0-0.1c0,0,0,0,0-0.1c0,0,0,0,0-0.1c0,0,0,0,0-0.1
			c0,0,0-0.1,0-0.1c0-0.1,0.1-0.2,0.2-0.3c0.1-0.1,0.1-0.2,0.1-0.3c0.1,0,0.2,0.1,0.3,0.2c0.1,0,0.1,0,0.2,0c0.1,0,0.1,0,0.2,0
			c0.1,0,0.2,0,0.2,0c0.1,0,0.2-0.1,0.2-0.1c0.2,0,0.3-0.1,0.4-0.2c0.1-0.1,0.2-0.2,0.3-0.3c0-0.1,0-0.1,0.1-0.2
			c0-0.1,0.1-0.1,0.1-0.2c0-0.1,0-0.1,0-0.2c0,0,0-0.1,0-0.1c0,0,0-0.1,0-0.1c0-0.1,0-0.2,0-0.2c0-0.1,0-0.1,0-0.2
			c0,0,0.2,0,0.2,0.1c0.1,0,0.1,0.1,0.2,0.2c0,0,0.1,0,0.2,0c0,0,0.1,0.1,0.1,0.1c0.1,0,0.1,0,0.2,0.1c0.1,0,0.1,0.1,0.2,0.1
			c0,0,0.1,0,0.1,0c0,0,0.1,0.1,0.1,0.1c0.1,0,0.2,0,0.3,0c0.1,0,0.1,0,0.2,0c0.1,0,0.1,0,0.1,0c0,0,0.1,0,0.1,0
			c0.1,0,0.1,0,0.2-0.1c0.1,0,0.2,0,0.3,0c0.1,0,0.1,0,0.2,0c0.1,0,0.1,0,0.2-0.1c0.2,0,0.5,0.1,0.7,0c0.1,0,0.1,0,0.2,0
			c0.1,0,0.2,0,0.3,0c0.1,0,0.2-0.1,0.3-0.1c0.1,0,0.2,0,0.2-0.1c0.1,0,0.2,0,0.3-0.1c0.1,0,0.2-0.1,0.4-0.1c0.2,0,0.4-0.1,0.5-0.1
			c0.1,0,0.1,0,0.2,0c0.1,0,0.2,0,0.2,0.1c0,0,0.1,0.1,0.1,0.1c0.1,0,0.1,0,0.1,0c0.1,0,0.2,0.1,0.3,0.1c0.1,0,0.2,0,0.2,0
			c0.1,0,0.1,0,0.2,0c0.1,0,0.1,0.1,0.2,0c0.1,0,0.3,0,0.4,0c0.1,0,0.1,0,0.2,0c0.1,0,0.1,0,0.2,0c0.1,0,0.1,0,0.1,0
			c0.1,0,0.1,0,0.1,0c0.1,0,0.1,0,0.2,0c0.1,0,0.1,0,0.2,0c0.1,0,0.2,0,0.2,0c0,0,0.1,0,0.1,0c0.1,0,0.1,0,0.1-0.1
			c0.2-0.1,0.5-0.1,0.8-0.2c0.2-0.1,0.4-0.1,0.6-0.2c0.2-0.1,0.4-0.1,0.6-0.1c0.1,0,0.2-0.1,0.3-0.1c0.1,0,0.2,0,0.3,0
			c0,0,0.1,0,0.1,0c0.1,0,0.1,0,0.2-0.1c0,0,0.1,0,0.2,0c0.1,0,0.1,0,0.2,0c0.1,0,0.2,0,0.2,0c0.1,0,0.2,0,0.3-0.1
			c0.2,0,0.4,0,0.7-0.1c0.1,0,0.1-0.1,0.2-0.1c0.1,0,0.2,0,0.3,0c0.2,0,0.3-0.1,0.5-0.1c0.2-0.1,0.4-0.1,0.6-0.1
			c0.1,0,0.2-0.1,0.3-0.1c0.1,0,0.2,0,0.3-0.1c0.1,0,0.1-0.1,0.2-0.1c0.1,0,0.1,0,0.2-0.1c0.1,0,0.2-0.1,0.3-0.1
			c0.1-0.1,0.3-0.1,0.4-0.1c0.2-0.1,0.4-0.2,0.6-0.2c0.3-0.1,0.6-0.2,0.9-0.4c0.1-0.1,0.2-0.1,0.3-0.2c0.2-0.1,0.3-0.2,0.5-0.3
			c0.1-0.1,0.4-0.2,0.5-0.3c0.1-0.1,0.3-0.2,0.4-0.3c0.2-0.2,0.5-0.3,0.7-0.4c0.1-0.1,0.3-0.2,0.4-0.3c0.1,0,0.1-0.1,0.2-0.1
			c0.1,0,0.1-0.1,0.2-0.1c0.1,0,0.1,0,0.2-0.1c0.1,0,0.1-0.1,0.2-0.1c0.1-0.1,0.3-0.2,0.4-0.2c0.3-0.1,0.5-0.3,0.7-0.5
			c0.2-0.2,0.5-0.4,0.7-0.6c0.1-0.1,0.3-0.4,0.4-0.6c0,0,0-0.1,0.1-0.1c0-0.1,0-0.2,0-0.3c0-0.1,0-0.2,0-0.3c0-0.1,0-0.2,0-0.3
			c0-0.1,0-0.2,0-0.3c0-0.1-0.1-0.2-0.1-0.3c0-0.2-0.2-0.4-0.2-0.6c0-0.1-0.1-0.2-0.2-0.2c0,0-0.1-0.1-0.1-0.1c0,0-0.1,0-0.1-0.1
			c0,0,0-0.1-0.1-0.1c0,0-0.1,0-0.2-0.1c-0.1,0-0.1-0.1-0.2-0.1c0.1-0.1,0.1-0.1,0.2-0.2c0-0.1,0.1-0.1,0.1-0.2c0.1-0.1,0-0.1,0-0.2
			c0-0.1,0-0.1,0-0.2c0-0.1,0-0.1,0-0.2c0-0.2,0-0.2,0-0.4c0-0.2,0-0.3-0.1-0.5c0-0.1-0.1-0.3-0.1-0.4c0-0.2-0.1-0.3-0.2-0.5
			c-0.1-0.1-0.1-0.2-0.2-0.4c-0.1-0.3-0.3-0.6-0.5-0.8c-0.1-0.1-0.1-0.1-0.2-0.2c-0.1-0.1-0.1-0.1-0.2-0.1c-0.1,0-0.1-0.1-0.1-0.1
			c-0.1-0.1-0.2-0.1-0.3-0.1c-0.1,0-0.2-0.1-0.3-0.1c-0.1-0.1-0.2,0-0.4-0.1c0,0-0.2-0.1-0.2-0.1c0.1-0.1,0.1-0.2,0.2-0.4
			c0.1-0.2,0.1-0.5,0.1-0.7c0-0.1,0-0.2,0-0.3c0-0.1,0-0.3,0-0.4c0-0.1-0.1-0.1-0.1-0.2c0-0.1,0-0.2,0-0.2c0-0.2,0-0.3-0.1-0.5
			c-0.1-0.3-0.2-0.7-0.3-1c-0.1-0.2-0.2-0.4-0.3-0.6c0-0.1-0.1-0.1-0.1-0.2c-0.1-0.1-0.2-0.2-0.3-0.3c-0.1-0.1-0.1-0.1-0.2-0.2
			c-0.1-0.1-0.2-0.1-0.3-0.2c-0.1-0.1-0.1-0.1-0.2-0.1c-0.1,0-0.1-0.1-0.2-0.1c-0.1,0-0.2,0-0.3-0.1c0,0-0.1-0.1-0.1-0.1
			c-0.1,0-0.1,0-0.2,0c-0.1,0-0.1,0-0.2-0.1c-0.1,0-0.2,0-0.2,0c-0.1,0-0.2,0-0.2,0c-0.1,0-0.2,0-0.3,0c-0.5,0-1.1,0.2-1.6,0.2
			c-0.3,0-0.6,0-0.9,0c-0.2,0-0.4,0.1-0.6,0.1c-0.2,0-0.5,0.1-0.7,0.1c-0.4,0.1-0.8,0.2-1.3,0.3c-0.2,0.1-0.4,0.1-0.6,0.2
			c-0.2,0.1-0.4,0.1-0.6,0.2c-0.4,0.1-0.7,0.2-1.1,0.3c-0.4,0.1-0.8,0.3-1.2,0.4c-0.3,0.1-0.6,0.1-0.8,0.3c-0.1,0.1-0.2,0.1-0.4,0.1
			c-0.1,0-0.3,0.1-0.4,0.2c-0.2,0.1-0.5,0.1-0.7,0.2c-0.3,0.1-0.6,0.3-0.8,0.4c-0.3,0.1-0.6,0.2-0.9,0.3c-0.1,0-0.2,0.1-0.3,0.1
			c-0.1,0-0.1,0-0.2,0c-0.2,0.1-0.3,0.1-0.5,0.1C129.3,212.5,129.1,212.8,129,212.9L129,212.9z"/>
		<path class="st9" d="M112.8,226.1c0.1,0.2,0.4,0.2,0.6,0.3c0.1,0,0.2,0.1,0.2,0.1c0.1,0,0.2,0.1,0.3,0.1c0.2,0.1,0.4,0.1,0.6,0.2
			c0.1,0,0.2,0.1,0.3,0.1c0.1,0,0.2,0.1,0.3,0.1c0.2,0.1,0.5,0.1,0.7,0.2c0.3,0.2,0.7,0.2,1.1,0.3c0.2,0.1,0.3,0.1,0.5,0.1
			c0.1,0,0.3,0,0.4,0c0.2,0,0.3,0.1,0.5,0.1c0.1,0,0.2,0.1,0.2,0.1c0.1,0,0.1,0,0.2,0c0.1,0,0.1,0.1,0.1,0.1c0,0,0.1,0,0.1,0
			c0.1,0,0.2,0.1,0.3,0.1c0.1,0,0.2,0.1,0.3,0.1c0,0,0,0,0,0.1c0,0,0,0,0.1,0c0,0,0.1,0,0.2,0.1c0.1,0.1,0.3,0.2,0.4,0.3
			c0.1,0,0.1,0.1,0.2,0.2c0.1,0,0.1,0,0.2,0c0.1,0,0.1,0.1,0.1,0.1"/>
		<path class="st9" d="M114.9,230.7c0.1,0,0.1,0,0.2,0c0.1,0,0.2,0,0.3,0c0.3,0,0.5,0,0.8-0.1c0.2,0,0.3,0,0.5,0
			c0.1,0,0.3,0,0.4-0.1c0.2-0.1,0.5,0,0.8-0.1c0.3-0.1,0.5-0.1,0.8-0.1c0.1,0,0.2,0,0.3,0c0.1,0,0.2-0.1,0.3-0.1c0.1,0,0.1,0,0.2,0
			c0.1,0,0.1,0,0.2,0c0.1,0,0.2-0.1,0.3-0.1c0.1,0,0.1,0,0.2,0"/>
		<path class="st9" d="M124.8,226.9c0.1-0.1,0.2-0.1,0.3-0.2c0.1-0.1,0.2-0.3,0.3-0.4c0.1-0.1,0.1-0.2,0.1-0.3
			c0-0.1,0.1-0.2,0.1-0.2c0-0.1,0.1-0.2,0.1-0.4c0-0.1,0-0.2,0-0.3c0-0.1,0.1-0.1,0.1-0.2c0-0.1,0-0.1,0-0.2c0,0,0-0.1,0-0.1
			c0-0.1,0-0.2,0-0.3c0-0.1,0-0.2,0-0.3c0-0.1,0-0.2,0-0.4c0-0.1,0-0.2,0-0.2c0-0.1,0-0.1,0-0.2c0-0.1,0.1-0.2,0-0.3"/>
		<path class="st9" d="M123.6,224.6c0-0.1,0-0.1,0-0.2c0-0.1,0-0.1,0-0.2c0-0.1,0.1-0.1,0.1-0.2c0.1-0.2,0.1-0.3,0.3-0.5
			c0.2-0.2,0.3-0.4,0.3-0.6c0-0.2,0-0.3,0.1-0.5c0.1-0.1,0.1-0.1,0.2-0.2c0,0,0.1-0.1,0.2-0.1c0.1,0,0.1,0,0.2,0c0.1,0,0.3,0,0.4,0
			c0.1,0,0.3,0,0.4-0.1c0.4-0.1,0.7-0.3,1.1-0.5c0.1,0,0.1-0.1,0.2-0.1c0.1-0.1,0.2-0.2,0.3-0.2c0.1-0.1,0.2-0.2,0.3-0.3
			c0.1-0.1,0.2-0.1,0.3-0.2c0.1-0.1,0.2-0.2,0.3-0.3s0.1-0.2,0.2-0.4c0-0.1,0.1-0.2,0.1-0.3c0-0.1,0.1-0.2,0.1-0.4
			c0-0.3,0.1-0.6,0.1-0.9c0-0.1,0-0.3,0-0.4c0-0.1,0-0.1,0-0.2"/>
		<path class="st9" d="M123.7,228.9c0.1,0,0.1-0.1,0.2-0.2c0.1-0.1,0.1-0.4,0.1-0.5c0-0.1,0-0.2,0-0.3c0-0.1,0-0.2,0-0.3
			c0-0.1,0-0.3-0.1-0.4l0,0"/>
		<path class="st9" d="M103.9,233.1c0-0.1,0-0.2,0-0.2c0-0.3-0.1-0.6-0.2-0.9c-0.1-0.7-0.2-1.4-0.3-2c-0.1-0.4-0.1-0.7-0.2-1.1
			c0-0.2-0.1-0.4-0.1-0.5"/>
		<path class="st9" d="M104.6,232.8c0,0,0-0.1,0-0.2c0-0.2,0-0.3-0.1-0.5c-0.1-0.6-0.1-1.1-0.2-1.7c-0.1-0.5-0.2-1-0.3-1.5
			c0-0.1-0.1-0.2-0.1-0.4"/>
		<path class="st9" d="M105.6,232.7c0-0.1,0-0.2,0-0.3c0-0.2-0.1-0.5-0.1-0.7c-0.1-0.6-0.2-1.1-0.3-1.7c-0.1-0.6-0.2-1.1-0.4-1.7
			c0-0.2-0.1-0.3-0.2-0.4c0-0.1,0-0.2-0.1-0.3"/>
		<path class="st10" d="M143.7,209.2c0.1,0,0.1,0,0.1,0c0,0,0,0,0,0c0,0,0.1,0,0.2,0h0.1c0,0,0.1,0,0.1,0c0,0,0.1,0,0.1,0.1
			c0.1,0,0.2,0.1,0.3,0.1h0c0,0,0,0,0,0c0,0,0.1,0.1,0.2,0.1c0,0,0,0,0,0c0,0,0,0,0,0c0.1,0.1,0.1,0.1,0.2,0.1c0,0,0,0,0.1,0
			c0,0,0,0,0.1,0.1c0,0,0.1,0.1,0.1,0.1c0,0,0.1,0.1,0.1,0.1c0.1,0.1,0.1,0.1,0.2,0.2c0,0,0.1,0.1,0.1,0.1c0.1,0.1,0.1,0.3,0.2,0.4
			c0,0.1,0.1,0.2,0.1,0.2c0.1,0.2,0.2,0.5,0.2,0.7c0,0.1,0.1,0.2,0.1,0.3c0,0.1,0.1,0.3,0.1,0.4v0.1c0,0.1,0,0.1,0,0.2
			c0,0.1,0,0.1,0.1,0.2c0,0,0,0,0,0c0,0.1,0,0.2,0,0.2c0,0.1,0,0.1,0,0.2c0,0.1,0,0.1,0,0.2c0,0,0,0.1,0,0.1c0,0.3,0,0.5,0,0.5
			c0,0.1-0.1,0.2-0.1,0.2c0,0,0,0.1,0,0.1l-0.2,0.2l0.2,0.3c0.1,0.1,0.1,0.1,0.4,0.2c0.1,0,0.2,0,0.2,0c0,0,0.1,0,0.1,0l0.1,0
			c0.1,0,0.2,0.1,0.3,0.1c0,0,0.1,0,0.1,0c0,0,0.1,0,0.1,0c0,0,0.1,0.1,0.2,0.1c0,0,0.1,0,0.1,0.1c0,0,0,0,0,0l0,0
			c0.1,0.1,0.1,0.1,0.2,0.2c0.2,0.1,0.3,0.4,0.4,0.6l0,0.1l0.1,0.1l0.1,0.2c0.1,0.1,0.1,0.3,0.1,0.4l0,0.1c0,0.1,0.1,0.2,0.1,0.3
			c0,0,0,0.1,0,0.1c0,0.1,0,0.3,0.1,0.4c0,0.1,0,0.1,0,0.2c0,0.1,0,0.2,0,0.2v0c0,0,0,0,0,0c0,0,0,0.1,0,0.1v0c0,0,0,0.1-0.1,0.1
			l0,0.1c0,0,0,0-0.1,0.1c0,0-0.1,0.1-0.1,0.1l-0.5,0.6l0.7-0.1c0,0,0.1,0.1,0.1,0.1c0,0,0.1,0,0.1,0c0,0,0,0,0,0.1
			c0.1,0.1,0.1,0.1,0.2,0.1c0,0,0,0,0,0c0,0,0,0,0,0c0.1,0.1,0.1,0.1,0.1,0.1c0,0.1,0.1,0.1,0.1,0.2c0.1,0.1,0.1,0.3,0.1,0.4
			c0,0.1,0.1,0.2,0.1,0.3c0,0,0,0.1,0,0.1v0.1c0,0.1,0,0.1,0,0.2c0,0,0,0.1,0,0.1c0,0.1,0,0.1,0,0.1c0,0.1,0,0.1,0,0.2
			c0,0,0,0.1,0,0.1c0,0,0,0.1,0,0.1c0,0,0,0.1,0,0.1c0,0,0,0.1,0,0.1c-0.1,0.1-0.2,0.4-0.3,0.4c-0.2,0.2-0.4,0.3-0.7,0.6
			c0,0-0.1,0.1-0.1,0.1c-0.2,0.1-0.3,0.3-0.5,0.3c-0.1,0.1-0.3,0.1-0.4,0.2l0,0c0,0-0.1,0-0.1,0.1c0,0,0,0,0,0c0,0,0,0,0,0
			c0,0-0.1,0-0.2,0.1c-0.1,0-0.1,0.1-0.1,0.1c0,0,0,0,0,0c0,0,0,0-0.1,0c0,0-0.1,0-0.2,0.1c0,0-0.1,0.1-0.1,0.1
			c-0.1,0.1-0.2,0.1-0.3,0.2c-0.1,0-0.2,0.1-0.2,0.1c-0.2,0.1-0.3,0.2-0.5,0.3c-0.1,0.1-0.2,0.1-0.3,0.2l0,0
			c-0.1,0.1-0.3,0.2-0.5,0.3c-0.1,0-0.2,0.1-0.3,0.1c-0.1,0-0.1,0.1-0.2,0.1c-0.1,0-0.2,0.1-0.2,0.1c0,0-0.1,0.1-0.1,0.1
			c-0.2,0.1-0.4,0.2-0.6,0.2l-0.3,0.1c-0.1,0-0.1,0.1-0.2,0.1c-0.1,0.1-0.2,0.1-0.4,0.2c0,0-0.1,0-0.1,0c-0.1,0-0.2,0-0.3,0.1
			c-0.1,0-0.1,0-0.1,0.1c-0.1,0-0.1,0-0.2,0.1c0,0,0,0-0.1,0l-0.1,0c-0.1,0-0.2,0.1-0.2,0.1c0,0,0,0-0.1,0c0,0-0.1,0-0.1,0
			c-0.1,0-0.1,0-0.2,0.1c0,0-0.1,0-0.1,0.1c-0.1,0-0.1,0.1-0.2,0.1c-0.1,0-0.2,0-0.3,0.1c-0.1,0-0.2,0-0.3,0.1c-0.1,0-0.1,0-0.2,0.1
			c-0.1,0-0.2,0.1-0.3,0.1c0,0,0,0-0.1,0c-0.1,0-0.1,0-0.2,0c-0.1,0-0.1,0-0.1,0.1c0,0,0,0-0.1,0c-0.1,0-0.2,0-0.3,0
			c-0.1,0-0.2,0-0.4,0c0,0-0.1,0-0.1,0c0,0-0.1,0-0.1,0c0,0-0.1,0-0.1,0c0,0-0.1,0-0.2,0c-0.1,0-0.1,0-0.2,0h0c0,0-0.1,0-0.1,0h0
			c-0.1,0-0.1,0-0.2,0c0,0,0,0-0.1,0c-0.1,0-0.1,0-0.2,0c0,0-0.1,0-0.1,0c0,0-0.1,0-0.1,0c-0.1,0-0.2,0-0.2,0c0,0,0,0-0.1,0l-0.1,0
			c-0.2,0-0.4,0.1-0.7,0.2c-0.1,0-0.2,0.1-0.3,0.1c-0.1,0-0.2,0.1-0.4,0.1c-0.1,0-0.2,0.1-0.3,0.1c-0.1,0-0.3,0.1-0.4,0.1
			c0,0,0,0-0.1,0c0,0-0.1,0-0.1,0c0,0-0.1,0-0.1,0c0,0,0,0,0,0h0c0,0-0.1,0-0.2,0h0c0,0-0.1,0-0.1,0c0,0-0.1,0-0.2,0h0
			c0,0-0.1,0-0.1,0c0,0-0.1,0-0.2,0c0,0,0,0-0.1,0l0,0c0,0,0,0,0,0h0c-0.1,0-0.2,0-0.3,0c-0.1,0-0.2,0-0.3,0c0,0,0,0,0,0
			c0,0-0.1,0-0.1,0c0,0-0.1,0-0.1,0c0,0-0.1,0-0.1,0c0,0,0,0-0.1,0c0,0-0.1,0-0.1,0c0,0,0,0,0,0c0,0-0.1,0-0.1,0
			c-0.1,0-0.1,0-0.2-0.1c0,0-0.1,0-0.1,0h-0.1c0,0-0.1,0-0.1,0l0,0c-0.1,0-0.2-0.1-0.3-0.1l-0.1,0l-0.1,0h-0.1c-0.2,0-0.4,0-0.5,0.1
			c-0.1,0-0.2,0.1-0.3,0.1c0,0-0.1,0-0.1,0c0,0,0,0-0.1,0c-0.1,0-0.2,0-0.3,0.1c0,0,0,0,0,0c0,0-0.1,0-0.2,0c0,0-0.1,0-0.1,0.1
			c0,0-0.1,0-0.1,0c0,0-0.1,0-0.1,0c0,0-0.1,0-0.1,0h0c-0.1,0-0.2,0-0.3,0.1c0,0-0.1,0-0.1,0c-0.1,0-0.1,0-0.2,0c-0.1,0-0.1,0-0.2,0
			c-0.1,0-0.1,0-0.2,0c0,0-0.1,0-0.1,0l0,0c0,0-0.1,0-0.1,0c0,0,0,0-0.1,0c-0.1,0-0.2,0-0.2,0H128c0,0-0.1,0-0.1,0c0,0,0,0,0,0l0,0
			c0,0,0,0-0.1,0c-0.1,0-0.2,0-0.2,0c0,0-0.1,0-0.1,0c0,0,0,0-0.1,0c0,0-0.1-0.1-0.2-0.1l0,0h0c0,0-0.1,0-0.1,0c0,0-0.1,0-0.1-0.1
			c-0.1,0-0.1,0-0.2,0h0c0,0-0.1-0.1-0.2-0.1c-0.1,0-0.1,0-0.2,0c0,0,0,0,0,0c0,0-0.1-0.1-0.2-0.1l0,0c-0.1,0-0.2-0.1-0.3-0.1
			c-0.1,0-0.1,0-0.2,0l-0.2,0.1l0.1,0.3c0,0,0,0,0,0c0,0,0,0.1,0,0.1c0,0.1,0,0.1,0,0.2c0,0,0,0,0,0c0,0,0,0.1,0,0.1
			c0,0.1,0,0.1,0,0.1c0,0,0,0.1,0,0.1c0,0,0,0.1,0,0.1l0,0.1c0,0,0,0.1,0,0.1c0,0,0,0,0,0c-0.1,0.1-0.1,0.1-0.1,0.1c0,0-0.1,0-0.1,0
			c-0.1,0-0.2,0.1-0.3,0.1c-0.1,0-0.1,0-0.2,0.1c0,0,0,0-0.1,0h-0.1c0,0-0.1,0-0.2,0c0,0,0,0,0,0l-0.1,0c0,0-0.1,0-0.1,0
			c0,0,0,0-0.1,0c-0.1-0.1-0.2-0.1-0.4-0.1h0l0,0l-0.2,0l0,0.2c0,0,0,0.1,0,0.1c0,0,0,0.1,0,0.1c-0.1,0.1-0.1,0.2-0.2,0.3
			c0,0,0,0,0,0c0,0-0.1,0.1-0.1,0.1c0,0,0,0.1,0,0.1c0,0,0,0,0,0.1c0,0,0,0,0,0.1c-0.2,0.3-0.4,0.6-0.6,0.9c0,0,0,0.1-0.1,0.1
			c0,0,0,0.1-0.1,0.1l-0.1,0.1c-0.1,0.1-0.1,0.1-0.1,0.2c-0.1,0.1-0.2,0.3-0.3,0.4c0,0.1-0.1,0.1-0.1,0.2c0,0,0,0.1-0.1,0.1
			c-0.1,0.1-0.2,0.2-0.2,0.3c0,0.1-0.1,0.1-0.1,0.2c-0.1,0.1-0.1,0.2-0.2,0.2h0l0,0c-0.1,0.1-0.2,0.1-0.3,0.3c0,0-0.1,0.1-0.1,0.1
			c0,0-0.1,0.1-0.1,0.1c0,0-0.1,0.1-0.1,0.1c-0.1,0-0.1,0-0.2,0.1l-0.1,0l-0.5,0.2c-0.3,0.1-0.6,0.3-0.9,0.4c0,0-0.1,0-0.1,0
			c-0.1,0-0.1,0-0.2,0c-0.1,0-0.1,0.1-0.2,0.1l-0.1,0c-0.1,0-0.1,0-0.2,0.1l0,0c-0.1,0-0.2,0-0.2,0.1c0,0-0.1,0-0.1,0
			c-0.1,0-0.1,0-0.2,0c-0.1,0-0.2,0-0.3,0c0,0-0.1,0-0.1,0c-0.1,0-0.1,0-0.2,0h0c-0.2,0-0.3,0-0.4,0l-0.1,0c0,0-0.1,0-0.1,0
			c-0.1,0-0.1,0-0.2,0c-0.1,0-0.1,0-0.2,0h0c0,0-0.1,0-0.1,0c0,0-0.1,0-0.1,0h0c0,0,0,0,0,0c0,0-0.1,0-0.1,0c-0.1,0-0.1,0-0.2,0
			c0,0,0,0-0.1,0c0,0-0.1,0-0.2,0c-0.1,0-0.1,0-0.2,0h0c-0.1,0-0.1,0-0.2,0c0,0-0.1,0-0.1,0h0c-0.1,0-0.1,0-0.2,0
			c-0.1,0-0.1,0-0.2,0H114c0,0-0.1,0-0.1,0c0,0-0.1,0-0.1,0h0c0,0,0,0,0,0c-0.1,0-0.1,0-0.2,0c-0.1,0-0.1,0-0.2,0c0,0,0,0-0.1,0
			c0,0-0.1,0-0.2,0l-0.1,0l0,0l0,0c-0.1,0-0.1-0.1-0.2-0.1c0,0-0.1,0-0.1-0.1c-0.1,0-0.2-0.1-0.3-0.1c0,0,0,0-0.1,0h0
			c0,0-0.1-0.1-0.2-0.1c0,0-0.1,0-0.1,0c0,0,0,0-0.1-0.1c-0.1,0-0.2-0.1-0.2-0.1c0,0,0,0,0,0c0,0,0,0,0,0c0,0-0.1-0.1-0.2-0.1
			c0,0-0.1,0-0.1,0c0,0,0,0,0,0c0,0,0,0,0,0c0,0-0.1-0.1-0.2-0.1c0,0-0.1,0-0.1,0c0,0,0,0,0,0c0,0,0,0,0,0c0,0-0.1,0-0.1-0.1
			c-0.1,0-0.1-0.1-0.2-0.1c0,0-0.1,0-0.1,0c0,0-0.1,0-0.1,0c-0.1,0-0.1-0.1-0.2-0.1c0,0-0.1,0-0.1,0c0,0-0.1,0-0.1,0l0,0
			c0,0-0.1-0.1-0.2-0.1c-0.1-0.1-0.2-0.1-0.3-0.1c0,0,0,0,0,0c0,0-0.1-0.1-0.1-0.1c-0.1-0.1-0.2-0.1-0.2-0.1h0c0,0-0.1-0.1-0.2-0.1
			c-0.1,0-0.1,0-0.1,0c0,0,0,0,0,0c0,0,0,0,0,0c0,0-0.1-0.1-0.2-0.1c-0.1,0-0.1,0-0.2,0h0c0,0,0,0-0.1,0c-0.1-0.1-0.2-0.1-0.3-0.1h0
			c-0.1,0-0.2,0-0.2,0c0,0,0,0,0,0c0,0-0.1,0-0.2,0h0c0,0-0.1,0-0.1,0c0,0,0,0,0,0c0,0-0.1,0-0.1,0c-0.1,0-0.2,0-0.2,0
			c0,0-0.1,0-0.1-0.1c-0.1,0-0.2,0-0.2,0c-0.1,0-0.1,0-0.2,0c-0.3,0-0.5,0.1-0.7,0.2l0,0c0,0-0.1,0-0.1,0c-0.1,0-0.2,0-0.2,0.1l0,0
			c0,0,0,0,0,0h0c-0.1,0-0.1,0-0.2,0c0,0-0.1,0-0.1,0.1c0,0,0,0,0,0h0c-0.1,0-0.1,0-0.2,0c0,0-0.1,0-0.1,0c0,0,0,0,0,0c0,0,0,0,0,0
			c-0.1,0-0.1,0-0.2,0.1c-0.1,0-0.2,0.1-0.4,0.1c-0.1,0-0.1,0-0.2,0c-0.2,0-0.4-0.2-0.5-0.4c-0.1-0.7-0.2-1.3-0.4-2.1
			c0-0.1,0-0.1,0-0.2c0,0,0-0.1,0-0.1c0-0.1-0.1-0.3-0.1-0.4c0-0.1,0-0.1,0-0.2c0-0.1,0-0.1,0-0.2c0-0.1,0-0.1,0-0.2
			c0,0,0-0.1,0-0.1c0-0.1,0-0.2,0-0.3c0-0.1,0-0.3,0-0.4c0-0.1,0-0.1,0-0.1c0,0,0-0.1,0-0.1c0-0.1,0-0.1,0-0.2c0,0,0-0.1,0-0.1
			c0,0,0-0.1,0-0.1l0,0c0-0.1,0-0.2,0-0.3c0,0,0,0,0,0c0-0.2,0-0.5,0-0.6c0.1,0,0.1,0,0.2-0.1c0.1,0,0.2-0.1,0.3-0.1
			c0.2-0.1,0.3-0.1,0.5-0.1c0.1,0,0.2-0.1,0.3-0.1c0,0,0.1,0,0.1,0c0.1,0,0.2,0,0.3-0.1c0.1,0,0.1,0,0.2-0.1c0.1,0,0.2-0.1,0.3-0.1
			l0.1-0.1l0.1,0c0,0,0.1,0,0.1,0c0.2-0.1,0.3-0.1,0.5-0.3c0.1-0.1,0.1-0.2,0.1-0.3c0,0,0,0,0,0c0-0.1,0.1-0.2,0.1-0.4
			c0-0.2,0.1-0.4,0.2-0.5l0-0.1c0-0.1,0.1-0.2,0.2-0.3c0,0,0,0,0.1-0.1c0,0,0.1-0.1,0.2-0.2c0,0,0-0.1,0.1-0.1c0,0,0-0.1,0.1-0.1
			c0,0,0-0.1,0.1-0.1c0.1-0.1,0.1-0.1,0.2-0.2c0,0,0.1-0.1,0.1-0.1c0,0,0.1-0.1,0.1-0.1c0.1-0.1,0.1-0.1,0.1-0.2c0,0,0,0,0-0.1
			c0-0.1,0.1-0.1,0.2-0.2c0.1-0.1,0.2-0.2,0.3-0.3c0,0,0.1-0.1,0.1-0.1c0,0,0-0.1,0-0.1c0.1-0.1,0.1-0.1,0.2-0.2l0,0
			c0,0,0,0,0.1-0.1c0,0,0,0,0.1-0.1c0.1-0.1,0.2-0.2,0.2-0.3c0-0.1,0.1-0.1,0.1-0.1c0,0,0.1-0.1,0.1-0.1c0.1,0,0.1-0.1,0.2-0.1
			c0.1,0,0.1-0.1,0.2-0.1c0,0,0.1-0.1,0.1-0.1c0.2-0.1,0.3-0.2,0.5-0.3c0.1,0,0.2-0.1,0.2-0.1c0.1,0,0.2-0.1,0.3-0.1
			c0.1,0,0.2-0.1,0.3-0.1c0.1-0.1,0.3-0.1,0.4-0.2c0.1,0,0.1-0.1,0.2-0.1l1.1-0.5l0.2-0.1c0.2-0.1,0.3-0.1,0.5-0.2
			c0.1,0,0.2-0.1,0.3-0.1c0.1,0,0.1,0,0.2-0.1c0.4-0.1,0.8-0.2,1.3-0.2l0.1,0c0.1,0,0.2,0,0.2,0h0.2c0.1,0,0.2,0,0.3,0h0.1
			c0.1,0,0.1,0,0.2,0c0.1,0,0.2,0,0.3,0h0.1c0.1,0,0.1,0,0.2,0c0,0,0,0,0,0c0,0,0.1,0,0.2,0h0c0,0,0.1,0,0.1,0c0,0,0,0,0,0
			c0,0,0,0,0,0c0,0,0.1,0,0.1,0c0.1,0,0.1,0,0.2,0h0c0,0,0,0,0.1,0c0,0,0.1,0.1,0.2,0.1c0.1,0,0.1,0,0.2,0.1c0.1,0,0.2,0.1,0.2,0.1
			c0.1,0,0.3,0.1,0.4,0.2c0.1,0,0.1,0.1,0.2,0.1c0.1,0,0.2,0.1,0.2,0.1c0.1,0,0.2,0.1,0.3,0.1c0.1,0,0.2,0.1,0.2,0.2
			c0.1,0,0.1,0.1,0.2,0.1c0.1,0,0.1,0.1,0.2,0.1c0.1,0,0.1,0.1,0.1,0.1c0,0,0,0,0,0.1c0,0.1,0.1,0.2,0.2,0.2c0,0,0.1,0,0.1,0.1
			c0,0,0,0,0.1,0.1c0.1,0.1,0.1,0.2,0.2,0.3c0,0,0.1,0.1,0.1,0.1c0.2,0.2,0.3,0.4,0.5,0.6c0.1,0.1,0.2,0.1,0.3,0.2
			c0,0,0.1,0,0.1,0.1c0.1,0.1,0.2,0.1,0.3,0.1c0,0,0.1,0,0.1,0c0.1,0,0.1,0.1,0.2,0.2c0.2,0.2,0.5,0.3,0.7,0.4c0,0,0.1,0,0.1,0
			c0.3,0,0.4-0.3,0.5-0.4c0,0,0-0.1,0-0.1c0,0,0.1-0.1,0.1-0.1c0,0,0.1-0.1,0.1-0.1c0,0,0,0,0,0c0,0,0.1-0.1,0.1-0.1
			c0.1-0.1,0.1-0.2,0.1-0.3v0c0,0,0,0,0,0c0,0,0,0,0-0.1c0.1-0.1,0.1-0.3,0.1-0.4l0,0c0,0,0-0.1,0-0.1c0-0.1,0-0.2,0.1-0.2
			c0-0.1,0-0.1,0-0.2c0,0,0,0,0,0c0-0.1,0.1-0.2,0.1-0.3c0-0.1,0.1-0.1,0.1-0.2c0-0.1,0.1-0.2,0.2-0.3c0-0.1,0.1-0.1,0.1-0.2
			c0-0.1,0.1-0.1,0.1-0.2c0-0.1,0.1-0.1,0.1-0.2c0,0,0,0,0,0c0,0,0.1-0.1,0.1-0.1c0.1-0.1,0.1-0.1,0.1-0.2c0,0,0.1-0.1,0.1-0.2
			c0.1-0.1,0.1-0.1,0.2-0.2c0.1-0.1,0.2-0.2,0.3-0.3c0.1-0.1,0.2-0.2,0.3-0.3c0.1-0.1,0.1-0.1,0.1-0.2c0.1-0.1,0.2-0.2,0.3-0.3
			c0,0,0.1-0.1,0.1-0.1c0,0,0.1-0.1,0.1-0.1c0.1-0.1,0.2-0.1,0.2-0.2c0,0,0-0.1,0.1-0.1c0,0,0.1-0.1,0.1-0.1
			c0.1-0.1,0.2-0.2,0.3-0.4c0,0,0,0,0,0c0,0,0.1-0.1,0.1-0.1c0-0.1,0-0.1,0.1-0.1v0c0,0,0-0.1,0.1-0.1c0,0,0.1-0.1,0.1-0.1
			c0-0.1,0.1-0.1,0.1-0.2c0,0,0-0.1,0.1-0.1c0.1-0.1,0.1-0.2,0.2-0.3c0.1-0.1,0.2-0.3,0.3-0.4c0,0,0-0.1,0.1-0.1
			c0-0.1,0.1-0.1,0.1-0.2c0,0,0,0,0,0c0-0.1,0.1-0.1,0.1-0.2c0,0,0-0.1,0-0.1c0,0,0,0,0-0.1c0.1-0.1,0.1-0.2,0.1-0.2
			c0-0.1,0.1-0.1,0.1-0.2l0,0c0,0,0.1-0.1,0.1-0.2c0.1-0.2,0.2-0.3,0.3-0.5l0,0c0,0,0,0,0,0c0,0,0.1,0,0.1-0.1
			c0.1-0.1,0.2-0.2,0.2-0.3c0,0,0,0,0-0.1c0.2-0.3,0.3-0.4,0.4-0.4c0.1,0,0.1,0,0.2,0c0.1,0,0.2,0,0.4-0.1c0,0,0.1,0,0.1,0
			c0.1,0,0.2-0.1,0.3-0.1c0,0,0,0,0.1,0c0.1-0.1,0.3-0.1,0.5-0.2c0.1,0,0.3-0.1,0.5-0.1c0.2-0.1,0.4-0.2,0.6-0.3
			c0.1,0,0.2-0.1,0.3-0.1c0.1-0.1,0.3-0.1,0.4-0.1c0.1,0,0.2-0.1,0.3-0.1c0.1,0,0.2-0.1,0.2-0.1c0.1,0,0.1-0.1,0.1-0.1
			c0,0,0.1,0,0.1,0c0.1,0,0.2,0,0.3-0.1c0.2-0.1,0.4-0.2,0.7-0.3c0.2,0,0.5-0.1,0.7-0.2c0.2-0.1,0.3-0.1,0.5-0.2
			c0.2,0,0.3-0.1,0.5-0.1c0.2-0.1,0.4-0.1,0.6-0.2c0.1,0,0.3-0.1,0.4-0.1c0.1,0,0.1-0.1,0.2-0.1c0.1,0,0.1,0,0.2-0.1
			c0.1,0,0.3-0.1,0.4-0.1c0.4-0.1,0.7-0.2,1.1-0.3l0.2-0.1c0.2-0.1,0.5-0.1,0.7-0.1c0.1,0,0.2,0,0.3,0c0.1,0,0.2,0,0.3,0
			c0.1,0,0.2,0,0.3,0c0.2,0,0.3,0,0.5,0h0.2c0.3,0,0.6-0.1,0.9-0.1c0.2,0,0.4-0.1,0.6-0.1h0c0,0,0.1,0,0.1,0c0.1,0,0.1,0,0.1,0h0
			C143.6,209.3,143.6,209.3,143.7,209.2C143.7,209.2,143.7,209.2,143.7,209.2L143.7,209.2 M143.7,208.9L143.7,208.9
			c-0.1,0-0.2,0-0.3,0h0c-0.1,0-0.2,0-0.2,0h-0.1c-0.5,0-1,0.2-1.5,0.2h-0.2c-0.3,0-0.5,0-0.8,0c-0.2,0-0.4,0-0.6,0.1
			c-0.2,0-0.5,0.1-0.7,0.1c-0.4,0.1-0.8,0.2-1.3,0.3c-0.2,0.1-0.4,0.1-0.6,0.2c-0.2,0.1-0.4,0.1-0.6,0.2c-0.4,0.1-0.7,0.2-1.1,0.3
			c-0.4,0.1-0.8,0.3-1.2,0.4c-0.3,0.1-0.6,0.2-0.8,0.3c-0.1,0.1-0.2,0.1-0.4,0.1c-0.1,0-0.3,0.1-0.4,0.2c-0.2,0.1-0.5,0.1-0.7,0.2
			c-0.3,0.1-0.6,0.3-0.8,0.4c-0.3,0.1-0.6,0.2-0.9,0.3c-0.1,0-0.2,0.1-0.3,0.1c-0.1,0-0.1,0-0.2,0c-0.2,0.1-0.3,0.1-0.5,0.1
			c-0.2,0.1-0.4,0.3-0.5,0.5c-0.1,0.1-0.1,0.2-0.2,0.3c-0.1,0.1-0.1,0.1-0.2,0.1c-0.1,0.2-0.2,0.4-0.4,0.5c0,0.1-0.1,0.1-0.1,0.2
			c-0.1,0.1-0.2,0.3-0.3,0.4c0,0.1-0.1,0.1-0.1,0.1c0,0,0,0.1,0,0.1c0,0.1-0.1,0.1-0.1,0.2c-0.1,0.1-0.1,0.2-0.2,0.3
			c-0.1,0.3-0.3,0.5-0.5,0.7c-0.1,0.1-0.1,0.2-0.2,0.3c0,0.1-0.1,0.1-0.2,0.2c0,0,0,0.1-0.1,0.1c0,0.1-0.1,0.1-0.2,0.2
			c-0.1,0.1-0.1,0.2-0.2,0.3c-0.1,0.1-0.1,0.2-0.2,0.3c-0.1,0.1-0.2,0.2-0.3,0.3c-0.1,0.1-0.2,0.3-0.4,0.4c-0.2,0.1-0.2,0.3-0.4,0.5
			c-0.1,0.1-0.2,0.2-0.3,0.3c-0.1,0.2-0.3,0.3-0.4,0.4c0,0,0,0.1-0.1,0.1c0,0.1-0.1,0.1-0.1,0.1c-0.1,0.1-0.2,0.3-0.3,0.4
			c-0.1,0.2-0.3,0.4-0.4,0.6c-0.1,0.2-0.2,0.4-0.2,0.6c0,0.1,0,0.2,0,0.3c0,0.1,0,0.2-0.1,0.3c0,0.1,0,0.2-0.1,0.3
			c0,0.1-0.1,0.1-0.1,0.2c0,0.1,0,0.1-0.1,0.2c0,0-0.1,0.1-0.1,0.1c-0.1,0.1-0.1,0.2-0.2,0.2c-0.1,0.1-0.2,0.4-0.3,0.4c0,0,0,0,0,0
			c-0.2-0.1-0.6-0.4-0.8-0.5c-0.1-0.1-0.2-0.1-0.3-0.2c-0.1-0.1-0.3-0.1-0.4-0.2c-0.2-0.2-0.3-0.3-0.5-0.5c-0.1-0.2-0.2-0.3-0.3-0.4
			c-0.1-0.1-0.1-0.1-0.2-0.1c-0.1-0.1-0.1-0.2-0.2-0.3c-0.1-0.2-0.3-0.2-0.4-0.3c-0.1-0.1-0.3-0.2-0.4-0.3c-0.2-0.1-0.4-0.1-0.6-0.2
			c-0.2-0.1-0.4-0.2-0.6-0.3c-0.1,0-0.3-0.1-0.4-0.1c-0.1,0-0.2-0.1-0.2-0.1c-0.1,0-0.2,0-0.2,0c-0.1,0-0.1-0.1-0.2-0.1h0
			c-0.1,0-0.1,0-0.2,0h0c-0.1,0-0.1,0-0.2,0c-0.1,0-0.1,0-0.2,0h-0.1c-0.2,0-0.3,0-0.5,0c0,0-0.1,0-0.1,0c-0.1,0-0.2,0-0.3,0h-0.2
			c-0.1,0-0.2,0-0.2,0c-0.5,0.1-1,0.1-1.5,0.3c-0.2,0.1-0.4,0.1-0.5,0.2c-0.2,0.1-0.4,0.2-0.7,0.3l-1.1,0.5
			c-0.2,0.1-0.4,0.2-0.6,0.3c-0.2,0.1-0.4,0.1-0.6,0.2c-0.3,0.1-0.6,0.2-0.8,0.4c-0.1,0.1-0.2,0.1-0.3,0.2c-0.1,0.1-0.2,0.1-0.3,0.2
			c-0.2,0.1-0.2,0.3-0.4,0.4c-0.1,0.1-0.1,0.1-0.2,0.2c0,0.1-0.1,0.1-0.1,0.2c-0.1,0.1-0.1,0.1-0.2,0.2c-0.1,0.2-0.4,0.3-0.5,0.5
			c-0.1,0.1-0.1,0.2-0.1,0.2c-0.1,0.1-0.2,0.2-0.2,0.3c-0.1,0.1-0.2,0.2-0.2,0.3c-0.1,0.1-0.1,0.1-0.1,0.2c-0.1,0.1-0.1,0.1-0.2,0.2
			c-0.1,0.1-0.2,0.3-0.2,0.4c-0.1,0.2-0.2,0.5-0.2,0.7c0,0.1,0,0.2-0.1,0.3c0,0.1,0,0.2-0.1,0.2c-0.1,0.1-0.3,0.2-0.5,0.2
			c-0.1,0-0.1,0.1-0.2,0.1c-0.2,0.1-0.3,0.1-0.5,0.2c-0.1,0-0.2,0.1-0.2,0.1c-0.1,0-0.2,0.1-0.3,0.1c-0.2,0-0.4,0.1-0.6,0.2
			c-0.2,0.1-0.4,0.1-0.6,0.2c-0.1,0-0.2,0.2-0.2,0.2c0,0.1,0.1,0.4,0.1,0.6c0,0.1,0,0.1,0,0.2c0,0.1,0,0.1,0,0.2c0,0.1,0,0.2,0,0.3
			c0,0.1,0,0.1,0,0.2c0,0.1,0,0.2,0.1,0.3c0,0.2,0,0.5,0,0.7c0,0.1,0.1,0.2,0.1,0.3c0,0.1,0,0.3,0.1,0.4c0,0.1,0.1,0.2,0.1,0.3
			c0,0.1,0.1,0.2,0.1,0.3c0.2,0.7,0.3,1.4,0.4,2.1c0.1,0.4,0.4,0.7,0.8,0.7c0.1,0,0.2,0,0.3,0c0.1,0,0.3-0.1,0.4-0.2
			c0.1,0,0.1,0,0.2,0c0.1,0,0.1,0,0.2-0.1c0,0,0,0,0.1,0h0.1c0.1,0,0.1-0.1,0.2-0.1c0,0,0.1,0,0.1,0h0c0,0,0,0,0,0
			c0.1,0,0.1,0,0.2-0.1c0.1-0.1,0.2-0.1,0.4-0.1c0.2-0.1,0.4-0.2,0.7-0.2c0,0,0.1,0,0.1,0c0.1,0,0.1,0,0.2,0c0,0,0.1,0,0.1,0.1
			c0.1,0,0.1,0,0.2,0c0.1,0,0.2,0.1,0.2,0.1h0c0,0,0.1,0,0.1,0h0c0.1,0,0.1,0,0.2,0c0.1,0,0.2,0,0.3,0c0,0,0.1,0,0.2,0
			c0.1,0,0.1,0.1,0.2,0.1h0.1c0,0,0,0,0.1,0c0.1,0,0.1,0.1,0.2,0.1c0.1,0,0.1,0,0.2,0c0.1,0,0.1,0.1,0.2,0.1c0.1,0,0.1,0,0.2,0.1
			c0,0,0.1,0.1,0.1,0.1c0.1,0.1,0.3,0.1,0.4,0.2c0,0,0,0,0,0c0.1,0,0.1,0.1,0.2,0.1c0.1,0,0.2,0.1,0.2,0.1c0.1,0,0.2,0.1,0.2,0.1
			c0.1,0,0.2,0.1,0.3,0.1c0.1,0,0.1,0.1,0.2,0.1c0,0,0.1,0,0.1,0c0.1,0,0.1,0,0.1,0.1c0.1,0.1,0.2,0.1,0.3,0.1
			c0.1,0,0.1,0.1,0.2,0.1c0.1,0,0.2,0,0.2,0.1c0,0,0.1,0.1,0.1,0.1c0.1,0,0.1,0,0.2,0c0.1,0,0.1,0.1,0.1,0.1c0.1,0,0.1,0,0.2,0
			c0.1,0,0.3,0.1,0.4,0.1c0.1,0,0.1,0,0.2,0.1c0,0,0.1,0,0.1,0.1c0,0,0,0,0.1,0c0,0,0.1,0,0.1,0c0.1,0,0.1,0.1,0.2,0.1
			c0.1,0,0.2,0,0.3,0c0.1,0,0.1,0,0.2,0.1c0,0,0.1,0,0.1,0c0.1,0,0.1,0,0.2,0h0c0.1,0,0.2,0,0.3,0h0c0.1,0,0.2,0,0.3,0h0
			c0.1,0,0.2,0,0.4,0c0.1,0,0.1,0,0.2,0c0,0,0.1,0,0.1,0c0,0,0.1,0,0.1,0h0.1c0.1,0,0.1,0,0.2,0c0.1,0,0.2,0,0.3,0
			c0.1,0,0.2,0,0.3,0c0.2,0,0.3,0,0.5,0h0c0.1,0,0.2,0,0.4-0.1c0.2,0,0.4,0,0.6-0.1c0.1,0,0.2-0.1,0.3-0.1c0.1,0,0.2,0,0.3-0.1
			c0.1,0,0.2-0.1,0.2-0.1c0.1,0,0.2,0,0.3-0.1c0.5-0.2,0.9-0.4,1.4-0.6c0.1,0,0.2-0.1,0.2-0.1c0.1-0.1,0.2-0.1,0.3-0.2
			c0.1-0.1,0.3-0.3,0.4-0.4c0.2-0.1,0.3-0.3,0.4-0.5c0.1-0.1,0.2-0.2,0.2-0.3c0.1-0.1,0.1-0.2,0.2-0.3c0.1-0.1,0.2-0.3,0.3-0.5
			c0,0,0-0.1,0.1-0.1c0,0,0.1,0,0.1-0.1c0,0,0-0.1,0-0.1c0-0.1,0.1-0.1,0.1-0.2c0.2-0.3,0.3-0.6,0.6-0.9c0,0,0.1-0.1,0.1-0.1
			c0,0,0,0,0.1-0.1c0,0,0,0,0-0.1c0,0,0,0,0-0.1c0,0,0,0,0-0.1c0,0,0-0.1,0-0.1c0-0.1,0.1-0.2,0.2-0.3c0.1-0.1,0.1-0.2,0.1-0.3h0
			c0.1,0,0.2,0.1,0.3,0.2c0.1,0,0.1,0,0.2,0c0,0,0.1,0,0.1,0c0,0,0,0,0.1,0c0,0,0.1,0,0.1,0h0.1c0,0,0.1,0,0.1,0
			c0.1,0,0.2-0.1,0.2-0.1c0.2,0,0.3-0.1,0.4-0.2c0.1-0.1,0.2-0.2,0.3-0.3c0-0.1,0-0.1,0.1-0.2c0-0.1,0.1-0.1,0.1-0.2
			c0-0.1,0-0.1,0-0.2c0,0,0-0.1,0-0.1c0,0,0-0.1,0-0.1c0-0.1,0-0.2,0-0.2c0-0.1,0-0.1,0-0.2c0,0,0,0,0,0c0.1,0,0.2,0,0.2,0.1
			c0.1,0,0.1,0.1,0.2,0.2c0.1,0,0.1,0,0.2,0c0.1,0,0.1,0.1,0.1,0.1c0.1,0,0.1,0,0.2,0.1c0.1,0,0.1,0.1,0.2,0.1c0,0,0.1,0,0.1,0h0
			c0,0,0.1,0.1,0.1,0.1c0.1,0,0.2,0,0.3,0c0.1,0,0.1,0,0.2,0c0.1,0,0.1,0,0.1,0c0,0,0.1,0,0.1,0h0c0.1,0,0.1,0,0.1-0.1h0
			c0.1,0,0.2,0,0.2,0c0.1,0,0.1,0,0.2,0h0c0.1,0,0.1,0,0.2-0.1c0,0,0.1,0,0.1,0c0.1,0,0.2,0,0.4,0c0.1,0,0.2,0,0.2,0
			c0.1,0,0.1,0,0.2,0c0.1,0,0.2,0,0.3,0c0.1,0,0.2-0.1,0.3-0.1c0.1,0,0.2,0,0.2-0.1c0.1,0,0.2,0,0.3-0.1c0.1,0,0.2-0.1,0.4-0.1
			c0.2,0,0.3-0.1,0.5-0.1h0.1c0.1,0,0.1,0,0.2,0c0.1,0,0.2,0,0.2,0.1c0,0,0.1,0.1,0.1,0.1h0c0,0,0.1,0,0.1,0c0,0,0,0,0,0
			c0.1,0,0.2,0.1,0.3,0.1c0,0,0,0,0.1,0c0.1,0,0.1,0,0.2,0h0c0.1,0,0.1,0,0.2,0c0.1,0,0.1,0,0.2,0h0c0.1,0,0.2,0,0.2,0
			c0.1,0,0.1,0,0.2,0c0,0,0.1,0,0.1,0c0,0,0.1,0,0.1,0h0c0.1,0,0.1,0,0.1,0h0c0,0,0.1,0,0.1,0h0c0.1,0,0.1,0,0.1,0h0
			c0,0,0.1,0,0.1,0h0c0.1,0,0.1,0,0.2,0c0,0,0,0,0,0c0.1,0,0.1,0,0.2,0c0,0,0.1,0,0.1,0h0c0.1,0,0.1,0,0.1-0.1
			c0.2-0.1,0.5-0.1,0.8-0.2c0.2-0.1,0.4-0.1,0.6-0.2c0.2-0.1,0.4-0.1,0.6-0.1c0.1,0,0.2-0.1,0.2-0.1h0c0.1,0,0.2,0,0.3,0
			c0,0,0.1,0,0.1,0h0c0.1,0,0.1,0,0.2,0h0c0,0,0.1,0,0.1,0h0c0.1,0,0.1,0,0.2,0h0c0.1,0,0.2,0,0.2,0h0c0.1,0,0.2,0,0.3-0.1
			c0.2,0,0.4,0,0.6-0.1c0.1,0,0.1-0.1,0.2-0.1c0.1,0,0.2,0,0.3,0c0.2,0,0.3-0.1,0.5-0.1c0.2-0.1,0.4-0.1,0.6-0.1
			c0.1,0,0.2-0.1,0.3-0.1c0.1,0,0.2,0,0.3-0.1c0.1,0,0.1-0.1,0.2-0.1c0.1,0,0.1,0,0.2-0.1c0.1,0,0.2-0.1,0.3-0.1
			c0.1-0.1,0.3-0.1,0.4-0.1c0.2-0.1,0.4-0.2,0.6-0.2c0.3-0.1,0.6-0.2,0.9-0.4c0.1-0.1,0.2-0.1,0.3-0.2c0.2-0.1,0.3-0.2,0.5-0.3
			c0.1-0.1,0.4-0.2,0.5-0.3c0.1-0.1,0.3-0.2,0.4-0.3c0.2-0.2,0.5-0.3,0.7-0.4c0.1-0.1,0.3-0.2,0.4-0.3c0.1,0,0.1-0.1,0.2-0.1
			c0.1,0,0.1-0.1,0.2-0.1c0.1,0,0.1,0,0.2-0.1c0.1,0,0.1-0.1,0.2-0.1c0.1-0.1,0.3-0.2,0.4-0.2c0.3-0.1,0.5-0.3,0.7-0.5
			c0.2-0.2,0.5-0.4,0.7-0.6c0.1-0.1,0.3-0.4,0.4-0.6c0,0,0-0.1,0.1-0.1c0-0.1,0-0.2,0-0.3c0-0.1,0-0.2,0-0.3c0-0.1,0-0.2,0-0.3
			c0-0.1,0-0.2,0-0.3c0-0.1-0.1-0.2-0.1-0.3c0-0.2-0.2-0.4-0.2-0.6c0-0.1-0.1-0.2-0.2-0.2c0,0-0.1-0.1-0.1-0.1c0,0-0.1,0-0.1-0.1
			c0,0,0-0.1-0.1-0.1c0,0-0.1,0-0.2-0.1c-0.1,0-0.1-0.1-0.2-0.1h0c0.1-0.1,0.1-0.1,0.2-0.2c0-0.1,0.1-0.1,0.1-0.2
			c0.1-0.1,0-0.1,0-0.2c0-0.1,0-0.1,0-0.2c0-0.1,0-0.1,0-0.2c0-0.2,0-0.2,0-0.4c0-0.2,0-0.3-0.1-0.5c0-0.1-0.1-0.3-0.1-0.4
			c0-0.2-0.1-0.3-0.2-0.5c-0.1-0.1-0.1-0.2-0.2-0.4c-0.1-0.3-0.3-0.6-0.5-0.8c-0.1-0.1-0.1-0.1-0.2-0.2c-0.1-0.1-0.1-0.1-0.2-0.1
			c-0.1,0-0.1-0.1-0.1-0.1c-0.1-0.1-0.2-0.1-0.3-0.1c-0.1,0-0.2-0.1-0.3-0.1c-0.1-0.1-0.2,0-0.4-0.1c0,0-0.2-0.1-0.2-0.1
			c0.1-0.1,0.1-0.2,0.2-0.4c0.1-0.2,0.1-0.5,0.1-0.7c0-0.1,0-0.2,0-0.3c0-0.1,0-0.3,0-0.4c0-0.1-0.1-0.1-0.1-0.2c0-0.1,0-0.2,0-0.2
			c0-0.2,0-0.3-0.1-0.5c-0.1-0.3-0.2-0.7-0.3-1c-0.1-0.2-0.2-0.4-0.3-0.6c0-0.1-0.1-0.1-0.1-0.2c-0.1-0.1-0.2-0.2-0.3-0.3
			c-0.1-0.1-0.1-0.1-0.2-0.2c-0.1-0.1-0.2-0.1-0.3-0.2c-0.1-0.1-0.1-0.1-0.2-0.1c-0.1,0-0.1-0.1-0.2-0.1c-0.1,0-0.2,0-0.3-0.1
			c0,0-0.1-0.1-0.1-0.1c0,0,0,0-0.1,0c0,0-0.1,0-0.1,0h0c-0.1,0-0.1,0-0.2-0.1C143.8,208.9,143.8,208.9,143.7,208.9L143.7,208.9z"/>
		<path class="st11" d="M112.8,226.1c0.1,0.2,0.4,0.2,0.6,0.3c0.1,0,0.2,0.1,0.2,0.1c0.1,0,0.2,0.1,0.3,0.1c0.2,0.1,0.4,0.1,0.6,0.2
			c0.1,0,0.2,0.1,0.3,0.1c0.1,0,0.2,0.1,0.3,0.1c0.2,0.1,0.5,0.1,0.7,0.2c0.3,0.2,0.7,0.2,1.1,0.3c0.2,0.1,0.3,0.1,0.5,0.1
			c0.1,0,0.3,0,0.4,0c0.2,0,0.3,0.1,0.5,0.1c0.1,0,0.2,0.1,0.2,0.1c0.1,0,0.1,0,0.2,0c0.1,0,0.1,0.1,0.1,0.1c0,0,0.1,0,0.1,0
			c0.1,0,0.2,0.1,0.3,0.1c0.1,0,0.2,0.1,0.3,0.1c0,0,0,0,0,0.1c0,0,0,0,0.1,0c0,0,0.1,0,0.2,0.1c0.1,0.1,0.3,0.2,0.4,0.3
			c0.1,0,0.1,0.1,0.2,0.2c0.1,0,0.1,0,0.2,0c0.1,0,0.1,0.1,0.1,0.1"/>
		<path class="st11" d="M114.9,230.7c0.1,0,0.1,0,0.2,0c0.1,0,0.2,0,0.3,0c0.3,0,0.5,0,0.8-0.1c0.2,0,0.3,0,0.5,0
			c0.1,0,0.3,0,0.4-0.1c0.2-0.1,0.5,0,0.8-0.1c0.3-0.1,0.5-0.1,0.8-0.1c0.1,0,0.2,0,0.3,0c0.1,0,0.2-0.1,0.3-0.1c0.1,0,0.1,0,0.2,0
			c0.1,0,0.1,0,0.2,0c0.1,0,0.2-0.1,0.3-0.1c0.1,0,0.1,0,0.2,0"/>
		<path class="st11" d="M124.8,226.9c0.1-0.1,0.2-0.1,0.3-0.2c0.1-0.1,0.2-0.3,0.3-0.4c0.1-0.1,0.1-0.2,0.1-0.3
			c0-0.1,0.1-0.2,0.1-0.2c0-0.1,0.1-0.2,0.1-0.4c0-0.1,0-0.2,0-0.3c0-0.1,0.1-0.1,0.1-0.2c0-0.1,0-0.1,0-0.2c0,0,0-0.1,0-0.1
			c0-0.1,0-0.2,0-0.3c0-0.1,0-0.2,0-0.3c0-0.1,0-0.2,0-0.4c0-0.1,0-0.2,0-0.2c0-0.1,0-0.1,0-0.2c0-0.1,0.1-0.2,0-0.3"/>
		<path class="st11" d="M123.6,224.6c0-0.1,0-0.1,0-0.2c0-0.1,0-0.1,0-0.2c0-0.1,0.1-0.1,0.1-0.2c0.1-0.2,0.1-0.3,0.3-0.5
			c0.2-0.2,0.3-0.4,0.3-0.6c0-0.2,0-0.3,0.1-0.5c0.1-0.1,0.1-0.1,0.2-0.2c0,0,0.1-0.1,0.2-0.1c0.1,0,0.1,0,0.2,0c0.1,0,0.3,0,0.4,0
			c0.1,0,0.3,0,0.4-0.1c0.4-0.1,0.7-0.3,1.1-0.5c0.1,0,0.1-0.1,0.2-0.1c0.1-0.1,0.2-0.2,0.3-0.2c0.1-0.1,0.2-0.2,0.3-0.3
			c0.1-0.1,0.2-0.1,0.3-0.2c0.1-0.1,0.2-0.2,0.3-0.3s0.1-0.2,0.2-0.4c0-0.1,0.1-0.2,0.1-0.3c0-0.1,0.1-0.2,0.1-0.4
			c0-0.3,0.1-0.6,0.1-0.9c0-0.1,0-0.3,0-0.4c0-0.1,0-0.1,0-0.2"/>
		<path class="st11" d="M123.7,228.9c0.1,0,0.1-0.1,0.2-0.2c0.1-0.1,0.1-0.4,0.1-0.5c0-0.1,0-0.2,0-0.3c0-0.1,0-0.2,0-0.3
			c0-0.1,0-0.3-0.1-0.4l0,0"/>
		<path class="st11" d="M103.9,233.1c0-0.1,0-0.2,0-0.2c0-0.3-0.1-0.6-0.2-0.9c-0.1-0.7-0.2-1.4-0.3-2c-0.1-0.4-0.1-0.7-0.2-1.1
			c0-0.2-0.1-0.4-0.1-0.5"/>
		<path class="st11" d="M104.6,232.8c0,0,0-0.1,0-0.2c0-0.2,0-0.3-0.1-0.5c-0.1-0.6-0.1-1.1-0.2-1.7c-0.1-0.5-0.2-1-0.3-1.5
			c0-0.1-0.1-0.2-0.1-0.4"/>
		<path class="st11" d="M105.6,232.7c0-0.1,0-0.2,0-0.3c0-0.2-0.1-0.5-0.1-0.7c-0.1-0.6-0.2-1.1-0.3-1.7c-0.1-0.6-0.2-1.1-0.4-1.7
			c0-0.2-0.1-0.3-0.2-0.4c0-0.1,0-0.2-0.1-0.3"/>
		<path class="st13" d="M133.4,99.1c0,0.7-0.2,1.4-0.2,2.1c0,0.8,0.4,1.8,1.4,1.8c0.4,0,0.7-0.2,1-0.4c0.6-0.7,0.5-1.7,0.1-2.5
			c-0.4-0.6-0.9-1.1-1.4-1.5c-0.3-0.2-0.6-0.5-0.9-0.8c-0.1-0.1-0.2,0-0.2,0.1C133.3,98.3,133.4,98.7,133.4,99.1L133.4,99.1z"/>
		<path class="st7" d="M236.4,86c0.7,0,1.4-0.6,1.4-1.4c0-0.7-0.6-1.4-1.4-1.4c-0.8,0-1.4,0.6-1.4,1.4C235,85.4,235.6,86,236.4,86z"
			/>
		<path class="st7" d="M242.3,86c0.7,0,1.4-0.6,1.4-1.4c0-0.7-0.6-1.4-1.4-1.4c-0.7,0-1.4,0.6-1.4,1.4C241,85.4,241.6,86,242.3,86z"
			/>
		<path class="st7" d="M248.3,86c0.7,0,1.4-0.6,1.4-1.4c0-0.7-0.6-1.4-1.4-1.4c-0.7,0-1.4,0.6-1.4,1.4C247,85.4,247.6,86,248.3,86z"
			/>
		<path class="st16" d="M39.3,205.9c0,0,2.6,27.7,32.2,27.7c29.6,0,33.3-28.2,33.3-28.2"/>
		<path class="st17" d="M39.3,205.9c0,0,2.6,27.7,32.2,27.7c29.6,0,33.3-28.2,33.3-28.2"/>
		<path class="st18" d="M72.1,216c18.1,0,32.7-4.7,32.7-10.6c0-5.8-14.7-10.6-32.7-10.6s-32.7,4.7-32.7,10.6
			C39.3,211.3,54,216,72.1,216z"/>
		<path class="st19" d="M62.4,218.1c-0.6,0.3-0.8,1.1-1.2,1.6c-0.5,0.7-1.3,1.3-1.7,2"/>
		<path class="st19" d="M61.5,219.3c1.2,0.7,2.3,2,3.3,3"/>
		<path class="st19" d="M57.4,222.5c2.9-0.1,5.7,2,8.6,2"/>
		<path class="st19" d="M61.8,223.5c-0.1,0.5-0.4,1-0.4,1.5"/>
		<path class="st19" d="M58.8,224.1c0.1,1-0.1,2.3,1,2.8c0.7,0.3,1.7,0.1,2.4,0.2c0.7,0.1,1.4,0.2,2.1,0.2"/>
		<path class="st19" d="M68,219.8c0.1,0.9,1.6,1.8,2.2,2.4"/>
		<path class="st19" d="M67.3,222.1c0.8-0.1,1.6,0,2.4,0.1c0.6,0.1,1.3,0.3,1.9,0.2"/>
		<path class="st19" d="M69.8,223.7c-0.7,0.1-1.9,0-2.2,0.9c-0.3,0.9,0.7,1.1,1.4,1.1C70.4,225.7,70.7,224.3,69.8,223.7L69.8,223.7z
			"/>
		<path class="st19" d="M73,220.7c0.1,1.1,0.2,2.2,0.3,3.3c0,0.4,0.1,2.8,0.3,2.9"/>
		<path class="st19" d="M73.5,224.6c0.6-0.1,1.5-0.3,2.1-0.1"/>
		<path class="st19" d="M71.3,226.4c0.1,0.9-0.1,1.7,0,2.6c0.7,0.2,1.4,0.2,2.2,0.1c0.8,0,1.7,0.1,2.5,0"/>
		<path class="st19" d="M77.9,220c0,0.5,0.3,1,0.4,1.5c0.1,0.5,0.2,1.1,0.3,1.6c0,0.1,0,0,0.1,0"/>
		<path class="st19" d="M78.2,220.9c0.5-0.2,1.1-0.2,1.6-0.3c0.3-0.1,1-0.5,1.3-0.3c0.3,0.2,0.5,1.4,0.5,1.8
			c-1.1,0.3-2.3,0.3-3.5,0.6"/>
		<path class="st19" d="M81.9,218.6c0,0.7,0.4,1.6,0.6,2.3c0.2,0.8,0.5,1.6,0.8,2.5"/>
		<path class="st19" d="M82.8,221.4c0.8,0,1.7-0.4,2.4-0.6"/>
		<path class="st19" d="M81.9,224.2c0.1,1.2-1.2,2.4-1.5,3.4"/>
		<path class="st19" d="M81.5,226c1.1-0.2,2.2,1.1,3.4,1"/>
	</g>
</g>
</svg>
