<svg width="284" height="248" viewBox="0 0 284 248" fill="none" xmlns="http://www.w3.org/2000/svg">
<g clip-path="url(#clip0_278_3299)">
<path d="M203.051 132.334C201.381 131.104 199.711 129.874 198.041 128.644" stroke="#373433" stroke-width="2" stroke-miterlimit="10" stroke-linecap="round"/>
<path d="M203.871 131.874C204.501 130.194 205.131 128.514 205.761 126.834" stroke="#373433" stroke-width="2" stroke-miterlimit="10" stroke-linecap="round"/>
<path d="M204.018 133.354C206.118 132.604 208.131 131.611 210.004 130.404" stroke="#373433" stroke-width="2" stroke-miterlimit="10" stroke-linecap="round"/>
<path d="M172.4 204.183C179.327 191.523 201.164 147.833 203.807 133.646" stroke="#373433" stroke-width="2" stroke-miterlimit="10" stroke-linecap="round"/>
<path d="M240.715 150.334C239.045 149.104 237.375 147.874 235.705 146.644" stroke="#373433" stroke-width="2" stroke-miterlimit="10" stroke-linecap="round"/>
<path d="M241.535 149.874C242.165 148.194 242.795 146.514 243.425 144.834" stroke="#373433" stroke-width="2" stroke-miterlimit="10" stroke-linecap="round"/>
<path d="M241.682 151.354C243.782 150.604 245.795 149.611 247.668 148.404" stroke="#373433" stroke-width="2" stroke-miterlimit="10" stroke-linecap="round"/>
<path d="M210.066 222.183C216.993 209.523 238.83 165.833 241.473 151.646" stroke="#373433" stroke-width="2" stroke-miterlimit="10" stroke-linecap="round"/>
<path d="M55.6816 181.957C57.0283 180.38 58.375 178.804 59.7216 177.224" stroke="#373433" stroke-width="2" stroke-miterlimit="10" stroke-linecap="round"/>
<path d="M54.7783 181.701C53.7849 180.207 52.7883 178.714 51.7949 177.221" stroke="#373433" stroke-width="2" stroke-miterlimit="10" stroke-linecap="round"/>
<path d="M54.9746 183.174C52.7579 182.921 50.5746 182.411 48.4746 181.661" stroke="#373433" stroke-width="2" stroke-miterlimit="10" stroke-linecap="round"/>
<path d="M78.5741 219.667C68.9508 208.91 61.0441 196.623 55.2441 183.41" stroke="#373433" stroke-width="2" stroke-miterlimit="10" stroke-linecap="round"/>
<path d="M242.014 174.289C243.36 172.712 244.707 171.136 246.054 169.556" stroke="#373433" stroke-width="2" stroke-miterlimit="10" stroke-linecap="round"/>
<path d="M241.11 174.033C240.117 172.539 239.12 171.046 238.127 169.553" stroke="#373433" stroke-width="2" stroke-miterlimit="10" stroke-linecap="round"/>
<path d="M241.307 175.507C239.09 175.253 236.907 174.743 234.807 173.993" stroke="#373433" stroke-width="2" stroke-miterlimit="10" stroke-linecap="round"/>
<path d="M264.906 212C255.283 201.243 247.376 188.956 241.576 175.743" stroke="#373433" stroke-width="2" stroke-miterlimit="10" stroke-linecap="round"/>
<path d="M118.682 145.957C120.028 144.38 121.375 142.804 122.722 141.224" stroke="#373433" stroke-width="2" stroke-miterlimit="10" stroke-linecap="round"/>
<path d="M117.778 145.701C116.785 144.207 115.788 142.714 114.795 141.221" stroke="#373433" stroke-width="2" stroke-miterlimit="10" stroke-linecap="round"/>
<path d="M117.975 147.174C115.758 146.921 113.575 146.411 111.475 145.661" stroke="#373433" stroke-width="2" stroke-miterlimit="10" stroke-linecap="round"/>
<path d="M141.574 183.667C131.951 172.91 124.044 160.623 118.244 147.41" stroke="#373433" stroke-width="2" stroke-miterlimit="10" stroke-linecap="round"/>
<path d="M173.682 172.957C175.028 171.38 176.375 169.804 177.722 168.224" stroke="#373433" stroke-width="2" stroke-miterlimit="10" stroke-linecap="round"/>
<path d="M172.778 172.701C171.785 171.207 170.788 169.714 169.795 168.221" stroke="#373433" stroke-width="2" stroke-miterlimit="10" stroke-linecap="round"/>
<path d="M172.975 174.174C170.758 173.921 168.575 173.411 166.475 172.661" stroke="#373433" stroke-width="2" stroke-miterlimit="10" stroke-linecap="round"/>
<path d="M196.574 210.667C186.951 199.91 179.044 187.623 173.244 174.41" stroke="#373433" stroke-width="2" stroke-miterlimit="10" stroke-linecap="round"/>
<path d="M63.0137 147.957C64.3603 146.38 65.707 144.804 67.0537 143.224" stroke="#373433" stroke-width="2" stroke-miterlimit="10" stroke-linecap="round"/>
<path d="M62.1103 147.701C61.117 146.207 60.1203 144.714 59.127 143.221" stroke="#373433" stroke-width="2" stroke-miterlimit="10" stroke-linecap="round"/>
<path d="M62.3066 149.174C60.09 148.921 57.9066 148.411 55.8066 147.661" stroke="#373433" stroke-width="2" stroke-miterlimit="10" stroke-linecap="round"/>
<path d="M85.9062 185.667C76.2828 174.91 68.3762 162.623 62.5762 149.41" stroke="#373433" stroke-width="2" stroke-miterlimit="10" stroke-linecap="round"/>
<path d="M134.003 126.923C132.327 125.7 130.653 124.476 128.977 123.253" stroke="#373433" stroke-width="2" stroke-miterlimit="10" stroke-linecap="round"/>
<path d="M134.822 126.463C135.446 124.779 136.069 123.096 136.689 121.416" stroke="#373433" stroke-width="2" stroke-miterlimit="10" stroke-linecap="round"/>
<path d="M134.973 127.942C137.069 127.182 139.079 126.182 140.949 124.966" stroke="#373433" stroke-width="2" stroke-miterlimit="10" stroke-linecap="round"/>
<path d="M120.457 168.906C127.33 156.216 132.18 142.433 134.767 128.236" stroke="#373433" stroke-width="2" stroke-miterlimit="10" stroke-linecap="round"/>
<path d="M50.2021 134.486C48.2721 133.726 46.3421 132.966 44.4121 132.203" stroke="#373433" stroke-width="2" stroke-miterlimit="10" stroke-linecap="round"/>
<path d="M50.8789 133.833C51.0556 132.047 51.2356 130.263 51.4122 128.477" stroke="#373433" stroke-width="2" stroke-miterlimit="10" stroke-linecap="round"/>
<path d="M51.3984 135.227C53.2351 133.963 54.9284 132.487 56.4284 130.84" stroke="#373433" stroke-width="2" stroke-miterlimit="10" stroke-linecap="round"/>
<path d="M47.5625 178.39C51.0125 164.376 52.2292 149.816 51.1492 135.423" stroke="#373433" stroke-width="2" stroke-miterlimit="10" stroke-linecap="round"/>
<path d="M21.6293 129.23C11.0626 128.9 -7.14407 132.393 -9.66074 144.167C-11.1341 150.607 -8.10407 157.903 -5.73741 164.03C-3.65407 169.22 -1.62741 174.523 -0.16074 179.5C3.83593 193.617 6.69926 209.66 5.95926 223.993C5.72926 231.923 2.29926 240.98 5.30926 248.457C9.31593 258.083 25.6393 260.97 34.7826 257.52C44.9426 253.49 46.7659 239.933 49.7893 230.163C56.2859 207.423 51.6359 192.13 46.9993 169.983C44.4426 159.45 43.0693 144.92 37.3959 137.72C33.7059 132.823 28.0093 129.42 21.7926 129.237L21.6326 129.227L21.6293 129.23Z" fill="#FAF5E2"/>
<path d="M21.6293 129.23C11.0626 128.9 -7.14407 132.393 -9.66074 144.167C-11.1341 150.607 -8.10407 157.903 -5.73741 164.03C-3.65407 169.22 -1.62741 174.523 -0.16074 179.5C3.83593 193.617 6.69926 209.66 5.95926 223.993C5.72926 231.923 2.29926 240.98 5.30926 248.457C9.31593 258.083 25.6393 260.97 34.7826 257.52C44.9426 253.49 46.7659 239.933 49.7893 230.163C56.2859 207.423 51.6359 192.13 46.9993 169.983C44.4426 159.45 43.0693 144.92 37.3959 137.72C33.7059 132.823 28.0093 129.42 21.7926 129.237L21.6326 129.227L21.6293 129.23Z" stroke="#D1CDBF" stroke-miterlimit="10"/>
<path d="M27.2752 151.33C28.5418 153.926 27.1852 157.643 29.3852 156.573C31.5852 155.503 32.3385 152.526 31.0718 149.93C29.8052 147.333 26.9952 146.096 24.7985 147.166C22.6018 148.24 26.0118 148.733 27.2785 151.333L27.2752 151.33Z" fill="#373433"/>
<path d="M20.0388 154.86C21.3055 157.457 19.9488 161.173 22.1488 160.103C24.3488 159.033 25.1022 156.057 23.8355 153.46C22.5688 150.863 19.7588 149.627 17.5622 150.697C15.3655 151.77 18.7755 152.263 20.0422 154.863L20.0388 154.86Z" fill="#373433"/>
<path d="M39.3059 154.87C39.3059 154.87 36.9759 172.13 17.9492 166.18" stroke="#373433" stroke-width="0.666667" stroke-miterlimit="10" stroke-linecap="round"/>
<path d="M111.95 119.383L111.237 150.676C111.194 152.53 109.774 154.063 107.927 154.24L91.5238 155.826C89.6238 156.01 87.9038 154.706 87.5638 152.83L81.9571 121.733C81.5738 119.6 83.1138 117.6 85.2771 117.43L107.997 115.646C110.16 115.476 111.997 117.213 111.947 119.383H111.95Z" fill="#014E33" stroke="#017247" stroke-miterlimit="10"/>
<path d="M120.22 252.367C116.183 252.367 112.577 249.657 111.447 245.777L92.09 179.233C90.7367 174.583 88.2867 170.247 85 166.687L59.34 138.897C58.6867 138.19 58.3533 137.27 58.4033 136.307C58.4533 135.343 58.88 134.463 59.6033 133.827L72.89 122.13C73.5367 121.56 74.37 121.243 75.2333 121.243C76.2167 121.243 77.1333 121.637 77.81 122.35L94.9267 140.393C95.0667 140.54 95.2533 140.62 95.4533 140.62C95.7933 140.62 96.0833 140.39 96.1633 140.06L100.33 122.843C100.717 121.247 102.133 120.13 103.773 120.13C103.987 120.13 104.203 120.15 104.413 120.187L124.797 123.91C125.76 124.087 126.59 124.633 127.127 125.457C127.663 126.277 127.837 127.253 127.613 128.21L120.94 156.787C119.837 161.51 119.847 166.5 120.97 171.217L137.14 239.123C137.73 241.6 137.307 244.147 135.95 246.3C134.593 248.453 132.477 249.933 129.987 250.47L122.147 252.16C121.51 252.297 120.86 252.367 120.213 252.367H120.22Z" fill="url(#paint0_linear_278_3299)"/>
<path d="M103.773 120.63C103.957 120.63 104.143 120.647 104.323 120.68L124.707 124.403C125.537 124.553 126.247 125.027 126.707 125.73C127.17 126.433 127.317 127.273 127.127 128.093L120.453 156.67C119.333 161.467 119.343 166.537 120.487 171.33L136.657 239.237C137.213 241.58 136.813 243.993 135.53 246.033C134.247 248.07 132.24 249.473 129.887 249.98L122.047 251.67C121.443 251.8 120.83 251.867 120.22 251.867C116.403 251.867 112.993 249.303 111.927 245.637L92.57 179.093C91.1966 174.37 88.7066 169.963 85.37 166.347L59.71 138.557C59.15 137.95 58.8633 137.157 58.9066 136.33C58.95 135.503 59.3166 134.747 59.9366 134.2L73.2233 122.503C73.78 122.013 74.4966 121.743 75.2366 121.743C76.0833 121.743 76.8666 122.08 77.45 122.693L94.5666 140.737C94.7966 140.98 95.1233 141.12 95.4566 141.12C96.0266 141.12 96.52 140.733 96.6533 140.18L100.82 122.96C101.153 121.587 102.37 120.627 103.78 120.627M103.773 119.63C101.937 119.63 100.29 120.883 99.8433 122.727L95.6766 139.947C95.65 140.057 95.5533 140.123 95.4533 140.123C95.3933 140.123 95.3333 140.1 95.2866 140.053L78.17 122.01C77.3766 121.173 76.3066 120.747 75.2333 120.747C74.2833 120.747 73.3266 121.08 72.56 121.757L59.2733 133.453C57.5666 134.957 57.4333 137.567 58.9733 139.237L84.6333 167.027C87.8833 170.547 90.27 174.773 91.61 179.373L110.967 245.917C112.187 250.107 116.017 252.87 120.22 252.87C120.893 252.87 121.577 252.8 122.26 252.653L130.1 250.963C135.517 249.797 138.917 244.403 137.633 239.01L121.463 171.103C120.353 166.437 120.34 161.573 121.433 156.903L128.107 128.327C128.633 126.073 127.167 123.84 124.893 123.423L104.51 119.7C104.263 119.657 104.02 119.633 103.78 119.633L103.773 119.63Z" fill="#017247"/>
<path d="M106.671 143.316C107.991 145.513 107.081 148.9 108.941 147.783C110.797 146.666 111.234 143.98 109.914 141.783C108.594 139.586 106.017 138.713 104.157 139.83C102.297 140.946 105.351 141.12 106.671 143.316Z" fill="#373433"/>
<path d="M100.553 146.996C101.873 149.193 100.963 152.579 102.823 151.463C104.68 150.346 105.117 147.659 103.797 145.463C102.477 143.266 99.9001 142.393 98.0401 143.509C96.1801 144.626 99.2335 144.799 100.553 146.996Z" fill="#373433"/>
<path d="M117.566 145.51C117.566 145.51 116.849 160.933 99.5859 157.156" stroke="#373433" stroke-width="0.666667" stroke-miterlimit="10" stroke-linecap="round"/>
<path d="M57.7549 184.523C48.7049 193.763 43.5215 206.42 42.2615 219.293C41.6315 225.74 42.0049 232.533 45.1082 238.216C48.4549 244.34 54.5982 248.47 61.0015 251.25C71.1115 255.636 82.5915 257.193 93.3182 254.67C104.045 252.146 113.892 245.346 119.228 235.703C125.048 225.183 125.138 212.193 121.725 200.663C119.652 193.656 116.302 186.946 111.358 181.566C106.132 175.876 98.1248 170.89 90.2015 170.733C82.4915 170.583 74.8282 172.75 68.1415 176.54C64.3315 178.7 60.8182 181.393 57.7515 184.523H57.7549Z" fill="white"/>
<mask id="mask0_278_3299" style="mask-type:luminance" maskUnits="userSpaceOnUse" x="42" y="170" width="83" height="86">
<path d="M57.7549 184.522C48.7049 193.762 43.5215 206.419 42.2615 219.292C41.6315 225.739 42.0049 232.532 45.1082 238.215C48.4549 244.339 54.5982 248.469 61.0015 251.249C71.1115 255.635 82.5915 257.192 93.3182 254.669C104.045 252.145 113.892 245.345 119.228 235.702C125.048 225.182 125.138 212.192 121.725 200.662C119.652 193.655 116.302 186.945 111.358 181.565C106.132 175.875 98.1248 170.889 90.2015 170.732C82.4915 170.582 74.8282 172.749 68.1415 176.539C64.3315 178.699 60.8182 181.392 57.7515 184.522H57.7549Z" fill="white"/>
</mask>
<g mask="url(#mask0_278_3299)">
<path d="M93.3009 158.635C95.6475 159.648 97.2209 161.861 98.6375 163.988C101.028 167.581 103.338 171.271 104.858 175.308C109.544 187.778 106.101 201.855 100.661 214.015C96.1175 224.168 90.1075 233.831 81.8675 241.308C73.6275 248.785 63.0009 253.955 51.8809 254.325C64.7375 257.215 78.4909 256.678 90.7475 251.838C103.004 246.998 113.631 237.708 119.194 225.761C124.754 213.815 124.914 199.268 118.768 187.615C118.054 186.265 117.098 184.831 115.604 184.515C112.778 191.921 112.684 200.098 110.404 207.691C107.498 217.378 101.181 225.661 94.4242 233.181C91.4875 236.448 88.3809 239.721 86.7475 243.798C93.0709 241.201 97.9609 236.008 102.051 230.531C106.141 225.055 109.664 219.118 114.348 214.141C113.884 217.578 112.848 220.938 111.294 224.035" fill="white"/>
<path d="M92.1235 160.649C95.4235 162.215 97.3535 166.142 99.1668 169.135C101.307 172.665 103.03 176.349 103.937 180.392C105.737 188.415 104.337 196.825 101.843 204.539C97.0868 219.255 88.3668 234.322 75.5668 243.415C68.6068 248.362 60.4701 251.642 51.8835 251.989C49.3568 252.092 48.5868 255.982 51.2635 256.572C68.6801 260.412 87.6968 258.329 102.68 248.169C116.35 238.902 125.597 223.865 125.707 207.122C125.737 202.372 125.047 197.552 123.573 193.032C122.33 189.222 120.533 183.522 116.23 182.259C114.943 181.882 113.793 182.722 113.36 183.889C111.293 189.449 110.67 195.339 109.567 201.132C108.463 206.925 106.66 212.002 103.773 216.969C101.037 221.675 97.6735 225.969 94.0868 230.055C90.4668 234.182 86.6535 238.035 84.5035 243.175C83.6068 245.315 86.3368 246.485 87.9301 245.812C101.257 240.162 106.703 225.795 116 215.789C114.7 215.032 113.4 214.275 112.1 213.519C111.63 216.769 110.727 219.902 109.28 222.855C107.967 225.542 111.99 227.912 113.31 225.212C114.937 221.892 116.07 218.422 116.6 214.759C116.903 212.665 114.457 210.599 112.7 212.489C103.73 222.145 98.3901 236.349 85.5735 241.782C86.7168 242.662 87.8601 243.539 89.0001 244.419C91.0435 239.539 95.3068 235.819 98.6768 231.865C102.27 227.652 105.657 223.202 108.353 218.352C111.09 213.432 112.937 208.195 114.003 202.675C115.143 196.789 115.753 190.789 117.857 185.132L114.987 186.762C116.29 187.145 116.973 189.165 117.49 190.259C118.34 192.055 119.007 193.932 119.55 195.842C120.59 199.519 121.07 203.305 121.04 207.125C120.987 214.679 118.9 222.109 115.06 228.609C107.627 241.189 94.5635 249.542 80.4035 252.485C71.2168 254.395 61.6435 254.089 52.5035 252.075L51.8835 256.659C69.3801 255.952 84.1401 244.962 93.8668 231.012C98.8835 223.815 102.883 215.755 105.77 207.479C108.677 199.149 110.23 190.215 108.863 181.422C108.08 176.372 106.093 171.662 103.497 167.285C101.223 163.455 98.6701 158.612 94.4768 156.619C91.7768 155.335 89.4068 159.359 92.1201 160.649H92.1235Z" fill="#FAF5E2"/>
<path d="M115.831 200.942C117.428 202.486 117.528 205.046 116.921 207.182C116.314 209.316 115.134 211.249 114.484 213.372C115.364 211.192 116.244 209.009 117.121 206.829C116.654 208.129 116.188 209.429 115.721 210.726C117.024 208.179 118.208 205.572 119.258 202.912C118.674 204.862 118.091 206.809 117.508 208.759C117.504 207.739 117.421 206.722 117.261 205.716C117.208 205.382 117.114 205.002 116.811 204.849C116.401 204.646 115.901 205.049 115.828 205.499C115.754 205.949 115.964 206.396 116.171 206.802" stroke="#FAF5E2" stroke-width="0.333333" stroke-miterlimit="10"/>
<path d="M115.48 212.926C116.48 209.966 117.193 206.909 117.6 203.813C117.387 205.093 117.467 206.419 117.833 207.666C118.487 205.473 118.593 203.119 118.143 200.876C118.253 201.423 117.047 203.226 116.817 203.833C116.653 204.263 116.3 204.883 116.33 205.356C116.35 205.629 116.63 205.779 116.663 206.039C116.79 207.009 116.26 208.343 116.083 209.306C115.863 210.513 115.663 211.719 115.477 212.929L115.48 212.926Z" stroke="#FAF5E2" stroke-width="0.333333" stroke-miterlimit="10"/>
<path d="M116.863 197.849C116.82 200.679 115.677 203.482 113.727 205.536C115.737 204.822 117.613 203.732 119.227 202.336C117.75 202.729 116.397 203.572 115.393 204.722C117.163 203.569 118.933 202.416 120.707 201.262C119.597 202.536 118.49 203.812 117.38 205.086C118.577 202.722 119.557 200.252 120.303 197.709C119.04 198.362 117.95 199.352 117.177 200.549C118.063 200.232 118.883 199.726 119.563 199.076C118.347 201.252 117.127 203.429 115.91 205.606C116.863 204.279 117.82 202.956 118.773 201.629C118.04 203.609 117.54 205.676 117.29 207.776" stroke="#FAF5E2" stroke-width="0.333333" stroke-miterlimit="10"/>
<path d="M122.094 195.496C120.864 195.106 119.484 195.719 118.637 196.696C117.791 197.673 117.381 198.943 117.061 200.196C116.694 201.639 116.421 203.106 116.244 204.583C116.224 204.759 116.211 204.956 116.321 205.093C116.541 205.363 116.971 205.156 117.237 204.929C118.541 203.816 119.657 202.489 120.534 201.016C119.671 202.483 118.807 203.949 117.947 205.419C118.214 203.649 118.267 201.849 118.111 200.066C116.874 201.739 116.751 204.159 117.804 205.953C117.997 206.279 118.327 206.626 118.694 206.526C119.121 206.409 119.167 205.826 119.121 205.386" stroke="#FAF5E2" stroke-width="1.66667" stroke-miterlimit="10"/>
<path d="M114.947 223.612C112.857 227.786 109.491 231.309 105.414 233.582" stroke="#FAF5E2" stroke-width="2.66667" stroke-miterlimit="10"/>
<path d="M109.337 229.185C110.317 229.062 111.253 228.592 111.93 227.872C111.67 229.529 110.757 231.072 109.437 232.102C109.983 231.002 110.527 229.899 111.073 228.799C110.373 229.965 109.677 231.135 108.977 232.302" stroke="#FAF5E2" stroke-width="2.66667" stroke-miterlimit="10"/>
<path d="M86.9032 247.165C84.2266 246.992 81.4999 247.682 79.2266 249.105C80.9132 247.982 82.7766 247.129 84.7266 246.582C83.5699 247.455 82.5899 248.559 81.8632 249.815C82.6732 249.142 83.4832 248.465 84.2932 247.792C83.4032 248.319 82.5832 248.959 81.8532 249.692C82.6066 249.062 83.3599 248.432 84.1132 247.805C83.8332 248.279 83.4899 248.715 83.0966 249.099C83.2532 248.112 83.4099 247.125 83.5699 246.139C83.4066 246.819 83.1599 247.479 82.8399 248.102C83.1366 247.715 83.5466 247.415 84.0032 247.249" stroke="#FAF5E2" stroke-width="2.66667" stroke-miterlimit="10"/>
<path d="M104.533 175.692C104.06 177.302 105.276 178.859 106.276 180.206C109.1 184.006 110.776 188.646 111.026 193.372" stroke="#FAF5E2" stroke-width="2.66667" stroke-miterlimit="10"/>
<path d="M114.511 187.772C116.371 188.126 117.691 189.879 118.195 191.702C118.698 193.526 118.561 195.456 118.585 197.349C118.675 205.179 121.621 212.946 126.755 218.862C125.025 218.992 123.421 220.402 123.255 222.129C123.088 223.856 124.558 225.622 126.291 225.599C124.221 225.836 121.975 226.152 120.531 227.652C119.085 229.152 119.268 232.232 121.275 232.782C119.038 234.629 116.805 236.476 114.568 238.322C113.921 238.856 113.241 239.442 113.025 240.252C112.765 241.222 113.268 242.272 114.021 242.936C114.775 243.599 115.745 243.962 116.688 244.306C112.085 245.679 107.478 247.056 102.875 248.429C101.411 248.866 99.6645 249.642 99.5778 251.166C99.5312 252.006 100.045 252.776 100.175 253.606C100.391 255.009 99.4445 256.389 98.2212 257.112C96.9978 257.836 95.5445 258.032 94.1312 258.192C91.5412 258.482 88.7878 258.662 86.4545 257.499C85.2945 256.919 84.3012 256.036 83.1245 255.492C81.5745 254.779 79.8178 254.709 78.1145 254.649C72.8945 254.469 67.6712 254.286 62.4512 254.106" stroke="#FAF5E2" stroke-width="2.66667" stroke-miterlimit="10"/>
<path d="M118.057 213.856C119.107 211.039 119.247 208.149 118.714 205.206C118.307 202.963 114.647 202.996 114.214 205.206C113.584 208.406 112.717 211.536 111.61 214.606L116.11 215.846C116.944 212.579 117.43 209.246 117.58 205.883H112.914C113.247 211.633 113.004 217.386 112.737 223.136C112.61 225.849 116.54 226.189 117.32 223.756C118.72 219.386 120.124 215.013 121.524 210.643C119.997 210.436 118.467 210.229 116.94 210.023L116.334 215.929C116.057 218.613 120.204 218.996 120.917 216.549C122.06 212.636 121.52 208.649 120.794 204.713C120.137 201.136 119.4 197.459 117.167 194.493C115.597 192.406 112.377 193.579 112.904 196.289C113.27 198.176 113.764 200.016 114.394 201.833C115.114 203.909 118.294 204.189 118.894 201.833C119.894 197.903 118.894 193.569 118.287 189.639C118.004 187.813 117.647 186.109 116.624 184.533C115.48 182.776 114.087 181.146 112.674 179.606C110.974 177.756 108.384 179.753 108.774 181.876C109.164 183.999 110.437 185.849 111.504 187.726C112.644 189.733 113.69 191.789 114.644 193.893C116.55 198.096 118 202.496 119.097 206.973C119.81 209.889 124.314 208.653 123.597 205.733C122.497 201.239 121.004 196.879 119.164 192.636C118.284 190.613 117.317 188.626 116.267 186.686C115.217 184.746 113.684 182.836 113.277 180.633C111.977 181.389 110.677 182.146 109.377 182.903C110.467 184.089 111.547 185.313 112.447 186.653C113.347 187.993 113.554 189.326 113.794 190.876C114.267 193.926 115.177 197.543 114.4 200.589H118.9C118.27 198.773 117.774 196.933 117.41 195.046C115.99 195.646 114.567 196.246 113.147 196.843C115.03 199.346 115.627 202.343 116.194 205.363C116.814 208.659 117.387 212.019 116.424 215.306C117.95 215.513 119.48 215.719 121.007 215.926L121.614 210.019C121.894 207.303 117.797 207.006 117.03 209.399C115.63 213.769 114.227 218.143 112.827 222.513C114.354 222.719 115.884 222.926 117.41 223.133C117.677 217.383 117.92 211.633 117.587 205.879C117.414 202.886 113.057 202.866 112.92 205.879C112.784 208.893 112.35 211.726 111.617 214.603C110.884 217.479 115.107 218.639 116.117 215.843C117.224 212.773 118.09 209.643 118.72 206.443H114.22C114.607 208.569 114.31 210.603 113.564 212.613C112.514 215.433 117.024 216.649 118.064 213.853L118.057 213.856Z" fill="#FAF5E2"/>
<path d="M116.94 198.969C118.02 206.252 119.157 213.896 117.64 221.199C116.124 228.502 111.704 234.136 107.13 239.716L111.114 241.366C111.61 236.122 112.777 230.986 114.5 226.009C115.42 223.349 111.674 222.196 110.237 224.212C107.34 228.269 105.59 232.956 103.884 237.599C105.41 237.806 106.94 238.012 108.467 238.219C108.33 236.172 108.43 234.176 108.857 232.166C109.494 229.156 105.487 228.202 104.357 230.926C102.18 236.176 99.4236 241.176 96.2436 245.879C97.6636 246.479 99.0869 247.079 100.507 247.676C101.62 244.319 103.234 241.219 105.28 238.336C103.86 237.736 102.437 237.136 101.017 236.539C100.044 238.986 99.3636 241.499 98.9703 244.102C98.667 246.112 101.204 248.392 102.87 246.372C105.984 242.599 108.837 238.632 111.384 234.456C112.544 232.556 110.14 229.872 108.19 231.262C101.307 236.172 95.0469 241.852 89.5669 248.296L92.8669 251.596C95.3836 248.612 97.6636 245.456 99.667 242.106C101.254 239.452 97.4003 237.429 95.637 239.749C93.5536 242.489 90.9603 244.799 88.0569 246.636L91.2503 249.829C91.7603 248.856 92.2703 247.882 92.7803 246.906C93.7803 244.996 91.6269 242.286 89.5869 243.712C87.6603 245.062 85.8303 246.532 84.1136 248.142L87.7769 250.969C88.8103 249.162 89.7903 247.312 90.157 245.242C90.5236 243.172 88.6203 241.576 86.7303 242.606C83.717 244.252 80.7403 245.959 77.7969 247.726C78.7403 248.946 79.6836 250.169 80.6236 251.389C81.8136 250.099 83.007 248.809 84.197 247.519C86.2303 245.316 83.0669 242.122 80.8969 244.219C77.8803 247.139 74.7403 250.116 70.4303 250.776C67.8503 251.169 68.4336 255.586 71.0503 255.359C78.5536 254.712 86.0303 253.569 93.3069 251.599C100.164 249.742 107.557 247.372 113.29 243.046C118.817 238.872 122.37 232.679 124.63 226.229C127.23 218.806 126.56 211.296 125.434 203.656C124.854 199.719 123.837 195.926 121.917 192.416C119.997 188.906 117.304 185.659 114.7 182.526C113.207 180.729 110.09 182.652 110.8 184.796C114.76 196.736 112.607 209.709 111.957 221.996C111.657 227.706 111.324 233.772 108.704 238.976C106.084 244.179 101.477 247.726 97.0203 251.202C96.0203 251.982 96.217 253.679 97.0203 254.502C97.9903 255.496 99.3303 255.272 100.32 254.502C104.037 251.606 107.697 248.652 110.537 244.852C113.467 240.932 115.02 236.222 115.754 231.426C116.487 226.629 116.597 221.656 116.907 216.759C117.234 211.562 117.7 206.366 117.727 201.156C117.757 195.209 117.177 189.222 115.297 183.556C113.997 184.312 112.697 185.069 111.397 185.826C115.624 190.909 119.27 195.912 120.537 202.536C121.807 209.192 122.664 216.372 120.77 222.972C119.1 228.796 116.054 234.702 111.36 238.656C106.43 242.809 99.6436 244.932 93.5503 246.686C86.2069 248.799 78.6536 250.039 71.0469 250.696L71.6669 255.279C76.7269 254.506 80.6469 250.952 84.1936 247.522L80.8936 244.222C79.7036 245.512 78.5103 246.802 77.3203 248.092C75.5669 249.992 77.8036 253.166 80.1469 251.756C83.0903 249.989 86.0669 248.282 89.0803 246.636C87.9369 245.756 86.7936 244.879 85.6536 243.999C85.3536 245.699 84.5936 247.126 83.7436 248.609C82.4136 250.936 85.4803 253.246 87.407 251.436C88.837 250.096 90.3303 248.859 91.937 247.736L88.7436 244.542C88.2336 245.516 87.7236 246.489 87.2136 247.466C86.1803 249.436 88.337 251.969 90.407 250.659C94.027 248.369 97.0703 245.506 99.6603 242.099L95.6303 239.742C93.8303 242.752 91.8236 245.609 89.5603 248.289C87.6369 250.569 90.9103 253.882 92.8603 251.589C98.0736 245.459 103.987 239.959 110.537 235.282L107.344 232.089C105.004 235.926 102.42 239.596 99.5603 243.059C100.86 243.816 102.16 244.572 103.46 245.329C103.854 242.726 104.534 240.212 105.507 237.766C106.55 235.146 102.66 233.969 101.244 235.969C98.9669 239.179 97.237 242.692 96.0003 246.426C95.1303 249.052 98.8503 250.316 100.264 248.222C103.687 243.162 106.51 237.792 108.85 232.152L104.35 230.912C103.84 233.322 103.63 235.746 103.794 238.206C103.974 240.879 107.464 241.312 108.377 238.826C109.954 234.539 111.59 230.299 114.26 226.552C112.84 225.952 111.417 225.352 109.997 224.756C108.137 230.136 106.984 235.686 106.444 241.352C106.26 243.299 109.177 244.529 110.427 243.002C115.5 236.812 120.464 230.439 122.137 222.426C123.81 214.412 122.647 205.876 121.437 197.716C121.25 196.459 119.677 195.792 118.567 196.086C117.227 196.439 116.754 197.716 116.937 198.956L116.94 198.969Z" fill="#FAF5E2"/>
<path d="M114.688 188.375C114.838 184.362 114.478 180.368 111.638 177.282C109.421 174.872 105.011 177.375 106.068 180.525C111.718 197.398 102.528 214.048 94.2114 228.242C92.2014 231.672 96.6448 234.618 99.4481 232.282C105.665 227.092 110.055 220.165 114.291 213.362L108.081 211.678C107.091 222.115 104.448 234.038 94.9214 240.025L98.9614 245.262C101.661 241.798 104.515 238.465 107.521 235.265C105.665 234.185 103.808 233.102 101.951 232.022C101.065 234.855 98.0881 236.548 95.6314 237.862C92.3281 239.628 88.7481 240.718 85.0548 241.308C86.4214 242.675 87.7881 244.042 89.1548 245.408C88.9614 245.712 89.0481 245.652 89.4181 245.222C92.0348 242.652 88.4914 237.675 85.3781 239.985C83.3781 241.472 80.8114 243.415 80.8681 246.168C80.9214 248.758 83.3948 250.595 85.2248 252.098C89.0214 255.218 94.1248 257.658 99.0381 255.602C100.698 254.905 101.888 253.395 101.365 251.502C100.925 249.895 98.9548 248.525 97.2648 249.175C95.0614 250.022 92.9048 250.435 90.5481 250.392C87.3914 250.332 85.8081 255.155 88.8648 256.602C92.3981 258.275 95.5714 257.088 98.9314 255.635C102.291 254.182 105.521 252.582 108.725 250.868C112.511 248.848 109.148 243.092 105.361 245.112C102.911 246.418 100.435 247.675 97.9081 248.832C96.8481 249.318 95.7848 249.818 94.6948 250.238C94.1714 250.442 92.8148 251.118 92.2314 250.842L90.5481 257.052C93.4448 257.105 96.3314 256.635 99.0381 255.598L97.2648 249.168C95.3714 249.962 93.6148 249.685 91.8448 248.675C90.9148 248.145 90.0848 247.518 89.2781 246.818C88.6181 246.245 87.4414 245.388 87.1014 244.692L87.5581 246.375C87.6314 247.065 87.2814 247.065 87.9714 246.412C88.2181 246.178 88.4714 245.942 88.7448 245.738L84.7048 240.502C83.7681 241.422 83.2281 242.425 82.7281 243.628C81.6348 246.248 84.6681 248.075 86.8281 247.728C91.4581 246.985 95.9614 245.388 100.021 243.035C103.745 240.878 107.058 238.002 108.378 233.782C109.368 230.618 105.068 228.135 102.808 230.538C99.8014 233.738 96.9448 237.072 94.2481 240.535C93.2281 241.845 92.8681 243.505 93.9881 244.912C94.9881 246.165 96.8548 246.672 98.2881 245.772C110.011 238.408 113.521 224.612 114.751 211.668C115.081 208.195 110.158 207.385 108.541 209.985C104.578 216.348 100.555 222.702 94.7381 227.558L99.9748 231.598C109.198 215.852 118.741 197.382 112.501 178.745C110.645 179.825 108.788 180.908 106.931 181.988C108.415 183.602 108.101 186.352 108.028 188.368C107.868 192.658 114.535 192.652 114.695 188.368L114.688 188.375Z" fill="#FAF5E2"/>
</g>
<path d="M57.7549 184.523C48.7049 193.763 43.5215 206.42 42.2615 219.293C41.6315 225.74 42.0049 232.533 45.1082 238.216C48.4549 244.34 54.5982 248.47 61.0015 251.25C71.1115 255.636 82.5915 257.193 93.3182 254.67C104.045 252.146 113.892 245.346 119.228 235.703C125.048 225.183 125.138 212.193 121.725 200.663C119.652 193.656 116.302 186.946 111.358 181.566C106.132 175.876 98.1248 170.89 90.2015 170.733C82.4915 170.583 74.8282 172.75 68.1415 176.54C64.3315 178.7 60.8182 181.393 57.7515 184.523H57.7549Z" stroke="#D1CDBF" stroke-miterlimit="10"/>
<path d="M66.1677 230.147C76.0407 230.147 84.0443 222.143 84.0443 212.27C84.0443 202.397 76.0407 194.394 66.1677 194.394C56.2947 194.394 48.291 202.397 48.291 212.27C48.291 222.143 56.2947 230.147 66.1677 230.147Z" fill="#F5BF00"/>
<path d="M60.0934 204.424C59.0934 206.134 59.8334 208.744 58.3834 207.897C56.9367 207.054 56.5734 204.98 57.57 203.27C58.5667 201.56 60.55 200.857 62 201.704C63.45 202.55 61.09 202.714 60.0934 204.424Z" fill="#373433"/>
<path d="M64.8599 207.204C63.8599 208.914 64.5999 211.524 63.1499 210.677C61.6999 209.83 61.3399 207.76 62.3366 206.05C63.3332 204.34 65.3166 203.637 66.7666 204.484C68.2166 205.33 65.8566 205.494 64.8599 207.204Z" fill="#373433"/>
<path d="M51.6934 206.227C51.6934 206.227 52.4034 218.14 65.71 215.047" stroke="#373433" stroke-width="0.666667" stroke-miterlimit="10" stroke-linecap="round"/>
<path d="M149.525 158.247C156.569 160.193 163.789 161.583 171.085 161.97C175.239 162.19 179.469 162.077 183.445 160.857C187.422 159.637 191.145 157.207 193.262 153.627C195.379 150.047 195.622 145.25 193.295 141.803C191.335 138.907 187.962 137.337 184.682 136.13C173.595 132.053 161.569 130.56 149.822 131.81C143.142 132.52 136.239 134.27 131.299 138.823C124.989 144.643 123.115 154.02 124.012 162.56C124.412 166.37 125.365 170.287 127.845 173.207C129.985 175.727 133.055 177.257 136.122 178.49C148.152 183.327 161.612 184.543 174.315 181.947" fill="#D8BF79"/>
<path d="M149.525 158.247C156.569 160.193 163.789 161.583 171.085 161.97C175.239 162.19 179.469 162.077 183.445 160.857C187.422 159.637 191.145 157.207 193.262 153.627C195.379 150.047 195.622 145.25 193.295 141.803C191.335 138.907 187.962 137.337 184.682 136.13C173.595 132.053 161.569 130.56 149.822 131.81C143.142 132.52 136.239 134.27 131.299 138.823C124.989 144.643 123.115 154.02 124.012 162.56C124.412 166.37 125.365 170.287 127.845 173.207C129.985 175.727 133.055 177.257 136.122 178.49C148.152 183.327 161.612 184.543 174.315 181.947" stroke="#D8BF79" stroke-width="0.333333" stroke-miterlimit="10"/>
<path d="M132.489 176.82C128.922 178.514 125.849 181.394 123.742 184.767C120.429 190.077 119.232 196.464 119.025 202.72C118.825 208.844 119.742 215.5 124.022 219.887C127.569 223.52 132.772 224.93 137.762 225.86C148.649 227.89 159.949 228.344 170.759 225.934" fill="#D8BF79"/>
<path d="M132.489 176.82C128.922 178.514 125.849 181.394 123.742 184.767C120.429 190.077 119.232 196.464 119.025 202.72C118.825 208.844 119.742 215.5 124.022 219.887C127.569 223.52 132.772 224.93 137.762 225.86C148.649 227.89 159.949 228.344 170.759 225.934" stroke="#D8BF79" stroke-width="0.333333" stroke-miterlimit="10"/>
<path d="M186.53 159.597C189.764 162.803 191.984 167.123 192.937 171.613C194.407 178.527 193.214 185.773 190.96 192.473C189.56 196.637 187.62 200.84 184.137 203.52C181.354 205.66 177.847 206.62 174.387 207.227C163.134 209.197 151.32 207.847 140.797 203.397" fill="#D8BF79"/>
<path d="M186.53 159.597C189.764 162.803 191.984 167.123 192.937 171.613C194.407 178.527 193.214 185.773 190.96 192.473C189.56 196.637 187.62 200.84 184.137 203.52C181.354 205.66 177.847 206.62 174.387 207.227C163.134 209.197 151.32 207.847 140.797 203.397" stroke="#D8BF79" stroke-width="0.333333" stroke-miterlimit="10"/>
<path d="M123.013 218.683C120.963 220.859 119.633 223.806 118.496 226.636C116.706 231.109 115.093 236.183 116.956 240.629C118.733 244.873 123.169 247.296 127.393 249.119C140.116 254.619 154.286 257.726 167.916 255.199C173.166 254.226 178.473 252.293 182.099 248.376C185.553 244.643 187.096 239.553 188.166 234.579C189.509 228.339 190.273 221.819 188.829 215.599C187.863 211.436 185.763 207.409 182.706 204.479" fill="#D8BF79"/>
<path d="M123.013 218.683C120.963 220.859 119.633 223.806 118.496 226.636C116.706 231.109 115.093 236.183 116.956 240.629C118.733 244.873 123.169 247.296 127.393 249.119C140.116 254.619 154.286 257.726 167.916 255.199C173.166 254.226 178.473 252.293 182.099 248.376C185.553 244.643 187.096 239.553 188.166 234.579C189.509 228.339 190.273 221.819 188.829 215.599C187.863 211.436 185.763 207.409 182.706 204.479" stroke="#D8BF79" stroke-width="0.333333" stroke-miterlimit="10"/>
<path d="M150.958 160.12C154.368 160.476 157.812 160.51 161.228 160.216C157.165 160.023 153.045 161.216 149.715 163.556C151.322 162.026 152.432 159.983 152.842 157.8C152.898 157.493 152.942 157.17 152.835 156.876C152.515 155.983 151.135 156.08 150.445 156.733C149.755 157.386 149.432 158.343 148.762 159.016C149.955 159.646 151.305 159.976 152.652 159.973C151.908 159.816 151.452 160.94 151.868 161.576C152.285 162.213 153.108 162.413 153.855 162.563C156.968 163.186 160.175 163.77 163.295 163.196C162.158 164.22 161.292 165.543 160.805 166.996C162.858 166.223 164.652 164.78 165.852 162.943C165.948 162.793 166.045 162.626 166.028 162.45C165.985 162.026 165.398 161.943 164.985 162.036C163.108 162.453 161.578 164.116 161.318 166.02C162.015 165.603 162.815 164.793 162.355 164.123C162.212 163.913 161.972 163.79 161.738 163.69C160.308 163.07 158.692 162.896 157.162 163.196C156.288 163.37 155.312 163.85 155.195 164.73C155.078 165.596 155.862 166.306 156.612 166.753C160.662 169.17 166.198 168.793 169.878 165.843C169.645 165.39 168.955 165.716 168.615 166.093C167.418 167.423 166.505 169.006 165.952 170.703C165.762 171.29 165.625 171.976 165.978 172.483C166.478 173.196 167.595 173.053 168.348 172.613C169.825 171.75 170.755 170.026 170.662 168.32C170.632 167.776 170.482 167.196 170.058 166.856C169.545 166.44 168.762 166.513 168.198 166.863C167.638 167.213 167.252 167.78 166.915 168.35C166.792 168.556 166.675 168.82 166.805 169.02C167.002 169.32 167.472 169.123 167.738 168.883C168.912 167.833 169.708 166.373 169.965 164.82C170.068 164.196 170.012 163.423 169.452 163.13C169.058 162.923 168.575 163.053 168.165 163.223C166.172 164.06 164.618 165.883 164.112 167.986C164.055 168.223 164.012 168.466 164.062 168.703C164.155 169.126 164.532 169.43 164.928 169.603C165.992 170.073 167.265 169.84 168.272 169.256C169.278 168.673 170.068 167.783 170.805 166.886C171.295 166.29 171.735 165.306 171.108 164.856C170.728 164.583 170.195 164.74 169.772 164.94C167.552 165.98 165.792 167.956 165.015 170.283C164.828 170.84 164.705 171.476 164.988 171.986C165.512 172.93 166.952 172.746 167.858 172.163C168.868 171.513 169.662 170.523 170.075 169.393C170.205 169.036 170.195 168.493 169.818 168.443C169.585 168.413 169.392 168.623 169.265 168.82C168.322 170.266 168.225 172.226 169.025 173.756C169.268 174.22 169.672 174.69 170.195 174.673C170.968 174.65 171.275 173.676 171.372 172.913C170.522 173.303 169.802 173.973 169.352 174.793C171.872 174.35 173.868 171.866 173.755 169.31C173.705 168.193 173.305 167.086 173.468 165.983C173.618 164.963 174.215 163.816 173.592 162.996C173.048 164.636 173.082 166.46 173.685 168.08C173.512 166.573 173.465 165.05 173.542 163.536C174.312 164.936 175.262 166.24 176.358 167.403C176.438 166.023 176.515 164.643 176.595 163.26C177.262 164.85 177.705 166.533 177.908 168.243C177.775 166.173 177.758 164.093 177.858 162.02C178.668 162.736 179.338 163.616 179.815 164.59C180.045 164.573 180.255 164.42 180.342 164.206" fill="#D8BF79"/>
<path d="M150.959 162.453C154.383 162.79 157.803 162.823 161.229 162.55C164.193 162.313 164.269 157.98 161.229 157.883C156.716 157.74 152.273 159.003 148.539 161.543C149.483 162.763 150.426 163.987 151.366 165.207C153.423 163.15 156.516 158.557 154.766 155.557C153.933 154.127 152.163 153.633 150.619 154.057C148.793 154.56 148.233 156.063 147.109 157.367C146.206 158.413 146.133 160.333 147.583 161.03C149.213 161.817 150.839 162.247 152.653 162.307V157.64C151.033 157.67 149.769 158.727 149.463 160.333C149.119 162.12 150.189 163.637 151.779 164.35C153.459 165.103 155.506 165.277 157.316 165.513C159.553 165.807 161.689 165.803 163.919 165.447C163.163 164.147 162.406 162.847 161.649 161.547C160.213 162.92 159.243 164.517 158.559 166.377C157.983 167.947 159.819 169.9 161.429 169.247C163.936 168.23 170.883 163.927 167.559 160.543C166.106 159.063 163.716 159.743 162.203 160.73C160.586 161.787 159.429 163.503 159.069 165.4C158.709 167.297 160.673 169.277 162.496 168.037C163.866 167.103 165.179 165.653 164.736 163.85C164.293 162.047 162.359 161.26 160.683 160.933C157.516 160.313 151.699 161.447 153.023 165.967C153.969 169.197 158.519 170.36 161.433 170.623C164.813 170.927 168.356 169.92 171.053 167.86C172.123 167.043 172.813 165.257 171.526 164.197C169.146 162.233 167.036 164.103 165.599 166.18C164.309 168.05 162.746 170.983 163.779 173.257C164.886 175.693 167.923 175.72 169.909 174.377C171.896 173.033 173.089 170.673 172.989 168.323C172.876 165.713 170.716 163.64 168.029 164.41C165.959 165 163.749 167.73 164.669 169.923C165.186 171.153 166.616 171.717 167.866 171.387C169.116 171.057 169.929 170.073 170.633 169.1C171.923 167.317 173.036 164.433 171.829 162.343C170.426 159.91 167.473 160.673 165.586 162.02C163.699 163.367 162.293 165.313 161.829 167.553C161.269 170.27 163.539 172.183 166.126 172.187C168.713 172.19 170.743 170.617 172.296 168.737C173.683 167.057 174.613 164.267 172.286 162.853C169.959 161.44 167.296 163.44 165.709 164.96C164.123 166.48 162.559 168.88 162.489 171.16C162.409 173.797 164.869 175.393 167.309 174.873C169.749 174.353 172.246 171.833 172.439 169.323C172.553 167.84 171.696 166.377 170.126 166.163C168.556 165.95 167.496 167.067 166.886 168.34C165.766 170.68 165.826 174.177 167.849 176.057C170.213 178.253 173.149 176.287 173.616 173.543C173.953 171.55 172.093 169.907 170.189 170.907C168.973 171.547 168.056 172.46 167.333 173.623C166.209 175.433 168.059 177.48 169.969 177.05C172.809 176.41 175.183 174.12 175.873 171.273C176.246 169.723 175.816 168.357 175.776 166.817C175.726 164.943 176.533 163.673 175.603 161.823C174.673 159.973 171.869 160.55 171.339 162.38C170.729 164.483 170.746 166.623 171.433 168.703C172.209 171.057 176.299 170.84 176.016 168.083C175.859 166.567 175.813 165.067 175.873 163.54C174.423 163.933 172.973 164.327 171.526 164.717C172.416 166.283 173.489 167.727 174.709 169.053C176.156 170.63 178.583 169.313 178.693 167.403C178.773 166.023 178.849 164.643 178.929 163.26C177.403 163.467 175.873 163.673 174.346 163.88C174.993 165.493 175.429 167.14 175.659 168.863C176.009 171.46 180.396 170.853 180.243 168.243C180.119 166.17 180.103 164.097 180.193 162.02L176.209 163.67C176.886 164.31 177.366 164.947 177.799 165.767C178.233 166.587 179.506 167.183 180.436 166.84C181.063 166.607 181.569 166.393 181.993 165.857C182.779 164.86 182.946 163.533 181.993 162.557C181.189 161.737 179.473 161.57 178.693 162.557L179.196 162.34L181.833 163.413C181.226 162.27 180.453 161.26 179.513 160.373C178.013 158.953 175.616 159.997 175.529 162.023C175.443 164.05 175.459 166.17 175.579 168.247C177.106 168.04 178.636 167.833 180.163 167.627C179.929 165.903 179.496 164.257 178.849 162.643C177.893 160.257 174.423 160.503 174.266 163.263C174.186 164.643 174.109 166.023 174.029 167.407L178.013 165.757C177.053 164.71 176.263 163.597 175.559 162.363C174.379 160.287 171.303 161.29 171.213 163.54C171.153 165.067 171.199 166.567 171.356 168.083C172.883 167.877 174.413 167.67 175.939 167.463C175.496 166.117 175.453 164.983 175.846 163.62L171.583 164.177C171.563 163.843 171.536 163.823 171.503 164.117C171.459 164.363 171.399 164.607 171.329 164.847C171.216 165.4 171.109 165.973 171.103 166.537C171.093 167.543 171.466 168.533 171.426 169.537C171.363 171.107 170.213 172.213 168.739 172.547C169.619 173.69 170.496 174.833 171.376 175.973C171.693 175.463 172.029 175.21 172.556 174.93L169.129 172.293C169.126 172.32 169.036 172.897 169.029 172.897L171.049 172.58C170.963 172.387 170.903 172.183 170.873 171.977C170.886 171.7 170.883 171.337 170.869 171.06C170.843 170.463 171.496 170.357 170.449 170.697L168.653 170.46L168.916 170.65L167.843 169.257C167.676 168.373 167.716 169.103 167.389 169.51C167.246 169.687 166.563 170.08 166.496 170.27C165.886 170.357 166.106 170.71 167.156 171.337L167.279 170.907C167.526 170.58 167.639 170.06 167.866 169.69C168.336 168.917 168.959 168.227 169.693 167.69C169.963 167.503 170.239 167.333 170.526 167.18C170.033 166.583 169.536 165.983 169.043 165.387C168.779 165.433 168.229 166.33 168.003 166.543C167.673 166.853 167.356 167.153 166.929 167.333C166.759 167.427 166.579 167.487 166.389 167.52C165.923 167.403 165.863 167.587 166.206 168.063C166.303 169.353 166.569 167.96 166.716 167.657C166.899 167.277 167.129 166.93 167.406 166.613C167.683 166.297 167.993 166.02 168.343 165.783C168.536 165.653 168.736 165.537 168.943 165.437C168.186 164.22 167.756 163.933 167.659 164.577C167.353 165.03 167.189 166.76 166.476 166.923L168.273 167.16L168.003 167.01L169.159 169.023C168.889 169.593 168.866 169.693 169.083 169.32C169.169 169.16 169.273 169.017 169.396 168.883C168.629 168.08 168.279 167.97 168.349 168.56C168.366 168.74 168.346 168.917 168.289 169.09C168.213 169.41 168.083 169.687 167.889 169.953C167.736 170.167 167.216 170.443 167.139 170.63C166.636 170.847 166.956 171.233 168.096 171.787L168.223 171.333C168.463 170.913 168.596 170.353 168.823 169.917C169.069 169.443 169.346 168.973 169.656 168.54L169.939 168.157C170.486 167.657 170.393 167.597 169.656 167.98L168.006 167.297L168.253 167.5C168.409 166.28 168.566 165.057 168.726 163.837C166.519 165.523 163.826 166.347 161.049 165.91C160.436 165.813 159.819 165.647 159.239 165.433C158.916 165.313 157.789 164.507 157.563 164.58L157.369 165.563L157.809 165.45C158.136 165.517 158.589 165.377 158.933 165.393C159.233 165.407 160.043 165.707 160.323 165.647C160.823 165.89 160.879 165.607 160.489 164.79C160.653 163.88 160.546 163.62 160.169 164.01L163.596 166.647C163.709 166.043 163.853 165.537 164.276 165.07C164.413 164.917 164.656 164.797 164.773 164.65C164.869 164.58 164.976 164.52 165.083 164.473C165.623 164.253 165.276 163.973 164.043 163.637L163.806 161.84C163.629 162.84 161.303 164.313 160.213 164.757C161.169 165.713 162.126 166.67 163.083 167.627C163.486 166.523 164.129 165.66 164.973 164.857C166.809 163.103 164.836 160.617 162.703 160.957C161.036 161.223 159.306 161.123 157.639 160.893C156.796 160.777 155.959 160.613 155.126 160.45C154.766 160.383 154.406 160.31 154.049 160.227C153.106 159.897 152.649 160.593 152.679 162.32C155.686 162.263 155.679 157.753 152.679 157.653C151.719 157.62 150.833 157.433 149.966 157.013C150.123 158.233 150.279 159.457 150.439 160.677C150.876 160.173 151.573 159.503 151.766 158.853C151.866 158.517 151.919 158.683 151.873 158.557C151.593 158.637 151.356 158.493 151.159 158.13C150.653 157.49 150.396 157.507 150.383 158.183C150.066 158.727 149.939 159.413 149.619 159.977C149.199 160.71 148.693 161.32 148.096 161.913C146.273 163.737 148.679 167.103 150.923 165.577C154.029 163.463 157.499 162.433 161.259 162.553V157.887C157.833 158.16 154.413 158.127 150.989 157.79C148.003 157.497 148.023 162.163 150.989 162.457L150.959 162.453Z" fill="#D8BF79"/>
<path d="M182.448 164.4C182.101 164.054 181.878 163.594 181.738 163.124C181.714 163.044 181.701 162.937 181.768 162.89C181.804 162.867 181.848 162.864 181.891 162.864C182.091 162.85 182.278 162.754 182.438 162.637C182.598 162.52 182.741 162.38 182.898 162.254C183.091 162.097 183.301 161.96 183.501 161.814C183.841 161.564 182.068 162.224 182.348 161.907" fill="#D8BF79"/>
<path d="M184.099 162.751C183.929 162.561 183.949 162.594 184.155 162.841C184.095 162.751 184.042 162.654 183.992 162.557C184.112 162.867 184.125 162.901 184.039 162.661C184.002 162.571 183.979 162.474 183.969 162.374L183.732 164.171L183.782 164.067L182.389 165.141C183.219 164.951 183.869 164.521 184.492 163.951C184.695 163.764 184.049 164.264 184.529 163.934C184.742 163.787 185.002 163.621 185.165 163.447C185.585 163.001 185.899 162.387 185.875 161.757C185.845 161.011 185.469 160.061 184.719 159.744C183.969 159.427 183.345 159.374 182.555 159.574C182.425 159.607 182.299 159.641 182.172 159.674C182.102 159.691 182.029 159.704 181.955 159.721L181.892 159.731C182.442 159.584 182.979 159.661 183.499 159.961L184.572 161.354L184.565 161.337V162.577L184.359 163.081C185.079 162.091 184.562 160.437 183.522 159.887C182.312 159.247 181.099 159.667 180.329 160.724C179.702 161.584 179.952 162.907 180.669 163.624C181.335 164.291 182.195 164.391 183.075 164.237C183.269 164.204 183.455 164.161 183.642 164.111C183.739 164.087 183.835 164.064 183.929 164.037C184.335 163.924 183.325 164.081 183.525 164.084L182.349 163.764L182.362 163.771L181.205 161.757V161.767C181.432 161.217 181.662 160.667 181.889 160.117C181.795 160.231 181.889 160.157 182.169 159.901C182.065 159.971 181.965 160.044 181.865 160.117C181.575 160.331 181.292 160.554 181.019 160.794C180.829 160.954 180.865 160.924 181.132 160.701C181.469 160.587 181.512 160.557 181.269 160.607C180.655 160.647 180.049 161.214 179.749 161.707C178.875 163.154 179.769 164.944 180.792 166.044C181.625 166.941 183.262 166.951 184.092 166.044C184.972 165.084 184.982 163.701 184.092 162.744L184.099 162.751Z" fill="#D8BF79"/>
<path d="M164.072 184.77C161.892 185.073 159.988 186.357 158.175 187.603C155.828 189.217 153.482 190.833 151.135 192.447C154.578 188.997 157.698 185.23 160.445 181.203C155.665 186.63 151.685 192.863 146.015 197.35C149.898 193.227 153.572 188.903 157.015 184.407C152.305 187.333 147.825 190.633 143.628 194.26C147.165 190.78 150.038 186.627 153.865 183.467C150.408 187.347 146.955 191.223 143.498 195.103C146.965 191.043 150.162 186.75 153.058 182.267C152.192 182.767 151.475 183.487 150.772 184.193C147.668 187.31 144.565 190.43 141.462 193.547C144.642 190.163 147.825 186.777 150.788 183.197C148.132 185.55 145.558 187.997 143.078 190.533C144.428 188.77 145.752 186.983 147.048 185.18C147.478 184.58 147.918 183.957 148.075 183.233C147.228 183.57 146.475 184.1 145.745 184.643C143.682 186.18 141.725 187.86 139.895 189.67C141.778 187.617 143.475 185.393 144.962 183.04C143.418 184.143 141.982 185.397 140.685 186.78C142.068 185.08 143.262 183.227 144.238 181.263C142.195 182.89 140.238 184.627 138.385 186.467C139.618 184.853 140.735 183.147 141.722 181.37C140.042 182.473 138.428 183.677 136.895 184.977C138.172 183.303 139.452 181.623 140.468 179.78C139.215 180.523 138.022 181.37 136.905 182.307C137.415 181.41 137.952 180.523 138.505 179.653C137.612 180.27 136.785 180.98 136.035 181.767C136.388 181.227 136.738 180.683 137.092 180.143" fill="#D8BF79"/>
<path d="M163.451 182.52C161.041 182.946 158.988 184.226 156.998 185.59C154.648 187.2 152.305 188.82 149.958 190.433C150.901 191.653 151.845 192.876 152.785 194.096C156.358 190.49 159.581 186.566 162.461 182.383C163.955 180.213 160.541 177.56 158.798 179.556C154.045 184.996 150.041 191.133 144.368 195.703L147.668 199.003C151.685 194.723 155.458 190.24 159.035 185.586C160.495 183.686 157.705 181.23 155.841 182.393C150.968 185.443 146.341 188.863 141.981 192.613L145.281 195.913C148.795 192.406 151.708 188.33 155.518 185.12L152.218 181.82C148.761 185.7 145.308 189.576 141.851 193.456L145.151 196.756C148.738 192.533 152.058 188.093 155.078 183.45C156.348 181.5 153.828 179.023 151.885 180.256C149.681 181.656 147.928 183.753 146.098 185.59C144.001 187.693 141.908 189.8 139.811 191.903L143.111 195.203C146.291 191.82 149.465 188.426 152.438 184.853C154.348 182.56 151.411 179.533 149.138 181.553C146.485 183.913 143.915 186.356 141.428 188.89C142.648 189.833 143.871 190.776 145.091 191.716C146.915 189.323 149.401 186.766 150.321 183.86C150.991 181.736 148.615 180.45 146.895 181.223C143.651 182.686 140.758 185.563 138.241 188.026L141.541 191.326C143.548 189.11 145.361 186.74 146.975 184.223C148.181 182.34 145.698 179.636 143.781 181.03C142.078 182.27 140.488 183.613 139.031 185.136L142.331 188.436C143.831 186.553 145.155 184.596 146.248 182.45C147.501 179.993 144.621 177.986 142.585 179.623C140.545 181.26 138.595 182.993 136.731 184.826C137.951 185.77 139.175 186.713 140.395 187.653C141.621 186.026 142.728 184.33 143.731 182.556C144.825 180.616 142.551 178.023 140.538 179.363C138.698 180.586 136.935 181.916 135.238 183.333C136.458 184.276 137.681 185.22 138.901 186.16C140.178 184.483 141.431 182.8 142.475 180.963C143.608 178.966 141.311 176.54 139.281 177.77C137.861 178.633 136.528 179.606 135.245 180.663C136.465 181.606 137.688 182.55 138.908 183.49C139.425 182.593 139.958 181.71 140.508 180.836C141.701 178.943 139.245 176.26 137.315 177.643C136.265 178.396 135.281 179.2 134.371 180.12C135.591 181.063 136.815 182.006 138.035 182.946C138.388 182.406 138.738 181.863 139.091 181.323C140.735 178.8 136.695 176.456 135.061 178.966C134.708 179.506 134.358 180.05 134.005 180.59C132.545 182.83 135.825 185.286 137.668 183.416C138.295 182.78 138.941 182.19 139.668 181.67L136.475 178.476C135.925 179.35 135.391 180.233 134.875 181.13C133.481 183.546 136.568 185.58 138.538 183.956C139.515 183.153 140.548 182.45 141.628 181.793L138.435 178.6C137.391 180.436 136.141 182.12 134.861 183.796C134.158 184.72 134.638 186.17 135.461 186.806C136.431 187.553 137.621 187.38 138.525 186.623C139.918 185.46 141.368 184.386 142.878 183.383L139.685 180.19C138.685 181.966 137.575 183.66 136.348 185.286C134.721 187.446 138.178 189.92 140.011 188.113C141.875 186.28 143.825 184.546 145.865 182.91C144.645 181.966 143.421 181.023 142.201 180.083C141.295 181.86 140.258 183.563 139.015 185.126C137.188 187.416 140.185 190.65 142.315 188.426C143.491 187.196 144.745 186.053 146.121 185.05L142.928 181.856C141.528 184.046 139.971 186.086 138.225 188.016C136.218 190.233 139.365 193.433 141.525 191.316C143.791 189.096 146.305 186.563 149.231 185.243C148.088 184.363 146.945 183.486 145.805 182.606C145.421 183.813 144.335 184.94 143.591 185.956C142.755 187.096 141.905 188.226 141.048 189.35C139.421 191.483 142.898 194.026 144.711 192.176C147.198 189.643 149.768 187.2 152.421 184.84L149.121 181.54C146.148 185.11 142.975 188.503 139.795 191.89C137.741 194.076 140.968 197.326 143.095 195.19C145.035 193.24 146.975 191.293 148.915 189.343C150.581 187.666 152.218 185.546 154.221 184.273L151.028 181.08C148.221 185.393 145.161 189.52 141.831 193.443C139.908 195.71 143.118 199.003 145.131 196.743C148.588 192.863 152.041 188.986 155.498 185.106C157.515 182.843 154.485 179.88 152.198 181.806C148.388 185.02 145.475 189.093 141.961 192.6C139.808 194.75 143.008 197.836 145.261 195.9C149.325 192.406 153.635 189.25 158.175 186.41L154.981 183.216C151.651 187.553 148.088 191.703 144.345 195.69C142.245 197.926 145.348 200.84 147.645 198.99C153.318 194.42 157.321 188.28 162.075 182.843C160.855 181.9 159.631 180.956 158.411 180.016C155.755 183.876 152.761 187.456 149.465 190.786C147.658 192.61 150.048 195.993 152.291 194.45C154.535 192.906 156.621 191.47 158.788 189.98C160.638 188.706 162.415 187.406 164.668 187.01C167.621 186.486 166.368 181.99 163.428 182.51L163.451 182.52Z" fill="#D8BF79"/>
<path d="M136.065 179.467C136.025 179.374 138.255 180.57 138.192 180.49Z" fill="#D8BF79"/>
<path d="M138.316 180.087C137.566 180.654 136.816 181.224 136.066 181.797C135.762 181.827 135.259 181.647 135.509 181.731C135.569 181.751 134.806 181.411 135.079 181.551C135.176 181.601 135.276 181.644 135.372 181.694C135.619 181.814 135.862 181.941 136.106 182.064C136.766 182.401 137.432 182.804 138.192 182.831C139.732 182.881 140.816 181.304 140.442 179.877C140.136 178.694 138.759 177.861 137.572 178.244C136.386 178.627 135.612 179.847 135.942 181.114C136.692 180.134 137.442 179.147 138.192 178.164C138.499 178.151 138.786 178.214 139.052 178.354C139.319 178.471 139.396 178.501 139.282 178.451C139.252 178.434 139.219 178.421 139.189 178.407C139.092 178.357 138.996 178.311 138.899 178.264C138.656 178.141 138.412 178.017 138.169 177.891C137.549 177.574 136.782 177.061 136.066 177.134C135.532 177.191 135.086 177.297 134.652 177.634C134.282 177.917 133.896 178.371 133.816 178.847C133.709 179.487 133.712 180.074 134.052 180.651C134.336 181.134 134.889 181.597 135.446 181.724C136.572 181.981 138.099 181.381 138.316 180.094V180.087Z" fill="#D8BF79"/>
<path d="M136.018 180.199C136.032 180.182 136.012 180.159 135.992 180.146C135.918 180.099 135.865 180.026 135.835 179.946C135.828 179.929 135.822 179.906 135.805 179.899C135.792 179.892 135.775 179.899 135.758 179.899C135.688 179.919 135.618 179.939 135.548 179.959C135.535 179.962 135.522 179.966 135.508 179.959C135.492 179.952 135.485 179.929 135.478 179.912C135.408 179.646 135.182 179.456 135.045 179.216" fill="#D8BF79"/>
<path d="M138.352 180.199C138.332 179.643 138.188 179.196 137.848 178.756C137.618 178.459 137.458 178.353 137.125 178.099L137.598 178.463C137.572 178.439 137.548 178.413 137.528 178.386L137.892 178.859C137.872 178.829 137.855 178.799 137.845 178.766L138.082 179.323C137.918 178.926 137.798 178.573 137.472 178.266C137.182 177.996 136.812 177.736 136.422 177.646C135.912 177.529 135.425 177.566 134.925 177.706L135.545 177.623H135.505C136.055 177.853 136.605 178.079 137.155 178.309L137.135 178.289L137.735 179.319C137.628 179.013 137.522 178.693 137.332 178.423C137.242 178.293 137.138 178.173 137.055 178.036C136.752 177.529 136.232 177.123 135.662 176.963C135.092 176.803 134.358 176.879 133.865 177.199C133.372 177.519 132.928 177.999 132.792 178.593C132.655 179.186 132.698 179.843 133.028 180.389C133.152 180.593 133.318 180.763 133.422 180.976L133.185 180.419C133.282 180.659 133.305 180.859 133.468 181.116C133.692 181.463 133.965 181.763 134.325 181.973C134.965 182.349 135.678 182.339 136.372 182.146L135.752 182.229H135.798C135.248 181.999 134.698 181.773 134.148 181.543L134.168 181.563L133.568 180.533C133.645 180.723 133.725 180.933 133.815 181.116C133.878 181.246 133.938 181.306 134.045 181.446C134.098 181.516 134.195 181.659 134.278 181.743C134.432 181.893 134.638 182.026 134.812 182.156L134.338 181.793L134.365 181.816L133.682 180.166V180.193C133.705 180.806 133.928 181.403 134.365 181.843C134.768 182.246 135.435 182.553 136.015 182.526C136.595 182.499 137.245 182.299 137.665 181.843C138.085 181.386 138.372 180.816 138.348 180.193L138.352 180.199Z" fill="#D8BF79"/>
<path d="M159.582 209.36C160.069 208.38 160.189 207.227 159.919 206.167C159.709 206.177 159.556 206.357 159.429 206.524C158.532 207.684 157.639 208.844 156.742 210.004C156.899 209.664 157.056 209.32 157.209 208.98C157.269 208.847 157.332 208.71 157.326 208.564C157.319 208.417 157.222 208.264 157.076 208.25C156.929 208.237 156.796 208.424 156.886 208.537C158.456 208.834 160.079 208.214 161.662 208.434C161.702 208.44 161.746 208.447 161.779 208.47C161.876 208.54 161.826 208.69 161.769 208.797C161.582 209.147 161.392 209.494 161.206 209.844C161.432 209.984 161.719 209.817 161.929 209.654C162.689 209.067 163.449 208.48 164.209 207.897C163.799 208.674 163.386 209.454 162.976 210.23C162.942 210.297 162.906 210.37 162.929 210.444C162.972 210.574 163.156 210.567 163.286 210.527C164.479 210.157 165.376 209.114 166.576 208.767C166.166 209.524 165.856 210.33 165.649 211.167C166.059 211.087 166.349 210.727 166.592 210.384C166.992 209.817 167.366 209.23 167.706 208.624C167.392 209.107 167.109 209.61 166.859 210.127C167.372 209.287 167.886 208.45 168.399 207.61C167.892 208.3 167.439 209.024 167.036 209.777L167.756 209.347" fill="#D8BF79"/>
<path d="M161.595 210.537C162.308 208.851 162.511 207.351 162.168 205.547C161.858 203.917 159.998 203.604 158.741 204.154C157.885 204.527 157.391 205.377 156.838 206.094C156.135 207.004 155.431 207.917 154.728 208.827L158.758 211.184C159.341 209.911 160.098 208.541 159.268 207.184C158.438 205.827 156.985 205.677 155.715 206.334C154.981 206.714 154.581 207.554 154.558 208.347L154.551 208.537C154.515 209.907 155.661 210.721 156.885 210.871C157.701 210.971 158.455 210.921 159.268 210.847C159.788 210.801 160.648 210.557 161.158 210.721L159.528 209.091C159.631 207.981 159.518 207.837 159.191 208.664C158.328 210.267 159.418 212.084 161.205 212.174C162.875 212.257 164.148 210.864 165.385 209.907L162.191 206.714C161.678 207.684 160.911 208.741 160.675 209.817C160.438 210.894 160.861 211.821 161.748 212.454C163.705 213.851 165.488 211.637 167.195 211.014C166.315 209.871 165.438 208.727 164.558 207.587C164.075 208.537 163.678 209.514 163.398 210.544C162.815 212.681 165.048 213.954 166.825 213.181C168.195 212.581 168.995 211.044 169.715 209.804C171.228 207.197 167.268 204.901 165.685 207.447C165.378 207.941 165.101 208.434 164.838 208.951C163.485 211.617 167.288 213.887 168.868 211.307C169.381 210.467 169.895 209.631 170.408 208.791C172.001 206.184 168.091 204.031 166.378 206.434C165.881 207.134 165.428 207.847 165.015 208.601C163.905 210.607 166.161 213.017 168.208 211.794L168.928 211.364C171.505 209.824 169.158 205.787 166.571 207.334L165.851 207.764L169.045 210.957C169.461 210.207 169.911 209.491 170.408 208.791L166.378 206.434C165.865 207.274 165.351 208.111 164.838 208.951L168.868 211.307C169.131 210.787 169.408 210.297 169.715 209.804L165.685 207.447C165.388 207.961 165.028 208.907 164.468 209.151C165.611 210.031 166.755 210.907 167.895 211.787C168.071 211.137 168.281 210.547 168.585 209.944C169.425 208.291 167.998 205.767 165.948 206.517C165.311 206.751 164.718 207.014 164.138 207.364C163.875 207.537 163.611 207.711 163.351 207.884C162.595 208.214 162.845 208.397 164.101 208.431L165.175 211.067C165.318 210.417 165.908 209.667 166.221 209.077C167.205 207.217 165.018 204.351 163.028 205.884C162.571 206.234 162.115 206.587 161.661 206.937L161.205 207.287C160.591 207.671 160.591 207.744 161.205 207.511C161.875 208.681 162.548 209.851 163.218 211.021C164.065 209.451 164.865 207.307 162.675 206.341C160.911 205.561 158.741 206.434 156.881 206.207L159.215 208.541L159.221 208.351L158.065 210.364L158.248 210.271H155.891L156.068 210.381L154.995 208.987C155.048 208.157 154.955 208.107 154.718 208.834C153.448 211.611 156.925 213.551 158.748 211.191C159.195 210.611 159.645 210.031 160.091 209.451C160.335 209.134 160.741 208.344 161.088 208.191L157.661 206.797C157.748 207.247 157.741 207.761 157.558 208.191C157.065 209.361 157.215 210.677 158.395 211.384C159.368 211.967 161.098 211.707 161.588 210.547L161.595 210.537Z" fill="#D8BF79"/>
<path d="M149.525 158.247C156.569 160.193 163.789 161.583 171.085 161.97C175.239 162.19 179.469 162.077 183.445 160.857C187.422 159.637 191.145 157.207 193.262 153.627C195.379 150.047 195.622 145.25 193.295 141.803C191.335 138.907 187.962 137.337 184.682 136.13C173.595 132.053 161.569 130.56 149.822 131.81C143.142 132.52 136.239 134.27 131.299 138.823C124.989 144.643 123.115 154.02 124.012 162.56C124.412 166.37 125.365 170.287 127.845 173.207C129.985 175.727 133.055 177.257 136.122 178.49C148.152 183.327 161.612 184.543 174.315 181.947" stroke="#938154" stroke-miterlimit="10" stroke-linecap="round"/>
<path d="M132.489 176.82C128.922 178.514 125.849 181.394 123.742 184.767C120.429 190.077 119.232 196.464 119.025 202.72C118.825 208.844 119.742 215.5 124.022 219.887C127.569 223.52 132.772 224.93 137.762 225.86C148.649 227.89 159.949 228.344 170.759 225.934" stroke="#938154" stroke-miterlimit="10" stroke-linecap="round"/>
<path d="M186.53 159.597C189.764 162.803 191.984 167.123 192.937 171.613C194.407 178.527 193.214 185.773 190.96 192.473C189.56 196.637 187.62 200.84 184.137 203.52C181.354 205.66 177.847 206.62 174.387 207.227C163.134 209.197 151.32 207.847 140.797 203.397" stroke="#938154" stroke-miterlimit="10" stroke-linecap="round"/>
<path d="M123.013 218.683C120.963 220.859 119.633 223.806 118.496 226.636C116.706 231.109 115.093 236.183 116.956 240.629C118.733 244.873 123.169 247.296 127.393 249.119C140.116 254.619 154.286 257.726 167.916 255.199C173.166 254.226 178.473 252.293 182.099 248.376C185.553 244.643 187.096 239.553 188.166 234.579C189.509 228.339 190.273 221.819 188.829 215.599C187.863 211.436 185.763 207.409 182.706 204.479" stroke="#938154" stroke-miterlimit="10" stroke-linecap="round"/>
<path d="M139.353 158.54C138.259 160.576 139.226 163.59 137.503 162.663C135.779 161.736 135.269 159.336 136.363 157.3C137.456 155.263 139.743 154.363 141.466 155.29C143.189 156.216 140.446 156.503 139.353 158.54Z" fill="#373433"/>
<path d="M145.025 161.589C143.931 163.626 144.898 166.639 143.175 165.713C141.451 164.786 140.941 162.386 142.035 160.349C143.128 158.313 145.415 157.413 147.138 158.339C148.861 159.266 146.118 159.553 145.025 161.589Z" fill="#373433"/>
<path d="M129.629 160.989C129.629 160.989 130.949 174.859 146.346 170.703" stroke="#373433" stroke-width="0.666667" stroke-miterlimit="10" stroke-linecap="round"/>
<path d="M163.686 132.229L168.512 116.416" stroke="#D1CDBF" stroke-width="1.66667" stroke-miterlimit="10" stroke-linecap="round"/>
<path d="M161.539 139.26L167.976 118.173" stroke="#D1CDBF" stroke-width="1.66667" stroke-miterlimit="10"/>
<path d="M155.986 136.373C159.273 139.473 164.543 140.24 168.58 138.206" stroke="#938154" stroke-miterlimit="10" stroke-linecap="round"/>
<path d="M247.629 119.384C248.793 118.747 248.603 117.214 248.136 116.014C247.516 114.43 246.413 112.8 247.773 111.214C248.136 110.79 248.623 110.46 249.163 110.23C251.329 109.3 253.863 109.75 256.099 109.144C257.476 108.77 258.766 107.794 258.979 106.58C259.006 106.42 259.263 106.417 259.309 106.58C259.639 107.757 259.093 109.064 258.453 110.144C257.679 111.454 256.753 112.874 257.149 114.367C257.499 115.697 258.806 116.687 259.546 117.904C260.383 119.28 260.446 120.974 259.709 122.314C259.296 123.067 258.649 123.714 258.599 124.614C258.579 124.96 258.683 125.324 258.933 125.607C259.706 126.48 261.023 126.004 261.523 125.217C261.949 124.54 261.976 123.714 262.133 122.94C262.266 122.29 262.553 121.61 263.126 121.237C263.219 121.177 263.349 121.27 263.303 121.367C263.006 122.01 263.126 122.807 263.403 123.504C263.726 124.317 264.236 125.077 264.493 125.904C265.026 127.617 264.326 129.517 262.789 130.537C261.843 131.164 260.553 131.557 260.159 132.554C259.789 133.5 260.409 134.554 260.519 135.574C260.706 137.29 259.363 138.854 257.636 139.537C255.906 140.22 253.879 140.17 251.956 139.874C248.123 139.284 244.313 137.677 241.786 134.964C239.256 132.25 238.236 128.354 239.793 125.304C241.236 122.487 244.493 120.78 247.629 119.384Z" fill="#D54400"/>
<path d="M248.797 124.883C249.523 124.453 249.42 123.443 249.14 122.66C248.77 121.623 248.1 120.56 248.96 119.5C249.19 119.217 249.493 118.997 249.833 118.84C251.187 118.207 252.753 118.48 254.143 118.06C255 117.8 255.81 117.147 255.953 116.343C255.973 116.237 256.13 116.233 256.157 116.34C256.35 117.11 256 117.977 255.593 118.697C255.1 119.567 254.513 120.51 254.747 121.493C254.953 122.367 255.75 123.007 256.2 123.8C256.707 124.697 256.73 125.813 256.26 126.703C255.997 127.203 255.59 127.637 255.55 128.23C255.533 128.46 255.597 128.697 255.747 128.88C256.22 129.45 257.04 129.12 257.357 128.597C257.63 128.147 257.65 127.603 257.757 127.09C257.847 126.66 258.03 126.21 258.387 125.957C258.447 125.917 258.523 125.977 258.497 126.04C258.307 126.467 258.373 126.99 258.54 127.447C258.733 127.98 259.04 128.477 259.193 129.02C259.507 130.143 259.057 131.403 258.093 132.09C257.5 132.513 256.697 132.783 256.443 133.443C256.203 134.07 256.58 134.76 256.64 135.43C256.74 136.56 255.893 137.603 254.817 138.07C253.74 138.537 252.48 138.52 251.293 138.343C248.923 137.99 246.577 136.967 245.033 135.203C243.49 133.44 242.893 130.88 243.89 128.86C244.81 126.99 246.847 125.833 248.803 124.887" fill="#F5BF00"/>
<path d="M248.452 123.076C248.216 124.113 249.009 125.33 248.136 125.126C247.262 124.923 246.742 123.923 246.979 122.89C247.216 121.856 248.119 121.18 248.992 121.38C249.866 121.58 248.689 122.043 248.452 123.076Z" fill="#373433"/>
<path d="M251.335 123.737C251.099 124.773 251.892 125.99 251.019 125.787C250.145 125.583 249.625 124.583 249.862 123.55C250.099 122.517 251.002 121.84 251.875 122.04C252.749 122.24 251.572 122.703 251.335 123.737Z" fill="#373433"/>
<path d="M244.445 125.344C244.445 125.344 246.719 131.327 253.029 127.614" stroke="#373433" stroke-width="0.333333" stroke-miterlimit="10" stroke-linecap="round"/>
<path d="M188.446 156.179C185.939 159.863 185.276 164.536 185.593 168.983C185.913 173.426 187.133 177.749 188.109 182.096C190.156 191.199 191.139 200.659 189.676 209.873C188.213 219.086 184.139 228.073 177.249 234.363C175.029 236.389 172.533 238.133 170.579 240.416C168.626 242.699 167.233 245.719 167.796 248.673C168.393 251.809 171.129 254.219 174.166 255.206C177.203 256.193 180.496 255.969 183.643 255.443C198.713 252.933 212.229 243.656 221.326 231.383C230.423 219.109 235.306 204.039 236.803 188.836C237.459 182.173 237.483 175.373 235.893 168.869C234.303 162.366 230.996 156.146 225.833 151.886C217.206 144.766 204.479 145.769 194.933 150.666C192.376 151.979 190.069 153.793 188.443 156.183L188.446 156.179Z" fill="#D54400" stroke="#A53002" stroke-miterlimit="10"/>
<path d="M209.339 142.444C212.399 141.801 215.623 142.251 218.553 143.347C222.413 144.791 225.926 147.464 227.759 151.154C228.156 151.951 228.476 152.861 228.236 153.717C228.019 154.481 227.379 155.071 226.656 155.401C225.933 155.731 225.129 155.834 224.339 155.907C217.206 156.557 209.916 154.837 203.676 151.321C203.006 150.941 202.323 150.521 201.896 149.881C200.979 148.497 202.076 146.997 203.009 145.971C204.069 144.811 205.386 143.897 206.819 143.261C207.626 142.901 208.476 142.627 209.339 142.447V142.444Z" fill="#019C65" stroke="#017247" stroke-miterlimit="10"/>
<path d="M221.425 125.123C221.982 124.203 222.572 123.283 223.369 122.557C224.165 121.83 225.199 121.31 226.275 121.34C227.232 121.367 228.135 121.82 228.865 122.44C229.595 123.057 230.172 123.833 230.729 124.61C231.279 125.373 231.839 126.21 231.845 127.15C231.852 128.137 231.235 129.033 230.479 129.663C229.722 130.297 228.822 130.727 227.995 131.263C225.859 132.653 224.245 134.737 223.065 136.993C221.882 139.25 221.099 141.69 220.335 144.123C220.005 145.18 219.522 146.393 218.452 146.677C217.659 146.89 216.799 146.463 216.289 145.817C214.619 143.69 215.402 140.523 215.925 138.133C216.572 135.19 217.642 132.347 218.955 129.637C219.705 128.093 220.535 126.59 221.422 125.123H221.425Z" fill="#019C65" stroke="#017247" stroke-miterlimit="10"/>
<path d="M197.785 166.167C196.918 168.447 198.341 171.467 196.411 170.733C194.481 170 193.621 167.557 194.488 165.28C195.355 163 197.621 161.747 199.548 162.48C201.478 163.213 198.648 163.89 197.781 166.17L197.785 166.167Z" fill="#373433"/>
<path d="M204.134 168.58C203.267 170.86 204.691 173.88 202.761 173.147C200.831 172.414 199.971 169.97 200.837 167.694C201.704 165.417 203.971 164.16 205.897 164.894C207.827 165.627 204.997 166.304 204.131 168.584L204.134 168.58Z" fill="#373433"/>
<path d="M187.951 170.057C187.951 170.057 191.228 184.383 206.761 177.93" stroke="#373433" stroke-width="0.666667" stroke-miterlimit="10" stroke-linecap="round"/>
<path d="M328.645 230.365C326.741 231.912 324.661 232.652 322.611 232.332C316.755 231.415 313.335 222.199 314.971 211.749C315.778 206.602 317.661 202.119 320.065 199.002L313.368 174.525C312.945 174.529 312.515 174.509 312.081 174.439C307.831 173.772 304.928 169.789 305.591 165.539C305.971 163.119 307.425 161.139 309.391 160.002L306.638 149.939C305.891 147.212 303.341 145.382 300.521 145.549L259.205 147.975C257.151 148.095 255.305 149.262 254.315 151.065L249.608 159.629C250.711 162.102 251.138 165.012 250.668 168.015C249.608 174.782 244.368 179.705 238.518 179.802L221.178 211.349C221.425 211.379 221.671 211.409 221.921 211.449C226.631 212.185 230.171 214.552 229.828 216.735C229.485 218.919 225.391 220.089 220.685 219.352C219.448 219.159 218.295 218.849 217.268 218.465L214.411 223.665C212.331 227.445 213.775 232.199 217.605 234.185L268.321 260.529C269.728 261.259 271.365 261.402 272.875 260.925L326.431 244.042C329.495 243.075 331.248 239.862 330.401 236.762L328.651 230.369L328.645 230.365Z" fill="#F5BF00" stroke="#D8BF79" stroke-miterlimit="10" stroke-linecap="round"/>
<path d="M275.936 155.238C276.219 153.428 274.669 151.682 272.474 151.339C270.279 150.995 268.269 152.183 267.986 153.993C267.702 155.802 269.252 157.548 271.448 157.892C273.643 158.236 275.652 157.047 275.936 155.238Z" fill="#D1A002"/>
<path d="M231.931 194.155C231.621 194.032 231.301 193.949 230.981 193.882C230.654 195.075 229.984 196.148 229.364 197.212C228.654 198.428 227.901 199.622 227.147 200.815C226.414 201.982 225.694 203.155 225.047 204.372C224.564 205.282 224.167 206.225 223.641 207.105C224.261 207.915 225.057 208.562 226.027 208.945C229.394 210.289 233.447 208.069 235.077 203.985C236.707 199.902 235.301 195.502 231.934 194.155H231.931Z" fill="#D1A002"/>
<path d="M279.764 246.288C281.624 241.629 278.593 236.041 272.995 233.806C267.398 231.572 261.352 233.538 259.492 238.197C257.633 242.856 260.663 248.444 266.261 250.679C271.858 252.913 277.904 250.947 279.764 246.288Z" fill="#D1A002"/>
<path d="M274.416 190.372C276.276 185.713 273.246 180.125 267.648 177.89C262.05 175.656 256.004 177.622 254.145 182.281C252.285 186.94 255.315 192.528 260.913 194.763C266.511 196.997 272.556 195.031 274.416 190.372Z" fill="#D1A002"/>
<path d="M236.919 235.473C237.319 233.998 236.805 232.575 235.771 232.294C234.737 232.014 233.575 232.981 233.174 234.456C232.774 235.931 233.287 237.354 234.321 237.634C235.355 237.915 236.518 236.947 236.919 235.473Z" fill="#D1A002"/>
<path d="M268.748 260.638C272.282 260.985 275.612 257.995 275.142 254.098L262.962 152.608C262.598 149.585 259.848 148.028 257.352 148.435" stroke="#D8BF79" stroke-miterlimit="10" stroke-linecap="round"/>
<path d="M328.645 230.365C326.741 231.912 324.661 232.652 322.611 232.332C316.755 231.415 313.335 222.199 314.971 211.749C315.778 206.602 317.661 202.119 320.065 199.002L313.368 174.525C312.945 174.529 312.515 174.509 312.081 174.439C307.831 173.772 304.928 169.789 305.591 165.539C305.971 163.119 307.425 161.139 309.391 160.002L306.638 149.939C305.891 147.212 303.341 145.382 300.521 145.549L259.205 147.975C257.151 148.095 255.305 149.262 254.315 151.065L249.608 159.629C250.711 162.102 251.138 165.012 250.668 168.015C249.608 174.782 244.368 179.705 238.518 179.802L221.178 211.349C221.425 211.379 221.671 211.409 221.921 211.449C226.631 212.185 230.171 214.552 229.828 216.735C229.485 218.919 225.391 220.089 220.685 219.352C219.448 219.159 218.295 218.849 217.268 218.465L214.411 223.665C212.331 227.445 213.775 232.199 217.605 234.185L268.321 260.529C269.728 261.259 271.365 261.402 272.875 260.925L326.431 244.042C329.495 243.075 331.248 239.862 330.401 236.762L328.651 230.369L328.645 230.365Z" stroke="#D8BF79" stroke-miterlimit="10" stroke-linecap="round"/>
<path d="M247.773 182.135C246.8 183.982 247.693 186.695 246.13 185.872C244.567 185.049 244.09 182.882 245.063 181.035C246.037 179.189 248.093 178.359 249.657 179.185C251.22 180.012 248.747 180.289 247.77 182.135H247.773Z" fill="#373433"/>
<path d="M252.916 184.848C251.943 186.695 252.836 189.408 251.273 188.585C249.709 187.762 249.233 185.595 250.206 183.748C251.179 181.902 253.236 181.072 254.799 181.898C256.363 182.725 253.889 183.002 252.913 184.848H252.916Z" fill="#373433"/>
<path d="M239.01 184.419C239.01 184.419 240.3 196.936 254.17 193.072" stroke="#373433" stroke-width="0.666667" stroke-miterlimit="10" stroke-linecap="round"/>
<path d="M6.7955 197.243C-5.03117 188.97 -15.5345 178.816 -24.2012 167.276" stroke="#373433" stroke-width="2" stroke-miterlimit="10" stroke-linecap="round"/>
<path d="M96.0628 56.5564C96.7995 58.0931 96.7661 59.4031 96.2561 60.8431C95.3295 61.1631 94.7828 61.4498 94.1428 61.8364C93.7261 62.0598 93.9828 62.6698 94.5261 62.4131C96.0295 61.5498 97.8861 60.9398 99.8361 60.9398C102.716 60.9398 104.316 62.6031 104.796 65.8664C105.309 69.1298 103.996 71.4031 101.276 72.4264C99.4195 73.1298 97.1161 73.2264 94.9095 73.2264C90.7828 73.2264 88.8628 70.8264 88.2228 66.9231C87.5195 62.6364 87.5195 57.0664 88.2228 52.7798C88.8628 48.8764 90.4628 46.9231 93.1828 46.5398C95.5828 46.2198 97.8861 46.2198 100.253 46.4764C102.939 46.7631 104.413 48.4298 104.413 51.4364C104.413 54.4431 103.099 56.5564 100.253 56.5564H96.0595H96.0628ZM113.983 65.1298C113.886 67.0498 113.759 68.9698 113.566 70.8264C113.309 73.3864 111.709 74.6664 109.469 74.6664C106.876 74.6664 105.149 73.1931 105.439 70.3131C106.273 63.4331 106.273 56.5231 105.473 49.9298C105.153 46.7631 106.879 45.2598 109.473 45.2598C111.713 45.2598 113.313 46.5398 113.569 49.1631C113.729 50.6664 113.826 52.1698 113.923 53.7398L114.849 53.6431C116.323 53.3864 117.186 55.1464 117.186 59.4031C117.186 63.6598 116.323 65.4198 114.849 65.2598L113.986 65.1331L113.983 65.1298Z" fill="#D9D9D9"/>
<path d="M135.965 56.5862C135.262 56.8429 134.492 56.9695 133.692 56.9695C129.149 57.0029 126.205 56.3929 126.205 54.4095C126.205 52.6495 127.165 51.4662 129.182 51.2429C130.589 51.1162 131.965 50.8262 133.085 50.4095C131.869 50.3462 130.719 50.2829 129.599 50.1862C127.872 50.0595 126.655 49.4495 126.655 48.1062C126.655 46.7629 127.872 46.1862 129.599 46.0895C132.702 45.8329 136.222 45.7695 139.742 45.7695C143.262 45.7695 146.782 45.8329 149.919 46.0895C151.615 46.1862 152.799 46.7929 152.799 48.1062C152.799 49.4195 151.615 50.0595 149.919 50.1862C148.799 50.2829 147.615 50.3462 146.399 50.4095C147.519 50.8262 148.895 51.1129 150.302 51.2429C152.319 51.4662 153.279 52.6495 153.279 54.4095C153.279 56.3929 150.335 57.0029 145.792 56.9695C144.959 56.9695 144.192 56.8429 143.489 56.5862C143.585 56.9395 143.649 57.3529 143.682 57.8995C146.242 57.8362 148.769 57.7395 151.105 57.6129C152.962 57.4862 154.082 58.5395 154.082 59.6929C154.082 61.1662 152.962 61.8695 151.075 61.9662C144.005 62.4795 135.205 62.4795 128.355 61.9662C126.532 61.8395 125.412 61.1662 125.412 59.6929C125.412 58.5395 126.532 57.4862 128.355 57.6129C130.659 57.7729 133.189 57.8695 135.779 57.8995C135.812 57.3562 135.875 56.9395 135.972 56.5862H135.965ZM126.782 67.2095C126.782 66.0562 127.935 65.3229 129.599 65.1929C131.165 65.0662 133.085 65.0329 134.525 65.6095C133.629 65.1929 133.149 64.6162 133.342 64.1362C133.695 63.2095 135.902 62.7929 139.742 62.7929C143.582 62.7929 145.789 63.2095 146.109 64.1362C146.269 64.6162 145.789 65.1929 144.862 65.6095C146.302 65.0329 148.255 65.0662 149.885 65.1929C151.452 65.3195 152.635 65.9929 152.635 67.1462C152.635 67.9795 152.092 68.4595 150.972 68.7129C152.059 69.3195 152.412 70.0895 152.412 70.9862C152.412 73.2262 149.565 74.6662 139.772 74.6662C129.979 74.6662 127.035 73.2262 127.035 70.9862C127.035 70.1229 127.355 69.3529 128.412 68.7462C127.325 68.4895 126.779 68.0429 126.779 67.2095H126.782ZM141.662 71.0495C142.399 71.1462 142.622 70.3129 142.109 70.1862C140.509 69.7062 139.292 69.0329 138.075 67.9795C137.692 67.6595 137.019 68.3329 137.532 68.8429C138.715 69.9962 140.155 70.8262 141.659 71.0495H141.662ZM139.742 55.0829C140.255 55.0829 140.702 55.0829 141.119 55.1162C141.245 55.1162 141.342 55.1495 141.472 55.1495C140.929 54.4462 140.545 53.5162 140.415 52.3329C140.319 51.5962 139.135 51.6295 139.072 52.3329C138.945 53.5162 138.559 54.4462 138.015 55.1495C138.495 55.0862 139.072 55.0862 139.742 55.0862V55.0829Z" fill="#D9D9D9"/>
<path d="M155.807 59.8494C155.807 51.5294 157.693 46.156 164.447 46.156C171.2 46.156 173.087 51.5327 173.087 59.8494C173.087 68.166 170.88 73.5427 164.447 73.5427C158.013 73.5427 155.807 68.136 155.807 59.8494ZM164.927 61.9294V57.8027C164.927 57.2594 163.903 57.2594 163.903 57.8027V61.9294C163.903 62.4427 164.927 62.4427 164.927 61.9294ZM182.973 53.6427C184.447 53.386 185.31 55.146 185.31 59.4027C185.31 63.6594 184.447 65.4194 182.973 65.2594L182.11 65.1327C182.013 67.0527 181.887 68.9727 181.693 70.8294C181.437 73.3894 179.837 74.6694 177.597 74.6694C175.003 74.6694 173.277 73.196 173.563 70.316C174.397 63.436 174.397 56.526 173.597 49.9327C173.277 46.766 175.003 45.2627 177.597 45.2627C179.837 45.2627 181.437 46.5427 181.693 49.166C181.853 50.6694 181.95 52.1727 182.047 53.7427L182.973 53.646V53.6427Z" fill="#D9D9D9"/>
<path d="M186.943 48.8762C187.006 46.7328 188.766 45.2295 191.293 45.2295C193.819 45.2295 195.579 46.7328 195.643 48.8762C195.769 53.3228 195.419 57.3862 194.939 61.5162C194.746 63.4695 193.596 64.7795 191.293 64.7795C188.989 64.7795 187.836 63.4662 187.613 61.5162C187.133 57.3895 186.779 53.3262 186.939 48.8762H186.943ZM191.296 66.2495C193.889 66.2495 195.553 67.9462 195.553 70.6328C195.553 72.8095 193.759 74.4395 191.296 74.4395C188.833 74.4395 187.039 72.8062 187.039 70.6328C187.039 67.9462 188.766 66.2495 191.296 66.2495Z" fill="#D9D9D9"/>
<path d="M127.688 206.331C126.681 204.517 125.675 202.704 124.668 200.891" stroke="#373433" stroke-width="2" stroke-miterlimit="10" stroke-linecap="round"/>
<path d="M128.629 206.254C129.899 204.987 131.172 203.72 132.442 202.457" stroke="#373433" stroke-width="2" stroke-miterlimit="10" stroke-linecap="round"/>
<path d="M128.141 207.661C130.364 207.851 132.607 207.788 134.814 207.468" stroke="#373433" stroke-width="2" stroke-miterlimit="10" stroke-linecap="round"/>
<path d="M108.334 228.334C119.901 219.704 119.521 219.637 127.831 207.837" stroke="#373433" stroke-width="2" stroke-miterlimit="10" stroke-linecap="round"/>
</g>
<defs>
<linearGradient id="paint0_linear_278_3299" x1="118.846" y1="235.779" x2="100.273" y2="161.011" gradientUnits="userSpaceOnUse">
<stop offset="0.33" stop-color="white"/>
<stop offset="0.73" stop-color="#58BE9A"/>
<stop offset="0.95" stop-color="#019C65"/>
</linearGradient>
<clipPath id="clip0_278_3299">
<rect width="284" height="248" fill="white"/>
</clipPath>
</defs>
</svg>
