<svg width="20" height="20" viewBox="0 0 20 20" fill="none" xmlns="http://www.w3.org/2000/svg">
<mask id="mask0_672_3032" style="mask-type:alpha" maskUnits="userSpaceOnUse" x="0" y="0" width="20" height="20">
<rect width="20" height="20" fill="#D9D9D9"/>
</mask>
<g mask="url(#mask0_672_3032)">
<path d="M4.99884 17.9165C4.41659 17.9165 3.92381 17.7149 3.52049 17.3116C3.11718 16.9083 2.91553 16.4155 2.91553 15.8332V14.9358C2.91553 14.5215 3.06303 14.1669 3.35805 13.8719C3.65305 13.5769 4.00768 13.4294 4.42194 13.4294H5.41553V3.58967C5.41553 3.17541 5.56303 2.82077 5.85805 2.52577C6.15305 2.23076 6.50768 2.08325 6.92194 2.08325H15.5757C15.99 2.08325 16.3446 2.23076 16.6396 2.52577C16.9346 2.82077 17.0822 3.17541 17.0822 3.58967V15.8332C17.0822 16.4155 16.8805 16.9083 16.4772 17.3116C16.0739 17.7149 15.5811 17.9165 14.9988 17.9165H4.99884ZM14.9988 16.6666C15.235 16.6666 15.4329 16.5867 15.5926 16.427C15.7523 16.2673 15.8322 16.0693 15.8322 15.8332V3.58967C15.8322 3.51488 15.8081 3.45344 15.76 3.40536C15.712 3.35727 15.6505 3.33323 15.5757 3.33323H6.92194C6.84715 3.33323 6.78572 3.35727 6.73763 3.40536C6.68955 3.45344 6.66551 3.51488 6.66551 3.58967V13.4294H12.6591C13.0734 13.4294 13.428 13.5769 13.723 13.8719C14.018 14.1669 14.1655 14.5215 14.1655 14.9358V15.8332C14.1655 16.0693 14.2454 16.2673 14.4051 16.427C14.5648 16.5867 14.7627 16.6666 14.9988 16.6666ZM8.28409 7.24346C8.10701 7.24346 7.95858 7.18354 7.8388 7.06371C7.71901 6.94386 7.65911 6.79536 7.65911 6.61821C7.65911 6.44104 7.71901 6.29263 7.8388 6.17298C7.95858 6.05333 8.10701 5.9935 8.28409 5.9935H14.2136C14.3907 5.9935 14.5391 6.05343 14.6589 6.17327C14.7787 6.29311 14.8386 6.44161 14.8386 6.61877C14.8386 6.79593 14.7787 6.94433 14.6589 7.06398C14.5391 7.18363 14.3907 7.24346 14.2136 7.24346H8.28409ZM8.28409 9.64731C8.10701 9.64731 7.95858 9.58739 7.8388 9.46754C7.71901 9.3477 7.65911 9.1992 7.65911 9.02204C7.65911 8.84488 7.71901 8.69647 7.8388 8.57682C7.95858 8.45716 8.10701 8.39734 8.28409 8.39734H14.2136C14.3907 8.39734 14.5391 8.45726 14.6589 8.57711C14.7787 8.69694 14.8386 8.84544 14.8386 9.02261C14.8386 9.19976 14.7787 9.34817 14.6589 9.46784C14.5391 9.58749 14.3907 9.64731 14.2136 9.64731H8.28409ZM4.99884 16.6666H12.9155V14.9358C12.9155 14.861 12.8915 14.7996 12.8434 14.7515C12.7953 14.7034 12.7339 14.6794 12.6591 14.6794H4.42194C4.34715 14.6794 4.28571 14.7034 4.23763 14.7515C4.18955 14.7996 4.16551 14.861 4.16551 14.9358V15.8332C4.16551 16.0693 4.24537 16.2673 4.40509 16.427C4.56481 16.5867 4.76273 16.6666 4.99884 16.6666ZM4.99884 16.6666H4.16551H12.9155H4.99884Z" fill="#1C1B1F"/>
</g>
</svg>
