<svg width="56" height="56" viewBox="0 0 56 56" fill="none" xmlns="http://www.w3.org/2000/svg">
<g clip-path="url(#clip0_183_3082)">
<rect x="10" y="15" width="36" height="25" fill="white"/>
<path fill-rule="evenodd" clip-rule="evenodd" d="M12.9231 0C5.76369 0 0 5.76369 0 12.9231V43.0769C0 50.2363 5.76369 56 12.9231 56H43.0769C50.2363 56 56 50.2363 56 43.0769V12.9231C56 5.76369 50.2363 0 43.0769 0H12.9231ZM39.8548 20.7803C40.0814 20.7789 40.3026 20.8491 40.487 20.9807C40.6714 21.1124 40.8096 21.2989 40.8819 21.5136C40.9542 21.7283 40.9569 21.9604 40.8897 22.1768C40.8224 22.3932 40.6887 22.5828 40.5074 22.7188L22.4969 36.6154L15.3375 27.748C15.2393 27.6393 15.1642 27.5117 15.117 27.3731C15.0698 27.2344 15.0513 27.0875 15.0628 26.9415C15.0743 26.7954 15.1154 26.6532 15.1837 26.5236C15.252 26.394 15.3461 26.2797 15.4601 26.1877C15.5741 26.0957 15.7057 26.0279 15.8468 25.9885C15.9879 25.9491 16.1356 25.9389 16.2808 25.9586C16.426 25.9782 16.5656 26.0273 16.6912 26.1028C16.8168 26.1782 16.9256 26.2785 17.0111 26.3975L22.8502 33.6194L39.1849 21.0172C39.3744 20.8652 39.6119 20.7817 39.8548 20.7803Z" fill="#D54400"/>
</g>
<defs>
<clipPath id="clip0_183_3082">
<rect width="56" height="56" fill="white"/>
</clipPath>
</defs>
</svg>
