<svg width="10" height="10" viewBox="0 0 10 10" fill="none" xmlns="http://www.w3.org/2000/svg">
<path d="M5.00005 6.39995L2.10005 9.29995C1.91672 9.48328 1.68338 9.57495 1.40005 9.57495C1.11672 9.57495 0.883382 9.48328 0.700049 9.29995C0.516716 9.11662 0.425049 8.88329 0.425049 8.59995C0.425049 8.31662 0.516716 8.08329 0.700049 7.89995L3.60005 4.99995L0.700049 2.12495C0.516716 1.94162 0.425049 1.70828 0.425049 1.42495C0.425049 1.14162 0.516716 0.908285 0.700049 0.724951C0.883382 0.541618 1.11672 0.449951 1.40005 0.449951C1.68338 0.449951 1.91672 0.541618 2.10005 0.724951L5.00005 3.62495L7.87505 0.724951C8.05838 0.541618 8.29172 0.449951 8.57505 0.449951C8.85838 0.449951 9.09172 0.541618 9.27505 0.724951C9.47505 0.924951 9.57505 1.16245 9.57505 1.43745C9.57505 1.71245 9.47505 1.94162 9.27505 2.12495L6.37505 4.99995L9.27505 7.89995C9.45838 8.08329 9.55005 8.31662 9.55005 8.59995C9.55005 8.88329 9.45838 9.11662 9.27505 9.29995C9.07505 9.49995 8.83755 9.59995 8.56255 9.59995C8.28755 9.59995 8.05838 9.49995 7.87505 9.29995L5.00005 6.39995Z" fill="#D54400"/>
</svg>
