<svg width="32" height="32" viewBox="0 0 32 32" fill="none" xmlns="http://www.w3.org/2000/svg">
<path d="M25.448 11.2739C25.274 10.3339 26.912 10.4469 26.891 8.5869C26.874 7.0449 27.673 5.4759 28.658 9.9109C28.945 11.1989 28.143 12.2789 27.368 12.5969" stroke="#383747" stroke-linecap="round" stroke-linejoin="round"/>
<path d="M23.1041 11.406C25.0331 10.889 27.0241 12.062 27.5501 14.026C27.9601 15.556 27.1001 16.83 26.1631 17.974C18.9931 26.718 4.26205 26.11 3.27905 22.516C20.1611 19.055 19.3121 12.421 23.1041 11.406Z" fill="#D54400" stroke="#383747" stroke-linecap="round" stroke-linejoin="round"/>
<path d="M25.3911 13.6069C25.6456 13.8882 25.7998 14.2457 25.8296 14.6238C25.8595 15.0019 25.7633 15.3793 25.5561 15.6969" stroke="white" stroke-linecap="round" stroke-linejoin="round"/>
</svg>
