<svg width="32" height="32" viewBox="0 0 32 32" fill="none" xmlns="http://www.w3.org/2000/svg">
<path d="M29.377 15.083H2.62C2.62 14.974 2.62 15.193 2.62 15.083C2.62 21.113 6.611 26.322 12.097 28.037L12.098 29.239H19.733V28.079C25.297 26.419 29.382 21.17 29.382 15.083H29.377ZM3.21 2.86297C3.523 2.66797 3.943 2.75597 4.126 3.07597L10.549 14.279C10.733 14.599 10.822 14.907 10.75 14.979C10.659 15.069 10.331 14.955 10.13 14.647L2.995 3.77997C2.94777 3.70616 2.91579 3.62364 2.90093 3.53727C2.88607 3.45091 2.88865 3.36245 2.90849 3.27709C2.92834 3.19174 2.96506 3.11122 3.0165 3.04027C3.06794 2.96932 3.13304 2.90938 3.208 2.86397L3.21 2.86297Z" fill="#D54400"/>
<path d="M2.62 15.083H29.377H29.382C29.382 21.17 25.297 26.419 19.733 28.079V29.239H12.098L12.097 28.037C6.611 26.322 2.62 21.113 2.62 15.083ZM2.62 15.083C2.62 14.974 2.62 15.193 2.62 15.083ZM3.21 2.86297C3.523 2.66797 3.943 2.75597 4.126 3.07597L10.549 14.279C10.733 14.599 10.822 14.907 10.75 14.979C10.659 15.069 10.331 14.955 10.13 14.647L2.995 3.77997C2.94777 3.70616 2.91579 3.62364 2.90093 3.53727C2.88607 3.45091 2.88865 3.36245 2.90849 3.27709C2.92834 3.19174 2.96506 3.11122 3.0165 3.04027C3.06794 2.96932 3.13304 2.90938 3.208 2.86397L3.21 2.86297Z" stroke="#383747" stroke-linecap="round" stroke-linejoin="round"/>
<path d="M25.628 20.1279C25.1506 21.552 24.169 22.7523 22.868 23.5029L25.628 20.1279Z" fill="#D54400"/>
<path d="M25.628 20.1279C25.1506 21.552 24.169 22.7523 22.868 23.5029" stroke="white" stroke-linecap="round" stroke-linejoin="round"/>
</svg>
