<svg width="40" height="40" viewBox="0 0 40 40" fill="none" xmlns="http://www.w3.org/2000/svg">
<path d="M37.4972 19.9986C37.4972 29.6628 31.6667 37.4972 19.9986 37.4972C8.33054 37.4972 2.5 29.6628 2.5 19.9986C2.5 19.1503 2.54493 18.3161 2.63478 17.5L19.9986 12.8748L37.3624 17.5C37.4523 18.3161 37.4972 19.1503 37.4972 19.9986Z" fill="#F7CE6B"/>
<path d="M37.3624 17.5C36.4286 9.01936 30.6424 2.5 19.9986 2.5C9.35474 2.5 3.56857 9.01936 2.63477 17.5H37.3624Z" fill="#E7636C"/>
<path d="M34.375 5C32.6491 5 31.25 6.39911 31.25 8.125V10.625C31.25 12.3509 32.6491 13.75 34.375 13.75C36.1009 13.75 37.5 12.3509 37.5 10.625V8.125C37.5 6.39911 36.1009 5 34.375 5Z" fill="#3573D0"/>
<path d="M6.875 25C5.14911 25 3.75 26.3991 3.75 28.125V30.625C3.75 32.3509 5.14911 33.75 6.875 33.75C8.60089 33.75 10 32.3509 10 30.625V28.125C10 26.3991 8.60089 25 6.875 25Z" fill="#3573D0"/>
<path d="M16.5189 14.8889C15.5055 15.7107 13.8036 16.25 11.875 16.25C10.7501 16.25 9.70225 16.0665 8.82322 15.7505C7.99758 16.7294 7.5 17.9941 7.5 19.375C7.5 22.4816 10.0184 25 13.125 25C16.2316 25 18.75 22.4816 18.75 19.375C18.75 17.5432 17.8744 15.9159 16.5189 14.8889Z" fill="white"/>
<path d="M31.1768 15.7505C30.2977 16.0665 29.2499 16.25 28.125 16.25C26.1964 16.25 24.4945 15.7107 23.4811 14.8889C22.1256 15.9159 21.25 17.5432 21.25 19.375C21.25 22.4816 23.7684 25 26.875 25C29.9816 25 32.5 22.4816 32.5 19.375C32.5 17.9941 32.0024 16.7294 31.1768 15.7505Z" fill="white"/>
<path d="M16.25 10.625C16.25 10.2798 15.9702 10 15.625 10C15.2798 10 15 10.2798 15 10.625C15 11.7054 14.6011 12.4698 14.0379 12.9704C13.4632 13.4812 12.6793 13.75 11.875 13.75C11.5298 13.75 11.25 14.0298 11.25 14.375C11.25 14.7202 11.5298 15 11.875 15C12.9457 15 14.0368 14.6438 14.8684 13.9046C15.7114 13.1552 16.25 12.0446 16.25 10.625Z" fill="#55585F"/>
<path d="M23.75 10.625C23.75 10.2798 24.0298 10 24.375 10C24.7202 10 25 10.2798 25 10.625C25 11.7054 25.3989 12.4698 25.9621 12.9704C26.5368 13.4812 27.3207 13.75 28.125 13.75C28.4702 13.75 28.75 14.0298 28.75 14.375C28.75 14.7202 28.4702 15 28.125 15C27.0543 15 25.9632 14.6438 25.1316 13.9046C24.2886 13.1552 23.75 12.0446 23.75 10.625Z" fill="#55585F"/>
<path d="M15 22.5C16.3807 22.5 17.5 21.3807 17.5 20C17.5 18.6193 16.3807 17.5 15 17.5C13.6193 17.5 12.5 18.6193 12.5 20C12.5 21.3807 13.6193 22.5 15 22.5Z" fill="#55585F"/>
<path d="M25 22.5C26.3807 22.5 27.5 21.3807 27.5 20C27.5 18.6193 26.3807 17.5 25 17.5C23.6193 17.5 22.5 18.6193 22.5 20C22.5 21.3807 23.6193 22.5 25 22.5Z" fill="#55585F"/>
<path d="M18.75 26.25C16.6789 26.25 15 27.9289 15 30C15 32.0711 16.6789 33.75 18.75 33.75H21.25C23.3211 33.75 25 32.0711 25 30C25 27.9289 23.3211 26.25 21.25 26.25H18.75Z" fill="#55585F"/>
<path d="M15.5982 31.7403C15.2888 30.1933 16.4721 28.75 18.0497 28.75H21.9507C23.5283 28.75 24.7115 30.1933 24.4021 31.7403L24.3531 31.9854C24.0025 33.7383 22.4635 35 20.6759 35H19.3244C17.5369 35 15.9978 33.7383 15.6473 31.9854L15.5982 31.7403Z" fill="#EE7DB1"/>
</svg>
