<svg width="18" height="20" viewBox="0 0 18 20" fill="none" xmlns="http://www.w3.org/2000/svg">
<mask id="mask0_294_4350" style="mask-type:alpha" maskUnits="userSpaceOnUse" x="0" y="0" width="18" height="20">
<rect width="18" height="20" fill="#D9D9D9"/>
</mask>
<g mask="url(#mask0_294_4350)">
<path d="M3.29035 17.2913C2.8465 17.2913 2.47058 17.1373 2.1626 16.8293C1.85461 16.5213 1.70062 16.1454 1.70062 15.7016V9.19036C1.28181 8.88693 1.01605 8.49804 0.903327 8.0237C0.790618 7.54934 0.807979 7.08513 0.95541 6.63107L1.76337 3.87786C1.87004 3.52745 2.05703 3.24486 2.32437 3.03011C2.59172 2.81538 2.91108 2.70801 3.28245 2.70801H14.7108C15.0822 2.70801 15.4023 2.81057 15.671 3.0157C15.9396 3.22082 16.1301 3.50287 16.2425 3.86184L17.05 6.63107C17.1835 7.08513 17.1835 7.54079 17.05 7.99805C16.9164 8.45531 16.6611 8.85115 16.2839 9.18555V15.7016C16.2839 16.1454 16.1299 16.5213 15.822 16.8293C15.514 17.1373 15.138 17.2913 14.6942 17.2913H3.29035ZM10.8256 8.49967C11.2252 8.49967 11.543 8.36266 11.7791 8.08863C12.0153 7.81459 12.1125 7.52052 12.0708 7.2064L11.5873 4.0413H9.65893V7.24049C9.65893 7.58217 9.77058 7.87745 9.99387 8.12634C10.2172 8.37523 10.4944 8.49967 10.8256 8.49967ZM7.09643 8.49967C7.43832 8.49967 7.72866 8.37523 7.96745 8.12634C8.20623 7.87745 8.32562 7.58217 8.32562 7.24049V4.0413H6.39931L5.91051 7.21813C5.86779 7.49984 5.95487 7.78386 6.17174 8.07018C6.38863 8.35651 6.69686 8.49967 7.09643 8.49967ZM3.3881 8.49967C3.6802 8.49967 3.93111 8.39204 4.14085 8.17676C4.35057 7.96147 4.4816 7.70479 4.53395 7.40672L5.04518 4.0413H3.35856C3.26774 4.0413 3.19562 4.06133 3.1422 4.1014C3.08877 4.14147 3.0487 4.20158 3.02199 4.28172L2.2631 6.93074C2.13915 7.33032 2.19444 7.6917 2.42895 8.01488C2.66347 8.33808 2.98318 8.49967 3.3881 8.49967ZM14.5964 8.49967C14.9778 8.49967 15.2952 8.34342 15.5484 8.03092C15.8016 7.71841 15.8662 7.35168 15.7423 6.93074L14.9618 4.26567C14.9351 4.18555 14.8951 4.12812 14.8416 4.09338C14.7882 4.05866 14.7161 4.0413 14.6253 4.0413H12.9394L13.4506 7.40672C13.5029 7.70479 13.634 7.96147 13.8437 8.17676C14.0534 8.39204 14.3043 8.49967 14.5964 8.49967ZM3.29035 15.958H14.6942C14.769 15.958 14.8304 15.934 14.8785 15.8859C14.9266 15.8378 14.9506 15.7764 14.9506 15.7016V9.78009C14.9015 9.79931 14.843 9.81293 14.7751 9.82095C14.7073 9.82896 14.6477 9.83297 14.5964 9.83297C14.2257 9.83297 13.8996 9.76513 13.6181 9.62945C13.3366 9.49377 13.0639 9.27635 12.8 8.9772C12.5521 9.22399 12.2701 9.42831 11.9538 9.59018C11.6376 9.75204 11.2767 9.83297 10.8712 9.83297C10.5214 9.83297 10.1899 9.75604 9.87689 9.6022C9.56386 9.44835 9.26899 9.24002 8.99226 8.9772C8.74868 9.24002 8.46396 9.44835 8.1381 9.6022C7.81225 9.75604 7.48213 9.83297 7.14772 9.83297C6.77165 9.83297 6.42256 9.76139 6.10045 9.61824C5.77833 9.47507 5.48532 9.26139 5.22143 8.9772C4.88489 9.31374 4.56892 9.5405 4.27351 9.65749C3.97811 9.77447 3.68992 9.83297 3.40893 9.83297C3.35765 9.83297 3.29729 9.82896 3.22785 9.82095C3.15839 9.81293 3.09375 9.79931 3.03393 9.78009V15.7016C3.03393 15.7764 3.05797 15.8378 3.10604 15.8859C3.15412 15.934 3.21556 15.958 3.29035 15.958Z" fill="#1C1B1F"/>
</g>
</svg>
