<svg width="60" height="60" viewBox="0 0 60 60" fill="none" xmlns="http://www.w3.org/2000/svg">
<g clip-path="url(#clip0_634_3063)">
<path d="M30.8871 46.4292C30.0961 50.7345 30.763 55.2942 32.7544 59.1901" stroke="#373433" stroke-width="0.930545" stroke-miterlimit="10" stroke-linecap="round"/>
<path d="M32.4918 59.1343C31.614 58.6132 30.5873 58.4054 29.5854 58.21C29.328 58.1603 29.0612 58.1107 28.81 58.1882C28.5153 58.2813 28.295 58.545 28.2144 58.8427C28.1338 59.1405 28.1741 59.46 28.2826 59.7454C28.3912 60.0307 28.568 60.2882 28.7541 60.5332C30.0693 60.13 31.3596 59.6461 32.619 59.0878" fill="#373433"/>
<path d="M32.4918 59.1343C31.614 58.6132 30.5873 58.4054 29.5854 58.21C29.328 58.1603 29.0612 58.1107 28.81 58.1882C28.5153 58.2813 28.295 58.545 28.2144 58.8427C28.1338 59.1405 28.1741 59.46 28.2826 59.7454C28.3912 60.0307 28.568 60.2882 28.7541 60.5332C30.0693 60.13 31.3596 59.6461 32.619 59.0878" stroke="#373433" stroke-width="0.930545" stroke-miterlimit="10" stroke-linecap="round"/>
<path d="M44.8389 50.2509C43.9673 50.7875 43.3097 51.5971 42.6677 52.3942C42.5033 52.599 42.3327 52.813 42.2861 53.0704C42.2303 53.3713 42.3637 53.6908 42.587 53.9017C42.8103 54.1126 43.1143 54.2243 43.4183 54.2615C43.7223 54.2988 44.0325 54.2615 44.3364 54.2119C44.5908 52.8595 44.7645 51.4916 44.8544 50.1206" fill="#373433"/>
<path d="M44.8389 50.2509C43.9673 50.7875 43.3097 51.5971 42.6677 52.3942C42.5033 52.599 42.3327 52.813 42.2861 53.0704C42.2303 53.3713 42.3637 53.6908 42.587 53.9017C42.8103 54.1126 43.1143 54.2243 43.4183 54.2615C43.7223 54.2988 44.0325 54.2615 44.3364 54.2119C44.5908 52.8595 44.7645 51.4916 44.8544 50.1206" stroke="#373433" stroke-width="0.930545" stroke-miterlimit="10" stroke-linecap="round"/>
<path d="M36.4609 45.9058C36.5819 46.3555 36.5199 50.4933 37.6582 51.0331C38.7966 51.5728 44.352 50.0591 44.8483 50.0002" stroke="#373433" stroke-width="0.930545" stroke-miterlimit="10" stroke-linecap="round"/>
<path d="M19.687 21.1772C17.4381 22.2505 15.1676 23.3857 13.3438 25.0545" stroke="#373433" stroke-width="0.930545" stroke-miterlimit="10" stroke-linecap="round"/>
<path d="M26.7193 0.367585C30.7145 -0.423378 37.8549 -0.243474 39.5546 4.07115C40.5224 6.42543 39.8276 9.39077 39.3158 11.866C38.8505 13.9691 38.4163 16.1124 38.1712 18.0976C37.5416 23.715 37.464 29.993 38.6489 35.3933C39.2352 38.3928 41.1118 41.6186 40.4387 44.6491C39.5236 48.5605 33.503 50.6884 29.8087 49.9532C25.6926 49.063 24.1448 44.0257 22.3799 40.502C18.4778 32.2698 19.2781 26.1654 19.6472 17.4555C19.9543 13.2898 19.5603 7.68167 21.2632 4.58916C22.3582 2.49543 24.3092 0.842162 26.6604 0.379991L26.7224 0.367585H26.7193Z" fill="#FAF5E2"/>
<path d="M26.7193 0.367585C30.7145 -0.423378 37.8549 -0.243474 39.5546 4.07115C40.5224 6.42543 39.8276 9.39077 39.3158 11.866C38.8505 13.9691 38.4163 16.1124 38.1712 18.0976C37.5416 23.715 37.464 29.993 38.6489 35.3933C39.2352 38.3928 41.1118 41.6186 40.4387 44.6491C39.5236 48.5605 33.503 50.6884 29.8087 49.9532C25.6926 49.063 24.1448 44.0257 22.3799 40.502C18.4778 32.2698 19.2781 26.1654 19.6472 17.4555C19.9543 13.2898 19.5603 7.68167 21.2632 4.58916C22.3582 2.49543 24.3092 0.842162 26.6604 0.379991L26.7224 0.367585H26.7193Z" stroke="#D1CDBF" stroke-width="0.930545" stroke-miterlimit="10"/>
<path d="M13.3455 25.0542C13.1004 25.2775 12.8647 25.5102 12.6383 25.7521C12.235 26.1864 11.838 26.785 12.0675 27.334C12.3095 27.9141 13.0663 28.0257 13.6929 28.0381C16.5807 28.0909 19.4747 27.7869 22.2911 27.1355" stroke="#373433" stroke-width="0.930545" stroke-miterlimit="10" stroke-linecap="round"/>
<path d="M21.9297 26.8416V25.1294" stroke="#373433" stroke-width="0.930545" stroke-miterlimit="10" stroke-linecap="round"/>
<path d="M22.1641 26.9506C22.6386 26.8172 23.1132 26.6807 23.5878 26.5474" stroke="#373433" stroke-width="0.930545" stroke-miterlimit="10" stroke-linecap="round"/>
<path d="M21.8594 27.2227C22.3681 27.5639 22.9171 27.8492 23.4878 28.0664" stroke="#373433" stroke-width="0.930545" stroke-miterlimit="10" stroke-linecap="round"/>
<path d="M46.2344 22.1363L47.9187 21.8447" stroke="#373433" stroke-width="0.930545" stroke-miterlimit="10" stroke-linecap="round"/>
<path d="M46.1719 22.3843C46.3859 22.8278 46.5999 23.2745 46.814 23.7181" stroke="#373433" stroke-width="0.930545" stroke-miterlimit="10" stroke-linecap="round"/>
<path d="M45.849 22.1333C45.5978 22.6916 45.4116 23.281 45.2969 23.8827" stroke="#373433" stroke-width="0.930545" stroke-miterlimit="10" stroke-linecap="round"/>
<path d="M40.2109 17.8643C40.3784 17.7775 40.5459 17.6968 40.7165 17.6255C41.1167 17.458 41.5509 17.337 41.9573 17.4766C42.3512 17.6131 42.6552 17.9729 42.9405 18.3234C43.9052 19.5207 44.8264 20.7614 45.7043 22.0487" stroke="#373433" stroke-width="0.930545" stroke-miterlimit="10" stroke-linecap="round"/>
<path d="M37.1562 20.2283C38.1178 19.3443 39.1011 18.451 40.2084 17.8647" stroke="#373433" stroke-width="0.930545" stroke-miterlimit="10" stroke-linecap="round"/>
<path d="M25.3478 9.35035C25.3478 10.4639 26.4458 11.5216 25.5029 11.5216C24.5599 11.5216 23.7969 10.619 23.7969 9.50544C23.7969 8.39189 24.5599 7.48926 25.5029 7.48926C26.4458 7.48926 25.3478 8.2368 25.3478 9.35035Z" fill="#373433"/>
<path d="M28.4493 9.35035C28.4493 10.4639 29.5474 11.5216 28.6044 11.5216C27.6615 11.5216 26.8984 10.619 26.8984 9.50544C26.8984 8.39189 27.6615 7.48926 28.6044 7.48926C29.5474 7.48926 28.4493 8.2368 28.4493 9.35035Z" fill="#373433"/>
<path d="M21.7812 12.6064C21.7812 12.6064 25.5034 18.1897 31.0867 12.9166" stroke="#373433" stroke-width="0.620363" stroke-miterlimit="10" stroke-linecap="round"/>
<rect width="60" height="60" rx="4" fill="white" fill-opacity="0.6"/>
</g>
<rect x="0.15" y="0.15" width="59.7" height="59.7" rx="3.85" stroke="#D9D9D9" stroke-width="0.3"/>
<defs>
<clipPath id="clip0_634_3063">
<rect width="60" height="60" rx="4" fill="white"/>
</clipPath>
</defs>
</svg>
