<svg width="40" height="40" viewBox="0 0 40 40" fill="none" xmlns="http://www.w3.org/2000/svg">
<mask id="mask0_599_4274" style="mask-type:alpha" maskUnits="userSpaceOnUse" x="0" y="0" width="40" height="40">
<rect width="40" height="40" fill="#D9D9D9"/>
</mask>
<g mask="url(#mask0_599_4274)">
<path d="M19.9813 32.9902C19.6694 32.9902 19.3567 32.9339 19.0431 32.8211C18.7296 32.7083 18.4538 32.5322 18.2156 32.2926L16.1534 30.408C12.9504 27.4728 10.1514 24.6436 7.75648 21.9203C5.36153 19.1971 4.16406 16.3561 4.16406 13.3974C4.16406 11.085 4.9438 9.14899 6.50327 7.58938C8.06274 6.02979 9.9931 5.25 12.2944 5.25C13.6085 5.25 14.9416 5.57301 16.2938 6.21904C17.646 6.86504 18.8805 7.99931 19.9974 9.62183C21.1783 7.99931 22.4242 6.86504 23.7351 6.21904C25.046 5.57301 26.3677 5.25 27.7004 5.25C30.0016 5.25 31.932 6.02979 33.4914 7.58938C35.0509 9.14899 35.8306 11.085 35.8306 13.3974C35.8306 16.3881 34.6088 19.2555 32.165 21.9994C29.7213 24.7434 26.9421 27.5455 23.8274 30.4059L21.7564 32.2992C21.521 32.5364 21.2457 32.7109 20.9305 32.8227C20.6154 32.9344 20.299 32.9902 19.9813 32.9902ZM19.0465 11.8718C18.1676 10.3853 17.1546 9.25903 16.0075 8.493C14.8604 7.72697 13.6227 7.34396 12.2944 7.34396C10.5451 7.34396 9.1017 7.91554 7.96423 9.05871C6.82676 10.2019 6.25802 11.6511 6.25802 13.4062C6.25802 14.8206 6.70119 16.2927 7.58752 17.8226C8.47385 19.3525 9.58709 20.871 10.9272 22.3781C12.2674 23.8852 13.7206 25.3521 15.2868 26.7788C16.8531 28.2054 18.311 29.5323 19.6608 30.7595C19.7569 30.8522 19.8691 30.8985 19.9974 30.8985C20.1256 30.8985 20.2378 30.8522 20.3339 30.7595C21.6837 29.5437 23.1416 28.2196 24.7079 26.7873C26.2741 25.355 27.7262 23.881 29.0642 22.3653C30.4021 20.8496 31.5154 19.3268 32.4039 17.7967C33.2924 16.2666 33.7367 14.8014 33.7367 13.401C33.7367 11.6493 33.1648 10.2019 32.0211 9.05871C30.8775 7.91554 29.4363 7.34396 27.6976 7.34396C26.3526 7.34396 25.1111 7.72413 23.9733 8.48446C22.8355 9.24479 21.8157 10.3739 20.914 11.8718C20.7958 12.0555 20.6562 12.1923 20.4952 12.282C20.3342 12.3718 20.1608 12.4167 19.9749 12.4167C19.789 12.4167 19.6127 12.3718 19.4461 12.282C19.2794 12.1923 19.1462 12.0555 19.0465 11.8718Z" fill="#D9D9D9"/>
</g>
</svg>
