<svg width="40" height="40" viewBox="0 0 40 40" fill="none" xmlns="http://www.w3.org/2000/svg">
<mask id="mask0_605_5336" style="mask-type:alpha" maskUnits="userSpaceOnUse" x="0" y="0" width="40" height="40">
<rect width="40" height="40" fill="#D9D9D9"/>
</mask>
<g mask="url(#mask0_605_5336)">
<path d="M8.00246 34.5826C7.28452 34.5826 6.67056 34.3276 6.16058 33.8176C5.65061 33.3077 5.39563 32.6938 5.39563 31.9758V18.2386C4.6606 17.646 4.1501 16.8969 3.86413 15.9913C3.57815 15.0857 3.58724 14.1496 3.89138 13.1831L5.59433 7.69377C5.81656 6.97441 6.19085 6.41493 6.71721 6.01535C7.24354 5.61579 7.86711 5.41602 8.58792 5.41602H31.2866C32.0302 5.41602 32.673 5.61366 33.215 6.00893C33.757 6.40424 34.1385 6.95517 34.3593 7.66173L36.1221 13.1831C36.4262 14.1496 36.4306 15.0882 36.1354 15.9988C35.8402 16.9094 35.3251 17.6667 34.59 18.2707V31.9758C34.59 32.6938 34.335 33.3077 33.8251 33.8176C33.3151 34.3276 32.7012 34.5826 31.9832 34.5826H8.00246ZM23.7076 17.2857C24.6478 17.2857 25.3865 17.0027 25.924 16.4368C26.4614 15.871 26.6827 15.2422 26.588 14.5506L25.5132 7.50997H21.0537V14.4374C21.0537 15.2023 21.3098 15.8683 21.8219 16.4352C22.334 17.0022 22.9626 17.2857 23.7076 17.2857ZM16.0665 17.2857C16.8977 17.2857 17.5877 17.0068 18.1365 16.4491C18.6854 15.8914 18.9598 15.2208 18.9598 14.4374V7.50997H14.4896L13.4148 14.6147C13.325 15.2365 13.5344 15.8371 14.043 16.4165C14.5516 16.996 15.2261 17.2857 16.0665 17.2857ZM8.57084 17.2857C9.26386 17.2857 9.86252 17.0469 10.3668 16.5693C10.8711 16.0918 11.172 15.5008 11.2696 14.7963L12.3294 7.50997H8.35075C8.16911 7.50997 8.02309 7.55003 7.91267 7.63014C7.80228 7.71028 7.72393 7.83049 7.67763 7.99077L5.95113 13.6617C5.67832 14.5171 5.79228 15.335 6.293 16.1153C6.79372 16.8955 7.553 17.2857 8.57084 17.2857ZM31.4148 17.2857C32.3579 17.2857 33.1054 16.9109 33.6574 16.1612C34.2094 15.4115 34.3408 14.5784 34.0516 13.6617L32.2867 7.95872C32.2404 7.79845 32.162 7.68359 32.0516 7.61414C31.9412 7.5447 31.7952 7.50997 31.6135 7.50997H27.6733L28.7332 14.7963C28.8379 15.5008 29.1406 16.0918 29.6413 16.5693C30.142 17.0469 30.7332 17.2857 31.4148 17.2857ZM8.00246 32.4886H31.9832C32.1257 32.4886 32.2467 32.4406 32.3465 32.3444C32.4462 32.2483 32.496 32.1254 32.496 31.9758V19.2493C32.3899 19.3041 32.2365 19.3396 32.0356 19.3556C31.8347 19.3716 31.6278 19.3796 31.4148 19.3796C30.6948 19.3796 30.0368 19.2336 29.441 18.9416C28.8452 18.6496 28.2653 18.1894 27.7012 17.5612C27.256 18.1125 26.7083 18.5534 26.058 18.8839C25.4077 19.2144 24.6527 19.3796 23.793 19.3796C23.0445 19.3796 22.3703 19.2413 21.7706 18.9646C21.1709 18.6878 20.5829 18.2614 20.0067 17.6852C19.5145 18.2386 18.9398 18.6594 18.2823 18.9475C17.6249 19.2356 16.9412 19.3796 16.2311 19.3796C15.449 19.3796 14.7261 19.2377 14.0623 18.9539C13.3984 18.6701 12.8258 18.2058 12.3443 17.5612C11.6021 18.2621 10.9178 18.7404 10.2914 18.9961C9.665 19.2518 9.09147 19.3796 8.57084 19.3796C8.36925 19.3796 8.17265 19.3716 7.98104 19.3556C7.78946 19.3396 7.62564 19.3041 7.48959 19.2493V31.9758C7.48959 32.1254 7.53945 32.2483 7.63917 32.3444C7.73889 32.4406 7.85999 32.4886 8.00246 32.4886Z" fill="#D9D9D9"/>
</g>
</svg>
