<svg width="40" height="40" viewBox="0 0 40 40" fill="none" xmlns="http://www.w3.org/2000/svg">
<mask id="mask0_605_5330" style="mask-type:alpha" maskUnits="userSpaceOnUse" x="0" y="0" width="40" height="40">
<rect width="40" height="40" fill="#D9D9D9"/>
</mask>
<g mask="url(#mask0_605_5330)">
<path d="M20 19.666L17.1207 21.8647C16.9832 21.9594 16.8495 21.9626 16.7195 21.8743C16.5895 21.786 16.5488 21.6667 16.5972 21.5164L17.6944 17.9374L14.7692 15.7215C14.6374 15.6339 14.6031 15.5155 14.6661 15.3663C14.7292 15.2171 14.8358 15.1425 14.9861 15.1425H18.5512L19.6933 11.4972C19.7418 11.354 19.844 11.2824 20 11.2824C20.1559 11.2824 20.2581 11.354 20.3066 11.4972L21.4209 15.1425H25.0053C25.1556 15.1425 25.2637 15.2171 25.3295 15.3663C25.3954 15.5155 25.3625 15.6339 25.2307 15.7215L22.3076 17.9374L23.3771 21.5164C23.4255 21.6667 23.3894 21.786 23.2686 21.8743C23.1479 21.9626 23.0188 21.9594 22.8814 21.8647L20 19.666ZM20 34.1509L12.6154 36.5089C12.2065 36.6591 11.8205 36.597 11.4573 36.3224C11.094 36.0478 10.9124 35.6951 10.9124 35.2642V25.2172C9.76283 24.0506 8.90671 22.729 8.34404 21.2525C7.78135 19.776 7.5 18.2472 7.5 16.666C7.5 13.156 8.70585 10.1952 11.1175 7.78356C13.5292 5.37186 16.49 4.16602 20 4.16602C23.5099 4.16602 26.4707 5.37186 28.8824 7.78356C31.2941 10.1952 32.4999 13.156 32.4999 16.666C32.4999 18.2472 32.2186 19.776 31.6559 21.2525C31.0932 22.729 30.2371 24.0506 29.0875 25.2172V35.2642C29.0875 35.6951 28.9059 36.0478 28.5426 36.3224C28.1794 36.597 27.7934 36.6591 27.3845 36.5089L20 34.1509ZM20 27.072C22.9017 27.072 25.3614 26.0631 27.3793 24.0453C29.3971 22.0275 30.406 19.5677 30.406 16.666C30.406 13.7643 29.3971 11.3045 27.3793 9.28668C25.3614 7.26888 22.9017 6.25997 20 6.25997C17.0982 6.25997 14.6385 7.26888 12.6207 9.28668C10.6029 11.3045 9.59396 13.7643 9.59396 16.666C9.59396 19.5677 10.6029 22.0275 12.6207 24.0453C14.6385 26.0631 17.0982 27.072 20 27.072ZM13.0064 34.0955L20 32.0249L26.9935 34.0955V26.9501C25.9715 27.6937 24.8586 28.2489 23.6549 28.6157C22.4512 28.9825 21.2329 29.1659 20 29.1659C18.767 29.1659 17.5487 28.9825 16.345 28.6157C15.1413 28.2489 14.0285 27.6937 13.0064 26.9501V34.0955Z" fill="#1C1B1F"/>
</g>
</svg>
