<svg width="28" height="28" viewBox="0 0 28 28" fill="none" xmlns="http://www.w3.org/2000/svg">
<mask id="mask0_383_8701" style="mask-type:alpha" maskUnits="userSpaceOnUse" x="0" y="0" width="28" height="28">
<rect width="28" height="28" fill="#D9D9D9"/>
</mask>
<g mask="url(#mask0_383_8701)">
<path d="M13.9991 15.0311L7.88304 21.1471C7.74246 21.2877 7.57233 21.3599 7.37266 21.3636C7.17298 21.3674 6.99911 21.2952 6.85104 21.1471C6.70295 20.9991 6.62891 20.8271 6.62891 20.6312C6.62891 20.4352 6.70295 20.2632 6.85104 20.1151L12.9671 13.9991L6.85104 7.88304C6.71044 7.74246 6.63827 7.57233 6.63454 7.37266C6.63078 7.17298 6.70295 6.99911 6.85104 6.85104C6.99911 6.70295 7.17111 6.62891 7.36703 6.62891C7.56297 6.62891 7.73497 6.70295 7.88304 6.85104L13.9991 12.9671L20.1151 6.85104C20.2557 6.71044 20.4258 6.63827 20.6255 6.63454C20.8252 6.63078 20.9991 6.70295 21.1471 6.85104C21.2952 6.99911 21.3693 7.17111 21.3693 7.36703C21.3693 7.56297 21.2952 7.73498 21.1471 7.88304L15.0311 13.9991L21.1471 20.1151C21.2877 20.2557 21.3599 20.4258 21.3636 20.6255C21.3674 20.8252 21.2952 20.9991 21.1471 21.1471C20.9991 21.2952 20.8271 21.3693 20.6312 21.3693C20.4352 21.3693 20.2632 21.2952 20.1151 21.1471L13.9991 15.0311Z" fill="#1C1B1F"/>
</g>
</svg>
