<svg width="24" height="24" viewBox="0 0 24 24" fill="none" xmlns="http://www.w3.org/2000/svg">
<mask id="mask0_368_2366" style="mask-type:alpha" maskUnits="userSpaceOnUse" x="0" y="0" width="24" height="24">
<rect width="24" height="24" fill="#D9D9D9"/>
</mask>
<g mask="url(#mask0_368_2366)">
<path d="M9.1841 11.9998L16.7168 19.5325C16.9155 19.7312 17.0123 19.9652 17.0072 20.2344C17.002 20.5037 16.9001 20.7376 16.7014 20.9363C16.5027 21.1351 16.2687 21.2344 15.9995 21.2344C15.7303 21.2344 15.4963 21.1351 15.2976 20.9363L7.62645 13.2806C7.44567 13.0998 7.31169 12.8972 7.22453 12.6729C7.13734 12.4485 7.09375 12.2242 7.09375 11.9998C7.09375 11.7755 7.13734 11.5511 7.22453 11.3267C7.31169 11.1024 7.44567 10.8998 7.62645 10.7191L15.2976 3.04792C15.4963 2.8492 15.7328 2.7524 16.0072 2.75752C16.2816 2.76265 16.5181 2.86458 16.7168 3.06329C16.9155 3.26201 17.0149 3.49598 17.0149 3.76519C17.0149 4.03443 16.9155 4.2684 16.7168 4.46712L9.1841 11.9998Z" fill="#1C1B1F"/>
</g>
</svg>
