<svg width="18" height="20" viewBox="0 0 18 20" fill="none" xmlns="http://www.w3.org/2000/svg">
<mask id="mask0_294_4356" style="mask-type:alpha" maskUnits="userSpaceOnUse" x="0" y="0" width="18" height="20">
<rect width="18" height="20" fill="#D9D9D9"/>
</mask>
<g mask="url(#mask0_294_4356)">
<path d="M10.4202 17.2743C10.2082 17.4859 9.95271 17.5916 9.6538 17.5916C9.3549 17.5916 9.09968 17.4859 8.88814 17.2743L1.7423 10.1285C1.64068 10.0227 1.56105 9.90133 1.50343 9.76447C1.4458 9.62761 1.41699 9.49094 1.41699 9.35447V3.50031C1.41699 3.20533 1.5238 2.95104 1.73743 2.73743C1.95104 2.52381 2.20533 2.41699 2.5003 2.41699H8.35447C8.4913 2.41699 8.62297 2.44015 8.74947 2.48645C8.87596 2.53274 8.99506 2.61059 9.10678 2.71999L16.2583 9.86412C16.4752 10.081 16.585 10.3382 16.5876 10.6357C16.5903 10.9333 16.4859 11.1878 16.2743 11.3993L10.4202 17.2743ZM9.65055 16.5003L15.5083 10.6461L8.35805 3.50031H2.5003V9.35447L9.65055 16.5003ZM4.49937 6.54195C4.78845 6.54195 5.03449 6.44077 5.23747 6.23841C5.44046 6.03605 5.54195 5.79033 5.54195 5.50124C5.54195 5.21216 5.44077 4.96613 5.23841 4.76314C5.03605 4.56015 4.79033 4.45866 4.50124 4.45866C4.21216 4.45866 3.96612 4.55984 3.76314 4.7622C3.56015 4.96456 3.45866 5.21028 3.45866 5.49937C3.45866 5.78845 3.55984 6.03449 3.7622 6.23747C3.96456 6.44046 4.21028 6.54195 4.49937 6.54195Z" fill="#1C1B1F"/>
</g>
</svg>
