<svg width="28" height="28" viewBox="0 0 28 28" fill="none" xmlns="http://www.w3.org/2000/svg">
<mask id="mask0_383_8692" style="mask-type:alpha" maskUnits="userSpaceOnUse" x="0" y="0" width="28" height="28">
<rect width="28" height="28" fill="#D9D9D9"/>
</mask>
<g mask="url(#mask0_383_8692)">
<path d="M13.2692 8.04572L6.80015 14.5222C6.65467 14.6618 6.4843 14.7337 6.28906 14.738C6.09384 14.7422 5.92128 14.6683 5.77138 14.5163C5.62113 14.3642 5.54501 14.1922 5.54301 14.0002C5.54102 13.8083 5.61606 13.6363 5.76812 13.4842L13.3643 5.88803C13.4594 5.79293 13.5587 5.72369 13.662 5.68031C13.7654 5.63693 13.8791 5.61523 14.0031 5.61523C14.127 5.61523 14.2404 5.63693 14.3431 5.68031C14.4458 5.72369 14.5447 5.79293 14.6398 5.88803L22.236 13.4842C22.3766 13.6248 22.4488 13.7935 22.4525 13.9902C22.4563 14.1868 22.3841 14.3622 22.236 14.5163C22.082 14.6683 21.9085 14.7443 21.7155 14.7443C21.5226 14.7443 21.3526 14.6683 21.2055 14.5163L14.7349 8.04572V22.0173C14.7349 22.2286 14.6656 22.4035 14.5269 22.5422C14.3882 22.6809 14.2132 22.7502 14.002 22.7502C13.7907 22.7502 13.6157 22.6809 13.4771 22.5422C13.3385 22.4035 13.2692 22.2286 13.2692 22.0173V8.04572Z" fill="#1C1B1F"/>
</g>
</svg>
