<svg width="18" height="20" viewBox="0 0 18 20" fill="none" xmlns="http://www.w3.org/2000/svg">
<mask id="mask0_294_4362" style="mask-type:alpha" maskUnits="userSpaceOnUse" x="0" y="0" width="18" height="20">
<rect width="18" height="20" fill="#D9D9D9"/>
</mask>
<g mask="url(#mask0_294_4362)">
<path d="M9.00033 16.1574C10.589 14.7674 11.8262 13.4127 12.7119 12.0933C13.5976 10.7738 14.0404 9.61035 14.0404 8.60287C14.0404 7.1392 13.5647 5.92152 12.6133 4.94983C11.6619 3.97813 10.4576 3.49228 9.00033 3.49228C7.54306 3.49228 6.33874 3.97813 5.38735 4.94983C4.43596 5.92152 3.96027 7.1392 3.96027 8.60287C3.96027 9.61035 4.40311 10.7738 5.28879 12.0933C6.17448 13.4127 7.41166 14.7674 9.00033 16.1574ZM9.00033 17.2006C8.85183 17.2006 8.71374 17.176 8.58608 17.1269C8.45841 17.0777 8.32887 17.0013 8.19745 16.8977C7.79683 16.5558 7.29497 16.0892 6.69187 15.4979C6.08877 14.9066 5.50143 14.2426 4.92985 13.5059C4.35827 12.7693 3.87322 11.98 3.47472 11.1381C3.07621 10.2962 2.87695 9.45116 2.87695 8.60287C2.87695 6.90203 3.44693 5.44585 4.58689 4.23431C5.72684 3.02276 7.19798 2.41699 9.00033 2.41699C10.7888 2.41699 12.2565 3.02276 13.4033 4.23431C14.5503 5.44585 15.1237 6.90203 15.1237 8.60287C15.1237 9.45116 14.921 10.2984 14.5155 11.1446C14.1101 11.9907 13.6264 12.7834 13.0644 13.5228C12.5024 14.2621 11.9199 14.9226 11.3168 15.5043C10.7137 16.086 10.2118 16.5478 9.8112 16.8897C9.68172 16.9933 9.55193 17.0711 9.42185 17.1229C9.29175 17.1747 9.15124 17.2006 9.00033 17.2006ZM9.00174 9.88812C9.37473 9.88812 9.69103 9.75784 9.95064 9.49728C10.2103 9.23673 10.3401 8.91996 10.3401 8.54697C10.3401 8.17399 10.2098 7.85769 9.94922 7.59808C9.68867 7.33846 9.3719 7.20866 8.99891 7.20866C8.62593 7.20866 8.30963 7.33894 8.05002 7.59949C7.7904 7.86005 7.6606 8.17682 7.6606 8.5498C7.6606 8.92279 7.79088 9.23909 8.05143 9.4987C8.31199 9.75831 8.62876 9.88812 9.00174 9.88812Z" fill="#1C1B1F"/>
</g>
</svg>
