<svg width="28" height="28" viewBox="0 0 28 28" fill="none" xmlns="http://www.w3.org/2000/svg">
<mask id="mask0_383_8680" style="mask-type:alpha" maskUnits="userSpaceOnUse" x="0" y="0" width="28" height="28">
<rect width="28" height="28" fill="#D9D9D9"/>
</mask>
<g mask="url(#mask0_383_8680)">
<path d="M13.9953 19.8698C15.309 19.8698 16.415 19.4207 17.3131 18.5226C18.2113 17.6244 18.6604 16.5184 18.6604 15.2047C18.6604 13.8909 18.2113 12.787 17.3131 11.8928C16.415 10.9986 15.309 10.5515 13.9953 10.5515C12.6816 10.5515 11.5776 10.9986 10.6834 11.8928C9.78922 12.787 9.34213 13.8909 9.34213 15.2047C9.34213 16.5184 9.78922 17.6244 10.6834 18.5226C11.5776 19.4207 12.6816 19.8698 13.9953 19.8698ZM13.9953 18.4041C13.0849 18.4041 12.326 18.0984 11.7188 17.4872C11.1115 16.8759 10.8079 16.1151 10.8079 15.2047C10.8079 14.2943 11.1115 13.5354 11.7188 12.9282C12.326 12.3209 13.0849 12.0173 13.9953 12.0173C14.9057 12.0173 15.6665 12.3209 16.2778 12.9282C16.889 13.5354 17.1947 14.2943 17.1947 15.2047C17.1947 16.1151 16.889 16.8759 16.2778 17.4872C15.6665 18.0984 14.9057 18.4041 13.9953 18.4041ZM4.74275 23.9173C4.24132 23.9173 3.81183 23.7385 3.45429 23.3809C3.09674 23.0234 2.91797 22.5939 2.91797 22.0925V8.34083C2.91797 7.84624 3.09674 7.41847 3.45429 7.0575C3.81183 6.69653 4.24132 6.51605 4.74275 6.51605H8.60171L10.2021 4.68902C10.3647 4.49107 10.5646 4.34075 10.802 4.23804C11.0394 4.13534 11.2951 4.08398 11.5692 4.08398H16.4333C16.7074 4.08398 16.9632 4.13534 17.2005 4.23804C17.4379 4.34075 17.6379 4.49107 17.8004 4.68902L19.4008 6.51605H23.2598C23.7544 6.51605 24.1822 6.69653 24.5431 7.0575C24.9041 7.41847 25.0846 7.84624 25.0846 8.34083V22.0925C25.0846 22.5939 24.9041 23.0234 24.5431 23.3809C24.1822 23.7385 23.7544 23.9173 23.2598 23.9173H4.74275ZM4.74275 22.4515H23.2598C23.3645 22.4515 23.4505 22.4178 23.5178 22.3505C23.5851 22.2832 23.6188 22.1972 23.6188 22.0925V8.34083C23.6188 8.2411 23.5851 8.15633 23.5178 8.08653C23.4505 8.01672 23.3645 7.98182 23.2598 7.98182H18.7308L16.5904 5.54976H11.4122L9.27178 7.98182H4.74275C4.63804 7.98182 4.55203 8.01672 4.48471 8.08653C4.4174 8.15633 4.38374 8.2411 4.38374 8.34083V22.0925C4.38374 22.1972 4.4174 22.2832 4.48471 22.3505C4.55203 22.4178 4.63804 22.4515 4.74275 22.4515Z" fill="#1C1B1F"/>
</g>
</svg>
