<svg width="360" height="73" viewBox="0 0 360 73" fill="none" xmlns="http://www.w3.org/2000/svg">
<g clip-path="url(#clip0_449_1821)">
<path d="M204.415 66.0538C203.9 65.1698 203.103 64.4936 202.321 63.8329C202.123 63.6654 201.912 63.4886 201.655 63.4359C201.354 63.3738 201.031 63.4979 200.817 63.7181C200.603 63.9384 200.482 64.2361 200.439 64.5432C200.395 64.8503 200.423 65.1574 200.47 65.4614C201.816 65.7467 203.178 65.9514 204.549 66.0724" fill="#373433"/>
<path d="M204.415 66.0538C203.9 65.1698 203.103 64.4936 202.321 63.8329C202.123 63.6654 201.912 63.4886 201.655 63.4359C201.354 63.3738 201.031 63.4979 200.817 63.7181C200.603 63.9384 200.482 64.2361 200.439 64.5432C200.395 64.8503 200.423 65.1574 200.47 65.4614C201.816 65.7467 203.178 65.9514 204.549 66.0724" stroke="#373433" stroke-width="0.930545" stroke-miterlimit="10" stroke-linecap="round"/>
<path d="M221.6 67.2294C220.663 66.8231 219.618 66.7487 218.6 66.6773C218.34 66.6587 218.067 66.6432 217.828 66.7518C217.549 66.8789 217.363 67.1705 217.319 67.4745C217.276 67.7785 217.357 68.0917 217.502 68.3616C217.648 68.6315 217.853 68.8641 218.07 69.0843C219.323 68.5167 220.542 67.8746 221.721 67.1612" fill="#373433"/>
<path d="M221.6 67.2294C220.663 66.8231 219.618 66.7487 218.6 66.6773C218.34 66.6587 218.067 66.6432 217.828 66.7518C217.549 66.8789 217.363 67.1705 217.319 67.4745C217.276 67.7785 217.357 68.0917 217.502 68.3616C217.648 68.6315 217.853 68.8641 218.07 69.0843C219.323 68.5167 220.542 67.8746 221.721 67.1612" stroke="#373433" stroke-width="0.930545" stroke-miterlimit="10" stroke-linecap="round"/>
<path d="M194.518 24.6063L195.628 23.3066" stroke="#373433" stroke-width="0.930545" stroke-miterlimit="10" stroke-linecap="round"/>
<path d="M194.27 24.5351L193.448 23.3037" stroke="#373433" stroke-width="0.930545" stroke-miterlimit="10" stroke-linecap="round"/>
<path d="M194.323 24.942C193.715 24.8707 193.113 24.7311 192.536 24.5264" stroke="#373433" stroke-width="0.930545" stroke-miterlimit="10" stroke-linecap="round"/>
<path d="M200.995 35.2495C198.349 32.2935 196.174 28.9125 194.58 25.2803" stroke="#373433" stroke-width="0.930545" stroke-miterlimit="10" stroke-linecap="round"/>
<path d="M219.935 54.4219C219.144 58.7272 219.811 63.2869 221.802 67.1828" stroke="#373433" stroke-width="0.930545" stroke-miterlimit="10" stroke-linecap="round"/>
<path d="M211.1 55.0273C207.784 57.8841 205.442 61.8513 204.546 66.135" stroke="#373433" stroke-width="0.930545" stroke-miterlimit="10" stroke-linecap="round"/>
<path d="M196.711 55.6491C194.751 55.2738 192.877 53.6236 192.976 51.6292C193.11 48.9275 196.497 47.3549 196.869 44.6749C197.111 42.9193 195.97 41.0799 196.593 39.4204C197.276 37.6028 199.642 37.0662 200.787 35.4966C202.282 33.4463 201.199 30.4841 202.04 28.0926C202.732 26.126 204.627 24.8109 205.52 22.9281C206.351 21.1755 206.23 19.1439 206.485 17.2207C206.739 15.2976 207.629 13.1853 209.478 12.5959C211.932 11.8143 214.394 14.1437 216.96 13.9266C218.117 13.8304 219.156 13.2225 220.229 12.7851C221.302 12.3447 222.574 12.081 223.588 12.6424C224.646 13.2287 225.192 14.5904 226.352 14.9316C227.984 15.4093 229.534 13.5451 231.216 13.7994C232.717 14.029 233.536 15.8156 235 16.2219C236.78 16.7151 238.607 14.9626 240.391 15.4403C241.731 15.8001 242.46 17.3417 242.376 18.7282C242.292 20.1147 241.601 21.3741 240.949 22.5993C240.298 23.8245 239.656 25.1273 239.687 26.5138C239.724 28.1267 240.667 29.7614 240.105 31.272C239.665 32.4568 238.43 33.1548 237.788 34.2435C236.827 35.8688 237.376 37.9347 238.024 39.7089C238.672 41.4831 239.395 43.4373 238.716 45.196C238.105 46.781 236.47 47.8295 235.968 49.4517C235.44 51.1484 236.278 53.087 235.605 54.731C234.777 56.7565 232.115 57.29 229.953 56.9705C227.788 56.651 225.645 55.7732 223.483 56.1175C221.935 56.3626 220.474 57.2311 218.911 57.1225C217.4 57.017 216.1 56.0214 214.63 55.6429C212.611 55.1249 210.511 55.8135 208.467 56.2199C206.485 56.6138 204.602 56.5611 202.893 55.4227C202 54.8272 201.292 55.2924 200.272 55.5065C199.106 55.7546 197.896 55.8787 196.714 55.6522L196.711 55.6491Z" fill="#F4D984" stroke="#D8BF79" stroke-width="0.930545" stroke-miterlimit="10"/>
<path d="M210.045 17.1598C209.732 17.6406 209.565 18.2641 209.779 18.7976C209.946 19.2163 210.318 19.5172 210.691 19.7747C211.311 20.2027 212.043 20.5811 212.787 20.4602C213.473 20.3516 214.053 19.8026 214.252 19.1357C214.45 18.4688 214.289 17.7213 213.873 17.166C213.476 16.6325 212.939 16.3782 212.331 16.161C211.779 15.9594 211.227 16.1114 210.743 16.4433C210.467 16.6325 210.228 16.8776 210.045 17.1567V17.1598Z" fill="#D8BF79"/>
<path d="M214.134 25.4672C214.329 25.7526 214.686 25.9077 215.03 25.8798C215.375 25.8488 215.691 25.6409 215.874 25.3463C216.237 24.76 216.004 23.9846 215.412 23.6496C214.847 23.3332 214.227 23.9536 214.05 24.4592C213.935 24.7879 213.935 25.1695 214.137 25.4641L214.134 25.4672Z" fill="#D8BF79"/>
<path d="M229.333 18.9526C229.529 19.238 229.885 19.3931 230.23 19.3651C230.574 19.3341 230.89 19.1263 231.073 18.8316C231.436 18.2454 231.203 17.4699 230.611 17.1349C230.047 16.8185 229.426 17.4389 229.249 17.9445C229.135 18.2733 229.135 18.6548 229.336 18.9495L229.333 18.9526Z" fill="#D8BF79"/>
<path d="M214.28 38.4782C214.066 38.9373 214.135 39.4801 214.293 39.9609C214.405 40.299 214.575 40.6433 214.879 40.8263C215.161 40.9938 215.509 41 215.838 40.9969C216.095 40.9969 216.38 40.9876 216.576 40.8201C216.734 40.6836 216.805 40.4696 216.836 40.2649C217.013 39.0862 215.112 36.6854 214.28 38.4782Z" fill="#D8BF79"/>
<path d="M229.261 24.1853C228.355 24.4273 227.66 25.1655 227.164 25.9596C226.813 26.521 226.525 27.1724 226.627 27.8238C226.72 28.4255 227.127 28.9249 227.518 29.3902C227.825 29.7593 228.175 30.1501 228.647 30.2339C229.028 30.299 229.416 30.147 229.748 29.9454C231.637 28.7977 232.8 23.2424 229.261 24.1853Z" fill="#D8BF79"/>
<path d="M229.833 41.369C229.445 41.7908 229.222 42.343 229.085 42.8982C228.89 43.686 228.852 44.5452 229.197 45.2804C229.541 46.0155 230.341 46.5707 231.142 46.4467C231.734 46.3567 232.23 45.9162 232.513 45.3858C232.795 44.8585 232.885 44.2475 232.91 43.6488C232.934 43.0595 232.897 42.4546 232.655 41.9149C232.119 40.7176 230.745 40.3702 229.833 41.3659V41.369Z" fill="#D8BF79"/>
<path d="M208.988 28.6209C208.119 28.8381 207.356 29.3654 206.695 29.9702C205.762 30.8263 204.974 31.9182 204.791 33.1713C204.608 34.4244 205.169 35.8389 206.32 36.3662C207.17 36.757 208.197 36.6112 209.019 36.1646C209.841 35.7179 210.483 35.0014 211.032 34.2445C211.571 33.5001 212.043 32.675 212.192 31.7693C212.524 29.7469 211.029 28.1122 208.981 28.624L208.988 28.6209Z" fill="#D8BF79"/>
<path d="M230.25 51.674C230.219 51.8602 230.226 52.0618 230.312 52.2262C230.449 52.4774 230.744 52.5922 231.013 52.6852C231.342 52.7969 231.696 52.9086 232.028 52.8093C232.775 52.586 233.216 50.9854 232.611 50.4271C231.752 49.6331 230.387 50.7931 230.247 51.6771L230.25 51.674Z" fill="#D8BF79"/>
<path d="M233.352 33.6828C233.321 33.8689 233.327 34.0706 233.414 34.235C233.551 34.4862 233.845 34.601 234.115 34.694C234.444 34.8057 234.797 34.9174 235.129 34.8181C235.877 34.5948 236.317 32.9942 235.712 32.4359C234.853 31.6418 233.488 32.8019 233.349 33.6859L233.352 33.6828Z" fill="#D8BF79"/>
<path d="M213.836 46.9308C213.64 47.0952 213.563 47.3712 213.587 47.6256C213.612 47.8799 213.727 48.1157 213.86 48.3359C213.981 48.5313 214.121 48.7236 214.31 48.8539C214.499 48.9842 214.748 49.0493 214.968 48.9749C215.374 48.8384 215.508 48.2894 215.346 47.8923C215.163 47.4457 214.36 46.4934 213.836 46.9339V46.9308Z" fill="#D8BF79"/>
<path d="M209.119 46.9673C209.665 47.4078 210.015 48.0468 210.279 48.6982C210.434 49.0797 210.567 49.4953 210.493 49.9017C210.409 50.3669 210.059 50.7485 209.658 50.9966C208.914 51.4557 207.934 51.5177 207.149 51.13C206.364 50.7422 205.815 49.9079 205.794 49.0331C205.756 47.2713 207.568 45.7173 209.119 46.9642V46.9673Z" fill="#D8BF79"/>
<path d="M204.382 42.7716C204.553 43.2555 204.906 43.6836 205.375 43.8976C205.679 44.0372 206.085 44.062 206.308 43.8138C206.457 43.6463 206.485 43.4044 206.476 43.1811C206.439 42.2877 205.917 41.4689 205.17 40.9974C204.094 40.3181 204.146 42.1016 204.385 42.7747L204.382 42.7716Z" fill="#D8BF79"/>
<path d="M221.705 42.5973C221.33 42.9478 221.082 43.4441 221.072 43.959C221.066 44.294 221.209 44.6755 221.525 44.781C221.739 44.8523 221.972 44.7779 222.174 44.6786C222.974 44.2847 223.517 43.4782 223.647 42.6035C223.836 41.3442 222.223 42.1103 221.705 42.5973Z" fill="#D8BF79"/>
<path d="M221.157 50.1777C220.211 50.2212 219.265 50.612 218.635 51.3223C218.226 51.7845 217.962 52.4886 218.282 53.0159C218.496 53.3695 218.911 53.5463 219.311 53.6518C220.906 54.0643 222.634 53.5866 223.868 52.5227C225.648 50.9873 222.469 50.1188 221.154 50.1808L221.157 50.1777Z" fill="#D8BF79"/>
<path d="M220.585 22.3609C220.846 23.093 221.379 23.7412 222.087 24.0669C222.549 24.2778 223.163 24.3151 223.501 23.9366C223.727 23.6823 223.768 23.3163 223.752 22.9751C223.693 21.6258 222.905 20.382 221.773 19.6685C220.142 18.6387 220.222 21.3404 220.585 22.3609Z" fill="#D8BF79"/>
<path d="M199.08 50.0047C199.285 50.259 199.325 50.6064 199.322 50.9321C199.319 51.2547 199.27 51.599 199.049 51.8348C198.795 52.1046 198.392 52.1574 198.023 52.1853C197.728 52.207 197.415 52.2225 197.16 52.0798C196.853 51.9092 196.698 51.5277 196.742 51.1803C196.785 50.8329 197.005 50.5227 197.291 50.3149C197.719 50.0016 198.658 49.4805 199.08 50.0078V50.0047Z" fill="#D8BF79"/>
<path d="M222.965 32.6346C223.17 32.8889 223.21 33.2363 223.207 33.562C223.204 33.8846 223.154 34.2289 222.934 34.4646C222.68 34.7345 222.276 34.7872 221.907 34.8152C221.613 34.8369 221.299 34.8524 221.045 34.7097C220.738 34.5391 220.583 34.1576 220.626 33.8102C220.67 33.4628 220.89 33.1526 221.175 32.9448C221.603 32.6315 222.543 32.1104 222.965 32.6377V32.6346Z" fill="#D8BF79"/>
<path d="M211.465 30.9304C211.465 32.044 212.563 33.1017 211.62 33.1017C210.677 33.1017 209.914 32.1991 209.914 31.0855C209.914 29.972 210.677 29.0693 211.62 29.0693C212.563 29.0693 211.465 29.8169 211.465 30.9304Z" fill="#373433"/>
<path d="M214.567 30.9304C214.567 32.044 215.665 33.1017 214.722 33.1017C213.779 33.1017 213.016 32.1991 213.016 31.0855C213.016 29.972 213.779 29.0693 214.722 29.0693C215.665 29.0693 214.567 29.8169 214.567 30.9304Z" fill="#373433"/>
<path d="M207.897 34.1875C207.897 34.1875 211.62 39.7708 217.203 34.4977" stroke="#373433" stroke-width="0.620363" stroke-miterlimit="10" stroke-linecap="round"/>
<path d="M243.679 28.329C243.31 27.8947 242.937 27.4604 242.568 27.0293" stroke="#373433" stroke-width="0.930545" stroke-miterlimit="10" stroke-linecap="round"/>
<path d="M243.927 28.2578C244.2 27.8483 244.473 27.4358 244.749 27.0264" stroke="#373433" stroke-width="0.930545" stroke-miterlimit="10" stroke-linecap="round"/>
<path d="M243.874 28.6647C244.482 28.5933 245.084 28.4537 245.661 28.249" stroke="#373433" stroke-width="0.930545" stroke-miterlimit="10" stroke-linecap="round"/>
<path d="M237.202 38.9722C239.848 36.0161 242.022 32.6352 243.617 29.0029" stroke="#373433" stroke-width="0.930545" stroke-miterlimit="10" stroke-linecap="round"/>
<path d="M318.656 69.714C318.008 68.923 317.114 68.3771 316.24 67.8498C316.016 67.7133 315.781 67.5768 315.52 67.5644C315.213 67.5489 314.915 67.7226 314.735 67.9739C314.555 68.2251 314.487 68.5384 314.49 68.8455C314.493 69.1526 314.571 69.4534 314.664 69.7481C316.038 69.8195 317.415 69.8071 318.789 69.7109" fill="#373433"/>
<path d="M318.656 69.714C318.008 68.923 317.114 68.3771 316.24 67.8498C316.016 67.7133 315.781 67.5768 315.52 67.5644C315.213 67.5489 314.915 67.7226 314.735 67.9739C314.555 68.2251 314.487 68.5384 314.49 68.8455C314.493 69.1526 314.571 69.4534 314.664 69.7481C316.038 69.8195 317.415 69.8071 318.789 69.7109" stroke="#373433" stroke-width="0.930545" stroke-miterlimit="10" stroke-linecap="round"/>
<path d="M331.361 69.1646C331.51 68.1534 331.997 67.2259 332.475 66.3233C332.596 66.0938 332.729 65.8518 332.946 65.706C333.204 65.5354 333.548 65.5323 333.83 65.6533C334.112 65.7743 334.336 66.01 334.488 66.2768C334.64 66.5435 334.73 66.8413 334.801 67.1391C333.659 67.9052 332.468 68.6031 331.243 69.2266" fill="#373433"/>
<path d="M331.361 69.1646C331.51 68.1534 331.997 67.2259 332.475 66.3233C332.596 66.0938 332.729 65.8518 332.946 65.706C333.204 65.5354 333.548 65.5323 333.83 65.6533C334.112 65.7743 334.336 66.01 334.488 66.2768C334.64 66.5435 334.73 66.8413 334.801 67.1391C333.659 67.9052 332.468 68.6031 331.243 69.2266" stroke="#373433" stroke-width="0.930545" stroke-miterlimit="10" stroke-linecap="round"/>
<path d="M324.431 58.2002C327.796 60.998 330.206 64.9249 331.177 69.193" stroke="#373433" stroke-width="0.930545" stroke-miterlimit="10" stroke-linecap="round"/>
<path d="M318.513 56.7949C317.236 60.9824 317.378 65.5886 318.911 69.6861" stroke="#373433" stroke-width="0.930545" stroke-miterlimit="10" stroke-linecap="round"/>
<path d="M286.093 11.173C286.49 10.8194 286.279 10.2393 285.991 9.81437C285.606 9.25294 285.032 8.71323 285.42 7.97499C285.522 7.77648 285.684 7.60588 285.876 7.4663C286.639 6.90797 287.666 6.85834 288.485 6.42408C288.987 6.15423 289.403 5.65794 289.378 5.16785C289.375 5.10271 289.474 5.0779 289.505 5.13683C289.738 5.56488 289.642 6.12321 289.49 6.60399C289.303 7.18403 289.071 7.8199 289.359 8.36892C289.614 8.85591 290.212 9.12577 290.609 9.53521C291.059 9.99738 291.236 10.6519 291.068 11.2412C290.975 11.57 290.78 11.8833 290.839 12.2369C290.864 12.3734 290.935 12.5067 291.059 12.5936C291.441 12.8666 291.909 12.5626 292.033 12.209C292.138 11.9081 292.076 11.5824 292.067 11.266C292.061 10.9993 292.114 10.7077 292.303 10.5123C292.334 10.4813 292.393 10.5061 292.384 10.5464C292.325 10.8256 292.442 11.1233 292.613 11.3715C292.812 11.66 293.078 11.9112 293.252 12.2121C293.612 12.8324 293.509 13.6358 293.001 14.1724C292.688 14.5012 292.219 14.7711 292.157 15.196C292.098 15.5993 292.433 15.956 292.567 16.3437C292.793 16.9951 292.408 17.7271 291.794 18.149C291.18 18.5708 290.386 18.7321 289.607 18.7879C288.06 18.8996 286.431 18.6142 285.2 17.7829C283.968 16.9517 283.224 15.5217 283.559 14.1941C283.869 12.9658 284.989 12.0105 286.087 11.1854" fill="#D54400"/>
<path d="M287.04 13.2135C287.285 12.9808 287.154 12.5962 286.975 12.314C286.739 11.9417 286.382 11.5881 286.621 11.098C286.686 10.9678 286.785 10.853 286.903 10.763C287.375 10.3939 288.011 10.3629 288.516 10.0744C288.826 9.89764 289.084 9.56885 289.068 9.24316C289.068 9.19973 289.127 9.18422 289.149 9.22455C289.292 9.50681 289.233 9.87593 289.14 10.1954C289.025 10.58 288.882 10.9988 289.059 11.3617C289.217 11.6843 289.586 11.8611 289.831 12.131C290.11 12.4349 290.219 12.8692 290.114 13.26C290.055 13.4771 289.934 13.685 289.974 13.9176C289.989 14.0075 290.033 14.0944 290.11 14.1533C290.346 14.3332 290.635 14.1316 290.712 13.899C290.777 13.7005 290.737 13.4833 290.734 13.2755C290.731 13.0987 290.762 12.9064 290.88 12.7761C290.898 12.7544 290.936 12.7699 290.929 12.7978C290.892 12.9808 290.967 13.1794 291.072 13.3438C291.193 13.533 291.36 13.7005 291.466 13.899C291.689 14.3084 291.624 14.8419 291.311 15.1955C291.119 15.4127 290.827 15.5895 290.79 15.8717C290.753 16.1385 290.96 16.3742 291.044 16.6286C291.184 17.0597 290.948 17.5436 290.566 17.8197C290.188 18.0988 289.695 18.2043 289.217 18.2415C288.262 18.316 287.254 18.1268 286.494 17.5777C285.734 17.0287 285.275 16.0827 285.479 15.2049C285.672 14.3922 286.363 13.7594 287.043 13.2166" fill="#F5BF00"/>
<path d="M286.745 12.5375C286.745 12.9624 287.164 13.3656 286.804 13.3656C286.444 13.3656 286.152 13.0213 286.152 12.5964C286.152 12.1714 286.444 11.8271 286.804 11.8271C287.164 11.8271 286.745 12.1125 286.745 12.5375Z" fill="#373433"/>
<path d="M287.929 12.5375C287.929 12.9624 288.348 13.3656 287.988 13.3656C287.628 13.3656 287.337 13.0213 287.337 12.5964C287.337 12.1714 287.628 11.8271 287.988 11.8271C288.348 11.8271 287.929 12.1125 287.929 12.5375Z" fill="#373433"/>
<path d="M285.383 13.7812C285.383 13.7812 286.803 15.9122 288.934 13.8991" stroke="#373433" stroke-width="0.310182" stroke-miterlimit="10" stroke-linecap="round"/>
<path d="M152.228 69.3263C151.713 68.4423 150.916 67.7661 150.134 67.1054C149.935 66.9379 149.724 66.7611 149.467 66.7083C149.166 66.6463 148.844 66.7704 148.63 66.9906C148.416 67.2108 148.295 67.5086 148.251 67.8157C148.208 68.1228 148.236 68.4298 148.282 68.7338C149.628 69.0192 150.99 69.2239 152.361 69.3449" fill="#373433"/>
<path d="M152.228 69.3263C151.713 68.4423 150.916 67.7661 150.134 67.1054C149.935 66.9379 149.724 66.7611 149.467 66.7083C149.166 66.6463 148.844 66.7704 148.63 66.9906C148.416 67.2108 148.295 67.5086 148.251 67.8157C148.208 68.1228 148.236 68.4298 148.282 68.7338C149.628 69.0192 150.99 69.2239 152.361 69.3449" stroke="#373433" stroke-width="0.930545" stroke-miterlimit="10" stroke-linecap="round"/>
<path d="M169.408 70.5019C168.472 70.0956 167.426 70.0211 166.409 69.9498C166.148 69.9312 165.875 69.9157 165.637 70.0242C165.357 70.1514 165.171 70.443 165.128 70.7469C165.085 71.0509 165.165 71.3642 165.311 71.6341C165.457 71.9039 165.661 72.1366 165.879 72.3568C167.132 71.7892 168.351 71.1471 169.529 70.4337" fill="#373433"/>
<path d="M169.408 70.5019C168.472 70.0956 167.426 70.0211 166.409 69.9498C166.148 69.9312 165.875 69.9157 165.637 70.0242C165.357 70.1514 165.171 70.443 165.128 70.7469C165.085 71.0509 165.165 71.3642 165.311 71.6341C165.457 71.9039 165.661 72.1366 165.879 72.3568C167.132 71.7892 168.351 71.1471 169.529 70.4337" stroke="#373433" stroke-width="0.930545" stroke-miterlimit="10" stroke-linecap="round"/>
<path d="M167.743 57.6943C166.952 61.9997 167.618 66.5593 169.61 70.4552" stroke="#373433" stroke-width="0.930545" stroke-miterlimit="10" stroke-linecap="round"/>
<path d="M158.913 58.3018C155.597 61.1585 153.255 65.1258 152.358 69.4094" stroke="#373433" stroke-width="0.930545" stroke-miterlimit="10" stroke-linecap="round"/>
<path d="M152.84 20.6819C155.908 20.9952 159.01 21.0634 162.075 20.7067C163.818 20.5051 165.57 20.1577 167.14 19.3698C168.709 18.582 170.087 17.3071 170.713 15.6663C171.34 14.0254 171.104 12.0123 169.891 10.7437C168.871 9.67667 167.357 9.26103 165.905 8.99117C161.004 8.07923 155.893 8.30877 151.094 9.65806C148.365 10.4273 145.616 11.6401 143.882 13.8858C141.668 16.755 141.55 20.7874 142.527 24.2769C142.961 25.834 143.637 27.3974 144.875 28.4365C145.945 29.3329 147.329 29.7547 148.693 30.0494C154.041 31.2126 159.727 30.7659 164.829 28.787" fill="#D8BF79"/>
<path d="M152.84 20.6819C155.908 20.9952 159.01 21.0634 162.075 20.7067C163.818 20.5051 165.57 20.1577 167.14 19.3698C168.709 18.582 170.087 17.3071 170.713 15.6663C171.34 14.0254 171.104 12.0123 169.891 10.7437C168.871 9.67667 167.357 9.26103 165.905 8.99117C161.004 8.07923 155.893 8.30877 151.094 9.65806C148.365 10.4273 145.616 11.6401 143.882 13.8858C141.668 16.755 141.55 20.7874 142.527 24.2769C142.961 25.834 143.637 27.3974 144.875 28.4365C145.945 29.3329 147.329 29.7547 148.693 30.0494C154.041 31.2126 159.727 30.7659 164.829 28.787" stroke="#D8BF79" stroke-width="0.310182" stroke-miterlimit="10"/>
<path d="M147.065 29.6152C145.701 30.5737 144.624 31.9881 143.988 33.539C142.983 35.9833 142.937 38.7253 143.297 41.3432C143.647 43.9053 144.497 46.6101 146.588 48.1331C148.319 49.3955 150.586 49.6126 152.729 49.6468C157.404 49.7212 162.137 49.1133 166.464 47.3452" fill="#D8BF79"/>
<path d="M147.065 29.6152C145.701 30.5737 144.624 31.9881 143.988 33.539C142.983 35.9833 142.937 38.7253 143.297 41.3432C143.647 43.9053 144.497 46.6101 146.588 48.1331C148.319 49.3955 150.586 49.6126 152.729 49.6468C157.404 49.7212 162.137 49.1133 166.464 47.3452" stroke="#D8BF79" stroke-width="0.310182" stroke-miterlimit="10"/>
<path d="M168.334 18.6289C169.907 19.7332 171.135 21.3771 171.849 23.1762C172.95 25.9492 172.965 29.0479 172.5 31.9946C172.212 33.8278 171.703 35.7137 170.441 37.0723C169.432 38.161 168.043 38.8062 166.647 39.3025C162.103 40.9186 157.093 41.1915 152.4 40.0842" fill="#D8BF79"/>
<path d="M168.334 18.6289C169.907 19.7332 171.135 21.3771 171.849 23.1762C172.95 25.9492 172.965 29.0479 172.5 31.9946C172.212 33.8278 171.703 35.7137 170.441 37.0723C169.432 38.161 168.043 38.8062 166.647 39.3025C162.103 40.9186 157.093 41.1915 152.4 40.0842" stroke="#D8BF79" stroke-width="0.310182" stroke-miterlimit="10"/>
<path d="M146.081 47.7048C145.384 48.7563 145.036 50.0745 144.766 51.3339C144.338 53.3221 144.025 55.5461 145.114 57.2646C146.153 58.9054 148.169 59.6002 150.058 60.0593C155.74 61.4489 161.857 61.7405 167.351 59.7243C169.466 58.9488 171.538 57.7702 172.769 55.8811C173.942 54.0852 174.224 51.855 174.317 49.7116C174.435 47.0193 174.292 44.2524 173.253 41.7679C172.555 40.1022 171.398 38.5761 169.919 37.5742" fill="#D8BF79"/>
<path d="M146.081 47.7048C145.384 48.7563 145.036 50.0745 144.766 51.3339C144.338 53.3221 144.025 55.5461 145.114 57.2646C146.153 58.9054 148.169 59.6002 150.058 60.0593C155.74 61.4489 161.857 61.7405 167.351 59.7243C169.466 58.9488 171.538 57.7702 172.769 55.8811C173.942 54.0852 174.224 51.855 174.317 49.7116C174.435 47.0193 174.292 44.2524 173.253 41.7679C172.555 40.1022 171.398 38.5761 169.919 37.5742" stroke="#D8BF79" stroke-width="0.310182" stroke-miterlimit="10"/>
<path d="M153.571 21.3623C155.016 21.2692 156.449 21.0397 157.851 20.6768C156.145 20.8846 154.517 21.6725 153.298 22.8822C153.859 22.1316 154.176 21.2041 154.191 20.2674C154.191 20.1371 154.188 19.9975 154.123 19.8827C153.927 19.5353 153.36 19.6718 153.118 19.9913C152.876 20.3108 152.811 20.7326 152.578 21.0614C153.118 21.2382 153.704 21.2817 154.266 21.1855C153.946 21.1731 153.834 21.6725 154.051 21.9082C154.269 22.144 154.628 22.1688 154.948 22.1781C156.288 22.2184 157.662 22.2339 158.921 21.7748C158.521 22.2804 158.254 22.8946 158.155 23.5305C158.955 23.0621 159.601 22.3363 159.97 21.4864C160.001 21.4181 160.029 21.3406 160.007 21.2692C159.96 21.0955 159.709 21.1017 159.542 21.17C158.791 21.4771 158.27 22.2773 158.298 23.0869C158.558 22.8636 158.834 22.4697 158.596 22.2246C158.521 22.1471 158.413 22.1129 158.307 22.0881C157.668 21.9299 156.983 21.9734 156.369 22.206C156.018 22.3394 155.646 22.6092 155.658 22.9846C155.671 23.3537 156.046 23.5925 156.39 23.7259C158.245 24.4455 160.522 23.8965 161.846 22.4107C161.716 22.2401 161.452 22.4231 161.338 22.603C160.934 23.242 160.665 23.9647 160.556 24.7092C160.519 24.9666 160.509 25.2613 160.692 25.4474C160.95 25.7079 161.406 25.5715 161.688 25.3357C162.243 24.8736 162.507 24.0888 162.346 23.3847C162.296 23.1614 162.191 22.9318 161.992 22.8171C161.747 22.6806 161.428 22.7674 161.22 22.9504C161.012 23.1334 160.891 23.4002 160.792 23.6607C160.755 23.7538 160.727 23.8717 160.792 23.9461C160.894 24.0578 161.077 23.943 161.17 23.822C161.583 23.3009 161.812 22.6371 161.809 21.9734C161.809 21.7066 161.728 21.3902 161.477 21.3065C161.297 21.2475 161.108 21.3344 160.947 21.4367C160.178 21.9268 159.66 22.7953 159.598 23.7042C159.591 23.8065 159.588 23.912 159.629 24.005C159.697 24.1756 159.877 24.2749 160.054 24.3183C160.528 24.4393 161.043 24.2532 161.421 23.9368C161.8 23.6204 162.063 23.1986 162.309 22.7705C162.47 22.4883 162.585 22.0478 162.29 21.9051C162.113 21.8183 161.902 21.9206 161.738 22.0354C160.888 22.6247 160.295 23.5739 160.137 24.5944C160.1 24.8394 160.094 25.1124 160.246 25.3047C160.531 25.6614 161.117 25.4815 161.452 25.1744C161.828 24.8332 162.085 24.3649 162.178 23.8655C162.206 23.7073 162.163 23.4808 162.005 23.487C161.905 23.4901 161.84 23.5925 161.8 23.6825C161.508 24.3525 161.608 25.1744 162.048 25.7545C162.181 25.9313 162.383 26.0988 162.6 26.0554C162.92 25.9902 162.979 25.5653 162.966 25.2396C162.64 25.4629 162.389 25.7917 162.259 26.1639C163.276 25.801 163.931 24.6254 163.704 23.5708C163.605 23.1086 163.36 22.6775 163.351 22.206C163.341 21.7717 163.509 21.2506 163.189 20.9529C163.078 21.6725 163.22 22.4293 163.586 23.0621C163.407 22.4479 163.279 21.8183 163.205 21.1824C163.624 21.7097 164.111 22.1874 164.65 22.5906C164.585 22.0106 164.52 21.4305 164.455 20.8505C164.846 21.4647 165.15 22.1347 165.355 22.8326C165.153 21.9796 164.998 21.1173 164.892 20.2456C165.28 20.4876 165.621 20.804 165.888 21.1762C165.981 21.1545 166.059 21.0738 166.08 20.9808" fill="#D8BF79"/>
<path d="M153.57 23.5335C155.211 23.4094 156.83 23.1644 158.428 22.7704C161.204 22.088 159.966 18.1705 157.274 18.583C155.165 18.9056 153.316 19.8982 151.762 21.3467L155.171 23.9771C156.204 22.4292 157.125 19.6097 155.45 18.1705C154.693 17.5191 153.71 17.3547 152.77 17.6959C151.616 18.1115 151.244 18.9521 150.704 19.9633C150.065 21.1575 150.593 22.817 152.001 23.152C152.767 23.335 153.477 23.4218 154.265 23.3536L153.17 19.3088C151.17 20.3603 151.467 23.2047 153.474 24.0639C155.177 24.7897 157.798 24.4051 159.498 23.8685L157.044 20.6798C156.564 21.3777 156.241 22.1284 156.058 22.9566C155.67 24.6905 157.578 26.5081 159.247 25.4101C160.463 24.6098 161.827 23.3629 162.097 21.8523C162.286 20.7946 161.939 20.0253 161.098 19.3988C158.636 17.5656 156.284 20.9776 156.123 23.093C155.977 24.9634 158.602 25.9653 159.83 24.6284C161.477 22.8356 160.884 20.3758 158.397 19.9199C156.393 19.5508 153.449 20.5371 153.487 22.9907C153.521 25.3046 156.117 26.2042 158.052 26.2166C159.988 26.229 161.976 25.3853 163.381 23.9491C164.405 22.9038 164.117 20.5527 162.423 20.32C159.873 19.9695 158.487 22.3734 158.384 24.7153C158.26 27.5628 161.455 28.6639 163.372 26.7191C164.889 25.1806 165.159 21.8213 162.829 20.838C160.636 19.9137 158.006 22.2059 158.701 24.5292C159.005 25.5466 159.811 25.9963 160.795 26.1235C163.133 26.4244 164.315 22.9938 163.868 21.204C163.202 18.5272 160.267 18.8404 158.735 20.5123C157.373 21.9981 156.713 24.827 158.704 26.0925C160.695 27.358 163.211 25.742 164.182 23.8778C165.221 21.8771 163.971 19.163 161.43 19.8113C159.507 20.3045 158.071 22.7363 157.966 24.6036C157.832 26.9486 160.208 28.394 162.259 27.2588C163.896 26.353 165.329 23.4063 163.54 21.964C162.746 21.3219 161.837 21.1389 160.909 21.6259C158.921 22.665 159.178 25.8599 160.515 27.3022C162.414 29.3556 165.016 27.6899 165.137 25.2488C165.239 23.2264 162.761 22.5781 161.43 23.7134C160.984 24.0949 160.633 24.5478 160.385 25.0782C159.436 27.0851 161.347 28.9989 163.357 28.0497C164.771 27.3797 165.77 25.9498 165.891 24.3803C165.947 23.6514 165.723 23.0248 165.593 22.3238C165.422 21.4181 165.512 20.7574 165.066 19.8671C164.02 17.7827 161.182 18.9986 161.021 20.9621C160.925 22.1315 161.204 23.1272 161.716 24.1663C162.817 26.412 166.31 24.8239 165.683 22.4944C165.515 21.8709 165.391 21.2537 165.301 20.6147L161.672 22.727C162.116 23.2512 162.581 23.7072 163.118 24.1352C164.39 25.1557 167.057 24.6843 166.824 22.5998C166.759 22.0198 166.694 21.4398 166.629 20.8597L162.584 21.9547C162.873 22.4479 163.084 22.8759 163.264 23.4156C164.144 26.0615 168.068 25.0007 167.451 22.2617C167.302 21.598 167.156 20.928 167.066 20.2549L163.8 22.1284C164.014 22.2959 164.2 22.4944 164.355 22.7208C165.097 23.6203 166.666 23.4963 167.426 22.7208L167.619 22.5254C169.573 20.5247 166.505 17.4508 164.548 19.4546L164.355 19.65H167.426C167.004 19.1382 166.527 18.766 165.99 18.3814C164.74 17.485 162.513 18.6667 162.724 20.2549C162.863 21.3188 163.028 22.3703 163.264 23.4187L167.451 22.2649C167.159 21.3901 166.8 20.562 166.334 19.7648C165.32 18.034 162.038 18.6264 162.29 20.8597C162.355 21.4398 162.42 22.0198 162.485 22.5998L166.192 21.0645C165.655 20.6333 165.19 20.1804 164.746 19.6562C164.132 18.9304 162.898 18.8591 162.116 19.3181C161.213 19.8454 160.984 20.8008 161.117 21.7717C161.204 22.4106 161.331 23.0279 161.499 23.6514L165.466 21.9795C165.295 21.629 165.332 21.3498 165.363 20.9652L161.319 22.0601C161.117 21.66 161.21 21.843 161.182 22.2152C161.154 22.6216 161.319 23.093 161.406 23.4777C161.533 24.0298 161.765 24.0143 161.167 24.2965L164.138 27.2681C164.175 27.0292 164.296 26.8679 164.507 26.7842L160.801 25.2488L160.754 25.3201L161.753 24.0236L161.514 24.1911L163.186 23.9709C164.058 24.3834 164.033 24.8487 163.108 25.3729L160.478 25.0348L160.636 25.162L160 23.6265C160.156 23.1427 160.605 23.0806 161.35 23.4404L162.349 24.737C162.398 24.8642 162.423 24.309 162.535 24.3058C162.59 24.188 162.671 24.0887 162.777 24.0081C163.112 23.7196 162.95 23.7444 162.296 24.0856L160.422 23.0093C159.883 21.9578 160.134 21.7779 161.173 22.4758L161.809 24.0112C161.728 23.214 162.504 23.4622 161.486 23.4808L159.951 22.8449C159.821 22.2897 159.656 22.1563 159.458 22.4386L160.993 21.8027L160.801 21.7779L162.894 23.3722L162.001 24.9913L160.466 24.3555C160.152 24.0453 160.143 23.7568 160.435 23.4963L162.107 23.7165C162.488 25.0162 162.742 25.2488 162.863 24.4113C162.913 24.2221 163 24.0577 163.13 23.9119L161.018 24.4702L161.278 24.5044L160.32 20.8752C159.836 21.3715 159.312 21.7065 158.617 21.8306C158.341 21.8802 158.068 21.8368 157.792 21.8647L157.379 21.7686C156.775 23.8778 156.818 24.6564 157.507 24.1011L156.508 22.8046L156.595 23.0868L156.815 21.415L156.771 21.5545L160.478 23.0899C160.438 23.1272 160.413 23.1706 160.404 23.2264L158.732 23.0062L158.918 23.1458L157.919 20.6922C157.842 21.1203 157.401 21.4336 157.066 21.6569L160.255 24.1104C160.373 23.58 160.494 23.3195 160.804 22.8728C161.88 21.3126 160.093 19.132 158.35 19.6841C157.714 19.8858 157.134 19.9912 156.467 20.0222C156.129 20.0315 155.794 20.0315 155.456 20.0222C154.886 19.9912 154.786 19.9943 155.152 20.0346L156.151 21.3312L156.117 21.8926L155.118 23.1892L155.363 23.0589C157.206 22.0911 156.43 18.8218 154.268 19.0141C153.893 19.0979 153.524 19.0824 153.158 18.9676L154.454 22.1563C154.572 21.9609 154.672 21.7593 154.752 21.5452C155.05 20.9807 154.771 21.0924 153.918 21.8802L152.382 21.2444C152.1 20.4565 151.926 20.3976 151.855 21.0676C151.737 21.3219 151.591 21.5638 151.424 21.7872C150.013 23.9026 153.086 26.046 154.833 24.4175C155.869 23.4528 157.044 22.9845 158.431 22.7704L157.277 18.583C156.049 18.887 154.836 19.0948 153.573 19.191C150.804 19.4019 150.782 23.7475 153.573 23.5335H153.57Z" fill="#D8BF79"/>
<path d="M166.976 20.9156C166.805 20.7946 166.681 20.6209 166.591 20.4348C166.576 20.4038 166.564 20.3603 166.588 20.3355C166.601 20.3231 166.619 20.32 166.638 20.3138C166.719 20.2921 166.79 20.2425 166.849 20.1804C166.908 20.1184 166.957 20.0502 167.013 19.9881C167.082 19.9075 167.159 19.8361 167.234 19.7617C167.358 19.6345 166.666 20.0347 166.759 19.8827" fill="#D8BF79"/>
<path d="M168.071 19.0384L168.015 18.995L168.456 19.3331C168.384 19.2711 168.325 19.2059 168.266 19.1315L168.605 19.572C168.552 19.4944 168.505 19.4169 168.462 19.3331L168.682 19.8511L168.664 19.7984V20.9523L168.676 20.9057L167.159 22.4225C167.404 22.3202 167.671 22.2426 167.891 22.0937C168.142 21.9231 168.344 21.7401 168.539 21.5199C168.614 21.4361 168.695 21.3617 168.769 21.2811C169.275 20.7289 169.572 19.9039 169.33 19.1594C169.104 18.4584 168.561 17.8101 167.811 17.6395C167.407 17.5465 167.032 17.5341 166.626 17.6426C166.353 17.7171 166.092 17.866 165.832 17.9807L166.35 17.7605C166.297 17.7822 166.244 17.8039 166.188 17.8163L166.765 17.7388H166.75C166.942 17.7667 167.134 17.7915 167.327 17.8163H167.317C167.748 18.1451 168.183 18.4801 168.614 18.812L168.608 18.8058L168.905 19.9008V19.8914C168.806 20.2575 168.71 20.6235 168.611 20.9864L168.617 20.9709C168.874 20.4405 168.999 19.8852 168.837 19.299C168.698 18.7965 168.31 18.2506 167.838 18.0024C167.336 17.7357 166.725 17.6023 166.167 17.7822C165.652 17.9497 165.112 18.2754 164.87 18.781C164.672 19.1904 164.566 19.4386 164.566 19.9039C164.566 20.2978 164.684 20.6638 164.867 21.005C165.32 21.8549 166.43 22.2767 167.345 22.0038C167.655 21.9107 167.947 21.7587 168.245 21.6316L167.727 21.8518C167.752 21.8425 167.776 21.8301 167.801 21.827L167.224 21.9045H167.23C166.607 21.5478 165.98 21.188 165.357 20.8313V18.6445V18.6538C165.466 18.508 165.58 18.3622 165.692 18.2134C165.556 18.3716 165.404 18.5453 165.252 18.6879L165.692 18.3498C165.661 18.3778 165.624 18.3995 165.587 18.4181L166.105 18.1979C165.906 18.2661 165.58 18.3902 165.478 18.4584C165.075 18.719 164.777 19.054 164.591 19.4975C164.302 20.1768 164.364 20.8778 164.703 21.5292C164.988 22.0751 165.388 22.4225 165.869 22.7885C166.284 23.108 167.063 23.139 167.541 23.0088C168.043 22.8692 168.589 22.4815 168.837 22.01C169.104 21.5075 169.237 20.8964 169.057 20.3381L168.837 19.8201C168.645 19.4944 168.384 19.2339 168.059 19.0415L168.071 19.0384Z" fill="#D8BF79"/>
<path d="M160.769 30.692C159.882 30.9712 159.181 31.6412 158.517 32.2895C157.655 33.1269 156.793 33.9644 155.93 34.8019C157.118 33.1238 158.151 31.3341 159.011 29.4668C157.404 32.063 156.191 34.9384 154.147 37.2058C155.471 35.2145 156.693 33.158 157.81 31.0425C156.058 32.5934 154.426 34.2839 152.937 36.0892C154.162 34.3894 155.065 32.4601 156.433 30.875C155.27 32.733 154.107 34.591 152.943 36.449C154.097 34.5135 155.124 32.5035 156.014 30.4315C155.688 30.7013 155.44 31.0518 155.198 31.3961C154.128 32.9129 153.055 34.4297 151.985 35.9465C153.071 34.3118 154.156 32.6803 155.133 30.9805C154.193 32.1468 153.297 33.3472 152.444 34.5786C152.881 33.7504 153.306 32.9129 153.716 32.0692C153.852 31.7901 153.992 31.4985 154.004 31.1883C153.675 31.3899 153.399 31.6629 153.136 31.9389C152.385 32.7237 151.69 33.5612 151.057 34.4452C151.696 33.4588 152.245 32.4135 152.698 31.3279C152.134 31.8955 151.625 32.519 151.182 33.1859C151.638 32.3825 152.004 31.5264 152.27 30.6393C151.535 31.4613 150.843 32.3205 150.204 33.2169C150.605 32.4569 150.949 31.6691 151.231 30.8595C150.611 31.4365 150.025 32.0537 149.479 32.702C149.891 31.9141 150.307 31.1263 150.598 30.2857C150.13 30.6827 149.693 31.1201 149.296 31.5884C149.445 31.179 149.606 30.7727 149.773 30.3725C149.445 30.692 149.15 31.0456 148.896 31.4271C149.004 31.1759 149.113 30.9278 149.221 30.6765" fill="#D8BF79"/>
<path d="M160.192 28.5985C157.835 29.5383 156.182 31.5297 154.395 33.2667L157.804 35.8971C158.983 34.2004 160.006 32.4292 160.884 30.5619C162.057 28.065 158.607 25.9433 157.134 28.369C155.661 30.7946 154.494 33.4994 152.612 35.6675L156.021 38.2979C157.339 36.3003 158.558 34.2469 159.684 32.1346C160.81 30.0222 158.117 27.851 156.275 29.5042C154.525 31.0706 152.906 32.7487 151.402 34.5509L154.811 37.1812C155.903 35.621 156.753 33.8747 157.968 32.4044L154.56 29.7741C153.396 31.6321 152.233 33.4901 151.07 35.348L154.82 37.541C155.968 35.5962 156.988 33.5924 157.891 31.5235C158.794 29.4546 156.374 27.0538 154.482 28.8932C152.761 30.565 151.495 32.8914 150.115 34.8487L153.865 37.0416C154.95 35.407 156.024 33.7692 157.013 32.0756C158.217 30.0191 155.18 27.4663 153.604 29.4453C152.553 30.7605 151.541 32.1035 150.574 33.4839L154.324 35.6768C154.969 34.4392 155.806 33.1395 156.104 31.7685C156.47 30.0874 154.569 28.1394 152.916 29.315C151.408 30.3882 150.276 31.8709 149.187 33.3505L152.937 35.5435C153.567 34.5416 154.107 33.5118 154.578 32.4261C155.484 30.3262 153.015 27.8603 151.169 29.7958C150.487 30.5123 149.876 31.2816 149.314 32.0942L153.064 34.2872C153.592 33.3039 154.026 32.2834 154.37 31.2226C155.031 29.2002 152.171 27.4849 150.741 29.1103C149.888 30.0781 149.094 31.0861 148.334 32.1284L152.084 34.3213C152.559 33.3877 152.968 32.4292 153.331 31.446C154.116 29.3088 151.169 27.9347 149.702 29.3336C149.085 29.9199 148.505 30.5309 147.95 31.1761L151.358 33.8064C151.858 32.848 152.314 31.8833 152.695 30.8721C153.527 28.6853 150.54 27.457 149.066 28.7598C148.601 29.1692 148.173 29.6004 147.763 30.0625L151.393 32.1749C151.545 31.7654 151.706 31.3622 151.87 30.959C152.72 28.8932 149.649 27.3733 148.241 28.8466C147.794 29.315 147.404 29.8144 147.022 30.3386L150.772 32.5316C150.881 32.2803 150.989 32.0322 151.098 31.781C151.566 30.6984 151.411 29.4639 150.319 28.8094C149.407 28.2635 147.813 28.5147 147.348 29.588C147.239 29.8392 147.131 30.0874 147.022 30.3386C145.915 32.8945 149.11 34.8207 150.772 32.5316C150.934 32.3083 151.113 32.1035 151.312 31.9174L147.683 29.8051C147.515 30.2083 147.357 30.6147 147.205 31.021C146.445 33.0496 149.438 34.7122 150.834 33.1333C151.244 32.6681 151.675 32.24 152.137 31.8306L148.508 29.7182C148.26 30.3758 147.934 30.9931 147.608 31.6135C146.523 33.6917 149.33 36.201 151.017 34.2438C151.573 33.5986 152.156 32.9907 152.77 32.4013L149.141 30.289C148.908 30.9249 148.638 31.5235 148.331 32.1284C147.047 34.6594 150.45 36.5547 152.081 34.3213C152.624 33.5769 153.201 32.8728 153.809 32.1811L150.18 30.0688C149.947 30.7853 149.665 31.4336 149.311 32.0973C147.974 34.5881 151.483 36.5702 153.061 34.2903C153.418 33.7754 153.806 33.3226 154.237 32.8697L150.828 30.2393C150.36 31.325 149.817 32.3548 149.187 33.3567C147.67 35.773 151.318 37.7488 152.937 35.5497C153.536 34.7339 154.268 33.6669 155.105 33.0713L151.917 30.6178C151.7 31.6166 151.045 32.5874 150.574 33.4901C149.265 35.9963 152.733 37.9567 154.324 35.683C155.078 34.6067 155.853 33.5521 156.675 32.5254L153.266 29.895C152.277 31.5886 151.2 33.2264 150.118 34.8611C148.558 37.2122 152.277 39.306 153.868 37.054C155.031 35.407 156.11 33.3846 157.559 31.9795L154.15 29.3491C153.247 31.418 152.227 33.4218 151.079 35.3667C149.656 37.783 153.35 39.9232 154.829 37.5596C155.993 35.7016 157.156 33.8437 158.319 31.9857C159.6 29.9385 156.501 27.426 154.91 29.3553C153.449 31.1265 152.385 33.1364 151.073 35.0099C149.674 37.0106 152.9 39.5386 154.482 37.6403C156.064 35.742 157.609 34.16 159.355 32.5936L155.946 29.9633C154.823 32.0756 153.601 34.129 152.283 36.1266C150.965 38.1242 154.069 40.6304 155.692 38.7569C157.841 36.2817 159.206 33.3567 160.893 30.5774L157.143 28.3845C156.266 30.2549 155.242 32.026 154.063 33.7196C152.624 35.7885 155.751 38.0249 157.472 36.3499C158.192 35.652 158.908 34.9541 159.628 34.2562C160.14 33.7599 160.676 33.0682 161.356 32.7983C162.454 32.361 163.195 31.3529 162.872 30.1277C162.599 29.0886 161.29 28.1766 160.202 28.6109L160.192 28.5985Z" fill="#D8BF79"/>
<path d="M148.742 30.4628C148.72 30.4256 149.731 30.7668 149.7 30.7389Z" fill="#D8BF79"/>
<path d="M150.913 30.4632C150.383 31.158 149.849 31.8559 149.319 32.5538H149.322C149.129 32.5786 148.937 32.6034 148.745 32.6313H148.751C148.559 32.6065 148.366 32.5786 148.174 32.5538C148.351 32.5817 148.528 32.6531 148.698 32.7089C148.798 32.7399 148.894 32.7709 148.993 32.8019C149.024 32.8113 149.058 32.8206 149.089 32.8299C149.229 32.8671 149.554 32.926 149.697 32.9136C150.088 32.9136 150.454 32.8144 150.792 32.6158C151.046 32.4794 151.248 32.2932 151.4 32.0575C151.592 31.8466 151.723 31.6015 151.788 31.3193C151.89 30.9347 151.89 30.55 151.788 30.1654C151.719 29.88 151.592 29.635 151.4 29.4241C151.248 29.1883 151.043 29.0022 150.792 28.8657C150.327 28.5928 149.641 28.478 149.12 28.6455C148.599 28.813 148.087 29.1418 147.824 29.6443C147.56 30.1468 147.399 30.7796 147.603 31.3162C148.301 30.4011 148.999 29.4861 149.697 28.568C149.889 28.5928 150.082 28.6207 150.274 28.6455C150.097 28.6176 149.917 28.54 149.75 28.4873C149.647 28.4563 149.545 28.4222 149.44 28.3943C149.012 28.2764 148.602 28.2733 148.165 28.3663L147.647 28.5866C147.392 28.7231 147.191 28.9092 147.039 29.1449C146.735 29.5388 146.601 29.9576 146.574 30.4601C146.543 30.9998 146.837 31.6264 147.209 31.9986C147.582 32.3708 148.205 32.6593 148.745 32.6344C149.285 32.6096 149.889 32.4235 150.28 31.9986C150.671 31.5736 150.882 31.0618 150.916 30.4632H150.913Z" fill="#D8BF79"/>
<path d="M148.771 30.7727C148.771 30.7727 148.765 30.7572 148.756 30.7541C148.722 30.7385 148.694 30.7137 148.675 30.6827C148.672 30.6765 148.666 30.6672 148.66 30.6641C148.654 30.6641 148.647 30.6641 148.641 30.6672C148.613 30.6796 148.585 30.692 148.557 30.7075C148.551 30.7075 148.548 30.7137 148.542 30.7106C148.533 30.7106 148.53 30.7013 148.526 30.692C148.477 30.5866 148.371 30.5245 148.297 30.4346" fill="#D8BF79"/>
<path d="M150.866 30.1957C150.847 30.0995 150.81 30.0096 150.754 29.9258C150.667 29.656 150.518 29.4233 150.304 29.2279L149.864 28.8898C149.864 28.8898 149.839 28.8743 149.827 28.8681L150.267 29.2062C150.267 29.2062 150.239 29.1845 150.227 29.169L150.565 29.6095C150.565 29.6095 150.549 29.5877 150.543 29.5753L150.205 29.1349C150.059 29.0139 149.91 28.8991 149.755 28.7875C149.507 28.6293 149.237 28.5424 148.949 28.53C148.66 28.4649 148.372 28.4773 148.083 28.5703C147.984 28.589 147.891 28.6262 147.804 28.6851C147.686 28.7347 147.575 28.7813 147.46 28.834L147.978 28.6138H147.962C148.521 28.6913 149.079 28.7627 149.634 28.8371L149.625 28.8309L150.404 29.6095C150.388 29.5815 150.369 29.5536 150.351 29.5257L150.013 29.0852C150.013 29.0852 149.988 29.0573 149.976 29.0418C149.929 28.9922 149.876 28.9488 149.83 28.8991C149.634 28.6882 149.402 28.5362 149.132 28.4494C148.874 28.3129 148.595 28.2509 148.294 28.2633C147.997 28.2509 147.717 28.3129 147.457 28.4494C147.187 28.5362 146.954 28.6851 146.759 28.8991L146.421 29.3396C146.225 29.6777 146.126 30.0437 146.123 30.4345L146.201 31.0115C146.303 31.3806 146.489 31.7001 146.759 31.9699C146.815 32.0351 146.886 32.0909 146.942 32.156L146.604 31.7156C146.626 31.7435 146.641 31.7683 146.657 31.7993C146.849 32.125 147.109 32.3856 147.435 32.5779C147.516 32.6337 147.603 32.6741 147.705 32.6927C147.962 32.8291 148.242 32.8912 148.542 32.8788C148.744 32.8695 148.943 32.8416 149.135 32.7981C149.327 32.7454 149.541 32.6306 149.737 32.5407L149.219 32.7609H149.237C148.679 32.6834 148.121 32.612 147.565 32.5376L147.575 32.5438L146.796 31.7652C147.06 32.1871 147.265 32.3608 147.674 32.6368L146.675 31.3403V31.3527C146.743 31.6349 146.874 31.88 147.066 32.0909C147.218 32.3266 147.423 32.5128 147.674 32.6492C147.922 32.8074 148.192 32.8943 148.48 32.9067C148.769 32.9718 149.057 32.9594 149.346 32.8664L149.864 32.6461C150.19 32.4538 150.45 32.1933 150.642 31.8676L150.863 31.3496C150.965 30.965 150.965 30.5803 150.863 30.1957H150.866Z" fill="#D8BF79"/>
<path d="M160.639 41.2391C160.772 40.7987 160.741 40.3086 160.555 39.8867C160.468 39.9053 160.418 39.9922 160.375 40.0697C160.083 40.6156 159.795 41.1616 159.503 41.7075C159.544 41.5555 159.584 41.4004 159.627 41.2484C159.643 41.1895 159.658 41.1274 159.646 41.0654C159.634 41.0034 159.581 40.9475 159.519 40.9537C159.457 40.9599 159.413 41.0468 159.46 41.0871C160.136 41.0995 160.766 40.7273 161.442 40.7056C161.461 40.7056 161.476 40.7056 161.492 40.7118C161.535 40.7335 161.526 40.8018 161.51 40.8483C161.458 41.0065 161.405 41.1647 161.349 41.3229C161.454 41.3663 161.56 41.2763 161.637 41.1926C161.913 40.8948 162.186 40.597 162.463 40.2993C162.348 40.6529 162.23 41.0065 162.115 41.357C162.106 41.388 162.096 41.4221 162.112 41.45C162.14 41.4997 162.214 41.4842 162.267 41.4593C162.739 41.2205 163.036 40.7242 163.511 40.4947C163.393 40.839 163.322 41.1957 163.294 41.5586C163.458 41.4966 163.554 41.326 163.632 41.1678C163.759 40.9041 163.871 40.6343 163.97 40.3582C163.874 40.5815 163.79 40.8111 163.725 41.0437L164.187 39.8867C164.026 40.2093 163.886 40.5412 163.771 40.8855L164.041 40.656" fill="#D8BF79"/>
<path d="M162.732 41.8164C162.921 40.9634 162.946 40.1446 162.648 39.3102C162.202 38.0663 160.713 37.1885 159.46 38.0136C158.532 38.6216 158.135 39.6669 157.63 40.6129L161.597 42.2848C161.845 41.3574 161.938 40.4703 161.305 39.67C160.642 38.8294 159.28 38.4324 158.352 39.1303C157.481 39.7848 157.205 40.5199 157.354 41.5838L157.366 41.6645C157.49 42.5516 158.601 43.3053 159.46 43.2588C159.894 43.234 160.325 43.1812 160.747 43.0789C161.129 42.9858 161.972 42.9579 160.915 42.8059L159.618 41.8071L159.649 41.8661L159.429 40.1942C159.398 40.3803 159.314 40.5695 159.255 40.7463C158.839 41.9715 159.975 43.6589 161.349 43.4945C162.59 43.3487 163.201 42.6974 163.998 41.8351L160.369 39.7227C160.179 40.2966 159.969 40.8425 159.938 41.4504C159.903 42.1576 160.366 43.0106 161.014 43.3239C161.795 43.7024 162.59 43.7489 163.359 43.3332C163.809 43.0913 164.277 42.564 164.603 42.3686L161.414 39.915C161.25 40.4516 161.178 40.9976 161.119 41.5559C161.032 42.3903 161.737 43.2495 162.453 43.5411C163.328 43.8947 164.109 43.6589 164.826 43.0913C165.493 42.564 165.769 41.6986 166.06 40.9293C166.476 39.8313 165.598 38.5471 164.544 38.2587C163.3 37.9175 162.317 38.6836 161.873 39.7754C161.78 40.0019 161.699 40.2283 161.628 40.461C161.281 41.5807 162.041 42.8276 163.145 43.1316C164.382 43.4728 165.378 42.7098 165.815 41.6148L166.278 40.4578C167.186 38.1904 163.356 36.5651 162.31 38.786C162.078 39.2823 161.864 39.7879 161.678 40.3028C161.355 41.1961 161.892 42.2972 162.676 42.7563C163.551 43.2681 164.569 43.0479 165.307 42.4182L165.577 42.1887C166.47 41.4256 166.361 39.9026 165.577 39.1179C164.693 38.2338 163.399 38.3548 162.506 39.1179L162.236 39.3474L165.865 41.4597C165.908 41.2891 165.974 41.1309 166.06 40.9821L162.093 39.3102L161.631 40.4672L165.819 41.621C165.89 41.3853 165.971 41.162 166.064 40.9355L161.876 39.7817C161.87 39.8964 161.833 39.9895 161.764 40.0639C161.749 40.0856 161.746 40.0732 161.758 40.0267L165.465 41.5621C165.459 41.6086 165.589 41.1247 165.605 41.0751C166.157 39.2605 164.016 37.6631 162.416 38.6216C162.109 38.8046 161.82 39.0279 161.547 39.2605L161.352 39.4405C161.02 39.7165 161.104 39.6979 161.603 39.3908L163.275 39.6111L163.207 39.5769L164.283 41.4504C164.265 41.863 164.572 40.8425 164.559 40.8766C165.235 38.8232 162.382 37.1947 160.93 38.7643C160.62 39.0993 160.322 39.4746 159.972 39.7692L161.507 39.1334L161.352 39.152L163.446 41.9002C163.855 40.6843 163.672 39.2699 162.329 38.727C161.299 38.3114 160.424 38.8604 159.46 38.9131L161.554 40.5075L161.541 40.4268L160.542 42.8804L160.611 42.8276L158.939 43.0479L159.019 43.082L157.723 42.0832L157.766 42.1638L157.468 41.0689C157.481 40.827 157.459 40.8456 157.403 41.1309C156.78 43.4604 160.192 45.0206 161.371 42.8028C161.681 42.2228 161.96 41.6055 162.317 41.0503L161.538 41.8289L161.644 41.7606L158.455 40.4641C158.709 41.1682 158.526 40.7277 158.539 40.6626C158.284 41.8071 158.886 43.0106 160.055 43.3332C161.144 43.6341 162.469 42.9672 162.726 41.8164H162.732Z" fill="#D8BF79"/>
<path d="M152.841 20.6819C155.909 20.9952 159.011 21.0634 162.076 20.7067C163.819 20.5051 165.571 20.1577 167.141 19.3698C168.71 18.582 170.088 17.3071 170.714 15.6663C171.341 14.0254 171.105 12.0123 169.892 10.7437C168.872 9.67667 167.358 9.26103 165.906 8.99117C161.005 8.07923 155.894 8.30877 151.095 9.65806C148.366 10.4273 145.617 11.6401 143.883 13.8858C141.669 16.755 141.551 20.7874 142.528 24.2769C142.962 25.834 143.638 27.3974 144.876 28.4365C145.946 29.3329 147.33 29.7547 148.694 30.0494C154.042 31.2126 159.728 30.7659 164.83 28.787" stroke="#938154" stroke-width="0.930545" stroke-miterlimit="10" stroke-linecap="round"/>
<path d="M147.066 29.6152C145.702 30.5737 144.625 31.9881 143.989 33.539C142.984 35.9833 142.938 38.7253 143.298 41.3432C143.648 43.9053 144.498 46.6101 146.589 48.1331C148.319 49.3955 150.587 49.6126 152.73 49.6468C157.405 49.7212 162.138 49.1133 166.465 47.3452" stroke="#938154" stroke-width="0.930545" stroke-miterlimit="10" stroke-linecap="round"/>
<path d="M168.335 18.6289C169.908 19.7332 171.136 21.3771 171.85 23.1762C172.951 25.9492 172.966 29.0479 172.501 31.9946C172.213 33.8278 171.704 35.7137 170.442 37.0723C169.433 38.161 168.044 38.8062 166.648 39.3025C162.104 40.9186 157.094 41.1915 152.401 40.0842" stroke="#938154" stroke-width="0.930545" stroke-miterlimit="10" stroke-linecap="round"/>
<path d="M146.082 47.7048C145.384 48.7563 145.037 50.0745 144.767 51.3339C144.339 53.3221 144.026 55.5461 145.115 57.2646C146.154 58.9054 148.17 59.6002 150.059 60.0593C155.741 61.4489 161.858 61.7405 167.352 59.7243C169.467 58.9488 171.539 57.7702 172.77 55.8811C173.943 54.0852 174.225 51.855 174.318 49.7116C174.436 47.0193 174.293 44.2524 173.254 41.7679C172.556 40.1022 171.399 38.5761 169.92 37.5742" stroke="#938154" stroke-width="0.930545" stroke-miterlimit="10" stroke-linecap="round"/>
<path d="M150.529 23.8786C150.529 24.8557 151.49 25.7831 150.665 25.7831C149.84 25.7831 149.17 24.9922 149.17 24.0151C149.17 23.038 149.84 22.2471 150.665 22.2471C151.49 22.2471 150.529 22.9016 150.529 23.8786Z" fill="#373433"/>
<path d="M153.248 23.8786C153.248 24.8557 154.21 25.7831 153.385 25.7831C152.56 25.7831 151.89 24.9922 151.89 24.0151C151.89 23.038 152.56 22.2471 153.385 22.2471C154.21 22.2471 153.248 22.9016 153.248 23.8786Z" fill="#373433"/>
<path d="M147.401 26.7354C147.401 26.7354 150.664 31.63 155.556 27.0083" stroke="#373433" stroke-width="0.620363" stroke-miterlimit="10" stroke-linecap="round"/>
<path d="M358.017 43.6265C357.248 44.4795 356.342 44.9696 355.374 44.9696C352.605 44.9696 350.356 40.962 350.356 36.0177C350.356 33.5828 350.902 31.3774 351.786 29.7613L346.922 18.9422C346.727 18.9732 346.528 18.9949 346.323 18.9949C344.313 18.9949 342.682 17.3665 342.682 15.3534C342.682 14.2088 343.212 13.1883 344.037 12.5214L342.037 8.07344C341.494 6.86993 340.185 6.20614 338.895 6.48841L319.989 10.5983C319.049 10.803 318.283 11.4761 317.954 12.3788L316.4 16.6748C317.089 17.7356 317.495 19.0508 317.495 20.4714C317.495 23.6725 315.432 26.3276 312.737 26.7929L307.011 42.6153C307.126 42.6091 307.244 42.606 307.361 42.606C309.589 42.606 311.394 43.4435 311.394 44.4764C311.394 45.5093 309.589 46.3468 307.361 46.3468C306.775 46.3468 306.223 46.2878 305.721 46.1824L304.778 48.791C304.092 50.6862 305.1 52.7768 307.014 53.4189L332.34 61.9179C333.041 62.1536 333.808 62.1009 334.471 61.7721L357.983 50.1031C359.329 49.4362 359.906 47.8232 359.289 46.4522L358.017 43.6265Z" fill="#F5BF00" stroke="#D8BF79" stroke-width="0.930545" stroke-miterlimit="10" stroke-linecap="round"/>
<path d="M326.366 14.2991C327.404 14.2991 328.246 13.6047 328.246 12.7482C328.246 11.8916 327.404 11.1973 326.366 11.1973C325.328 11.1973 324.486 11.8916 324.486 12.7482C324.486 13.6047 325.328 14.2991 326.366 14.2991Z" fill="#D1A002"/>
<path d="M342.784 28.1891C344.839 28.1891 346.506 26.8157 346.506 25.1214C346.506 23.4272 344.839 22.0537 342.784 22.0537C340.728 22.0537 339.062 23.4272 339.062 25.1214C339.062 26.8157 340.728 28.1891 342.784 28.1891Z" fill="#D1A002"/>
<path d="M310.733 33.9025C310.581 33.8684 310.426 33.8529 310.274 33.8467C310.209 34.4236 309.979 34.9633 309.768 35.4999C309.529 36.1141 309.266 36.719 309.005 37.3238C308.751 37.9163 308.503 38.5087 308.292 39.1167C308.134 39.5726 308.019 40.0379 307.839 40.4815C308.183 40.8103 308.599 41.0522 309.073 41.1608C310.727 41.5392 312.436 40.2178 312.895 38.214C313.351 36.2103 312.383 34.2809 310.733 33.9025Z" fill="#D1A002"/>
<path d="M336.607 54.5181C337.129 52.2318 335.325 49.8698 332.578 49.2426C329.83 48.6154 327.18 49.9604 326.658 52.2468C326.136 54.5332 327.94 56.8952 330.687 57.5224C333.435 58.1496 336.085 56.8045 336.607 54.5181Z" fill="#D1A002"/>
<path d="M330.09 29.0836C330.612 26.7972 328.808 24.4353 326.061 23.8081C323.314 23.1808 320.663 24.5259 320.141 26.8123C319.619 29.0986 321.423 31.4606 324.171 32.0878C326.918 32.715 329.568 31.37 330.09 29.0836Z" fill="#D1A002"/>
<path d="M355.427 45.0161C355.197 45.0161 354.965 44.9882 354.729 44.9416C354.257 44.8486 353.777 44.6842 353.386 44.3957C353.153 44.2251 352.958 44.0359 352.778 43.8095C352.713 43.7257 352.648 43.6451 352.586 43.5582C352.539 43.4993 352.533 43.4869 352.561 43.521C352.613 43.5861 352.579 43.5427 352.465 43.3969C352.424 43.3442 352.384 43.2915 352.344 43.2356C352.337 43.2294 352.309 43.186 352.288 43.155C352.272 43.1395 352.22 43.0681 352.21 43.0619C352.167 43.0123 352.123 42.9627 352.08 42.913C351.978 42.7952 351.878 42.6711 351.791 42.5408C351.733 42.4478 351.674 42.3423 351.627 42.2275C351.326 42.3578 351.032 42.5284 350.752 42.7362C349.093 43.9894 348.612 46.1513 349.679 47.5658C350.746 48.9802 352.958 49.1105 354.617 47.8573C355.588 47.1253 356.153 46.08 356.243 45.0564C356.134 45.0843 356.013 45.0967 355.898 45.0936C355.731 45.0874 355.576 45.0595 355.424 45.0161H355.427Z" fill="#D1A002"/>
<path d="M340.207 39.0028C341.186 38.2638 341.56 37.1083 341.042 36.422C340.524 35.7356 339.31 35.7783 338.331 36.5173C337.352 37.2564 336.979 38.4119 337.497 39.0982C338.015 39.7846 339.229 39.7419 340.207 39.0028Z" fill="#D1A002"/>
<path d="M316.04 52.6237C316.118 51.9137 315.779 51.2936 315.281 51.2388C314.784 51.184 314.318 51.7152 314.239 52.4253C314.161 53.1353 314.501 53.7554 314.998 53.8102C315.495 53.865 315.962 53.3338 316.04 52.6237Z" fill="#D1A002"/>
<path d="M332.545 61.94C334.202 61.8439 335.523 60.2216 335.027 58.4567L322.061 12.466C321.673 11.095 320.29 10.577 319.167 10.943" stroke="#D8BF79" stroke-width="0.930545" stroke-miterlimit="10" stroke-linecap="round"/>
<path d="M358.017 43.6265C357.248 44.4795 356.342 44.9696 355.374 44.9696C352.605 44.9696 350.356 40.962 350.356 36.0177C350.356 33.5828 350.902 31.3774 351.786 29.7613L346.922 18.9422C346.727 18.9732 346.528 18.9949 346.323 18.9949C344.313 18.9949 342.682 17.3665 342.682 15.3534C342.682 14.2088 343.212 13.1883 344.037 12.5214L342.037 8.07344C341.494 6.86993 340.185 6.20614 338.895 6.48841L319.989 10.5983C319.049 10.803 318.283 11.4761 317.954 12.3788L316.4 16.6748C317.089 17.7356 317.495 19.0508 317.495 20.4714C317.495 23.6725 315.432 26.3276 312.737 26.7929L307.011 42.6153C307.126 42.6091 307.244 42.606 307.361 42.606C309.589 42.606 311.394 43.4435 311.394 44.4764C311.394 45.5093 309.589 46.3468 307.361 46.3468C306.775 46.3468 306.223 46.2878 305.721 46.1824L304.778 48.791C304.092 50.6862 305.1 52.7768 307.014 53.4189L332.34 61.9179C333.041 62.1536 333.808 62.1009 334.471 61.7721L357.983 50.1031C359.329 49.4362 359.906 47.8232 359.289 46.4522L358.017 43.6265Z" stroke="#D8BF79" stroke-width="0.930545" stroke-miterlimit="10" stroke-linecap="round"/>
<path d="M317.576 28.8386C317.576 29.8157 318.538 30.7431 317.713 30.7431C316.888 30.7431 316.218 29.9521 316.218 28.9751C316.218 27.998 316.888 27.207 317.713 27.207C318.538 27.207 317.576 27.8615 317.576 28.8386Z" fill="#373433"/>
<path d="M320.296 28.8386C320.296 29.8157 321.258 30.7431 320.433 30.7431C319.608 30.7431 318.938 29.9521 318.938 28.9751C318.938 27.998 319.608 27.207 320.433 27.207C321.258 27.207 320.296 27.8615 320.296 28.8386Z" fill="#373433"/>
<path d="M314.449 31.6924C314.449 31.6924 317.712 36.5871 322.604 31.9653" stroke="#373433" stroke-width="0.620363" stroke-miterlimit="10" stroke-linecap="round"/>
<path d="M19.349 56.6494C18.558 60.9547 19.2249 65.5144 21.2163 69.4103" stroke="#373433" stroke-width="0.930545" stroke-miterlimit="10" stroke-linecap="round"/>
<path d="M20.9527 69.3535C20.0749 68.8324 19.0482 68.6246 18.0463 68.4292C17.7889 68.3796 17.5221 68.3299 17.2709 68.4075C16.9762 68.5005 16.756 68.7642 16.6753 69.062C16.5947 69.3597 16.635 69.6792 16.7436 69.9646C16.8521 70.25 17.0289 70.5074 17.2151 70.7525C18.5302 70.3492 19.8206 69.8653 21.0799 69.307" fill="#373433"/>
<path d="M20.9527 69.3535C20.0749 68.8324 19.0482 68.6246 18.0463 68.4292C17.7889 68.3796 17.5221 68.3299 17.2709 68.4075C16.9762 68.5005 16.756 68.7642 16.6753 69.062C16.5947 69.3597 16.635 69.6792 16.7436 69.9646C16.8521 70.25 17.0289 70.5074 17.2151 70.7525C18.5302 70.3492 19.8206 69.8653 21.0799 69.307" stroke="#373433" stroke-width="0.930545" stroke-miterlimit="10" stroke-linecap="round"/>
<path d="M33.2979 60.4711C32.4263 61.0077 31.7687 61.8173 31.1266 62.6145C30.9622 62.8192 30.7916 63.0332 30.7451 63.2906C30.6893 63.5915 30.8227 63.911 31.046 64.1219C31.2693 64.3329 31.5733 64.4445 31.8773 64.4817C32.1813 64.519 32.4914 64.4817 32.7954 64.4321C33.0498 63.0797 33.2235 61.7118 33.3134 60.3408" fill="#373433"/>
<path d="M33.2979 60.4711C32.4263 61.0077 31.7687 61.8173 31.1266 62.6145C30.9622 62.8192 30.7916 63.0332 30.7451 63.2906C30.6893 63.5915 30.8227 63.911 31.046 64.1219C31.2693 64.3329 31.5733 64.4445 31.8773 64.4817C32.1813 64.519 32.4914 64.4817 32.7954 64.4321C33.0498 63.0797 33.2235 61.7118 33.3134 60.3408" stroke="#373433" stroke-width="0.930545" stroke-miterlimit="10" stroke-linecap="round"/>
<path d="M24.9258 56.125C25.0468 56.5748 24.9847 60.7126 26.1231 61.2523C27.2614 61.792 32.8168 60.2783 33.3131 60.2194" stroke="#373433" stroke-width="0.930545" stroke-miterlimit="10" stroke-linecap="round"/>
<path d="M8.15181 31.3965C5.90299 32.4697 3.63246 33.605 1.80859 35.2738" stroke="#373433" stroke-width="0.930545" stroke-miterlimit="10" stroke-linecap="round"/>
<path d="M15.1812 10.5873C19.1764 9.79635 26.3168 9.97625 28.0166 14.2909C28.9843 16.6452 28.2895 19.6105 27.7777 22.0857C27.3125 24.1888 26.8782 26.3321 26.6332 28.3173C26.0035 33.9347 25.9259 40.2128 27.1108 45.613C27.6971 48.6125 29.5737 51.8384 28.9006 54.8689C27.9855 58.7802 21.9649 60.9081 18.2707 60.173C14.1545 59.2827 12.6067 54.2454 10.8418 50.7217C6.93972 42.4895 7.73999 36.3851 8.1091 27.6752C8.41618 23.5095 8.02225 17.9014 9.72515 14.8089C10.8201 12.7152 12.7711 11.0619 15.1223 10.5997L15.1843 10.5873H15.1812Z" fill="#FAF5E2"/>
<path d="M15.1812 10.5873C19.1764 9.79635 26.3168 9.97625 28.0166 14.2909C28.9843 16.6452 28.2895 19.6105 27.7777 22.0857C27.3125 24.1888 26.8782 26.3321 26.6332 28.3173C26.0035 33.9347 25.9259 40.2128 27.1108 45.613C27.6971 48.6125 29.5737 51.8384 28.9006 54.8689C27.9855 58.7802 21.9649 60.9081 18.2707 60.173C14.1545 59.2827 12.6067 54.2454 10.8418 50.7217C6.93972 42.4895 7.73999 36.3851 8.1091 27.6752C8.41618 23.5095 8.02225 17.9014 9.72515 14.8089C10.8201 12.7152 12.7711 11.0619 15.1223 10.5997L15.1843 10.5873H15.1812Z" stroke="#D1CDBF" stroke-width="0.930545" stroke-miterlimit="10"/>
<path d="M1.80836 35.2734C1.56331 35.4968 1.32757 35.7294 1.10114 35.9713C0.697905 36.4056 0.300872 37.0043 0.530407 37.5533C0.772349 38.1333 1.52919 38.245 2.15576 38.2574C5.04355 38.3101 7.93755 38.0061 10.754 37.3548" stroke="#373433" stroke-width="0.930545" stroke-miterlimit="10" stroke-linecap="round"/>
<path d="M10.3906 37.0608V35.3486" stroke="#373433" stroke-width="0.930545" stroke-miterlimit="10" stroke-linecap="round"/>
<path d="M10.627 37.1698C11.1015 37.0365 11.5761 36.9 12.0507 36.7666" stroke="#373433" stroke-width="0.930545" stroke-miterlimit="10" stroke-linecap="round"/>
<path d="M10.3223 37.4424C10.831 37.7836 11.38 38.069 11.9507 38.2861" stroke="#373433" stroke-width="0.930545" stroke-miterlimit="10" stroke-linecap="round"/>
<path d="M34.6982 32.356L36.3825 32.0645" stroke="#373433" stroke-width="0.930545" stroke-miterlimit="10" stroke-linecap="round"/>
<path d="M34.6318 32.6045C34.8459 33.0481 35.0599 33.4947 35.2739 33.9383" stroke="#373433" stroke-width="0.930545" stroke-miterlimit="10" stroke-linecap="round"/>
<path d="M34.3099 32.3525C34.0587 32.9109 33.8726 33.5002 33.7578 34.102" stroke="#373433" stroke-width="0.930545" stroke-miterlimit="10" stroke-linecap="round"/>
<path d="M28.6729 28.0845C28.8403 27.9977 29.0078 27.917 29.1784 27.8457C29.5786 27.6782 30.0128 27.5572 30.4192 27.6968C30.8131 27.8333 31.1171 28.1931 31.4024 28.5436C32.3671 29.7409 33.2884 30.9816 34.1662 32.2689" stroke="#373433" stroke-width="0.930545" stroke-miterlimit="10" stroke-linecap="round"/>
<path d="M25.6211 30.4485C26.5827 29.5645 27.5659 28.6712 28.6733 28.085" stroke="#373433" stroke-width="0.930545" stroke-miterlimit="10" stroke-linecap="round"/>
<path d="M13.8126 19.5701C13.8126 20.6836 14.9107 21.7413 13.9677 21.7413C13.0248 21.7413 12.2617 20.8387 12.2617 19.7252C12.2617 18.6116 13.0248 17.709 13.9677 17.709C14.9107 17.709 13.8126 18.4565 13.8126 19.5701Z" fill="#373433"/>
<path d="M16.9142 19.5701C16.9142 20.6836 18.0122 21.7413 17.0693 21.7413C16.1263 21.7413 15.3633 20.8387 15.3633 19.7252C15.3633 18.6116 16.1263 17.709 17.0693 17.709C18.0122 17.709 16.9142 18.4565 16.9142 19.5701Z" fill="#373433"/>
<path d="M10.2451 22.8262C10.2451 22.8262 13.9673 28.4094 19.5506 23.1364" stroke="#373433" stroke-width="0.620363" stroke-miterlimit="10" stroke-linecap="round"/>
<path d="M66.2389 68.1133C65.3611 67.5922 64.3344 67.3844 63.3325 67.189C63.075 67.1393 62.8083 67.0897 62.557 67.1672C62.2623 67.2603 62.0421 67.524 61.9615 67.8217C61.8808 68.1195 61.9211 68.439 62.0297 68.7244C62.1383 69.0097 62.3151 69.2672 62.5012 69.5122C63.8164 69.109 65.1067 68.6251 66.3661 68.0668" fill="#373433"/>
<path d="M66.2389 68.1133C65.3611 67.5922 64.3344 67.3844 63.3325 67.189C63.075 67.1393 62.8083 67.0897 62.557 67.1672C62.2623 67.2603 62.0421 67.524 61.9615 67.8217C61.8808 68.1195 61.9211 68.439 62.0297 68.7244C62.1383 69.0097 62.3151 69.2672 62.5012 69.5122C63.8164 69.109 65.1067 68.6251 66.3661 68.0668" stroke="#373433" stroke-width="0.930545" stroke-miterlimit="10" stroke-linecap="round"/>
<path d="M108.424 69.6641C107.547 69.143 106.52 68.9352 105.518 68.7397C105.261 68.6901 104.994 68.6405 104.743 68.718C104.448 68.8111 104.228 69.0747 104.147 69.3725C104.066 69.6703 104.107 69.9898 104.215 70.2751C104.324 70.5605 104.501 70.818 104.687 71.063C106.002 70.6598 107.292 70.1759 108.552 69.6176" fill="#373433"/>
<path d="M108.424 69.6641C107.547 69.143 106.52 68.9352 105.518 68.7397C105.261 68.6901 104.994 68.6405 104.743 68.718C104.448 68.8111 104.228 69.0747 104.147 69.3725C104.066 69.6703 104.107 69.9898 104.215 70.2751C104.324 70.5605 104.501 70.818 104.687 71.063C106.002 70.6598 107.292 70.1759 108.552 69.6176" stroke="#373433" stroke-width="0.930545" stroke-miterlimit="10" stroke-linecap="round"/>
<path d="M265.342 68.1226C264.656 67.3626 263.738 66.8632 262.842 66.3763C262.612 66.2522 262.37 66.125 262.11 66.125C261.803 66.125 261.514 66.3142 261.347 66.5717C261.179 66.8291 261.123 67.1486 261.145 67.4557C261.167 67.7628 261.257 68.0605 261.362 68.349C262.739 68.3521 264.114 68.2746 265.481 68.1133" fill="#373433"/>
<path d="M265.342 68.1226C264.656 67.3626 263.738 66.8632 262.842 66.3763C262.612 66.2522 262.37 66.125 262.11 66.125C261.803 66.125 261.514 66.3142 261.347 66.5717C261.179 66.8291 261.123 67.1486 261.145 67.4557C261.167 67.7628 261.257 68.0605 261.362 68.349C262.739 68.3521 264.114 68.2746 265.481 68.1133" stroke="#373433" stroke-width="0.930545" stroke-miterlimit="10" stroke-linecap="round"/>
<path d="M275.922 67.2783C275.159 66.5959 274.195 66.1988 273.248 65.8111C273.007 65.7119 272.752 65.6126 272.492 65.6405C272.185 65.6746 271.918 65.8918 271.781 66.1678C271.645 66.4439 271.623 66.7665 271.676 67.0674C271.729 67.3682 271.85 67.6567 271.986 67.9328C273.354 67.7901 274.716 67.5637 276.056 67.2566" fill="#373433"/>
<path d="M275.922 67.2783C275.159 66.5959 274.195 66.1988 273.248 65.8111C273.007 65.7119 272.752 65.6126 272.492 65.6405C272.185 65.6746 271.918 65.8918 271.781 66.1678C271.645 66.4439 271.623 66.7665 271.676 67.0674C271.729 67.3682 271.85 67.6567 271.986 67.9328C273.354 67.7901 274.716 67.5637 276.056 67.2566" stroke="#373433" stroke-width="0.930545" stroke-miterlimit="10" stroke-linecap="round"/>
<path d="M70.7278 67.8028C71.6056 67.2816 72.6323 67.0738 73.6342 66.8784C73.8916 66.8288 74.1584 66.7792 74.4096 66.8567C74.7043 66.9498 74.9245 67.2134 75.0052 67.5112C75.0858 67.809 75.0455 68.1284 74.9369 68.4138C74.8284 68.6992 74.6516 68.9566 74.4655 69.2017C73.1503 68.7984 71.8599 68.3146 70.6006 67.7562" fill="#373433"/>
<path d="M70.7278 67.8028C71.6056 67.2816 72.6323 67.0738 73.6342 66.8784C73.8916 66.8288 74.1584 66.7792 74.4096 66.8567C74.7043 66.9498 74.9245 67.2134 75.0052 67.5112C75.0858 67.809 75.0455 68.1284 74.9369 68.4138C74.8284 68.6992 74.6516 68.9566 74.4655 69.2017C73.1503 68.7984 71.8599 68.3146 70.6006 67.7562" stroke="#373433" stroke-width="0.930545" stroke-miterlimit="10" stroke-linecap="round"/>
<path d="M112.912 69.3545C113.79 68.8334 114.817 68.6256 115.819 68.4302C116.076 68.3805 116.343 68.3309 116.594 68.4085C116.889 68.5015 117.109 68.7652 117.19 69.0629C117.27 69.3607 117.23 69.6802 117.122 69.9656C117.013 70.2509 116.836 70.5084 116.65 70.7534C115.335 70.3502 114.044 69.8663 112.785 69.308" fill="#373433"/>
<path d="M112.912 69.3545C113.79 68.8334 114.817 68.6256 115.819 68.4302C116.076 68.3805 116.343 68.3309 116.594 68.4085C116.889 68.5015 117.109 68.7652 117.19 69.0629C117.27 69.3607 117.23 69.6802 117.122 69.9656C117.013 70.2509 116.836 70.5084 116.65 70.7534C115.335 70.3502 114.044 69.8663 112.785 69.308" stroke="#373433" stroke-width="0.930545" stroke-miterlimit="10" stroke-linecap="round"/>
<path d="M263.403 44.4912C262.892 44.7456 262.383 44.9999 261.871 45.2543" stroke="#373433" stroke-width="0.930545" stroke-miterlimit="10" stroke-linecap="round"/>
<path d="M263.605 44.6553L263.878 46.11" stroke="#373433" stroke-width="0.930545" stroke-miterlimit="10" stroke-linecap="round"/>
<path d="M263.714 44.2607C264.247 44.5647 264.747 44.9276 265.197 45.3433" stroke="#373433" stroke-width="0.930545" stroke-miterlimit="10" stroke-linecap="round"/>
<path d="M267.11 34.7314C265.959 35.0168 265.078 35.9939 264.623 37.0857C264.167 38.1776 264.073 39.3873 264.027 40.5691C263.98 41.754 263.971 42.9513 263.664 44.0958" stroke="#373433" stroke-width="0.930545" stroke-miterlimit="10" stroke-linecap="round"/>
<path d="M274.216 54.4219C273.425 58.7272 274.092 63.2869 276.083 67.1828" stroke="#373433" stroke-width="0.930545" stroke-miterlimit="10" stroke-linecap="round"/>
<path d="M264.582 55.2246C263.506 59.4679 263.869 64.0617 265.597 68.0816" stroke="#373433" stroke-width="0.930545" stroke-miterlimit="10" stroke-linecap="round"/>
<path d="M100.095 45.0098C100.507 45.4037 100.92 45.7945 101.335 46.1885" stroke="#373433" stroke-width="0.930545" stroke-miterlimit="10" stroke-linecap="round"/>
<path d="M99.8556 45.1064C99.6261 45.5438 99.3965 45.9781 99.167 46.4154" stroke="#373433" stroke-width="0.930545" stroke-miterlimit="10" stroke-linecap="round"/>
<path d="M99.8687 44.7002C99.27 44.8336 98.6869 45.0352 98.1348 45.2988" stroke="#373433" stroke-width="0.930545" stroke-miterlimit="10" stroke-linecap="round"/>
<path d="M105.44 33.7578C103.114 36.9713 101.3 40.557 100.09 44.335" stroke="#373433" stroke-width="0.930545" stroke-miterlimit="10" stroke-linecap="round"/>
<path d="M114.571 56.5928C115.362 60.8981 114.695 65.4578 112.704 69.3536" stroke="#373433" stroke-width="0.930545" stroke-miterlimit="10" stroke-linecap="round"/>
<path d="M106.821 56.6484C106.03 60.9538 106.697 65.5134 108.688 69.4093" stroke="#373433" stroke-width="0.930545" stroke-miterlimit="10" stroke-linecap="round"/>
<path d="M104.153 9.99157L107.171 21.0557C107.351 21.7102 107.99 22.129 108.663 22.0297L114.637 21.1457C115.329 21.0433 115.825 20.4261 115.779 19.7313L115.025 8.177C114.972 7.38294 114.249 6.8091 113.465 6.93938L105.226 8.31348C104.441 8.44376 103.942 9.22542 104.153 9.99157Z" fill="#014E33" stroke="#017247" stroke-width="0.930545" stroke-miterlimit="10"/>
<path d="M109.208 57.9175C107.486 57.9175 106.072 56.5154 106.053 54.7908L105.805 29.2163C105.787 27.3956 105.34 25.5779 104.512 23.9557L99.614 14.3835C99.4869 14.1322 99.4651 13.8499 99.5582 13.5832C99.6513 13.3164 99.8436 13.1086 100.101 12.9907L107.021 9.86721C107.155 9.80828 107.294 9.77726 107.44 9.77726C107.821 9.77726 108.166 9.98818 108.343 10.3232L111.345 16.0771C111.441 16.2601 111.627 16.3717 111.832 16.3717C112.037 16.3717 112.214 16.2663 112.31 16.0926L116.801 8.16432C116.981 7.84483 117.322 7.64941 117.688 7.64941C117.853 7.64941 118.008 7.68664 118.157 7.76418L123.914 10.7481C124.159 10.8753 124.339 11.0924 124.419 11.3561C124.5 11.6197 124.472 11.8989 124.339 12.1408L117.67 24.2907C116.795 25.885 116.296 27.6872 116.221 29.5017L115.216 54.8746C115.154 56.4751 113.848 57.7686 112.248 57.8213L109.31 57.9144C109.276 57.9144 109.211 57.9144 109.208 57.9144V57.9175Z" fill="url(#paint0_linear_449_1821)"/>
<path d="M117.689 8.11839C117.775 8.11839 117.862 8.1401 117.943 8.18043L123.7 11.1675C123.833 11.2357 123.929 11.3536 123.973 11.4963C124.016 11.639 124.001 11.7909 123.929 11.9243L117.261 24.0741C116.352 25.7305 115.831 27.604 115.756 29.493L114.751 54.8659C114.698 56.2245 113.591 57.3225 112.232 57.3659L109.295 57.459C109.267 57.459 109.236 57.459 109.208 57.459C107.741 57.459 106.534 56.2648 106.519 54.7945L106.271 29.22C106.252 27.3279 105.787 25.4358 104.925 23.7515L100.027 14.1793C99.9338 13.9963 99.9679 13.8288 99.9958 13.7451C100.024 13.6613 100.101 13.5093 100.29 13.4225L107.211 10.299C107.282 10.2648 107.36 10.2493 107.437 10.2493C107.645 10.2493 107.831 10.3641 107.927 10.5471L110.93 16.301C111.107 16.636 111.451 16.8469 111.829 16.8469C112.208 16.8469 112.533 16.6484 112.713 16.332L117.205 8.40376C117.304 8.23005 117.487 8.12459 117.685 8.12459M117.689 7.18784C117.171 7.18784 116.668 7.4608 116.398 7.94159L111.907 15.8698C111.891 15.8977 111.863 15.9133 111.832 15.9133C111.801 15.9133 111.773 15.8977 111.758 15.8667L108.755 10.1129C108.492 9.60726 107.977 9.31569 107.44 9.31569C107.235 9.31569 107.028 9.35912 106.829 9.44597L99.9089 12.5695C99.1366 12.9169 98.814 13.8412 99.1986 14.5981L104.096 24.1703C104.897 25.7367 105.322 27.4644 105.34 29.2232L105.588 54.7976C105.607 56.789 107.229 58.3833 109.208 58.3833C109.245 58.3833 109.286 58.3833 109.323 58.3833L112.26 58.2903C114.115 58.2313 115.607 56.7518 115.682 54.8969L116.687 29.524C116.755 27.7715 117.233 26.0562 118.076 24.5177L124.745 12.3679C125.145 11.639 124.866 10.7208 124.128 10.3362L118.371 7.34914C118.154 7.23747 117.918 7.18164 117.689 7.18164V7.18784Z" fill="#017247"/>
<path d="M107.616 18.2297C107.616 19.1695 108.54 20.0597 107.746 20.0597C106.952 20.0597 106.307 19.2998 106.307 18.36C106.307 17.4201 106.952 16.6602 107.746 16.6602C108.54 16.6602 107.616 17.2898 107.616 18.2297Z" fill="#373433"/>
<path d="M110.23 18.2297C110.23 19.1695 111.154 20.0597 110.36 20.0597C109.566 20.0597 108.921 19.2998 108.921 18.36C108.921 17.4201 109.566 16.6602 110.36 16.6602C111.154 16.6602 110.23 17.2898 110.23 18.2297Z" fill="#373433"/>
<path d="M104.606 20.9775C104.606 20.9775 107.745 25.6861 112.451 21.2381" stroke="#373433" stroke-width="0.620363" stroke-miterlimit="10" stroke-linecap="round"/>
<path d="M122.398 23.9872C122.028 23.5529 121.656 23.1187 121.287 22.6875" stroke="#373433" stroke-width="0.930545" stroke-miterlimit="10" stroke-linecap="round"/>
<path d="M122.646 23.916C122.918 23.5066 123.191 23.094 123.467 22.6846" stroke="#373433" stroke-width="0.930545" stroke-miterlimit="10" stroke-linecap="round"/>
<path d="M122.593 24.3219C123.201 24.2506 123.802 24.111 124.379 23.9062" stroke="#373433" stroke-width="0.930545" stroke-miterlimit="10" stroke-linecap="round"/>
<path d="M115.921 34.6284C118.567 31.6724 120.741 28.2914 122.335 24.6592" stroke="#373433" stroke-width="0.930545" stroke-miterlimit="10" stroke-linecap="round"/>
<path d="M262.571 19.3486C261.923 21.0081 262.081 22.894 262.602 24.5969C263.123 26.3029 263.986 27.8786 264.755 29.4884C266.365 32.857 267.596 36.4582 267.848 40.1835C268.099 43.9088 267.314 47.7767 265.189 50.8475C264.504 51.837 263.685 52.7396 263.127 53.8036C262.568 54.8675 262.295 56.1733 262.779 57.2745C263.291 58.4439 264.575 59.1418 265.847 59.2535C267.119 59.3682 268.384 58.9867 269.566 58.4997C275.221 56.1734 279.665 51.3469 282.119 45.7481C284.573 40.1494 285.131 33.8341 284.355 27.7669C284.017 25.1087 283.419 22.4535 282.218 20.0589C281.018 17.6643 279.172 15.5333 276.778 14.3329C272.776 12.3261 267.9 13.8553 264.615 16.6159C263.735 17.3572 262.996 18.2691 262.574 19.3486H262.571Z" fill="#D54400" stroke="#A53002" stroke-width="0.930545" stroke-miterlimit="10"/>
<path d="M264.483 14.6342C265.302 13.6882 266.437 13.0492 267.635 12.6863C269.213 12.2086 270.978 12.2086 272.458 12.9375C272.777 13.0957 273.1 13.3067 273.23 13.6385C273.348 13.9332 273.286 14.2775 273.137 14.5567C272.988 14.8358 272.756 15.0654 272.523 15.2794C270.411 17.218 267.675 18.4402 264.834 18.8341C264.527 18.8775 264.21 18.9085 263.919 18.8062C263.292 18.589 263.277 17.8446 263.326 17.2925C263.382 16.6659 263.581 16.058 263.881 15.5058C264.052 15.1957 264.254 14.9041 264.486 14.6342H264.483Z" fill="#019C65" stroke="#017247" stroke-width="0.930545" stroke-miterlimit="10"/>
<path d="M264.126 6.18834C264.08 5.76029 264.046 5.32293 264.123 4.90109C264.201 4.47924 264.402 4.06049 264.753 3.80925C265.063 3.58591 265.463 3.51147 265.845 3.53008C266.226 3.54869 266.598 3.65726 266.964 3.76892C267.324 3.87749 267.706 4.00776 267.935 4.30554C268.177 4.61882 268.199 5.05307 268.109 5.4377C268.019 5.82232 267.839 6.17903 267.706 6.55125C267.361 7.51282 267.355 8.56743 267.526 9.57242C267.696 10.5774 268.041 11.5452 268.388 12.5036C268.54 12.9193 268.68 13.4218 268.41 13.7723C268.208 14.0328 267.833 14.1073 267.513 14.0235C266.465 13.7537 265.947 12.5533 265.534 11.6661C265.026 10.5712 264.675 9.40803 264.436 8.22623C264.3 7.55314 264.201 6.87384 264.126 6.19144V6.18834Z" fill="#019C65" stroke="#017247" stroke-width="0.930545" stroke-miterlimit="10"/>
<path d="M268.408 24.4958C268.408 25.4729 269.37 26.4003 268.545 26.4003C267.72 26.4003 267.05 25.6094 267.05 24.6323C267.05 23.6552 267.72 22.8643 268.545 22.8643C269.37 22.8643 268.408 23.5187 268.408 24.4958Z" fill="#373433"/>
<path d="M271.125 24.4958C271.125 25.4729 272.087 26.4003 271.262 26.4003C270.437 26.4003 269.767 25.6094 269.767 24.6323C269.767 23.6552 270.437 22.8643 271.262 22.8643C272.087 22.8643 271.125 23.5187 271.125 24.4958Z" fill="#373433"/>
<path d="M265.281 27.3525C265.281 27.3525 268.544 32.2472 273.436 27.6255" stroke="#373433" stroke-width="0.620363" stroke-miterlimit="10" stroke-linecap="round"/>
<path d="M287.601 42.6279C288.112 42.8823 288.621 43.1366 289.133 43.391" stroke="#373433" stroke-width="0.930545" stroke-miterlimit="10" stroke-linecap="round"/>
<path d="M287.399 42.793L287.126 44.2477" stroke="#373433" stroke-width="0.930545" stroke-miterlimit="10" stroke-linecap="round"/>
<path d="M287.29 42.3984C286.757 42.7024 286.257 43.0653 285.808 43.481" stroke="#373433" stroke-width="0.930545" stroke-miterlimit="10" stroke-linecap="round"/>
<path d="M283.894 32.8701C285.044 33.1555 285.925 34.1326 286.381 35.2244C286.837 36.3193 286.93 37.5259 286.977 38.7077C287.023 39.8926 287.033 41.0899 287.34 42.2345" stroke="#373433" stroke-width="0.930545" stroke-miterlimit="10" stroke-linecap="round"/>
<path d="M72.3858 55.042C73.1768 59.3473 72.5099 63.907 70.5186 67.8029" stroke="#373433" stroke-width="0.930545" stroke-miterlimit="10" stroke-linecap="round"/>
<path d="M64.6341 55.0986C63.8432 59.404 64.5101 63.9636 66.5014 67.8595" stroke="#373433" stroke-width="0.930545" stroke-miterlimit="10" stroke-linecap="round"/>
<path d="M45.9148 46.4414C45.3533 46.5376 44.7919 46.6368 44.2305 46.733" stroke="#373433" stroke-width="0.930545" stroke-miterlimit="10" stroke-linecap="round"/>
<path d="M45.9829 46.1932C45.7689 45.7496 45.5548 45.3029 45.3408 44.8594" stroke="#373433" stroke-width="0.930545" stroke-miterlimit="10" stroke-linecap="round"/>
<path d="M46.3027 46.4447C46.554 45.8864 46.7401 45.2971 46.8549 44.6953" stroke="#373433" stroke-width="0.930545" stroke-miterlimit="10" stroke-linecap="round"/>
<path d="M51.9386 50.7088C51.7711 50.7956 51.6036 50.8763 51.433 50.9476C51.0329 51.1151 50.5986 51.2361 50.1923 51.0965C49.7984 50.96 49.4944 50.6002 49.209 50.2497C48.2444 49.0524 47.3231 47.8117 46.4453 46.5244" stroke="#373433" stroke-width="0.930545" stroke-miterlimit="10" stroke-linecap="round"/>
<path d="M54.9907 48.3486C54.0291 49.2327 53.0458 50.126 51.9385 50.7122" stroke="#373433" stroke-width="0.930545" stroke-miterlimit="10" stroke-linecap="round"/>
<path d="M57.4141 35.5483C54.4425 39.7698 53.2173 45.0864 53.5461 50.2385C53.7105 52.8161 54.2967 55.4681 55.8849 57.5091C57.5971 59.7052 60.2832 60.9366 62.9818 61.619C67.2468 62.6985 71.8685 62.5713 75.9288 60.8901C79.9922 59.2058 83.4321 55.8962 84.9148 51.7553C86.5308 47.2359 85.7305 42.1148 83.6461 37.794C82.3775 35.1667 80.6281 32.7411 78.3358 30.939C75.9102 29.0344 72.4393 27.5828 69.3064 28.0326C66.2604 28.4699 63.382 29.8161 60.9904 31.7392C59.6288 32.8342 58.419 34.1214 57.411 35.5514L57.4141 35.5483Z" fill="white"/>
<mask id="mask0_449_1821" style="mask-type:luminance" maskUnits="userSpaceOnUse" x="53" y="27" width="33" height="36">
<path d="M57.4141 35.5502C54.4425 39.7718 53.2173 45.0883 53.5461 50.2404C53.7105 52.818 54.2967 55.4701 55.8849 57.5111C57.5971 59.7072 60.2832 60.9386 62.9818 61.621C67.2468 62.7004 71.8685 62.5733 75.9288 60.8921C79.9922 59.2078 83.4321 55.8981 84.9148 51.7572C86.5308 47.2379 85.7305 42.1168 83.6461 37.7959C82.3775 35.1687 80.6281 32.7431 78.3358 30.9409C75.9102 29.0364 72.4393 27.5848 69.3064 28.0345C66.2604 28.4719 63.382 29.8181 60.9904 31.7412C59.6288 32.8361 58.419 34.1234 57.411 35.5533L57.4141 35.5502Z" fill="white"/>
</mask>
<g mask="url(#mask0_449_1821)">
<path d="M69.7496 23.0713C70.7391 23.3194 71.5021 24.0887 72.1969 24.8362C73.3694 26.0987 74.5171 27.4014 75.3732 28.8965C78.0222 33.5058 77.5693 39.2721 76.2076 44.4118C75.0692 48.7047 73.3229 52.8953 70.5592 56.3693C67.7955 59.8433 63.9399 62.5636 59.585 63.4228C64.8332 63.733 70.218 62.6381 74.7342 59.9457C79.2505 57.2502 82.8393 52.9108 84.2599 47.8455C85.6805 42.7802 84.8089 37.045 81.6389 32.8482C81.2729 32.3612 80.8014 31.8587 80.1934 31.8308C79.5576 34.9295 80.0445 38.1554 79.6351 41.2945C79.114 45.2958 77.1568 48.9653 74.9793 52.3618C74.0332 53.8382 73.0189 55.3271 72.6374 57.0362C74.9607 55.6062 76.5519 53.2458 77.8112 50.8264C79.0706 48.4069 80.0756 45.8417 81.6017 43.5805C81.6389 44.9639 81.4466 46.3535 81.034 47.6749" fill="white"/>
<path d="M69.1726 25.1653C70.5684 25.6306 71.9953 27.7553 72.8048 28.9061C73.8874 30.4446 74.5667 32.1351 74.9017 33.9869C75.5903 37.7711 74.7745 41.7476 73.6795 45.3736C71.4897 52.6102 66.8431 59.6513 59.011 61.3294C56.5234 61.8629 57.2337 65.4765 59.588 65.5944C69.0144 66.069 78.5742 62.2599 83.7853 54.1332C86.1706 50.4141 87.3958 45.9072 87.0298 41.4871C86.8343 39.1266 86.2605 36.8529 85.2679 34.7034C84.3653 32.7461 83.0284 30.274 80.7734 29.7374C79.7095 29.483 78.3199 30.0662 78.1027 31.2542C77.2559 35.8821 78.1306 40.5286 76.4402 45.02C74.9234 49.0431 71.6385 52.2938 70.5498 56.4595C70.0907 58.2152 72.1069 59.9739 73.7385 58.9131C78.9216 55.5445 80.2771 49.5828 83.4813 44.6788L79.4365 43.5839C79.4458 44.8153 79.2907 45.9165 78.9464 47.1013C78.1679 49.7906 82.3553 50.9383 83.1339 48.2552C83.5743 46.7322 83.7884 45.1689 83.7791 43.5839C83.7635 41.363 80.8882 40.7178 79.7343 42.4889C77.0574 46.5864 75.8601 52.362 71.5486 55.1661L74.7373 57.6196C75.2708 55.5786 76.6201 53.9005 77.6964 52.1201C78.841 50.2249 79.8459 48.2552 80.6245 46.1801C81.4031 44.105 81.8125 42.002 81.9397 39.8245C82.0824 37.3585 81.8404 34.8585 82.2871 32.4142L79.6164 33.931C80.1778 34.0644 80.7114 35.3517 80.9626 35.8076C81.3876 36.58 81.7319 37.3741 81.9986 38.2146C82.5414 39.9237 82.7865 41.6763 82.7431 43.4691C82.6562 46.9742 81.3286 50.3458 79.2194 53.1251C74.6194 59.1891 66.9641 61.6303 59.5849 61.258L60.1618 65.523C69.8674 63.4448 75.6678 54.5085 78.1586 45.5101C79.3993 41.0373 80.029 36.155 78.8068 31.6047C78.171 29.2349 76.9675 27.1443 75.4321 25.2521C74.0176 23.5058 72.5133 21.7161 70.3203 20.984C67.662 20.1 66.5236 24.2906 69.1664 25.1715L69.1726 25.1653Z" fill="#FAF5E2"/>
<path d="M81.3438 38.2852C82.0727 38.7908 82.2774 39.7926 82.175 40.6736C82.0727 41.5545 81.7315 42.392 81.6136 43.2667C81.8183 42.3516 82.0261 41.4366 82.2309 40.5216C82.1316 41.0644 82.0293 41.6041 81.93 42.1469C82.2805 41.0613 82.5783 39.957 82.8202 38.8435L82.5069 41.2598C82.4387 40.8597 82.3425 40.4626 82.2154 40.0749C82.1719 39.9477 82.1099 39.8019 81.9827 39.7616C81.809 39.7089 81.6384 39.8981 81.6384 40.0811C81.6384 40.2641 81.7501 40.4254 81.8587 40.5712" stroke="#FAF5E2" stroke-width="0.310182" stroke-miterlimit="10"/>
<path d="M81.9772 43.0258C82.182 41.7974 82.2657 40.5474 82.2254 39.3005C82.2254 39.8185 82.3401 40.3365 82.5635 40.8018C82.6782 39.896 82.5697 38.9624 82.2502 38.1094C82.3277 38.3172 81.9679 39.1051 81.9183 39.3594C81.8811 39.5393 81.7818 39.8061 81.8252 39.9891C81.8501 40.0945 81.971 40.1349 82.002 40.2372C82.1137 40.6094 81.9927 41.1709 81.9834 41.5617C81.9741 42.0518 81.971 42.5388 81.9772 43.0289V43.0258Z" stroke="#FAF5E2" stroke-width="0.310182" stroke-miterlimit="10"/>
<path d="M81.5519 37.0015C81.7163 38.1181 81.4464 39.2968 80.8105 40.2305C81.555 39.821 82.225 39.2689 82.7709 38.6175C82.2157 38.8657 81.7349 39.2875 81.4154 39.8055C82.0389 39.2379 82.6623 38.6703 83.2858 38.1026C82.9322 38.6765 82.5755 39.2503 82.2219 39.821C82.5414 38.8129 82.7678 37.7769 82.8981 36.7285C82.4421 37.0666 82.0761 37.5257 81.8497 38.0468C82.1785 37.8638 82.47 37.6125 82.6934 37.3117C82.3522 38.2484 82.0141 39.1821 81.6729 40.1188C81.9644 39.5357 82.256 38.9525 82.5445 38.3694C82.3832 39.1976 82.318 40.0444 82.3553 40.885" stroke="#FAF5E2" stroke-width="0.310182" stroke-miterlimit="10"/>
<path d="M83.4604 35.7361C82.9517 35.6617 82.4461 35.9905 82.1762 36.4309C81.9064 36.8683 81.8257 37.3956 81.7792 37.9105C81.7265 38.503 81.714 39.0985 81.7389 39.691C81.742 39.7623 81.7482 39.8398 81.8009 39.8864C81.9033 39.9794 82.0615 39.8678 82.1514 39.7623C82.5919 39.2412 82.9486 38.6456 83.1998 38.0098C82.9548 38.6425 82.7097 39.2753 82.4647 39.9112C82.4554 39.1978 82.3623 38.4843 82.1855 37.7926C81.8071 38.5309 81.9126 39.4924 82.443 40.1314C82.5391 40.2493 82.6911 40.364 82.8307 40.2989C82.992 40.2245 82.9703 39.9918 82.9269 39.8212" stroke="#FAF5E2" stroke-width="1.55091" stroke-miterlimit="10"/>
<path d="M80.709 49.7871C80.1537 51.5645 79.0557 53.1681 77.5947 54.3282" stroke="#FAF5E2" stroke-width="2.48145" stroke-miterlimit="10"/>
<path d="M80.6025 49.8269C80.981 49.7153 81.3191 49.4702 81.5393 49.1445C81.5424 49.8145 81.2849 50.4814 80.829 50.9715C80.9717 50.5031 81.1174 50.0348 81.2601 49.5664C81.0585 50.072 80.86 50.5776 80.6584 51.0801" stroke="#FAF5E2" stroke-width="2.48145" stroke-miterlimit="10"/>
<path d="M72.9196 58.3476C71.8556 58.4531 70.8258 58.8966 70.0225 59.6038C70.6149 59.0548 71.2942 58.5957 72.0262 58.2576C71.6261 58.6764 71.3128 59.1727 71.105 59.7155C71.3811 59.3991 71.6571 59.0796 71.9301 58.7632C71.6137 59.0269 71.3314 59.334 71.0926 59.669C71.35 59.3712 71.6044 59.0765 71.8618 58.7787C71.7812 58.9835 71.6757 59.1758 71.5455 59.3526C71.5455 58.9524 71.5455 58.5554 71.5423 58.1553C71.5206 58.4344 71.4679 58.7105 71.3811 58.9742C71.4741 58.8036 71.6137 58.6578 71.7843 58.5647" stroke="#FAF5E2" stroke-width="2.48145" stroke-miterlimit="10"/>
<path d="M75.2708 29.0674C75.1871 29.7312 75.7671 30.2678 76.2479 30.7331C77.6034 32.0482 78.5619 33.7697 78.9651 35.6153" stroke="#FAF5E2" stroke-width="2.48145" stroke-miterlimit="10"/>
<path d="M79.9763 33.1826C80.73 33.2043 81.3628 33.8092 81.6792 34.4947C81.9956 35.1802 82.0669 35.9494 82.1972 36.6939C82.7369 39.7709 84.3964 42.6401 86.7972 44.6407C86.1241 44.802 85.5844 45.4627 85.6278 46.1513C85.6712 46.8399 86.366 47.4417 87.0484 47.3238C86.2482 47.5502 85.3859 47.8201 84.9113 48.5025C84.4398 49.1849 84.7066 50.3884 85.5348 50.4752C84.7717 51.3469 84.0118 52.2185 83.2487 53.087C83.0285 53.3382 82.7989 53.6143 82.7648 53.9462C82.7245 54.3463 82.9913 54.7247 83.3294 54.9388C83.6706 55.1528 84.0738 55.2303 84.4677 55.3079C82.7431 56.1454 81.0185 56.9829 79.2908 57.8203C78.7418 58.0871 78.1028 58.5027 78.1679 59.1107C78.2052 59.4457 78.4564 59.7156 78.5588 60.035C78.7356 60.5748 78.4502 61.1796 78.0159 61.5425C77.5817 61.9054 77.0203 62.076 76.4743 62.2311C75.4725 62.5134 74.3992 62.7584 73.4066 62.4514C72.9135 62.2963 72.4637 62.014 71.9674 61.8744C71.3129 61.6945 70.615 61.7783 69.9419 61.8651C67.873 62.1288 65.8072 62.3924 63.7383 62.6561" stroke="#FAF5E2" stroke-width="2.48145" stroke-miterlimit="10"/>
</g>
<path d="M57.4141 35.5483C54.4425 39.7698 53.2173 45.0864 53.5461 50.2385C53.7105 52.8161 54.2967 55.4681 55.8849 57.5091C57.5971 59.7052 60.2832 60.9366 62.9818 61.619C67.2468 62.6985 71.8685 62.5713 75.9288 60.8901C79.9922 59.2058 83.4321 55.8962 84.9148 51.7553C86.5308 47.2359 85.7305 42.1148 83.6461 37.794C82.3775 35.1667 80.6281 32.7411 78.3358 30.939C75.9102 29.0344 72.4393 27.5828 69.3064 28.0326C66.2604 28.4699 63.382 29.8161 60.9904 31.7392C59.6288 32.8342 58.419 34.1214 57.411 35.5514L57.4141 35.5483Z" stroke="#D1CDBF" stroke-width="0.930545" stroke-miterlimit="10"/>
<path d="M62.5102 53.0691C66.4503 53.0691 69.6443 49.8751 69.6443 45.935C69.6443 41.9949 66.4503 38.8008 62.5102 38.8008C58.5701 38.8008 55.376 41.9949 55.376 45.935C55.376 49.8751 58.5701 53.0691 62.5102 53.0691Z" fill="#F5BF00"/>
<path d="M90.8447 52.9609C91.3968 53.1005 91.9521 53.2401 92.5042 53.3797" stroke="#373433" stroke-width="0.930545" stroke-miterlimit="10" stroke-linecap="round"/>
<path d="M90.6836 53.1631C90.6991 53.6563 90.7115 54.1495 90.727 54.6427" stroke="#373433" stroke-width="0.930545" stroke-miterlimit="10" stroke-linecap="round"/>
<path d="M90.4913 52.7998C90.0353 53.2092 89.6259 53.6714 89.2754 54.1739" stroke="#373433" stroke-width="0.930545" stroke-miterlimit="10" stroke-linecap="round"/>
<path d="M87.0801 46.6115C87.2662 46.5991 87.4554 46.5929 87.6415 46.5991C88.0727 46.6084 88.5224 46.6736 88.8357 46.9682C89.1397 47.2536 89.2731 47.7065 89.3878 48.1407C89.7818 49.6265 90.1199 51.1371 90.3959 52.6694" stroke="#373433" stroke-width="0.930545" stroke-miterlimit="10" stroke-linecap="round"/>
<path d="M84.8438 47.1768C85.582 46.9225 86.3326 46.665 87.0771 46.6123" stroke="#373433" stroke-width="0.930545" stroke-miterlimit="10" stroke-linecap="round"/>
<path d="M59.0572 43.4159C59.0572 44.2069 59.8358 44.9575 59.1658 44.9575C58.4958 44.9575 57.9561 44.3155 57.9561 43.5276C57.9561 42.7397 58.4989 42.0977 59.1658 42.0977C59.8327 42.0977 59.0572 42.6281 59.0572 43.419V43.4159Z" fill="#373433"/>
<path d="M61.2593 43.4159C61.2593 44.2069 62.0379 44.9575 61.3679 44.9575C60.6979 44.9575 60.1582 44.3155 60.1582 43.5276C60.1582 42.7397 60.701 42.0977 61.3679 42.0977C62.0348 42.0977 61.2593 42.6281 61.2593 43.419V43.4159Z" fill="#373433"/>
<path d="M56.5264 45.7295C56.5264 45.7295 59.1691 49.6936 63.1301 45.9497" stroke="#373433" stroke-width="0.620363" stroke-miterlimit="10" stroke-linecap="round"/>
<path d="M156.895 8.85685L157.785 1.93359" stroke="#D1CDBF" stroke-width="1.55091" stroke-miterlimit="10" stroke-linecap="round"/>
<path d="M156.498 11.9341L157.686 2.70312" stroke="#D1CDBF" stroke-width="1.55091" stroke-miterlimit="10"/>
<path d="M153.983 11.1233C155.572 12.181 157.817 12.1283 159.353 10.9961" stroke="#938154" stroke-width="0.930545" stroke-miterlimit="10" stroke-linecap="round"/>
</g>
<defs>
<linearGradient id="paint0_linear_449_1821" x1="111.981" y1="51.7759" x2="111.981" y2="23.8626" gradientUnits="userSpaceOnUse">
<stop offset="0.33" stop-color="white"/>
<stop offset="0.73" stop-color="#58BE9A"/>
<stop offset="0.95" stop-color="#019C65"/>
</linearGradient>
<clipPath id="clip0_449_1821">
<rect width="360" height="72.9175" fill="white"/>
</clipPath>
</defs>
</svg>
