<svg width="80" height="80" viewBox="0 0 80 80" fill="none" xmlns="http://www.w3.org/2000/svg">
<circle cx="40" cy="40" r="39.5" fill="white" stroke="#D9D9D9"/>
<circle cx="40.294" cy="28.0284" r="11.7628" fill="#D9D9D9" stroke="#D9D9D9"/>
<mask id="path-3-inside-1_592_3212" fill="white">
<path fill-rule="evenodd" clip-rule="evenodd" d="M8.17188 64.3515C13.2352 51.6249 25.6651 42.6289 40.1962 42.6289C54.5378 42.6289 66.8327 51.3918 72.0187 63.8555C64.728 73.6532 53.0591 80 39.9077 80C26.9797 80 15.4841 73.8669 8.17188 64.3515Z"/>
</mask>
<path fill-rule="evenodd" clip-rule="evenodd" d="M8.17188 64.3515C13.2352 51.6249 25.6651 42.6289 40.1962 42.6289C54.5378 42.6289 66.8327 51.3918 72.0187 63.8555C64.728 73.6532 53.0591 80 39.9077 80C26.9797 80 15.4841 73.8669 8.17188 64.3515Z" fill="#D9D9D9"/>
<path d="M8.17188 64.3515L7.24271 63.9818L7.03255 64.5101L7.37896 64.9608L8.17188 64.3515ZM72.0187 63.8555L72.821 64.4524L73.1604 63.9963L72.942 63.4713L72.0187 63.8555ZM9.10104 64.7212C14.0181 52.3622 26.0885 43.6289 40.1962 43.6289V41.6289C25.2418 41.6289 12.4523 50.8877 7.24271 63.9818L9.10104 64.7212ZM40.1962 43.6289C54.12 43.6289 66.0592 52.1358 71.0955 64.2396L72.942 63.4713C67.6063 50.6478 54.9557 41.6289 40.1962 41.6289V43.6289ZM71.2165 63.2585C64.1063 72.8136 52.7296 79 39.9077 79V81C53.3885 81 65.3497 74.4928 72.821 64.4524L71.2165 63.2585ZM39.9077 79C27.3035 79 16.0959 73.0219 8.96479 63.7422L7.37896 64.9608C14.8723 74.7119 26.6559 81 39.9077 81V79Z" fill="#D9D9D9" mask="url(#path-3-inside-1_592_3212)"/>
</svg>
