<svg width="36" height="36" viewBox="0 0 36 36" fill="none" xmlns="http://www.w3.org/2000/svg">
<mask id="mask0_663_2307" style="mask-type:alpha" maskUnits="userSpaceOnUse" x="0" y="0" width="36" height="36">
<rect width="36" height="36" fill="#D9D9D9"/>
</mask>
<g mask="url(#mask0_663_2307)">
<path d="M8.73071 32.2499C7.76119 32.2499 6.93869 31.9122 6.26321 31.2367C5.58774 30.5612 5.25 29.7387 5.25 28.7692V26.5192C5.25 25.879 5.48097 25.3279 5.94292 24.866C6.40485 24.404 6.95592 24.1731 7.59615 24.1731H9.75V6.09615C9.75 5.45593 9.98098 4.90485 10.4429 4.44293C10.9049 3.98098 11.4559 3.75 12.0962 3.75H28.4038C29.044 3.75 29.5951 3.98098 30.057 4.44293C30.519 4.90485 30.7499 5.45593 30.7499 6.09615V28.7692C30.7499 29.7387 30.4122 30.5612 29.7367 31.2367C29.0612 31.9122 28.2419 32.2499 27.2788 32.2499H8.73071ZM27.2766 30.3654C27.7255 30.3654 28.1025 30.2124 28.4077 29.9064C28.7128 29.6005 28.8654 29.2214 28.8654 28.7692V6.09615C28.8654 5.96153 28.8221 5.85094 28.7355 5.76439C28.649 5.67784 28.5384 5.63456 28.4038 5.63456H12.0962C11.9615 5.63456 11.8509 5.67784 11.7644 5.76439C11.6778 5.85094 11.6346 5.96153 11.6346 6.09615V24.1731H23.3365C23.9767 24.1731 24.5278 24.404 24.9897 24.866C25.4517 25.3279 25.6827 25.879 25.6827 26.5192V28.7692C25.6827 29.2214 25.8354 29.6005 26.1409 29.9064C26.4464 30.2124 26.825 30.3654 27.2766 30.3654ZM14.7307 12.3076C14.4637 12.3076 14.24 12.2168 14.0594 12.0353C13.8787 11.8537 13.7885 11.6287 13.7885 11.3603C13.7885 11.0919 13.8787 10.8686 14.0594 10.6904C14.24 10.5122 14.4637 10.4231 14.7307 10.4231H25.7692C26.0362 10.4231 26.26 10.5138 26.4406 10.6954C26.6212 10.877 26.7115 11.102 26.7115 11.3704C26.7115 11.6388 26.6212 11.8621 26.4406 12.0403C26.26 12.2185 26.0362 12.3076 25.7692 12.3076H14.7307ZM14.7307 16.6345C14.4637 16.6345 14.24 16.5437 14.0594 16.3622C13.8787 16.1806 13.7885 15.9556 13.7885 15.6872C13.7885 15.4188 13.8787 15.1955 14.0594 15.0173C14.24 14.8391 14.4637 14.75 14.7307 14.75H25.7692C26.0362 14.75 26.26 14.8407 26.4406 15.0223C26.6212 15.2039 26.7115 15.4289 26.7115 15.6973C26.7115 15.9657 26.6212 16.189 26.4406 16.3672C26.26 16.5454 26.0362 16.6345 25.7692 16.6345H14.7307ZM8.70094 30.3654H23.7981V26.5192C23.7981 26.3846 23.7548 26.274 23.6683 26.1874C23.5817 26.1009 23.4711 26.0576 23.3365 26.0576H7.59615C7.46152 26.0576 7.35094 26.1009 7.26439 26.1874C7.17784 26.274 7.13456 26.3846 7.13456 26.5192V28.7692C7.13456 29.2214 7.28759 29.6005 7.59364 29.9064C7.89969 30.2124 8.26879 30.3654 8.70094 30.3654ZM8.70094 30.3654H7.13456H23.7981H8.70094Z" fill="#1C1B1F"/>
</g>
</svg>
