<svg width="40" height="40" viewBox="0 0 40 40" fill="none" xmlns="http://www.w3.org/2000/svg">
<mask id="mask0_663_2301" style="mask-type:alpha" maskUnits="userSpaceOnUse" x="0" y="0" width="40" height="40">
<rect width="40" height="40" fill="#D9D9D9"/>
</mask>
<g mask="url(#mask0_663_2301)">
<path d="M20 19.47C18.3958 19.47 17.0564 18.9327 15.9817 17.858C14.907 16.7833 14.3697 15.4421 14.3697 13.8344C14.3697 12.2267 14.907 10.8873 15.9817 9.81614C17.0564 8.74503 18.3958 8.20947 20 8.20947C21.6041 8.20947 22.9435 8.74503 24.0182 9.81614C25.0929 10.8873 25.6303 12.2267 25.6303 13.8344C25.6303 15.4421 25.0929 16.7833 24.0182 17.858C22.9435 18.9327 21.6041 19.47 20 19.47ZM7.5 30.0533V28.8354C7.5 27.9665 7.73201 27.1946 8.19604 26.5198C8.66007 25.8449 9.26851 25.3262 10.0214 24.9637C11.74 24.1745 13.4213 23.5808 15.0654 23.1827C16.7094 22.7845 18.3541 22.5855 19.9996 22.5855C21.6451 22.5855 23.2871 22.7874 24.9257 23.1913C26.5642 23.5951 28.2405 24.1884 29.9545 24.9713C30.7271 25.3332 31.3445 25.8504 31.8066 26.5231C32.2688 27.1957 32.4999 27.9665 32.4999 28.8354V30.0533C32.4999 30.6392 32.292 31.14 31.8763 31.5557C31.4605 31.9715 30.9597 32.1794 30.3739 32.1794H9.62604C9.04024 32.1794 8.53944 31.9715 8.12367 31.5557C7.70789 31.14 7.5 30.6392 7.5 30.0533ZM9.59396 30.0854H30.406V28.8354C30.406 28.4337 30.2818 28.0525 30.0336 27.6917C29.7854 27.331 29.4579 27.0448 29.0512 26.8333C27.48 26.0662 25.9614 25.5154 24.4954 25.1811C23.0293 24.8466 21.5309 24.6794 20 24.6794C18.469 24.6794 16.9631 24.8466 15.4821 25.1811C14.0012 25.5154 12.4843 26.0662 10.9316 26.8333C10.5249 27.0448 10.2003 27.331 9.95775 27.6917C9.71522 28.0525 9.59396 28.4337 9.59396 28.8354V30.0854ZM20 17.3761C20.9992 17.3761 21.8384 17.0365 22.5176 16.3574C23.1967 15.6783 23.5363 14.839 23.5363 13.8397C23.5363 12.8404 23.1967 12.0012 22.5176 11.3221C21.8384 10.643 20.9992 10.3034 20 10.3034C19.0007 10.3034 18.1615 10.643 17.4823 11.3221C16.8032 12.0012 16.4636 12.8404 16.4636 13.8397C16.4636 14.839 16.8032 15.6783 17.4823 16.3574C18.1615 17.0365 19.0007 17.3761 20 17.3761Z" fill="#1C1B1F"/>
</g>
</svg>
