<svg width="40" height="40" viewBox="0 0 40 40" fill="none" xmlns="http://www.w3.org/2000/svg">
<mask id="mask0_663_2298" style="mask-type:alpha" maskUnits="userSpaceOnUse" x="0" y="0" width="40" height="40">
<rect width="40" height="40" fill="#D9D9D9"/>
</mask>
<g mask="url(#mask0_663_2298)">
<path d="M9.59396 32.0726H15.7799V23.2692C15.7799 22.8999 15.9048 22.5903 16.1546 22.3405C16.4045 22.0907 16.714 21.9658 17.0833 21.9658H22.9166C23.2859 21.9658 23.5954 22.0907 23.8452 22.3405C24.0951 22.5903 24.22 22.8999 24.22 23.2692V32.0726H30.406V16.7165C30.406 16.631 30.3873 16.5536 30.3498 16.4841C30.3124 16.4147 30.2617 16.3532 30.1976 16.2998L20.3045 8.86217C20.219 8.79451 20.1175 8.76067 20 8.76067C19.8824 8.76067 19.7809 8.79451 19.6955 8.86217L9.80233 16.2998C9.73822 16.3532 9.68747 16.4147 9.65008 16.4841C9.61267 16.5536 9.59396 16.631 9.59396 16.7165V32.0726ZM7.5 32.0726V16.72C7.5 16.3025 7.5906 15.9108 7.77179 15.5449C7.95296 15.179 8.21136 14.8763 8.547 14.6368L18.4401 7.17951C18.8895 6.83051 19.4071 6.65601 19.993 6.65601C20.5788 6.65601 21.1011 6.83051 21.5598 7.17951L31.4529 14.6368C31.7886 14.8763 32.047 15.179 32.2281 15.5449C32.4093 15.9108 32.4999 16.3025 32.4999 16.72V32.0726C32.4999 32.6426 32.2934 33.134 31.8804 33.547C31.4674 33.9601 30.9759 34.1666 30.406 34.1666H23.4295C23.0602 34.1666 22.7506 34.0417 22.5008 33.7918C22.251 33.542 22.126 33.2325 22.126 32.8632V24.0598H17.8739V32.8632C17.8739 33.2325 17.749 33.542 17.4991 33.7918C17.2493 34.0417 16.9398 34.1666 16.5705 34.1666H9.59396C9.02401 34.1666 8.53254 33.9601 8.11954 33.547C7.70651 33.134 7.5 32.6426 7.5 32.0726Z" fill="#1C1B1F"/>
</g>
</svg>
