<svg width="36" height="36" viewBox="0 0 36 36" fill="none" xmlns="http://www.w3.org/2000/svg">
<mask id="mask0_663_2304" style="mask-type:alpha" maskUnits="userSpaceOnUse" x="0" y="0" width="36" height="36">
<rect width="36" height="36" fill="#D9D9D9"/>
</mask>
<g mask="url(#mask0_663_2304)">
<path d="M18 17.6997L15.4086 19.6786C15.2849 19.7638 15.1646 19.7667 15.0476 19.6872C14.9306 19.6077 14.8939 19.5003 14.9375 19.3651L15.925 16.144L13.2923 14.1497C13.1737 14.0709 13.1428 13.9643 13.1995 13.83C13.2562 13.6957 13.3522 13.6286 13.4875 13.6286H16.6961L17.724 10.3478C17.7676 10.219 17.8596 10.1545 18 10.1545C18.1403 10.1545 18.2323 10.219 18.2759 10.3478L19.2788 13.6286H22.5048C22.64 13.6286 22.7373 13.6957 22.7966 13.83C22.8559 13.9643 22.8262 14.0709 22.7076 14.1497L20.0769 16.144L21.0394 19.3651C21.083 19.5003 21.0504 19.6077 20.9418 19.6872C20.8331 19.7667 20.7169 19.7638 20.5932 19.6786L18 17.6997ZM18 30.7362L11.3538 32.8583C10.9859 32.9936 10.6385 32.9376 10.3116 32.6905C9.98464 32.4434 9.82117 32.1259 9.82117 31.7381V22.6958C8.78655 21.6458 8.01604 20.4564 7.50964 19.1276C7.00321 17.7988 6.75 16.4228 6.75 14.9997C6.75 11.8408 7.83526 9.17605 10.0058 7.00555C12.1763 4.83502 14.841 3.74976 18 3.74976C21.1589 3.74976 23.8236 4.83502 25.9941 7.00555C28.1647 9.17605 29.2499 11.8408 29.2499 14.9997C29.2499 16.4228 28.9967 17.7988 28.4903 19.1276C27.9839 20.4564 27.2134 21.6458 26.1787 22.6958V31.7381C26.1787 32.1259 26.0153 32.4434 25.6884 32.6905C25.3615 32.9376 25.014 32.9936 24.6461 32.8583L18 30.7362ZM18 24.3651C20.6115 24.3651 22.8253 23.4571 24.6413 21.6411C26.4574 19.8251 27.3654 17.6113 27.3654 14.9997C27.3654 12.3882 26.4574 10.1744 24.6413 8.35836C22.8253 6.54233 20.6115 5.63432 18 5.63432C15.3884 5.63432 13.1746 6.54233 11.3586 8.35836C9.54257 10.1744 8.63456 12.3882 8.63456 14.9997C8.63456 17.6113 9.54257 19.8251 11.3586 21.6411C13.1746 23.4571 15.3884 24.3651 18 24.3651ZM11.7057 30.6863L18 28.8228L24.2942 30.6863V24.2554C23.3743 24.9247 22.3727 25.4243 21.2894 25.7545C20.2061 26.0846 19.1096 26.2497 18 26.2497C16.8903 26.2497 15.7939 26.0846 14.7105 25.7545C13.6272 25.4243 12.6256 24.9247 11.7057 24.2554V30.6863Z" fill="#1C1B1F"/>
</g>
</svg>
