<svg width="18" height="20" viewBox="0 0 18 20" fill="none" xmlns="http://www.w3.org/2000/svg">
<mask id="mask0_294_4368" style="mask-type:alpha" maskUnits="userSpaceOnUse" x="0" y="0" width="18" height="20">
<rect width="18" height="20" fill="#D9D9D9"/>
</mask>
<g mask="url(#mask0_294_4368)">
<path d="M6.74947 14.9714H11.2444C11.3979 14.9714 11.5275 14.92 11.6333 14.8172C11.7391 14.7143 11.792 14.5866 11.792 14.4342C11.792 14.2817 11.7402 14.1525 11.6367 14.0468C11.5332 13.941 11.4046 13.8881 11.2511 13.8881H6.7562C6.6027 13.8881 6.47307 13.9395 6.3673 14.0424C6.26154 14.1452 6.20866 14.2729 6.20866 14.4254C6.20866 14.5779 6.26042 14.707 6.36393 14.8128C6.46746 14.9185 6.59597 14.9714 6.74947 14.9714ZM6.74947 12.6317H11.2444C11.3979 12.6317 11.5275 12.5803 11.6333 12.4774C11.7391 12.3746 11.792 12.2469 11.792 12.0944C11.792 11.9419 11.7402 11.8128 11.6367 11.707C11.5332 11.6013 11.4046 11.5484 11.2511 11.5484H6.7562C6.6027 11.5484 6.47307 11.5998 6.3673 11.7027C6.26154 11.8055 6.20866 11.9332 6.20866 12.0857C6.20866 12.2381 6.26042 12.3673 6.36393 12.473C6.46746 12.5788 6.59597 12.6317 6.74947 12.6317ZM8.99872 5.75997C8.82193 5.53961 8.62896 5.36272 8.4198 5.22931C8.21065 5.09589 7.95359 5.02918 7.64862 5.02918C7.25251 5.02918 6.91349 5.1699 6.63155 5.45135C6.34962 5.73279 6.20866 6.07124 6.20866 6.46668C6.20866 7.10247 6.4943 7.68251 7.0656 8.20681C7.63689 8.73111 8.13383 9.18525 8.55641 9.56922C8.69316 9.67819 8.84112 9.73268 9.0003 9.73268C9.15949 9.73268 9.30745 9.67819 9.4442 9.56922C9.86677 9.19142 10.3637 8.73964 10.935 8.21389C11.5063 7.68814 11.792 7.10805 11.792 6.47362C11.792 6.07796 11.6507 5.73831 11.3683 5.45466C11.0859 5.17101 10.7462 5.02918 10.3494 5.02918C10.0441 5.02918 9.78679 5.09589 9.57764 5.22931C9.36849 5.36272 9.17551 5.53961 8.99872 5.75997ZM13.243 17.5836H4.75083C4.37549 17.5836 4.05935 17.4541 3.80241 17.1951C3.54546 16.936 3.41699 16.619 3.41699 16.2439V3.75674C3.41699 3.38163 3.54659 3.06456 3.80578 2.80553C4.06498 2.54651 4.38224 2.41699 4.75758 2.41699H13.2498C13.6251 2.41699 13.9413 2.54651 14.1982 2.80553C14.4551 3.06456 14.5836 3.38163 14.5836 3.75674V16.2439C14.5836 16.619 14.454 16.936 14.1948 17.1951C13.9356 17.4541 13.6184 17.5836 13.243 17.5836ZM4.75674 16.5003H13.2439C13.3187 16.5003 13.3801 16.4763 13.4282 16.4282C13.4763 16.3801 13.5003 16.3187 13.5003 16.2439V3.75674C13.5003 3.68195 13.4763 3.62051 13.4282 3.57243C13.3801 3.52435 13.3187 3.50031 13.2439 3.50031H4.75674C4.68195 3.50031 4.62051 3.52435 4.57243 3.57243C4.52435 3.62051 4.5003 3.68195 4.5003 3.75674V16.2439C4.5003 16.3187 4.52435 16.3801 4.57243 16.4282C4.62051 16.4763 4.68195 16.5003 4.75674 16.5003Z" fill="#1C1B1F"/>
</g>
</svg>
