<svg width="32" height="32" viewBox="0 0 32 32" fill="none" xmlns="http://www.w3.org/2000/svg">
<path d="M27.7529 24.2246C27.7369 24.0806 27.7849 23.9366 27.8809 23.8326C29.8569 21.6726 31.0409 18.9526 31.0409 16.0006C31.0409 8.94461 24.3049 3.22461 16.0009 3.22461C7.69694 3.22461 0.960938 8.94461 0.960938 16.0006C0.960938 18.9926 2.16894 21.7366 4.19294 23.9126C4.28894 24.0166 4.34494 24.1606 4.32894 24.3046L4.05694 26.8646C4.01694 27.2486 4.40894 27.5286 4.76094 27.3766L6.90494 26.4246C7.05694 26.3606 7.22494 26.3686 7.36894 26.4566C9.81694 27.9206 12.7929 28.7766 16.0089 28.7766C19.2249 28.7766 22.1609 27.9286 24.5929 26.4886C24.7369 26.4086 24.9049 26.3926 25.0569 26.4566L27.3449 27.4806C27.6969 27.6406 28.0889 27.3526 28.0489 26.9686L27.7609 24.2166L27.7529 24.2246Z" fill="white" stroke="#373433" stroke-width="0.75" stroke-miterlimit="10"/>
<path d="M15.584 8.83203C14.072 10.496 12.128 11.768 10 12.504" stroke="#373433" stroke-width="0.69" stroke-miterlimit="10" stroke-linecap="round"/>
<path d="M18.4531 9.92773C19.2131 12.0397 20.9331 13.7837 23.0371 14.5677" stroke="#373433" stroke-width="0.69" stroke-miterlimit="10" stroke-linecap="round"/>
<path d="M9.69531 20.5366C10.2473 19.3686 10.8313 18.1686 11.8153 17.3286C12.8313 16.4646 14.2233 16.0806 15.5433 16.2566C16.8633 16.4326 18.0953 17.1686 18.9113 18.2166C19.7273 19.2646 20.1353 20.6246 20.0713 21.9526" stroke="#373433" stroke-width="0.69" stroke-miterlimit="10" stroke-linecap="round"/>
<path d="M13.6075 13.4084C14.1156 13.4084 14.5275 12.9965 14.5275 12.4884C14.5275 11.9803 14.1156 11.5684 13.6075 11.5684C13.0994 11.5684 12.6875 11.9803 12.6875 12.4884C12.6875 12.9965 13.0994 13.4084 13.6075 13.4084Z" fill="#373433"/>
<path d="M18.67 14.5197C19.1781 14.5197 19.59 14.1078 19.59 13.5997C19.59 13.0916 19.1781 12.6797 18.67 12.6797C18.1619 12.6797 17.75 13.0916 17.75 13.5997C17.75 14.1078 18.1619 14.5197 18.67 14.5197Z" fill="#373433"/>
<path d="M19.8672 15.784C19.8672 15.96 19.8832 16.136 19.9472 16.296C20.0112 16.456 20.1312 16.6 20.2992 16.664C20.4672 16.728 20.6592 16.704 20.7792 16.576C20.8912 16.456 20.9152 16.272 20.8832 16.112C20.8512 15.952 20.7552 15.808 20.6752 15.664L20.4512 15.304C20.3872 15.2 20.3312 15.056 20.2432 14.976C20.0272 14.792 19.9472 15.232 19.9232 15.36C19.8912 15.504 19.8752 15.64 19.8752 15.784H19.8672Z" fill="#373433"/>
</svg>
