<svg width="32" height="32" viewBox="0 0 32 32" fill="none" xmlns="http://www.w3.org/2000/svg">
<path d="M9.75938 8.88992C9.75938 10.5209 9.20734 11.9699 6.94834 12.0099C4.68834 12.0509 3.86316 10.3129 4.01816 8.47592C4.17316 6.63792 5.62234 3.9329 6.94834 3.9429C8.27434 3.9539 9.91315 7.05192 9.75815 8.88992H9.75938Z" fill="#D54400" stroke="#383747" stroke-linecap="round" stroke-linejoin="round"/>
<path d="M6.88428 12.3418V18.5448" stroke="#383747" stroke-linecap="round" stroke-linejoin="round"/>
<path d="M6.90991 18.5449C7.20391 18.5449 7.58398 18.82 7.58398 19.113C7.58398 21.633 7.84399 24.6139 7.84399 27.2299C7.84399 27.6449 7.32591 28.0579 6.90991 28.0569C6.46991 28.0569 5.9248 27.6169 5.9248 27.1779C5.9248 24.1069 6.23584 21.949 6.23584 19.113C6.23584 18.82 6.61591 18.5449 6.90991 18.5449Z" fill="#D54400" stroke="#383747" stroke-linecap="round" stroke-linejoin="round"/>
<path d="M28.5432 7.39386V11.0129C28.5432 11.7419 27.9541 12.3289 27.2231 12.3289C26.4921 12.3289 25.9033 11.7419 25.9033 11.0129V7.39288M27.2253 12.3259V6.65088M27.2302 12.3209V18.5249" stroke="#383747" stroke-linecap="round" stroke-linejoin="round"/>
<path d="M27.2566 18.5249C27.5506 18.5249 27.9304 18.8009 27.9304 19.0949C27.9304 21.6149 28.1895 24.5949 28.1895 27.2099C28.1895 27.6249 27.6726 28.0379 27.2566 28.0379C26.8156 28.0379 26.2705 27.5979 26.2705 27.1579C26.2705 24.0879 26.5825 21.9299 26.5825 19.0939C26.5825 18.8009 26.9626 18.5249 27.2566 18.5249Z" fill="#D54400" stroke="#383747" stroke-linecap="round" stroke-linejoin="round"/>
<path d="M16.7993 25.752C20.6079 25.752 23.6953 22.6735 23.6953 18.876C23.6953 15.0785 20.6079 12 16.7993 12C12.9908 12 9.90332 15.0785 9.90332 18.876C9.90332 22.6735 12.9908 25.752 16.7993 25.752Z" stroke="#383747" stroke-linecap="round" stroke-linejoin="round"/>
<path d="M16.7986 23.2699C19.2325 23.2699 21.2056 21.3027 21.2056 18.8759C21.2056 16.4492 19.2325 14.4819 16.7986 14.4819C14.3647 14.4819 12.3916 16.4492 12.3916 18.8759C12.3916 21.3027 14.3647 23.2699 16.7986 23.2699Z" fill="#D54400" stroke="#383747" stroke-linecap="round" stroke-linejoin="round"/>
<path d="M16.7744 16.2052C17.4428 16.1991 18.0895 16.4423 18.5872 16.8869C19.0849 17.3315 19.3978 17.9454 19.4646 18.6082" stroke="white" stroke-linecap="round" stroke-linejoin="round"/>
</svg>
