<svg width="24" height="24" viewBox="0 0 24 24" fill="none" xmlns="http://www.w3.org/2000/svg">
<mask id="mask0_183_3122" style="mask-type:alpha" maskUnits="userSpaceOnUse" x="0" y="0" width="24" height="24">
<rect width="24" height="24" fill="#D9D9D9"/>
</mask>
<g mask="url(#mask0_183_3122)">
<path d="M11.3077 12.6923H6.69231C6.49616 12.6923 6.33173 12.6259 6.19904 12.4932C6.06635 12.3604 6 12.1959 6 11.9997C6 11.8035 6.06635 11.6391 6.19904 11.5065C6.33173 11.374 6.49616 11.3077 6.69231 11.3077H11.3077V6.69231C11.3077 6.49616 11.3741 6.33173 11.5068 6.19904C11.6396 6.06635 11.8041 6 12.0003 6C12.1965 6 12.3609 6.06635 12.4935 6.19904C12.626 6.33173 12.6923 6.49616 12.6923 6.69231V11.3077H17.3077C17.5038 11.3077 17.6683 11.3741 17.801 11.5068C17.9337 11.6396 18 11.8041 18 12.0003C18 12.1965 17.9337 12.3609 17.801 12.4935C17.6683 12.626 17.5038 12.6923 17.3077 12.6923H12.6923V17.3077C12.6923 17.5038 12.6259 17.6683 12.4932 17.801C12.3604 17.9337 12.1959 18 11.9997 18C11.8035 18 11.6391 17.9337 11.5065 17.801C11.374 17.6683 11.3077 17.5038 11.3077 17.3077V12.6923Z" fill="#1C1B1F"/>
</g>
</svg>
