<svg width="24" height="24" viewBox="0 0 24 24" fill="none" xmlns="http://www.w3.org/2000/svg">
<mask id="mask0_467_931" style="mask-type:alpha" maskUnits="userSpaceOnUse" x="0" y="0" width="24" height="24">
<rect width="24" height="24" fill="#D9D9D9"/>
</mask>
<g mask="url(#mask0_467_931)">
<path d="M9.1841 12.0003L16.7168 19.533C16.9155 19.7317 17.0123 19.9657 17.0072 20.2349C17.002 20.5041 16.9001 20.7381 16.7014 20.9368C16.5027 21.1355 16.2687 21.2349 15.9995 21.2349C15.7303 21.2349 15.4963 21.1355 15.2976 20.9368L7.62645 13.2811C7.44567 13.1003 7.31169 12.8977 7.22453 12.6734C7.13734 12.449 7.09375 12.2247 7.09375 12.0003C7.09375 11.776 7.13734 11.5516 7.22453 11.3272C7.31169 11.1029 7.44567 10.9003 7.62645 10.7196L15.2976 3.04841C15.4963 2.84969 15.7328 2.75289 16.0072 2.75801C16.2816 2.76314 16.5181 2.86506 16.7168 3.06378C16.9155 3.2625 17.0149 3.49646 17.0149 3.76568C17.0149 4.03491 16.9155 4.26889 16.7168 4.46761L9.1841 12.0003Z" fill="#1C1B1F"/>
</g>
</svg>
