<svg width="19" height="16" viewBox="0 0 19 16" fill="none" xmlns="http://www.w3.org/2000/svg">
<path fill-rule="evenodd" clip-rule="evenodd" d="M5.76153 4.41677V1.76137C5.76153 1.61617 5.62256 1.5 5.45463 1.5H3.76959C3.59587 1.5 3.4569 1.61617 3.4569 1.76137V6.08434L2.88074 6.50123V14.5012H15.5562V7.00123L9.25882 1.88623L5.76153 4.41677Z" fill="#F7CE6B"/>
<path d="M9.17243 13.5012H4.65535C4.6323 13.5012 4.60925 13.4812 4.60925 13.4612V8.19624C4.60925 7.82124 4.96071 7.51624 5.39283 7.51624H8.44071C8.87283 7.51624 9.22429 7.82124 9.22429 8.19624V13.4612C9.21852 13.4812 9.19548 13.5012 9.17243 13.5012Z" fill="#A77B67"/>
<path d="M17.2848 14.5012H1.15234V14.4562C1.15234 13.9262 1.64208 13.5012 2.25281 13.5012H16.1843C16.7893 13.5012 17.2848 13.9262 17.2848 14.4562V14.5012Z" fill="#99DABC"/>
<path d="M9.72559 1.17625L17.0774 7.46125C17.3539 7.69625 17.3539 8.07625 17.0774 8.30625C16.8066 8.54125 16.3629 8.54125 16.0864 8.30625L9.23009 2.44625L2.35075 8.32625C2.07996 8.56125 1.63632 8.56125 1.35976 8.32625C1.0832 8.09125 1.0832 7.71125 1.35976 7.47625L8.7346 1.17625C9.00539 0.94125 9.44903 0.94125 9.72559 1.17625Z" fill="#E7636C"/>
<path d="M13.3323 10.5012H10.8663C10.5898 10.5012 10.3708 10.3112 10.3708 10.0712V7.93122C10.3708 7.69622 10.5898 7.50122 10.8663 7.50122H13.3323C13.6031 7.50122 13.8278 7.69122 13.8278 7.93122V10.0712C13.8278 10.3112 13.6089 10.5012 13.3323 10.5012Z" fill="#81BBED"/>
</svg>
