<svg width="184" height="69" viewBox="0 0 184 69" fill="none" xmlns="http://www.w3.org/2000/svg">
<path d="M152.805 39.8676C152.358 37.8574 152.656 33.5392 155.187 30.2633C156.9 28.1786 159.282 26.1684 161.962 24.5305C163.6 23.6371 164.791 22.5947 164.791 20.4356C164.791 18.7977 163.972 18.5743 162.632 18.5743C161.292 18.5743 160.399 19.3188 160.25 20.659C159.729 23.4137 156.155 26.6151 150.571 26.6151C143.573 26.6151 140.967 22.5947 140.967 17.9043C140.967 8.44886 149.38 1.82263 162.781 1.82263C177.523 1.82263 184 8.44886 184 17.9043C184 23.9349 182.288 28.6253 178.565 31.8268C176.927 33.2414 174.023 35.326 173.13 36.3684C172.534 36.964 171.567 39.1231 171.269 39.8676C169.854 43.5157 167.025 45.8238 161.888 45.8238C156.751 45.8238 153.624 43.2924 152.805 39.8676ZM152.135 59.4485C152.135 53.1945 156.155 49.2485 161.962 49.2485C168.067 49.2485 171.939 53.1945 171.939 59.4485C171.939 64.5112 167.77 68.3083 161.962 68.3083C156.229 68.3083 152.135 64.5112 152.135 59.4485Z" fill="#F5BF00"/>
<path d="M116.532 14.1074C116.383 12.395 116.308 10.8315 116.085 9.19354C115.192 3.08848 119.138 0.408203 125.243 0.408203C130.454 0.408203 134.028 2.71622 134.847 7.7045C136.038 16.1176 136.038 26.243 134.847 34.6561C134.028 39.6444 130.454 41.878 125.243 41.878C119.138 41.878 115.192 39.2721 116.011 33.7627C116.308 31.3802 116.532 28.9233 116.681 26.4664L114.373 26.6153C114.224 26.6153 114 26.6153 113.852 26.6153C114.447 27.4343 114.894 28.5511 114.968 30.189C115.341 37.8575 109.608 40.5378 102.609 40.5378C99.4823 40.5378 94.7918 39.8678 91.5159 35.4006C91.1437 34.7306 90.0269 35.3262 90.3992 35.9218C91.0692 37.0386 92.2604 38.3043 93.8984 39.1977C91.367 40.5378 86.9744 40.9845 83.624 40.9845C76.7 40.9845 72.0095 37.4108 70.7438 31.678C69.3292 25.3496 69.2548 17.3833 70.7438 10.9059C72.0095 5.17313 75.3598 1.67389 81.7627 1.67389C84.7408 1.67389 89.6546 1.97169 91.5904 4.05635C90.4736 5.17313 89.5057 6.58772 88.8357 8.52347C88.5379 9.19353 90.1758 9.5658 90.3992 8.82127C91.6648 4.80087 95.2385 2.1206 99.929 1.67389C107.97 1.15272 111.469 3.08848 112.065 7.8534C112.437 11.7994 110.129 14.6285 106.034 14.3307C107.3 16.4898 107.3 23.265 106.257 25.7219C106.927 25.2752 108.044 24.9029 109.161 24.9029C109.533 24.9029 109.98 24.9774 110.352 24.9774C109.533 23.8606 109.012 22.2226 109.012 20.0635C109.012 15.522 111.097 14.0329 114.373 14.1074H116.532ZM85.0386 15.7453C86.4532 17.9789 86.4532 21.627 85.3364 24.0839C86.751 23.3394 88.1656 23.1905 89.7291 23.1905L90.3992 23.265C90.4736 23.265 90.6225 23.265 90.697 23.265V15.7453H85.0386ZM107.746 51.4078C102.163 56.6939 95.0152 59.7464 86.0065 59.5975C78.9335 59.4486 74.6153 57.5129 74.3175 52.8969C73.8708 48.2064 79.0824 45.1538 86.9744 44.0371C99.11 42.3247 112.66 41.059 122.637 43.0692C129.635 44.4093 133.805 47.0896 135.294 50.1421C137.304 54.237 136.634 59.672 134.028 62.3523C131.05 65.5537 126.657 68.0851 118.989 68.234C110.873 68.4573 106.406 65.4048 105.141 61.4588C104.024 58.4063 106.034 55.1304 109.31 52.0034C109.906 51.3334 108.491 50.8867 107.746 51.4078Z" fill="#F5BF00"/>
<path d="M41.0975 43.9626C39.3851 57.7362 33.3545 66.2238 20.7721 66.2238C5.435 66.2238 0 53.6414 0 34.3583C0 15.0008 4.76493 2.49286 20.7721 2.49286C34.0246 2.49286 39.534 10.9804 41.0975 24.754H45.2668C45.0435 20.2124 44.6712 15.7453 44.15 11.2782C43.3311 3.90745 47.4259 0.408203 53.4565 0.408203C58.6682 0.408203 62.3908 3.38628 62.9864 9.49134C64.6243 25.573 64.6243 43.7393 62.9864 59.8953C62.3908 65.8515 58.6682 68.8296 53.4565 68.8296C47.4259 68.8296 43.3311 65.4048 44.0756 58.7041C44.6712 53.7903 45.0435 48.8765 45.2668 43.9626H41.0975ZM19.3575 39.1977C19.3575 40.3889 22.2611 40.3889 22.2611 39.1977V29.5934C22.2611 28.3277 19.3575 28.3277 19.3575 29.5934V39.1977Z" fill="#F5BF00"/>
</svg>
