<svg width="24" height="24" viewBox="0 0 24 24" fill="none" xmlns="http://www.w3.org/2000/svg">
<mask id="mask0_601_4444" style="mask-type:alpha" maskUnits="userSpaceOnUse" x="0" y="0" width="24" height="24">
<rect width="24" height="24" fill="#D9D9D9"/>
</mask>
<g mask="url(#mask0_601_4444)">
<path d="M6.23433 13.5C5.82184 13.5 5.46872 13.3531 5.17497 13.0593C4.88124 12.7656 4.73438 12.4125 4.73438 12C4.73438 11.5875 4.88124 11.2344 5.17497 10.9406C5.46872 10.6469 5.82184 10.5 6.23433 10.5C6.64683 10.5 6.99994 10.6469 7.29368 10.9406C7.58743 11.2344 7.7343 11.5875 7.7343 12C7.7343 12.4125 7.58743 12.7656 7.29368 13.0593C6.99994 13.3531 6.64683 13.5 6.23433 13.5ZM12.0036 13.5C11.5911 13.5 11.238 13.3531 10.9442 13.0593C10.6505 12.7656 10.5036 12.4125 10.5036 12C10.5036 11.5875 10.6505 11.2344 10.9442 10.9406C11.238 10.6469 11.5911 10.5 12.0036 10.5C12.416 10.5 12.7692 10.6469 13.0629 10.9406C13.3567 11.2344 13.5035 11.5875 13.5035 12C13.5035 12.4125 13.3567 12.7656 13.0629 13.0593C12.7692 13.3531 12.416 13.5 12.0036 13.5ZM17.7728 13.5C17.3603 13.5 17.0072 13.3531 16.7134 13.0593C16.4197 12.7656 16.2728 12.4125 16.2728 12C16.2728 11.5875 16.4197 11.2344 16.7134 10.9406C17.0072 10.6469 17.3603 10.5 17.7728 10.5C18.1853 10.5 18.5384 10.6469 18.8321 10.9406C19.1259 11.2344 19.2727 11.5875 19.2727 12C19.2727 12.4125 19.1259 12.7656 18.8321 13.0593C18.5384 13.3531 18.1853 13.5 17.7728 13.5Z" fill="#1C1B1F"/>
</g>
</svg>
