<svg width="170" height="116" viewBox="0 0 170 116" fill="none" xmlns="http://www.w3.org/2000/svg">
<path d="M11.6094 4.26562V7.10938H13.5781V8.54688H11.6094V11.3594H9.875V4.26562H11.6094ZM7.64062 4.98438V10.7656H0.953125V4.98438H7.64062ZM2.65625 6.35938V9.39062H5.9375V6.35938H2.65625ZM11.6094 11.9688V15.6719H4.10938V16.8438H12.0469V18.2188H2.39062V14.4062H9.875V13.3125H2.375V11.9688H11.6094ZM21.4688 5.48438V12.1562H14.7812V5.48438H21.4688ZM16.4844 6.875V10.7812H19.7656V6.875H16.4844ZM25.4375 4.26562V8.40625H27.4062V9.85938H25.4375V14.5781H23.7031V4.26562H25.4375ZM26 16.7031V18.1094H16.3906V13.5781H18.125V16.7031H26ZM35.0156 6.51562V7.90625H28.0938V6.51562H30.7188V4.67188H32.4375V6.51562H35.0156ZM31.5781 8.65625C33.375 8.65625 34.6562 10.0156 34.6562 11.9375C34.6562 13.8906 33.375 15.2656 31.5781 15.2656C29.7969 15.2656 28.4844 13.8906 28.5 11.9375C28.4844 10.0156 29.7969 8.65625 31.5781 8.65625ZM31.5781 10.0938C30.6562 10.0938 30.0156 10.8281 30.0312 11.9375C30.0156 13.0781 30.6562 13.7969 31.5781 13.7812C32.4844 13.7969 33.125 13.0781 33.125 11.9375C33.125 10.8281 32.4844 10.0938 31.5781 10.0938ZM40.2656 4.26562V18.3906H38.6094V11.4844H37.2344V17.75H35.6094V4.5625H37.2344V10.0781H38.6094V4.26562H40.2656ZM44.7031 15.8906L43.3906 20.2656H41.9062L42.7188 15.8906H44.7031ZM12.5938 26.2656V40.3906H10.9219V33.25H9.35938V39.6719H7.73438V26.5312H9.35938V31.8281H10.9219V26.2656H12.5938ZM2.82812 27.8906V35.3438C4.04688 35.3203 5.38281 35.2188 6.85938 34.9219L7.03125 36.4375C5.125 36.7812 3.51562 36.875 2.01562 36.875H1.07812V27.8906H2.82812ZM25.3594 26.2656V31.7812H27.4531V33.2344H25.3594V40.3594H23.625V26.2656H25.3594ZM21.625 27.7344C21.625 31.8906 19.9062 35.5312 15.2031 37.8438L14.2188 36.5C17.6562 34.7891 19.5156 32.3828 19.875 29.1719H14.9844V27.7344H21.625ZM42.9844 26.2656V31.625H45.1562V33.0469H42.9844V40.4062H41.25V26.2656H42.9844ZM39.1094 27.6094V29.0156H34.2344V35.5C36.4297 35.5 38.1641 35.3906 40.1094 35.0469L40.3125 36.5156C38.125 36.8906 36.2188 36.9531 33.6719 36.9531H32.5V27.6094H39.1094ZM60.8281 26.8125V27.6875C60.8281 28.5469 60.8281 29.6562 60.5781 31.0469L58.8594 30.8906C59.0469 29.7891 59.0859 28.9297 59.0938 28.1875H51.0469V26.8125H60.8281ZM62.3906 31.6875V33.0469H49.5781V31.6875H54.5469V29.4844H56.2656V31.6875H62.3906ZM60.8594 34.0625V37.7031H52.7812V38.8906H61.2188V40.25H51.0469V36.5156H59.125V35.4531H51.0312V34.0625H60.8594ZM74.4375 26.2656V31.6875H76.6094V33.1406H74.4375V40.4062H72.7188V26.2656H74.4375ZM70.4375 27.5V32.8281H65.6875V35.6406C67.9219 35.625 69.6641 35.5312 71.6406 35.1875L71.7969 36.5938C69.625 36.9844 67.6875 37.0781 65.125 37.0781H63.9688V31.4375H68.7031V28.9062H63.9375V27.5H70.4375ZM90.0781 31.9844V33.3594H84.4844V34.4375H88.4688V37.9062H80.4375V38.9375H88.8594V40.2656H78.7344V36.6875H86.7656V35.7344H78.7188V34.4375H82.7656V33.3594H77.2031V31.9844H90.0781ZM88.9219 26.7031V28.0469H84.7344C85.1172 29.0859 86.8438 29.9844 89.4688 30.1719L88.9219 31.4844C86.3906 31.2812 84.4766 30.4297 83.625 29.1719C82.7734 30.4219 80.8828 31.2812 78.375 31.4844L77.8281 30.1719C80.4297 29.9766 82.1406 29.0938 82.5312 28.0469H78.375V26.7031H88.9219ZM103.219 26.2656V40.3906H101.562V26.2656H103.219ZM100.219 26.6094V39.7188H98.5781V33.2188H96.0625C95.2344 34.8438 93.9062 36.25 91.9062 37.4062L90.9219 36.1719C93.8516 34.4453 95.1875 32.2344 95.4531 29.3906H91.6406V27.9844H97.1719C97.1719 29.3516 97.0078 30.6328 96.625 31.8281H98.5781V26.6094H100.219ZM107.766 27.6875L107.594 35.6719H105.828L105.641 27.6875H107.766ZM106.719 39.125C106.047 39.125 105.5 38.5781 105.5 37.9062C105.5 37.25 106.047 36.7031 106.719 36.7031C107.359 36.7031 107.922 37.25 107.922 37.9062C107.922 38.5781 107.359 39.125 106.719 39.125Z" fill="#383747"/>
<path d="M141.178 88.4569C140.766 86.5997 141.041 82.61 143.38 79.5834C144.962 77.6574 147.163 75.8001 149.639 74.2868C151.153 73.4613 152.253 72.4983 152.253 70.5035C152.253 68.9902 151.496 68.7838 150.258 68.7838C149.02 68.7838 148.195 69.4717 148.057 70.7099C147.576 73.255 144.274 76.2128 139.115 76.2128C132.649 76.2128 130.241 72.4983 130.241 68.1647C130.241 59.4288 138.014 53.3067 150.396 53.3067C164.016 53.3067 170 59.4288 170 68.1647C170 73.7365 168.418 78.0701 164.979 81.0279C163.465 82.3349 160.783 84.2609 159.957 85.224C159.407 85.7743 158.513 87.7691 158.238 88.4569C156.931 91.8275 154.317 93.9599 149.57 93.9599C144.824 93.9599 141.935 91.6212 141.178 88.4569ZM140.559 106.548C140.559 100.77 144.274 97.1241 149.639 97.1241C155.28 97.1241 158.857 100.77 158.857 106.548C158.857 111.226 155.005 114.734 149.639 114.734C144.343 114.734 140.559 111.226 140.559 106.548Z" fill="#383747"/>
<path d="M107.666 64.6568C107.528 63.0747 107.459 61.6302 107.253 60.1169C106.428 54.4763 110.073 52 115.714 52C120.529 52 123.831 54.1324 124.587 58.7411C125.688 66.5141 125.688 75.8691 124.587 83.6421C123.831 88.2508 120.529 90.3145 115.714 90.3145C110.073 90.3145 106.428 87.9069 107.184 82.8167C107.459 80.6155 107.666 78.3455 107.803 76.0755L105.671 76.2131C105.533 76.2131 105.327 76.2131 105.189 76.2131C105.74 76.9697 106.152 78.0016 106.221 79.5149C106.565 86.5999 101.269 89.0763 94.8026 89.0763C91.9135 89.0763 87.5799 88.4572 84.5533 84.33C84.2093 83.7109 83.1775 84.2612 83.5215 84.8115C84.1405 85.8433 85.2411 87.0127 86.7545 87.8381C84.4157 89.0763 80.3573 89.489 77.2618 89.489C70.8646 89.489 66.531 86.1872 65.3616 80.8906C64.0547 75.0437 63.9859 67.6835 65.3616 61.699C66.531 56.4024 69.6265 53.1694 75.5421 53.1694C78.2936 53.1694 82.8336 53.4445 84.6221 55.3706C83.5902 56.4024 82.696 57.7093 82.0769 59.4978C81.8018 60.1169 83.3151 60.4608 83.5215 59.7729C84.6908 56.0584 87.9926 53.5821 92.3262 53.1694C99.7552 52.6879 102.988 54.4763 103.539 58.8787C103.882 62.5244 101.75 65.1383 97.9668 64.8632C99.1362 66.858 99.1361 73.1177 98.1731 75.3876C98.7922 74.9749 99.824 74.631 100.856 74.631C101.2 74.631 101.612 74.6998 101.956 74.6998C101.2 73.668 100.718 72.1546 100.718 70.1598C100.718 65.9638 102.644 64.5881 105.671 64.6568H107.666ZM78.5688 66.1702C79.8757 68.2338 79.8757 71.6043 78.8439 73.8743C80.1509 73.1865 81.4578 73.0489 82.9024 73.0489L83.5215 73.1177C83.5903 73.1177 83.7278 73.1177 83.7966 73.1177V66.1702H78.5688ZM99.5489 99.1192C94.3898 104.003 87.7863 106.823 79.463 106.686C72.9282 106.548 68.9386 104.76 68.6634 100.495C68.2507 96.1614 73.0658 93.3411 80.3572 92.3093C91.5696 90.7272 104.089 89.5578 113.306 91.4151C119.772 92.6532 123.624 95.1296 125 97.9498C126.857 101.733 126.238 106.755 123.831 109.231C121.079 112.189 117.021 114.528 109.936 114.665C102.438 114.871 98.3107 112.051 97.1413 108.405C96.1095 105.585 97.9668 102.559 100.993 99.6695C101.544 99.0504 100.237 98.6377 99.5489 99.1192Z" fill="#383747"/>
<path d="M37.9705 92.2405C36.3884 104.966 30.8167 112.808 19.1916 112.808C5.02146 112.808 0 101.183 0 83.3669C0 65.4823 4.40238 53.926 19.1916 53.926C31.4357 53.926 36.526 61.7678 37.9705 74.4934H41.8226C41.6162 70.2974 41.2723 66.1702 40.7908 62.0429C40.0341 55.233 43.8174 52 49.3892 52C54.2043 52 57.6436 54.7515 58.1939 60.392C59.7073 75.2501 59.7073 92.0341 58.1939 106.961C57.6436 112.464 54.2043 115.215 49.3892 115.215C43.8174 115.215 40.0341 112.051 40.722 105.86C41.2723 101.32 41.6162 96.7804 41.8226 92.2405H37.9705ZM17.8847 87.8381C17.8847 88.9387 20.5674 88.9387 20.5674 87.8381V78.9646C20.5674 77.7952 17.8847 77.7952 17.8847 78.9646V87.8381Z" fill="#383747"/>
</svg>
